<?xml version="1.0" encoding="utf-8"?>
<!-- Generator: Adobe Illustrator 28.2.0, SVG Export Plug-In . SVG Version: 6.00 Build 0)  -->
<svg version="1.1" id="Layer_1" xmlns="http://www.w3.org/2000/svg" xmlns:xlink="http://www.w3.org/1999/xlink" x="0px" y="0px"
	 viewBox="0 0 24 24" style="enable-background:new 0 0 24 24;" xml:space="preserve">
<style type="text/css">
	.st0{fill:#FFFFFF;}
	.st1{fill:none;stroke:url(#SVGID_1_);stroke-width:5.633800e-02;stroke-opacity:5.000000e-02;}
	.st2{fill:#FAECBC;}
	.st3{fill:url(#SVGID_00000023964950641435778500000005682154325252901262_);}
	.st4{fill:url(#SVGID_00000039827848261655991460000016754179552455694512_);}
	.st5{fill:url(#SVGID_00000147220464672419469370000001465335191393469825_);}
	.st6{fill:url(#SVGID_00000134227372365590813750000016880509822058109851_);}
	.st7{fill:url(#SVGID_00000055673854825848008470000015914390726180051844_);}
	.st8{fill:url(#SVGID_00000090296778288245634230000006469718925234005632_);}
	.st9{fill:url(#SVGID_00000047753359875465578870000002629229066934006920_);}
	.st10{fill:url(#SVGID_00000133531295969563395770000004878616690116660877_);}
	.st11{fill:url(#SVGID_00000087400188583512187610000011678299493127417744_);}
	.st12{fill:url(#SVGID_00000029732046773388767590000000006102788086901935_);}
	.st13{fill:url(#SVGID_00000100360981642041600430000001271342031557228677_);}
	.st14{fill:url(#SVGID_00000022538819185070087780000013477149582052032903_);}
	.st15{fill:url(#SVGID_00000086668207775039133210000003115383966536119984_);}
	.st16{fill:url(#SVGID_00000101809811063250193090000007363984499576530614_);}
	.st17{fill:url(#SVGID_00000080918448296637667340000013811692640603383717_);}
	.st18{fill:url(#SVGID_00000024715622867330202330000014261759720753733034_);}
</style>
<path class="st0" d="M8,21.1c-3.1,0-5.7-1.7-7-4.8S0.1,9.2,1.7,5.6c3.1,0,5.7,1.7,7,4.8C10,13.6,9.6,17.6,8,21.1z"/>
<path class="st0" d="M7.3,21.3c4-1,7.6-3.9,9.3-8c1.7-4.1,1.3-8.6-0.8-12.3c-4,1-7.6,3.9-9.3,8C4.8,13.1,5.2,17.6,7.3,21.3z"/>
<linearGradient id="SVGID_1_" gradientUnits="userSpaceOnUse" x1="7.6081" y1="20.1337" x2="15.5621" y2="9.6327" gradientTransform="matrix(1 0 0 -1 0 26)">
	<stop  offset="0" style="stop-color:#000000"/>
	<stop  offset="1" style="stop-color:#000000;stop-opacity:0"/>
</linearGradient>
<path class="st1" d="M16.6,13.2c-1.7,4.1-5.3,7-9.3,8C5.3,17.6,4.8,13.1,6.6,9c1.7-4.1,5.3-7,9.3-8C17.9,4.6,18.3,9.1,16.6,13.2z"/>
<path class="st0" d="M7.2,21.2c2.6,2,6,2.7,9.3,1.6c3.4-1.1,5.9-3.9,7.2-7.2c-2.6-2-6-2.7-9.3-1.6C11,15.2,8.5,17.9,7.2,21.2z"/>
<g>
	<g>
		<g>
			<g>
				<path class="st2" d="M23.5,12.1C23.5,12.2,23.5,12.2,23.5,12.1c-0.2,0.3-0.7,2.6-2.2,4c0.1-0.1,0.1-0.1,0.2-0.2
					C22.9,14.6,23.4,12.3,23.5,12.1z"/>
				
					<radialGradient id="SVGID_00000079470754318723117130000012450384924704670106_" cx="17.4722" cy="3.382" r="10.1036" gradientUnits="userSpaceOnUse">
					<stop  offset="5.617980e-03" style="stop-color:#FFFFFF"/>
					<stop  offset="3.720756e-02" style="stop-color:#FEEAC8"/>
					<stop  offset="0.1094" style="stop-color:#FAB540"/>
					<stop  offset="0.129" style="stop-color:#F9A61A"/>
					<stop  offset="0.3456" style="stop-color:#B73525"/>
					<stop  offset="1" style="stop-color:#1A0B0C"/>
				</radialGradient>
				<path style="fill:url(#SVGID_00000079470754318723117130000012450384924704670106_);" d="M20.9,9c0.3,2-0.4,3.6-1.4,4.3
					c0.1-0.1,0.1-0.1,0.2-0.2c0.9-0.7,1.6-2.2,1.3-4.2c-0.5-3.5-4.7-7.4-4.5-7.4c0,0,0,0-0.1,0c0,0,0,0,0,0c0,0-0.1,0-0.1,0
					C16.1,1.5,20.4,5.5,20.9,9z"/>
				
					<radialGradient id="SVGID_00000067955632875400619430000008841876577729973934_" cx="17.3654" cy="16.1739" r="2.4186" gradientUnits="userSpaceOnUse">
					<stop  offset="5.617980e-03" style="stop-color:#FFFFFF"/>
					<stop  offset="3.720756e-02" style="stop-color:#FEEAC8"/>
					<stop  offset="0.1094" style="stop-color:#FAB540"/>
					<stop  offset="0.129" style="stop-color:#F9A61A"/>
					<stop  offset="0.3456" style="stop-color:#B73525"/>
					<stop  offset="1" style="stop-color:#1A0B0C"/>
				</radialGradient>
				<path style="fill:url(#SVGID_00000067955632875400619430000008841876577729973934_);" d="M18.1,15.2c-0.6-0.3-0.9-0.8-0.8-1.1
					c0-0.1,0.1-0.1,0.2-0.2c-0.1,0.1-0.2,0.1-0.3,0.2c-0.1,0-0.1,0.1-0.2,0.2c-0.1,0.3,0.2,0.8,0.8,1.1c0.4,0.2,0.9,0.3,1.4,0.3
					c0.5,0,1-0.3,1.4-0.7c0.1-0.1,0.1-0.1,0.2-0.2c-0.4,0.4-0.9,0.6-1.4,0.6C18.9,15.5,18.4,15.4,18.1,15.2z"/>
				
					<radialGradient id="SVGID_00000176031880254514720650000007251343228102103177_" cx="13.2316" cy="17.7064" r="9.284" gradientUnits="userSpaceOnUse">
					<stop  offset="5.617980e-03" style="stop-color:#FFFFFF"/>
					<stop  offset="3.720756e-02" style="stop-color:#FEEAC8"/>
					<stop  offset="0.1094" style="stop-color:#FAB540"/>
					<stop  offset="0.129" style="stop-color:#F9A61A"/>
					<stop  offset="0.3456" style="stop-color:#B73525"/>
					<stop  offset="1" style="stop-color:#1A0B0C"/>
				</radialGradient>
				<path style="fill:url(#SVGID_00000176031880254514720650000007251343228102103177_);" d="M17.3,19.7c-0.5,0-1.1-0.1-1.6-0.3
					c-2.3-0.8-4.3-2.9-5.2-4.8c-0.9-2-0.6-3.4-0.2-3.6c-0.1,0.1-0.3,0.1-0.4,0.2c-0.5,0.2-0.7,1.7,0.2,3.6c0.9,2,2.9,4,5.2,4.8
					c0.5,0.2,1.1,0.3,1.6,0.3c1.6,0.1,2.9-0.7,4-1.7c0.1-0.1,0.2-0.2,0.2-0.2C20.2,19,18.8,19.7,17.3,19.7z"/>
				
					<radialGradient id="SVGID_00000057110530976027837590000010101850875483683722_" cx="6.6399" cy="16.4594" r="13.1183" gradientUnits="userSpaceOnUse">
					<stop  offset="5.617980e-03" style="stop-color:#FFFFFF"/>
					<stop  offset="3.720756e-02" style="stop-color:#FEEAC8"/>
					<stop  offset="0.1094" style="stop-color:#FAB540"/>
					<stop  offset="0.129" style="stop-color:#F9A61A"/>
					<stop  offset="0.3456" style="stop-color:#B73525"/>
					<stop  offset="1" style="stop-color:#1A0B0C"/>
				</radialGradient>
				<path style="fill:url(#SVGID_00000057110530976027837590000010101850875483683722_);" d="M16,23.3c-3-0.7-9.6-4.1-11.1-10.7
					C4.1,9,5.5,6,7.2,4.9c0.3-0.2,0.7-0.4,1-0.5C8.1,4.5,8,4.5,7.8,4.5C7.5,4.6,7.2,4.8,6.8,5c-1.7,1.1-3.2,4.2-2.4,7.8
					c1.5,6.5,8.2,10,11.2,10.7c0.8,0.2,1.5,0.2,1.7,0.1c0,0,0,0,0.1,0c0.1-0.1,0.2-0.2,0.3-0.2c0,0,0,0-0.1,0
					C17.4,23.5,16.8,23.5,16,23.3z"/>
			</g>
			<g>
				
					<radialGradient id="SVGID_00000128480408055754099930000004119533055133515399_" cx="14.229" cy="7.6589" r="7.293" gradientUnits="userSpaceOnUse">
					<stop  offset="5.617980e-03" style="stop-color:#FFFFFF"/>
					<stop  offset="3.720756e-02" style="stop-color:#FEEAC8"/>
					<stop  offset="0.1094" style="stop-color:#FAB540"/>
					<stop  offset="0.129" style="stop-color:#F9A61A"/>
					<stop  offset="0.3456" style="stop-color:#B73525"/>
					<stop  offset="1" style="stop-color:#1A0B0C"/>
				</radialGradient>
				<path style="fill:url(#SVGID_00000128480408055754099930000004119533055133515399_);" d="M15.2,4.2C15,4.1,14.8,4,14.5,3.8
					c-0.2-0.1-0.5-0.3-0.8-0.4c-0.3-0.1-0.7-0.3-1-0.4c-1.3-0.4-3-0.4-4.6,0C8,3.1,7.9,3.2,7.8,3.2c1.6-0.5,3.3-0.5,4.7-0.1
					c0.4,0.1,0.7,0.2,1,0.4c0.3,0.1,0.6,0.3,0.8,0.4c0.3,0.1,0.5,0.2,0.6,0.3c0.2,0.1,0.4,0.2,0.5,0.2c0,0,0,0,0,0
					c0.1,0,0.2,0,0.2,0c0,0,0,0,0,0C15.6,4.3,15.4,4.3,15.2,4.2z"/>
				
					<radialGradient id="SVGID_00000002346493131069699010000008672594900757514162_" cx="18.5413" cy="8.0145" r="15.4447" gradientUnits="userSpaceOnUse">
					<stop  offset="5.617980e-03" style="stop-color:#FFFFFF"/>
					<stop  offset="3.720756e-02" style="stop-color:#FEEAC8"/>
					<stop  offset="0.1094" style="stop-color:#FAB540"/>
					<stop  offset="0.129" style="stop-color:#F9A61A"/>
					<stop  offset="0.3456" style="stop-color:#B73525"/>
					<stop  offset="1" style="stop-color:#1A0B0C"/>
				</radialGradient>
				<path style="fill:url(#SVGID_00000002346493131069699010000008672594900757514162_);" d="M19.6,9.5C19.6,9.5,19.6,9.5,19.6,9.5
					c-0.4-0.5-0.3-1.5-1-2.9c-0.6-1.4-2.1-3.2-4.1-4.3C14.1,2,13.5,1.7,13,1.5c-1.9-0.7-3.8-0.9-5.5-0.8C5.9,0.7,4.7,1,4.4,1
					c-0.1,0-0.1,0,0-0.1c0.1,0,0.2-0.1,0.4-0.1c-0.1,0-0.2,0.1-0.3,0.1C4.3,0.9,4.2,1,4.1,1C4,1.1,4,1.1,4.1,1.1
					c0.3,0,1.5-0.3,3.1-0.3c1.6-0.1,3.6,0.1,5.5,0.8c0.5,0.2,1.1,0.4,1.6,0.7c2,1.1,3.5,3,4.2,4.4c0.6,1.4,0.6,2.4,0.9,2.9
					c0,0,0.1,0.1,0.1,0.1c0.1,0,0.2,0.1,0.2,0c0.1,0,0.1-0.1,0.2-0.1C19.8,9.6,19.7,9.6,19.6,9.5z"/>
				
					<radialGradient id="SVGID_00000117676885835708977790000015163511492192924841_" cx="3.148" cy="4.4504" r="10.392" gradientUnits="userSpaceOnUse">
					<stop  offset="5.617980e-03" style="stop-color:#FFFFFF"/>
					<stop  offset="3.720756e-02" style="stop-color:#FEEAC8"/>
					<stop  offset="0.1094" style="stop-color:#FAB540"/>
					<stop  offset="0.129" style="stop-color:#F9A61A"/>
					<stop  offset="0.3456" style="stop-color:#B73525"/>
					<stop  offset="1" style="stop-color:#1A0B0C"/>
				</radialGradient>
				<path style="fill:url(#SVGID_00000117676885835708977790000015163511492192924841_);" d="M1,15.2C0.4,14.1,1,3.9,7,1.9
					c0.1,0,0.2-0.1,0.3-0.1C7.2,1.8,7.1,1.9,7,1.9C6.9,1.9,6.8,2,6.7,2C0.7,4.1,0,14.4,0.6,15.5c0,0.1,0.1,0.1,0.1,0.1
					c0,0,0,0,0.1,0c0.1-0.1,0.3-0.2,0.4-0.2c0,0,0,0-0.1,0C1.1,15.3,1,15.3,1,15.2z"/>
			</g>
			<path class="st2" d="M21,8.9c0.2,1.2,0,2.3-0.4,3C21,11.2,21.2,10.1,21,8.9c-0.4-3.3-4-6.9-4.5-7.4c0,0,0,0,0,0
				C15.9,1.2,20.5,5.3,21,8.9z"/>
			<path class="st2" d="M19.5,15.4c-0.5,0-1-0.1-1.3-0.3c-0.6-0.3-0.9-0.8-0.8-1.1c0,0-0.1,0.1-0.1,0.1c-0.1,0.3,0.2,0.8,0.8,1.1
				c0.4,0.2,0.8,0.3,1.4,0.3c0.9-0.1,1.8-0.8,2.3-2C21.2,14.7,20.3,15.3,19.5,15.4z"/>
			<path class="st2" d="M17.4,19.6c-0.5,0-1.1-0.1-1.6-0.3c-2.3-0.8-4.3-2.9-5.2-4.8c-0.7-1.7-0.7-2.9-0.4-3.4
				c-0.4,0.4-0.5,1.7,0.3,3.5c0.9,2,2.9,4,5.2,4.8c0.5,0.2,1.1,0.3,1.6,0.3c2.7,0.1,4.6-2.2,5.5-4.3C21.9,17.4,20,19.7,17.4,19.6z"
				/>
			<path class="st2" d="M23.1,13.3c0.2-0.4,0.3-0.7,0.3-1C23.4,12.5,23.3,12.9,23.1,13.3z"/>
			<path class="st2" d="M9.9,4.9C9.7,5.1,9.5,5.3,9.2,5.6C9.5,5.3,9.7,5.1,9.9,4.9z"/>
			<path class="st2" d="M16.1,23.2C13.1,22.5,6.5,19,5,12.5c-0.7-3,0.2-5.7,1.6-7c-1.4,1.4-2.4,4.1-1.7,7.2
				c1.5,6.5,8.2,10,11.1,10.7c0.8,0.2,1.4,0.2,1.6,0.1c0.1,0,0.1-0.1,0.1-0.1c0,0,0,0,0,0C17.5,23.4,16.9,23.4,16.1,23.2z"/>
			<path class="st2" d="M13,1.5c0.5,0.2,1.1,0.4,1.6,0.7c2,1.1,3.5,3,4.1,4.3C19.3,8,19.3,9,19.6,9.4c0,0,0.1,0.1,0.1,0.1
				c0.1,0.1,0.3,0,0.4-0.2c-0.1,0.2-0.3,0.2-0.4,0.1c0,0-0.1-0.1-0.1-0.1c-0.3-0.4-0.3-1.4-0.9-2.8c-0.6-1.4-2.1-3.2-4.1-4.3
				C14.1,1.9,13.6,1.7,13,1.5c-1.8-0.7-3.8-0.9-5.4-0.9C6,0.7,4.8,0.9,4.5,0.9c0,0-0.1,0,0,0c0,0,0,0,0,0C4.4,1,4.4,1,4.4,1
				c0.3,0,1.5-0.2,3.1-0.3C9.1,0.6,11.1,0.8,13,1.5z"/>
			<path class="st2" d="M1.1,15.1C0.6,14.2,0.7,6.7,4.5,3.3c-3.9,3.4-4,11-3.5,11.9c0,0.1,0.1,0.1,0.1,0.1c0,0,0.1,0,0.1-0.1
				c0,0,0,0,0,0C1.2,15.2,1.1,15.2,1.1,15.1z"/>
			<path class="st2" d="M15.2,4.1c-0.2-0.1-0.4-0.2-0.6-0.3c-0.2-0.1-0.5-0.3-0.8-0.4c-0.3-0.1-0.7-0.3-1-0.4
				C11,2.5,8.5,2.6,6.6,3.7C6.1,4,5.6,4.4,5.2,4.8c0.4-0.4,0.8-0.7,1.3-1c1.9-1.1,4.4-1.2,6.1-0.7c0.4,0.1,0.7,0.2,1,0.4
				c0.3,0.1,0.6,0.3,0.8,0.4C14.8,4,15,4.1,15.2,4.1c0.2,0.2,0.3,0.2,0.4,0.2c0,0,0.1,0,0.1-0.1c0,0,0,0,0,0
				C15.6,4.3,15.4,4.2,15.2,4.1z"/>
			<path class="st2" d="M21.1,8.9c0.2,1.2,0,2.3-0.4,3.1c-0.3,0.5-0.6,0.9-1,1.2c-0.9,0.6-2,0.5-2.3,0.9c-0.1,0.3,0.2,0.7,0.8,1.1
				c0.4,0.2,0.8,0.3,1.3,0.3c0.8-0.1,1.7-0.7,2.2-1.8c0.3-0.6,0.4-1.2,0.4-2c0.1-4-4.9-9.6-5.6-10C17,2,20.6,5.6,21.1,8.9z"/>
			<path class="st2" d="M10.6,14.4c0.9,1.9,2.9,4,5.2,4.8c0.5,0.2,1.1,0.3,1.6,0.3c2.6,0.1,4.6-2.1,5.5-4.2c0.6-1.4,0.8-2.8,0.7-3.2
				c0-0.1,0-0.1,0-0.1c0,0-0.1,0-0.1,0.2c-0.1,0.2-0.2,0.6-0.3,1c-0.5,1.4-1.8,3.5-3.9,3.9c-0.9,0.1-1.8-0.1-2.8-0.5
				c-1.2-0.5-2.4-1.4-3.2-2.3c-1.4-1.6-2-3.2-2.7-3.5c-0.1,0-0.2,0-0.3,0.1C9.9,11.5,9.9,12.7,10.6,14.4z"/>
			<path class="st2" d="M8.5,14.6c-1.4-3.1-1.2-6.2-0.2-7.8c0.3-0.5,0.6-0.8,0.9-1.1c0.3-0.3,0.6-0.5,0.8-0.7
				c0.2-0.2,0.2-0.3,0.2-0.4c0-0.1-0.1-0.2-0.3-0.2C9.4,4.1,8.3,4.2,7.2,4.9C7,5,6.8,5.2,6.5,5.4c-1.3,1.4-2.2,4-1.6,7
				c1.5,6.5,8.2,10,11.1,10.7c0.8,0.2,1.4,0.2,1.6,0.1c0,0,0,0,0,0C17.6,22.7,11.4,21.1,8.5,14.6z"/>
			<path class="st2" d="M4.5,0.9c0.3,0,1.5-0.2,3.1-0.3c1.6,0,3.6,0.2,5.4,0.9c0.5,0.2,1.1,0.4,1.6,0.7c2,1.1,3.5,3,4.1,4.3
				c0.6,1.4,0.6,2.4,0.9,2.8c0,0,0.1,0.1,0.1,0.1c0.1,0.1,0.3,0,0.4-0.1C20.2,9,20.2,8.6,20.1,8c-0.2-1.3-1.4-3.6-3.5-5.2
				c-0.8-0.6-1.7-1.1-2.6-1.5C10.2-0.3,5.1,0.5,4.5,0.9C4.5,0.9,4.5,0.9,4.5,0.9z"/>
			<path class="st2" d="M5.2,4.8C5.6,4.4,6.1,4,6.6,3.7C8.5,2.6,11,2.5,12.8,3c0.4,0.1,0.7,0.2,1,0.4c0.3,0.1,0.6,0.3,0.8,0.4
				c0.2,0.1,0.5,0.2,0.6,0.3c0.2,0.1,0.4,0.2,0.5,0.2c0,0,0,0,0,0c0-0.2-0.6-1-1.9-1.7c-0.3-0.2-0.6-0.3-0.9-0.4
				C11.3,1.5,9,1.3,7,1.9c-1,0.3-1.8,0.8-2.5,1.4C0.7,6.7,0.6,14.2,1.1,15.1c0,0.1,0.1,0.1,0.1,0.1c0,0,0,0,0,0
				C1.6,14.2,1.9,8,5.2,4.8z"/>
			<g>
				<g>
					
						<radialGradient id="SVGID_00000183950554020553974670000005242125679319519935_" cx="6.4971" cy="16.4235" r="18.0436" gradientUnits="userSpaceOnUse">
						<stop  offset="5.617980e-03" style="stop-color:#FFFFFF"/>
						<stop  offset="8.559252e-02" style="stop-color:#FEEEC8"/>
						<stop  offset="0.2682" style="stop-color:#FDC440"/>
						<stop  offset="0.3258" style="stop-color:#FCB614"/>
						<stop  offset="0.6236" style="stop-color:#F9A61A"/>
						<stop  offset="0.8427" style="stop-color:#D85026"/>
						<stop  offset="1" style="stop-color:#B82025"/>
					</radialGradient>
					<path style="fill:url(#SVGID_00000183950554020553974670000005242125679319519935_);" d="M21.1,8.9c0.2,1.2,0,2.3-0.4,3.1
						c-0.3,0.5-0.6,0.9-1,1.2c-0.9,0.6-2,0.5-2.3,0.9c-0.1,0.3,0.2,0.7,0.8,1.1c0.4,0.2,0.8,0.3,1.3,0.3c0.8-0.1,1.7-0.7,2.2-1.8
						c0.3-0.6,0.4-1.2,0.4-2c0.1-4-4.9-9.6-5.6-10C17,2,20.6,5.6,21.1,8.9z"/>
					
						<radialGradient id="SVGID_00000147900515360021217230000012974893047125187220_" cx="6.4973" cy="16.4232" r="18.0432" gradientUnits="userSpaceOnUse">
						<stop  offset="5.617980e-03" style="stop-color:#FFFFFF"/>
						<stop  offset="8.559252e-02" style="stop-color:#FEEEC8"/>
						<stop  offset="0.2682" style="stop-color:#FDC440"/>
						<stop  offset="0.3258" style="stop-color:#FCB614"/>
						<stop  offset="0.6236" style="stop-color:#F9A61A"/>
						<stop  offset="0.8427" style="stop-color:#D85026"/>
						<stop  offset="1" style="stop-color:#B82025"/>
					</radialGradient>
					<path style="fill:url(#SVGID_00000147900515360021217230000012974893047125187220_);" d="M10.6,14.4c0.9,1.9,2.9,4,5.2,4.8
						c0.5,0.2,1.1,0.3,1.6,0.3c2.6,0.1,4.6-2.1,5.5-4.2c0.6-1.4,0.8-2.8,0.7-3.2c0-0.1,0-0.1,0-0.1c0,0-0.1,0-0.1,0.2
						c-0.1,0.2-0.2,0.6-0.3,1c-0.5,1.4-1.8,3.5-3.9,3.9c-0.9,0.1-1.8-0.1-2.8-0.5c-1.2-0.5-2.4-1.4-3.2-2.3c-1.4-1.6-2-3.2-2.7-3.5
						c-0.1,0-0.2,0-0.3,0.1C9.9,11.5,9.9,12.7,10.6,14.4z"/>
					
						<radialGradient id="SVGID_00000125596746627721603000000013545611625195434136_" cx="6.4973" cy="16.4235" r="18.0429" gradientUnits="userSpaceOnUse">
						<stop  offset="5.617980e-03" style="stop-color:#FFFFFF"/>
						<stop  offset="8.559252e-02" style="stop-color:#FEEEC8"/>
						<stop  offset="0.2682" style="stop-color:#FDC440"/>
						<stop  offset="0.3258" style="stop-color:#FCB614"/>
						<stop  offset="0.6236" style="stop-color:#F9A61A"/>
						<stop  offset="0.8427" style="stop-color:#D85026"/>
						<stop  offset="1" style="stop-color:#B82025"/>
					</radialGradient>
					<path style="fill:url(#SVGID_00000125596746627721603000000013545611625195434136_);" d="M8.5,14.6c-1.4-3.1-1.2-6.2-0.2-7.8
						c0.3-0.5,0.6-0.8,0.9-1.1c0.3-0.3,0.6-0.5,0.8-0.7c0.2-0.2,0.2-0.3,0.2-0.4c0-0.1-0.1-0.2-0.3-0.2C9.4,4.1,8.3,4.2,7.2,4.9
						C7,5,6.8,5.2,6.5,5.4c-1.3,1.4-2.2,4-1.6,7c1.5,6.5,8.2,10,11.1,10.7c0.8,0.2,1.4,0.2,1.6,0.1c0,0,0,0,0,0
						C17.6,22.7,11.4,21.1,8.5,14.6z"/>
				</g>
				<g>
					
						<radialGradient id="SVGID_00000057147839988037325060000015793537233234018469_" cx="6.4971" cy="16.4227" r="18.0429" gradientUnits="userSpaceOnUse">
						<stop  offset="5.617980e-03" style="stop-color:#FFFFFF"/>
						<stop  offset="8.559252e-02" style="stop-color:#FEEEC8"/>
						<stop  offset="0.2682" style="stop-color:#FDC440"/>
						<stop  offset="0.3258" style="stop-color:#FCB614"/>
						<stop  offset="0.6236" style="stop-color:#F9A61A"/>
						<stop  offset="0.8427" style="stop-color:#D85026"/>
						<stop  offset="1" style="stop-color:#B82025"/>
					</radialGradient>
					<path style="fill:url(#SVGID_00000057147839988037325060000015793537233234018469_);" d="M4.5,0.9c0.3,0,1.5-0.2,3.1-0.3
						c1.6,0,3.6,0.2,5.4,0.9c0.5,0.2,1.1,0.4,1.6,0.7c2,1.1,3.5,3,4.1,4.3c0.6,1.4,0.6,2.4,0.9,2.8c0,0,0.1,0.1,0.1,0.1
						c0.1,0.1,0.3,0,0.4-0.1C20.2,9,20.2,8.6,20.1,8c-0.2-1.3-1.4-3.6-3.5-5.2c-0.8-0.6-1.7-1.1-2.6-1.5C10.2-0.3,5.1,0.5,4.5,0.9
						C4.5,0.9,4.5,0.9,4.5,0.9z"/>
					
						<radialGradient id="SVGID_00000110442018387282974770000004721794231296410260_" cx="6.4972" cy="16.4229" r="18.043" gradientUnits="userSpaceOnUse">
						<stop  offset="5.617980e-03" style="stop-color:#FFFFFF"/>
						<stop  offset="8.559252e-02" style="stop-color:#FEEEC8"/>
						<stop  offset="0.2682" style="stop-color:#FDC440"/>
						<stop  offset="0.3258" style="stop-color:#FCB614"/>
						<stop  offset="0.6236" style="stop-color:#F9A61A"/>
						<stop  offset="0.8427" style="stop-color:#D85026"/>
						<stop  offset="1" style="stop-color:#B82025"/>
					</radialGradient>
					<path style="fill:url(#SVGID_00000110442018387282974770000004721794231296410260_);" d="M5.2,4.8C5.6,4.4,6.1,4,6.6,3.7
						C8.5,2.6,11,2.5,12.8,3c0.4,0.1,0.7,0.2,1,0.4c0.3,0.1,0.6,0.3,0.8,0.4c0.2,0.1,0.5,0.2,0.6,0.3c0.2,0.1,0.4,0.2,0.5,0.2
						c0,0,0,0,0,0c0-0.2-0.6-1-1.9-1.7c-0.3-0.2-0.6-0.3-0.9-0.4C11.3,1.5,9,1.3,7,1.9c-1,0.3-1.8,0.8-2.5,1.4
						C0.7,6.7,0.6,14.2,1.1,15.1c0,0.1,0.1,0.1,0.1,0.1c0,0,0,0,0,0C1.6,14.2,1.9,8,5.2,4.8z"/>
				</g>
			</g>
			<g>
				
					<radialGradient id="SVGID_00000171717831608128964850000002297968433079314099_" cx="6.5313" cy="16.3878" r="18.2981" gradientUnits="userSpaceOnUse">
					<stop  offset="5.617980e-03" style="stop-color:#FFFFFF"/>
					<stop  offset="0.2051" style="stop-color:#FFEDC9"/>
					<stop  offset="0.4045" style="stop-color:#FFD98F"/>
					<stop  offset="0.6236" style="stop-color:#FFCD2A"/>
					<stop  offset="0.8427" style="stop-color:#F58B1F"/>
					<stop  offset="1" style="stop-color:#E04625"/>
				</radialGradient>
				<path style="fill:url(#SVGID_00000171717831608128964850000002297968433079314099_);" d="M23.6,12.2c0-0.1,0-0.1,0-0.1
					c0,0-0.1,0-0.1,0.2c-0.1,0.2-0.2,0.6-0.3,1c-0.1,0.3-0.3,0.7-0.5,1.1c0.1,0.2,0.3,0.4,0.4,0.6C23.5,13.8,23.6,12.6,23.6,12.2z"
					/>
				<g>
					
						<radialGradient id="SVGID_00000078006425334216168080000012042837272030895034_" cx="6.5325" cy="16.387" r="18.2965" gradientUnits="userSpaceOnUse">
						<stop  offset="5.617980e-03" style="stop-color:#FFFFFF"/>
						<stop  offset="0.2051" style="stop-color:#FFEDC9"/>
						<stop  offset="0.4045" style="stop-color:#FFD98F"/>
						<stop  offset="0.6236" style="stop-color:#FFCD2A"/>
						<stop  offset="0.8427" style="stop-color:#F58B1F"/>
						<stop  offset="1" style="stop-color:#E04625"/>
					</radialGradient>
					<path style="fill:url(#SVGID_00000078006425334216168080000012042837272030895034_);" d="M22.2,11.5c0.1-4-4.9-9.6-5.6-10
						c0.4,0.5,4,4.1,4.5,7.3c0.2,1.2,0,2.2-0.4,3c0.4,0.5,0.8,1,1.2,1.5C22,12.8,22.2,12.2,22.2,11.5z"/>
					
						<radialGradient id="SVGID_00000145026147230721864760000008934476106594628519_" cx="6.5326" cy="16.3867" r="18.2959" gradientUnits="userSpaceOnUse">
						<stop  offset="5.617980e-03" style="stop-color:#FFFFFF"/>
						<stop  offset="0.2051" style="stop-color:#FFEDC9"/>
						<stop  offset="0.4045" style="stop-color:#FFD98F"/>
						<stop  offset="0.6236" style="stop-color:#FFCD2A"/>
						<stop  offset="0.8427" style="stop-color:#F58B1F"/>
						<stop  offset="1" style="stop-color:#E04625"/>
					</radialGradient>
					<path style="fill:url(#SVGID_00000145026147230721864760000008934476106594628519_);" d="M4.5,0.9c0.3,0,1.5-0.2,3.1-0.3
						c1.6,0,3.6,0.2,5.4,0.9c0.5,0.2,1.1,0.4,1.6,0.7c2,1.1,3.5,3,4.1,4.3c0.6,1.4,0.6,2.4,0.9,2.8c0,0,0.1,0.1,0.1,0.1
						c0.1,0.1,0.3,0,0.4-0.1C20.2,9,20.2,8.6,20.1,8c-0.2-1.3-1.4-3.6-3.5-5.2c-0.8-0.6-1.7-1.1-2.6-1.5C10.2-0.3,5.1,0.5,4.5,0.9
						C4.5,0.9,4.5,0.9,4.5,0.9z"/>
					
						<radialGradient id="SVGID_00000062156467304640422630000005856255572372317117_" cx="6.5326" cy="16.388" r="18.2967" gradientUnits="userSpaceOnUse">
						<stop  offset="5.617980e-03" style="stop-color:#FFFFFF"/>
						<stop  offset="0.2051" style="stop-color:#FFEDC9"/>
						<stop  offset="0.4045" style="stop-color:#FFD98F"/>
						<stop  offset="0.6236" style="stop-color:#FFCD2A"/>
						<stop  offset="0.8427" style="stop-color:#F58B1F"/>
						<stop  offset="1" style="stop-color:#E04625"/>
					</radialGradient>
					<path style="fill:url(#SVGID_00000062156467304640422630000005856255572372317117_);" d="M12.8,3c0.4,0.1,0.7,0.2,1,0.4
						c0.3,0.1,0.6,0.3,0.8,0.4c0.2,0.1,0.5,0.2,0.6,0.3c0.2,0.1,0.4,0.2,0.5,0.2c0,0,0,0,0,0c0-0.2-0.6-1-1.9-1.7
						c-0.3-0.2-0.6-0.3-0.9-0.4C11.3,1.5,9,1.3,7,1.9C6.4,2.1,5.9,2.4,5.4,2.7C6.1,2.8,6.8,3,7.5,3.3C9.2,2.6,11.3,2.6,12.8,3z"/>
				</g>
			</g>
		</g>
		<path class="st0" d="M5.7,14.9c0.4,0.8,0.6,1.1,0.5,1.4c-0.1,0.2-0.4,0.5-1.1,0.9c0.7-0.4,1.1-0.6,1.3-0.6c0.2,0,0.5,0.4,0.9,1
			C7,17,6.8,16.7,6.9,16.4c0.1-0.2,0.4-0.4,1-0.9c-0.7,0.4-1,0.6-1.2,0.5C6.4,16,6.2,15.7,5.7,14.9z"/>
	</g>
</g>
</svg>
