<?xml version="1.0" encoding="utf-8"?>
<!-- Generator: Adobe Illustrator 28.2.0, SVG Export Plug-In . SVG Version: 6.00 Build 0)  -->
<svg version="1.1" id="Layer_1" xmlns="http://www.w3.org/2000/svg" xmlns:xlink="http://www.w3.org/1999/xlink" x="0px" y="0px"
	 viewBox="0 0 261 40" style="enable-background:new 0 0 261 40;" xml:space="preserve">
<style type="text/css">
	.st0{fill:#FAECBC;}
	.st1{fill:url(#SVGID_1_);}
	.st2{fill:url(#SVGID_00000130644731758796420280000003754967881570714811_);}
	.st3{fill:url(#SVGID_00000183971813722331369320000001191241806763244434_);}
	.st4{fill:url(#SVGID_00000145756107889827275710000017698826702081132191_);}
	.st5{fill:url(#SVGID_00000004537224401103364520000016179144916952942749_);}
	.st6{fill:url(#SVGID_00000148642498355567558140000008141935175744097428_);}
	.st7{fill:url(#SVGID_00000101808272305843890050000014815956022604604093_);}
	.st8{fill:url(#SVGID_00000090999397076657181130000012975509319452829833_);}
	.st9{fill:url(#SVGID_00000158725230625236986580000004798931117735657357_);}
	.st10{fill:url(#SVGID_00000162329333673746669110000002909136347035620775_);}
	.st11{fill:url(#SVGID_00000140003905757728090840000009284500914464037543_);}
	.st12{fill:url(#SVGID_00000008131251764189716350000004144629370120587681_);}
	.st13{fill:url(#SVGID_00000087414720899527118780000008397103730160016791_);}
	.st14{fill:url(#SVGID_00000065055169893915624590000002027531822252546219_);}
	.st15{fill:url(#SVGID_00000043439785751811908820000006410511920624581556_);}
	.st16{fill:url(#SVGID_00000044880197298789221600000006603771314068340916_);}
	.st17{fill:#FFFFFF;}
	.st18{fill:#F18A00;}
</style>
<g>
	<g>
		<g>
			<g>
				<g>
					<path class="st0" d="M39.1,20.2c0,0.1-0.1,0.1-0.1,0.2c-0.2,0.3-1.1,4-3.4,6.3c0.1-0.1,0.2-0.2,0.3-0.3
						C38.1,24.2,38.9,20.5,39.1,20.2z"/>
					<radialGradient id="SVGID_1_" cx="29.2775" cy="5.958" r="16.4627" gradientUnits="userSpaceOnUse">
						<stop  offset="5.617980e-03" style="stop-color:#FFFFFF"/>
						<stop  offset="3.720756e-02" style="stop-color:#FEEAC8"/>
						<stop  offset="0.1094" style="stop-color:#FAB540"/>
						<stop  offset="0.129" style="stop-color:#F9A61A"/>
						<stop  offset="0.3456" style="stop-color:#B73525"/>
						<stop  offset="1" style="stop-color:#1A0B0C"/>
					</radialGradient>
					<path class="st1" d="M34.9,15.1c0.4,3.2-0.7,5.8-2.3,6.9c0.1-0.1,0.2-0.2,0.3-0.3c1.5-1.1,2.6-3.6,2.1-6.8
						c-0.8-5.7-7.7-12.1-7.4-12.1c0,0-0.1,0-0.1,0c0,0,0,0,0,0c0,0-0.1,0-0.1,0C27.1,2.9,34.1,9.3,34.9,15.1z"/>
					
						<radialGradient id="SVGID_00000005261896417815234770000001066021389227945916_" cx="29.1034" cy="26.8008" r="3.9408" gradientUnits="userSpaceOnUse">
						<stop  offset="5.617980e-03" style="stop-color:#FFFFFF"/>
						<stop  offset="3.720756e-02" style="stop-color:#FEEAC8"/>
						<stop  offset="0.1094" style="stop-color:#FAB540"/>
						<stop  offset="0.129" style="stop-color:#F9A61A"/>
						<stop  offset="0.3456" style="stop-color:#B73525"/>
						<stop  offset="1" style="stop-color:#1A0B0C"/>
					</radialGradient>
					<path style="fill:url(#SVGID_00000005261896417815234770000001066021389227945916_);" d="M30.3,25.3c-1-0.5-1.5-1.3-1.3-1.7
						c0.1-0.1,0.1-0.2,0.3-0.3c-0.2,0.1-0.3,0.2-0.5,0.3c-0.1,0.1-0.2,0.2-0.3,0.3c-0.2,0.5,0.3,1.2,1.3,1.8
						c0.6,0.3,1.4,0.5,2.3,0.4c0.8-0.1,1.6-0.4,2.3-1.1c0.1-0.1,0.2-0.2,0.3-0.3c-0.7,0.6-1.5,1-2.2,1
						C31.6,25.7,30.9,25.6,30.3,25.3z"/>
					
						<radialGradient id="SVGID_00000137101142804300759500000003945626446023773119_" cx="22.3678" cy="29.2979" r="15.1272" gradientUnits="userSpaceOnUse">
						<stop  offset="5.617980e-03" style="stop-color:#FFFFFF"/>
						<stop  offset="3.720756e-02" style="stop-color:#FEEAC8"/>
						<stop  offset="0.1094" style="stop-color:#FAB540"/>
						<stop  offset="0.129" style="stop-color:#F9A61A"/>
						<stop  offset="0.3456" style="stop-color:#B73525"/>
						<stop  offset="1" style="stop-color:#1A0B0C"/>
					</radialGradient>
					<path style="fill:url(#SVGID_00000137101142804300759500000003945626446023773119_);" d="M29,32.5c-0.9,0-1.7-0.2-2.6-0.5
						c-3.8-1.3-7-4.7-8.4-7.9c-1.4-3.2-1.1-5.5-0.3-5.9c-0.2,0.1-0.4,0.2-0.7,0.3c-0.7,0.4-1.1,2.7,0.3,5.9c1.4,3.2,4.7,6.6,8.6,7.9
						c0.9,0.3,1.8,0.5,2.7,0.5c2.6,0.1,4.8-1.1,6.4-2.8c0.1-0.1,0.3-0.3,0.4-0.4C33.7,31.4,31.5,32.6,29,32.5z"/>
					
						<radialGradient id="SVGID_00000178162929982300784740000013946352537858098313_" cx="11.6275" cy="27.266" r="21.3746" gradientUnits="userSpaceOnUse">
						<stop  offset="5.617980e-03" style="stop-color:#FFFFFF"/>
						<stop  offset="3.720756e-02" style="stop-color:#FEEAC8"/>
						<stop  offset="0.1094" style="stop-color:#FAB540"/>
						<stop  offset="0.129" style="stop-color:#F9A61A"/>
						<stop  offset="0.3456" style="stop-color:#B73525"/>
						<stop  offset="1" style="stop-color:#1A0B0C"/>
					</radialGradient>
					<path style="fill:url(#SVGID_00000178162929982300784740000013946352537858098313_);" d="M26.9,38.4C22,37.3,11.2,31.6,8.7,21
						c-1.3-5.8,1-10.8,3.8-12.6c0.6-0.4,1.1-0.6,1.6-0.8c-0.2,0.1-0.4,0.1-0.6,0.2c-0.5,0.2-1.1,0.5-1.6,0.8
						C9.1,10.5,6.7,15.5,8,21.4C10.5,32,21.4,37.6,26.3,38.7c1.4,0.3,2.4,0.3,2.7,0.1c0,0,0.1,0,0.1-0.1c0.2-0.1,0.3-0.3,0.5-0.4
						c0,0-0.1,0-0.1,0.1C29.2,38.7,28.2,38.7,26.9,38.4z"/>
				</g>
				<g>
					
						<radialGradient id="SVGID_00000015324857169658080730000013030739058651588750_" cx="23.9931" cy="12.9268" r="11.8831" gradientUnits="userSpaceOnUse">
						<stop  offset="5.617980e-03" style="stop-color:#FFFFFF"/>
						<stop  offset="3.720756e-02" style="stop-color:#FEEAC8"/>
						<stop  offset="0.1094" style="stop-color:#FAB540"/>
						<stop  offset="0.129" style="stop-color:#F9A61A"/>
						<stop  offset="0.3456" style="stop-color:#B73525"/>
						<stop  offset="1" style="stop-color:#1A0B0C"/>
					</radialGradient>
					<path style="fill:url(#SVGID_00000015324857169658080730000013030739058651588750_);" d="M25.5,7.2c-0.3-0.1-0.6-0.3-1-0.5
						c-0.4-0.2-0.9-0.4-1.4-0.6c-0.5-0.2-1.1-0.4-1.7-0.6c-2.1-0.6-4.9-0.7-7.5,0.1c-0.2,0.1-0.4,0.1-0.6,0.2
						C16,4.9,18.9,4.9,21,5.5c0.6,0.2,1.2,0.4,1.7,0.6c0.5,0.2,1,0.4,1.4,0.6c0.4,0.2,0.8,0.4,1,0.5c0.4,0.2,0.6,0.3,0.8,0.3
						c0,0,0,0,0,0c0.1,0,0.2,0,0.4-0.1c0,0,0,0,0,0C26.1,7.5,25.9,7.4,25.5,7.2z"/>
					
						<radialGradient id="SVGID_00000023276351916193026580000015004244621218331067_" cx="31.0194" cy="13.5061" r="25.1653" gradientUnits="userSpaceOnUse">
						<stop  offset="5.617980e-03" style="stop-color:#FFFFFF"/>
						<stop  offset="3.720756e-02" style="stop-color:#FEEAC8"/>
						<stop  offset="0.1094" style="stop-color:#FAB540"/>
						<stop  offset="0.129" style="stop-color:#F9A61A"/>
						<stop  offset="0.3456" style="stop-color:#B73525"/>
						<stop  offset="1" style="stop-color:#1A0B0C"/>
					</radialGradient>
					<path style="fill:url(#SVGID_00000023276351916193026580000015004244621218331067_);" d="M32.8,16c-0.1,0-0.1-0.1-0.1-0.2
						c-0.5-0.7-0.4-2.4-1.4-4.6c-1-2.2-3.5-5.2-6.7-7.1c-0.8-0.5-1.7-0.9-2.6-1.2c-3-1.1-6.3-1.5-8.9-1.4C10.4,1.6,8.4,2.1,8,2
						C7.9,2,7.9,2,8,1.9c0.1-0.1,0.3-0.1,0.6-0.2c-0.2,0-0.3,0.1-0.5,0.2C7.8,1.9,7.6,2,7.5,2.1c-0.1,0.1-0.1,0.1,0,0.1
						c0.4,0,2.4-0.4,5.1-0.5c2.6-0.1,5.9,0.2,9,1.3c0.9,0.3,1.8,0.7,2.6,1.2C27.5,6,30,9,31,11.3c1,2.3,0.9,3.9,1.4,4.7
						c0,0.1,0.1,0.1,0.1,0.2c0.1,0.1,0.3,0.1,0.4,0c0.1,0,0.2-0.1,0.3-0.2C33.1,16.1,32.9,16,32.8,16z"/>
					
						<radialGradient id="SVGID_00000063601158401776308640000017919592855781752469_" cx="5.9379" cy="7.6989" r="16.9325" gradientUnits="userSpaceOnUse">
						<stop  offset="5.617980e-03" style="stop-color:#FFFFFF"/>
						<stop  offset="3.720756e-02" style="stop-color:#FEEAC8"/>
						<stop  offset="0.1094" style="stop-color:#FAB540"/>
						<stop  offset="0.129" style="stop-color:#F9A61A"/>
						<stop  offset="0.3456" style="stop-color:#B73525"/>
						<stop  offset="1" style="stop-color:#1A0B0C"/>
					</radialGradient>
					<path style="fill:url(#SVGID_00000063601158401776308640000017919592855781752469_);" d="M2.4,25.3c-1-1.8,0-18.5,9.8-21.7
						c0.2,0,0.3-0.1,0.5-0.1c-0.2,0-0.3,0.1-0.5,0.1c-0.2,0-0.3,0.1-0.5,0.2c-9.9,3.4-11,20.1-9.9,21.9c0.1,0.1,0.1,0.2,0.2,0.2
						c0,0,0.1,0,0.1,0c0.2-0.1,0.4-0.2,0.6-0.4c0,0-0.1,0-0.1,0C2.6,25.4,2.5,25.3,2.4,25.3z"/>
				</g>
				<path class="st0" d="M35.1,15c0.3,2,0,3.7-0.7,5c0.7-1.3,1-3.1,0.7-5.1C34.3,9.7,28.5,3.8,27.8,3c0,0,0,0,0,0
					C26.7,2.4,34.2,9.1,35.1,15z"/>
				<path class="st0" d="M32.6,25.5c-0.8,0.1-1.6-0.1-2.2-0.4c-1-0.5-1.5-1.3-1.3-1.7c0,0-0.1,0.1-0.1,0.2c-0.2,0.4,0.3,1.2,1.3,1.7
					c0.6,0.3,1.4,0.5,2.2,0.4c1.4-0.1,2.9-1.3,3.8-3.2C35.4,24.3,33.9,25.4,32.6,25.5z"/>
				<path class="st0" d="M29.1,32.3c-0.9,0-1.7-0.2-2.6-0.5c-3.8-1.3-7-4.7-8.4-7.9c-1.2-2.7-1.1-4.8-0.6-5.5
					c-0.6,0.6-0.8,2.8,0.5,5.8c1.4,3.2,4.7,6.6,8.4,7.9c0.9,0.3,1.7,0.5,2.6,0.5c4.4,0.2,7.6-3.6,9-7C36.5,28.9,33.4,32.5,29.1,32.3
					z"/>
				<path class="st0" d="M38.4,22.1c0.2-0.6,0.4-1.2,0.5-1.6C38.9,20.8,38.7,21.4,38.4,22.1z"/>
				<path class="st0" d="M17,8.5c-0.3,0.3-0.8,0.7-1.2,1.2C16.2,9.1,16.7,8.8,17,8.5z"/>
				<path class="st0" d="M27,38.2c-4.8-1.1-15.6-6.8-18.1-17.4c-1.1-4.9,0.4-9.2,2.5-11.5C9.2,11.5,7.6,16,8.7,21
					C11.2,31.6,22,37.3,26.9,38.4c1.3,0.3,2.3,0.3,2.7,0.1c0.1-0.1,0.2-0.1,0.2-0.2c0,0,0,0,0,0C29.3,38.5,28.4,38.5,27,38.2z"/>
				<path class="st0" d="M22,2.9c0.9,0.3,1.7,0.7,2.6,1.2c3.2,1.8,5.7,4.8,6.7,7.1c1,2.2,0.9,3.9,1.4,4.6c0,0.1,0.1,0.1,0.1,0.2
					c0.2,0.2,0.5,0,0.7-0.4c-0.2,0.3-0.4,0.4-0.6,0.2c-0.1,0-0.1-0.1-0.1-0.2c-0.5-0.7-0.4-2.3-1.4-4.6c-1-2.2-3.5-5.2-6.7-7
					C23.8,3.6,22.9,3.2,22,2.9c-2.9-1.2-6.2-1.5-8.8-1.5C10.6,1.6,8.6,2,8.1,1.9c-0.1,0-0.1,0-0.1,0c0,0,0,0-0.1,0C7.9,2,7.9,2,8,2
					c0.4,0,2.4-0.4,5.1-0.5C15.7,1.5,18.9,1.8,22,2.9z"/>
				<path class="st0" d="M2.6,25C1.7,23.6,2,11.4,8.1,5.9c-6.3,5.5-6.6,17.8-5.7,19.4c0.1,0.1,0.1,0.1,0.2,0.2c0.1,0,0.2,0,0.2-0.2
					c0,0,0,0-0.1,0C2.7,25.2,2.7,25.1,2.6,25z"/>
				<path class="st0" d="M25.6,7.1c-0.3-0.1-0.6-0.3-1-0.5c-0.4-0.2-0.8-0.4-1.4-0.6c-0.5-0.2-1.1-0.4-1.7-0.6
					c-2.8-0.8-6.9-0.7-10,1.1C10.8,7,10,7.6,9.3,8.3c0.7-0.6,1.4-1.2,2.2-1.7c3.1-1.8,7.2-2,10-1.2c0.6,0.2,1.2,0.4,1.7,0.6
					c0.5,0.2,1,0.4,1.4,0.6c0.4,0.2,0.7,0.4,1,0.5c0.3,0.2,0.6,0.3,0.8,0.3c0.1,0,0.1,0,0.1-0.1c0,0,0,0,0,0
					C26.2,7.4,26,7.3,25.6,7.1z"/>
				<path class="st0" d="M35.1,14.9c0.3,2,0,3.8-0.7,5.1c-0.4,0.9-1,1.5-1.6,1.9c-1.5,1-3.2,0.9-3.7,1.4c-0.2,0.4,0.3,1.2,1.3,1.7
					c0.6,0.3,1.4,0.5,2.2,0.4c1.4-0.1,2.8-1.2,3.7-3c0.4-0.9,0.7-2,0.7-3.3c0.2-6.5-8-15.6-9.2-16.3C28.5,3.8,34.3,9.7,35.1,14.9z"
					/>
				<path class="st0" d="M18.1,23.9c1.4,3.2,4.7,6.6,8.4,7.9c0.9,0.3,1.7,0.5,2.6,0.5c4.3,0.2,7.4-3.5,8.9-6.8
					c1-2.3,1.3-4.6,1.2-5.1c0-0.1,0-0.2-0.1-0.2c0,0-0.1,0.1-0.2,0.3c-0.1,0.4-0.3,0.9-0.5,1.6c-0.9,2.2-2.9,5.8-6.4,6.3
					c-1.5,0.2-3-0.1-4.5-0.8c-2-0.8-3.8-2.2-5.2-3.8C20,21.2,19,18.6,18,18.2c-0.2-0.1-0.4,0-0.5,0.1C17,19.1,16.9,21.2,18.1,23.9z"
					/>
				<path class="st0" d="M14.7,24.2c-2.2-5.1-1.9-10.1-0.3-12.7c0.4-0.8,1-1.4,1.4-1.8c0.5-0.5,0.9-0.9,1.2-1.2
					c0.3-0.3,0.4-0.5,0.4-0.7c0-0.2-0.2-0.3-0.5-0.4c-0.8-0.2-2.6-0.1-4.3,1c-0.4,0.2-0.7,0.5-1.1,0.9c-2.2,2.3-3.7,6.6-2.5,11.5
					C11.4,31.4,22.2,37.1,27,38.2c1.3,0.3,2.3,0.3,2.6,0.2c0,0,0,0,0,0C29.6,37.5,19.4,34.8,14.7,24.2z"/>
				<path class="st0" d="M8.1,1.9c0.4,0,2.4-0.4,5.1-0.5c2.6-0.1,5.8,0.3,8.8,1.4c0.9,0.3,1.7,0.7,2.6,1.2c3.2,1.8,5.7,4.8,6.7,7
					c1,2.2,0.9,3.9,1.4,4.6c0,0.1,0.1,0.1,0.1,0.2c0.2,0.1,0.4,0.1,0.6-0.2c0.2-0.4,0.3-1.1,0.1-2.2c-0.4-2.2-2.4-5.9-5.7-8.5
					c-1.3-1-2.8-1.8-4.2-2.4C17.4-0.1,9.2,1.3,8.1,1.9C8.1,1.9,8.1,1.9,8.1,1.9z"/>
				<path class="st0" d="M9.3,8.3C10,7.6,10.8,7,11.6,6.5c3.1-1.8,7.2-1.9,10-1.1c0.6,0.2,1.2,0.4,1.7,0.6c0.5,0.2,0.9,0.4,1.4,0.6
					c0.4,0.2,0.7,0.4,1,0.5c0.3,0.2,0.6,0.3,0.8,0.3c0,0,0,0,0,0c0-0.4-1-1.6-3.1-2.8c-0.4-0.3-1-0.5-1.5-0.7
					c-2.6-1-6.4-1.4-9.6-0.4c-1.6,0.5-3,1.3-4.1,2.4C2,11.4,1.7,23.6,2.6,25c0.1,0.1,0.1,0.1,0.2,0.2c0,0,0,0,0.1,0
					C3.5,23.6,3.8,13.6,9.3,8.3z"/>
				<g>
					<g>
						
							<radialGradient id="SVGID_00000111894829236254654520000017545273034118138525_" cx="11.3947" cy="27.2075" r="29.3999" gradientUnits="userSpaceOnUse">
							<stop  offset="5.617980e-03" style="stop-color:#FFFFFF"/>
							<stop  offset="8.559252e-02" style="stop-color:#FEEEC8"/>
							<stop  offset="0.2682" style="stop-color:#FDC440"/>
							<stop  offset="0.3258" style="stop-color:#FCB614"/>
							<stop  offset="0.6236" style="stop-color:#F9A61A"/>
							<stop  offset="0.8427" style="stop-color:#D85026"/>
							<stop  offset="1" style="stop-color:#B82025"/>
						</radialGradient>
						<path style="fill:url(#SVGID_00000111894829236254654520000017545273034118138525_);" d="M35.1,14.9c0.3,2,0,3.8-0.7,5.1
							c-0.4,0.9-1,1.5-1.6,1.9c-1.5,1-3.2,0.9-3.7,1.4c-0.2,0.4,0.3,1.2,1.3,1.7c0.6,0.3,1.4,0.5,2.2,0.4c1.4-0.1,2.8-1.2,3.7-3
							c0.4-0.9,0.7-2,0.7-3.3c0.2-6.5-8-15.6-9.2-16.3C28.5,3.8,34.3,9.7,35.1,14.9z"/>
						
							<radialGradient id="SVGID_00000116210143365582278720000002519856629155669909_" cx="11.3951" cy="27.2071" r="29.3993" gradientUnits="userSpaceOnUse">
							<stop  offset="5.617980e-03" style="stop-color:#FFFFFF"/>
							<stop  offset="8.559252e-02" style="stop-color:#FEEEC8"/>
							<stop  offset="0.2682" style="stop-color:#FDC440"/>
							<stop  offset="0.3258" style="stop-color:#FCB614"/>
							<stop  offset="0.6236" style="stop-color:#F9A61A"/>
							<stop  offset="0.8427" style="stop-color:#D85026"/>
							<stop  offset="1" style="stop-color:#B82025"/>
						</radialGradient>
						<path style="fill:url(#SVGID_00000116210143365582278720000002519856629155669909_);" d="M18.1,23.9c1.4,3.2,4.7,6.6,8.4,7.9
							c0.9,0.3,1.7,0.5,2.6,0.5c4.3,0.2,7.4-3.5,8.9-6.8c1-2.3,1.3-4.6,1.2-5.1c0-0.1,0-0.2-0.1-0.2c0,0-0.1,0.1-0.2,0.3
							c-0.1,0.4-0.3,0.9-0.5,1.6c-0.9,2.2-2.9,5.8-6.4,6.3c-1.5,0.2-3-0.1-4.5-0.8c-2-0.8-3.8-2.2-5.2-3.8C20,21.2,19,18.6,18,18.2
							c-0.2-0.1-0.4,0-0.5,0.1C17,19.1,16.9,21.2,18.1,23.9z"/>
						
							<radialGradient id="SVGID_00000082366688873228176550000003248728295595550143_" cx="11.3952" cy="27.2076" r="29.3988" gradientUnits="userSpaceOnUse">
							<stop  offset="5.617980e-03" style="stop-color:#FFFFFF"/>
							<stop  offset="8.559252e-02" style="stop-color:#FEEEC8"/>
							<stop  offset="0.2682" style="stop-color:#FDC440"/>
							<stop  offset="0.3258" style="stop-color:#FCB614"/>
							<stop  offset="0.6236" style="stop-color:#F9A61A"/>
							<stop  offset="0.8427" style="stop-color:#D85026"/>
							<stop  offset="1" style="stop-color:#B82025"/>
						</radialGradient>
						<path style="fill:url(#SVGID_00000082366688873228176550000003248728295595550143_);" d="M14.7,24.2
							c-2.2-5.1-1.9-10.1-0.3-12.7c0.4-0.8,1-1.4,1.4-1.8c0.5-0.5,0.9-0.9,1.2-1.2c0.3-0.3,0.4-0.5,0.4-0.7c0-0.2-0.2-0.3-0.5-0.4
							c-0.8-0.2-2.6-0.1-4.3,1c-0.4,0.2-0.7,0.5-1.1,0.9c-2.2,2.3-3.7,6.6-2.5,11.5C11.4,31.4,22.2,37.1,27,38.2
							c1.3,0.3,2.3,0.3,2.6,0.2c0,0,0,0,0,0C29.6,37.5,19.4,34.8,14.7,24.2z"/>
					</g>
					<g>
						
							<radialGradient id="SVGID_00000022529597795049641950000002625424956716732320_" cx="11.3948" cy="27.2063" r="29.3988" gradientUnits="userSpaceOnUse">
							<stop  offset="5.617980e-03" style="stop-color:#FFFFFF"/>
							<stop  offset="8.559252e-02" style="stop-color:#FEEEC8"/>
							<stop  offset="0.2682" style="stop-color:#FDC440"/>
							<stop  offset="0.3258" style="stop-color:#FCB614"/>
							<stop  offset="0.6236" style="stop-color:#F9A61A"/>
							<stop  offset="0.8427" style="stop-color:#D85026"/>
							<stop  offset="1" style="stop-color:#B82025"/>
						</radialGradient>
						<path style="fill:url(#SVGID_00000022529597795049641950000002625424956716732320_);" d="M8.1,1.9c0.4,0,2.4-0.4,5.1-0.5
							c2.6-0.1,5.8,0.3,8.8,1.4c0.9,0.3,1.7,0.7,2.6,1.2c3.2,1.8,5.7,4.8,6.7,7c1,2.2,0.9,3.9,1.4,4.6c0,0.1,0.1,0.1,0.1,0.2
							c0.2,0.1,0.4,0.1,0.6-0.2c0.2-0.4,0.3-1.1,0.1-2.2c-0.4-2.2-2.4-5.9-5.7-8.5c-1.3-1-2.8-1.8-4.2-2.4C17.4-0.1,9.2,1.3,8.1,1.9
							C8.1,1.9,8.1,1.9,8.1,1.9z"/>
						
							<radialGradient id="SVGID_00000128477973950706305360000011092899612233987233_" cx="11.395" cy="27.2066" r="29.3989" gradientUnits="userSpaceOnUse">
							<stop  offset="5.617980e-03" style="stop-color:#FFFFFF"/>
							<stop  offset="8.559252e-02" style="stop-color:#FEEEC8"/>
							<stop  offset="0.2682" style="stop-color:#FDC440"/>
							<stop  offset="0.3258" style="stop-color:#FCB614"/>
							<stop  offset="0.6236" style="stop-color:#F9A61A"/>
							<stop  offset="0.8427" style="stop-color:#D85026"/>
							<stop  offset="1" style="stop-color:#B82025"/>
						</radialGradient>
						<path style="fill:url(#SVGID_00000128477973950706305360000011092899612233987233_);" d="M9.3,8.3C10,7.6,10.8,7,11.6,6.5
							c3.1-1.8,7.2-1.9,10-1.1c0.6,0.2,1.2,0.4,1.7,0.6c0.5,0.2,0.9,0.4,1.4,0.6c0.4,0.2,0.7,0.4,1,0.5c0.3,0.2,0.6,0.3,0.8,0.3
							c0,0,0,0,0,0c0-0.4-1-1.6-3.1-2.8c-0.4-0.3-1-0.5-1.5-0.7c-2.6-1-6.4-1.4-9.6-0.4c-1.6,0.5-3,1.3-4.1,2.4
							C2,11.4,1.7,23.6,2.6,25c0.1,0.1,0.1,0.1,0.2,0.2c0,0,0,0,0.1,0C3.5,23.6,3.8,13.6,9.3,8.3z"/>
					</g>
				</g>
				<g>
					
						<radialGradient id="SVGID_00000134942404016049832120000012815405219258107292_" cx="11.4505" cy="27.1494" r="29.8145" gradientUnits="userSpaceOnUse">
						<stop  offset="5.617980e-03" style="stop-color:#FFFFFF"/>
						<stop  offset="0.2051" style="stop-color:#FFEDC9"/>
						<stop  offset="0.4045" style="stop-color:#FFD98F"/>
						<stop  offset="0.6236" style="stop-color:#FFCD2A"/>
						<stop  offset="0.8427" style="stop-color:#F58B1F"/>
						<stop  offset="1" style="stop-color:#E04625"/>
					</radialGradient>
					<path style="fill:url(#SVGID_00000134942404016049832120000012815405219258107292_);" d="M39.2,20.4c0-0.1,0-0.2-0.1-0.2
						c0,0-0.1,0.1-0.2,0.3c-0.1,0.4-0.3,0.9-0.5,1.6c-0.2,0.6-0.5,1.2-0.9,1.9c0.2,0.4,0.4,0.7,0.6,1C39.1,22.9,39.3,20.9,39.2,20.4
						z"/>
					<g>
						
							<radialGradient id="SVGID_00000012436001523374030590000000884788218054453399_" cx="11.4525" cy="27.1481" r="29.8119" gradientUnits="userSpaceOnUse">
							<stop  offset="5.617980e-03" style="stop-color:#FFFFFF"/>
							<stop  offset="0.2051" style="stop-color:#FFEDC9"/>
							<stop  offset="0.4045" style="stop-color:#FFD98F"/>
							<stop  offset="0.6236" style="stop-color:#FFCD2A"/>
							<stop  offset="0.8427" style="stop-color:#F58B1F"/>
							<stop  offset="1" style="stop-color:#E04625"/>
						</radialGradient>
						<path style="fill:url(#SVGID_00000012436001523374030590000000884788218054453399_);" d="M37,19.2c0.2-6.5-8-15.6-9.2-16.3
							c0.7,0.8,6.5,6.7,7.3,11.9c0.3,1.9,0,3.6-0.6,4.9c0.7,0.8,1.3,1.6,1.9,2.4C36.7,21.3,36.9,20.3,37,19.2z"/>
						
							<radialGradient id="SVGID_00000127766301344948374350000004442615616018539191_" cx="11.4526" cy="27.1476" r="29.8109" gradientUnits="userSpaceOnUse">
							<stop  offset="5.617980e-03" style="stop-color:#FFFFFF"/>
							<stop  offset="0.2051" style="stop-color:#FFEDC9"/>
							<stop  offset="0.4045" style="stop-color:#FFD98F"/>
							<stop  offset="0.6236" style="stop-color:#FFCD2A"/>
							<stop  offset="0.8427" style="stop-color:#F58B1F"/>
							<stop  offset="1" style="stop-color:#E04625"/>
						</radialGradient>
						<path style="fill:url(#SVGID_00000127766301344948374350000004442615616018539191_);" d="M8.1,1.9c0.4,0,2.4-0.4,5.1-0.5
							c2.6-0.1,5.8,0.3,8.8,1.4c0.9,0.3,1.7,0.7,2.6,1.2c3.2,1.8,5.7,4.8,6.7,7c1,2.2,0.9,3.9,1.4,4.6c0,0.1,0.1,0.1,0.1,0.2
							c0.2,0.1,0.4,0.1,0.6-0.2c0.2-0.4,0.3-1.1,0.1-2.2c-0.4-2.2-2.4-5.9-5.7-8.5c-1.3-1-2.8-1.8-4.2-2.4C17.4-0.1,9.2,1.3,8.1,1.9
							C8.1,1.9,8.1,1.9,8.1,1.9z"/>
						
							<radialGradient id="SVGID_00000011004692661699389740000016567147977223955082_" cx="11.4527" cy="27.1497" r="29.8123" gradientUnits="userSpaceOnUse">
							<stop  offset="5.617980e-03" style="stop-color:#FFFFFF"/>
							<stop  offset="0.2051" style="stop-color:#FFEDC9"/>
							<stop  offset="0.4045" style="stop-color:#FFD98F"/>
							<stop  offset="0.6236" style="stop-color:#FFCD2A"/>
							<stop  offset="0.8427" style="stop-color:#F58B1F"/>
							<stop  offset="1" style="stop-color:#E04625"/>
						</radialGradient>
						<path style="fill:url(#SVGID_00000011004692661699389740000016567147977223955082_);" d="M21.6,5.3c0.6,0.2,1.2,0.4,1.7,0.6
							c0.5,0.2,0.9,0.4,1.4,0.6c0.4,0.2,0.7,0.4,1,0.5c0.3,0.2,0.6,0.3,0.8,0.3c0,0,0,0,0,0c0-0.4-1-1.6-3.1-2.8
							c-0.4-0.3-1-0.5-1.5-0.7c-2.6-1-6.4-1.4-9.6-0.4c-1,0.3-1.9,0.8-2.7,1.3c1.1,0.2,2.3,0.6,3.5,0.9C15.9,4.6,19.2,4.6,21.6,5.3z
							"/>
					</g>
				</g>
			</g>
			<path class="st17" d="M10.1,24.8c0.7,1.2,1,1.8,0.9,2.2c-0.1,0.4-0.6,0.8-1.8,1.5c1.2-0.7,1.7-1,2.1-0.9c0.4,0.1,0.8,0.6,1.5,1.7
				c-0.7-1.2-0.9-1.7-0.9-2.1c0.1-0.4,0.6-0.7,1.6-1.4c-1.1,0.6-1.6,0.9-2,0.8C11.2,26.5,10.9,26,10.1,24.8z"/>
		</g>
	</g>
	<g>
		<path class="st18" d="M47.3,4h1h2.6c1.5,0,2.5,0.4,2.9,1.1c0.2,0.4,0.3,0.8,0.3,1.4c0,0.6-0.1,1.3-0.4,2.1l0,0.2
			c-0.4,1.3-1,2.2-1.7,2.9c-0.8,0.6-1.8,0.9-3.1,0.9h-2.1h0L45,19.3h-1h-1L47.3,4z M47.4,10.9h1.9c0.6,0,1.1-0.2,1.6-0.7
			c0.4-0.4,0.8-1.1,1-2l0-0.2c0.3-0.9,0.3-1.5,0-1.9c-0.2-0.4-0.8-0.6-1.6-0.6h-1.5L47.4,10.9z"/>
		<path class="st18" d="M58.2,4h1.3h1.3l-1,15.3h-1.1h-1.1l0.3-3.4h-4.1l-1.7,3.4h-1.1H50L58.2,4z M54.8,14.1h3.4l0.6-7.9h0
			L54.8,14.1z"/>
		<path class="st18" d="M64.1,13.2L63.3,4h1.1h1.1l0.3,6.8l0,0L70.2,4h1.1h1.1l-6.2,9.2l-1.9,6.1h-1h-1.1L64.1,13.2z"/>
		<path class="st18" d="M70.9,19.3h-1h-1L73.4,4H75h1.7l-0.6,11.6h0L82.2,4h1.7h1.7l-4.4,15.3h-1h-1l4-13.3h0l-7,13.3h-1h-1
			l0.7-13.1h0L70.9,19.3z"/>
		<path class="st18" d="M82.6,19.3L87,4H94l-0.3,0.9l-0.3,0.9h-4.8l-1.4,4.8h4.5l-0.2,0.9l-0.2,0.9h-4.5l-1.5,5.3h5l-0.3,0.9
			l-0.3,0.9H82.6z"/>
		<path class="st18" d="M92.8,19.3h-0.9h-1L95.4,4h1.6h1.6l0.2,13.1L102.5,4h0.9h1L100,19.3h-1.6h-1.6L96.6,6.3L92.8,19.3z"/>
		<path class="st18" d="M108.7,5.7h-3.7l0.3-0.9l0.3-0.9h9.5l-0.3,0.9l-0.3,0.9h-3.7l-3.9,13.5h-1h-1L108.7,5.7z"/>
		<path class="st17" d="M45.7,35.4c-0.3-0.5-0.5-1.1-0.5-1.9c0-0.7,0.1-1.5,0.4-2.4l1.2-4.1c0.7-2.3,1.4-3.8,2.3-4.6
			c0.8-0.8,2.1-1.2,3.8-1.2c1.8,0,3,0.5,3.6,1.5c0.3,0.5,0.5,1.1,0.5,1.9c0,0.7-0.1,1.5-0.4,2.5L55.4,31c-0.7,2.3-1.4,3.8-2.2,4.6
			c-0.8,0.8-2.1,1.2-3.8,1.2C47.5,36.8,46.3,36.4,45.7,35.4z M51.2,33.8c0.3-0.5,0.7-1.4,1-2.8l1.2-4.1c0.4-1.3,0.5-2.2,0.4-2.7
			c-0.1-0.5-0.6-0.8-1.4-0.8c-0.6,0-1,0.2-1.3,0.7c-0.3,0.5-0.7,1.4-1,2.8L48.8,31c-0.4,1.3-0.5,2.2-0.4,2.7
			c0.1,0.5,0.6,0.8,1.4,0.8C50.4,34.5,50.8,34.3,51.2,33.8z"/>
		<path class="st17" d="M59.8,21.4h1.6h2.2c1.9,0,3.2,0.4,3.8,1.3c0.3,0.4,0.5,1,0.5,1.7c0,0.7-0.1,1.4-0.4,2.3l-0.1,0.2
			c-0.4,1.4-1,2.4-1.7,2.9c-0.7,0.5-1.9,0.8-3.5,0.8h-1.8l-1.8,6.1H57h-1.6L59.8,21.4z M61,28.2h1c0.6,0,1.1-0.1,1.5-0.4
			c0.4-0.3,0.7-0.7,0.8-1.3l0.1-0.4c0.3-0.9,0.3-1.5,0.1-1.9c-0.2-0.4-0.7-0.6-1.4-0.6h-0.9L61,28.2z"/>
		<path class="st17" d="M72.1,23.7h-3.4l0.3-1.1l0.3-1.2h9.9L79,22.5l-0.3,1.2h-3.4l-3.8,13H70h-1.6L72.1,23.7z"/>
		<path class="st17" d="M80.6,21.4h1.6h1.6l-4.4,15.3h-1.6h-1.6L80.6,21.4z"/>
		<path class="st17" d="M82.6,35.4c-0.3-0.5-0.5-1.1-0.5-1.9c0-0.7,0.1-1.5,0.4-2.4l1.2-4.1c0.7-2.3,1.4-3.8,2.3-4.6
			c0.8-0.8,2.1-1.2,3.8-1.2c1.8,0,3,0.5,3.6,1.5c0.3,0.5,0.5,1.1,0.5,1.9c0,0.7-0.1,1.5-0.4,2.5L92.3,31c-0.7,2.3-1.4,3.8-2.2,4.6
			c-0.8,0.8-2.1,1.2-3.8,1.2C84.4,36.8,83.2,36.4,82.6,35.4z M88.1,33.8c0.3-0.5,0.7-1.4,1-2.8l1.2-4.1c0.4-1.3,0.5-2.2,0.4-2.7
			c-0.1-0.5-0.6-0.8-1.4-0.8c-0.6,0-1,0.2-1.3,0.7c-0.3,0.5-0.7,1.4-1,2.8L85.7,31c-0.4,1.3-0.5,2.2-0.4,2.7
			c0.1,0.5,0.6,0.8,1.4,0.8C87.3,34.5,87.7,34.3,88.1,33.8z"/>
		<path class="st17" d="M95.1,36.6h-1.4h-1.4l4.4-15.3h1.9h1.9l0,11.1l3.2-11.1h1.4h1.4l-4.4,15.3h-2h-2l0.1-10.8L95.1,36.6z"/>
		<path class="st17" d="M112.7,25.9c0.3-1,0.3-1.6,0.2-2c-0.1-0.3-0.4-0.5-1-0.5c-0.4,0-0.7,0.1-1,0.4c-0.3,0.2-0.5,0.6-0.6,0.9
			c-0.2,0.6-0.2,1.1-0.1,1.5c0.1,0.4,0.3,0.7,0.7,1L112,28c1.1,0.7,1.7,1.4,2,2.2c0.1,0.3,0.2,0.7,0.2,1.2c0,0.5-0.1,1-0.3,1.6
			c-0.4,1.4-1.1,2.4-2,3c-0.9,0.6-2.2,0.9-3.8,0.9c-1.7,0-2.8-0.4-3.4-1.3c-0.3-0.5-0.5-1-0.5-1.8c0-0.6,0.1-1.3,0.3-2.1h3.1
			c-0.3,1-0.3,1.7-0.2,2.2s0.5,0.7,1.1,0.7c0.4,0,0.8-0.2,1.2-0.5c0.4-0.3,0.6-0.7,0.7-1.2c0.2-0.6,0.2-1.1,0.1-1.5
			c-0.1-0.4-0.4-0.7-0.9-1.1l-1.1-0.7c-1-0.7-1.6-1.3-1.8-2c-0.1-0.3-0.2-0.7-0.2-1.1c0-0.5,0.1-1,0.3-1.6c0.4-1.3,1-2.3,1.9-2.9
			c0.9-0.6,2.1-0.9,3.6-0.9c1.6,0,2.7,0.4,3.3,1.2c0.3,0.4,0.5,1,0.5,1.6c0,0.6-0.1,1.2-0.3,2H112.7z"/>
	</g>
</g>
<rect x="128.2" y="5.6" class="st18" width="1" height="30.4"/>
<g>
	<path class="st17" d="M144.3,25.2L142,32h-2.9l7.4-21.7h3.4l7.4,21.7h-3l-2.3-6.8H144.3z M151.4,23l-2.1-6.3
		c-0.5-1.4-0.8-2.7-1.1-4h-0.1c-0.3,1.3-0.7,2.6-1.1,3.9l-2.1,6.3H151.4z"/>
	<path class="st17" d="M160.5,10.5c1.4-0.2,3.1-0.4,5.4-0.4c2.8,0,4.8,0.6,6.1,1.8c1.2,1,1.9,2.6,1.9,4.5c0,2-0.6,3.5-1.7,4.6
		c-1.5,1.6-3.9,2.4-6.6,2.4c-0.8,0-1.6,0-2.3-0.2V32h-2.8V10.5z M163.3,21c0.6,0.2,1.4,0.2,2.3,0.2c3.4,0,5.5-1.6,5.5-4.6
		c0-2.9-2-4.3-5.1-4.3c-1.2,0-2.2,0.1-2.6,0.2V21z"/>
	<path class="st17" d="M180.5,10.3V32h-2.8V10.3H180.5z"/>
	<path class="st17" d="M192.2,10.6c1.7-0.3,3.7-0.5,6-0.5c4,0,6.9,0.9,8.8,2.7c1.9,1.8,3.1,4.3,3.1,7.8c0,3.5-1.1,6.5-3.1,8.5
		c-2,2-5.4,3.1-9.6,3.1c-2,0-3.7-0.1-5.1-0.3V10.6z M195,29.8c0.7,0.1,1.7,0.2,2.8,0.2c6,0,9.3-3.4,9.3-9.2c0-5.1-2.9-8.4-8.8-8.4
		c-1.5,0-2.5,0.1-3.3,0.3V29.8z"/>
	<path class="st17" d="M227.8,24.1c0,5.8-4,8.3-7.8,8.3c-4.2,0-7.5-3.1-7.5-8c0-5.2,3.4-8.3,7.7-8.3
		C224.8,16.1,227.8,19.3,227.8,24.1z M215.5,24.2c0,3.4,2,6,4.7,6c2.7,0,4.7-2.5,4.7-6.1c0-2.6-1.3-6-4.7-6
		C216.9,18.2,215.5,21.3,215.5,24.2z"/>
	<path class="st17" d="M242.6,31.4c-0.7,0.4-2.4,0.9-4.5,0.9c-4.7,0-7.8-3.2-7.8-8c0-4.8,3.3-8.3,8.4-8.3c1.7,0,3.2,0.4,3.9,0.8
		l-0.6,2.2c-0.7-0.4-1.7-0.7-3.3-0.7c-3.6,0-5.5,2.6-5.5,5.9c0,3.6,2.3,5.8,5.4,5.8c1.6,0,2.7-0.4,3.5-0.8L242.6,31.4z"/>
	<path class="st17" d="M245.5,29.1c0.8,0.5,2.3,1.1,3.7,1.1c2.1,0,3-1,3-2.3c0-1.4-0.8-2.1-2.9-2.9c-2.8-1-4.1-2.5-4.1-4.4
		c0-2.5,2-4.6,5.4-4.6c1.6,0,3,0.5,3.8,1l-0.7,2.1c-0.6-0.4-1.7-0.9-3.2-0.9c-1.7,0-2.6,1-2.6,2.1c0,1.3,0.9,1.9,3,2.6
		c2.7,1,4.1,2.4,4.1,4.7c0,2.7-2.1,4.7-5.8,4.7c-1.7,0-3.3-0.4-4.4-1.1L245.5,29.1z"/>
</g>
</svg>
