<?xml version="1.0" encoding="UTF-8"?>
<svg id="Layer_1" data-name="Layer 1" xmlns="http://www.w3.org/2000/svg" viewBox="0 0 1997 1150">
  <defs>
    <style>
      .cls-1, .cls-2, .cls-3, .cls-4, .cls-5 {
        stroke-miterlimit: 10;
      }

      .cls-1, .cls-2, .cls-3, .cls-4, .cls-5, .cls-6 {
        fill: none;
      }

      .cls-1, .cls-6 {
        stroke: #fff;
        stroke-linecap: round;
        stroke-width: 3px;
      }

      .cls-7 {
        font-size: 25.97px;
      }

      .cls-7, .cls-8, .cls-9, .cls-10 {
        font-family: Arial-BoldMT, Arial;
        font-weight: 700;
      }

      .cls-2, .cls-3, .cls-4, .cls-5 {
        stroke-width: 5px;
      }

      .cls-2, .cls-5 {
        stroke: #ff931e;
      }

      .cls-3, .cls-4 {
        stroke: #29abe2;
      }

      .cls-11 {
        letter-spacing: -.04em;
      }

      .cls-4, .cls-5 {
        stroke-dasharray: 0 0 11.87 11.87;
      }

      .cls-8 {
        font-size: 32.31px;
      }

      .cls-8, .cls-10, .cls-12 {
        fill: #fff;
      }

      .cls-9 {
        font-size: 24.35px;
      }

      .cls-10 {
        font-size: 23.69px;
      }

      .cls-13 {
        fill: #4d4d4d;
      }

      .cls-13, .cls-14, .cls-15, .cls-12 {
        stroke-width: 0px;
      }

      .cls-14 {
        fill: #29abe2;
      }

      .cls-15 {
        fill: #ff931e;
      }

      .cls-6 {
        stroke-linejoin: round;
      }

      .cls-16 {
        letter-spacing: 0em;
      }
    </style>
  </defs>
  <rect class="cls-12" width="1997" height="1150"/>
  <rect class="cls-14" x="48.38" y="51.92" width="139.74" height="139.74" rx="19.94" ry="19.94"/>
  <text class="cls-9" transform="translate(48.01 221.83)"><tspan x="0" y="0">MERCHANT</tspan></text>
  <g>
    <path class="cls-6" d="M159.12,108.79c0,4.09-3.65,7.41-8.15,7.41s-8.15-3.32-8.15-7.41c0,4.09-3.65,7.41-8.15,7.41s-8.15-3.32-8.15-7.41c0,4.09-3.65,7.41-8.15,7.41s-8.15-3.32-8.15-7.41c0,4.09-3.65,7.41-8.15,7.41s-8.15-3.32-8.15-7.41c0,4.09-3.65,7.41-8.15,7.41s-8.15-3.32-8.15-7.41"/>
    <path class="cls-1" d="M77.6,108.79l8.5-26.96c.45-1.59,1.91-2.69,3.56-2.69h57.4c1.65,0,3.11,1.1,3.56,2.69l8.5,26.96"/>
    <path class="cls-6" d="M153.56,116.2v44.46c0,2.05-1.66,3.71-3.71,3.71h-62.99c-2.05,0-3.71-1.66-3.71-3.71v-44.46"/>
    <line class="cls-1" x1="109.1" y1="112.49" x2="109.1" y2="164.37"/>
    <line class="cls-1" x1="101.69" y1="134.72" x2="101.69" y2="138.43"/>
    <line class="cls-1" x1="131.33" y1="127.31" x2="120.21" y2="138.43"/>
    <line class="cls-1" x1="138.74" y1="134.72" x2="123.92" y2="149.55"/>
    <line class="cls-1" x1="142.82" y1="108.79" x2="138.36" y2="79.14"/>
    <line class="cls-1" x1="126.51" y1="108.79" x2="123.77" y2="79.14"/>
    <line class="cls-1" x1="110.21" y1="108.79" x2="112.73" y2="79.14"/>
    <line class="cls-1" x1="93.91" y1="108.79" x2="98.68" y2="79.14"/>
  </g>
  <text class="cls-7" transform="translate(36.74 1094)"><tspan x="0" y="0">Payment</tspan><tspan class="cls-11" x="108.27" y="0"> </tspan><tspan class="cls-16" x="114.53" y="0">API</tspan></text>
  <rect class="cls-15" x="46.16" y="924.09" width="139.74" height="139.74" rx="19.94" ry="19.94"/>
  <g>
    <g>
      <path class="cls-6" d="M109.38,999.7c-3.59.83-7,2.26-10.02,4.2"/>
      <path class="cls-6" d="M133.76,1003.9c-3.02-1.94-6.43-3.38-10.02-4.2"/>
      <path class="cls-6" d="M148.09,1024.05c-.83-3.59-2.26-7-4.2-10.02"/>
      <path class="cls-6" d="M89.23,1014.03c-1.94,3.02-3.38,6.43-4.2,10.02"/>
      <path class="cls-6" d="M132.54,1033.29c.12-.66.17-1.36.17-2.07,0-8.96-7.19-16.15-16.15-16.15s-16.15,7.19-16.15,16.15c0,.7.04,1.4.17,2.07"/>
      <polyline class="cls-6" points="109.38 999.7 109.38 989.93 123.74 989.93 123.74 999.7"/>
      <polyline class="cls-6" points="133.76 1003.9 140.69 996.93 150.86 1007.09 143.89 1014.03"/>
      <polyline class="cls-6" points="148.07 1024.04 157.86 1024.04 157.86 1033.29"/>
      <polyline class="cls-6" points="75.26 1033.29 75.26 1024.04 85.05 1024.04"/>
      <polyline class="cls-6" points="89.23 1014.03 82.26 1007.09 92.43 996.93 99.36 1003.9"/>
    </g>
    <path class="cls-6" d="M69.06,954.82h94.99v77.47c0,.55-.45,1-1,1h-92.99c-.55,0-1-.45-1-1v-77.47h0Z"/>
    <line class="cls-6" x1="69.06" y1="971.34" x2="164.06" y2="971.34"/>
    <circle class="cls-12" cx="81.45" cy="963.08" r="2.07"/>
    <circle class="cls-12" cx="89.71" cy="963.08" r="2.07"/>
    <circle class="cls-12" cx="97.97" cy="963.08" r="2.07"/>
  </g>
  <rect class="cls-14" x="1803.81" y="51.92" width="139.74" height="139.74" rx="19.94" ry="19.94"/>
  <text class="cls-9" transform="translate(1803.44 221.83)"><tspan x="0" y="0">MERCHANT</tspan></text>
  <g>
    <path class="cls-6" d="M1914.55,108.79c0,4.09-3.65,7.41-8.15,7.41s-8.15-3.32-8.15-7.41c0,4.09-3.65,7.41-8.15,7.41s-8.15-3.32-8.15-7.41c0,4.09-3.65,7.41-8.15,7.41s-8.15-3.32-8.15-7.41c0,4.09-3.65,7.41-8.15,7.41s-8.15-3.32-8.15-7.41c0,4.09-3.65,7.41-8.15,7.41s-8.15-3.32-8.15-7.41"/>
    <path class="cls-1" d="M1833.03,108.79l8.5-26.96c.45-1.59,1.91-2.69,3.56-2.69h57.4c1.65,0,3.11,1.1,3.56,2.69l8.5,26.96"/>
    <path class="cls-6" d="M1908.99,116.2v44.46c0,2.05-1.66,3.71-3.71,3.71h-62.99c-2.05,0-3.71-1.66-3.71-3.71v-44.46"/>
    <line class="cls-1" x1="1864.53" y1="112.49" x2="1864.53" y2="164.37"/>
    <line class="cls-1" x1="1857.12" y1="134.72" x2="1857.12" y2="138.43"/>
    <line class="cls-1" x1="1886.76" y1="127.31" x2="1875.64" y2="138.43"/>
    <line class="cls-1" x1="1894.17" y1="134.72" x2="1879.35" y2="149.55"/>
    <line class="cls-1" x1="1898.25" y1="108.79" x2="1893.79" y2="79.14"/>
    <line class="cls-1" x1="1881.94" y1="108.79" x2="1879.2" y2="79.14"/>
    <line class="cls-1" x1="1865.64" y1="108.79" x2="1868.16" y2="79.14"/>
    <line class="cls-1" x1="1849.34" y1="108.79" x2="1854.11" y2="79.14"/>
  </g>
  <text class="cls-7" transform="translate(1792.17 1094)"><tspan x="0" y="0">Payment</tspan><tspan class="cls-11" x="108.27" y="0"> </tspan><tspan class="cls-16" x="114.53" y="0">API</tspan></text>
  <rect class="cls-15" x="1801.59" y="924.09" width="139.74" height="139.74" rx="19.94" ry="19.94"/>
  <g>
    <g>
      <path class="cls-6" d="M1864.81,999.7c-3.59.83-7,2.26-10.02,4.2"/>
      <path class="cls-6" d="M1889.19,1003.9c-3.02-1.94-6.43-3.38-10.02-4.2"/>
      <path class="cls-6" d="M1903.52,1024.05c-.83-3.59-2.26-7-4.2-10.02"/>
      <path class="cls-6" d="M1844.66,1014.03c-1.94,3.02-3.38,6.43-4.2,10.02"/>
      <path class="cls-6" d="M1887.97,1033.29c.12-.66.17-1.36.17-2.07,0-8.96-7.19-16.15-16.15-16.15s-16.15,7.19-16.15,16.15c0,.7.04,1.4.17,2.07"/>
      <polyline class="cls-6" points="1864.81 999.7 1864.81 989.93 1879.17 989.93 1879.17 999.7"/>
      <polyline class="cls-6" points="1889.19 1003.9 1896.12 996.93 1906.29 1007.09 1899.32 1014.03"/>
      <polyline class="cls-6" points="1903.5 1024.04 1913.29 1024.04 1913.29 1033.29"/>
      <polyline class="cls-6" points="1830.69 1033.29 1830.69 1024.04 1840.48 1024.04"/>
      <polyline class="cls-6" points="1844.66 1014.03 1837.69 1007.09 1847.86 996.93 1854.79 1003.9"/>
    </g>
    <path class="cls-6" d="M1824.49,954.82h94.99v77.47c0,.55-.45,1-1,1h-92.99c-.55,0-1-.45-1-1v-77.47h0Z"/>
    <line class="cls-6" x1="1824.49" y1="971.34" x2="1919.49" y2="971.34"/>
    <circle class="cls-12" cx="1836.88" cy="963.08" r="2.07"/>
    <circle class="cls-12" cx="1845.14" cy="963.08" r="2.07"/>
    <circle class="cls-12" cx="1853.4" cy="963.08" r="2.07"/>
  </g>
  <line class="cls-3" x1="185.09" y1="120.56" x2="1802.68" y2="120.56"/>
  <line class="cls-2" x1="184.01" y1="998.27" x2="1801.6" y2="998.27"/>
  <g>
    <line class="cls-3" x1="274.49" y1="120.93" x2="274.49" y2="975.68"/>
    <polygon class="cls-14" points="258.53 971.01 274.49 998.65 290.44 971.01 258.53 971.01"/>
  </g>
  <g>
    <line class="cls-2" x1="1727.29" y1="143.9" x2="1727.29" y2="998.65"/>
    <polygon class="cls-15" points="1711.34 148.56 1727.29 120.93 1743.25 148.56 1711.34 148.56"/>
  </g>
  <g>
    <line class="cls-2" x1="1014.35" y1="143.9" x2="1014.35" y2="998.65"/>
    <polygon class="cls-15" points="998.4 148.56 1014.35 120.93 1030.31 148.56 998.4 148.56"/>
  </g>
  <g>
    <line class="cls-2" x1="643.88" y1="143.9" x2="643.88" y2="998.65"/>
    <polygon class="cls-15" points="627.93 148.56 643.88 120.93 659.84 148.56 627.93 148.56"/>
  </g>
  <line class="cls-3" x1="794.65" y1="120.93" x2="794.65" y2="282.48"/>
  <g>
    <line class="cls-3" x1="859.27" y1="143.9" x2="859.27" y2="282.48"/>
    <polygon class="cls-14" points="843.32 148.57 859.27 120.93 875.23 148.57 843.32 148.57"/>
  </g>
  <g>
    <line class="cls-3" x1="1197.43" y1="120.93" x2="1197.43" y2="126.93"/>
    <line class="cls-4" x1="1197.43" y1="138.8" x2="1197.43" y2="963.75"/>
    <line class="cls-3" x1="1197.43" y1="969.68" x2="1197.43" y2="975.68"/>
    <polygon class="cls-14" points="1181.48 971.01 1197.43 998.65 1213.39 971.01 1181.48 971.01"/>
  </g>
  <g>
    <line class="cls-3" x1="1549.6" y1="120.93" x2="1549.6" y2="975.68"/>
    <polygon class="cls-14" points="1533.64 971.01 1549.6 998.65 1565.55 971.01 1533.64 971.01"/>
  </g>
  <g>
    <line class="cls-2" x1="461.88" y1="143.9" x2="461.88" y2="149.9"/>
    <line class="cls-5" x1="461.88" y1="161.77" x2="461.88" y2="986.71"/>
    <line class="cls-2" x1="461.88" y1="992.65" x2="461.88" y2="998.65"/>
    <polygon class="cls-15" points="445.92 148.56 461.88 120.93 477.83 148.56 445.92 148.56"/>
  </g>
  <g>
    <line class="cls-2" x1="1370.82" y1="143.9" x2="1370.82" y2="998.65"/>
    <polygon class="cls-15" points="1354.87 148.56 1370.82 120.93 1386.78 148.56 1354.87 148.56"/>
  </g>
  <rect class="cls-13" x="159.25" y="294.86" width="231.01" height="65.16" rx="9.28" ry="9.28"/>
  <text class="cls-10" transform="translate(176.09 334.6)"><tspan x="0" y="0">Payment Request</tspan></text>
  <rect class="cls-13" x="701.71" y="282.65" width="262.78" height="89.21" rx="9.28" ry="9.28"/>
  <rect class="cls-13" x="1417.89" y="282.65" width="262.78" height="89.21" rx="9.28" ry="9.28"/>
  <g>
    <path class="cls-12" d="M728.78,322.39v-16.96h5.12l3.08,11.57,3.04-11.57h5.14v16.96h-3.18v-13.35l-3.37,13.35h-3.3l-3.35-13.35v13.35h-3.18Z"/>
    <path class="cls-12" d="M755.66,318.48l3.24.54c-.42,1.19-1.07,2.09-1.97,2.71-.9.62-2.02.93-3.37.93-2.14,0-3.72-.7-4.74-2.09-.81-1.12-1.21-2.53-1.21-4.23,0-2.04.53-3.63,1.6-4.78,1.06-1.15,2.41-1.73,4.04-1.73,1.83,0,3.27.6,4.33,1.81,1.06,1.21,1.56,3.06,1.52,5.55h-8.14c.02.96.29,1.71.79,2.25.5.54,1.13.8,1.87.8.51,0,.94-.14,1.28-.42.35-.28.61-.72.79-1.34ZM755.84,315.19c-.02-.94-.27-1.66-.73-2.15s-1.03-.73-1.69-.73c-.71,0-1.3.26-1.76.78s-.69,1.22-.68,2.11h4.86Z"/>
    <path class="cls-12" d="M764.83,322.39h-3.25v-12.29h3.02v1.75c.52-.83.98-1.37,1.39-1.63.41-.26.88-.39,1.41-.39.74,0,1.45.2,2.14.61l-1.01,2.83c-.55-.35-1.06-.53-1.53-.53s-.84.13-1.16.38c-.32.25-.57.7-.75,1.36-.18.66-.27,2.03-.27,4.12v3.79Z"/>
    <path class="cls-12" d="M781.65,313.74l-3.2.58c-.11-.64-.35-1.12-.73-1.45-.38-.32-.88-.49-1.49-.49-.81,0-1.46.28-1.94.84-.48.56-.72,1.49-.72,2.81,0,1.46.24,2.49.73,3.09.49.6,1.15.9,1.97.9.62,0,1.12-.18,1.52-.53.39-.35.67-.95.83-1.81l3.19.54c-.33,1.47-.97,2.57-1.91,3.32-.94.75-2.2,1.12-3.78,1.12-1.8,0-3.23-.57-4.3-1.7-1.07-1.13-1.6-2.7-1.6-4.71s.54-3.61,1.61-4.74c1.07-1.13,2.52-1.7,4.35-1.7,1.5,0,2.69.32,3.57.97.88.64,1.52,1.63,1.9,2.94Z"/>
    <path class="cls-12" d="M787.35,305.43v6.24c1.05-1.23,2.3-1.84,3.76-1.84.75,0,1.42.14,2.02.42.6.28,1.05.63,1.36,1.06.3.43.51.91.62,1.43.11.52.17,1.34.17,2.44v7.21h-3.25v-6.49c0-1.29-.06-2.11-.18-2.45-.12-.35-.34-.62-.65-.83-.31-.2-.7-.31-1.17-.31-.54,0-1.02.13-1.45.39s-.73.66-.93,1.19c-.2.53-.3,1.31-.3,2.34v6.15h-3.25v-16.96h3.25Z"/>
    <path class="cls-12" d="M801.02,313.85l-2.95-.53c.33-1.19.9-2.07,1.71-2.64.81-.57,2.01-.86,3.61-.86,1.45,0,2.53.17,3.24.52.71.34,1.21.78,1.5,1.31s.43,1.5.43,2.91l-.03,3.79c0,1.08.05,1.88.16,2.39.1.51.3,1.06.58,1.65h-3.22c-.08-.22-.19-.54-.31-.96-.05-.19-.09-.32-.12-.38-.56.54-1.15.94-1.78,1.21-.63.27-1.31.41-2.02.41-1.27,0-2.26-.34-2.99-1.03-.73-.69-1.09-1.55-1.09-2.6,0-.69.17-1.31.5-1.86.33-.54.8-.96,1.39-1.25.6-.29,1.46-.54,2.58-.76,1.52-.29,2.57-.55,3.16-.8v-.32c0-.62-.15-1.07-.46-1.34-.31-.27-.89-.4-1.75-.4-.58,0-1.03.11-1.35.34-.32.23-.59.63-.79,1.2ZM805.37,316.49c-.42.14-1.08.3-1.98.5-.9.19-1.49.38-1.77.57-.42.3-.64.68-.64,1.15s.17.85.51,1.18c.34.33.77.5,1.3.5.59,0,1.14-.19,1.68-.58.39-.29.65-.65.78-1.08.08-.28.13-.81.13-1.58v-.65Z"/>
    <path class="cls-12" d="M822.94,322.39h-3.25v-6.27c0-1.33-.07-2.18-.21-2.57s-.36-.69-.68-.91-.69-.32-1.13-.32c-.56,0-1.07.15-1.52.46-.45.31-.75.72-.92,1.23-.17.51-.25,1.45-.25,2.82v5.56h-3.25v-12.29h3.02v1.8c1.07-1.39,2.42-2.08,4.05-2.08.72,0,1.37.13,1.97.39.59.26,1.04.59,1.35.99s.52.86.64,1.37c.12.51.18,1.24.18,2.19v7.64Z"/>
    <path class="cls-12" d="M831.87,310.1v2.59h-2.22v4.95c0,1,.02,1.59.06,1.75.04.17.14.3.29.41.15.11.33.16.55.16.3,0,.74-.1,1.31-.31l.28,2.52c-.76.32-1.61.49-2.57.49-.59,0-1.11-.1-1.58-.3-.47-.2-.82-.45-1.04-.76-.22-.31-.37-.73-.46-1.27-.07-.38-.1-1.14-.1-2.29v-5.36h-1.49v-2.59h1.49v-2.44l3.26-1.9v4.34h2.22Z"/>
    <path class="cls-12" d="M843.82,322.39h-3.25v-12.29h3.02v1.75c.52-.83.98-1.37,1.39-1.63.41-.26.88-.39,1.41-.39.74,0,1.45.2,2.14.61l-1.01,2.83c-.55-.35-1.06-.53-1.53-.53s-.84.13-1.16.38c-.32.25-.57.7-.75,1.36-.18.66-.27,2.03-.27,4.12v3.79Z"/>
    <path class="cls-12" d="M857.04,318.48l3.24.54c-.42,1.19-1.07,2.09-1.97,2.71-.9.62-2.02.93-3.37.93-2.14,0-3.72-.7-4.74-2.09-.81-1.12-1.21-2.53-1.21-4.23,0-2.04.53-3.63,1.6-4.78,1.06-1.15,2.41-1.73,4.04-1.73,1.83,0,3.27.6,4.33,1.81,1.06,1.21,1.56,3.06,1.52,5.55h-8.14c.02.96.29,1.71.79,2.25.5.54,1.13.8,1.87.8.51,0,.94-.14,1.28-.42.35-.28.61-.72.79-1.34ZM857.23,315.19c-.02-.94-.27-1.66-.73-2.15s-1.03-.73-1.69-.73c-.71,0-1.3.26-1.76.78s-.69,1.22-.68,2.11h4.86Z"/>
    <path class="cls-12" d="M874.38,322.39h-3.02v-1.8c-.5.7-1.09,1.22-1.78,1.57-.68.34-1.37.52-2.07.52-1.41,0-2.62-.57-3.63-1.71s-1.51-2.72-1.51-4.76.49-3.67,1.47-4.75c.98-1.08,2.22-1.63,3.71-1.63,1.37,0,2.56.57,3.56,1.71v-6.11h3.25v16.96ZM865.7,315.98c0,1.31.18,2.26.54,2.85.52.85,1.26,1.27,2.2,1.27.75,0,1.38-.32,1.91-.95s.79-1.59.79-2.85c0-1.41-.25-2.43-.76-3.05-.51-.62-1.16-.93-1.96-.93s-1.42.31-1.94.92-.78,1.53-.78,2.75Z"/>
    <path class="cls-12" d="M877.58,308.44v-3.01h3.25v3.01h-3.25ZM877.58,322.39v-12.29h3.25v12.29h-3.25Z"/>
    <path class="cls-12" d="M887.27,322.39h-3.25v-12.29h3.02v1.75c.52-.83.98-1.37,1.39-1.63.41-.26.88-.39,1.41-.39.74,0,1.45.2,2.14.61l-1.01,2.83c-.55-.35-1.06-.53-1.53-.53s-.84.13-1.16.38c-.32.25-.57.7-.75,1.36-.18.66-.27,2.03-.27,4.12v3.79Z"/>
    <path class="cls-12" d="M900.5,318.48l3.24.54c-.42,1.19-1.07,2.09-1.97,2.71-.9.62-2.02.93-3.37.93-2.14,0-3.72-.7-4.74-2.09-.81-1.12-1.21-2.53-1.21-4.23,0-2.04.53-3.63,1.6-4.78,1.06-1.15,2.41-1.73,4.04-1.73,1.83,0,3.27.6,4.33,1.81,1.06,1.21,1.56,3.06,1.52,5.55h-8.14c.02.96.29,1.71.79,2.25.5.54,1.13.8,1.87.8.51,0,.94-.14,1.28-.42.35-.28.61-.72.79-1.34ZM900.68,315.19c-.02-.94-.27-1.66-.73-2.15s-1.03-.73-1.69-.73c-.71,0-1.3.26-1.76.78s-.69,1.22-.68,2.11h4.86Z"/>
    <path class="cls-12" d="M917.27,313.74l-3.2.58c-.11-.64-.35-1.12-.73-1.45-.38-.32-.88-.49-1.49-.49-.81,0-1.46.28-1.94.84-.48.56-.72,1.49-.72,2.81,0,1.46.24,2.49.73,3.09.49.6,1.15.9,1.97.9.62,0,1.12-.18,1.52-.53.39-.35.67-.95.83-1.81l3.19.54c-.33,1.47-.97,2.57-1.91,3.32-.94.75-2.2,1.12-3.78,1.12-1.8,0-3.23-.57-4.3-1.7-1.07-1.13-1.6-2.7-1.6-4.71s.54-3.61,1.61-4.74c1.07-1.13,2.52-1.7,4.35-1.7,1.5,0,2.69.32,3.57.97.88.64,1.52,1.63,1.9,2.94Z"/>
    <path class="cls-12" d="M925.37,310.1v2.59h-2.22v4.95c0,1,.02,1.59.06,1.75.04.17.14.3.29.41.15.11.33.16.55.16.3,0,.74-.1,1.31-.31l.28,2.52c-.76.32-1.61.49-2.57.49-.59,0-1.11-.1-1.58-.3-.47-.2-.82-.45-1.04-.76-.22-.31-.37-.73-.46-1.27-.07-.38-.1-1.14-.1-2.29v-5.36h-1.49v-2.59h1.49v-2.44l3.26-1.9v4.34h2.22Z"/>
    <path class="cls-12" d="M926.48,318.88l3.26-.5c.14.63.42,1.11.84,1.44.42.33,1.02.49,1.78.49.84,0,1.47-.15,1.9-.46.29-.22.43-.5.43-.87,0-.25-.08-.45-.23-.61-.16-.15-.52-.3-1.09-.43-2.62-.58-4.28-1.11-4.99-1.58-.97-.66-1.46-1.58-1.46-2.77,0-1.06.42-1.96,1.26-2.68s2.14-1.09,3.91-1.09,2.93.27,3.75.82c.82.55,1.38,1.36,1.69,2.43l-3.07.57c-.13-.48-.38-.84-.75-1.1-.37-.25-.89-.38-1.57-.38-.86,0-1.47.12-1.84.36-.25.17-.37.39-.37.66,0,.23.11.43.32.59.29.22,1.31.52,3.04.91,1.73.39,2.94.88,3.63,1.45.68.58,1.02,1.38,1.02,2.42,0,1.13-.47,2.09-1.41,2.9-.94.81-2.33,1.21-4.18,1.21-1.67,0-3-.34-3.97-1.02s-1.61-1.6-1.91-2.77Z"/>
    <path class="cls-12" d="M729.22,350.82v-1.84c-.45.66-1.04,1.17-1.76,1.55-.73.38-1.5.57-2.31.57s-1.57-.18-2.22-.54c-.66-.36-1.13-.87-1.42-1.53-.29-.66-.44-1.56-.44-2.72v-7.77h3.25v5.65c0,1.73.06,2.79.18,3.18.12.39.34.7.65.93.32.23.72.34,1.2.34.56,0,1.05-.15,1.49-.46.44-.3.74-.68.9-1.13.16-.45.24-1.56.24-3.31v-5.18h3.25v12.29h-3.02Z"/>
    <path class="cls-12" d="M734.46,347.31l3.26-.5c.14.63.42,1.11.84,1.44.42.33,1.02.49,1.78.49.84,0,1.47-.15,1.9-.46.29-.22.43-.5.43-.87,0-.25-.08-.45-.23-.61-.16-.15-.52-.3-1.09-.43-2.62-.58-4.28-1.11-4.99-1.58-.97-.66-1.46-1.58-1.46-2.77,0-1.06.42-1.96,1.26-2.68s2.14-1.09,3.91-1.09,2.93.27,3.75.82c.82.55,1.38,1.36,1.69,2.43l-3.07.57c-.13-.48-.38-.84-.75-1.1-.37-.25-.89-.38-1.57-.38-.86,0-1.47.12-1.84.36-.25.17-.37.39-.37.66,0,.23.11.43.32.59.29.22,1.31.52,3.04.91,1.73.39,2.94.88,3.63,1.45.68.58,1.02,1.38,1.02,2.42,0,1.13-.47,2.09-1.41,2.9-.94.81-2.33,1.21-4.18,1.21-1.67,0-3-.34-3.97-1.02s-1.61-1.6-1.91-2.77Z"/>
    <path class="cls-12" d="M755.9,346.91l3.24.54c-.42,1.19-1.07,2.09-1.97,2.71-.9.62-2.02.93-3.37.93-2.14,0-3.72-.7-4.74-2.09-.81-1.12-1.21-2.53-1.21-4.23,0-2.04.53-3.63,1.6-4.78,1.06-1.15,2.41-1.73,4.04-1.73,1.83,0,3.27.6,4.33,1.81,1.06,1.21,1.56,3.06,1.52,5.55h-8.14c.02.96.29,1.71.79,2.25.5.54,1.13.8,1.87.8.51,0,.94-.14,1.28-.42.35-.28.61-.72.79-1.34ZM756.08,343.62c-.02-.94-.27-1.66-.73-2.15s-1.03-.73-1.69-.73c-.71,0-1.3.26-1.76.78s-.69,1.22-.68,2.11h4.86Z"/>
    <path class="cls-12" d="M765.07,350.82h-3.25v-12.29h3.02v1.75c.52-.83.98-1.37,1.39-1.63.41-.26.88-.39,1.41-.39.74,0,1.45.2,2.14.61l-1.01,2.83c-.55-.35-1.06-.53-1.53-.53s-.84.13-1.16.38c-.32.25-.57.7-.75,1.36-.18.66-.27,2.03-.27,4.12v3.79Z"/>
    <path class="cls-12" d="M783.4,338.53v2.59h-2.22v4.95c0,1,.02,1.59.06,1.75.04.17.14.3.29.41.15.11.33.16.55.16.3,0,.74-.1,1.31-.31l.28,2.52c-.76.32-1.61.49-2.57.49-.59,0-1.11-.1-1.58-.3-.47-.2-.82-.45-1.04-.76-.22-.31-.37-.73-.46-1.27-.07-.38-.1-1.14-.1-2.29v-5.36h-1.49v-2.59h1.49v-2.44l3.26-1.9v4.34h2.22Z"/>
    <path class="cls-12" d="M784.9,344.5c0-1.08.27-2.12.8-3.14s1.29-1.78,2.26-2.31,2.06-.8,3.27-.8c1.86,0,3.38.6,4.57,1.81,1.19,1.21,1.78,2.73,1.78,4.58s-.6,3.4-1.8,4.62c-1.2,1.22-2.71,1.83-4.53,1.83-1.13,0-2.2-.25-3.22-.76-1.02-.51-1.8-1.26-2.33-2.24s-.8-2.18-.8-3.59ZM788.23,344.68c0,1.22.29,2.15.87,2.8.58.65,1.29.97,2.14.97s1.56-.32,2.13-.97.86-1.59.86-2.82-.29-2.13-.86-2.78c-.57-.65-1.29-.97-2.13-.97s-1.56.32-2.14.97c-.58.65-.87,1.58-.87,2.8Z"/>
    <path class="cls-12" d="M809.82,350.82h-3.25v-12.29h3.02v1.75c.52-.83.98-1.37,1.39-1.63.41-.26.88-.39,1.41-.39.74,0,1.45.2,2.14.61l-1.01,2.83c-.55-.35-1.06-.53-1.53-.53s-.84.13-1.16.38c-.32.25-.57.7-.75,1.36-.18.66-.27,2.03-.27,4.12v3.79Z"/>
    <path class="cls-12" d="M823.04,346.91l3.24.54c-.42,1.19-1.07,2.09-1.97,2.71-.9.62-2.02.93-3.37.93-2.14,0-3.72-.7-4.74-2.09-.81-1.12-1.21-2.53-1.21-4.23,0-2.04.53-3.63,1.6-4.78,1.06-1.15,2.41-1.73,4.04-1.73,1.83,0,3.27.6,4.33,1.81,1.06,1.21,1.56,3.06,1.52,5.55h-8.14c.02.96.29,1.71.79,2.25.5.54,1.13.8,1.87.8.51,0,.94-.14,1.28-.42.35-.28.61-.72.79-1.34ZM823.23,343.62c-.02-.94-.27-1.66-.73-2.15s-1.03-.73-1.69-.73c-.71,0-1.3.26-1.76.78s-.69,1.22-.68,2.11h4.86Z"/>
    <path class="cls-12" d="M840.38,350.82h-3.02v-1.8c-.5.7-1.09,1.22-1.78,1.57-.68.34-1.37.52-2.07.52-1.41,0-2.62-.57-3.63-1.71s-1.51-2.72-1.51-4.76.49-3.67,1.47-4.75c.98-1.08,2.22-1.63,3.71-1.63,1.37,0,2.56.57,3.56,1.71v-6.11h3.25v16.96ZM831.7,344.41c0,1.31.18,2.26.54,2.85.52.85,1.26,1.27,2.2,1.27.75,0,1.38-.32,1.91-.95s.79-1.59.79-2.85c0-1.41-.25-2.43-.76-3.05-.51-.62-1.16-.93-1.96-.93s-1.42.31-1.94.92-.78,1.53-.78,2.75Z"/>
    <path class="cls-12" d="M843.58,336.87v-3.01h3.25v3.01h-3.25ZM843.58,350.82v-12.29h3.25v12.29h-3.25Z"/>
    <path class="cls-12" d="M853.27,350.82h-3.25v-12.29h3.02v1.75c.52-.83.98-1.37,1.39-1.63.41-.26.88-.39,1.41-.39.74,0,1.45.2,2.14.61l-1.01,2.83c-.55-.35-1.06-.53-1.53-.53s-.84.13-1.16.38c-.32.25-.57.7-.75,1.36-.18.66-.27,2.03-.27,4.12v3.79Z"/>
    <path class="cls-12" d="M866.5,346.91l3.24.54c-.42,1.19-1.07,2.09-1.97,2.71-.9.62-2.02.93-3.37.93-2.14,0-3.72-.7-4.74-2.09-.81-1.12-1.21-2.53-1.21-4.23,0-2.04.53-3.63,1.6-4.78,1.06-1.15,2.41-1.73,4.04-1.73,1.83,0,3.27.6,4.33,1.81,1.06,1.21,1.56,3.06,1.52,5.55h-8.14c.02.96.29,1.71.79,2.25.5.54,1.13.8,1.87.8.51,0,.94-.14,1.28-.42.35-.28.61-.72.79-1.34ZM866.68,343.62c-.02-.94-.27-1.66-.73-2.15s-1.03-.73-1.69-.73c-.71,0-1.3.26-1.76.78s-.69,1.22-.68,2.11h4.86Z"/>
    <path class="cls-12" d="M883.27,342.17l-3.2.58c-.11-.64-.35-1.12-.73-1.45-.38-.32-.88-.49-1.49-.49-.81,0-1.46.28-1.94.84-.48.56-.72,1.49-.72,2.81,0,1.46.24,2.49.73,3.09.49.6,1.15.9,1.97.9.62,0,1.12-.18,1.52-.53.39-.35.67-.95.83-1.81l3.19.54c-.33,1.47-.97,2.57-1.91,3.32-.94.75-2.2,1.12-3.78,1.12-1.8,0-3.23-.57-4.3-1.7-1.07-1.13-1.6-2.7-1.6-4.71s.54-3.61,1.61-4.74c1.07-1.13,2.52-1.7,4.35-1.7,1.5,0,2.69.32,3.57.97.88.64,1.52,1.63,1.9,2.94Z"/>
    <path class="cls-12" d="M891.37,338.53v2.59h-2.22v4.95c0,1,.02,1.59.06,1.75.04.17.14.3.29.41.15.11.33.16.55.16.3,0,.74-.1,1.31-.31l.28,2.52c-.76.32-1.61.49-2.57.49-.59,0-1.11-.1-1.58-.3-.47-.2-.82-.45-1.04-.76-.22-.31-.37-.73-.46-1.27-.07-.38-.1-1.14-.1-2.29v-5.36h-1.49v-2.59h1.49v-2.44l3.26-1.9v4.34h2.22Z"/>
    <path class="cls-12" d="M900.21,333.86h3.42v9.19c0,1.46.04,2.4.13,2.83.15.69.5,1.25,1.05,1.67.55.42,1.31.63,2.26.63s1.71-.2,2.2-.6c.49-.4.79-.89.89-1.46.1-.58.15-1.54.15-2.88v-9.38h3.42v8.91c0,2.04-.09,3.47-.28,4.31-.19.84-.53,1.55-1.02,2.13-.5.58-1.16,1.04-2,1.38s-1.92.51-3.26.51c-1.62,0-2.85-.19-3.68-.56s-1.5-.86-1.98-1.46c-.49-.6-.81-1.22-.96-1.88-.22-.97-.34-2.41-.34-4.3v-9.05Z"/>
    <path class="cls-12" d="M917.35,350.82v-16.96h7.21c1.81,0,3.13.15,3.95.46s1.48.85,1.97,1.63c.49.78.74,1.67.74,2.67,0,1.27-.37,2.32-1.12,3.15-.75.83-1.87,1.35-3.36,1.57.74.43,1.35.91,1.83,1.42.48.52,1.13,1.43,1.95,2.75l2.07,3.31h-4.1l-2.48-3.69c-.88-1.32-1.48-2.15-1.8-2.49-.32-.34-.67-.58-1.03-.71-.36-.13-.94-.19-1.72-.19h-.69v7.08h-3.42ZM920.78,341.03h2.53c1.64,0,2.67-.07,3.08-.21.41-.14.73-.38.96-.72.23-.34.35-.76.35-1.27,0-.57-.15-1.03-.46-1.38s-.73-.57-1.29-.67c-.28-.04-1.11-.06-2.5-.06h-2.67v4.3Z"/>
    <path class="cls-12" d="M934.54,350.82v-16.82h3.42v13.96h8.51v2.86h-11.94Z"/>
  </g>
  <rect class="cls-13" x="330.17" y="834.95" width="262.78" height="81.85" rx="9.28" ry="9.28"/>
  <g>
    <path class="cls-12" d="M355.17,867.33v-14.09h-5.03v-2.87h13.48v2.87h-5.02v14.09h-3.42Z"/>
    <path class="cls-12" d="M367.61,867.33h-3.25v-12.29h3.02v1.75c.52-.83.98-1.37,1.39-1.63.41-.26.88-.39,1.41-.39.74,0,1.45.2,2.14.61l-1.01,2.83c-.55-.35-1.06-.53-1.53-.53s-.84.13-1.16.38c-.32.25-.57.7-.75,1.36-.18.66-.27,2.03-.27,4.12v3.79Z"/>
    <path class="cls-12" d="M376.14,858.79l-2.95-.53c.33-1.19.9-2.07,1.71-2.64.81-.57,2.01-.86,3.61-.86,1.45,0,2.53.17,3.24.51.71.34,1.21.78,1.5,1.31s.43,1.5.43,2.91l-.03,3.79c0,1.08.05,1.88.16,2.39.1.51.3,1.06.58,1.65h-3.22c-.08-.22-.19-.54-.31-.96-.05-.19-.09-.32-.12-.38-.56.54-1.15.94-1.78,1.21-.63.27-1.31.4-2.02.4-1.27,0-2.26-.34-2.99-1.03-.73-.69-1.09-1.55-1.09-2.6,0-.69.17-1.31.5-1.86.33-.54.8-.96,1.39-1.25s1.46-.54,2.58-.76c1.52-.29,2.57-.55,3.16-.8v-.32c0-.62-.15-1.07-.46-1.34-.31-.27-.89-.4-1.75-.4-.58,0-1.03.11-1.35.34-.32.23-.59.63-.79,1.2ZM380.49,861.43c-.42.14-1.08.3-1.98.5-.9.19-1.49.38-1.77.57-.42.3-.64.68-.64,1.15s.17.85.51,1.18c.34.33.77.5,1.3.5.59,0,1.14-.19,1.68-.58.39-.29.65-.65.78-1.08.08-.28.13-.81.13-1.58v-.65Z"/>
    <path class="cls-12" d="M398.07,867.33h-3.25v-6.27c0-1.33-.07-2.18-.21-2.57-.14-.39-.36-.69-.68-.91-.31-.22-.69-.32-1.13-.32-.56,0-1.07.15-1.52.46s-.75.72-.92,1.23c-.17.51-.25,1.45-.25,2.82v5.56h-3.25v-12.29h3.02v1.8c1.07-1.39,2.42-2.08,4.05-2.08.72,0,1.37.13,1.97.39.59.26,1.04.59,1.35.99.3.4.52.86.64,1.37.12.51.18,1.24.18,2.19v7.64Z"/>
    <path class="cls-12" d="M400.22,863.82l3.26-.5c.14.63.42,1.11.84,1.44s1.02.49,1.78.49c.84,0,1.47-.15,1.9-.46.29-.22.43-.51.43-.87,0-.25-.08-.45-.23-.61-.16-.15-.52-.3-1.09-.43-2.62-.58-4.28-1.11-4.99-1.58-.97-.66-1.46-1.58-1.46-2.76,0-1.06.42-1.96,1.26-2.68.84-.72,2.14-1.09,3.91-1.09s2.93.27,3.75.82,1.38,1.36,1.69,2.43l-3.07.57c-.13-.48-.38-.84-.75-1.1-.37-.25-.89-.38-1.57-.38-.86,0-1.47.12-1.84.36-.25.17-.37.39-.37.66,0,.23.11.43.32.59.29.22,1.31.52,3.04.91s2.94.88,3.63,1.45c.68.58,1.02,1.38,1.02,2.42,0,1.13-.47,2.09-1.41,2.9-.94.81-2.33,1.21-4.18,1.21-1.67,0-3-.34-3.97-1.02s-1.61-1.6-1.91-2.76Z"/>
    <path class="cls-12" d="M416.97,858.79l-2.95-.53c.33-1.19.9-2.07,1.71-2.64.81-.57,2.01-.86,3.61-.86,1.45,0,2.53.17,3.24.51.71.34,1.21.78,1.5,1.31s.43,1.5.43,2.91l-.03,3.79c0,1.08.05,1.88.16,2.39.1.51.3,1.06.58,1.65h-3.22c-.08-.22-.19-.54-.31-.96-.05-.19-.09-.32-.12-.38-.56.54-1.15.94-1.78,1.21-.63.27-1.31.4-2.02.4-1.27,0-2.26-.34-2.99-1.03-.73-.69-1.09-1.55-1.09-2.6,0-.69.17-1.31.5-1.86.33-.54.8-.96,1.39-1.25s1.46-.54,2.58-.76c1.52-.29,2.57-.55,3.16-.8v-.32c0-.62-.15-1.07-.46-1.34-.31-.27-.89-.4-1.75-.4-.58,0-1.03.11-1.35.34-.32.23-.59.63-.79,1.2ZM421.32,861.43c-.42.14-1.08.3-1.98.5-.9.19-1.49.38-1.77.57-.42.3-.64.68-.64,1.15s.17.85.51,1.18c.34.33.77.5,1.3.5.59,0,1.14-.19,1.68-.58.39-.29.65-.65.78-1.08.08-.28.13-.81.13-1.58v-.65Z"/>
    <path class="cls-12" d="M438.43,858.67l-3.2.58c-.11-.64-.35-1.12-.73-1.45-.38-.32-.88-.49-1.49-.49-.81,0-1.46.28-1.94.84-.48.56-.72,1.49-.72,2.8,0,1.46.24,2.49.73,3.09.49.6,1.15.9,1.97.9.62,0,1.12-.17,1.52-.53.39-.35.67-.95.83-1.81l3.19.54c-.33,1.47-.97,2.57-1.91,3.32-.94.75-2.2,1.12-3.78,1.12-1.8,0-3.23-.57-4.3-1.7-1.07-1.13-1.6-2.7-1.6-4.71s.54-3.61,1.61-4.74c1.07-1.13,2.52-1.69,4.35-1.69,1.5,0,2.69.32,3.57.97.88.64,1.52,1.62,1.9,2.94Z"/>
    <path class="cls-12" d="M446.53,855.04v2.59h-2.22v4.95c0,1,.02,1.59.06,1.75.04.17.14.3.29.41.15.11.33.16.55.16.3,0,.74-.1,1.31-.31l.28,2.52c-.76.32-1.61.49-2.57.49-.59,0-1.11-.1-1.58-.29-.47-.2-.82-.45-1.04-.76-.22-.31-.37-.73-.46-1.27-.07-.38-.1-1.14-.1-2.29v-5.36h-1.49v-2.59h1.49v-2.44l3.26-1.9v4.34h2.22Z"/>
    <path class="cls-12" d="M448.78,853.37v-3.01h3.25v3.01h-3.25ZM448.78,867.33v-12.29h3.25v12.29h-3.25Z"/>
    <path class="cls-12" d="M454.61,861.01c0-1.08.27-2.12.8-3.14.53-1.01,1.29-1.78,2.26-2.31s2.06-.8,3.27-.8c1.86,0,3.38.6,4.57,1.81,1.19,1.21,1.78,2.73,1.78,4.58s-.6,3.4-1.8,4.62c-1.2,1.22-2.71,1.83-4.53,1.83-1.13,0-2.2-.25-3.22-.76-1.02-.51-1.8-1.25-2.33-2.24s-.8-2.18-.8-3.59ZM457.95,861.18c0,1.22.29,2.15.87,2.8.58.65,1.29.97,2.14.97s1.56-.32,2.13-.97c.57-.65.86-1.59.86-2.82s-.29-2.13-.86-2.78c-.57-.65-1.29-.97-2.13-.97s-1.56.32-2.14.97c-.58.65-.87,1.58-.87,2.8Z"/>
    <path class="cls-12" d="M481.01,867.33h-3.25v-6.27c0-1.33-.07-2.18-.21-2.57-.14-.39-.36-.69-.68-.91-.31-.22-.69-.32-1.13-.32-.56,0-1.07.15-1.52.46s-.75.72-.92,1.23c-.17.51-.25,1.45-.25,2.82v5.56h-3.25v-12.29h3.02v1.8c1.07-1.39,2.42-2.08,4.05-2.08.72,0,1.37.13,1.97.39.59.26,1.04.59,1.35.99.3.4.52.86.64,1.37.12.51.18,1.24.18,2.19v7.64Z"/>
    <path class="cls-12" d="M501.61,858.67l-3.2.58c-.11-.64-.35-1.12-.73-1.45-.38-.32-.88-.49-1.49-.49-.81,0-1.46.28-1.94.84-.48.56-.72,1.49-.72,2.8,0,1.46.24,2.49.73,3.09.49.6,1.15.9,1.97.9.62,0,1.12-.17,1.52-.53.39-.35.67-.95.83-1.81l3.19.54c-.33,1.47-.97,2.57-1.91,3.32-.94.75-2.2,1.12-3.78,1.12-1.8,0-3.23-.57-4.3-1.7-1.07-1.13-1.6-2.7-1.6-4.71s.54-3.61,1.61-4.74c1.07-1.13,2.52-1.69,4.35-1.69,1.5,0,2.69.32,3.57.97.88.64,1.52,1.62,1.9,2.94Z"/>
    <path class="cls-12" d="M507.18,867.33h-3.25v-12.29h3.02v1.75c.52-.83.98-1.37,1.39-1.63.41-.26.88-.39,1.41-.39.74,0,1.45.2,2.14.61l-1.01,2.83c-.55-.35-1.06-.53-1.53-.53s-.84.13-1.16.38c-.32.25-.57.7-.75,1.36-.18.66-.27,2.03-.27,4.12v3.79Z"/>
    <path class="cls-12" d="M520.41,863.42l3.24.54c-.42,1.19-1.07,2.09-1.97,2.71-.9.62-2.02.93-3.37.93-2.14,0-3.72-.7-4.74-2.09-.81-1.12-1.21-2.53-1.21-4.23,0-2.04.53-3.63,1.6-4.78s2.41-1.73,4.04-1.73c1.83,0,3.27.6,4.33,1.81s1.56,3.06,1.52,5.55h-8.14c.02.96.29,1.71.79,2.25.5.54,1.13.8,1.87.8.51,0,.94-.14,1.28-.42.35-.28.61-.72.79-1.34ZM520.59,860.13c-.02-.94-.27-1.66-.73-2.15-.46-.49-1.03-.73-1.69-.73-.71,0-1.3.26-1.76.77-.46.52-.69,1.22-.68,2.11h4.86Z"/>
    <path class="cls-12" d="M528.9,858.79l-2.95-.53c.33-1.19.9-2.07,1.71-2.64.81-.57,2.01-.86,3.61-.86,1.45,0,2.53.17,3.24.51.71.34,1.21.78,1.5,1.31s.43,1.5.43,2.91l-.03,3.79c0,1.08.05,1.88.16,2.39.1.51.3,1.06.58,1.65h-3.22c-.08-.22-.19-.54-.31-.96-.05-.19-.09-.32-.12-.38-.56.54-1.15.94-1.78,1.21-.63.27-1.31.4-2.02.4-1.27,0-2.26-.34-2.99-1.03-.73-.69-1.09-1.55-1.09-2.6,0-.69.17-1.31.5-1.86.33-.54.8-.96,1.39-1.25s1.46-.54,2.58-.76c1.52-.29,2.57-.55,3.16-.8v-.32c0-.62-.15-1.07-.46-1.34-.31-.27-.89-.4-1.75-.4-.58,0-1.03.11-1.35.34-.32.23-.59.63-.79,1.2ZM533.25,861.43c-.42.14-1.08.3-1.98.5-.9.19-1.49.38-1.77.57-.42.3-.64.68-.64,1.15s.17.85.51,1.18c.34.33.77.5,1.3.5.59,0,1.14-.19,1.68-.58.39-.29.65-.65.78-1.08.08-.28.13-.81.13-1.58v-.65Z"/>
    <path class="cls-12" d="M545.28,855.04v2.59h-2.22v4.95c0,1,.02,1.59.06,1.75.04.17.14.3.29.41.15.11.33.16.55.16.3,0,.74-.1,1.31-.31l.28,2.52c-.76.32-1.61.49-2.57.49-.59,0-1.11-.1-1.58-.29-.47-.2-.82-.45-1.04-.76-.22-.31-.37-.73-.46-1.27-.07-.38-.1-1.14-.1-2.29v-5.36h-1.49v-2.59h1.49v-2.44l3.26-1.9v4.34h2.22Z"/>
    <path class="cls-12" d="M554.65,863.42l3.24.54c-.42,1.19-1.07,2.09-1.97,2.71-.9.62-2.02.93-3.37.93-2.14,0-3.72-.7-4.74-2.09-.81-1.12-1.21-2.53-1.21-4.23,0-2.04.53-3.63,1.6-4.78s2.41-1.73,4.04-1.73c1.83,0,3.27.6,4.33,1.81s1.56,3.06,1.52,5.55h-8.14c.02.96.29,1.71.79,2.25.5.54,1.13.8,1.87.8.51,0,.94-.14,1.28-.42.35-.28.61-.72.79-1.34ZM554.84,860.13c-.02-.94-.27-1.66-.73-2.15-.46-.49-1.03-.73-1.69-.73-.71,0-1.3.26-1.76.77-.46.52-.69,1.22-.68,2.11h4.86Z"/>
    <path class="cls-12" d="M571.98,867.33h-3.02v-1.8c-.5.7-1.09,1.22-1.78,1.57-.68.34-1.37.51-2.07.51-1.41,0-2.62-.57-3.63-1.71s-1.51-2.72-1.51-4.76.49-3.67,1.47-4.75c.98-1.08,2.22-1.62,3.71-1.62,1.37,0,2.56.57,3.56,1.71v-6.11h3.25v16.96ZM563.3,860.92c0,1.31.18,2.26.54,2.85.52.85,1.26,1.27,2.2,1.27.75,0,1.38-.32,1.91-.95.52-.64.79-1.59.79-2.85,0-1.41-.25-2.43-.76-3.05-.51-.62-1.16-.93-1.96-.93s-1.42.31-1.94.92c-.52.61-.78,1.53-.78,2.75Z"/>
    <path class="cls-12" d="M360.39,887.22l-2.95-.53c.33-1.19.9-2.07,1.71-2.64.81-.57,2.01-.86,3.61-.86,1.45,0,2.53.17,3.24.51.71.34,1.21.78,1.5,1.31s.43,1.5.43,2.91l-.03,3.79c0,1.08.05,1.88.16,2.39.1.51.3,1.06.58,1.65h-3.22c-.08-.22-.19-.54-.31-.96-.05-.19-.09-.32-.12-.38-.56.54-1.15.94-1.78,1.21-.63.27-1.31.4-2.02.4-1.27,0-2.26-.34-2.99-1.03-.73-.69-1.09-1.55-1.09-2.6,0-.69.17-1.31.5-1.86.33-.54.8-.96,1.39-1.25s1.46-.54,2.58-.76c1.52-.29,2.57-.55,3.16-.8v-.32c0-.62-.15-1.07-.46-1.34-.31-.27-.89-.4-1.75-.4-.58,0-1.03.11-1.35.34-.32.23-.59.63-.79,1.2ZM364.74,889.86c-.42.14-1.08.3-1.98.5-.9.19-1.49.38-1.77.57-.42.3-.64.68-.64,1.15s.17.85.51,1.18c.34.33.77.5,1.3.5.59,0,1.14-.19,1.68-.58.39-.29.65-.65.78-1.08.08-.28.13-.81.13-1.58v-.65Z"/>
    <path class="cls-12" d="M382.31,895.76h-3.25v-6.27c0-1.33-.07-2.18-.21-2.57-.14-.39-.36-.69-.68-.91-.31-.22-.69-.32-1.13-.32-.56,0-1.07.15-1.52.46s-.75.72-.92,1.23c-.17.51-.25,1.45-.25,2.82v5.56h-3.25v-12.29h3.02v1.8c1.07-1.39,2.42-2.08,4.05-2.08.72,0,1.37.13,1.97.39.59.26,1.04.59,1.35.99.3.4.52.86.64,1.37.12.51.18,1.24.18,2.19v7.64Z"/>
    <path class="cls-12" d="M396.88,895.76h-3.02v-1.8c-.5.7-1.09,1.22-1.78,1.57-.68.34-1.37.51-2.07.51-1.41,0-2.62-.57-3.63-1.71s-1.51-2.72-1.51-4.76.49-3.67,1.47-4.75c.98-1.08,2.22-1.62,3.71-1.62,1.37,0,2.56.57,3.56,1.71v-6.11h3.25v16.96ZM388.2,889.35c0,1.31.18,2.26.54,2.85.52.85,1.26,1.27,2.2,1.27.75,0,1.38-.32,1.91-.95.52-.64.79-1.59.79-2.85,0-1.41-.25-2.43-.76-3.05-.51-.62-1.16-.93-1.96-.93s-1.42.31-1.94.92c-.52.61-.78,1.53-.78,2.75Z"/>
    <path class="cls-12" d="M405.52,892.25l3.26-.5c.14.63.42,1.11.84,1.44s1.02.49,1.78.49c.84,0,1.47-.15,1.9-.46.29-.22.43-.51.43-.87,0-.25-.08-.45-.23-.61-.16-.15-.52-.3-1.09-.43-2.62-.58-4.28-1.11-4.99-1.58-.97-.66-1.46-1.58-1.46-2.76,0-1.06.42-1.96,1.26-2.68.84-.72,2.14-1.09,3.91-1.09s2.93.27,3.75.82,1.38,1.36,1.69,2.43l-3.07.57c-.13-.48-.38-.84-.75-1.1-.37-.25-.89-.38-1.57-.38-.86,0-1.47.12-1.84.36-.25.17-.37.39-.37.66,0,.23.11.43.32.59.29.22,1.31.52,3.04.91s2.94.88,3.63,1.45c.68.58,1.02,1.38,1.02,2.42,0,1.13-.47,2.09-1.41,2.9-.94.81-2.33,1.21-4.18,1.21-1.67,0-3-.34-3.97-1.02s-1.61-1.6-1.91-2.76Z"/>
    <path class="cls-12" d="M426.95,891.85l3.24.54c-.42,1.19-1.07,2.09-1.97,2.71-.9.62-2.02.93-3.37.93-2.14,0-3.72-.7-4.74-2.09-.81-1.12-1.21-2.53-1.21-4.23,0-2.04.53-3.63,1.6-4.78s2.41-1.73,4.04-1.73c1.83,0,3.27.6,4.33,1.81s1.56,3.06,1.52,5.55h-8.14c.02.96.29,1.71.79,2.25.5.54,1.13.8,1.87.8.51,0,.94-.14,1.28-.42.35-.28.61-.72.79-1.34ZM427.14,888.56c-.02-.94-.27-1.66-.73-2.15-.46-.49-1.03-.73-1.69-.73-.71,0-1.3.26-1.76.77-.46.52-.69,1.22-.68,2.11h4.86Z"/>
    <path class="cls-12" d="M438.65,883.47v2.59h-2.22v4.95c0,1,.02,1.59.06,1.75.04.17.14.3.29.41.15.11.33.16.55.16.3,0,.74-.1,1.31-.31l.28,2.52c-.76.32-1.61.49-2.57.49-.59,0-1.11-.1-1.58-.29-.47-.2-.82-.45-1.04-.76-.22-.31-.37-.73-.46-1.27-.07-.38-.1-1.14-.1-2.29v-5.36h-1.49v-2.59h1.49v-2.44l3.26-1.9v4.34h2.22Z"/>
    <path class="cls-12" d="M453.12,883.47v2.59h-2.22v4.95c0,1,.02,1.59.06,1.75.04.17.14.3.29.41.15.11.33.16.55.16.3,0,.74-.1,1.31-.31l.28,2.52c-.76.32-1.61.49-2.57.49-.59,0-1.11-.1-1.58-.29-.47-.2-.82-.45-1.04-.76-.22-.31-.37-.73-.46-1.27-.07-.38-.1-1.14-.1-2.29v-5.36h-1.49v-2.59h1.49v-2.44l3.26-1.9v4.34h2.22Z"/>
    <path class="cls-12" d="M454.63,889.44c0-1.08.27-2.12.8-3.14.53-1.01,1.29-1.78,2.26-2.31s2.06-.8,3.27-.8c1.86,0,3.38.6,4.57,1.81,1.19,1.21,1.78,2.73,1.78,4.58s-.6,3.4-1.8,4.62c-1.2,1.22-2.71,1.83-4.53,1.83-1.13,0-2.2-.25-3.22-.76-1.02-.51-1.8-1.25-2.33-2.24s-.8-2.18-.8-3.59ZM457.96,889.62c0,1.22.29,2.15.87,2.8.58.65,1.29.97,2.14.97s1.56-.32,2.13-.97c.57-.65.86-1.59.86-2.82s-.29-2.13-.86-2.78c-.57-.65-1.29-.97-2.13-.97s-1.56.32-2.14.97c-.58.65-.87,1.58-.87,2.8Z"/>
    <path class="cls-12" d="M476.34,883.47h3.03v1.8c.39-.62.93-1.12,1.6-1.5s1.42-.58,2.23-.58c1.43,0,2.64.56,3.63,1.68,1,1.12,1.49,2.68,1.49,4.67s-.5,3.65-1.5,4.78c-1,1.14-2.22,1.71-3.64,1.71-.68,0-1.29-.13-1.85-.4-.55-.27-1.13-.73-1.74-1.39v6.19h-3.25v-16.96ZM479.56,889.41c0,1.38.27,2.4.82,3.06.55.66,1.21.99,2,.99s1.38-.3,1.88-.91c.5-.61.75-1.6.75-2.98,0-1.29-.26-2.24-.78-2.87-.52-.62-1.16-.94-1.92-.94s-1.45.31-1.98.92c-.53.61-.79,1.52-.79,2.72Z"/>
    <path class="cls-12" d="M498.02,891.85l3.24.54c-.42,1.19-1.07,2.09-1.97,2.71-.9.62-2.02.93-3.37.93-2.14,0-3.72-.7-4.74-2.09-.81-1.12-1.21-2.53-1.21-4.23,0-2.04.53-3.63,1.6-4.78s2.41-1.73,4.04-1.73c1.83,0,3.27.6,4.33,1.81s1.56,3.06,1.52,5.55h-8.14c.02.96.29,1.71.79,2.25.5.54,1.13.8,1.87.8.51,0,.94-.14,1.28-.42.35-.28.61-.72.79-1.34ZM498.21,888.56c-.02-.94-.27-1.66-.73-2.15-.46-.49-1.03-.73-1.69-.73-.71,0-1.3.26-1.76.77-.46.52-.69,1.22-.68,2.11h4.86Z"/>
    <path class="cls-12" d="M515.26,895.76h-3.25v-6.27c0-1.33-.07-2.18-.21-2.57-.14-.39-.36-.69-.68-.91-.31-.22-.69-.32-1.13-.32-.56,0-1.07.15-1.52.46s-.75.72-.92,1.23c-.17.51-.25,1.45-.25,2.82v5.56h-3.25v-12.29h3.02v1.8c1.07-1.39,2.42-2.08,4.05-2.08.72,0,1.37.13,1.97.39.59.26,1.04.59,1.35.99.3.4.52.86.64,1.37.12.51.18,1.24.18,2.19v7.64Z"/>
    <path class="cls-12" d="M529.82,895.76h-3.02v-1.8c-.5.7-1.09,1.22-1.78,1.57-.68.34-1.37.51-2.07.51-1.41,0-2.62-.57-3.63-1.71s-1.51-2.72-1.51-4.76.49-3.67,1.47-4.75c.98-1.08,2.22-1.62,3.71-1.62,1.37,0,2.56.57,3.56,1.71v-6.11h3.25v16.96ZM521.15,889.35c0,1.31.18,2.26.54,2.85.52.85,1.26,1.27,2.2,1.27.75,0,1.38-.32,1.91-.95.52-.64.79-1.59.79-2.85,0-1.41-.25-2.43-.76-3.05-.51-.62-1.16-.93-1.96-.93s-1.42.31-1.94.92c-.52.61-.78,1.53-.78,2.75Z"/>
    <path class="cls-12" d="M533.03,881.81v-3.01h3.25v3.01h-3.25ZM533.03,895.76v-12.29h3.25v12.29h-3.25Z"/>
    <path class="cls-12" d="M550.79,895.76h-3.25v-6.27c0-1.33-.07-2.18-.21-2.57-.14-.39-.36-.69-.68-.91-.31-.22-.69-.32-1.13-.32-.56,0-1.07.15-1.52.46s-.75.72-.92,1.23c-.17.51-.25,1.45-.25,2.82v5.56h-3.25v-12.29h3.02v1.8c1.07-1.39,2.42-2.08,4.05-2.08.72,0,1.37.13,1.97.39.59.26,1.04.59,1.35.99.3.4.52.86.64,1.37.12.51.18,1.24.18,2.19v7.64Z"/>
    <path class="cls-12" d="M553.78,896.57l3.71.45c.06.43.2.73.43.89.31.23.79.35,1.46.35.85,0,1.48-.13,1.91-.38.29-.17.5-.44.65-.82.1-.27.15-.77.15-1.49v-1.79c-.97,1.33-2.2,1.99-3.68,1.99-1.65,0-2.96-.7-3.92-2.09-.76-1.1-1.13-2.48-1.13-4.12,0-2.06.5-3.63,1.49-4.72.99-1.09,2.22-1.63,3.7-1.63s2.77.67,3.76,2v-1.72h3.04v11.03c0,1.45-.12,2.53-.36,3.25-.24.72-.58,1.28-1.01,1.69s-1.01.73-1.73.96c-.72.23-1.63.35-2.74.35-2.08,0-3.56-.36-4.43-1.07-.87-.71-1.31-1.62-1.31-2.71,0-.11,0-.24.01-.39ZM556.69,889.36c0,1.3.25,2.26.76,2.86.5.61,1.13.91,1.87.91.79,0,1.46-.31,2.01-.93.55-.62.82-1.54.82-2.76s-.26-2.22-.79-2.83c-.52-.62-1.19-.92-1.99-.92s-1.42.3-1.93.91c-.51.61-.76,1.53-.76,2.77Z"/>
  </g>
  <rect class="cls-13" x="512.71" y="720.79" width="262.78" height="82.39" rx="9.28" ry="9.28"/>
  <g>
    <path class="cls-12" d="M591.85,753.71l-4.05-16.96h3.5l2.56,11.65,3.1-11.65h4.07l2.97,11.85,2.6-11.85h3.45l-4.12,16.96h-3.63l-3.38-12.68-3.37,12.68h-3.71Z"/>
    <path class="cls-12" d="M618.47,749.8l3.24.54c-.42,1.19-1.07,2.09-1.97,2.71-.9.62-2.02.93-3.37.93-2.14,0-3.72-.7-4.74-2.09-.81-1.12-1.21-2.53-1.21-4.23,0-2.04.53-3.63,1.6-4.78s2.41-1.73,4.04-1.73c1.83,0,3.27.6,4.33,1.81s1.56,3.06,1.52,5.55h-8.14c.02.96.29,1.71.79,2.25.5.54,1.13.8,1.87.8.51,0,.94-.14,1.28-.42.35-.28.61-.72.79-1.34ZM618.65,746.51c-.02-.94-.27-1.66-.73-2.15-.46-.49-1.03-.73-1.69-.73-.71,0-1.3.26-1.76.77-.46.52-.69,1.22-.68,2.11h4.86Z"/>
    <path class="cls-12" d="M624.39,753.71v-16.96h3.25v6.11c1-1.14,2.19-1.71,3.56-1.71,1.5,0,2.73.54,3.71,1.62.98,1.08,1.47,2.64,1.47,4.67s-.5,3.71-1.5,4.85-2.21,1.7-3.64,1.7c-.7,0-1.39-.17-2.08-.53-.68-.35-1.27-.87-1.76-1.56v1.8h-3.02ZM627.62,747.3c0,1.27.2,2.21.6,2.82.56.86,1.31,1.29,2.25,1.29.72,0,1.33-.31,1.83-.92.51-.61.76-1.58.76-2.9,0-1.4-.25-2.42-.76-3.04-.51-.62-1.16-.93-1.96-.93s-1.43.3-1.94.91-.78,1.53-.78,2.76Z"/>
    <path class="cls-12" d="M642.24,736.75v6.24c1.05-1.23,2.3-1.84,3.76-1.84.75,0,1.42.14,2.02.42.6.28,1.05.63,1.36,1.06s.51.91.62,1.43c.11.52.17,1.34.17,2.44v7.21h-3.25v-6.49c0-1.29-.06-2.11-.18-2.45-.12-.35-.34-.62-.65-.83-.31-.21-.7-.31-1.17-.31-.54,0-1.02.13-1.45.39-.42.26-.73.66-.93,1.19-.2.53-.3,1.31-.3,2.34v6.15h-3.25v-16.96h3.25Z"/>
    <path class="cls-12" d="M652.72,747.39c0-1.08.27-2.12.8-3.14.53-1.01,1.29-1.78,2.26-2.31s2.06-.8,3.27-.8c1.86,0,3.38.6,4.57,1.81,1.19,1.21,1.78,2.73,1.78,4.58s-.6,3.4-1.8,4.62c-1.2,1.22-2.71,1.83-4.53,1.83-1.13,0-2.2-.25-3.22-.76-1.02-.51-1.8-1.25-2.33-2.24s-.8-2.18-.8-3.59ZM656.05,747.57c0,1.22.29,2.15.87,2.8.58.65,1.29.97,2.14.97s1.56-.32,2.13-.97c.57-.65.86-1.59.86-2.82s-.29-2.13-.86-2.78c-.57-.65-1.29-.97-2.13-.97s-1.56.32-2.14.97c-.58.65-.87,1.58-.87,2.8Z"/>
    <path class="cls-12" d="M667.19,747.39c0-1.08.27-2.12.8-3.14.53-1.01,1.29-1.78,2.26-2.31s2.06-.8,3.27-.8c1.86,0,3.38.6,4.57,1.81,1.19,1.21,1.78,2.73,1.78,4.58s-.6,3.4-1.8,4.62c-1.2,1.22-2.71,1.83-4.53,1.83-1.13,0-2.2-.25-3.22-.76-1.02-.51-1.8-1.25-2.33-2.24s-.8-2.18-.8-3.59ZM670.53,747.57c0,1.22.29,2.15.87,2.8.58.65,1.29.97,2.14.97s1.56-.32,2.13-.97c.57-.65.86-1.59.86-2.82s-.29-2.13-.86-2.78c-.57-.65-1.29-.97-2.13-.97s-1.56.32-2.14.97c-.58.65-.87,1.58-.87,2.8Z"/>
    <path class="cls-12" d="M682.3,753.71v-16.96h3.25v9l3.81-4.33h4l-4.2,4.49,4.5,7.8h-3.5l-3.09-5.52-1.52,1.58v3.93h-3.25Z"/>
    <path class="cls-12" d="M535.89,782.14h-3.25v-6.27c0-1.33-.07-2.18-.21-2.57-.14-.39-.36-.69-.68-.91-.31-.22-.69-.32-1.13-.32-.56,0-1.07.15-1.52.46s-.75.72-.92,1.23c-.17.51-.25,1.45-.25,2.82v5.56h-3.25v-12.29h3.02v1.8c1.07-1.39,2.42-2.08,4.05-2.08.72,0,1.37.13,1.97.39.59.26,1.04.59,1.35.99.3.4.52.86.64,1.37.12.51.18,1.24.18,2.19v7.64Z"/>
    <path class="cls-12" d="M538.43,775.82c0-1.08.27-2.12.8-3.14.53-1.01,1.29-1.78,2.26-2.31s2.06-.8,3.27-.8c1.86,0,3.38.6,4.57,1.81,1.19,1.21,1.78,2.73,1.78,4.58s-.6,3.4-1.8,4.62c-1.2,1.22-2.71,1.83-4.53,1.83-1.13,0-2.2-.25-3.22-.76-1.02-.51-1.8-1.25-2.33-2.24s-.8-2.18-.8-3.59ZM541.77,776c0,1.22.29,2.15.87,2.8.58.65,1.29.97,2.14.97s1.56-.32,2.13-.97c.57-.65.86-1.59.86-2.82s-.29-2.13-.86-2.78c-.57-.65-1.29-.97-2.13-.97s-1.56.32-2.14.97c-.58.65-.87,1.58-.87,2.8Z"/>
    <path class="cls-12" d="M559.29,769.85v2.59h-2.22v4.95c0,1,.02,1.59.06,1.75.04.17.14.3.29.41.15.11.33.16.55.16.3,0,.74-.1,1.31-.31l.28,2.52c-.76.32-1.61.49-2.57.49-.59,0-1.11-.1-1.58-.29-.47-.2-.82-.45-1.04-.76-.22-.31-.37-.73-.46-1.27-.07-.38-.1-1.14-.1-2.29v-5.36h-1.49v-2.59h1.49v-2.44l3.26-1.9v4.34h2.22Z"/>
    <path class="cls-12" d="M561.55,768.19v-3.01h3.25v3.01h-3.25ZM561.55,782.14v-12.29h3.25v12.29h-3.25Z"/>
    <path class="cls-12" d="M566.71,769.85h1.8v-.93c0-1.03.11-1.8.33-2.31s.62-.92,1.21-1.24c.59-.32,1.34-.48,2.24-.48s1.83.14,2.72.42l-.44,2.27c-.52-.12-1.01-.18-1.49-.18s-.81.11-1.01.33-.31.64-.31,1.27v.87h2.43v2.56h-2.43v9.73h-3.25v-9.73h-1.8v-2.56Z"/>
    <path class="cls-12" d="M576.02,768.19v-3.01h3.25v3.01h-3.25ZM576.02,782.14v-12.29h3.25v12.29h-3.25Z"/>
    <path class="cls-12" d="M593.32,773.49l-3.2.58c-.11-.64-.35-1.12-.73-1.45-.38-.32-.88-.49-1.49-.49-.81,0-1.46.28-1.94.84-.48.56-.72,1.49-.72,2.8,0,1.46.24,2.49.73,3.09.49.6,1.15.9,1.97.9.62,0,1.12-.17,1.52-.53.39-.35.67-.95.83-1.81l3.19.54c-.33,1.47-.97,2.57-1.91,3.32-.94.75-2.2,1.12-3.78,1.12-1.8,0-3.23-.57-4.3-1.7-1.07-1.13-1.6-2.7-1.6-4.71s.54-3.61,1.61-4.74c1.07-1.13,2.52-1.69,4.35-1.69,1.5,0,2.69.32,3.57.97.88.64,1.52,1.62,1.9,2.94Z"/>
    <path class="cls-12" d="M598.21,773.6l-2.95-.53c.33-1.19.9-2.07,1.71-2.64.81-.57,2.01-.86,3.61-.86,1.45,0,2.53.17,3.24.51.71.34,1.21.78,1.5,1.31s.43,1.5.43,2.91l-.03,3.79c0,1.08.05,1.88.16,2.39.1.51.3,1.06.58,1.65h-3.22c-.08-.22-.19-.54-.31-.96-.05-.19-.09-.32-.12-.38-.56.54-1.15.94-1.78,1.21-.63.27-1.31.4-2.02.4-1.27,0-2.26-.34-2.99-1.03-.73-.69-1.09-1.55-1.09-2.6,0-.69.17-1.31.5-1.86.33-.54.8-.96,1.39-1.25s1.46-.54,2.58-.76c1.52-.29,2.57-.55,3.16-.8v-.32c0-.62-.15-1.07-.46-1.34-.31-.27-.89-.4-1.75-.4-.58,0-1.03.11-1.35.34-.32.23-.59.63-.79,1.2ZM602.56,776.24c-.42.14-1.08.3-1.98.5-.9.19-1.49.38-1.77.57-.42.3-.64.68-.64,1.15s.17.85.51,1.18c.34.33.77.5,1.3.5.59,0,1.14-.19,1.68-.58.39-.29.65-.65.78-1.08.08-.28.13-.81.13-1.58v-.65Z"/>
    <path class="cls-12" d="M614.59,769.85v2.59h-2.22v4.95c0,1,.02,1.59.06,1.75.04.17.14.3.29.41.15.11.33.16.55.16.3,0,.74-.1,1.31-.31l.28,2.52c-.76.32-1.61.49-2.57.49-.59,0-1.11-.1-1.58-.29-.47-.2-.82-.45-1.04-.76-.22-.31-.37-.73-.46-1.27-.07-.38-.1-1.14-.1-2.29v-5.36h-1.49v-2.59h1.49v-2.44l3.26-1.9v4.34h2.22Z"/>
    <path class="cls-12" d="M616.85,768.19v-3.01h3.25v3.01h-3.25ZM616.85,782.14v-12.29h3.25v12.29h-3.25Z"/>
    <path class="cls-12" d="M622.68,775.82c0-1.08.27-2.12.8-3.14.53-1.01,1.29-1.78,2.26-2.31s2.06-.8,3.27-.8c1.86,0,3.38.6,4.57,1.81,1.19,1.21,1.78,2.73,1.78,4.58s-.6,3.4-1.8,4.62c-1.2,1.22-2.71,1.83-4.53,1.83-1.13,0-2.2-.25-3.22-.76-1.02-.51-1.8-1.25-2.33-2.24s-.8-2.18-.8-3.59ZM626.01,776c0,1.22.29,2.15.87,2.8.58.65,1.29.97,2.14.97s1.56-.32,2.13-.97c.57-.65.86-1.59.86-2.82s-.29-2.13-.86-2.78c-.57-.65-1.29-.97-2.13-.97s-1.56.32-2.14.97c-.58.65-.87,1.58-.87,2.8Z"/>
    <path class="cls-12" d="M649.08,782.14h-3.25v-6.27c0-1.33-.07-2.18-.21-2.57-.14-.39-.36-.69-.68-.91-.31-.22-.69-.32-1.13-.32-.56,0-1.07.15-1.52.46s-.75.72-.92,1.23c-.17.51-.25,1.45-.25,2.82v5.56h-3.25v-12.29h3.02v1.8c1.07-1.39,2.42-2.08,4.05-2.08.72,0,1.37.13,1.97.39.59.26,1.04.59,1.35.99.3.4.52.86.64,1.37.12.51.18,1.24.18,2.19v7.64Z"/>
    <path class="cls-12" d="M659.58,773.1v-3.25h3.25v3.25h-3.25ZM659.58,782.14v-3.25h3.25v3.25h-3.25Z"/>
    <path class="cls-12" d="M673.45,782.14v-16.96h5.5c2.08,0,3.44.08,4.07.25.97.25,1.79.81,2.44,1.66.66.85.98,1.95.98,3.3,0,1.04-.19,1.92-.57,2.63s-.86,1.27-1.44,1.67c-.58.4-1.17.67-1.78.8-.82.16-2,.24-3.55.24h-2.23v6.4h-3.42ZM676.88,768.05v4.81h1.87c1.35,0,2.25-.09,2.71-.27.46-.18.81-.46,1.07-.83.26-.38.39-.82.39-1.32,0-.62-.18-1.13-.54-1.53-.36-.4-.82-.65-1.38-.75-.41-.08-1.23-.12-2.46-.12h-1.65Z"/>
    <path class="cls-12" d="M696.35,778.23l3.24.54c-.42,1.19-1.07,2.09-1.97,2.71-.9.62-2.02.93-3.37.93-2.14,0-3.72-.7-4.74-2.09-.81-1.12-1.21-2.53-1.21-4.23,0-2.04.53-3.63,1.6-4.78s2.41-1.73,4.04-1.73c1.83,0,3.27.6,4.33,1.81s1.56,3.06,1.52,5.55h-8.14c.02.96.29,1.71.79,2.25.5.54,1.13.8,1.87.8.51,0,.94-.14,1.28-.42.35-.28.61-.72.79-1.34ZM696.53,774.94c-.02-.94-.27-1.66-.73-2.15-.46-.49-1.03-.73-1.69-.73-.71,0-1.3.26-1.76.77-.46.52-.69,1.22-.68,2.11h4.86Z"/>
    <path class="cls-12" d="M713.58,782.14h-3.25v-6.27c0-1.33-.07-2.18-.21-2.57-.14-.39-.36-.69-.68-.91-.31-.22-.69-.32-1.13-.32-.56,0-1.07.15-1.52.46s-.75.72-.92,1.23c-.17.51-.25,1.45-.25,2.82v5.56h-3.25v-12.29h3.02v1.8c1.07-1.39,2.42-2.08,4.05-2.08.72,0,1.37.13,1.97.39.59.26,1.04.59,1.35.99.3.4.52.86.64,1.37.12.51.18,1.24.18,2.19v7.64Z"/>
    <path class="cls-12" d="M728.15,782.14h-3.02v-1.8c-.5.7-1.09,1.22-1.78,1.57-.68.34-1.37.51-2.07.51-1.41,0-2.62-.57-3.63-1.71s-1.51-2.72-1.51-4.76.49-3.67,1.47-4.75c.98-1.08,2.22-1.62,3.71-1.62,1.37,0,2.56.57,3.56,1.71v-6.11h3.25v16.96ZM719.47,775.73c0,1.31.18,2.26.54,2.85.52.85,1.26,1.27,2.2,1.27.75,0,1.38-.32,1.91-.95.52-.64.79-1.59.79-2.85,0-1.41-.25-2.43-.76-3.05-.51-.62-1.16-.93-1.96-.93s-1.42.31-1.94.92c-.52.61-.78,1.53-.78,2.75Z"/>
    <path class="cls-12" d="M731.35,768.19v-3.01h3.25v3.01h-3.25ZM731.35,782.14v-12.29h3.25v12.29h-3.25Z"/>
    <path class="cls-12" d="M749.11,782.14h-3.25v-6.27c0-1.33-.07-2.18-.21-2.57-.14-.39-.36-.69-.68-.91-.31-.22-.69-.32-1.13-.32-.56,0-1.07.15-1.52.46s-.75.72-.92,1.23c-.17.51-.25,1.45-.25,2.82v5.56h-3.25v-12.29h3.02v1.8c1.07-1.39,2.42-2.08,4.05-2.08.72,0,1.37.13,1.97.39.59.26,1.04.59,1.35.99.3.4.52.86.64,1.37.12.51.18,1.24.18,2.19v7.64Z"/>
    <path class="cls-12" d="M752.11,782.95l3.71.45c.06.43.2.73.43.89.31.23.79.35,1.46.35.85,0,1.48-.13,1.91-.38.29-.17.5-.44.65-.82.1-.27.15-.77.15-1.49v-1.79c-.97,1.33-2.2,1.99-3.68,1.99-1.65,0-2.96-.7-3.92-2.09-.76-1.1-1.13-2.48-1.13-4.12,0-2.06.5-3.63,1.49-4.72.99-1.09,2.22-1.63,3.7-1.63s2.77.67,3.76,2v-1.72h3.04v11.03c0,1.45-.12,2.53-.36,3.25-.24.72-.58,1.28-1.01,1.69s-1.01.73-1.73.96c-.72.23-1.63.35-2.74.35-2.08,0-3.56-.36-4.43-1.07-.87-.71-1.31-1.62-1.31-2.71,0-.11,0-.24.01-.39ZM755.01,775.74c0,1.3.25,2.26.76,2.86.5.61,1.13.91,1.87.91.79,0,1.46-.31,2.01-.93.55-.62.82-1.54.82-2.76s-.26-2.22-.79-2.83c-.52-.62-1.19-.92-1.99-.92s-1.42.3-1.93.91c-.51.61-.76,1.53-.76,2.77Z"/>
  </g>
  <rect class="cls-13" x="1247.51" y="720.79" width="247.7" height="82.39" rx="9.28" ry="9.28"/>
  <g>
    <path class="cls-12" d="M1307.61,753.71v-16.96h7.21c1.81,0,3.13.15,3.95.46s1.48.85,1.97,1.62c.49.78.74,1.67.74,2.67,0,1.27-.37,2.32-1.12,3.15s-1.87,1.35-3.36,1.57c.74.43,1.35.91,1.83,1.42.48.52,1.13,1.43,1.95,2.75l2.07,3.31h-4.1l-2.48-3.69c-.88-1.32-1.48-2.15-1.8-2.49-.32-.34-.67-.58-1.03-.71-.36-.13-.94-.19-1.72-.19h-.69v7.08h-3.42ZM1311.03,743.92h2.53c1.64,0,2.67-.07,3.08-.21s.73-.38.96-.72c.23-.34.35-.76.35-1.27,0-.57-.15-1.03-.46-1.38-.3-.35-.73-.57-1.29-.67-.28-.04-1.11-.06-2.5-.06h-2.67v4.3Z"/>
    <path class="cls-12" d="M1331.8,749.8l3.24.54c-.42,1.19-1.07,2.09-1.97,2.71-.9.62-2.02.93-3.37.93-2.14,0-3.72-.7-4.74-2.09-.81-1.12-1.21-2.53-1.21-4.23,0-2.04.53-3.63,1.6-4.78s2.41-1.73,4.04-1.73c1.83,0,3.27.6,4.33,1.81s1.56,3.06,1.52,5.55h-8.14c.02.96.29,1.71.79,2.25.5.54,1.13.8,1.87.8.51,0,.94-.14,1.28-.42.35-.28.61-.72.79-1.34ZM1331.98,746.51c-.02-.94-.27-1.66-.73-2.15-.46-.49-1.03-.73-1.69-.73-.71,0-1.3.26-1.76.77-.46.52-.69,1.22-.68,2.11h4.86Z"/>
    <path class="cls-12" d="M1349.13,753.71h-3.02v-1.8c-.5.7-1.09,1.22-1.78,1.57-.68.34-1.37.51-2.07.51-1.41,0-2.62-.57-3.63-1.71s-1.51-2.72-1.51-4.76.49-3.67,1.47-4.75c.98-1.08,2.22-1.62,3.71-1.62,1.37,0,2.56.57,3.56,1.71v-6.11h3.25v16.96ZM1340.45,747.3c0,1.31.18,2.26.54,2.85.52.85,1.26,1.27,2.2,1.27.75,0,1.38-.32,1.91-.95.52-.64.79-1.59.79-2.85,0-1.41-.25-2.43-.76-3.05-.51-.62-1.16-.93-1.96-.93s-1.42.31-1.94.92c-.52.61-.78,1.53-.78,2.75Z"/>
    <path class="cls-12" d="M1352.33,739.76v-3.01h3.25v3.01h-3.25ZM1352.33,753.71v-12.29h3.25v12.29h-3.25Z"/>
    <path class="cls-12" d="M1362.03,753.71h-3.25v-12.29h3.02v1.75c.52-.83.98-1.37,1.39-1.63.41-.26.88-.39,1.41-.39.74,0,1.45.2,2.14.61l-1.01,2.83c-.55-.35-1.06-.53-1.53-.53s-.84.13-1.16.38c-.32.25-.57.7-.75,1.36-.18.66-.27,2.03-.27,4.12v3.79Z"/>
    <path class="cls-12" d="M1375.25,749.8l3.24.54c-.42,1.19-1.07,2.09-1.97,2.71-.9.62-2.02.93-3.37.93-2.14,0-3.72-.7-4.74-2.09-.81-1.12-1.21-2.53-1.21-4.23,0-2.04.53-3.63,1.6-4.78s2.41-1.73,4.04-1.73c1.83,0,3.27.6,4.33,1.81s1.56,3.06,1.52,5.55h-8.14c.02.96.29,1.71.79,2.25.5.54,1.13.8,1.87.8.51,0,.94-.14,1.28-.42.35-.28.61-.72.79-1.34ZM1375.44,746.51c-.02-.94-.27-1.66-.73-2.15-.46-.49-1.03-.73-1.69-.73-.71,0-1.3.26-1.76.77-.46.52-.69,1.22-.68,2.11h4.86Z"/>
    <path class="cls-12" d="M1392.03,745.05l-3.2.58c-.11-.64-.35-1.12-.73-1.45-.38-.32-.88-.49-1.49-.49-.81,0-1.46.28-1.94.84-.48.56-.72,1.49-.72,2.8,0,1.46.24,2.49.73,3.09.49.6,1.15.9,1.97.9.62,0,1.12-.17,1.52-.53.39-.35.67-.95.83-1.81l3.19.54c-.33,1.47-.97,2.57-1.91,3.32-.94.75-2.2,1.12-3.78,1.12-1.8,0-3.23-.57-4.3-1.7-1.07-1.13-1.6-2.7-1.6-4.71s.54-3.61,1.61-4.74c1.07-1.13,2.52-1.69,4.35-1.69,1.5,0,2.69.32,3.57.97.88.64,1.52,1.62,1.9,2.94Z"/>
    <path class="cls-12" d="M1400.12,741.42v2.59h-2.22v4.95c0,1,.02,1.59.06,1.75.04.17.14.3.29.41.15.11.33.16.55.16.3,0,.74-.1,1.31-.31l.28,2.52c-.76.32-1.61.49-2.57.49-.59,0-1.11-.1-1.58-.29-.47-.2-.82-.45-1.04-.76-.22-.31-.37-.73-.46-1.27-.07-.38-.1-1.14-.1-2.29v-5.36h-1.49v-2.59h1.49v-2.44l3.26-1.9v4.34h2.22Z"/>
    <path class="cls-12" d="M1414.6,741.42v2.59h-2.22v4.95c0,1,.02,1.59.06,1.75.04.17.14.3.29.41.15.11.33.16.55.16.3,0,.74-.1,1.31-.31l.28,2.52c-.76.32-1.61.49-2.57.49-.59,0-1.11-.1-1.58-.29-.47-.2-.82-.45-1.04-.76-.22-.31-.37-.73-.46-1.27-.07-.38-.1-1.14-.1-2.29v-5.36h-1.49v-2.59h1.49v-2.44l3.26-1.9v4.34h2.22Z"/>
    <path class="cls-12" d="M1416.1,747.39c0-1.08.27-2.12.8-3.14.53-1.01,1.29-1.78,2.26-2.31s2.06-.8,3.27-.8c1.86,0,3.38.6,4.57,1.81,1.19,1.21,1.78,2.73,1.78,4.58s-.6,3.4-1.8,4.62c-1.2,1.22-2.71,1.83-4.53,1.83-1.13,0-2.2-.25-3.22-.76-1.02-.51-1.8-1.25-2.33-2.24s-.8-2.18-.8-3.59ZM1419.43,747.57c0,1.22.29,2.15.87,2.8.58.65,1.29.97,2.14.97s1.56-.32,2.13-.97c.57-.65.86-1.59.86-2.82s-.29-2.13-.86-2.78c-.57-.65-1.29-.97-2.13-.97s-1.56.32-2.14.97c-.58.65-.87,1.58-.87,2.8Z"/>
    <path class="cls-12" d="M1272.2,778.63l3.26-.5c.14.63.42,1.11.84,1.44s1.02.49,1.78.49c.84,0,1.47-.15,1.9-.46.29-.22.43-.51.43-.87,0-.25-.08-.45-.23-.61-.16-.15-.52-.3-1.09-.43-2.62-.58-4.28-1.11-4.99-1.58-.97-.66-1.46-1.58-1.46-2.76,0-1.06.42-1.96,1.26-2.68.84-.72,2.14-1.09,3.91-1.09s2.93.27,3.75.82,1.38,1.36,1.69,2.43l-3.07.57c-.13-.48-.38-.84-.75-1.1-.37-.25-.89-.38-1.57-.38-.86,0-1.47.12-1.84.36-.25.17-.37.39-.37.66,0,.23.11.43.32.59.29.22,1.31.52,3.04.91s2.94.88,3.63,1.45c.68.58,1.02,1.38,1.02,2.42,0,1.13-.47,2.09-1.41,2.9-.94.81-2.33,1.21-4.18,1.21-1.67,0-3-.34-3.97-1.02s-1.61-1.6-1.91-2.76Z"/>
    <path class="cls-12" d="M1289.76,765.18v6.24c1.05-1.23,2.3-1.84,3.76-1.84.75,0,1.42.14,2.02.42.6.28,1.05.63,1.36,1.06s.51.91.62,1.43c.11.52.17,1.34.17,2.44v7.21h-3.25v-6.49c0-1.29-.06-2.11-.18-2.45-.12-.35-.34-.62-.65-.83-.31-.21-.7-.31-1.17-.31-.54,0-1.02.13-1.45.39-.42.26-.73.66-.93,1.19-.2.53-.3,1.31-.3,2.34v6.15h-3.25v-16.96h3.25Z"/>
    <path class="cls-12" d="M1300.24,775.82c0-1.08.27-2.12.8-3.14.53-1.01,1.29-1.78,2.26-2.31s2.06-.8,3.27-.8c1.86,0,3.38.6,4.57,1.81,1.19,1.21,1.78,2.73,1.78,4.58s-.6,3.4-1.8,4.62c-1.2,1.22-2.71,1.83-4.53,1.83-1.13,0-2.2-.25-3.22-.76-1.02-.51-1.8-1.25-2.33-2.24s-.8-2.18-.8-3.59ZM1303.58,776c0,1.22.29,2.15.87,2.8.58.65,1.29.97,2.14.97s1.56-.32,2.13-.97c.57-.65.86-1.59.86-2.82s-.29-2.13-.86-2.78c-.57-.65-1.29-.97-2.13-.97s-1.56.32-2.14.97c-.58.65-.87,1.58-.87,2.8Z"/>
    <path class="cls-12" d="M1315.38,769.85h3.03v1.8c.39-.62.93-1.12,1.6-1.5s1.42-.58,2.23-.58c1.43,0,2.64.56,3.63,1.68,1,1.12,1.49,2.68,1.49,4.67s-.5,3.65-1.5,4.78c-1,1.14-2.22,1.71-3.64,1.71-.68,0-1.29-.13-1.85-.4-.55-.27-1.13-.73-1.74-1.39v6.19h-3.25v-16.96ZM1318.59,775.79c0,1.38.27,2.4.82,3.06.55.66,1.21.99,2,.99s1.38-.3,1.88-.91c.5-.61.75-1.6.75-2.98,0-1.29-.26-2.24-.78-2.87-.52-.62-1.16-.94-1.92-.94s-1.45.31-1.98.92c-.53.61-.79,1.52-.79,2.72Z"/>
    <path class="cls-12" d="M1329.85,769.85h3.03v1.8c.39-.62.93-1.12,1.6-1.5s1.42-.58,2.23-.58c1.43,0,2.64.56,3.63,1.68,1,1.12,1.49,2.68,1.49,4.67s-.5,3.65-1.5,4.78c-1,1.14-2.22,1.71-3.64,1.71-.68,0-1.29-.13-1.85-.4-.55-.27-1.13-.73-1.74-1.39v6.19h-3.25v-16.96ZM1333.07,775.79c0,1.38.27,2.4.82,3.06.55.66,1.21.99,2,.99s1.38-.3,1.88-.91c.5-.61.75-1.6.75-2.98,0-1.29-.26-2.24-.78-2.87-.52-.62-1.16-.94-1.92-.94s-1.45.31-1.98.92c-.53.61-.79,1.52-.79,2.72Z"/>
    <path class="cls-12" d="M1351.53,778.23l3.24.54c-.42,1.19-1.07,2.09-1.97,2.71-.9.62-2.02.93-3.37.93-2.14,0-3.72-.7-4.74-2.09-.81-1.12-1.21-2.53-1.21-4.23,0-2.04.53-3.63,1.6-4.78s2.41-1.73,4.04-1.73c1.83,0,3.27.6,4.33,1.81s1.56,3.06,1.52,5.55h-8.14c.02.96.29,1.71.79,2.25.5.54,1.13.8,1.87.8.51,0,.94-.14,1.28-.42.35-.28.61-.72.79-1.34ZM1351.71,774.94c-.02-.94-.27-1.66-.73-2.15-.46-.49-1.03-.73-1.69-.73-.71,0-1.3.26-1.76.77-.46.52-.69,1.22-.68,2.11h4.86Z"/>
    <path class="cls-12" d="M1360.7,782.14h-3.25v-12.29h3.02v1.75c.52-.83.98-1.37,1.39-1.63.41-.26.88-.39,1.41-.39.74,0,1.45.2,2.14.61l-1.01,2.83c-.55-.35-1.06-.53-1.53-.53s-.84.13-1.16.38c-.32.25-.57.7-.75,1.36-.18.66-.27,2.03-.27,4.12v3.79Z"/>
    <path class="cls-12" d="M1366.85,782.14v-16.96h7.21c1.81,0,3.13.15,3.95.46s1.48.85,1.97,1.62c.49.78.74,1.67.74,2.67,0,1.27-.37,2.32-1.12,3.15s-1.87,1.35-3.36,1.57c.74.43,1.35.91,1.83,1.42.48.52,1.13,1.43,1.95,2.75l2.07,3.31h-4.1l-2.48-3.69c-.88-1.32-1.48-2.15-1.8-2.49-.32-.34-.67-.58-1.03-.71-.36-.13-.94-.19-1.72-.19h-.69v7.08h-3.42ZM1370.27,772.35h2.53c1.64,0,2.67-.07,3.08-.21s.73-.38.96-.72c.23-.34.35-.76.35-1.27,0-.57-.15-1.03-.46-1.38-.3-.35-.73-.57-1.29-.67-.28-.04-1.11-.06-2.5-.06h-2.67v4.3Z"/>
    <path class="cls-12" d="M1391.04,778.23l3.24.54c-.42,1.19-1.07,2.09-1.97,2.71-.9.62-2.02.93-3.37.93-2.14,0-3.72-.7-4.74-2.09-.81-1.12-1.21-2.53-1.21-4.23,0-2.04.53-3.63,1.6-4.78s2.41-1.73,4.04-1.73c1.83,0,3.27.6,4.33,1.81s1.56,3.06,1.52,5.55h-8.14c.02.96.29,1.71.79,2.25.5.54,1.13.8,1.87.8.51,0,.94-.14,1.28-.42.35-.28.61-.72.79-1.34ZM1391.22,774.94c-.02-.94-.27-1.66-.73-2.15-.46-.49-1.03-.73-1.69-.73-.71,0-1.3.26-1.76.77-.46.52-.69,1.22-.68,2.11h4.86Z"/>
    <path class="cls-12" d="M1395.95,778.63l3.26-.5c.14.63.42,1.11.84,1.44s1.02.49,1.78.49c.84,0,1.47-.15,1.9-.46.29-.22.43-.51.43-.87,0-.25-.08-.45-.23-.61-.16-.15-.52-.3-1.09-.43-2.62-.58-4.28-1.11-4.99-1.58-.97-.66-1.46-1.58-1.46-2.76,0-1.06.42-1.96,1.26-2.68.84-.72,2.14-1.09,3.91-1.09s2.93.27,3.75.82,1.38,1.36,1.69,2.43l-3.07.57c-.13-.48-.38-.84-.75-1.1-.37-.25-.89-.38-1.57-.38-.86,0-1.47.12-1.84.36-.25.17-.37.39-.37.66,0,.23.11.43.32.59.29.22,1.31.52,3.04.91s2.94.88,3.63,1.45c.68.58,1.02,1.38,1.02,2.42,0,1.13-.47,2.09-1.41,2.9-.94.81-2.33,1.21-4.18,1.21-1.67,0-3-.34-3.97-1.02s-1.61-1.6-1.91-2.76Z"/>
    <path class="cls-12" d="M1418.36,782.14v-1.84c-.45.66-1.04,1.17-1.76,1.55-.73.38-1.5.57-2.31.57s-1.57-.18-2.22-.54c-.66-.36-1.13-.87-1.42-1.53-.29-.66-.44-1.56-.44-2.72v-7.77h3.25v5.65c0,1.73.06,2.79.18,3.18.12.39.34.7.65.93s.72.34,1.2.34c.56,0,1.05-.15,1.49-.46.44-.3.74-.68.9-1.13.16-.45.24-1.56.24-3.31v-5.18h3.25v12.29h-3.02Z"/>
    <path class="cls-12" d="M1424.75,782.14v-16.96h3.25v16.96h-3.25Z"/>
    <path class="cls-12" d="M1436.96,769.85v2.59h-2.22v4.95c0,1,.02,1.59.06,1.75.04.17.14.3.29.41.15.11.33.16.55.16.3,0,.74-.1,1.31-.31l.28,2.52c-.76.32-1.61.49-2.57.49-.59,0-1.11-.1-1.58-.29-.47-.2-.82-.45-1.04-.76-.22-.31-.37-.73-.46-1.27-.07-.38-.1-1.14-.1-2.29v-5.36h-1.49v-2.59h1.49v-2.44l3.26-1.9v4.34h2.22Z"/>
    <path class="cls-12" d="M1439.22,765.18h3.42v9.19c0,1.46.04,2.4.13,2.83.15.69.5,1.25,1.05,1.67.55.42,1.31.63,2.26.63s1.71-.2,2.2-.6c.49-.4.79-.88.89-1.46.1-.58.15-1.54.15-2.88v-9.38h3.42v8.91c0,2.04-.09,3.47-.28,4.32-.19.84-.53,1.55-1.02,2.13-.5.58-1.16,1.04-2,1.38s-1.92.51-3.26.51c-1.62,0-2.85-.19-3.68-.56s-1.5-.86-1.98-1.46c-.49-.6-.81-1.22-.96-1.88-.22-.97-.34-2.41-.34-4.3v-9.05Z"/>
    <path class="cls-12" d="M1459.44,782.14h-3.25v-12.29h3.02v1.75c.52-.83.98-1.37,1.39-1.63.41-.26.88-.39,1.41-.39.74,0,1.45.2,2.14.61l-1.01,2.83c-.55-.35-1.06-.53-1.53-.53s-.84.13-1.16.38c-.32.25-.57.7-.75,1.36-.18.66-.27,2.03-.27,4.12v3.79Z"/>
    <path class="cls-12" d="M1465.55,782.14v-16.96h3.25v16.96h-3.25Z"/>
  </g>
  <rect class="cls-13" x="1066.26" y="294.32" width="262.78" height="65.69" rx="9.28" ry="9.28"/>
  <text class="cls-10" transform="translate(1094.95 332.62)"><tspan x="0" y="0">User submits data</tspan></text>
  <g>
    <path class="cls-12" d="M1449.69,321.85v-14.09h-5.03v-2.87h13.48v2.87h-5.02v14.09h-3.42Z"/>
    <path class="cls-12" d="M1462.13,321.85h-3.25v-12.29h3.02v1.75c.52-.83.98-1.37,1.39-1.63.41-.26.88-.39,1.41-.39.74,0,1.45.2,2.14.61l-1.01,2.83c-.55-.35-1.06-.53-1.53-.53s-.84.13-1.16.38c-.32.25-.57.7-.75,1.36-.18.66-.27,2.03-.27,4.12v3.79Z"/>
    <path class="cls-12" d="M1470.66,313.31l-2.95-.53c.33-1.19.9-2.07,1.71-2.64.81-.57,2.01-.86,3.61-.86,1.45,0,2.53.17,3.24.52.71.34,1.21.78,1.5,1.31s.43,1.5.43,2.91l-.03,3.79c0,1.08.05,1.88.16,2.39.1.51.3,1.06.58,1.65h-3.22c-.08-.22-.19-.54-.31-.96-.05-.19-.09-.32-.12-.38-.56.54-1.15.94-1.78,1.21-.63.27-1.31.41-2.02.41-1.27,0-2.26-.34-2.99-1.03-.73-.69-1.09-1.55-1.09-2.6,0-.69.17-1.31.5-1.86.33-.54.8-.96,1.39-1.25.6-.29,1.46-.54,2.58-.76,1.52-.29,2.57-.55,3.16-.8v-.32c0-.62-.15-1.07-.46-1.34-.31-.27-.89-.4-1.75-.4-.58,0-1.03.11-1.35.34-.32.23-.59.63-.79,1.2ZM1475.01,315.95c-.42.14-1.08.3-1.98.5-.9.19-1.49.38-1.77.57-.42.3-.64.68-.64,1.15s.17.85.51,1.18c.34.33.77.5,1.3.5.59,0,1.14-.19,1.68-.58.39-.29.65-.65.78-1.08.08-.28.13-.81.13-1.58v-.65Z"/>
    <path class="cls-12" d="M1492.59,321.85h-3.25v-6.27c0-1.33-.07-2.18-.21-2.57s-.36-.69-.68-.91-.69-.32-1.13-.32c-.56,0-1.07.15-1.52.46-.45.31-.75.72-.92,1.23-.17.51-.25,1.45-.25,2.82v5.56h-3.25v-12.29h3.02v1.8c1.07-1.39,2.42-2.08,4.05-2.08.72,0,1.37.13,1.97.39.59.26,1.04.59,1.35.99s.52.86.64,1.37c.12.51.18,1.24.18,2.19v7.64Z"/>
    <path class="cls-12" d="M1494.74,318.35l3.26-.5c.14.63.42,1.11.84,1.44.42.33,1.02.49,1.78.49.84,0,1.47-.15,1.9-.46.29-.22.43-.5.43-.87,0-.25-.08-.45-.23-.61-.16-.15-.52-.3-1.09-.43-2.62-.58-4.28-1.11-4.99-1.58-.97-.66-1.46-1.58-1.46-2.77,0-1.06.42-1.96,1.26-2.68s2.14-1.09,3.91-1.09,2.93.27,3.75.82c.82.55,1.38,1.36,1.69,2.43l-3.07.57c-.13-.48-.38-.84-.75-1.1-.37-.25-.89-.38-1.57-.38-.86,0-1.47.12-1.84.36-.25.17-.37.39-.37.66,0,.23.11.43.32.59.29.22,1.31.52,3.04.91,1.73.39,2.94.88,3.63,1.45.68.58,1.02,1.38,1.02,2.42,0,1.13-.47,2.09-1.41,2.9-.94.81-2.33,1.21-4.18,1.21-1.67,0-3-.34-3.97-1.02s-1.61-1.6-1.91-2.77Z"/>
    <path class="cls-12" d="M1511.49,313.31l-2.95-.53c.33-1.19.9-2.07,1.71-2.64.81-.57,2.01-.86,3.61-.86,1.45,0,2.53.17,3.24.52.71.34,1.21.78,1.5,1.31s.43,1.5.43,2.91l-.03,3.79c0,1.08.05,1.88.16,2.39.1.51.3,1.06.58,1.65h-3.22c-.08-.22-.19-.54-.31-.96-.05-.19-.09-.32-.12-.38-.56.54-1.15.94-1.78,1.21-.63.27-1.31.41-2.02.41-1.27,0-2.26-.34-2.99-1.03-.73-.69-1.09-1.55-1.09-2.6,0-.69.17-1.31.5-1.86.33-.54.8-.96,1.39-1.25.6-.29,1.46-.54,2.58-.76,1.52-.29,2.57-.55,3.16-.8v-.32c0-.62-.15-1.07-.46-1.34-.31-.27-.89-.4-1.75-.4-.58,0-1.03.11-1.35.34-.32.23-.59.63-.79,1.2ZM1515.84,315.95c-.42.14-1.08.3-1.98.5-.9.19-1.49.38-1.77.57-.42.3-.64.68-.64,1.15s.17.85.51,1.18c.34.33.77.5,1.3.5.59,0,1.14-.19,1.68-.58.39-.29.65-.65.78-1.08.08-.28.13-.81.13-1.58v-.65Z"/>
    <path class="cls-12" d="M1532.95,313.2l-3.2.58c-.11-.64-.35-1.12-.73-1.45-.38-.32-.88-.49-1.49-.49-.81,0-1.46.28-1.94.84-.48.56-.72,1.49-.72,2.81,0,1.46.24,2.49.73,3.09.49.6,1.15.9,1.97.9.62,0,1.12-.18,1.52-.53.39-.35.67-.95.83-1.81l3.19.54c-.33,1.47-.97,2.57-1.91,3.32-.94.75-2.2,1.12-3.78,1.12-1.8,0-3.23-.57-4.3-1.7-1.07-1.13-1.6-2.7-1.6-4.71s.54-3.61,1.61-4.74c1.07-1.13,2.52-1.7,4.35-1.7,1.5,0,2.69.32,3.57.97.88.64,1.52,1.63,1.9,2.94Z"/>
    <path class="cls-12" d="M1541.05,309.56v2.59h-2.22v4.95c0,1,.02,1.59.06,1.75.04.17.14.3.29.41.15.11.33.16.55.16.3,0,.74-.1,1.31-.31l.28,2.52c-.76.32-1.61.49-2.57.49-.59,0-1.11-.1-1.58-.3-.47-.2-.82-.45-1.04-.76-.22-.31-.37-.73-.46-1.27-.07-.38-.1-1.14-.1-2.29v-5.36h-1.49v-2.59h1.49v-2.44l3.26-1.9v4.34h2.22Z"/>
    <path class="cls-12" d="M1543.3,307.9v-3.01h3.25v3.01h-3.25ZM1543.3,321.85v-12.29h3.25v12.29h-3.25Z"/>
    <path class="cls-12" d="M1549.13,315.53c0-1.08.27-2.12.8-3.14s1.29-1.78,2.26-2.31,2.06-.8,3.27-.8c1.86,0,3.38.6,4.57,1.81,1.19,1.21,1.78,2.73,1.78,4.58s-.6,3.4-1.8,4.62c-1.2,1.22-2.71,1.83-4.53,1.83-1.13,0-2.2-.25-3.22-.76-1.02-.51-1.8-1.26-2.33-2.24s-.8-2.18-.8-3.59ZM1552.47,315.71c0,1.22.29,2.15.87,2.8.58.65,1.29.97,2.14.97s1.56-.32,2.13-.97.86-1.59.86-2.82-.29-2.13-.86-2.78c-.57-.65-1.29-.97-2.13-.97s-1.56.32-2.14.97c-.58.65-.87,1.58-.87,2.8Z"/>
    <path class="cls-12" d="M1575.54,321.85h-3.25v-6.27c0-1.33-.07-2.18-.21-2.57s-.36-.69-.68-.91-.69-.32-1.13-.32c-.56,0-1.07.15-1.52.46-.45.31-.75.72-.92,1.23-.17.51-.25,1.45-.25,2.82v5.56h-3.25v-12.29h3.02v1.8c1.07-1.39,2.42-2.08,4.05-2.08.72,0,1.37.13,1.97.39.59.26,1.04.59,1.35.99s.52.86.64,1.37c.12.51.18,1.24.18,2.19v7.64Z"/>
    <path class="cls-12" d="M1584.57,316.33l3.33-.32c.2,1.12.61,1.94,1.22,2.46s1.44.79,2.48.79c1.1,0,1.93-.23,2.49-.7.56-.47.84-1.01.84-1.64,0-.4-.12-.74-.35-1.02-.24-.28-.65-.53-1.23-.73-.4-.14-1.32-.39-2.74-.74-1.83-.46-3.12-1.01-3.86-1.68-1.04-.93-1.56-2.07-1.56-3.41,0-.86.24-1.67.73-2.42.49-.75,1.2-1.32,2.12-1.72.92-.39,2.03-.59,3.34-.59,2.13,0,3.73.47,4.81,1.4,1.08.93,1.64,2.18,1.69,3.74l-3.42.15c-.15-.87-.46-1.5-.94-1.88-.48-.38-1.21-.57-2.17-.57s-1.77.2-2.34.61c-.36.26-.54.61-.54,1.05,0,.4.17.74.51,1.03.43.36,1.48.74,3.15,1.13,1.67.39,2.9.8,3.7,1.22.8.42,1.42.99,1.88,1.72.45.73.68,1.63.68,2.7,0,.97-.27,1.88-.81,2.73-.54.85-1.3,1.48-2.29,1.89-.99.41-2.22.62-3.69.62-2.14,0-3.79-.5-4.94-1.49-1.15-.99-1.83-2.44-2.06-4.33Z"/>
    <path class="cls-12" d="M1606.85,309.56v2.59h-2.22v4.95c0,1,.02,1.59.06,1.75.04.17.14.3.29.41.15.11.33.16.55.16.3,0,.74-.1,1.31-.31l.28,2.52c-.76.32-1.61.49-2.57.49-.59,0-1.11-.1-1.58-.3-.47-.2-.82-.45-1.04-.76-.22-.31-.37-.73-.46-1.27-.07-.38-.1-1.14-.1-2.29v-5.36h-1.49v-2.59h1.49v-2.44l3.26-1.9v4.34h2.22Z"/>
    <path class="cls-12" d="M1611.54,313.31l-2.95-.53c.33-1.19.9-2.07,1.71-2.64.81-.57,2.01-.86,3.61-.86,1.45,0,2.53.17,3.24.52.71.34,1.21.78,1.5,1.31s.43,1.5.43,2.91l-.03,3.79c0,1.08.05,1.88.16,2.39.1.51.3,1.06.58,1.65h-3.22c-.08-.22-.19-.54-.31-.96-.05-.19-.09-.32-.12-.38-.56.54-1.15.94-1.78,1.21-.63.27-1.31.41-2.02.41-1.27,0-2.26-.34-2.99-1.03-.73-.69-1.09-1.55-1.09-2.6,0-.69.17-1.31.5-1.86.33-.54.8-.96,1.39-1.25.6-.29,1.46-.54,2.58-.76,1.52-.29,2.57-.55,3.16-.8v-.32c0-.62-.15-1.07-.46-1.34-.31-.27-.89-.4-1.75-.4-.58,0-1.03.11-1.35.34-.32.23-.59.63-.79,1.2ZM1615.89,315.95c-.42.14-1.08.3-1.98.5-.9.19-1.49.38-1.77.57-.42.3-.64.68-.64,1.15s.17.85.51,1.18c.34.33.77.5,1.3.5.59,0,1.14-.19,1.68-.58.39-.29.65-.65.78-1.08.08-.28.13-.81.13-1.58v-.65Z"/>
    <path class="cls-12" d="M1627.92,309.56v2.59h-2.22v4.95c0,1,.02,1.59.06,1.75.04.17.14.3.29.41.15.11.33.16.55.16.3,0,.74-.1,1.31-.31l.28,2.52c-.76.32-1.61.49-2.57.49-.59,0-1.11-.1-1.58-.3-.47-.2-.82-.45-1.04-.76-.22-.31-.37-.73-.46-1.27-.07-.38-.1-1.14-.1-2.29v-5.36h-1.49v-2.59h1.49v-2.44l3.26-1.9v4.34h2.22Z"/>
    <path class="cls-12" d="M1638.26,321.85v-1.84c-.45.66-1.04,1.17-1.76,1.55-.73.38-1.5.57-2.31.57s-1.57-.18-2.22-.54c-.66-.36-1.13-.87-1.42-1.53-.29-.66-.44-1.56-.44-2.72v-7.77h3.25v5.65c0,1.73.06,2.79.18,3.18.12.39.34.7.65.93.32.23.72.34,1.2.34.56,0,1.05-.15,1.49-.46.44-.3.74-.68.9-1.13.16-.45.24-1.56.24-3.31v-5.18h3.25v12.29h-3.02Z"/>
    <path class="cls-12" d="M1643.5,318.35l3.26-.5c.14.63.42,1.11.84,1.44.42.33,1.02.49,1.78.49.84,0,1.47-.15,1.9-.46.29-.22.43-.5.43-.87,0-.25-.08-.45-.23-.61-.16-.15-.52-.3-1.09-.43-2.62-.58-4.28-1.11-4.99-1.58-.97-.66-1.46-1.58-1.46-2.77,0-1.06.42-1.96,1.26-2.68s2.14-1.09,3.91-1.09,2.93.27,3.75.82c.82.55,1.38,1.36,1.69,2.43l-3.07.57c-.13-.48-.38-.84-.75-1.1-.37-.25-.89-.38-1.57-.38-.86,0-1.47.12-1.84.36-.25.17-.37.39-.37.66,0,.23.11.43.32.59.29.22,1.31.52,3.04.91,1.73.39,2.94.88,3.63,1.45.68.58,1.02,1.38,1.02,2.42,0,1.13-.47,2.09-1.41,2.9-.94.81-2.33,1.21-4.18,1.21-1.67,0-3-.34-3.97-1.02s-1.61-1.6-1.91-2.77Z"/>
    <path class="cls-12" d="M1505.13,350.28v-16.96h7.21c1.81,0,3.13.15,3.95.46s1.48.85,1.97,1.63c.49.78.74,1.67.74,2.67,0,1.27-.37,2.32-1.12,3.15-.75.83-1.87,1.35-3.36,1.57.74.43,1.35.91,1.83,1.42.48.52,1.13,1.43,1.95,2.75l2.07,3.31h-4.1l-2.48-3.69c-.88-1.32-1.48-2.15-1.8-2.49-.32-.34-.67-.58-1.03-.71-.36-.13-.94-.19-1.72-.19h-.69v7.08h-3.42ZM1508.56,340.5h2.53c1.64,0,2.67-.07,3.08-.21.41-.14.73-.38.96-.72.23-.34.35-.76.35-1.27,0-.57-.15-1.03-.46-1.38s-.73-.57-1.29-.67c-.28-.04-1.11-.06-2.5-.06h-2.67v4.3Z"/>
    <path class="cls-12" d="M1529.32,346.37l3.24.54c-.42,1.19-1.07,2.09-1.97,2.71-.9.62-2.02.93-3.37.93-2.14,0-3.72-.7-4.74-2.09-.81-1.12-1.21-2.53-1.21-4.23,0-2.04.53-3.63,1.6-4.78,1.06-1.15,2.41-1.73,4.04-1.73,1.83,0,3.27.6,4.33,1.81,1.06,1.21,1.56,3.06,1.52,5.55h-8.14c.02.96.29,1.71.79,2.25.5.54,1.13.8,1.87.8.51,0,.94-.14,1.28-.42.35-.28.61-.72.79-1.34ZM1529.51,343.09c-.02-.94-.27-1.66-.73-2.15s-1.03-.73-1.69-.73c-.71,0-1.3.26-1.76.78s-.69,1.22-.68,2.11h4.86Z"/>
    <path class="cls-12" d="M1543.41,354.96v-6.18c-.42.55-.95.98-1.58,1.3-.63.32-1.32.48-2.05.48-1.4,0-2.54-.52-3.45-1.57-1.06-1.23-1.6-2.89-1.6-4.99,0-1.97.5-3.52,1.5-4.62,1-1.11,2.24-1.66,3.72-1.66.82,0,1.52.17,2.12.52.6.35,1.13.87,1.59,1.57v-1.82h3v16.96h-3.25ZM1543.52,343.99c0-1.26-.26-2.19-.77-2.81-.51-.61-1.16-.92-1.93-.92s-1.44.31-1.97.94-.79,1.62-.79,2.97.25,2.32.76,2.92,1.14.9,1.89.9,1.4-.34,1.97-1.01c.56-.67.84-1.67.84-3Z"/>
    <path class="cls-12" d="M1557.94,350.28v-1.84c-.45.66-1.04,1.17-1.76,1.55-.73.38-1.5.57-2.31.57s-1.57-.18-2.22-.54c-.66-.36-1.13-.87-1.42-1.53-.29-.66-.44-1.56-.44-2.72v-7.77h3.25v5.65c0,1.73.06,2.79.18,3.18.12.39.34.7.65.93.32.23.72.34,1.2.34.56,0,1.05-.15,1.49-.46.44-.3.74-.68.9-1.13.16-.45.24-1.56.24-3.31v-5.18h3.25v12.29h-3.02Z"/>
    <path class="cls-12" d="M1571.45,346.37l3.24.54c-.42,1.19-1.07,2.09-1.97,2.71-.9.62-2.02.93-3.37.93-2.14,0-3.72-.7-4.74-2.09-.81-1.12-1.21-2.53-1.21-4.23,0-2.04.53-3.63,1.6-4.78,1.06-1.15,2.41-1.73,4.04-1.73,1.83,0,3.27.6,4.33,1.81,1.06,1.21,1.56,3.06,1.52,5.55h-8.14c.02.96.29,1.71.79,2.25.5.54,1.13.8,1.87.8.51,0,.94-.14,1.28-.42.35-.28.61-.72.79-1.34ZM1571.63,343.09c-.02-.94-.27-1.66-.73-2.15s-1.03-.73-1.69-.73c-.71,0-1.3.26-1.76.78s-.69,1.22-.68,2.11h4.86Z"/>
    <path class="cls-12" d="M1576.36,346.78l3.26-.5c.14.63.42,1.11.84,1.44.42.33,1.02.49,1.78.49.84,0,1.47-.15,1.9-.46.29-.22.43-.5.43-.87,0-.25-.08-.45-.23-.61-.16-.15-.52-.3-1.09-.43-2.62-.58-4.28-1.11-4.99-1.58-.97-.66-1.46-1.58-1.46-2.77,0-1.06.42-1.96,1.26-2.68s2.14-1.09,3.91-1.09,2.93.27,3.75.82c.82.55,1.38,1.36,1.69,2.43l-3.07.57c-.13-.48-.38-.84-.75-1.1-.37-.25-.89-.38-1.57-.38-.86,0-1.47.12-1.84.36-.25.17-.37.39-.37.66,0,.23.11.43.32.59.29.22,1.31.52,3.04.91,1.73.39,2.94.88,3.63,1.45.68.58,1.02,1.38,1.02,2.42,0,1.13-.47,2.09-1.41,2.9-.94.81-2.33,1.21-4.18,1.21-1.67,0-3-.34-3.97-1.02s-1.61-1.6-1.91-2.77Z"/>
    <path class="cls-12" d="M1596.32,338v2.59h-2.22v4.95c0,1,.02,1.59.06,1.75.04.17.14.3.29.41.15.11.33.16.55.16.3,0,.74-.1,1.31-.31l.28,2.52c-.76.32-1.61.49-2.57.49-.59,0-1.11-.1-1.58-.3-.47-.2-.82-.45-1.04-.76-.22-.31-.37-.73-.46-1.27-.07-.38-.1-1.14-.1-2.29v-5.36h-1.49v-2.59h1.49v-2.44l3.26-1.9v4.34h2.22Z"/>
  </g>
  <rect class="cls-13" x="883.18" y="713.97" width="262.78" height="120.98" rx="9.28" ry="9.28"/>
  <g>
    <path class="cls-12" d="M905.71,753.71v-16.96h5.5c2.08,0,3.44.08,4.07.25.97.25,1.79.81,2.44,1.66.66.85.98,1.95.98,3.3,0,1.04-.19,1.92-.57,2.63s-.86,1.27-1.44,1.67c-.58.4-1.17.67-1.78.8-.82.16-2,.24-3.55.24h-2.23v6.4h-3.42ZM909.13,739.62v4.81h1.87c1.35,0,2.25-.09,2.71-.27.46-.18.81-.46,1.07-.83.26-.38.39-.82.39-1.32,0-.62-.18-1.13-.54-1.53-.36-.4-.82-.65-1.38-.75-.41-.08-1.23-.12-2.46-.12h-1.65Z"/>
    <path class="cls-12" d="M923.92,745.17l-2.95-.53c.33-1.19.9-2.07,1.71-2.64.81-.57,2.01-.86,3.61-.86,1.45,0,2.53.17,3.24.51.71.34,1.21.78,1.5,1.31s.43,1.5.43,2.91l-.03,3.79c0,1.08.05,1.88.16,2.39.1.51.3,1.06.58,1.65h-3.22c-.08-.22-.19-.54-.31-.96-.05-.19-.09-.32-.12-.38-.56.54-1.15.94-1.78,1.21-.63.27-1.31.4-2.02.4-1.27,0-2.26-.34-2.99-1.03-.73-.69-1.09-1.55-1.09-2.6,0-.69.17-1.31.5-1.86.33-.54.8-.96,1.39-1.25s1.46-.54,2.58-.76c1.52-.29,2.57-.55,3.16-.8v-.32c0-.62-.15-1.07-.46-1.34-.31-.27-.89-.4-1.75-.4-.58,0-1.03.11-1.35.34-.32.23-.59.63-.79,1.2ZM928.27,747.81c-.42.14-1.08.3-1.98.5-.9.19-1.49.38-1.77.57-.42.3-.64.68-.64,1.15s.17.85.51,1.18c.34.33.77.5,1.3.5.59,0,1.14-.19,1.68-.58.39-.29.65-.65.78-1.08.08-.28.13-.81.13-1.58v-.65Z"/>
    <path class="cls-12" d="M933.12,741.42h3.46l2.94,8.72,2.87-8.72h3.37l-4.34,11.82-.78,2.14c-.29.72-.56,1.26-.82,1.64-.26.38-.56.68-.89.92-.34.24-.75.42-1.24.55-.49.13-1.04.2-1.66.2s-1.24-.07-1.84-.2l-.29-2.54c.51.1.97.15,1.38.15.76,0,1.32-.22,1.68-.67s.64-1.01.83-1.69l-4.67-12.32Z"/>
    <path class="cls-12" d="M947.6,741.42h3v1.68c1.07-1.3,2.35-1.96,3.83-1.96.79,0,1.47.16,2.05.49.58.32,1.05.81,1.42,1.47.54-.66,1.12-1.15,1.75-1.47.62-.32,1.29-.49,2-.49.9,0,1.67.18,2.29.55.62.37,1.09.91,1.4,1.61.22.52.34,1.37.34,2.54v7.86h-3.25v-7.02c0-1.22-.11-2-.34-2.36-.3-.46-.76-.69-1.39-.69-.46,0-.88.14-1.28.42-.4.28-.69.68-.87,1.22-.18.54-.27,1.38-.27,2.54v5.9h-3.25v-6.73c0-1.2-.06-1.97-.17-2.31-.12-.35-.29-.61-.54-.78-.24-.17-.57-.25-.99-.25-.5,0-.95.13-1.35.4-.4.27-.69.66-.86,1.17s-.26,1.35-.26,2.53v5.97h-3.25v-12.29Z"/>
    <path class="cls-12" d="M976.02,749.8l3.24.54c-.42,1.19-1.07,2.09-1.97,2.71-.9.62-2.02.93-3.37.93-2.14,0-3.72-.7-4.74-2.09-.81-1.12-1.21-2.53-1.21-4.23,0-2.04.53-3.63,1.6-4.78s2.41-1.73,4.04-1.73c1.83,0,3.27.6,4.33,1.81s1.56,3.06,1.52,5.55h-8.14c.02.96.29,1.71.79,2.25.5.54,1.13.8,1.87.8.51,0,.94-.14,1.28-.42.35-.28.61-.72.79-1.34ZM976.21,746.51c-.02-.94-.27-1.66-.73-2.15-.46-.49-1.03-.73-1.69-.73-.71,0-1.3.26-1.76.77-.46.52-.69,1.22-.68,2.11h4.86Z"/>
    <path class="cls-12" d="M993.26,753.71h-3.25v-6.27c0-1.33-.07-2.18-.21-2.57-.14-.39-.36-.69-.68-.91-.31-.22-.69-.32-1.13-.32-.56,0-1.07.15-1.52.46s-.75.72-.92,1.23c-.17.51-.25,1.45-.25,2.82v5.56h-3.25v-12.29h3.02v1.8c1.07-1.39,2.42-2.08,4.05-2.08.72,0,1.37.13,1.97.39.59.26,1.04.59,1.35.99.3.4.52.86.64,1.37.12.51.18,1.24.18,2.19v7.64Z"/>
    <path class="cls-12" d="M1002.19,741.42v2.59h-2.22v4.95c0,1,.02,1.59.06,1.75.04.17.14.3.29.41.15.11.33.16.55.16.3,0,.74-.1,1.31-.31l.28,2.52c-.76.32-1.61.49-2.57.49-.59,0-1.11-.1-1.58-.29-.47-.2-.82-.45-1.04-.76-.22-.31-.37-.73-.46-1.27-.07-.38-.1-1.14-.1-2.29v-5.36h-1.49v-2.59h1.49v-2.44l3.26-1.9v4.34h2.22Z"/>
    <path class="cls-12" d="M1010.79,741.42h3v1.68c1.07-1.3,2.35-1.96,3.83-1.96.79,0,1.47.16,2.05.49.58.32,1.05.81,1.42,1.47.54-.66,1.12-1.15,1.75-1.47.62-.32,1.29-.49,2-.49.9,0,1.67.18,2.29.55.62.37,1.09.91,1.4,1.61.22.52.34,1.37.34,2.54v7.86h-3.25v-7.02c0-1.22-.11-2-.34-2.36-.3-.46-.76-.69-1.39-.69-.46,0-.88.14-1.28.42-.4.28-.69.68-.87,1.22-.18.54-.27,1.38-.27,2.54v5.9h-3.25v-6.73c0-1.2-.06-1.97-.17-2.31-.12-.35-.29-.61-.54-.78-.24-.17-.57-.25-.99-.25-.5,0-.95.13-1.35.4-.4.27-.69.66-.86,1.17s-.26,1.35-.26,2.53v5.97h-3.25v-12.29Z"/>
    <path class="cls-12" d="M1039.21,749.8l3.24.54c-.42,1.19-1.07,2.09-1.97,2.71-.9.62-2.02.93-3.37.93-2.14,0-3.72-.7-4.74-2.09-.81-1.12-1.21-2.53-1.21-4.23,0-2.04.53-3.63,1.6-4.78s2.41-1.73,4.04-1.73c1.83,0,3.27.6,4.33,1.81s1.56,3.06,1.52,5.55h-8.14c.02.96.29,1.71.79,2.25.5.54,1.13.8,1.87.8.51,0,.94-.14,1.28-.42.35-.28.61-.72.79-1.34ZM1039.4,746.51c-.02-.94-.27-1.66-.73-2.15-.46-.49-1.03-.73-1.69-.73-.71,0-1.3.26-1.76.77-.46.52-.69,1.22-.68,2.11h4.86Z"/>
    <path class="cls-12" d="M1050.91,741.42v2.59h-2.22v4.95c0,1,.02,1.59.06,1.75.04.17.14.3.29.41.15.11.33.16.55.16.3,0,.74-.1,1.31-.31l.28,2.52c-.76.32-1.61.49-2.57.49-.59,0-1.11-.1-1.58-.29-.47-.2-.82-.45-1.04-.76-.22-.31-.37-.73-.46-1.27-.07-.38-.1-1.14-.1-2.29v-5.36h-1.49v-2.59h1.49v-2.44l3.26-1.9v4.34h2.22Z"/>
    <path class="cls-12" d="M1056.4,736.75v6.24c1.05-1.23,2.3-1.84,3.76-1.84.75,0,1.42.14,2.02.42.6.28,1.05.63,1.36,1.06s.51.91.62,1.43c.11.52.17,1.34.17,2.44v7.21h-3.25v-6.49c0-1.29-.06-2.11-.18-2.45-.12-.35-.34-.62-.65-.83-.31-.21-.7-.31-1.17-.31-.54,0-1.02.13-1.45.39-.42.26-.73.66-.93,1.19-.2.53-.3,1.31-.3,2.34v6.15h-3.25v-16.96h3.25Z"/>
    <path class="cls-12" d="M1066.88,747.39c0-1.08.27-2.12.8-3.14.53-1.01,1.29-1.78,2.26-2.31s2.06-.8,3.27-.8c1.86,0,3.38.6,4.57,1.81,1.19,1.21,1.78,2.73,1.78,4.58s-.6,3.4-1.8,4.62c-1.2,1.22-2.71,1.83-4.53,1.83-1.13,0-2.2-.25-3.22-.76-1.02-.51-1.8-1.25-2.33-2.24s-.8-2.18-.8-3.59ZM1070.21,747.57c0,1.22.29,2.15.87,2.8.58.65,1.29.97,2.14.97s1.56-.32,2.13-.97c.57-.65.86-1.59.86-2.82s-.29-2.13-.86-2.78c-.57-.65-1.29-.97-2.13-.97s-1.56.32-2.14.97c-.58.65-.87,1.58-.87,2.8Z"/>
    <path class="cls-12" d="M1093.38,753.71h-3.02v-1.8c-.5.7-1.09,1.22-1.78,1.57-.68.34-1.37.51-2.07.51-1.41,0-2.62-.57-3.63-1.71s-1.51-2.72-1.51-4.76.49-3.67,1.47-4.75c.98-1.08,2.22-1.62,3.71-1.62,1.37,0,2.56.57,3.56,1.71v-6.11h3.25v16.96ZM1084.7,747.3c0,1.31.18,2.26.54,2.85.52.85,1.26,1.27,2.2,1.27.75,0,1.38-.32,1.91-.95.52-.64.79-1.59.79-2.85,0-1.41-.25-2.43-.76-3.05-.51-.62-1.16-.93-1.96-.93s-1.42.31-1.94.92c-.52.61-.78,1.53-.78,2.75Z"/>
    <path class="cls-12" d="M1103.16,736.75h3.42v9.19c0,1.46.04,2.4.13,2.83.15.69.5,1.25,1.05,1.67.55.42,1.31.63,2.26.63s1.71-.2,2.2-.6c.49-.4.79-.88.89-1.46.1-.58.15-1.54.15-2.88v-9.38h3.42v8.91c0,2.04-.09,3.47-.28,4.32-.19.84-.53,1.55-1.02,2.13-.5.58-1.16,1.04-2,1.38s-1.92.51-3.26.51c-1.62,0-2.85-.19-3.68-.56s-1.5-.86-1.98-1.46c-.49-.6-.81-1.22-.96-1.88-.22-.97-.34-2.41-.34-4.3v-9.05Z"/>
    <path class="cls-12" d="M1120.19,753.71v-16.96h3.42v16.96h-3.42Z"/>
    <path class="cls-12" d="M919.57,782.14h-3.02v-1.8c-.5.7-1.09,1.22-1.78,1.57-.68.34-1.37.51-2.07.51-1.41,0-2.62-.57-3.63-1.71s-1.51-2.72-1.51-4.76.49-3.67,1.47-4.75c.98-1.08,2.22-1.62,3.71-1.62,1.37,0,2.56.57,3.56,1.71v-6.11h3.25v16.96ZM910.9,775.73c0,1.31.18,2.26.54,2.85.52.85,1.26,1.27,2.2,1.27.75,0,1.38-.32,1.91-.95.52-.64.79-1.59.79-2.85,0-1.41-.25-2.43-.76-3.05-.51-.62-1.16-.93-1.96-.93s-1.42.31-1.94.92c-.52.61-.78,1.53-.78,2.75Z"/>
    <path class="cls-12" d="M922.78,768.19v-3.01h3.25v3.01h-3.25ZM922.78,782.14v-12.29h3.25v12.29h-3.25Z"/>
    <path class="cls-12" d="M928.21,778.63l3.26-.5c.14.63.42,1.11.84,1.44s1.02.49,1.78.49c.84,0,1.47-.15,1.9-.46.29-.22.43-.51.43-.87,0-.25-.08-.45-.23-.61-.16-.15-.52-.3-1.09-.43-2.62-.58-4.28-1.11-4.99-1.58-.97-.66-1.46-1.58-1.46-2.76,0-1.06.42-1.96,1.26-2.68.84-.72,2.14-1.09,3.91-1.09s2.93.27,3.75.82,1.38,1.36,1.69,2.43l-3.07.57c-.13-.48-.38-.84-.75-1.1-.37-.25-.89-.38-1.57-.38-.86,0-1.47.12-1.84.36-.25.17-.37.39-.37.66,0,.23.11.43.32.59.29.22,1.31.52,3.04.91s2.94.88,3.63,1.45c.68.58,1.02,1.38,1.02,2.42,0,1.13-.47,2.09-1.41,2.9-.94.81-2.33,1.21-4.18,1.21-1.67,0-3-.34-3.97-1.02s-1.61-1.6-1.91-2.76Z"/>
    <path class="cls-12" d="M942.44,769.85h3.03v1.8c.39-.62.93-1.12,1.6-1.5s1.42-.58,2.23-.58c1.43,0,2.64.56,3.63,1.68,1,1.12,1.49,2.68,1.49,4.67s-.5,3.65-1.5,4.78c-1,1.14-2.22,1.71-3.64,1.71-.68,0-1.29-.13-1.85-.4-.55-.27-1.13-.73-1.74-1.39v6.19h-3.25v-16.96ZM945.66,775.79c0,1.38.27,2.4.82,3.06.55.66,1.21.99,2,.99s1.38-.3,1.88-.91c.5-.61.75-1.6.75-2.98,0-1.29-.26-2.24-.78-2.87-.52-.62-1.16-.94-1.92-.94s-1.45.31-1.98.92c-.53.61-.79,1.52-.79,2.72Z"/>
    <path class="cls-12" d="M957.01,782.14v-16.96h3.25v16.96h-3.25Z"/>
    <path class="cls-12" d="M966.02,773.6l-2.95-.53c.33-1.19.9-2.07,1.71-2.64.81-.57,2.01-.86,3.61-.86,1.45,0,2.53.17,3.24.51.71.34,1.21.78,1.5,1.31s.43,1.5.43,2.91l-.03,3.79c0,1.08.05,1.88.16,2.39.1.51.3,1.06.58,1.65h-3.22c-.08-.22-.19-.54-.31-.96-.05-.19-.09-.32-.12-.38-.56.54-1.15.94-1.78,1.21-.63.27-1.31.4-2.02.4-1.27,0-2.26-.34-2.99-1.03-.73-.69-1.09-1.55-1.09-2.6,0-.69.17-1.31.5-1.86.33-.54.8-.96,1.39-1.25s1.46-.54,2.58-.76c1.52-.29,2.57-.55,3.16-.8v-.32c0-.62-.15-1.07-.46-1.34-.31-.27-.89-.4-1.75-.4-.58,0-1.03.11-1.35.34-.32.23-.59.63-.79,1.2ZM970.37,776.24c-.42.14-1.08.3-1.98.5-.9.19-1.49.38-1.77.57-.42.3-.64.68-.64,1.15s.17.85.51,1.18c.34.33.77.5,1.3.5.59,0,1.14-.19,1.68-.58.39-.29.65-.65.78-1.08.08-.28.13-.81.13-1.58v-.65Z"/>
    <path class="cls-12" d="M975.23,769.85h3.46l2.94,8.72,2.87-8.72h3.37l-4.34,11.82-.78,2.14c-.29.72-.56,1.26-.82,1.64-.26.38-.56.68-.89.92-.34.24-.75.42-1.24.55-.49.13-1.04.2-1.66.2s-1.24-.07-1.84-.2l-.29-2.54c.51.1.97.15,1.38.15.76,0,1.32-.22,1.68-.67s.64-1.01.83-1.69l-4.67-12.32Z"/>
    <path class="cls-12" d="M988.8,778.63l3.26-.5c.14.63.42,1.11.84,1.44s1.02.49,1.78.49c.84,0,1.47-.15,1.9-.46.29-.22.43-.51.43-.87,0-.25-.08-.45-.23-.61-.16-.15-.52-.3-1.09-.43-2.62-.58-4.28-1.11-4.99-1.58-.97-.66-1.46-1.58-1.46-2.76,0-1.06.42-1.96,1.26-2.68.84-.72,2.14-1.09,3.91-1.09s2.93.27,3.75.82,1.38,1.36,1.69,2.43l-3.07.57c-.13-.48-.38-.84-.75-1.1-.37-.25-.89-.38-1.57-.38-.86,0-1.47.12-1.84.36-.25.17-.37.39-.37.66,0,.23.11.43.32.59.29.22,1.31.52,3.04.91s2.94.88,3.63,1.45c.68.58,1.02,1.38,1.02,2.42,0,1.13-.47,2.09-1.41,2.9-.94.81-2.33,1.21-4.18,1.21-1.67,0-3-.34-3.97-1.02s-1.61-1.6-1.91-2.76Z"/>
    <path class="cls-12" d="M1015.34,769.85v2.59h-2.22v4.95c0,1,.02,1.59.06,1.75.04.17.14.3.29.41.15.11.33.16.55.16.3,0,.74-.1,1.31-.31l.28,2.52c-.76.32-1.61.49-2.57.49-.59,0-1.11-.1-1.58-.29-.47-.2-.82-.45-1.04-.76-.22-.31-.37-.73-.46-1.27-.07-.38-.1-1.14-.1-2.29v-5.36h-1.49v-2.59h1.49v-2.44l3.26-1.9v4.34h2.22Z"/>
    <path class="cls-12" d="M1016.84,775.82c0-1.08.27-2.12.8-3.14.53-1.01,1.29-1.78,2.26-2.31s2.06-.8,3.27-.8c1.86,0,3.38.6,4.57,1.81,1.19,1.21,1.78,2.73,1.78,4.58s-.6,3.4-1.8,4.62c-1.2,1.22-2.71,1.83-4.53,1.83-1.13,0-2.2-.25-3.22-.76-1.02-.51-1.8-1.25-2.33-2.24s-.8-2.18-.8-3.59ZM1020.17,776c0,1.22.29,2.15.87,2.8.58.65,1.29.97,2.14.97s1.56-.32,2.13-.97c.57-.65.86-1.59.86-2.82s-.29-2.13-.86-2.78c-.57-.65-1.29-.97-2.13-.97s-1.56.32-2.14.97c-.58.65-.87,1.58-.87,2.8Z"/>
    <path class="cls-12" d="M1049.36,773.49l-3.2.58c-.11-.64-.35-1.12-.73-1.45-.38-.32-.88-.49-1.49-.49-.81,0-1.46.28-1.94.84-.48.56-.72,1.49-.72,2.8,0,1.46.24,2.49.73,3.09.49.6,1.15.9,1.97.9.62,0,1.12-.17,1.52-.53.39-.35.67-.95.83-1.81l3.19.54c-.33,1.47-.97,2.57-1.91,3.32-.94.75-2.2,1.12-3.78,1.12-1.8,0-3.23-.57-4.3-1.7-1.07-1.13-1.6-2.7-1.6-4.71s.54-3.61,1.61-4.74c1.07-1.13,2.52-1.69,4.35-1.69,1.5,0,2.69.32,3.57.97.88.64,1.52,1.62,1.9,2.94Z"/>
    <path class="cls-12" d="M1054.26,773.6l-2.95-.53c.33-1.19.9-2.07,1.71-2.64.81-.57,2.01-.86,3.61-.86,1.45,0,2.53.17,3.24.51.71.34,1.21.78,1.5,1.31s.43,1.5.43,2.91l-.03,3.79c0,1.08.05,1.88.16,2.39.1.51.3,1.06.58,1.65h-3.22c-.08-.22-.19-.54-.31-.96-.05-.19-.09-.32-.12-.38-.56.54-1.15.94-1.78,1.21-.63.27-1.31.4-2.02.4-1.27,0-2.26-.34-2.99-1.03-.73-.69-1.09-1.55-1.09-2.6,0-.69.17-1.31.5-1.86.33-.54.8-.96,1.39-1.25s1.46-.54,2.58-.76c1.52-.29,2.57-.55,3.16-.8v-.32c0-.62-.15-1.07-.46-1.34-.31-.27-.89-.4-1.75-.4-.58,0-1.03.11-1.35.34-.32.23-.59.63-.79,1.2ZM1058.61,776.24c-.42.14-1.08.3-1.98.5-.9.19-1.49.38-1.77.57-.42.3-.64.68-.64,1.15s.17.85.51,1.18c.34.33.77.5,1.3.5.59,0,1.14-.19,1.68-.58.39-.29.65-.65.78-1.08.08-.28.13-.81.13-1.58v-.65Z"/>
    <path class="cls-12" d="M1064.91,769.85h3.03v1.8c.39-.62.93-1.12,1.6-1.5s1.42-.58,2.23-.58c1.43,0,2.64.56,3.63,1.68,1,1.12,1.49,2.68,1.49,4.67s-.5,3.65-1.5,4.78c-1,1.14-2.22,1.71-3.64,1.71-.68,0-1.29-.13-1.85-.4-.55-.27-1.13-.73-1.74-1.39v6.19h-3.25v-16.96ZM1068.13,775.79c0,1.38.27,2.4.82,3.06.55.66,1.21.99,2,.99s1.38-.3,1.88-.91c.5-.61.75-1.6.75-2.98,0-1.29-.26-2.24-.78-2.87-.52-.62-1.16-.94-1.92-.94s-1.45.31-1.98.92c-.53.61-.79,1.52-.79,2.72Z"/>
    <path class="cls-12" d="M1085.11,769.85v2.59h-2.22v4.95c0,1,.02,1.59.06,1.75.04.17.14.3.29.41.15.11.33.16.55.16.3,0,.74-.1,1.31-.31l.28,2.52c-.76.32-1.61.49-2.57.49-.59,0-1.11-.1-1.58-.29-.47-.2-.82-.45-1.04-.76-.22-.31-.37-.73-.46-1.27-.07-.38-.1-1.14-.1-2.29v-5.36h-1.49v-2.59h1.49v-2.44l3.26-1.9v4.34h2.22Z"/>
    <path class="cls-12" d="M1095.45,782.14v-1.84c-.45.66-1.04,1.17-1.76,1.55-.73.38-1.5.57-2.31.57s-1.57-.18-2.22-.54c-.66-.36-1.13-.87-1.42-1.53-.29-.66-.44-1.56-.44-2.72v-7.77h3.25v5.65c0,1.73.06,2.79.18,3.18.12.39.34.7.65.93s.72.34,1.2.34c.56,0,1.05-.15,1.49-.46.44-.3.74-.68.9-1.13.16-.45.24-1.56.24-3.31v-5.18h3.25v12.29h-3.02Z"/>
    <path class="cls-12" d="M1104.95,782.14h-3.25v-12.29h3.02v1.75c.52-.83.98-1.37,1.39-1.63.41-.26.88-.39,1.41-.39.74,0,1.45.2,2.14.61l-1.01,2.83c-.55-.35-1.06-.53-1.53-.53s-.84.13-1.16.38c-.32.25-.57.7-.75,1.36-.18.66-.27,2.03-.27,4.12v3.79Z"/>
    <path class="cls-12" d="M1118.17,778.23l3.24.54c-.42,1.19-1.07,2.09-1.97,2.71-.9.62-2.02.93-3.37.93-2.14,0-3.72-.7-4.74-2.09-.81-1.12-1.21-2.53-1.21-4.23,0-2.04.53-3.63,1.6-4.78s2.41-1.73,4.04-1.73c1.83,0,3.27.6,4.33,1.81s1.56,3.06,1.52,5.55h-8.14c.02.96.29,1.71.79,2.25.5.54,1.13.8,1.87.8.51,0,.94-.14,1.28-.42.35-.28.61-.72.79-1.34ZM1118.36,774.94c-.02-.94-.27-1.66-.73-2.15-.46-.49-1.03-.73-1.69-.73-.71,0-1.3.26-1.76.77-.46.52-.69,1.22-.68,2.11h4.86Z"/>
    <path class="cls-12" d="M971.68,810.57v-1.84c-.45.66-1.04,1.17-1.76,1.55-.73.38-1.5.57-2.31.57s-1.57-.18-2.22-.54c-.66-.36-1.13-.87-1.42-1.53-.29-.66-.44-1.56-.44-2.72v-7.77h3.25v5.65c0,1.73.06,2.79.18,3.18.12.39.34.7.65.93s.72.34,1.2.34c.56,0,1.05-.15,1.49-.46.44-.3.74-.68.9-1.13.16-.45.24-1.56.24-3.31v-5.18h3.25v12.29h-3.02Z"/>
    <path class="cls-12" d="M976.92,807.07l3.26-.5c.14.63.42,1.11.84,1.44s1.02.49,1.78.49c.84,0,1.47-.15,1.9-.46.29-.22.43-.51.43-.87,0-.25-.08-.45-.23-.61-.16-.15-.52-.3-1.09-.43-2.62-.58-4.28-1.11-4.99-1.58-.97-.66-1.46-1.58-1.46-2.76,0-1.06.42-1.96,1.26-2.68.84-.72,2.14-1.09,3.91-1.09s2.93.27,3.75.82,1.38,1.36,1.69,2.43l-3.07.57c-.13-.48-.38-.84-.75-1.1-.37-.25-.89-.38-1.57-.38-.86,0-1.47.12-1.84.36-.25.17-.37.39-.37.66,0,.23.11.43.32.59.29.22,1.31.52,3.04.91s2.94.88,3.63,1.45c.68.58,1.02,1.38,1.02,2.42,0,1.13-.47,2.09-1.41,2.9-.94.81-2.33,1.21-4.18,1.21-1.67,0-3-.34-3.97-1.02s-1.61-1.6-1.91-2.76Z"/>
    <path class="cls-12" d="M998.36,806.66l3.24.54c-.42,1.19-1.07,2.09-1.97,2.71-.9.62-2.02.93-3.37.93-2.14,0-3.72-.7-4.74-2.09-.81-1.12-1.21-2.53-1.21-4.23,0-2.04.53-3.63,1.6-4.78s2.41-1.73,4.04-1.73c1.83,0,3.27.6,4.33,1.81s1.56,3.06,1.52,5.55h-8.14c.02.96.29,1.71.79,2.25.5.54,1.13.8,1.87.8.51,0,.94-.14,1.28-.42.35-.28.61-.72.79-1.34ZM998.55,803.38c-.02-.94-.27-1.66-.73-2.15-.46-.49-1.03-.73-1.69-.73-.71,0-1.3.26-1.76.77-.46.52-.69,1.22-.68,2.11h4.86Z"/>
    <path class="cls-12" d="M1007.54,810.57h-3.25v-12.29h3.02v1.75c.52-.83.98-1.37,1.39-1.63.41-.26.88-.39,1.41-.39.74,0,1.45.2,2.14.61l-1.01,2.83c-.55-.35-1.06-.53-1.53-.53s-.84.13-1.16.38c-.32.25-.57.7-.75,1.36-.18.66-.27,2.03-.27,4.12v3.79Z"/>
    <path class="cls-12" d="M1031.49,810.57h-3.02v-1.8c-.5.7-1.09,1.22-1.78,1.57-.68.34-1.37.51-2.07.51-1.41,0-2.62-.57-3.63-1.71s-1.51-2.72-1.51-4.76.49-3.67,1.47-4.75c.98-1.08,2.22-1.62,3.71-1.62,1.37,0,2.56.57,3.56,1.71v-6.11h3.25v16.96ZM1022.82,804.16c0,1.31.18,2.26.54,2.85.52.85,1.26,1.27,2.2,1.27.75,0,1.38-.32,1.91-.95.52-.64.79-1.59.79-2.85,0-1.41-.25-2.43-.76-3.05-.51-.62-1.16-.93-1.96-.93s-1.42.31-1.94.92c-.52.61-.78,1.53-.78,2.75Z"/>
    <path class="cls-12" d="M1037.13,802.03l-2.95-.53c.33-1.19.9-2.07,1.71-2.64.81-.57,2.01-.86,3.61-.86,1.45,0,2.53.17,3.24.51.71.34,1.21.78,1.5,1.31s.43,1.5.43,2.91l-.03,3.79c0,1.08.05,1.88.16,2.39.1.51.3,1.06.58,1.65h-3.22c-.08-.22-.19-.54-.31-.96-.05-.19-.09-.32-.12-.38-.56.54-1.15.94-1.78,1.21-.63.27-1.31.4-2.02.4-1.27,0-2.26-.34-2.99-1.03-.73-.69-1.09-1.55-1.09-2.6,0-.69.17-1.31.5-1.86.33-.54.8-.96,1.39-1.25s1.46-.54,2.58-.76c1.52-.29,2.57-.55,3.16-.8v-.32c0-.62-.15-1.07-.46-1.34-.31-.27-.89-.4-1.75-.4-.58,0-1.03.11-1.35.34-.32.23-.59.63-.79,1.2ZM1041.48,804.67c-.42.14-1.08.3-1.98.5-.9.19-1.49.38-1.77.57-.42.3-.64.68-.64,1.15s.17.85.51,1.18c.34.33.77.5,1.3.5.59,0,1.14-.19,1.68-.58.39-.29.65-.65.78-1.08.08-.28.13-.81.13-1.58v-.65Z"/>
    <path class="cls-12" d="M1053.51,798.29v2.59h-2.22v4.95c0,1,.02,1.59.06,1.75.04.17.14.3.29.41.15.11.33.16.55.16.3,0,.74-.1,1.31-.31l.28,2.52c-.76.32-1.61.49-2.57.49-.59,0-1.11-.1-1.58-.29-.47-.2-.82-.45-1.04-.76-.22-.31-.37-.73-.46-1.27-.07-.38-.1-1.14-.1-2.29v-5.36h-1.49v-2.59h1.49v-2.44l3.26-1.9v4.34h2.22Z"/>
    <path class="cls-12" d="M1058.2,802.03l-2.95-.53c.33-1.19.9-2.07,1.71-2.64.81-.57,2.01-.86,3.61-.86,1.45,0,2.53.17,3.24.51.71.34,1.21.78,1.5,1.31s.43,1.5.43,2.91l-.03,3.79c0,1.08.05,1.88.16,2.39.1.51.3,1.06.58,1.65h-3.22c-.08-.22-.19-.54-.31-.96-.05-.19-.09-.32-.12-.38-.56.54-1.15.94-1.78,1.21-.63.27-1.31.4-2.02.4-1.27,0-2.26-.34-2.99-1.03-.73-.69-1.09-1.55-1.09-2.6,0-.69.17-1.31.5-1.86.33-.54.8-.96,1.39-1.25s1.46-.54,2.58-.76c1.52-.29,2.57-.55,3.16-.8v-.32c0-.62-.15-1.07-.46-1.34-.31-.27-.89-.4-1.75-.4-.58,0-1.03.11-1.35.34-.32.23-.59.63-.79,1.2ZM1062.54,804.67c-.42.14-1.08.3-1.98.5-.9.19-1.49.38-1.77.57-.42.3-.64.68-.64,1.15s.17.85.51,1.18c.34.33.77.5,1.3.5.59,0,1.14-.19,1.68-.58.39-.29.65-.65.78-1.08.08-.28.13-.81.13-1.58v-.65Z"/>
  </g>
  <rect class="cls-13" x="1592.14" y="720.79" width="272.47" height="81.85" rx="9.28" ry="9.28"/>
  <g>
    <path class="cls-12" d="M1611.43,753.71l-4.05-16.96h3.5l2.56,11.65,3.1-11.65h4.07l2.97,11.85,2.6-11.85h3.45l-4.12,16.96h-3.63l-3.38-12.68-3.37,12.68h-3.71Z"/>
    <path class="cls-12" d="M1638.05,749.8l3.24.54c-.42,1.19-1.07,2.09-1.97,2.71-.9.62-2.02.93-3.37.93-2.14,0-3.72-.7-4.74-2.09-.81-1.12-1.21-2.53-1.21-4.23,0-2.04.53-3.63,1.6-4.78s2.41-1.73,4.04-1.73c1.83,0,3.27.6,4.33,1.81s1.56,3.06,1.52,5.55h-8.14c.02.96.29,1.71.79,2.25.5.54,1.13.8,1.87.8.51,0,.94-.14,1.28-.42.35-.28.61-.72.79-1.34ZM1638.24,746.51c-.02-.94-.27-1.66-.73-2.15-.46-.49-1.03-.73-1.69-.73-.71,0-1.3.26-1.76.77-.46.52-.69,1.22-.68,2.11h4.86Z"/>
    <path class="cls-12" d="M1643.97,753.71v-16.96h3.25v6.11c1-1.14,2.19-1.71,3.56-1.71,1.5,0,2.73.54,3.71,1.62.98,1.08,1.47,2.64,1.47,4.67s-.5,3.71-1.5,4.85-2.21,1.7-3.64,1.7c-.7,0-1.39-.17-2.08-.53-.68-.35-1.27-.87-1.76-1.56v1.8h-3.02ZM1647.2,747.3c0,1.27.2,2.21.6,2.82.56.86,1.31,1.29,2.25,1.29.72,0,1.33-.31,1.83-.92.51-.61.76-1.58.76-2.9,0-1.4-.25-2.42-.76-3.04-.51-.62-1.16-.93-1.96-.93s-1.43.3-1.94.91-.78,1.53-.78,2.76Z"/>
    <path class="cls-12" d="M1661.82,736.75v6.24c1.05-1.23,2.3-1.84,3.76-1.84.75,0,1.42.14,2.02.42.6.28,1.05.63,1.36,1.06s.51.91.62,1.43c.11.52.17,1.34.17,2.44v7.21h-3.25v-6.49c0-1.29-.06-2.11-.18-2.45-.12-.35-.34-.62-.65-.83-.31-.21-.7-.31-1.17-.31-.54,0-1.02.13-1.45.39-.42.26-.73.66-.93,1.19-.2.53-.3,1.31-.3,2.34v6.15h-3.25v-16.96h3.25Z"/>
    <path class="cls-12" d="M1672.3,747.39c0-1.08.27-2.12.8-3.14.53-1.01,1.29-1.78,2.26-2.31s2.06-.8,3.27-.8c1.86,0,3.38.6,4.57,1.81,1.19,1.21,1.78,2.73,1.78,4.58s-.6,3.4-1.8,4.62c-1.2,1.22-2.71,1.83-4.53,1.83-1.13,0-2.2-.25-3.22-.76-1.02-.51-1.8-1.25-2.33-2.24s-.8-2.18-.8-3.59ZM1675.64,747.57c0,1.22.29,2.15.87,2.8.58.65,1.29.97,2.14.97s1.56-.32,2.13-.97c.57-.65.86-1.59.86-2.82s-.29-2.13-.86-2.78c-.57-.65-1.29-.97-2.13-.97s-1.56.32-2.14.97c-.58.65-.87,1.58-.87,2.8Z"/>
    <path class="cls-12" d="M1686.78,747.39c0-1.08.27-2.12.8-3.14.53-1.01,1.29-1.78,2.26-2.31s2.06-.8,3.27-.8c1.86,0,3.38.6,4.57,1.81,1.19,1.21,1.78,2.73,1.78,4.58s-.6,3.4-1.8,4.62c-1.2,1.22-2.71,1.83-4.53,1.83-1.13,0-2.2-.25-3.22-.76-1.02-.51-1.8-1.25-2.33-2.24s-.8-2.18-.8-3.59ZM1690.11,747.57c0,1.22.29,2.15.87,2.8.58.65,1.29.97,2.14.97s1.56-.32,2.13-.97c.57-.65.86-1.59.86-2.82s-.29-2.13-.86-2.78c-.57-.65-1.29-.97-2.13-.97s-1.56.32-2.14.97c-.58.65-.87,1.58-.87,2.8Z"/>
    <path class="cls-12" d="M1701.89,753.71v-16.96h3.25v9l3.81-4.33h4l-4.2,4.49,4.5,7.8h-3.5l-3.09-5.52-1.52,1.58v3.93h-3.25Z"/>
    <path class="cls-12" d="M1732.94,753.71h-3.25v-6.27c0-1.33-.07-2.18-.21-2.57-.14-.39-.36-.69-.68-.91-.31-.22-.69-.32-1.13-.32-.56,0-1.07.15-1.52.46s-.75.72-.92,1.23c-.17.51-.25,1.45-.25,2.82v5.56h-3.25v-12.29h3.02v1.8c1.07-1.39,2.42-2.08,4.05-2.08.72,0,1.37.13,1.97.39.59.26,1.04.59,1.35.99.3.4.52.86.64,1.37.12.51.18,1.24.18,2.19v7.64Z"/>
    <path class="cls-12" d="M1735.48,747.39c0-1.08.27-2.12.8-3.14.53-1.01,1.29-1.78,2.26-2.31s2.06-.8,3.27-.8c1.86,0,3.38.6,4.57,1.81,1.19,1.21,1.78,2.73,1.78,4.58s-.6,3.4-1.8,4.62c-1.2,1.22-2.71,1.83-4.53,1.83-1.13,0-2.2-.25-3.22-.76-1.02-.51-1.8-1.25-2.33-2.24s-.8-2.18-.8-3.59ZM1738.81,747.57c0,1.22.29,2.15.87,2.8.58.65,1.29.97,2.14.97s1.56-.32,2.13-.97c.57-.65.86-1.59.86-2.82s-.29-2.13-.86-2.78c-.57-.65-1.29-.97-2.13-.97s-1.56.32-2.14.97c-.58.65-.87,1.58-.87,2.8Z"/>
    <path class="cls-12" d="M1756.34,741.42v2.59h-2.22v4.95c0,1,.02,1.59.06,1.75.04.17.14.3.29.41.15.11.33.16.55.16.3,0,.74-.1,1.31-.31l.28,2.52c-.76.32-1.61.49-2.57.49-.59,0-1.11-.1-1.58-.29-.47-.2-.82-.45-1.04-.76-.22-.31-.37-.73-.46-1.27-.07-.38-.1-1.14-.1-2.29v-5.36h-1.49v-2.59h1.49v-2.44l3.26-1.9v4.34h2.22Z"/>
    <path class="cls-12" d="M1758.6,739.76v-3.01h3.25v3.01h-3.25ZM1758.6,753.71v-12.29h3.25v12.29h-3.25Z"/>
    <path class="cls-12" d="M1763.76,741.42h1.8v-.93c0-1.03.11-1.8.33-2.31s.62-.92,1.21-1.24c.59-.32,1.34-.48,2.24-.48s1.83.14,2.72.42l-.44,2.27c-.52-.12-1.01-.18-1.49-.18s-.81.11-1.01.33-.31.64-.31,1.27v.87h2.43v2.56h-2.43v9.73h-3.25v-9.73h-1.8v-2.56Z"/>
    <path class="cls-12" d="M1773.07,739.76v-3.01h3.25v3.01h-3.25ZM1773.07,753.71v-12.29h3.25v12.29h-3.25Z"/>
    <path class="cls-12" d="M1790.36,745.05l-3.2.58c-.11-.64-.35-1.12-.73-1.45-.38-.32-.88-.49-1.49-.49-.81,0-1.46.28-1.94.84-.48.56-.72,1.49-.72,2.8,0,1.46.24,2.49.73,3.09.49.6,1.15.9,1.97.9.62,0,1.12-.17,1.52-.53.39-.35.67-.95.83-1.81l3.19.54c-.33,1.47-.97,2.57-1.91,3.32-.94.75-2.2,1.12-3.78,1.12-1.8,0-3.23-.57-4.3-1.7-1.07-1.13-1.6-2.7-1.6-4.71s.54-3.61,1.61-4.74c1.07-1.13,2.52-1.69,4.35-1.69,1.5,0,2.69.32,3.57.97.88.64,1.52,1.62,1.9,2.94Z"/>
    <path class="cls-12" d="M1795.26,745.17l-2.95-.53c.33-1.19.9-2.07,1.71-2.64.81-.57,2.01-.86,3.61-.86,1.45,0,2.53.17,3.24.51.71.34,1.21.78,1.5,1.31s.43,1.5.43,2.91l-.03,3.79c0,1.08.05,1.88.16,2.39.1.51.3,1.06.58,1.65h-3.22c-.08-.22-.19-.54-.31-.96-.05-.19-.09-.32-.12-.38-.56.54-1.15.94-1.78,1.21-.63.27-1.31.4-2.02.4-1.27,0-2.26-.34-2.99-1.03-.73-.69-1.09-1.55-1.09-2.6,0-.69.17-1.31.5-1.86.33-.54.8-.96,1.39-1.25s1.46-.54,2.58-.76c1.52-.29,2.57-.55,3.16-.8v-.32c0-.62-.15-1.07-.46-1.34-.31-.27-.89-.4-1.75-.4-.58,0-1.03.11-1.35.34-.32.23-.59.63-.79,1.2ZM1799.61,747.81c-.42.14-1.08.3-1.98.5-.9.19-1.49.38-1.77.57-.42.3-.64.68-.64,1.15s.17.85.51,1.18c.34.33.77.5,1.3.5.59,0,1.14-.19,1.68-.58.39-.29.65-.65.78-1.08.08-.28.13-.81.13-1.58v-.65Z"/>
    <path class="cls-12" d="M1811.64,741.42v2.59h-2.22v4.95c0,1,.02,1.59.06,1.75.04.17.14.3.29.41.15.11.33.16.55.16.3,0,.74-.1,1.31-.31l.28,2.52c-.76.32-1.61.49-2.57.49-.59,0-1.11-.1-1.58-.29-.47-.2-.82-.45-1.04-.76-.22-.31-.37-.73-.46-1.27-.07-.38-.1-1.14-.1-2.29v-5.36h-1.49v-2.59h1.49v-2.44l3.26-1.9v4.34h2.22Z"/>
    <path class="cls-12" d="M1813.89,739.76v-3.01h3.25v3.01h-3.25ZM1813.89,753.71v-12.29h3.25v12.29h-3.25Z"/>
    <path class="cls-12" d="M1819.73,747.39c0-1.08.27-2.12.8-3.14.53-1.01,1.29-1.78,2.26-2.31s2.06-.8,3.27-.8c1.86,0,3.38.6,4.57,1.81,1.19,1.21,1.78,2.73,1.78,4.58s-.6,3.4-1.8,4.62c-1.2,1.22-2.71,1.83-4.53,1.83-1.13,0-2.2-.25-3.22-.76-1.02-.51-1.8-1.25-2.33-2.24s-.8-2.18-.8-3.59ZM1823.06,747.57c0,1.22.29,2.15.87,2.8.58.65,1.29.97,2.14.97s1.56-.32,2.13-.97c.57-.65.86-1.59.86-2.82s-.29-2.13-.86-2.78c-.57-.65-1.29-.97-2.13-.97s-1.56.32-2.14.97c-.58.65-.87,1.58-.87,2.8Z"/>
    <path class="cls-12" d="M1846.13,753.71h-3.25v-6.27c0-1.33-.07-2.18-.21-2.57-.14-.39-.36-.69-.68-.91-.31-.22-.69-.32-1.13-.32-.56,0-1.07.15-1.52.46s-.75.72-.92,1.23c-.17.51-.25,1.45-.25,2.82v5.56h-3.25v-12.29h3.02v1.8c1.07-1.39,2.42-2.08,4.05-2.08.72,0,1.37.13,1.97.39.59.26,1.04.59,1.35.99.3.4.52.86.64,1.37.12.51.18,1.24.18,2.19v7.64Z"/>
    <path class="cls-12" d="M1620.56,773.1v-3.25h3.25v3.25h-3.25ZM1620.56,782.14v-3.25h3.25v3.25h-3.25Z"/>
    <path class="cls-12" d="M1634.43,782.14v-16.96h5.5c2.08,0,3.44.08,4.07.25.97.25,1.79.81,2.44,1.66.66.85.98,1.95.98,3.3,0,1.04-.19,1.92-.57,2.63s-.86,1.27-1.44,1.67c-.58.4-1.17.67-1.78.8-.82.16-2,.24-3.55.24h-2.23v6.4h-3.42ZM1637.86,768.05v4.81h1.87c1.35,0,2.25-.09,2.71-.27.46-.18.81-.46,1.07-.83.26-.38.39-.82.39-1.32,0-.62-.18-1.13-.54-1.53-.36-.4-.82-.65-1.38-.75-.41-.08-1.23-.12-2.46-.12h-1.65Z"/>
    <path class="cls-12" d="M1652.64,773.6l-2.95-.53c.33-1.19.9-2.07,1.71-2.64.81-.57,2.01-.86,3.61-.86,1.45,0,2.53.17,3.24.51.71.34,1.21.78,1.5,1.31s.43,1.5.43,2.91l-.03,3.79c0,1.08.05,1.88.16,2.39.1.51.3,1.06.58,1.65h-3.22c-.08-.22-.19-.54-.31-.96-.05-.19-.09-.32-.12-.38-.56.54-1.15.94-1.78,1.21-.63.27-1.31.4-2.02.4-1.27,0-2.26-.34-2.99-1.03-.73-.69-1.09-1.55-1.09-2.6,0-.69.17-1.31.5-1.86.33-.54.8-.96,1.39-1.25s1.46-.54,2.58-.76c1.52-.29,2.57-.55,3.16-.8v-.32c0-.62-.15-1.07-.46-1.34-.31-.27-.89-.4-1.75-.4-.58,0-1.03.11-1.35.34-.32.23-.59.63-.79,1.2ZM1656.99,776.24c-.42.14-1.08.3-1.98.5-.9.19-1.49.38-1.77.57-.42.3-.64.68-.64,1.15s.17.85.51,1.18c.34.33.77.5,1.3.5.59,0,1.14-.19,1.68-.58.39-.29.65-.65.78-1.08.08-.28.13-.81.13-1.58v-.65Z"/>
    <path class="cls-12" d="M1661.85,769.85h3.46l2.94,8.72,2.87-8.72h3.37l-4.34,11.82-.78,2.14c-.29.72-.56,1.26-.82,1.64-.26.38-.56.68-.89.92-.34.24-.75.42-1.24.55-.49.13-1.04.2-1.66.2s-1.24-.07-1.84-.2l-.29-2.54c.51.1.97.15,1.38.15.76,0,1.32-.22,1.68-.67s.64-1.01.83-1.69l-4.67-12.32Z"/>
    <path class="cls-12" d="M1676.32,769.85h3v1.68c1.07-1.3,2.35-1.96,3.83-1.96.79,0,1.47.16,2.05.49.58.32,1.05.81,1.42,1.47.54-.66,1.12-1.15,1.75-1.47.62-.32,1.29-.49,2-.49.9,0,1.67.18,2.29.55.62.37,1.09.91,1.4,1.61.22.52.34,1.37.34,2.54v7.86h-3.25v-7.02c0-1.22-.11-2-.34-2.36-.3-.46-.76-.69-1.39-.69-.46,0-.88.14-1.28.42-.4.28-.69.68-.87,1.22-.18.54-.27,1.38-.27,2.54v5.9h-3.25v-6.73c0-1.2-.06-1.97-.17-2.31-.12-.35-.29-.61-.54-.78-.24-.17-.57-.25-.99-.25-.5,0-.95.13-1.35.4-.4.27-.69.66-.86,1.17s-.26,1.35-.26,2.53v5.97h-3.25v-12.29Z"/>
    <path class="cls-12" d="M1704.75,778.23l3.24.54c-.42,1.19-1.07,2.09-1.97,2.71-.9.62-2.02.93-3.37.93-2.14,0-3.72-.7-4.74-2.09-.81-1.12-1.21-2.53-1.21-4.23,0-2.04.53-3.63,1.6-4.78s2.41-1.73,4.04-1.73c1.83,0,3.27.6,4.33,1.81s1.56,3.06,1.52,5.55h-8.14c.02.96.29,1.71.79,2.25.5.54,1.13.8,1.87.8.51,0,.94-.14,1.28-.42.35-.28.61-.72.79-1.34ZM1704.93,774.94c-.02-.94-.27-1.66-.73-2.15-.46-.49-1.03-.73-1.69-.73-.71,0-1.3.26-1.76.77-.46.52-.69,1.22-.68,2.11h4.86Z"/>
    <path class="cls-12" d="M1721.99,782.14h-3.25v-6.27c0-1.33-.07-2.18-.21-2.57-.14-.39-.36-.69-.68-.91-.31-.22-.69-.32-1.13-.32-.56,0-1.07.15-1.52.46s-.75.72-.92,1.23c-.17.51-.25,1.45-.25,2.82v5.56h-3.25v-12.29h3.02v1.8c1.07-1.39,2.42-2.08,4.05-2.08.72,0,1.37.13,1.97.39.59.26,1.04.59,1.35.99.3.4.52.86.64,1.37.12.51.18,1.24.18,2.19v7.64Z"/>
    <path class="cls-12" d="M1730.92,769.85v2.59h-2.22v4.95c0,1,.02,1.59.06,1.75.04.17.14.3.29.41.15.11.33.16.55.16.3,0,.74-.1,1.31-.31l.28,2.52c-.76.32-1.61.49-2.57.49-.59,0-1.11-.1-1.58-.29-.47-.2-.82-.45-1.04-.76-.22-.31-.37-.73-.46-1.27-.07-.38-.1-1.14-.1-2.29v-5.36h-1.49v-2.59h1.49v-2.44l3.26-1.9v4.34h2.22Z"/>
    <path class="cls-12" d="M1739,775.82c0-1.08.27-2.12.8-3.14.53-1.01,1.29-1.78,2.26-2.31s2.06-.8,3.27-.8c1.86,0,3.38.6,4.57,1.81,1.19,1.21,1.78,2.73,1.78,4.58s-.6,3.4-1.8,4.62c-1.2,1.22-2.71,1.83-4.53,1.83-1.13,0-2.2-.25-3.22-.76-1.02-.51-1.8-1.25-2.33-2.24s-.8-2.18-.8-3.59ZM1742.34,776c0,1.22.29,2.15.87,2.8.58.65,1.29.97,2.14.97s1.56-.32,2.13-.97c.57-.65.86-1.59.86-2.82s-.29-2.13-.86-2.78c-.57-.65-1.29-.97-2.13-.97s-1.56.32-2.14.97c-.58.65-.87,1.58-.87,2.8Z"/>
    <path class="cls-12" d="M1762.32,782.14v-1.84c-.45.66-1.04,1.17-1.76,1.55-.73.38-1.5.57-2.31.57s-1.57-.18-2.22-.54c-.66-.36-1.13-.87-1.42-1.53-.29-.66-.44-1.56-.44-2.72v-7.77h3.25v5.65c0,1.73.06,2.79.18,3.18.12.39.34.7.65.93s.72.34,1.2.34c.56,0,1.05-.15,1.49-.46.44-.3.74-.68.9-1.13.16-.45.24-1.56.24-3.31v-5.18h3.25v12.29h-3.02Z"/>
    <path class="cls-12" d="M1774.33,769.85v2.59h-2.22v4.95c0,1,.02,1.59.06,1.75.04.17.14.3.29.41.15.11.33.16.55.16.3,0,.74-.1,1.31-.31l.28,2.52c-.76.32-1.61.49-2.57.49-.59,0-1.11-.1-1.58-.29-.47-.2-.82-.45-1.04-.76-.22-.31-.37-.73-.46-1.27-.07-.38-.1-1.14-.1-2.29v-5.36h-1.49v-2.59h1.49v-2.44l3.26-1.9v4.34h2.22Z"/>
    <path class="cls-12" d="M1787.3,773.49l-3.2.58c-.11-.64-.35-1.12-.73-1.45-.38-.32-.88-.49-1.49-.49-.81,0-1.46.28-1.94.84-.48.56-.72,1.49-.72,2.8,0,1.46.24,2.49.73,3.09.49.6,1.15.9,1.97.9.62,0,1.12-.17,1.52-.53.39-.35.67-.95.83-1.81l3.19.54c-.33,1.47-.97,2.57-1.91,3.32-.94.75-2.2,1.12-3.78,1.12-1.8,0-3.23-.57-4.3-1.7-1.07-1.13-1.6-2.7-1.6-4.71s.54-3.61,1.61-4.74c1.07-1.13,2.52-1.69,4.35-1.69,1.5,0,2.69.32,3.57.97.88.64,1.52,1.62,1.9,2.94Z"/>
    <path class="cls-12" d="M1789.02,775.82c0-1.08.27-2.12.8-3.14.53-1.01,1.29-1.78,2.26-2.31s2.06-.8,3.27-.8c1.86,0,3.38.6,4.57,1.81,1.19,1.21,1.78,2.73,1.78,4.58s-.6,3.4-1.8,4.62c-1.2,1.22-2.71,1.83-4.53,1.83-1.13,0-2.2-.25-3.22-.76-1.02-.51-1.8-1.25-2.33-2.24s-.8-2.18-.8-3.59ZM1792.35,776c0,1.22.29,2.15.87,2.8.58.65,1.29.97,2.14.97s1.56-.32,2.13-.97c.57-.65.86-1.59.86-2.82s-.29-2.13-.86-2.78c-.57-.65-1.29-.97-2.13-.97s-1.56.32-2.14.97c-.58.65-.87,1.58-.87,2.8Z"/>
    <path class="cls-12" d="M1804,769.85h3v1.68c1.07-1.3,2.35-1.96,3.83-1.96.79,0,1.47.16,2.05.49.58.32,1.05.81,1.42,1.47.54-.66,1.12-1.15,1.75-1.47.62-.32,1.29-.49,2-.49.9,0,1.67.18,2.29.55.62.37,1.09.91,1.4,1.61.22.52.34,1.37.34,2.54v7.86h-3.25v-7.02c0-1.22-.11-2-.34-2.36-.3-.46-.76-.69-1.39-.69-.46,0-.88.14-1.28.42-.4.28-.69.68-.87,1.22-.18.54-.27,1.38-.27,2.54v5.9h-3.25v-6.73c0-1.2-.06-1.97-.17-2.31-.12-.35-.29-.61-.54-.78-.24-.17-.57-.25-.99-.25-.5,0-.95.13-1.35.4-.4.27-.69.66-.86,1.17s-.26,1.35-.26,2.53v5.97h-3.25v-12.29Z"/>
    <path class="cls-12" d="M1832.42,778.23l3.24.54c-.42,1.19-1.07,2.09-1.97,2.71-.9.62-2.02.93-3.37.93-2.14,0-3.72-.7-4.74-2.09-.81-1.12-1.21-2.53-1.21-4.23,0-2.04.53-3.63,1.6-4.78s2.41-1.73,4.04-1.73c1.83,0,3.27.6,4.33,1.81s1.56,3.06,1.52,5.55h-8.14c.02.96.29,1.71.79,2.25.5.54,1.13.8,1.87.8.51,0,.94-.14,1.28-.42.35-.28.61-.72.79-1.34ZM1832.61,774.94c-.02-.94-.27-1.66-.73-2.15-.46-.49-1.03-.73-1.69-.73-.71,0-1.3.26-1.76.77-.46.52-.69,1.22-.68,2.11h4.86Z"/>
  </g>
  <circle class="cls-14" cx="274.34" cy="122.55" r="31.77"/>
  <text class="cls-8" transform="translate(265.36 132.63)"><tspan x="0" y="0">1</tspan></text>
  <circle class="cls-14" cx="794.65" cy="122.55" r="31.77"/>
  <text class="cls-8" transform="translate(785.67 132.63)"><tspan x="0" y="0">4</tspan></text>
  <circle class="cls-14" cx="1199.59" cy="122.55" r="31.77"/>
  <text class="cls-8" transform="translate(1190.6 132.63)"><tspan x="0" y="0">6</tspan></text>
  <circle class="cls-14" cx="1549.6" cy="122.55" r="31.77"/>
  <text class="cls-8" transform="translate(1540.61 132.63)"><tspan x="0" y="0">8</tspan></text>
  <circle class="cls-15" cx="460.8" cy="999.18" r="31.77"/>
  <text class="cls-8" transform="translate(451.82 1009.27)"><tspan x="0" y="0">2</tspan></text>
  <circle class="cls-15" cx="643.88" cy="999.18" r="31.77"/>
  <text class="cls-8" transform="translate(634.9 1009.27)"><tspan x="0" y="0">3</tspan></text>
  <circle class="cls-15" cx="1014.35" cy="999.18" r="31.77"/>
  <text class="cls-8" transform="translate(1005.37 1009.27)"><tspan x="0" y="0">5</tspan></text>
  <circle class="cls-15" cx="1370.82" cy="999.18" r="31.77"/>
  <text class="cls-8" transform="translate(1361.84 1009.27)"><tspan x="0" y="0">7</tspan></text>
  <circle class="cls-15" cx="1728.37" cy="999.18" r="31.77"/>
  <text class="cls-8" transform="translate(1719.39 1009.27)"><tspan x="0" y="0">9</tspan></text>
</svg>