<?xml version="1.0" encoding="UTF-8"?>
<svg id="Layer_1" data-name="Layer 1" xmlns="http://www.w3.org/2000/svg" viewBox="0 0 1997 705">
  <defs>
    <style>
      .cls-1 {
        font-family: ArialMT, Arial;
      }

      .cls-2, .cls-3, .cls-4, .cls-5, .cls-6, .cls-7, .cls-8, .cls-9 {
        font-family: KozGoPr6N-Regular-83pv-RKSJ-H, 'Kozuka Gothic Pr6N';
      }

      .cls-2, .cls-4, .cls-10 {
        font-size: 22.55px;
      }

      .cls-2, .cls-7, .cls-8, .cls-11, .cls-10 {
        fill: #fff;
      }

      .cls-12 {
        letter-spacing: -.01em;
      }

      .cls-3, .cls-13 {
        font-size: 25.7px;
      }

      .cls-14, .cls-15, .cls-16, .cls-17, .cls-18 {
        fill: none;
      }

      .cls-14, .cls-15, .cls-19, .cls-20, .cls-17 {
        stroke-miterlimit: 10;
      }

      .cls-14, .cls-16, .cls-17, .cls-18 {
        stroke: #fff;
      }

      .cls-14, .cls-16, .cls-18 {
        stroke-linecap: round;
      }

      .cls-14, .cls-18 {
        stroke-width: 3px;
      }

      .cls-21 {
        letter-spacing: -.04em;
      }

      .cls-22 {
        letter-spacing: -.08em;
      }

      .cls-23 {
        letter-spacing: -.04em;
      }

      .cls-24 {
        letter-spacing: -.02em;
      }

      .cls-25 {
        letter-spacing: -.14em;
      }

      .cls-26 {
        letter-spacing: -.14em;
      }

      .cls-27 {
        letter-spacing: -.12em;
      }

      .cls-15 {
        stroke: #00a99d;
        stroke-width: 5px;
      }

      .cls-28 {
        letter-spacing: -.16em;
      }

      .cls-16 {
        stroke-width: 2px;
      }

      .cls-16, .cls-18 {
        stroke-linejoin: round;
      }

      .cls-29 {
        letter-spacing: -.23em;
      }

      .cls-6 {
        letter-spacing: 0em;
      }

      .cls-19 {
        stroke: #d0d4eb;
      }

      .cls-19, .cls-9, .cls-30 {
        fill: #ff931e;
      }

      .cls-20 {
        fill: #fff2e1;
        stroke: #ff931e;
      }

      .cls-31 {
        letter-spacing: -.11em;
      }

      .cls-32 {
        letter-spacing: -.11em;
      }

      .cls-33 {
        font-family: Arial-BoldMT, Arial;
        font-weight: 700;
      }

      .cls-7 {
        font-size: 22px;
      }

      .cls-34 {
        letter-spacing: -.09em;
      }

      .cls-35 {
        letter-spacing: -.05em;
      }

      .cls-8, .cls-9 {
        font-size: 25px;
      }

      .cls-36 {
        letter-spacing: -.07em;
      }

      .cls-37 {
        fill: #29abe2;
      }

      .cls-37, .cls-38, .cls-30, .cls-39, .cls-11, .cls-40 {
        stroke-width: 0px;
      }

      .cls-38 {
        fill: #39b54a;
      }

      .cls-39 {
        fill: #ff7bac;
      }

      .cls-40 {
        fill: #00a99d;
      }
    </style>
  </defs>
  <rect class="cls-11" width="1997" height="705"/>
  <rect class="cls-20" x="1050.51" y="321" width="391.49" height="354" rx="20.7" ry="20.7"/>
  <rect class="cls-37" x="66.88" y="220.6" width="133.99" height="133.99" rx="19.94" ry="19.94"/>
  <text class="cls-13" transform="translate(90.59 385.77)"><tspan class="cls-5"><tspan x="0" y="0">既存の</tspan></tspan><tspan class="cls-1" x="-18.56" y="30.84">PO</tspan><tspan class="cls-5" x="18.56" y="30.84">加盟店</tspan></text>
  <g>
    <path class="cls-18" d="M173.06,275.13c0,3.92-3.5,7.11-7.82,7.11s-7.82-3.18-7.82-7.11c0,3.92-3.5,7.11-7.82,7.11s-7.82-3.18-7.82-7.11c0,3.92-3.5,7.11-7.82,7.11s-7.82-3.18-7.82-7.11c0,3.92-3.5,7.11-7.82,7.11s-7.82-3.18-7.82-7.11c0,3.92-3.5,7.11-7.82,7.11s-7.82-3.18-7.82-7.11"/>
    <path class="cls-14" d="M94.9,275.13l8.15-25.85c.44-1.53,1.83-2.58,3.42-2.58h55.04c1.59,0,2.98,1.05,3.42,2.58l8.15,25.85"/>
    <path class="cls-18" d="M167.73,282.24v42.63c0,1.96-1.59,3.55-3.55,3.55h-60.4c-1.96,0-3.55-1.59-3.55-3.55v-42.63"/>
    <line class="cls-14" x1="125.1" y1="278.68" x2="125.1" y2="328.42"/>
    <line class="cls-14" x1="117.99" y1="300" x2="117.99" y2="303.55"/>
    <line class="cls-14" x1="146.41" y1="292.9" x2="135.76" y2="303.55"/>
    <line class="cls-14" x1="153.52" y1="300" x2="139.31" y2="314.21"/>
    <line class="cls-14" x1="157.43" y1="275.13" x2="153.15" y2="246.71"/>
    <line class="cls-14" x1="141.8" y1="275.13" x2="139.16" y2="246.71"/>
    <line class="cls-14" x1="126.16" y1="275.13" x2="128.58" y2="246.71"/>
    <line class="cls-14" x1="110.53" y1="275.13" x2="115.1" y2="246.71"/>
  </g>
  <rect class="cls-38" x="312.83" y="26" width="328.17" height="231" rx="19.94" ry="19.94"/>
  <g>
    <path class="cls-11" d="M334.83,121.38c0-1.42,1.13-2.53,2.53-2.53s2.53,1.13,2.53,2.53-1.13,2.53-2.53,2.53-2.53-1.15-2.53-2.53Z"/>
    <path class="cls-11" d="M371.8,109.97c-.05.14-.23.18-.45.18-.56.79-1.42,1.83-2.19,2.68h3.68v4.38h-1.47v-3.04h-16.12v3.04h-1.42v-4.38h3.41c-.45-.83-1.35-2.01-2.17-2.84l1.26-.63c.86.86,1.85,2.05,2.28,2.89l-1.11.59h9.97l-.05-.02c.88-.97,2.01-2.5,2.62-3.61l1.76.77ZM369.41,121.13h-5.62c-.18.59-.43,1.33-.68,2.01h8.14v6.77h-1.51v-.79h-12.61v.83h-1.47v-6.81h6c.18-.61.38-1.35.54-2.01h-4.89v-5.25h12.09v5.25ZM369.75,127.76v-3.27h-12.61v3.27h12.61ZM358.76,117.1v2.82h9.16v-2.82h-9.16ZM362.35,108.98c.77.99,1.62,2.35,1.94,3.22l-1.33.56c-.32-.9-1.15-2.28-1.92-3.32l1.31-.47Z"/>
    <path class="cls-11" d="M395.78,124.45h-7.83c2.1,1.74,5.39,3.18,8.37,3.83-.34.32-.79.92-1.01,1.33-3.14-.88-6.61-2.68-8.82-4.83v5.16h-1.51v-5.05c-2.21,2.05-5.68,3.77-8.75,4.65-.2-.38-.65-.97-.99-1.29,2.93-.68,6.18-2.12,8.28-3.81h-7.69v-1.31h9.16v-1.83h-6.99v-1.22h6.99v-1.8h-8.14v-1.26h5.14c-.23-.7-.7-1.67-1.17-2.39l.88-.18h-5.77v-1.33h3.79c-.34-.95-1.15-2.37-1.89-3.43l1.29-.45c.81,1.04,1.67,2.48,2.01,3.43l-1.19.45h2.95v-4.15l1.92.11c-.02.23-.2.34-.5.38v3.65h2.93v-4.15l1.96.11c-.02.23-.23.34-.52.38v3.65h2.84c-.29-.11-.63-.25-.83-.32.65-.97,1.44-2.48,1.85-3.52l1.78.61c-.04.14-.23.2-.47.2-.47.88-1.2,2.12-1.83,3.02h3.7v1.33h-5.1l.65.2c-.07.16-.25.23-.47.2-.32.61-.81,1.49-1.26,2.17h5.35v1.26h-8.37v1.8h7.26v1.22h-7.26v1.83h9.29v1.31ZM388.04,116.89c.41-.65.92-1.65,1.26-2.44h-7.01c.52.74,1.02,1.74,1.24,2.41l-.7.16h5.57l-.36-.14Z"/>
    <path class="cls-11" d="M405.07,110.49v14.93h-4.96v1.83h-1.44v-16.76h6.4ZM403.65,111.89h-3.54v5.3h3.54v-5.3ZM400.11,124.02h3.54v-5.46h-3.54v5.46ZM412.85,116.26h5.93v1.38h-13.31v-1.38h5.89v-3.09h-4.92v-1.35h4.92v-2.8l1.94.11c-.02.16-.16.27-.45.32v2.37h5.03v1.35h-5.03v3.09ZM416.44,118.27c-.02.16-.14.27-.43.29v1.94h2.73v1.35h-2.73v6.31c0,.92-.2,1.35-.9,1.58-.68.23-1.83.25-3.7.25-.07-.41-.29-1.01-.52-1.42.86.02,1.67.04,2.25.04,1.26,0,1.38,0,1.38-.47v-6.29h-8.95v-1.35h8.95v-2.35l1.92.11ZM410.01,127.63c-.52-1.13-1.78-2.84-2.95-4.06l1.22-.72c1.2,1.17,2.5,2.84,3.04,3.97l-1.31.81Z"/>
    <path class="cls-11" d="M429.77,117.77h-6.72v12.2h-1.49v-19.98h8.21v7.78ZM428.32,111.19h-5.28v2.07h5.28v-2.07ZM423.05,116.58h5.28v-2.17h-5.28v2.17ZM435.09,127.81h-7.1v1.2h-1.4v-9.45h8.5v8.25ZM433.65,120.77h-5.66v2.25h5.66v-2.25ZM427.99,126.59h5.66v-2.37h-5.66v2.37ZM440.32,109.99v17.86c0,2.01-.88,2.1-4.78,2.1-.04-.43-.29-1.15-.52-1.58.72.02,1.44.04,2.01.04,1.65,0,1.78,0,1.78-.56v-10.06h-6.9v-7.8h8.41ZM438.81,111.19h-5.44v2.07h5.44v-2.07ZM433.38,116.6h5.44v-2.19h-5.44v2.19Z"/>
    <path class="cls-11" d="M334.83,155.21c0-1.42,1.13-2.53,2.53-2.53s2.53,1.13,2.53,2.53-1.13,2.53-2.53,2.53-2.53-1.15-2.53-2.53Z"/>
    <path class="cls-11" d="M373,150.23h-4.71v1.56c0,4.31-1.33,8.68-7.22,11.34-.29-.36-.77-.81-1.17-1.13,5.73-2.48,6.79-6.5,6.79-10.19v-1.58h-7.28v5.62h-1.6v-5.62h-4.42v-1.53h4.42v-4.89l2.17.14c-.02.23-.23.43-.56.47v4.28h7.28v-5.19l2.17.14c-.02.2-.2.38-.56.43v4.62h4.71v1.53Z"/>
    <path class="cls-11" d="M376,152.1h18.83v1.6h-17.97c-.14.23-.43.38-.72.43l-.14-2.03Z"/>
    <path class="cls-11" d="M411.05,160.67c.9-.02,3.32-.11,4.74-.34.02.5.04,1.13.09,1.62-1.49.16-3.74.25-4.67.25h-5.64c-3.41,0-5.05-1.49-5.05-4.71v-13.15l2.21.14c-.04.23-.2.36-.61.41v7.35c3.45-1.08,8.25-2.89,11.19-4.47l1.15,1.56c-.07.04-.18.07-.27.07-.11,0-.2-.02-.32-.07-2.73,1.38-7.87,3.27-11.75,4.44v3.77c0,2.28,1.11,3.13,3.43,3.13h5.5ZM413.17,143.69c1.04.92,2.17,2.32,2.8,3.31l-.86.65c-.63-.99-1.8-2.46-2.75-3.32l.81-.65ZM415.94,142.34c1.02.92,2.17,2.3,2.8,3.29l-.86.65c-.63-.99-1.83-2.44-2.75-3.29l.81-.65Z"/>
    <path class="cls-11" d="M434.93,145.79c-.04.11-.16.2-.29.25-1.22,2.86-2.66,5.35-4.51,7.76,2.46,1.96,6.16,5.32,8.25,7.65l-1.38,1.2c-1.98-2.3-5.62-5.73-7.92-7.58-1.98,2.41-5.41,5.71-8.68,7.58-.25-.34-.79-.9-1.17-1.22,6.25-3.43,11.19-9.83,13.22-14.73h-11.07v-1.53h11.95l.29-.11,1.31.74Z"/>
    <path class="cls-11" d="M458.7,148.79c-.04.09-.09.2-.2.29-.29,6.5-.92,10.58-1.8,12.18-.9,1.56-2.21,1.62-2.96,1.62-.88,0-2.48-.2-4.04-.52.04-.45,0-1.13-.07-1.6,1.69.38,3.43.56,3.95.56.81,0,1.26-.2,1.74-1.06.68-1.38,1.24-5.16,1.47-10.24h-7.22c-1.13,5.39-3.36,9.86-7.44,12.92-.27-.29-.86-.72-1.29-.99,3.9-2.93,5.95-6.79,7.04-11.93h-6.22v-1.51h6.54c.27-1.6.41-3.04.52-4.92l2.23.18c-.02.25-.23.38-.56.41-.13,1.65-.25,2.89-.5,4.33h7.31l.36-.14,1.15.41Z"/>
    <path class="cls-11" d="M478.71,147.27c-.02.11-.14.2-.27.25-.83,2.8-1.96,5.37-3.32,7.46.97.56,2.08,1.26,2.91,1.87l-.95,1.49c-.81-.63-1.96-1.38-2.91-1.96-2.08,2.89-4.74,5.21-8.14,6.86-.25-.38-.83-.92-1.24-1.17,3.29-1.53,5.93-3.81,7.98-6.5-1.67-.92-3.32-1.71-4.98-2.35l.86-1.26c1.65.59,3.34,1.35,5.07,2.28,1.17-1.85,2.1-3.81,2.73-5.98h-7.65c-1.38,2.3-3.23,4.58-5.21,6.2-.29-.27-.9-.77-1.29-1.01,2.95-2.26,5.75-6.31,7.1-10.17l2.14.5c-.09.25-.32.32-.61.29-.32.74-.83,1.85-1.26,2.68h7.49l.32-.09,1.22.61Z"/>
    <path class="cls-11" d="M500.03,146.55v14.88h-1.62v-1.42h-12.43v1.47h-1.58v-14.93h15.63ZM498.4,158.51v-10.44h-12.43v10.44h12.43Z"/>
    <path class="cls-11" d="M520.51,147.95c-.09.14-.2.25-.34.34-2.39,7.46-6.09,11.98-12.2,15.09-.25-.38-.7-.9-1.15-1.24,5.8-2.82,9.43-7.15,11.34-13.28h-7.96c-1.31,2.03-2.98,3.92-4.98,5.5-.29-.32-.83-.74-1.26-1.02,3.07-2.3,5.62-5.86,7.15-9.88l2.12.59c-.07.23-.34.32-.63.29-.45,1.02-.97,2.1-1.49,3h7.85l.27-.14,1.29.74ZM517.71,142.76c1.06.86,2.3,2.23,2.96,3.2l-.83.72c-.68-1.04-1.89-2.37-2.91-3.2l.79-.72ZM520.98,142.11c1.06.86,2.3,2.21,2.95,3.2l-.83.7c-.68-1.01-1.85-2.32-2.91-3.18l.79-.72Z"/>
    <path class="cls-11" d="M334.83,189.05c0-1.42,1.13-2.53,2.53-2.53s2.53,1.13,2.53,2.53-1.13,2.53-2.53,2.53-2.53-1.15-2.53-2.53Z"/>
    <path class="cls-11" d="M372.3,186.99h-7.87c-.5,4.33-1.96,7.58-6.34,10.06-.34-.36-.88-.79-1.26-1.08,4.06-2.21,5.53-5.01,6-8.98h-9.2v-1.49h9.31c.11-1.49.11-3.02.13-4.83-2.3.52-5.28,1.02-7.76,1.29-.11-.43-.27-.88-.47-1.31,7.92-.95,12.58-2.5,13.98-3.11l1.2,1.33c-.09.05-.18.07-.29.07-.09,0-.16,0-.25-.02-1.26.47-3.27,1.06-5.05,1.49l.74.07c-.02.2-.18.34-.47.38-.02,1.69-.04,3.22-.14,4.65h7.74v1.49Z"/>
    <path class="cls-11" d="M375.55,185.93h18.83v1.6h-17.97c-.14.23-.43.38-.72.43l-.14-2.03Z"/>
    <path class="cls-11" d="M415.31,196.35c-.34-.77-.75-1.58-1.2-2.39-4.69.5-12.4.97-15.85,1.15-.07.23-.23.41-.43.45l-.61-2.03c.68-.02,1.49-.04,2.37-.09,1.49-4.33,3.63-11.07,4.87-15.58l2.19.59c-.09.2-.32.32-.65.32-1.24,4.15-3.18,10.19-4.74,14.61,3.74-.16,9.09-.54,12.07-.81-1.17-1.94-2.66-3.99-4.01-5.5l1.35-.77c2.37,2.59,5.07,6.88,6.22,9.34l-1.58.72Z"/>
    <path class="cls-11" d="M430.38,180.77c-.09.2-.27.36-.56.36-.81,7.01-3.16,13.13-6.9,13.13-1.89,0-3.61-1.89-3.61-5.46,0-5.41,4.22-9.95,10.15-9.95,6.52,0,9.34,4.13,9.34,8.52,0,5.37-3.11,7.96-8.57,9.22-.2-.36-.59-.97-.95-1.38,5.19-.99,7.85-3.52,7.85-7.78,0-3.72-2.39-7.1-7.67-7.1-.22,0-.47.02-.68.05l1.6.38ZM428.21,180.48c-4.56.56-7.37,4.33-7.37,8.28,0,2.41,1.04,3.92,2.12,3.92,2.73,0,4.69-6.02,5.25-12.2Z"/>
    <path class="cls-11" d="M460.33,183.7h-6.74l.09,10.96c.04,2.28-1.49,2.35-5.64,2.3-.07-.41-.23-1.04-.41-1.47,1.49.02,3.27.02,3.68-.02.54-.07.81-.43.79-.83l-.09-9.74c-2.3,3.38-6.04,6.9-9.72,9.07-.27-.41-.7-.88-1.11-1.22,3.68-2.03,7.56-5.57,9.86-9.04h-8.98v-1.53h9.9l-.04-4.87,2.17.09c-.02.25-.25.38-.56.43l.04,4.35h6.77v1.53Z"/>
    <path class="cls-11" d="M464.14,179.12c2.34.74,5.05,1.92,6.72,3.07l-.86,1.42c-1.62-1.15-4.29-2.35-6.58-3.13l.72-1.35ZM464.05,194.75c8.01-2.48,13.33-6.97,16.04-13.22.47.38.99.68,1.47.92-2.82,6.18-8.32,10.98-15.97,13.53-.02.2-.16.43-.32.52l-1.22-1.76Z"/>
    <path class="cls-11" d="M489.79,187.2c-1.01,2.64-2.5,4.96-4.24,6.68l-1.31-.86c1.69-1.58,3.16-3.74,4.08-6.36l1.47.54ZM494.61,183.72v10.67c0,2.46-1.74,2.46-5.34,2.46-.09-.41-.27-1.06-.5-1.51.65.02,1.38.02,1.98.02h1.31c.63,0,.92-.41.92-.95v-10.69h-7.67v-1.51h7.67v-4.69l2.14.11c-.02.23-.18.38-.52.43v4.15h7.62v1.51h-7.62ZM498.65,186.5c1.65,1.83,3.54,4.47,4.76,6.56l-1.44.83c-1.11-2.07-3.09-4.96-4.6-6.7l1.29-.7ZM498.38,177.32c1.01.9,2.17,2.28,2.82,3.29l-.86.65c-.65-.99-1.85-2.46-2.82-3.27l.86-.68ZM501.63,176.3c1.04.92,2.21,2.28,2.84,3.27l-.86.68c-.65-.99-1.87-2.41-2.82-3.27l.83-.68Z"/>
    <path class="cls-11" d="M506.59,185.93h18.83v1.6h-17.97c-.14.23-.43.38-.72.43l-.14-2.03Z"/>
    <path class="cls-11" d="M547.01,186.16h-7.44l.38.11c-.02.14-.2.25-.45.27-.59,4.08-2.44,8.14-6.97,10.42-.25-.29-.83-.81-1.22-1.11,4.44-2.21,6-5.64,6.52-9.7h-8.62v-1.51h17.79v1.51ZM543.69,180h-12.52v-1.51h12.52v1.51ZM543.99,176.69c.92.97,1.96,2.5,2.48,3.56l-.9.61c-.47-1.04-1.56-2.64-2.46-3.56l.88-.61ZM546.65,175.92c.92.97,2.01,2.5,2.55,3.54l-.92.56c-.47-.99-1.6-2.59-2.48-3.52l.86-.59Z"/>
    <path class="cls-11" d="M563.97,182.57c-.09.11-.23.16-.38.16-.11,0-.2-.02-.32-.04-1.44,1.44-3.29,2.98-4.96,4.17.29.11.43.16.5.2-.05.09-.2.2-.38.25v9.79h-1.38v-9.4c-1.92,1.35-4.98,3.13-7.42,4.31-.18-.27-.54-.81-.81-1.06,3.88-1.78,9.7-5.19,13.6-9.47l1.56,1.1Z"/>
    <path class="cls-11" d="M568.12,179.12c2.34.74,5.05,1.92,6.72,3.07l-.86,1.42c-1.62-1.15-4.29-2.35-6.58-3.13l.72-1.35ZM568.03,194.75c8.01-2.48,13.33-6.97,16.04-13.22.47.38.99.68,1.47.92-2.82,6.18-8.32,10.98-15.97,13.53-.02.2-.16.43-.32.52l-1.22-1.76Z"/>
    <path class="cls-11" d="M603.74,181.78c-.09.14-.2.25-.34.34-2.39,7.46-6.09,11.98-12.2,15.09-.25-.38-.7-.9-1.15-1.24,5.8-2.82,9.43-7.15,11.34-13.28h-7.96c-1.31,2.03-2.98,3.92-4.98,5.5-.29-.32-.83-.74-1.26-1.02,3.07-2.3,5.62-5.86,7.15-9.88l2.12.59c-.07.23-.34.32-.63.29-.45,1.02-.97,2.1-1.49,3h7.85l.27-.14,1.29.74ZM600.94,176.6c1.06.86,2.3,2.23,2.95,3.2l-.83.72c-.68-1.04-1.89-2.37-2.91-3.2l.79-.72ZM604.21,175.94c1.06.86,2.3,2.21,2.95,3.2l-.83.7c-.68-1.01-1.85-2.32-2.91-3.18l.79-.72Z"/>
    <path class="cls-11" d="M334.83,222.88c0-1.42,1.13-2.53,2.53-2.53s2.53,1.13,2.53,2.53-1.13,2.53-2.53,2.53-2.53-1.15-2.53-2.53Z"/>
    <path class="cls-11" d="M372.48,219.04l1.13.27c-.07.25-2.84,4.01-5.41,6.11l-1.24-.79c1.26-1.01,2.75-2.62,3.92-4.13h-6.54c-.05.14-.16.2-.45.25v8.82c0,.97-.25,1.42-1.02,1.67-.77.23-2.1.23-4.1.23-.09-.43-.36-1.04-.59-1.47.97.02,1.87.04,2.57.04,1.47,0,1.58,0,1.58-.5v-9.04h-9.31v-1.44h12.13c-1.89-1.2-4.69-2.53-7.04-3.36l1.04-1.1c1.4.47,2.98,1.13,4.44,1.83,1.51-.86,3.18-2.05,4.42-3.16h-12.86v-1.42h13.96c.43,0,.47,0,.79-.09l1.35.9c-.09.09-.25.16-.41.18-1.47,1.42-3.7,3.11-5.75,4.35.88.47,1.67.95,2.28,1.38l-.43.5h5.21l.32-.02Z"/>
    <path class="cls-11" d="M378.34,223.94c-.04.14-.18.23-.45.23-.36,1.92-.99,4.08-1.76,5.41-.27-.18-.81-.43-1.15-.59.74-1.26,1.31-3.43,1.67-5.48l1.69.43ZM380.84,211.2c-.11.16-.29.2-.47.18-.7,1.31-1.83,3.13-2.77,4.42.61.59,1.17,1.17,1.58,1.69,1.11-1.53,2.17-3.13,2.91-4.44l1.62.77c-.07.14-.25.18-.5.18-1.26,1.96-3.25,4.62-5.01,6.59,1.44-.02,3-.05,4.58-.09-.45-.74-.97-1.51-1.49-2.14.63-.34.88-.45,1.11-.59,1.15,1.42,2.37,3.32,2.84,4.56l-1.17.68c-.16-.38-.36-.83-.63-1.33l-2.62.14v9.65h-1.42v-9.58c-1.4.05-2.66.11-3.65.14-.04.18-.18.27-.34.29l-.41-1.69h1.69c.54-.61,1.11-1.29,1.67-2.03-.72-.97-2.01-2.23-3.11-3.13l.74-.97c.23.18.45.36.7.54.88-1.31,1.92-3.18,2.5-4.51l1.65.7ZM383.53,228.4c-.25-1.22-.97-3.11-1.67-4.53l1.22-.43c.72,1.42,1.47,3.27,1.76,4.49l-1.31.47ZM394.85,214.76l.81.09c0,.14-.02.34-.04.5-.36,10.58-.72,14.12-1.62,15.22-.61.74-1.22.88-2.77.88-.77,0-1.69-.02-2.59-.09-.04-.43-.2-1.04-.5-1.44,1.56.14,2.98.16,3.54.16.45,0,.75-.07.99-.36.74-.79,1.13-4.28,1.47-13.46h-7.08c-.61,1.4-1.31,2.66-2.03,3.63-.29-.23-.86-.61-1.24-.81,1.51-1.96,2.82-5.32,3.61-8.59l1.89.5c-.04.2-.25.27-.5.25-.32,1.2-.7,2.39-1.15,3.56h6.88l.34-.02ZM387.48,219.74c1.31,1.65,2.71,3.83,3.25,5.3l-1.33.72c-.52-1.44-1.87-3.72-3.16-5.39l1.24-.63Z"/>
    <path class="cls-11" d="M397.65,225.67c1.24-.68,3.11-1.76,4.96-2.86v-12.29l1.94.11c-.02.16-.16.27-.45.32v20.5h-1.49v-7.04c-1.42.95-2.84,1.87-3.83,2.48.02.16-.07.32-.18.43l-.95-1.65ZM399.18,213.52c1.08,1.4,2.25,3.23,2.68,4.44-.68.43-1.01.56-1.33.72-.45-1.22-1.56-3.13-2.62-4.56l1.26-.61ZM418.69,218.84h-6.04c.97,5.12,2.89,9.34,6.36,11.28-.38.32-.86.9-1.13,1.31-3.16-1.98-5.01-5.66-6.11-10.35h-.02c-.74,4.13-2.37,7.94-5.89,10.35-.25-.34-.74-.79-1.13-1.04,3.86-2.55,5.28-6.9,5.82-11.55h-5.57v-1.51h5.71c.18-2.3.18-4.62.18-6.79l2.08.11c-.02.2-.2.32-.54.38-.02,1.98-.04,4.13-.2,6.29h6.5v1.51ZM415.26,211.24c1.22,1.1,2.55,2.68,3.13,3.77l-1.24.72c-.54-1.08-1.87-2.71-3.07-3.83l1.17-.65Z"/>
    <path class="cls-11" d="M421.15,217.04c1.62.47,3.65,1.33,4.67,2.05l-.79,1.33c-1.02-.74-3.02-1.69-4.65-2.23l.77-1.15ZM421.26,230.21c1.31-1.83,3.27-4.98,4.69-7.65.88.72.97.83,1.08.95-1.31,2.5-3.02,5.44-4.26,7.24.07.11.09.2.09.29,0,.11-.05.2-.09.27l-1.51-1.1ZM422.66,210.65c1.49.54,3.38,1.47,4.31,2.21l-.88,1.29c-.9-.79-2.75-1.76-4.26-2.37l.83-1.13ZM432.63,221.71c-.04.18-.18.27-.43.29-.47,4.67-2.14,7.87-5.53,9.47-.25-.29-.77-.77-1.13-1.01,3.32-1.44,4.8-4.4,5.14-8.98l1.94.23ZM436.55,229.01c0,.65.09.77.72.77h2.03c.59,0,.68-.45.74-3.09.32.27.92.5,1.35.61-.16,3.04-.54,3.83-1.96,3.83h-2.37c-1.62,0-2.03-.47-2.03-2.14v-8.19h-6.83v-9.27h11.86v9.27h-4.38v.02l1.31.07c-.02.16-.16.27-.45.32v7.8ZM429.68,212.98v6.41h8.84v-6.41h-8.84Z"/>
  </g>
  <rect class="cls-38" x="312.83" y="321.23" width="365.17" height="252.77" rx="19.94" ry="19.94"/>
  <text class="cls-8" transform="translate(334.11 363.09)"><tspan x="0" y="0">予約の手</tspan><tspan class="cls-24" x="100" y="0">続</tspan><tspan class="cls-23" x="124.5" y="0">き</tspan></text>
  <g>
    <path class="cls-11" d="M333.83,408.61c0-1.42,1.13-2.53,2.53-2.53s2.53,1.13,2.53,2.53-1.13,2.53-2.53,2.53-2.53-1.15-2.53-2.53Z"/>
    <path class="cls-11" d="M362.61,415.81h-6.11v1.08h-1.17v-7.08c-.25.38-.52.74-.79,1.06l-.52-.54c-.18,2.26-.59,4.65-1.4,6.52-.25-.25-.81-.68-1.13-.81,1.24-2.95,1.38-7.04,1.38-9.95v-5.89h9.18v4.67h-7.87v1.22c0,1.06-.02,2.28-.11,3.54.88-1.17,1.67-2.89,2.17-4.6l1.49.45c-.04.14-.2.23-.43.23-.16.45-.34.92-.54,1.4h1.83c.29-.68.56-1.47.74-2.01l1.47.52c-.04.11-.2.18-.43.18-.16.36-.36.83-.61,1.31h2.68v1.08h-2.75v1.49h2.5v.99h-2.5v1.49h2.5v1.02h-2.5v1.53h2.93v1.1ZM362.37,397.34v1.31h-10.33v-1.31h10.33ZM360.67,401.35h-6.5v2.35h6.5v-2.35ZM358.58,409.67v-1.49h-2.08v1.49h2.08ZM358.58,412.15v-1.49h-2.08v1.49h2.08ZM358.58,414.7v-1.53h-2.08v1.53h2.08ZM367.39,414.23c-.07.09-.23.14-.41.16-.79.95-2.41,2.14-3.79,2.84-.23-.27-.7-.7-1.01-.97,1.4-.65,3-1.8,3.77-2.75l1.44.72ZM364.03,401.01h2.68c.11-.72.25-1.58.34-2.32h-3.83v-1.35h9.47v1.35h-4.19c-.11.68-.27,1.56-.43,2.32h4.04v11.91h-8.07v-11.91ZM370.78,404.58v-2.35h-5.44v2.35h5.44ZM370.78,408.12v-2.37h-5.44v2.37h5.44ZM370.78,411.68v-2.39h-5.44v2.39h5.44ZM371.81,417.23c-.63-.83-1.94-2.1-3.02-2.98l1.13-.7c1.08.81,2.41,2.05,3.07,2.89l-1.17.79Z"/>
    <path class="cls-11" d="M389.95,401.87l1.13.68c-.07.09-.18.16-.29.18-1.11,1.62-2.68,3.04-4.51,4.26,2.62,1.26,5.75,2.14,9.04,2.57-.34.34-.74.99-.97,1.42-1.11-.18-2.17-.41-3.23-.68v6.83h-1.56v-.77h-9.58v.79h-1.47v-6.56c-1.2.36-2.41.7-3.59.95-.14-.38-.47-1.01-.74-1.33,3.09-.59,6.43-1.67,9.27-3.16-1.26-.83-2.39-1.78-3.31-2.86-1.06.86-2.3,1.67-3.72,2.37-.23-.34-.68-.83-1.04-1.06,3.16-1.44,5.41-3.5,6.58-5.28l1.89.32c-.02.18-.18.27-.45.29-.27.36-.56.74-.9,1.13h7.15l.29-.09ZM376.8,399.95v2.64h-1.47v-4.06h8.59v-2.32l2.01.14c-.02.16-.16.27-.45.29v1.89h8.73v4.06h-1.53v-2.64h-15.88ZM390.49,410.15c-2.03-.56-3.95-1.33-5.66-2.25-1.56.88-3.27,1.62-5.01,2.25h10.67ZM379.98,415.06h9.58v-3.61h-9.58v3.61ZM381.29,403.2l-.07.07c.92,1.13,2.19,2.12,3.63,2.98,1.47-.9,2.73-1.92,3.7-3.04h-7.26Z"/>
    <path class="cls-11" d="M399.2,400.83c0,2.01-.38,4.44-1.31,5.89-.83-.5-.97-.56-1.13-.63.81-1.24,1.17-3.54,1.22-5.44l1.22.18ZM400.08,396.21l1.92.14c-.02.16-.14.27-.43.29v20.5h-1.49v-20.93ZM403.55,403.52c-.32-.86-1.01-2.28-1.62-3.31l1.04-.52c.65,1.02,1.38,2.35,1.67,3.18l-1.08.65ZM411.47,403.81h6.29v1.29h-13.96v-1.29h6.09v-1.65h-4.4v-1.17h4.4v-1.53h-5.3v-1.22h5.3v-2.03l2.03.14c-.02.16-.14.27-.45.32v1.58h5.5v1.22h-5.5v1.53h4.58v1.17h-4.58v1.65ZM415.73,406.61v8.95c0,1.47-.59,1.62-3.72,1.62-.07-.38-.27-.92-.47-1.31.63.02,1.22.04,1.65.04.92,0,1.04,0,1.04-.36v-2.01h-7.01v3.59h-1.47v-10.53h9.99ZM414.22,407.85h-7.01v1.69h7.01v-1.69ZM407.2,412.4h7.01v-1.71h-7.01v1.71Z"/>
    <path class="cls-11" d="M425.41,399.84v2.53h4.53v1.33h-10.46v-1.33h4.51v-2.53h-3.61v-1.31h3.61v-2.28l1.85.11c-.02.16-.13.27-.43.29v1.87h3.59v1.31h-3.59ZM425.79,407.3c.47-.9,1.06-2.39,1.35-3.36l1.6.54c-.07.14-.23.2-.47.2-.36.79-.92,1.98-1.44,2.8h2.71v1.33h-4.15v2.62h3.86v1.33h-3.86v4.44h-1.42v-4.44h-3.88v-1.33h3.88v-2.62h-4.17v-1.33h6.41l-.41-.18ZM422.09,407.35c-.11-.81-.54-2.12-1.04-3.11l1.17-.32c.5.97.95,2.25,1.08,3.04l-1.22.38ZM438.64,405.86l.95.34c-.04.14-.09.2-.16.29-.41,2.39-1.24,4.76-2.48,6.79.99,1.13,2.14,2.03,3.43,2.59-.36.32-.83.9-1.06,1.31-1.22-.63-2.3-1.53-3.25-2.64-.77.95-1.62,1.78-2.64,2.46-.25-.34-.68-.77-1.04-1.01,1.06-.7,1.99-1.6,2.75-2.66-1.11-1.56-1.96-3.41-2.55-5.35l1.22-.32c.5,1.56,1.24,3.07,2.14,4.38.83-1.47,1.42-3.11,1.78-4.78h-5.75v9.95h-1.44v-19.91h8.77v5.66c0,1.62-.81,1.62-3.88,1.62-.04-.38-.27-.92-.45-1.31.59,0,1.15.02,1.58.02,1.24,0,1.33,0,1.33-.36v-4.24h-5.91v7.24h6.38l.27-.07Z"/>
    <path class="cls-11" d="M333.83,442.45c0-1.42,1.13-2.53,2.53-2.53s2.53,1.13,2.53,2.53-1.13,2.53-2.53,2.53-2.53-1.15-2.53-2.53Z"/>
    <path class="cls-11" d="M372,437.46h-4.71v1.56c0,4.31-1.33,8.68-7.22,11.34-.29-.36-.77-.81-1.17-1.13,5.73-2.48,6.79-6.5,6.79-10.19v-1.58h-7.28v5.62h-1.6v-5.62h-4.42v-1.53h4.42v-4.89l2.17.14c-.02.23-.23.43-.56.47v4.29h7.28v-5.19l2.17.14c-.02.2-.2.38-.56.43v4.62h4.71v1.53Z"/>
    <path class="cls-11" d="M375,439.33h18.83v1.6h-17.97c-.14.23-.43.38-.72.43l-.14-2.03Z"/>
    <path class="cls-11" d="M410.05,447.9c.9-.02,3.32-.11,4.74-.34.02.5.04,1.13.09,1.62-1.49.16-3.74.25-4.67.25h-5.64c-3.41,0-5.05-1.49-5.05-4.71v-13.15l2.21.14c-.04.23-.2.36-.61.41v7.35c3.45-1.08,8.25-2.89,11.19-4.47l1.15,1.56c-.07.04-.18.07-.27.07-.11,0-.2-.02-.32-.07-2.73,1.38-7.87,3.27-11.75,4.44v3.77c0,2.28,1.11,3.13,3.43,3.13h5.5ZM412.17,430.92c1.04.92,2.17,2.32,2.8,3.31l-.86.65c-.63-.99-1.8-2.46-2.75-3.32l.81-.65ZM414.94,429.57c1.02.92,2.17,2.3,2.8,3.29l-.86.65c-.63-.99-1.83-2.44-2.75-3.29l.81-.65Z"/>
    <path class="cls-11" d="M433.93,433.02c-.04.11-.16.2-.29.25-1.22,2.86-2.66,5.35-4.51,7.76,2.46,1.96,6.16,5.32,8.25,7.65l-1.38,1.2c-1.98-2.3-5.62-5.73-7.92-7.58-1.98,2.41-5.41,5.71-8.68,7.58-.25-.34-.79-.9-1.17-1.22,6.25-3.43,11.19-9.83,13.22-14.73h-11.07v-1.53h11.95l.29-.11,1.31.74Z"/>
    <path class="cls-11" d="M443.92,439.08v7.44c1.76,2.71,5.1,2.71,8.98,2.71,2.59,0,5.75-.07,7.62-.18-.2.34-.43,1.02-.5,1.44-1.56.04-4.06.09-6.34.09-5.03,0-8.16,0-10.4-2.8-.99,1.01-2.05,2.01-2.89,2.8,0,.18-.04.25-.2.34l-.86-1.53c.95-.74,2.12-1.74,3.13-2.71v-6.16h-2.91v-1.44h4.35ZM440.92,430.6c1.38,1.08,2.91,2.66,3.56,3.81l-1.26.88c-.61-1.17-2.12-2.82-3.47-3.92l1.17-.77ZM460.18,443.3v1.22h-15.25v-1.22h4.22v-2.26h-3.29v-1.22h3.29v-1.8l1.89.13c-.02.16-.16.27-.45.29v1.38h3.81v-1.8l1.89.13c-.02.16-.16.27-.45.32v1.35h3.41v1.22h-3.41v2.26h4.33ZM449.81,433.67v-1.58h-4.56v-1.11h5.89v3.79h-4.01v1.24c0,.43.11.52.83.52h2.57c.54,0,.65-.14.7-1.17.27.2.79.34,1.15.43-.14,1.49-.52,1.85-1.67,1.85h-2.86c-1.6,0-2.03-.29-2.03-1.6v-2.37h3.99ZM451.73,445.33c-.11.18-.29.2-.47.16-1.24,1.04-3.11,2.14-4.71,2.84-.25-.27-.72-.7-1.04-.93,1.58-.61,3.45-1.65,4.6-2.73l1.62.65ZM450.6,441.05v2.26h3.81v-2.26h-3.81ZM457.55,433.67v-1.58h-4.85v-1.11h6.2v3.79h-4.26v1.24c0,.43.14.52.95.52h2.82c.59,0,.7-.14.74-1.26.29.18.81.34,1.17.43-.16,1.56-.54,1.94-1.74,1.94h-3.11c-1.69,0-2.14-.29-2.14-1.62v-2.35h4.22ZM454.79,444.68c1.89.86,3.97,2.01,5.19,2.96l-1.49.7c-1.06-.93-2.95-2.08-4.78-2.96l1.08-.7Z"/>
    <path class="cls-11" d="M469.77,441.38l-2.73.97v6.81c0,1.62-.74,1.87-3.74,1.83-.07-.36-.29-.99-.5-1.4,1.06.02,2.03.02,2.32.02.29-.02.43-.11.43-.43v-6.29c-1.06.36-2.03.7-2.8.95,0,.18-.11.32-.27.36l-.63-1.78c1.01-.27,2.3-.65,3.7-1.08v-5.3h-3.43v-1.42h3.43v-4.56l1.94.11c-.02.18-.13.27-.45.32v4.13h2.59v1.42h-2.59v4.83l2.53-.79.2,1.31ZM481.84,440.39h-4.56c.9,4.2,2.75,7.78,5.8,9.31-.36.32-.83.9-1.08,1.33-3.31-1.89-5.23-5.79-6.22-10.64h-3.07c-.11,3.52-.79,7.83-3.54,10.74-.2-.32-.83-.83-1.15-1.04,2.91-3.09,3.2-7.53,3.2-11v-7.94h10.62v9.25ZM480.33,432.61h-7.6v6.34h7.6v-6.34Z"/>
    <path class="cls-11" d="M333.83,476.28c0-1.42,1.13-2.53,2.53-2.53s2.53,1.13,2.53,2.53-1.13,2.53-2.53,2.53-2.53-1.15-2.53-2.53Z"/>
    <path class="cls-11" d="M371.48,472.44l1.13.27c-.07.25-2.84,4.01-5.41,6.11l-1.24-.79c1.26-1.02,2.75-2.62,3.92-4.13h-6.54c-.05.13-.16.2-.45.25v8.82c0,.97-.25,1.42-1.02,1.67-.77.23-2.1.23-4.1.23-.09-.43-.36-1.04-.59-1.47.97.02,1.87.04,2.57.04,1.47,0,1.58,0,1.58-.5v-9.04h-9.31v-1.44h12.13c-1.89-1.2-4.69-2.53-7.04-3.36l1.04-1.1c1.4.47,2.98,1.13,4.44,1.83,1.51-.86,3.18-2.05,4.42-3.16h-12.86v-1.42h13.96c.43,0,.47,0,.79-.09l1.35.9c-.09.09-.25.16-.41.18-1.47,1.42-3.7,3.11-5.75,4.35.88.47,1.67.95,2.28,1.38l-.43.5h5.21l.32-.02Z"/>
    <path class="cls-11" d="M377.34,477.34c-.04.13-.18.22-.45.22-.36,1.92-.99,4.08-1.76,5.41-.27-.18-.81-.43-1.15-.59.74-1.26,1.31-3.43,1.67-5.48l1.69.43ZM379.84,464.6c-.11.16-.29.2-.47.18-.7,1.31-1.83,3.13-2.77,4.42.61.59,1.17,1.17,1.58,1.69,1.11-1.53,2.17-3.13,2.91-4.44l1.62.77c-.07.14-.25.18-.5.18-1.26,1.96-3.25,4.62-5.01,6.58,1.44-.02,3-.05,4.58-.09-.45-.74-.97-1.51-1.49-2.14.63-.34.88-.45,1.11-.59,1.15,1.42,2.37,3.32,2.84,4.56l-1.17.68c-.16-.38-.36-.83-.63-1.33l-2.62.13v9.65h-1.42v-9.58c-1.4.05-2.66.11-3.65.14-.04.18-.18.27-.34.29l-.41-1.69h1.69c.54-.61,1.11-1.29,1.67-2.03-.72-.97-2.01-2.23-3.11-3.13l.74-.97c.23.18.45.36.7.54.88-1.31,1.92-3.18,2.5-4.51l1.65.7ZM382.53,481.8c-.25-1.22-.97-3.11-1.67-4.53l1.22-.43c.72,1.42,1.47,3.27,1.76,4.49l-1.31.47ZM393.85,468.16l.81.09c0,.14-.02.34-.04.5-.36,10.58-.72,14.12-1.62,15.22-.61.74-1.22.88-2.77.88-.77,0-1.69-.02-2.59-.09-.04-.43-.2-1.04-.5-1.44,1.56.13,2.98.16,3.54.16.45,0,.75-.07.99-.36.74-.79,1.13-4.29,1.47-13.46h-7.08c-.61,1.4-1.31,2.66-2.03,3.63-.29-.23-.86-.61-1.24-.81,1.51-1.96,2.82-5.32,3.61-8.59l1.89.5c-.04.2-.25.27-.5.25-.32,1.2-.7,2.39-1.15,3.56h6.88l.34-.02ZM386.48,473.14c1.31,1.65,2.71,3.83,3.25,5.3l-1.33.72c-.52-1.44-1.87-3.72-3.16-5.39l1.24-.63Z"/>
    <path class="cls-11" d="M404.07,465.38v14.93h-4.96v1.83h-1.44v-16.76h6.4ZM402.65,466.78h-3.54v5.3h3.54v-5.3ZM399.11,478.92h3.54v-5.46h-3.54v5.46ZM411.85,471.16h5.93v1.38h-13.31v-1.38h5.89v-3.09h-4.92v-1.35h4.92v-2.8l1.94.11c-.02.16-.16.27-.45.32v2.37h5.03v1.35h-5.03v3.09ZM415.44,473.17c-.02.16-.14.27-.43.29v1.94h2.73v1.35h-2.73v6.31c0,.92-.2,1.35-.9,1.58-.68.23-1.83.25-3.7.25-.07-.41-.29-1.01-.52-1.42.86.02,1.67.05,2.25.05,1.26,0,1.38,0,1.38-.47v-6.29h-8.95v-1.35h8.95v-2.35l1.92.11ZM409.01,482.53c-.52-1.13-1.78-2.84-2.95-4.06l1.22-.72c1.2,1.17,2.5,2.84,3.04,3.97l-1.31.81Z"/>
    <path class="cls-11" d="M428.77,472.67h-6.72v12.2h-1.49v-19.98h8.21v7.78ZM427.32,466.08h-5.28v2.07h5.28v-2.07ZM422.05,471.47h5.28v-2.17h-5.28v2.17ZM434.09,482.71h-7.1v1.2h-1.4v-9.45h8.5v8.25ZM432.65,475.67h-5.66v2.25h5.66v-2.25ZM426.99,481.49h5.66v-2.37h-5.66v2.37ZM439.32,464.89v17.86c0,2.01-.88,2.1-4.78,2.1-.04-.43-.29-1.15-.52-1.58.72.02,1.44.04,2.01.04,1.65,0,1.78,0,1.78-.56v-10.06h-6.9v-7.8h8.41ZM437.81,466.08h-5.44v2.07h5.44v-2.07ZM432.38,471.5h5.44v-2.19h-5.44v2.19Z"/>
    <path class="cls-11" d="M453.73,468c-.09.2-.27.36-.56.36-.81,7.01-3.16,13.13-6.9,13.13-1.89,0-3.61-1.89-3.61-5.46,0-5.41,4.22-9.95,10.15-9.95,6.52,0,9.34,4.13,9.34,8.53,0,5.37-3.11,7.96-8.57,9.22-.2-.36-.59-.97-.95-1.38,5.19-.99,7.85-3.52,7.85-7.78,0-3.72-2.39-7.1-7.67-7.1-.22,0-.47.02-.68.04l1.6.38ZM451.57,467.71c-4.56.56-7.37,4.33-7.37,8.28,0,2.41,1.04,3.92,2.12,3.92,2.73,0,4.69-6.02,5.25-12.2Z"/>
    <path class="cls-11" d="M473.09,467.71v1.26h-8.62v-1.26h8.62ZM472.3,476.91v6.63h-5.44v1.06h-1.35v-7.69h6.79ZM465.53,472.02v-1.24h6.79v1.24h-6.79ZM465.53,475.08v-1.24h6.79v1.24h-6.79ZM472.25,464.71v1.24h-6.59v-1.24h6.59ZM470.94,478.2h-4.08v4.06h4.08v-4.06ZM476.4,466.02v1.4c0,1.94-.5,4.35-2.93,5.95-.23-.29-.79-.81-1.11-1.01,2.23-1.44,2.59-3.36,2.59-4.96v-2.77h7.1v5.71c0,.5.07.59.47.59h1.26c.43,0,.5-.29.54-2.55.29.25.9.47,1.29.56-.11,2.66-.5,3.31-1.67,3.31h-1.62c-1.33,0-1.71-.41-1.71-1.89v-4.33h-4.22ZM483.35,473.75l.99.41c-.02.11-.11.18-.18.25-.77,2.68-2.14,4.85-3.9,6.52,1.53,1.2,3.34,2.07,5.41,2.59-.34.32-.77.92-.99,1.31-2.14-.63-3.99-1.6-5.57-2.91-1.74,1.35-3.74,2.32-5.86,2.93-.16-.38-.52-1.01-.83-1.33,2.01-.52,3.92-1.38,5.59-2.62-1.42-1.46-2.55-3.2-3.34-5.23l1.35-.43c.7,1.8,1.76,3.38,3.11,4.71,1.35-1.29,2.46-2.86,3.18-4.76h-8.91v-1.4h9.68l.27-.04Z"/>
    <path class="cls-11" d="M498.28,477.79v4.92c1.2.23,2.5.29,3.92.29.79,0,4.76,0,5.8-.02-.25.38-.52,1.08-.59,1.53h-5.28c-4.85,0-8.37-.83-10.46-4.87-.81,2.21-1.96,4.06-3.54,5.3-.25-.29-.79-.74-1.15-.99,2.48-1.83,3.79-5.28,4.31-9.49l1.94.32c-.04.16-.18.27-.45.27-.13.9-.32,1.78-.52,2.64.95,2.53,2.48,3.88,4.46,4.6v-9.92h-5.75v-1.44h13.26v1.44h-5.95v3.99h6.92v1.44h-6.92ZM489.58,468.07v3.41h-1.49v-4.85h8.61v-2.77l2.05.13c-.02.16-.16.27-.47.32v2.32h8.71v4.85h-1.56v-3.41h-15.85Z"/>
    <path class="cls-11" d="M333.83,510.11c0-1.42,1.13-2.53,2.53-2.53s2.53,1.13,2.53,2.53-1.13,2.53-2.53,2.53-2.53-1.15-2.53-2.53Z"/>
    <path class="cls-11" d="M367.39,500.68c-.04.11-.16.2-.29.25-1.22,2.86-2.66,5.34-4.51,7.76,2.46,1.96,6.16,5.32,8.25,7.64l-1.38,1.2c-1.98-2.3-5.62-5.73-7.92-7.58-1.98,2.41-5.41,5.71-8.68,7.58-.25-.34-.79-.9-1.17-1.22,6.25-3.43,11.19-9.83,13.22-14.73h-11.07v-1.53h11.95l.29-.11,1.31.74Z"/>
    <path class="cls-11" d="M389.52,502.17c-.02.11-.14.2-.27.25-.83,2.8-1.96,5.37-3.32,7.46.97.56,2.08,1.26,2.91,1.87l-.95,1.49c-.81-.63-1.96-1.38-2.91-1.96-2.08,2.89-4.74,5.21-8.14,6.86-.25-.38-.83-.92-1.24-1.17,3.29-1.53,5.93-3.81,7.98-6.5-1.67-.92-3.32-1.71-4.98-2.35l.86-1.26c1.65.59,3.34,1.35,5.07,2.28,1.17-1.85,2.1-3.81,2.73-5.98h-7.65c-1.38,2.3-3.23,4.58-5.21,6.2-.29-.27-.9-.77-1.29-1.01,2.95-2.25,5.75-6.31,7.1-10.17l2.14.5c-.09.25-.32.32-.61.29-.32.74-.83,1.85-1.26,2.68h7.49l.32-.09,1.22.61Z"/>
    <path class="cls-11" d="M395.5,504.4c.68,1.38,1.42,3.54,1.69,4.85l-1.26.34c-.27-1.31-.97-3.36-1.65-4.8l1.22-.38ZM408.96,504.56c-.04.2-.27.25-.47.22-1.76,6.59-5.07,10.62-10.53,12.83-.18-.27-.59-.79-.88-1.04,5.39-2.12,8.48-5.82,10.13-12.54l1.76.52ZM400.98,503.32c.47,1.51.9,3.68,1.06,5.12l-1.33.25c-.14-1.44-.56-3.52-1.06-5.07l1.33-.29Z"/>
    <path class="cls-11" d="M429.67,501.25c-.07.11-.16.2-.29.25-1.78,8.55-6.2,13.62-13.58,16.22-.25-.38-.74-.99-1.04-1.31,6.99-2.28,11.28-7.31,12.63-14.14h-14.75v-1.51h15.34l.32-.2,1.38.7Z"/>
    <path class="cls-11" d="M444.26,501.83c-.09.2-.27.36-.56.36-.81,7.01-3.16,13.13-6.9,13.13-1.89,0-3.61-1.89-3.61-5.46,0-5.41,4.22-9.95,10.15-9.95,6.52,0,9.34,4.13,9.34,8.53,0,5.37-3.11,7.96-8.57,9.22-.2-.36-.59-.97-.95-1.38,5.19-.99,7.85-3.52,7.85-7.78,0-3.72-2.39-7.1-7.67-7.1-.22,0-.47.02-.68.04l1.6.38ZM442.1,501.54c-4.56.56-7.37,4.33-7.37,8.28,0,2.41,1.04,3.92,2.12,3.92,2.73,0,4.69-6.02,5.25-12.2Z"/>
    <path class="cls-11" d="M462.04,507.47v1.56h5.19v1.24h-11.82v-1.24h5.21v-1.56h-3.52v-1.15h3.52v-1.53h-3.9v-.92h-1.1v-3.79h4.98v-2.37l1.92.11c-.02.16-.16.27-.45.32v1.94h5.05v3.79h-1.11v.92h-3.97v1.53h3.54v1.15h-3.54ZM456.85,518.72v-7.15h9.02v6.9h-1.44v-.97h-6.18v1.22h-1.4ZM456.98,503.62h3.63v-1.74l1.85.11c-.02.16-.13.27-.43.29v1.33h3.65v-2.3h-8.71v2.3ZM464.43,512.79h-6.18v3.47h6.18v-3.47ZM470.4,500.59c-.02.16-.16.27-.45.32v12.18h-1.44v-12.61l1.89.11ZM473.49,498.16l1.94.11c-.04.16-.16.27-.45.32v18.06c0,1.83-.79,2.07-4.67,2.03-.09-.41-.32-1.08-.54-1.51.74.02,1.42.02,1.98.02,1.56,0,1.74,0,1.74-.54v-18.49Z"/>
    <path class="cls-11" d="M479.86,511.03c-.43-1.22-.63-2.98-.65-4.24,0-2.12.23-4.58.77-7.44l2.25.38c-.09.29-.36.36-.65.38-.45,1.87-.77,4.74-.77,6.56,0,.5.02.9.07,1.22.45-1.1,1.29-2.64,1.76-3.5.2.29.65.77.88.99-1.67,3-2.17,3.86-2.17,4.8,0,.18.02.36.07.56l-1.56.27ZM491.94,498.77c-.02.27-.2.38-.59.5.16,1.96.38,5.23.38,7.83-.02,4.35-1.6,8.28-8.39,11.1-.25-.36-.79-.97-1.13-1.31,6.16-2.35,7.8-6.07,7.8-9.76,0-2.77-.27-6.04-.52-8.46l2.44.11Z"/>
    <path class="cls-11" d="M506.83,497.84c-.02.16-.14.27-.45.31v7.8h7.58v12.76h-1.53v-.99h-15.52v-1.49h15.52v-3.77h-14.32v-1.47h14.32v-3.56h-15.09v-1.49h7.51v-8.25l1.98.14ZM498.42,498.74c1.29,1.6,2.55,3.77,3.09,5.21l-1.44.65c-.52-1.47-1.78-3.7-3-5.3l1.35-.56ZM514.59,499.31c-.09.14-.25.2-.52.2-.77,1.6-2.05,3.83-3.09,5.3-.02,0-1.29-.59-1.29-.59.99-1.51,2.28-3.95,3-5.68l1.89.77Z"/>
    <path class="cls-11" d="M518.11,500.77c1.69-.07,15.58-1.06,18.52-1.08l.02,1.69c-.29-.02-.56-.02-.83-.02-1.31,0-2.41.23-3.86,1.15-3.38,2.03-6.65,5.66-6.65,8.57,0,3.16,2.21,5.03,7.8,5.75l-.74,1.58c-6.41-.92-8.8-3.32-8.8-7.33,0-3.18,3.13-7.04,7.26-9.63-2.39.16-9.13.68-12.04.95-.07.18-.32.34-.5.36l-.18-1.98Z"/>
    <path class="cls-11" d="M333.83,543.94c0-1.42,1.13-2.53,2.53-2.53s2.53,1.13,2.53,2.53-1.13,2.53-2.53,2.53-2.53-1.15-2.53-2.53Z"/>
    <path class="cls-11" d="M371.48,540.11l1.13.27c-.07.25-2.84,4.01-5.41,6.11l-1.24-.79c1.26-1.02,2.75-2.62,3.92-4.13h-6.54c-.05.14-.16.2-.45.25v8.82c0,.97-.25,1.42-1.02,1.67-.77.23-2.1.23-4.1.23-.09-.43-.36-1.04-.59-1.47.97.02,1.87.04,2.57.04,1.47,0,1.58,0,1.58-.5v-9.04h-9.31v-1.44h12.13c-1.89-1.2-4.69-2.53-7.04-3.36l1.04-1.11c1.4.47,2.98,1.13,4.44,1.83,1.51-.86,3.18-2.05,4.42-3.16h-12.86v-1.42h13.96c.43,0,.47,0,.79-.09l1.35.9c-.09.09-.25.16-.41.18-1.47,1.42-3.7,3.11-5.75,4.35.88.47,1.67.95,2.28,1.38l-.43.5h5.21l.32-.02Z"/>
    <path class="cls-11" d="M377.34,545c-.04.13-.18.23-.45.23-.36,1.92-.99,4.08-1.76,5.41-.27-.18-.81-.43-1.15-.59.74-1.26,1.31-3.43,1.67-5.48l1.69.43ZM379.84,532.26c-.11.16-.29.2-.47.18-.7,1.31-1.83,3.13-2.77,4.42.61.59,1.17,1.17,1.58,1.69,1.11-1.53,2.17-3.13,2.91-4.44l1.62.77c-.07.13-.25.18-.5.18-1.26,1.96-3.25,4.62-5.01,6.59,1.44-.02,3-.04,4.58-.09-.45-.74-.97-1.51-1.49-2.14.63-.34.88-.45,1.11-.59,1.15,1.42,2.37,3.32,2.84,4.56l-1.17.68c-.16-.38-.36-.83-.63-1.33l-2.62.14v9.65h-1.42v-9.58c-1.4.04-2.66.11-3.65.14-.04.18-.18.27-.34.29l-.41-1.69h1.69c.54-.61,1.11-1.29,1.67-2.03-.72-.97-2.01-2.23-3.11-3.13l.74-.97c.23.18.45.36.7.54.88-1.31,1.92-3.18,2.5-4.51l1.65.7ZM382.53,549.47c-.25-1.22-.97-3.11-1.67-4.53l1.22-.43c.72,1.42,1.47,3.27,1.76,4.49l-1.31.47ZM393.85,535.82l.81.09c0,.13-.02.34-.04.5-.36,10.58-.72,14.12-1.62,15.22-.61.74-1.22.88-2.77.88-.77,0-1.69-.02-2.59-.09-.04-.43-.2-1.04-.5-1.44,1.56.13,2.98.16,3.54.16.45,0,.75-.07.99-.36.74-.79,1.13-4.29,1.47-13.46h-7.08c-.61,1.4-1.31,2.66-2.03,3.63-.29-.23-.86-.61-1.24-.81,1.51-1.96,2.82-5.32,3.61-8.59l1.89.5c-.04.2-.25.27-.5.25-.32,1.2-.7,2.39-1.15,3.56h6.88l.34-.02ZM386.48,540.81c1.31,1.65,2.71,3.83,3.25,5.3l-1.33.72c-.52-1.44-1.87-3.72-3.16-5.39l1.24-.63Z"/>
    <path class="cls-11" d="M408.62,535.67c-.09.2-.27.36-.56.36-.81,7.01-3.16,13.12-6.9,13.12-1.89,0-3.61-1.89-3.61-5.46,0-5.41,4.22-9.95,10.15-9.95,6.52,0,9.34,4.13,9.34,8.52,0,5.37-3.11,7.96-8.57,9.22-.2-.36-.59-.97-.95-1.38,5.19-.99,7.85-3.52,7.85-7.78,0-3.72-2.39-7.1-7.67-7.1-.22,0-.47.02-.68.05l1.6.38ZM406.46,535.37c-4.56.56-7.37,4.33-7.37,8.28,0,2.41,1.04,3.92,2.12,3.92,2.73,0,4.69-6.02,5.25-12.2Z"/>
    <path class="cls-11" d="M427.82,534.38h-4.01c-.32,1.87-.7,3.72-1.2,5.46h4.42v9.81h-4.44v1.85h-1.31v-7.96c-.43.92-.9,1.76-1.42,2.48-.16-.34-.56-1.04-.79-1.35,1.6-2.28,2.66-6.18,3.25-10.28h-2.75v-1.4h8.25v1.4ZM425.7,548.29v-7.1h-3.11v7.1h3.11ZM440.38,550.23v1.31h-9.31v1.11h-1.42v-10.06c-.52.61-1.08,1.17-1.69,1.67-.18-.34-.59-.97-.83-1.26,2.05-1.67,3.7-4.31,4.89-7.4h-2.75v2.8h-1.33v-4.13h4.56c.29-.88.54-1.8.77-2.75l1.87.43c-.04.18-.23.27-.52.27-.18.7-.38,1.38-.59,2.05h6.02v4.13h-1.4v-2.8h-5.07c-.52,1.42-1.13,2.75-1.83,3.99h2.66c.43-.95.9-2.17,1.15-3.04l1.74.54c-.04.14-.2.2-.45.2-.25.65-.63,1.53-1.01,2.3h3.97v1.33h-4.17v2.28h3.63v1.22h-3.63v2.3h3.63v1.22h-3.63v2.3h4.76ZM434.2,543.2v-2.28h-3.13v2.28h3.13ZM434.2,546.72v-2.3h-3.13v2.3h3.13ZM431.07,547.93v2.3h3.13v-2.3h-3.13Z"/>
    <path class="cls-11" d="M453.17,545.45v4.92c1.2.23,2.5.29,3.92.29.79,0,4.76,0,5.8-.02-.25.38-.52,1.08-.59,1.53h-5.28c-4.85,0-8.37-.83-10.46-4.87-.81,2.21-1.96,4.06-3.54,5.3-.25-.29-.79-.74-1.15-.99,2.48-1.83,3.79-5.28,4.31-9.49l1.94.32c-.04.16-.18.27-.45.27-.13.9-.32,1.78-.52,2.64.95,2.53,2.48,3.88,4.47,4.6v-9.92h-5.75v-1.44h13.26v1.44h-5.95v3.99h6.92v1.44h-6.92ZM444.47,535.73v3.41h-1.49v-4.85h8.61v-2.77l2.05.14c-.02.16-.16.27-.47.32v2.32h8.71v4.85h-1.56v-3.41h-15.85Z"/>
  </g>
  <rect class="cls-38" x="748.24" y="323" width="226.76" height="208" rx="19.94" ry="19.94"/>
  <text class="cls-7" transform="translate(772.02 371.9)"><tspan x="0" y="0">予約の管理</tspan></text>
  <g>
    <path class="cls-11" d="M783.25,436.19c0-1.42,1.13-2.53,2.53-2.53s2.53,1.13,2.53,2.53-1.13,2.53-2.53,2.53-2.53-1.15-2.53-2.53Z"/>
    <path class="cls-11" d="M806.98,429.36c-.07.14-.23.23-.45.23-.83,1.38-2.55,3.13-4.2,4.22-.27-.27-.77-.68-1.06-.9,1.6-.97,3.22-2.62,3.95-4.06l1.76.52ZM817.31,435.81l1.1.68c-.04.11-.18.18-.32.23-1.17,1.9-2.84,3.4-4.85,4.58,2.48,1.1,5.5,1.8,8.86,2.12-.34.34-.7.99-.9,1.42-3.68-.41-6.9-1.31-9.52-2.71-2.82,1.33-6.16,2.19-9.61,2.71-.11-.38-.47-1.04-.77-1.35,3.2-.38,6.31-1.11,8.95-2.21-1.31-.88-2.44-1.92-3.34-3.11-1.15.81-2.53,1.6-4.08,2.3-.2-.36-.65-.88-.99-1.13,3.52-1.4,6.04-3.41,7.33-5.23l1.94.34c-.04.16-.2.27-.5.27-.32.38-.65.77-1.04,1.17h7.44l.27-.07ZM810.54,427.57c0,2.19-.16,5.41-4.04,7.74-.23-.32-.74-.79-1.08-1.04,3.38-1.96,3.68-4.62,3.68-6.56v-.14h-7.44v-1.42h9.18v-2.35l1.98.14c-.02.16-.14.27-.43.29v1.92h9.27v1.42h-6.27v5.21c0,1.62-.63,1.67-3.95,1.67-.07-.41-.25-.95-.43-1.35,1.2.02,2.21.02,2.53.02.32-.02.38-.09.38-.36v-5.19h-3.38ZM808.24,437.14l-.25.2c.92,1.26,2.21,2.32,3.77,3.2,1.71-.9,3.18-2.03,4.22-3.41h-7.74ZM820.78,434c-.81-1.26-2.57-3.2-4.1-4.58l1.2-.7c1.51,1.33,3.34,3.2,4.17,4.47l-1.26.81Z"/>
    <path class="cls-11" d="M842.68,436.91h-7.8c-.23,1.42-.74,2.77-1.83,3.97,2.73,1.65,6.56,2.21,11.75,2.48-.29.34-.61.97-.7,1.47-5.3-.36-9.25-1.08-12.11-2.95-1.56,1.2-3.86,2.19-7.26,2.93-.18-.34-.56-.97-.88-1.31,3.32-.63,5.5-1.51,6.92-2.55-.99-.88-1.85-1.96-2.53-3.29l1.31-.45c.63,1.15,1.38,2.07,2.28,2.82.88-.95,1.31-2.01,1.49-3.11h-6.97v-8.48h7.15v-1.98h-9.27v-1.4h19.87v1.4h-9.07v1.98h7.65v8.48ZM827.82,429.65v2.41h5.68v-2.41h-5.68ZM827.82,435.69h5.66c.02-.41.02-.81.02-1.24v-1.22h-5.68v2.46ZM841.17,435.69v-2.46h-6.13v1.24c0,.41,0,.81-.02,1.22h6.16ZM841.17,429.65h-6.13v2.41h6.13v-2.41Z"/>
    <path class="cls-11" d="M783.25,470.02c0-1.42,1.13-2.53,2.53-2.53s2.53,1.13,2.53,2.53-1.13,2.53-2.53,2.53-2.53-1.15-2.53-2.53Z"/>
    <path class="cls-11" d="M812.23,470.68l.81,7.08-1.62.18-.79-7.06-8.46,1.08-.2-1.49,8.5-1.08-.59-5.07-7.08.92-.2-1.51,7.1-.9-.5-4.46,2.21-.09c0,.23-.2.41-.52.5l.41,3.83,6.86-.9.18,1.53-6.86.88.59,5.05,8.48-1.06.2,1.49-8.53,1.08Z"/>
    <path class="cls-11" d="M839.12,465.87c-.07.07-.16.13-.25.16-.9,2.32-2.44,4.58-4.06,6.25-.27-.25-.77-.56-1.13-.77,1.31-1.2,2.75-3.29,3.38-4.8l-6.31,1.4,2.08,9.63-1.33.29-2.08-9.63-5.14,1.17-.29-1.26,5.19-1.15-1.01-4.69,1.87-.18c0,.18-.11.32-.41.45l.86,4.1,7.42-1.6.16-.11,1.06.74Z"/>
    <path class="cls-11" d="M843.77,460.1c2.34.74,5.05,1.92,6.72,3.07l-.86,1.42c-1.62-1.15-4.29-2.34-6.58-3.13l.72-1.35ZM843.67,475.73c8.01-2.48,13.33-6.97,16.04-13.22.47.38.99.68,1.47.93-2.82,6.18-8.32,10.98-15.97,13.53-.02.2-.16.43-.32.52l-1.22-1.76Z"/>
    <path class="cls-11" d="M882.49,463.41c-.07.11-.2.2-.36.27-1.01,2.44-2.8,5.5-4.71,7.35-.34-.25-.92-.59-1.35-.81,1.71-1.53,3.11-3.79,3.86-5.59l-8.64,2.25v5.84c0,2.21,1.33,2.96,3.13,2.96h3.68c.92,0,2.48-.14,3.36-.25,0,.5.02,1.1.04,1.58-.9.11-2.48.18-3.34.18h-3.77c-2.84,0-4.74-1.33-4.74-4.44v-5.46l-5.68,1.47-.38-1.51,6.07-1.51v-6.86l2.19.09c-.04.27-.25.41-.56.45v5.89l9.54-2.46.25-.18,1.42.74Z"/>
    <path class="cls-11" d="M890.93,461.81c-.02.2-.23.34-.52.38-.14,6.07-.63,11.59-4.11,15.63-.36-.27-.9-.61-1.35-.86,3.36-3.65,3.77-9.29,3.83-15.36l2.14.2ZM896.77,474.8c3.77-1.83,6.2-5.12,7.51-9.07.34.29,1.01.68,1.4.88-1.6,4.55-4.4,7.92-9.2,10.19-.07.18-.23.36-.38.45l-1.17-1.49.25-.34v-16.55l2.1.11c-.02.2-.18.38-.5.43v15.38Z"/>
    <path class="cls-11" d="M783.25,503.86c0-1.42,1.13-2.53,2.53-2.53s2.53,1.13,2.53,2.53-1.13,2.53-2.53,2.53-2.53-1.15-2.53-2.53Z"/>
    <path class="cls-11" d="M809.73,495.29v1.26h-8.62v-1.26h8.62ZM808.94,504.49v6.63h-5.44v1.06h-1.35v-7.69h6.79ZM802.17,499.59v-1.24h6.79v1.24h-6.79ZM802.17,502.66v-1.24h6.79v1.24h-6.79ZM808.89,492.29v1.24h-6.59v-1.24h6.59ZM807.59,505.77h-4.08v4.06h4.08v-4.06ZM822.16,505.37v1.4h-5.48v5.66h-1.51v-5.66h-5.59v-1.4h5.59v-3.45h-4.38v-1.38h4.38v-3.27h-4.83v-1.42h2.71c-.32-1.1-1.01-2.62-1.71-3.79l1.22-.47c.79,1.24,1.56,2.86,1.85,3.92l-.81.34h4.6c-.34-.16-.74-.34-.77-.34.63-1.08,1.44-2.86,1.85-4.08l1.74.65c-.07.16-.25.23-.47.23-.45,1.01-1.2,2.5-1.83,3.54h3.11v1.42h-5.14v3.27h4.51v1.38h-4.51v3.45h5.48Z"/>
    <path class="cls-11" d="M830.77,501.49c-.43-.77-.92-1.56-1.42-2.23l1.15-.54c1.06,1.42,2.19,3.34,2.62,4.58l-1.22.59c-.11-.36-.29-.79-.52-1.24l-2.46.14v9.65h-1.38v-9.58c-1.29.04-2.46.11-3.38.13-.02.18-.16.25-.32.29l-.41-1.69h1.67c.5-.59,1.04-1.26,1.56-1.99-.7-1.01-1.92-2.32-3-3.27l.77-.99c.23.18.45.38.68.61.79-1.33,1.71-3.16,2.23-4.47l1.65.7c-.09.14-.23.18-.47.18-.63,1.31-1.67,3.16-2.53,4.42.59.59,1.1,1.17,1.47,1.69,1.01-1.51,1.98-3.11,2.68-4.42l1.6.77c-.09.11-.27.18-.52.18-1.17,1.92-3.02,4.6-4.65,6.56l4.2-.07ZM826.58,504.89c-.04.13-.18.22-.43.22-.32,1.92-.83,4.08-1.53,5.41-.29-.2-.79-.43-1.13-.59.65-1.26,1.15-3.43,1.44-5.48l1.65.43ZM831.43,509.27c-.2-1.22-.83-3.09-1.49-4.49l1.17-.38c.68,1.42,1.33,3.22,1.58,4.44l-1.26.43ZM833.19,493.28h10.4v18.83h-1.44v-1.06h-7.55v1.24h-1.4v-19.01ZM837.65,494.7h-3.07v6.72h3.07v-6.72ZM834.58,502.84v6.81h3.07v-6.81h-3.07ZM842.14,501.42v-6.72h-3.11v6.72h3.11ZM839.03,509.65h3.11v-6.81h-3.11v6.81Z"/>
    <path class="cls-11" d="M865.69,501.13s-.09.04-.14.04c-.13,0-.25-.07-.34-.14-1.71.56-4.22,1.49-6.09,2.3.04.52.07,1.11.07,1.76,0,.72-.02,1.53-.07,2.41l-1.65.09c.07-.81.11-1.85.11-2.73,0-.34,0-.65-.02-.9-2.55,1.24-4.62,2.75-4.62,4.1s1.56,1.94,4.67,1.94c2.19,0,4.22-.04,5.66-.23l.02,1.51c-1.33.14-3.36.18-5.68.18-4.33,0-6.25-1.04-6.25-3.34,0-1.98,2.62-3.9,6-5.59-.13-1.42-.77-2.12-1.67-2.12-1.65,0-3.36.92-5.39,3.18-.63.7-1.51,1.58-2.48,2.46l-1.11-1.1c2.25-1.99,4.38-3.88,5.68-8.32l-1.26.02h-3.77v-1.46c1.38.02,2.98.02,3.9.02l1.53-.02c.25-1.04.45-2.01.61-3.23l2.21.27c-.04.23-.23.36-.56.41-.16.9-.36,1.69-.56,2.5,1.53-.02,4.83-.38,7.76-1.31l.27,1.51c-2.82.88-6.22,1.2-8.46,1.26-.54,1.69-1.11,3.04-1.62,3.81h.02c.99-.88,2.48-1.47,3.63-1.47,1.53,0,2.5,1.11,2.8,2.93,1.89-.86,4.29-1.78,6.09-2.48l.7,1.71Z"/>
    <path class="cls-11" d="M876.47,505.68c-.02.16-.2.27-.47.29-.61,3.22-1.92,5.41-7.24,6.5-.14-.36-.52-1.01-.83-1.33,4.87-.88,6.09-2.64,6.54-5.66l2.01.2ZM881.48,510.03c0,.65.18.79,1.22.79h3.59c.95,0,1.13-.43,1.22-3.27.34.27.99.52,1.4.63-.18,3.27-.61,4.08-2.5,4.08h-3.83c-2.07,0-2.62-.47-2.62-2.23v-5.19h-8.71v-12.56h14.37v12.56h-4.13v5.19ZM872.7,493.62v2.46h11.37v-2.46h-11.37ZM872.7,497.31v2.48h11.37v-2.48h-11.37ZM872.7,501.04v2.53h11.37v-2.53h-11.37Z"/>
    <path class="cls-11" d="M896.79,501.37c1.49-.77,3.81-1.31,5.59-1.31,3.58,0,5.84,2.1,5.84,5.41,0,4.08-3.59,6.34-8.12,6.34-2.93,0-4.94-1.17-4.94-3.16,0-1.67,1.65-3.02,3.7-3.02,2.55,0,4.26,2.03,4.6,4.08,1.8-.68,3.11-2.12,3.11-4.22,0-2.44-1.8-3.99-4.65-3.99-3.38,0-6.7,1.51-8.19,2.95-.68.63-1.56,1.58-2.17,2.28l-1.15-1.15c2.03-2.12,8.48-8.28,11.55-11.14-1.31.18-5.82.36-8.39.45-.07.16-.29.29-.47.34l-.18-1.92c3.04-.02,8.86-.25,10.51-.5l.34-.16,1.2,1.47c-.11.09-.32.18-.54.2-1.6,1.31-5.89,5.32-7.65,7.01v.02ZM899.9,510.39c.68,0,1.47-.09,2.05-.22-.25-1.74-1.53-3.2-3.2-3.2-1.17,0-2.21.63-2.21,1.67,0,1.38,1.87,1.76,3.36,1.76Z"/>
  </g>
  <rect class="cls-19" x="1098.89" y="438.29" width="295.6" height="72.96" rx="15.81" ry="15.81"/>
  <text class="cls-2" transform="translate(1170.52 483.34)"><tspan class="cls-25" x="0" y="0">リ</tspan><tspan class="cls-31" x="19.4" y="0">ン</tspan><tspan class="cls-22" x="39.47" y="0">ク</tspan><tspan x="60.22" y="0">決済</tspan></text>
  <rect class="cls-19" x="1098.89" y="543.17" width="295.6" height="72.96" rx="15.81" ry="15.81"/>
  <text class="cls-10" transform="translate(1172.55 586.31)"><tspan class="cls-33" x="0" y="0">QR</tspan><tspan class="cls-6" x="33.83" y="0">決済</tspan></text>
  <g>
    <rect class="cls-16" x="1138.1" y="454.26" width="9.93" height="20.97" rx="2.84" ry="2.84" transform="translate(663.42 -672.14) rotate(45)"/>
    <rect class="cls-16" x="1117.13" y="475.23" width="9.93" height="20.97" rx="2.84" ry="2.84" transform="translate(672.11 -651.18) rotate(45)"/>
    <line class="cls-16" x1="1139.11" y1="468.66" x2="1126.88" y2="480.9"/>
  </g>
  <g>
    <rect class="cls-16" x="1112.82" y="561.53" width="16.7" height="16.7"/>
    <rect class="cls-16" x="1117.83" y="566.54" width="6.68" height="6.68"/>
    <rect class="cls-16" x="1117.83" y="588.25" width="6.68" height="6.68"/>
    <rect class="cls-16" x="1139.54" y="566.54" width="6.68" height="6.68"/>
    <rect class="cls-16" x="1112.82" y="583.24" width="16.7" height="16.7"/>
    <polyline class="cls-16" points="1134.53 583.24 1141.21 583.24 1141.21 589.92"/>
    <polyline class="cls-16" points="1149.56 594.93 1141.21 594.93 1141.21 588.25"/>
    <rect class="cls-16" x="1134.53" y="561.53" width="16.7" height="16.7"/>
    <line class="cls-16" x1="1147.89" y1="583.24" x2="1147.89" y2="588.25"/>
    <line class="cls-16" x1="1151.23" y1="588.25" x2="1147.89" y2="588.25"/>
    <line class="cls-16" x1="1134.53" y1="588.25" x2="1134.53" y2="599.94"/>
    <line class="cls-16" x1="1141.21" y1="599.94" x2="1134.53" y2="599.94"/>
    <line class="cls-16" x1="1149.56" y1="594.93" x2="1149.56" y2="599.94"/>
  </g>
  <rect class="cls-30" x="1559.6" y="428.65" width="133.99" height="133.99" rx="19.94" ry="19.94"/>
  <text class="cls-4" transform="translate(1530.33 591.57)"><tspan class="cls-21" x="0" y="0">ホ</tspan><tspan class="cls-28" x="21.65" y="0">ス</tspan><tspan class="cls-36" x="40.6" y="0">ト</tspan><tspan x="61.58" y="0">型決済</tspan><tspan class="cls-12" x="129.24" y="0">ペ</tspan><tspan class="cls-35" x="151.57" y="0">ー</tspan><tspan class="cls-12" x="173" y="0">ジ</tspan></text>
  <g>
    <path class="cls-18" d="M1664.98,529.71h-77.68c-2.04,0-3.7-1.66-3.7-3.7v-62.1c0-2.46,2.01-4.48,4.48-4.48h76.12c2.46,0,4.48,2.01,4.48,4.48v62.1c0,2.04-1.66,3.7-3.7,3.7Z"/>
    <line class="cls-18" x1="1583.61" y1="477.93" x2="1668.68" y2="477.93"/>
    <circle class="cls-11" cx="1592.85" cy="468.68" r="3.7"/>
    <circle class="cls-11" cx="1603.95" cy="468.68" r="3.7"/>
    <circle class="cls-11" cx="1615.05" cy="468.68" r="3.7"/>
  </g>
  <g>
    <circle class="cls-16" cx="1626.77" cy="510.07" r="10.38"/>
    <path class="cls-16" d="M1619.35,502.82v-9.06c0-4.09,3.32-7.41,7.41-7.41,2.05,0,3.9.83,5.25,2.16,1.33,1.35,2.16,3.2,2.16,5.25v9.06"/>
    <line class="cls-16" x1="1626.77" y1="510.07" x2="1626.77" y2="513.03"/>
    <circle class="cls-11" cx="1626.77" cy="508.58" r="2.22"/>
  </g>
  <rect class="cls-39" x="1823.01" y="427.15" width="133.99" height="133.99" rx="19.94" ry="19.94"/>
  <text class="cls-3" transform="translate(1864.31 590.07)"><tspan x="0" y="0">顧客</tspan></text>
  <g>
    <path class="cls-18" d="M1902.81,473.66c0,7.91-6.76,14.25-14.81,13.54-7.14-.62-12.38-7.08-12.38-14.25v-4.03c0-7.17,5.24-13.63,12.38-14.25,8.06-.7,14.81,5.63,14.81,13.54v5.44Z"/>
    <path class="cls-18" d="M1896.36,499.79l-4.55,5.43c-1.36,1.62-3.85,1.62-5.21,0l-4.55-5.43c-1.89-2.26-5.07-3.12-7.77-1.95-12.12,5.28-20.9,16.8-22.28,30.5-.2,2.02,1.37,3.78,3.4,3.78h67.61c2.03,0,3.6-1.77,3.4-3.78-1.38-13.71-10.16-25.22-22.28-30.5-2.7-1.18-5.88-.31-7.77,1.95Z"/>
  </g>
  <g>
    <line class="cls-15" x1="248" y1="166.83" x2="285.69" y2="167.03"/>
    <polygon class="cls-40" points="280.93 182.96 308.65 167.16 281.11 151.05 280.93 182.96"/>
  </g>
  <g>
    <line class="cls-15" x1="248" y1="424.21" x2="285.69" y2="424.41"/>
    <polygon class="cls-40" points="280.93 440.34 308.65 424.54 281.11 408.43 280.93 440.34"/>
  </g>
  <line class="cls-15" x1="247.8" y1="167.62" x2="247.8" y2="424.5"/>
  <line class="cls-15" x1="196.5" y1="294.5" x2="251.5" y2="294.5"/>
  <g>
    <line class="cls-15" x1="677.8" y1="354.09" x2="718.54" y2="354.35"/>
    <polygon class="cls-40" points="713.77 370.28 741.5 354.5 713.97 338.37 713.77 370.28"/>
  </g>
  <g>
    <line class="cls-15" x1="978.8" y1="354.09" x2="1019.54" y2="354.35"/>
    <polygon class="cls-40" points="1014.77 370.28 1042.5 354.5 1014.97 338.37 1014.77 370.28"/>
  </g>
  <g>
    <polygon class="cls-40" points="1501.52 474.75 1482.89 474.75 1508.21 505.86 1482.89 536.96 1501.52 536.96 1526.85 505.86 1501.52 474.75"/>
    <rect class="cls-40" x="1461.36" y="492.57" width="48.77" height="26.58"/>
  </g>
  <g>
    <polygon class="cls-40" points="1767.87 474.75 1749.24 474.75 1774.57 505.86 1749.24 536.96 1767.87 536.96 1793.2 505.86 1767.87 474.75"/>
    <rect class="cls-40" x="1727.71" y="492.57" width="48.77" height="26.58"/>
  </g>
  <line class="cls-17" x1="313" y1="382" x2="678" y2="382"/>
  <line class="cls-17" x1="742" y1="402.5" x2="974.5" y2="402.5"/>
  <text class="cls-8" transform="translate(331.61 66.59)"><tspan class="cls-34" x="0" y="0">セ</tspan><tspan class="cls-29" x="22.75" y="0">ッ</tspan><tspan class="cls-32" x="42" y="0">ト</tspan><tspan class="cls-27" x="64.25" y="0">ア</tspan><tspan class="cls-26" x="86.25" y="0">ッ</tspan><tspan x="107.75" y="0">プ</tspan></text>
  <line class="cls-17" x1="313" y1="87.5" x2="641.5" y2="87.5"/>
  <text class="cls-9" transform="translate(1220.85 384.36)"><tspan x="0" y="0">決済</tspan></text>
  <g>
    <line class="cls-15" x1="473.92" y1="255.52" x2="473.66" y2="296.25"/>
    <polygon class="cls-40" points="457.73 291.48 473.51 319.22 489.64 291.69 457.73 291.48"/>
  </g>
</svg>