<?xml version="1.0" encoding="UTF-8"?>
<svg id="Layer_1" data-name="Layer 1" xmlns="http://www.w3.org/2000/svg" viewBox="0 0 1997 740">
  <defs>
    <style>
      .cls-1 {
        letter-spacing: -.18em;
      }

      .cls-2 {
        font-family: ArialMT, Arial;
      }

      .cls-3 {
        letter-spacing: -.02em;
      }

      .cls-4, .cls-5, .cls-6 {
        stroke-miterlimit: 10;
      }

      .cls-4, .cls-6, .cls-7 {
        stroke: #fff;
        stroke-width: 3px;
      }

      .cls-4, .cls-7 {
        fill: none;
      }

      .cls-8 {
        letter-spacing: -.02em;
      }

      .cls-9 {
        letter-spacing: -.04em;
      }

      .cls-10 {
        letter-spacing: -.04em;
      }

      .cls-11, .cls-12 {
        letter-spacing: -.04em;
      }

      .cls-13 {
        letter-spacing: -.02em;
      }

      .cls-14 {
        letter-spacing: -.02em;
      }

      .cls-15 {
        letter-spacing: -.08em;
      }

      .cls-16 {
        letter-spacing: -.05em;
      }

      .cls-16, .cls-17, .cls-18, .cls-19, .cls-20, .cls-21, .cls-12, .cls-22, .cls-23, .cls-24 {
        font-family: KozGoPr6N-Regular-83pv-RKSJ-H, 'Kozuka Gothic Pr6N';
      }

      .cls-25, .cls-19 {
        letter-spacing: -.52em;
      }

      .cls-26, .cls-21 {
        letter-spacing: -.03em;
      }

      .cls-17, .cls-27 {
        letter-spacing: 0em;
      }

      .cls-28, .cls-22, .cls-23 {
        fill: #666;
      }

      .cls-28, .cls-23 {
        font-size: 26.99px;
      }

      .cls-29 {
        letter-spacing: -.14em;
      }

      .cls-30 {
        letter-spacing: -.06em;
      }

      .cls-31 {
        letter-spacing: -.06em;
      }

      .cls-32 {
        letter-spacing: -.06em;
      }

      .cls-33 {
        letter-spacing: -.14em;
      }

      .cls-34 {
        letter-spacing: -.14em;
      }

      .cls-35 {
        letter-spacing: -.12em;
      }

      .cls-20 {
        letter-spacing: -.13em;
      }

      .cls-36 {
        letter-spacing: .02em;
      }

      .cls-37 {
        letter-spacing: -.16em;
      }

      .cls-22 {
        font-size: 33.47px;
      }

      .cls-38 {
        letter-spacing: -.48em;
      }

      .cls-5 {
        fill: #f2f2f2;
        stroke: #00a99d;
      }

      .cls-39 {
        letter-spacing: -.11em;
      }

      .cls-40 {
        letter-spacing: -.11em;
      }

      .cls-41 {
        letter-spacing: -.11em;
      }

      .cls-42 {
        letter-spacing: -.05em;
      }

      .cls-43 {
        letter-spacing: -.1em;
      }

      .cls-44 {
        letter-spacing: -.1em;
      }

      .cls-45 {
        letter-spacing: -.05em;
      }

      .cls-46 {
        letter-spacing: -.09em;
      }

      .cls-47 {
        letter-spacing: -.56em;
      }

      .cls-48 {
        letter-spacing: -.15em;
      }

      .cls-49 {
        letter-spacing: -.15em;
      }

      .cls-6 {
        fill: #163567;
      }

      .cls-50 {
        letter-spacing: -.5em;
      }

      .cls-51 {
        letter-spacing: -.5em;
      }

      .cls-24 {
        letter-spacing: -.48em;
      }

      .cls-52 {
        letter-spacing: -.07em;
      }

      .cls-53 {
        fill: #ff931e;
      }

      .cls-53, .cls-54, .cls-55 {
        stroke-width: 0px;
      }

      .cls-54 {
        fill: #fff;
      }

      .cls-55 {
        fill: #00a99d;
      }

      .cls-56 {
        letter-spacing: -.07em;
      }

      .cls-57 {
        letter-spacing: -.07em;
      }

      .cls-7 {
        stroke-linecap: round;
        stroke-linejoin: round;
      }
    </style>
  </defs>
  <rect class="cls-54" width="1997" height="740"/>
  <rect class="cls-53" x="48.47" y="87.28" width="255.87" height="255.87" rx="20.7" ry="20.7"/>
  <rect class="cls-53" x="459.8" y="87.28" width="255.87" height="255.87" rx="20.7" ry="20.7"/>
  <rect class="cls-53" x="871.13" y="87.28" width="255.87" height="255.87" rx="20.7" ry="20.7"/>
  <rect class="cls-53" x="1282.46" y="87.28" width="255.87" height="255.87" rx="20.7" ry="20.7"/>
  <rect class="cls-53" x="1693.79" y="87.28" width="255.87" height="255.87" rx="20.7" ry="20.7"/>
  <text class="cls-22" transform="translate(80.38 53.88)"><tspan class="cls-33" x="0" y="0">リ</tspan><tspan class="cls-39" x="28.78" y="0">ン</tspan><tspan class="cls-15" x="58.57" y="0">ク</tspan><tspan x="89.36" y="0">の作成</tspan></text>
  <text class="cls-22" transform="translate(491.71 53.88)"><tspan class="cls-33" x="0" y="0">リ</tspan><tspan class="cls-39" x="28.78" y="0">ン</tspan><tspan class="cls-15" x="58.57" y="0">ク</tspan><tspan x="89.36" y="0">の共有</tspan></text>
  <text class="cls-22" transform="translate(949.23 53.88)"><tspan x="0" y="0">支払い</tspan></text>
  <text class="cls-22" transform="translate(1360.55 53.88)"><tspan x="0" y="0">処理中</tspan></text>
  <text class="cls-22" transform="translate(1692.23 53.88)"><tspan x="0" y="0">支払いの受</tspan><tspan class="cls-13" x="167.34" y="0">け</tspan><tspan class="cls-39" x="200.14" y="0">取り</tspan></text>
  <rect class="cls-5" x="15" y="402.53" width="321.72" height="132.47" rx="14.06" ry="14.06"/>
  <g>
    <polygon class="cls-55" points="398.27 183.68 379.93 183.68 404.86 214.29 379.93 244.9 398.27 244.9 423.2 214.29 398.27 183.68"/>
    <rect class="cls-55" x="358.74" y="201.21" width="48" height="26.16"/>
  </g>
  <g>
    <polygon class="cls-55" points="800.96 183.68 782.62 183.68 807.55 214.29 782.62 244.9 800.96 244.9 825.89 214.29 800.96 183.68"/>
    <rect class="cls-55" x="761.43" y="201.21" width="48" height="26.16"/>
  </g>
  <g>
    <polygon class="cls-55" points="1212.29 183.68 1193.95 183.68 1218.88 214.29 1193.95 244.9 1212.29 244.9 1237.22 214.29 1212.29 183.68"/>
    <rect class="cls-55" x="1172.76" y="201.21" width="48" height="26.16"/>
  </g>
  <g>
    <polygon class="cls-55" points="1612.82 183.68 1594.48 183.68 1619.41 214.29 1594.48 244.9 1612.82 244.9 1637.75 214.29 1612.82 183.68"/>
    <rect class="cls-55" x="1573.3" y="201.21" width="48" height="26.16"/>
  </g>
  <text class="cls-23" transform="translate(48.9 457.2)"><tspan x="0" y="0">加盟店が決</tspan><tspan class="cls-46" x="134.95" y="0">済</tspan><tspan class="cls-34" x="159.51" y="0">リ</tspan><tspan class="cls-40" x="182.72" y="0">ン</tspan><tspan class="cls-43" x="206.75" y="0">ク</tspan><tspan class="cls-8" x="231.04" y="0">を</tspan><tspan x="101.75" y="32.39">生成</tspan></text>
  <rect class="cls-5" x="427.95" y="403.07" width="321.72" height="191.09" rx="14.06" ry="14.06"/>
  <text class="cls-28" transform="translate(464.46 457.74)"><tspan class="cls-2" x="0" y="0">QR</tspan><tspan class="cls-21" x="39.41" y="0">コ</tspan><tspan class="cls-20" x="65.59" y="0">ー</tspan><tspan class="cls-12" x="89.07" y="0">ド</tspan><tspan class="cls-24" x="114.98" y="0">、</tspan><tspan class="cls-2" x="129.01" y="0">SMS</tspan><tspan class="cls-19" x="186.96" y="0">、</tspan><tspan class="cls-16" x="199.92" y="0">メ</tspan><tspan class="cls-17" x="225.56" y="0">ー</tspan><tspan class="cls-18"><tspan class="cls-14" x="3.47" y="32.39">ル</tspan><tspan class="cls-25" x="29.92" y="32.39">、</tspan><tspan class="cls-10" x="42.88" y="32.39">ま</tspan><tspan x="68.79" y="32.39">た</tspan><tspan class="cls-42" x="95.78" y="32.39">はソー</tspan><tspan class="cls-41" x="172.7" y="32.39">シ</tspan><tspan class="cls-57" x="196.72" y="32.39">ャ</tspan><tspan x="221.82" y="32.39">ル</tspan></tspan><tspan class="cls-18"><tspan class="cls-31" x="-.44" y="64.78">メ</tspan><tspan class="cls-49" x="24.93" y="64.78">デ</tspan><tspan class="cls-37" x="47.87" y="64.78">ィ</tspan><tspan class="cls-31" x="70.54" y="64.78">ア</tspan><tspan class="cls-3" x="95.91" y="64.78">を</tspan><tspan class="cls-44" x="122.36" y="64.78">通</tspan><tspan class="cls-56" x="146.65" y="64.78">じ</tspan><tspan class="cls-9" x="171.75" y="64.78">て</tspan><tspan x="197.67" y="64.78">顧客</tspan></tspan><tspan class="cls-18"><tspan class="cls-43" x="38.02" y="97.17">に</tspan><tspan class="cls-29" x="62.31" y="97.17">リ</tspan><tspan class="cls-41" x="85.52" y="97.17">ン</tspan><tspan class="cls-43" x="109.54" y="97.17">ク</tspan><tspan class="cls-8" x="133.83" y="97.17">を</tspan><tspan x="160.28" y="97.17">共有</tspan></tspan></text>
  <rect class="cls-5" x="844.68" y="403.07" width="321.72" height="206.93" rx="14.06" ry="14.06"/>
  <text class="cls-23" transform="translate(888.43 457.74)"><tspan x="0" y="0">顧客</tspan><tspan class="cls-46" x="53.98" y="0">は</tspan><tspan class="cls-34" x="78.54" y="0">リ</tspan><tspan class="cls-40" x="101.75" y="0">ン</tspan><tspan class="cls-47" x="125.78" y="0">ク</tspan><tspan class="cls-3" x="137.65" y="0">（</tspan><tspan class="cls-11" x="164.1" y="0">ホ</tspan><tspan class="cls-37" x="190.01" y="0">ス</tspan><tspan class="cls-57" x="212.68" y="0">ト</tspan><tspan x="-5.94" y="32.39">型決済</tspan><tspan class="cls-27" x="75.03" y="32.39">ペ</tspan><tspan class="cls-45" x="101.75" y="32.39">ー</tspan><tspan class="cls-26" x="127.4" y="32.39">ジ</tspan><tspan class="cls-51" x="153.58" y="32.39">）</tspan><tspan class="cls-3" x="167.07" y="32.39">を</tspan><tspan class="cls-44" x="193.52" y="32.39">通</tspan><tspan class="cls-9" x="217.81" y="32.39">じ</tspan><tspan class="cls-11" x="-6.61" y="64.78">て</tspan><tspan x="19.3" y="64.78">支払</tspan><tspan class="cls-14" x="73.28" y="64.78">いを</tspan><tspan x="126.18" y="64.78">選</tspan><tspan class="cls-44" x="153.17" y="64.78">択</tspan><tspan class="cls-52" x="177.46" y="64.78">し</tspan><tspan class="cls-38" x="202.56" y="64.78">、</tspan><tspan x="216.6" y="64.78">支</tspan><tspan x="24.97" y="97.17">払い情</tspan><tspan class="cls-14" x="105.94" y="97.17">報を</tspan><tspan x="158.84" y="97.17">送信</tspan></text>
  <rect class="cls-5" x="1261.4" y="403.07" width="321.72" height="181.93" rx="14.06" ry="14.06"/>
  <text class="cls-23" transform="translate(1304.48 457.74)"><tspan x="0" y="0">決</tspan><tspan class="cls-14" x="26.99" y="0">済</tspan><tspan class="cls-27" x="53.44" y="0">デ</tspan><tspan class="cls-30" x="80.16" y="0">ー</tspan><tspan class="cls-45" x="105.53" y="0">タ</tspan><tspan x="131.17" y="0">は暗号化</tspan><tspan class="cls-42" x=".13" y="32.39">さ</tspan><tspan class="cls-36" x="25.78" y="32.39">れ</tspan><tspan class="cls-50" x="53.31" y="32.39">、</tspan><tspan class="cls-27" x="66.8" y="32.39">ゲ</tspan><tspan class="cls-48" x="93.52" y="32.39">ー</tspan><tspan class="cls-35" x="116.46" y="32.39">ト</tspan><tspan class="cls-1" x="140.21" y="32.39">ウ</tspan><tspan class="cls-44" x="162.35" y="32.39">ェ</tspan><tspan class="cls-56" x="186.64" y="32.39">イ</tspan><tspan class="cls-14" x="211.74" y="32.39">を</tspan><tspan class="cls-44" x="16.87" y="64.78">通</tspan><tspan class="cls-57" x="41.16" y="64.78">じ</tspan><tspan class="cls-11" x="66.26" y="64.78">て</tspan><tspan x="92.17" y="64.78">処</tspan><tspan class="cls-26" x="119.16" y="64.78">理</tspan><tspan class="cls-42" x="145.34" y="64.78">さ</tspan><tspan class="cls-32" x="170.98" y="64.78">れ</tspan><tspan class="cls-11" x="196.35" y="64.78">る</tspan></text>
  <rect class="cls-5" x="1659.78" y="403.07" width="321.72" height="142.93" rx="14.06" ry="14.06"/>
  <text class="cls-23" transform="translate(1701.1 457.74)"><tspan x="0" y="0">加盟店が正常</tspan><tspan class="cls-27" x="161.94" y="0">に</tspan><tspan x="188.66" y="0">支払</tspan><tspan class="cls-14" x="67.88" y="32.39">いを</tspan><tspan x="120.78" y="32.39">受領</tspan></text>
  <g>
    <rect class="cls-7" x="193.23" y="148.09" width="31.89" height="67.36" rx="2.84" ry="2.84" transform="translate(189.8 -94.67) rotate(45)"/>
    <rect class="cls-7" x="125.87" y="215.45" width="31.89" height="67.36" rx="2.84" ry="2.84" transform="translate(217.7 -27.31) rotate(45)"/>
    <line class="cls-7" x1="196.5" y1="194.35" x2="157.21" y2="233.64"/>
  </g>
  <g id="paper_plane" data-name="paper plane">
    <path class="cls-7" d="M620.06,271.79l28.72-110.09c1.24-4.74-3.74-8.71-8.08-6.44l-110.09,57.44c-3.84,2-4.09,7.4-.46,9.76l81.37,52.65c3.23,2.09,7.57.41,8.54-3.32Z"/>
    <polyline class="cls-7" points="589.83 262.4 567.22 279.36 567.22 245.44"/>
    <line class="cls-7" x1="567.99" y1="245.02" x2="623.74" y2="183.27"/>
  </g>
  <g>
    <rect class="cls-7" x="926.36" y="167.75" width="153.13" height="99.87" rx="1" ry="1"/>
    <rect class="cls-7" x="926.36" y="187.73" width="153.13" height="19.97"/>
    <line class="cls-7" x1="939.68" y1="240.99" x2="966.31" y2="240.99"/>
    <line class="cls-7" x1="986.28" y1="240.99" x2="1006.26" y2="240.99"/>
  </g>
  <g>
    <g>
      <path class="cls-7" d="M1401.79,229.21c-5.42,1.25-10.57,3.42-15.13,6.34"/>
      <path class="cls-7" d="M1438.61,235.55c-4.55-2.93-9.71-5.1-15.13-6.34"/>
      <path class="cls-7" d="M1460.24,265.97c-1.25-5.42-3.42-10.57-6.34-15.13"/>
      <path class="cls-7" d="M1371.38,250.84c-2.93,4.55-5.1,9.71-6.34,15.13"/>
      <path class="cls-7" d="M1436.77,279.93c.19-1,.25-2.06.25-3.12,0-13.53-10.85-24.38-24.38-24.38s-24.38,10.85-24.38,24.38c0,1.06.06,2.12.25,3.12"/>
      <polyline class="cls-7" points="1401.79 229.21 1401.79 214.46 1423.48 214.46 1423.48 229.21"/>
      <polyline class="cls-7" points="1438.61 235.55 1449.07 225.04 1464.42 240.38 1453.9 250.84"/>
      <polyline class="cls-7" points="1460.21 265.97 1474.99 265.97 1474.99 279.93"/>
      <polyline class="cls-7" points="1350.28 279.93 1350.28 265.97 1365.06 265.97"/>
      <polyline class="cls-7" points="1371.38 250.84 1360.86 240.38 1376.2 225.04 1386.67 235.55"/>
    </g>
    <path class="cls-7" d="M1340.93,161.46h143.41v117.47c0,.55-.45,1-1,1h-141.41c-.55,0-1-.45-1-1v-117.47h0Z"/>
    <line class="cls-7" x1="1340.93" y1="186.4" x2="1484.34" y2="186.4"/>
    <circle class="cls-6" cx="1359.64" cy="173.93" r="3.12"/>
    <circle class="cls-6" cx="1372.11" cy="173.93" r="3.12"/>
    <circle class="cls-6" cx="1384.58" cy="173.93" r="3.12"/>
  </g>
  <g>
    <path class="cls-4" d="M1846.97,175.06h-45.51l-13-32.51c6.5,0,13,0,19.51,6.5,2.91-3.71,6.5-6.5,16.25-6.64,9.75.14,13.06,2.14,16.25,6.64,6.5-6.5,13-6.5,19.51-6.5l-13,32.51Z"/>
    <path class="cls-4" d="M1846.97,175.06h-45.51c-13,13-32.51,35.84-32.51,58.52,0,31.22,24.47,56.66,55.27,58.35,30.8-1.7,55.27-27.13,55.27-58.35,0-22.68-19.51-45.51-32.51-58.52Z"/>
    <path class="cls-7" d="M1808.61,217.33c0-8.62,6.99-15.6,15.6-15.6s15.6,6.99,15.6,15.6"/>
    <path class="cls-7" d="M1839.82,243.33c0,8.62-6.99,15.6-15.6,15.6s-15.6-6.99-15.6-15.6"/>
    <path class="cls-7" d="M1808.61,217.33c0,10.4,5.32,13,15.6,13,9.34,0,15.61,2.6,15.61,13"/>
  </g>
</svg>