<?xml version="1.0" encoding="UTF-8"?>
<svg id="Layer_1" data-name="Layer 1" xmlns="http://www.w3.org/2000/svg" viewBox="0 0 1997 925">
  <defs>
    <style>
      .cls-1 {
        letter-spacing: -.08em;
      }

      .cls-1, .cls-2, .cls-3, .cls-4, .cls-5, .cls-6, .cls-7, .cls-8, .cls-9, .cls-10, .cls-11, .cls-12, .cls-13 {
        font-family: KozGoPr6N-Regular-83pv-RKSJ-H, 'Kozuka Gothic Pr6N';
      }

      .cls-2 {
        letter-spacing: -.09em;
      }

      .cls-3 {
        letter-spacing: -.06em;
      }

      .cls-4 {
        letter-spacing: -.02em;
      }

      .cls-5, .cls-14 {
        letter-spacing: -.02em;
      }

      .cls-6 {
        letter-spacing: -.13em;
      }

      .cls-7 {
        letter-spacing: -.14em;
      }

      .cls-8 {
        letter-spacing: -.12em;
      }

      .cls-15 {
        fill: #ff931e;
      }

      .cls-16 {
        fill: #00a99d;
      }

      .cls-17, .cls-18 {
        fill: #009245;
      }

      .cls-18 {
        font-size: 37px;
      }

      .cls-19, .cls-10, .cls-20 {
        fill: #4d4d4d;
      }

      .cls-9 {
        font-size: 30px;
      }

      .cls-21 {
        stroke: #00a99d;
      }

      .cls-21, .cls-22, .cls-23 {
        fill: none;
        stroke-width: 3px;
      }

      .cls-21, .cls-22, .cls-24 {
        stroke-miterlimit: 10;
      }

      .cls-25 {
        font-size: 55px;
      }

      .cls-25, .cls-26 {
        fill: #fff;
      }

      .cls-25, .cls-27 {
        font-family: Arial-BoldMT, Arial;
        font-weight: 700;
      }

      .cls-28 {
        fill-rule: evenodd;
      }

      .cls-28, .cls-24 {
        fill: #f2f2f2;
      }

      .cls-22, .cls-23 {
        stroke: #fff;
        stroke-linecap: round;
      }

      .cls-23 {
        stroke-linejoin: round;
      }

      .cls-29 {
        fill: #29abe2;
      }

      .cls-10, .cls-20 {
        font-size: 32px;
      }

      .cls-30 {
        letter-spacing: -.1em;
      }

      .cls-31 {
        letter-spacing: -.18em;
      }

      .cls-32 {
        letter-spacing: -.12em;
      }

      .cls-33 {
        letter-spacing: -.15em;
      }

      .cls-34 {
        letter-spacing: -.02em;
      }

      .cls-35 {
        letter-spacing: -.05em;
      }

      .cls-36 {
        letter-spacing: 0em;
      }

      .cls-24 {
        stroke: #009245;
        stroke-width: 4px;
      }

      .cls-37 {
        font-family: ArialMT, Arial;
      }

      .cls-11 {
        letter-spacing: -.05em;
      }

      .cls-13 {
        letter-spacing: 0em;
      }
    </style>
  </defs>
  <rect class="cls-26" y="-1" width="1997" height="925"/>
  <rect class="cls-29" x="153.82" y="515.97" width="224.53" height="224.53" rx="19.94" ry="19.94"/>
  <g>
    <path d="M187.43,772.79c-.07.15-.3.26-.48.33-2,4.74-5.18,8.84-8.77,11.84-.56-.48-1.59-1.15-2.26-1.52,3.4-2.48,6.14-6.07,7.36-9.18h-26.49v-2.52h27.9l.41-.18,2.33,1.22ZM173,779.53c-.04.3-.37.56-.85.63-1.07,8.73-4.07,17.06-11.69,21.46-.52-.44-1.48-1.29-2.18-1.7,7.55-4.14,10.25-11.88,11.14-20.79l3.59.41Z"/>
    <path d="M216.54,776.46c-.15.19-.33.37-.55.52-3.89,11.99-9.95,19.69-20.17,24.87-.44-.63-1.15-1.48-1.89-2.04,9.69-4.7,15.69-12.1,18.76-21.91h-13.21c-2.15,3.33-5,6.55-8.29,9.14-.52-.52-1.37-1.22-2.11-1.7,5.03-3.88,9.29-9.55,11.8-16.06l3.52,1c-.15.37-.59.48-1.07.48-.74,1.63-1.52,3.18-2.37,4.66h13.03l.44-.22,2.11,1.26Z"/>
    <path d="M249.96,773.53c-.11.15-.3.3-.48.37-1.44,14.47-6.36,22.24-18.72,27.23-.48-.63-1.22-1.44-1.85-2,11.8-4.81,16.43-11.84,17.65-23.98h-21.13v10.21h-2.55v-12.73h24.53l.41-.3,2.15,1.18Z"/>
    <path d="M284.11,771.79c-.15.19-.37.3-.7.3-.11,0-.22,0-.37-.04-2.85,2.89-6.96,6.25-10.54,8.84.3.11.74.33.89.41-.07.22-.41.44-.81.48v19.87h-2.7v-19.02c-3.92,2.78-9.03,5.77-14.1,8.25-.37-.59-1.04-1.52-1.55-2.04,10.1-4.66,21.17-12.58,27.12-19.13l2.78,2.07Z"/>
    <path d="M319.15,772.79c-.07.15-.3.26-.48.33-2,4.74-5.18,8.84-8.77,11.84-.55-.48-1.59-1.15-2.26-1.52,3.4-2.48,6.14-6.07,7.36-9.18h-26.49v-2.52h27.9l.41-.18,2.33,1.22ZM304.72,779.53c-.04.3-.37.56-.85.63-1.07,8.73-4.07,17.06-11.69,21.46-.52-.44-1.48-1.29-2.18-1.7,7.55-4.14,10.25-11.88,11.14-20.79l3.59.41Z"/>
    <path d="M351.04,781.45c-.07.15-.26.3-.48.37-3.03,11.17-9.21,16.61-20.28,19.68-.33-.67-1.04-1.59-1.55-2.15,10.07-2.52,16.32-7.7,18.65-16.28h-24.5v-2.52h25.61l.37-.22,2.18,1.11ZM347.56,773.53h-21.09v-2.44h21.09v2.44Z"/>
    <path d="M159.19,823.04l1.63.7c-.07.18-.22.33-.37.44-1.48,8.95-4.92,16.02-9.21,19.87-.44-.52-1.37-1.44-1.96-1.78,3.96-3.33,7.03-9.29,8.47-16.84h-7.33v-2.29h8.29l.48-.11ZM168,833.7v4.07h8.14v2.15h-8.14v4.11c0,1.7-.41,2.41-1.63,2.81-1.22.41-3.37.44-6.66.44-.15-.7-.56-1.74-.93-2.41,1.33.04,2.63.04,3.63.04h2.18c.7-.04.93-.22.93-.89v-4.11h-7.77v-2.15h7.77v-4.07h-5.59v-2.11h5.59v-3.89h-4.85v-2.11h4.85v-4.44l1.7.11c2.4-1.11,4.85-2.59,6.73-4.07h-19.24v-2.29h21.98l.48-.15,2,1.29c-.11.18-.37.26-.55.33-2.59,2.41-6.73,5.11-10.62,6.81v2.4h5.4v2.11h-5.4v3.89h6v2.11h-6ZM175.62,821.78c.37,2.29.81,4.55,1.37,6.66,1.78-1.78,3.74-4,4.96-5.74l2.33,1.96c-.15.19-.48.22-.78.19-1.44,1.74-3.85,4.18-5.81,5.92,1.55,4.81,3.81,8.77,6.96,11.06-.63.48-1.48,1.44-1.92,2.15-5.14-4.29-7.92-12.36-9.4-21.83l2.29-.37Z"/>
    <path d="M200.04,819.04v2.07h-13.32v-2.07h13.32ZM199,834.14v10.88h-8.51v1.74h-2.15v-12.62h10.66ZM198.97,824.08v2.04h-10.58v-2.04h10.58ZM188.38,831.14v-2.04h10.58v2.04h-10.58ZM198.82,814.12v2.04h-10.25v-2.04h10.25ZM196.82,836.25h-6.33v6.66h6.33v-6.66ZM204.52,836.14c-.44,3.22-1.26,6.73-3.26,8.81l-1.89-1.26c1.81-1.81,2.7-5.07,3.07-8.1l2.07.55ZM210.99,816.38c-.3,1.59-.67,3.29-1.22,4.96,1.78.89,3.4,1.81,4.55,2.63l-1.26,1.96c-1.04-.78-2.52-1.67-4.14-2.55-1.33,2.81-3.4,5.37-6.88,7.1-.3-.52-1.04-1.37-1.55-1.78,3.18-1.52,5.14-3.81,6.4-6.36-1.67-.81-3.4-1.55-5-2.11l1.22-1.78c1.48.52,3.03,1.15,4.59,1.85.44-1.29.74-2.63.96-3.92h-6.47v-2.15h15.58l1.07-.04,1.33.15c-.22,1.44-.22,12.47-1.74,14.17-.89,1.07-1.81,1.07-3.55,1.07-.92,0-2.07-.04-3.22-.11-.04-.67-.26-1.59-.67-2.18,1.96.15,2.77.15,4.44.15.44,0,.7-.07.96-.37.63-.74,1-3.44,1.29-10.69h-6.7ZM208.48,843.35c0,.85.15,1,1.22,1h3.63c.96,0,1.15-.48,1.22-4.18.52.37,1.48.74,2.11.93-.22,4.4-.89,5.48-3.11,5.48h-4.14c-2.63,0-3.26-.7-3.26-3.22v-8.88l3.03.22c-.04.22-.26.41-.7.48v8.18ZM213.14,835.84c-1.33-1.59-4.14-3.81-6.59-5.25l1.59-1.44c2.41,1.41,5.29,3.52,6.66,5.11l-1.67,1.59ZM219.46,844.87c-.48-2.52-2.15-6.25-4.11-8.99l2.04-.81c2.04,2.7,3.74,6.37,4.33,8.88l-2.26.92Z"/>
    <path d="M225.05,823.22c2.41.93,5.4,2.55,6.92,3.81l-1.41,2.07c-1.48-1.26-4.44-2.96-6.85-4l1.33-1.89ZM224.79,845.02c1.92-2.92,4.66-7.96,6.7-12.21l1.89,1.55c-1.85,3.96-4.29,8.62-6.11,11.54.15.19.18.37.18.52s-.04.3-.11.41l-2.55-1.81ZM227.05,813.12c2.37,1.04,5.29,2.74,6.74,4.07l-1.44,2.04c-1.41-1.37-4.29-3.18-6.7-4.29l1.41-1.81ZM252.14,832.55v-2.41l3.18.22c-.04.26-.22.44-.74.52v16.28h-2.44v-6.88h-12.84c-.7,2.44-2.07,4.92-4.7,6.92-.44-.44-1.37-1.11-1.96-1.44,4.33-3.18,4.92-7.62,4.92-10.95v-4.62l3.11.18c-.04.26-.22.44-.7.52v1.67h12.17ZM252.84,819.15l1.29.41c-.11.22-.37.33-.78.33-1.18,2.11-2.89,3.89-4.92,5.37,2.92,1.33,6.33,2.22,10.18,3-.55.55-1.15,1.48-1.41,2.22-4.18-.92-7.84-2.07-11.03-3.77-3.37,1.89-7.4,3.18-11.69,4.07-.22-.59-.81-1.63-1.22-2.15,3.89-.67,7.59-1.74,10.66-3.33-2.15-1.48-4.03-3.37-5.66-5.77l.89-.37h-4.66v-2.26h10.25v-4.11l3.26.19c-.04.26-.22.44-.74.52v3.4h10.8v2.26h-5.22ZM239.96,834.73c0,.85,0,2.07-.22,3.4h12.4v-3.4h-12.17ZM240.7,819.15c1.55,2.07,3.37,3.63,5.44,4.88,2-1.33,3.66-2.96,4.74-4.88h-10.18Z"/>
    <path d="M291.58,823.48c-.11.41-.52.67-1.07.67-.41,2.55-1,5.25-1.63,7.55,2,.85,4.11,1.81,6.22,2.89l-1.18,2.48c-2-1-3.92-1.96-5.81-2.78-1.78,5.33-4.33,9.21-8.25,11.8-.52-.52-1.44-1.15-2.11-1.55,3.88-2.55,6.29-6.03,7.99-11.32-3.74-1.48-7.14-2.52-9.88-2.74-2.55,9.32-4.85,11.77-9.29,11.77s-5.29-3.55-5.29-5.81c0-5.74,5.96-8.4,12.58-8.44.78-2.96,1.48-6.59,2-10.43-1.74.15-7.66.56-10.47.74-.15.26-.44.44-.78.52l-.33-3c3.18-.11,10.06-.55,12.28-.78.41-.04.56-.22.81-.41l2.29,1.37c-.18.3-.48.44-.92.59-.59,4.11-1.48,8.36-2.29,11.54,2.85.22,6.25,1.22,9.95,2.63.63-2.22,1.18-5.07,1.59-8.07l3.59.78ZM273.26,830.33c-5.33.07-9.58,2.18-9.58,6.11,0,2.07,1,3.48,2.74,3.48,2.7,0,4.48-.92,6.85-9.58Z"/>
    <path d="M316.81,816.97h-3.44v30.19h-2.41v-7.62c-4.44.78-8.84,1.55-11.73,2-.07.3-.3.48-.56.52l-.96-2.85c.96-.11,2.07-.26,3.29-.44v-21.79h-3.22v-2.33h19.02v2.33ZM310.96,822.34v-5.37h-7.58v5.37h7.58ZM310.96,830.07v-5.44h-7.58v5.44h7.58ZM303.38,832.36v6.11c2.37-.33,5-.74,7.58-1.11v-5h-7.58ZM329.39,818.16l1.55.52c-.04.18-.18.37-.3.48-1,7.47-3.07,13.58-5.96,18.35,2.04,3.29,4.59,5.92,7.73,7.66-.59.44-1.41,1.41-1.78,2.04-3-1.81-5.44-4.29-7.44-7.4-2.22,3.11-4.81,5.55-7.7,7.36-.37-.59-1.11-1.52-1.67-2,2.96-1.7,5.66-4.33,7.92-7.77-2.33-4.44-3.96-9.84-5.07-15.91l2.29-.44c.93,5.14,2.29,9.88,4.29,13.88,2.11-3.92,3.74-8.73,4.66-14.25h-12.4v-2.44h13.39l.44-.07Z"/>
    <path d="M349.93,830.85l.56-.07,1.48.3c0,.22-.07.52-.11.78-.7,9.21-1.37,12.84-2.7,14.13-.93,1-2.04,1.18-4.55,1.18-1.33,0-3.11-.07-4.88-.19-.07-.78-.41-1.81-.93-2.55,2.78.26,5.51.3,6.44.3s1.37-.07,1.78-.41c.96-.85,1.59-3.88,2.18-11.14h-9.99c-.15.7-.26,1.33-.41,1.92l-2.48-.41c.78-3,1.63-7.84,2.15-11.51h10.84v-6.48h-13.06v-2.33h15.54v12.21h-2.48v-1.07h-8.7c-.3,1.78-.63,3.63-.92,5.33h10.25ZM362.51,813.12l3.22.22c-.04.26-.22.44-.74.48v33.34h-2.48v-34.04Z"/>
  </g>
  <path class="cls-28" d="M186.41,601.76h162.58v-7.98l-81.28-39.19-81.3,39.19v7.98h0ZM184.52,688h11.02v-68.72h-3.21c-1.03,0-1.86-.84-1.86-1.87v-11.89h-5.95c-1.04,0-1.87-.84-1.87-1.88v-11.05h0c0-.69.39-1.36,1.06-1.69l83.18-40.1c.5-.24,1.1-.26,1.64,0l83.04,40.04c.7.28,1.19.96,1.19,1.75v11.05c0,1.04-.85,1.88-1.89,1.88h-5.94v11.89c0,1.03-.84,1.87-1.86,1.87h-3.21v68.72h11.01c1.04,0,1.89.85,1.89,1.89v11.59c0,1.04-.85,1.88-1.89,1.88h-166.35c-1.04,0-1.87-.84-1.87-1.88v-11.59c0-1.03.84-1.89,1.87-1.89h0ZM233.05,605.52v11.89c0,1.03-.83,1.87-1.86,1.87h-3.21v68.72h23.5v-68.72h-3.2c-1.03,0-1.86-.84-1.86-1.87v-11.89h-13.37ZM288.99,605.52v11.89c0,1.03-.83,1.87-1.85,1.87h-3.22v68.72h23.51v-68.72h-3.21c-1.02,0-1.85-.84-1.85-1.87v-11.89h-13.38ZM341.22,605.52h-35.15v10.01h35.15v-10.01h0ZM285.27,605.52h-35.15v10.01h35.15v-10.01h0ZM229.34,605.52h-35.16v10.01h35.16v-10.01h0ZM199.3,688h24.9v-68.72h-24.9v68.72h0ZM255.25,688h24.91v-68.72h-24.91v68.72h0ZM311.19,688h24.92v-68.72h-24.92v68.72h0ZM348.99,691.77h-162.58v7.83h162.58v-7.83Z"/>
  <rect class="cls-15" x="181.75" y="78.23" width="186.89" height="186.89" rx="19.94" ry="19.94"/>
  <text class="cls-9" transform="translate(158.39 304.48)"><tspan x="0" y="0">決</tspan><tspan class="cls-34" x="30" y="0">済</tspan><tspan class="cls-36" x="59.4" y="0">ゲ</tspan><tspan class="cls-33" x="89.1" y="0">ー</tspan><tspan class="cls-32" x="114.6" y="0">ト</tspan><tspan class="cls-31" x="141" y="0">ウ</tspan><tspan class="cls-30" x="165.6" y="0">ェ</tspan><tspan class="cls-35" x="192.6" y="0">イ</tspan></text>
  <g>
    <g>
      <path class="cls-23" d="M265.84,178.02c-4.68,1.08-9.12,2.95-13.05,5.47"/>
      <path class="cls-23" d="M297.6,183.49c-3.93-2.53-8.37-4.4-13.05-5.47"/>
      <path class="cls-23" d="M316.26,209.72c-1.08-4.68-2.95-9.12-5.47-13.05"/>
      <path class="cls-23" d="M239.61,196.68c-2.53,3.93-4.4,8.37-5.47,13.05"/>
      <path class="cls-23" d="M296.01,221.77c.16-.86.22-1.77.22-2.69,0-11.67-9.36-21.03-21.03-21.03s-21.03,9.36-21.03,21.03c0,.91.05,1.83.22,2.69"/>
      <polyline class="cls-23" points="265.84 178.02 265.84 165.3 284.55 165.3 284.55 178.02"/>
      <polyline class="cls-23" points="297.6 183.49 306.62 174.42 319.86 187.65 310.78 196.68"/>
      <polyline class="cls-23" points="316.23 209.72 328.98 209.72 328.98 221.77"/>
      <polyline class="cls-23" points="221.42 221.77 221.42 209.72 234.16 209.72"/>
      <polyline class="cls-23" points="239.61 196.68 230.54 187.65 243.77 174.42 252.8 183.49"/>
    </g>
    <path class="cls-23" d="M213.35,119.59h123.69v101.18c0,.55-.45,1-1,1h-121.69c-.55,0-1-.45-1-1v-101.18h0Z"/>
    <line class="cls-23" x1="213.35" y1="141.1" x2="337.04" y2="141.1"/>
    <circle class="cls-26" cx="229.49" cy="130.34" r="2.69"/>
    <circle class="cls-26" cx="240.24" cy="130.34" r="2.69"/>
    <circle class="cls-26" cx="251" cy="130.34" r="2.69"/>
  </g>
  <g>
    <line class="cls-21" x1="250.31" y1="325" x2="250.31" y2="486.97"/>
    <polygon class="cls-16" points="240.73 484.17 250.31 500.75 259.88 484.17 240.73 484.17"/>
  </g>
  <g>
    <line class="cls-21" x1="300.19" y1="338.78" x2="300.19" y2="500.75"/>
    <polygon class="cls-16" points="290.62 341.58 300.19 325 309.77 341.58 290.62 341.58"/>
  </g>
  <g>
    <line class="cls-21" x1="394" y1="169.5" x2="729.72" y2="169.5"/>
    <polygon class="cls-16" points="726.92 179.07 743.5 169.5 726.92 159.93 726.92 179.07"/>
  </g>
  <text class="cls-20" transform="translate(309.22 429)"><tspan class="cls-7" x="0" y="0">ア</tspan><tspan class="cls-8" x="27.52" y="0">ク</tspan><tspan class="cls-2" x="55.68" y="0">ワイア</tspan><tspan class="cls-11" x="143.04" y="0">ラ</tspan><tspan class="cls-5" x="173.44" y="0">の</tspan><tspan class="cls-13" x="204.8" y="0">デ</tspan><tspan class="cls-3" x="236.48" y="0">ー</tspan><tspan class="cls-6" x="266.56" y="0">タ</tspan><tspan class="cls-1" x="294.4" y="0">と</tspan><tspan class="cls-12" x="323.84" y="0">照合</tspan><tspan class="cls-37" x="387.84" y="0"> </tspan></text>
  <rect class="cls-24" x="748" y="413" width="511.85" height="184" rx="29.5" ry="29.5"/>
  <rect class="cls-24" x="781" y="111" width="405" height="116" rx="29.5" ry="29.5"/>
  <text class="cls-10" transform="translate(442.95 149.35)"><tspan x="0" y="0">手数</tspan><tspan class="cls-14" x="64" y="0">料を</tspan><tspan x="126.72" y="0">計算</tspan></text>
  <text class="cls-18" transform="translate(797.21 181.01)"><tspan class="cls-27" x="0" y="0">MDR / </tspan><tspan class="cls-4" x="114.36" y="0">そ</tspan><tspan class="cls-12" x="150.62" y="0">の他の手数料</tspan></text>
  <g>
    <path class="cls-17" d="M921.24,476.01l1.75,1.01c-.11.17-.28.28-.49.35-2.03,4.72-5.29,8.37-9.28,11.1,3.88,2.17,8.64,3.61,14.11,4.38-.56.56-1.15,1.58-1.5,2.24-5.81-.91-10.82-2.62-14.91-5.21-4.38,2.48-9.49,4.09-14.88,5.11-.21-.63-.84-1.71-1.29-2.24,5.11-.84,9.94-2.21,14.07-4.3-3.26-2.45-5.81-5.57-7.67-9.31l1.99-.74h-5.49v-2.31h12.11v-5.74h-14.04v-2.31h14.04v-5.57l3.12.21c-.04.25-.25.42-.7.49v4.87h14.18v2.31h-14.18v5.74h8.61l.46-.07ZM903.35,478.39c1.75,3.54,4.34,6.48,7.74,8.75,3.5-2.21,6.37-5.08,8.22-8.75h-15.96Z"/>
    <path class="cls-17" d="M938.04,479.44l5.78-1.47c.14,1.09.17,1.54.21,2-1.99.59-4.06,1.19-5.98,1.75v10.29c0,2.87-1.4,3.04-6.69,3.04-.14-.59-.46-1.61-.77-2.28,1.02.04,1.96.04,2.73.04,2.17,0,2.42,0,2.42-.8v-9.66c-1.82.53-3.43.98-4.76,1.3-.04.28-.24.49-.46.56l-.91-2.73c1.68-.38,3.78-.88,6.13-1.47v-7.98h-5.74v-2.24h5.74v-7.32l3.01.17c-.04.28-.21.42-.7.49v6.65h5.36v2.24h-5.36v7.42ZM955.47,479.05c2.9,4.79,5.88,11.06,6.93,14.98l-2.21.98c-.28-1.05-.66-2.28-1.19-3.61-6.48.56-13.34,1.09-17.61,1.4-.07.28-.24.46-.53.49l-.91-2.8,3.46-.17c2.24-7.49,4.83-18.97,6.2-27.34l3.15.7c-.07.32-.39.46-.88.56-1.4,7.7-3.92,18.45-6.16,25.94,3.75-.25,8.16-.53,12.46-.84-1.3-3.15-3.01-6.58-4.76-9.45l2.03-.84Z"/>
    <path class="cls-17" d="M970.73,467.19c-.07.32-.46.52-.95.56-.42,2.62-.67,5.78-.67,8.72,0,1.29.07,2.55.14,3.67.42,5.95,2.84,9.56,5.53,9.52,1.4,0,3.22-3.57,4.48-7.49.49.49,1.43,1.16,2.03,1.5-1.61,4.73-3.64,8.58-6.54,8.65-4.45.07-7.53-5.32-8.02-12.04-.11-1.33-.14-2.8-.14-4.38,0-3.08.17-6.44.53-9.42l3.61.7ZM993.94,483.46c-.98-6.12-4.1-10.54-8.82-13.16l1.54-1.89c5.11,2.73,8.86,7.77,9.87,14.25l-2.59.8Z"/>
    <path class="cls-17" d="M1012.69,485.74h-9.28v3.36h-2.21v-24.43h11.48v21.07ZM1010.49,466.84h-7.07v7.11h7.07v-7.11ZM1003.42,483.57h7.07v-7.46h-7.07v7.46ZM1031.11,464v27.72c0,1.58-.38,2.35-1.47,2.73-1.08.39-3.01.46-6.09.46-.11-.67-.53-1.68-.88-2.34,1.19.04,2.35.07,3.29.07,2.55,0,2.83,0,2.83-.91v-8.16h-10.92c-.81,4.24-2.63,8.51-6.65,11.62-.35-.46-1.22-1.29-1.75-1.61,6.06-4.66,6.65-11.41,6.65-16.98v-12.6h14.98ZM1018.43,476.6c0,1.5-.07,3.12-.24,4.8h10.61v-6.58h-10.36v1.79ZM1028.79,466.21h-10.36v6.44h10.36v-6.44Z"/>
    <path class="cls-17" d="M1045.73,478c-.66-1.19-1.43-2.41-2.21-3.46l1.79-.84c1.65,2.21,3.4,5.18,4.06,7.11l-1.89.91c-.18-.56-.46-1.22-.81-1.93l-3.81.21v14.98h-2.13v-14.88c-2,.07-3.82.17-5.25.21-.04.28-.24.38-.49.46l-.63-2.62h2.59c.77-.91,1.61-1.96,2.42-3.08-1.09-1.58-2.98-3.61-4.66-5.08l1.19-1.54c.35.28.7.59,1.05.95,1.22-2.07,2.66-4.9,3.46-6.93l2.56,1.08c-.14.21-.35.28-.74.28-.98,2.03-2.59,4.9-3.92,6.86.91.91,1.71,1.82,2.28,2.63,1.57-2.35,3.08-4.83,4.17-6.86l2.48,1.19c-.14.17-.42.28-.8.28-1.82,2.97-4.69,7.14-7.21,10.19l6.51-.11ZM1039.22,483.29c-.07.21-.28.35-.66.35-.49,2.97-1.3,6.33-2.38,8.4-.46-.32-1.22-.67-1.75-.91,1.01-1.96,1.79-5.32,2.24-8.51l2.55.67ZM1046.75,490.08c-.31-1.89-1.29-4.79-2.31-6.96l1.82-.6c1.05,2.21,2.07,5.01,2.45,6.9l-1.96.66ZM1049.48,465.26h16.14v29.23h-2.24v-1.65h-11.73v1.93h-2.17v-29.51ZM1056.41,467.47h-4.76v10.43h4.76v-10.43ZM1051.65,480.1v10.57h4.76v-10.57h-4.76ZM1063.38,477.9v-10.43h-4.83v10.43h4.83ZM1058.54,490.68h4.83v-10.57h-4.83v10.57Z"/>
    <path class="cls-17" d="M1087.07,480.52h14.84v1.79h-31.68v-1.79h14.49v-2.27h-12.04v-1.65h12.04v-2.14h-10.96v-1.61h10.96v-2.28h-14.39v-1.79h14.39v-2.21h-10.57v-1.65h10.57v-2.56l3.04.21c-.04.25-.21.39-.7.46v1.89h10.12v3.85h4.55v1.79h-4.55v3.88h-10.12v2.14h12.32v1.65h-12.32v2.27ZM1074.85,495.09v-10.99h22.68v10.92h-2.35v-1.15h-18.06v1.22h-2.28ZM1095.19,485.81h-18.06v2.31h18.06v-2.31ZM1077.13,492.15h18.06v-2.42h-18.06v2.42ZM1087.07,466.59v2.21h7.77v-2.21h-7.77ZM1087.07,470.58v2.28h7.77v-2.28h-7.77Z"/>
    <path class="cls-17" d="M866.62,504.6c-3.82,3.19-6.93,9.03-6.93,16.1s3.22,13.02,6.93,16.1v.17h-2.1c-3.54-3.18-6.69-9.07-6.69-16.28s3.15-13.09,6.69-16.28h2.1v.17Z"/>
    <path class="cls-17" d="M900.89,523.79h-5.18c-.18,2.55-.38,4.62-.63,6.27h4.87v2.1h-5.18c-.95,4.66-2.41,4.9-5.32,4.9-1.05,0-2.35-.04-3.64-.14-.04-.56-.24-1.37-.6-1.92,2.07.21,3.89.24,4.66.24,1.26,0,1.89-.49,2.49-3.08h-17.54c-.18.8-.32,1.58-.46,2.24l-2.35-.14c.6-2.73,1.29-6.55,1.93-10.47h-5.46v-2.17h5.81c.42-2.8.84-5.57,1.12-7.98h19.11l.56-.07,1.3.17c-.04.21-.04.49-.11.74-.14,2.7-.28,5.08-.42,7.14h5.04v2.17ZM899.1,510.24h-22.51c-1.4,2.13-3.19,4.34-5.36,6.27-.46-.49-1.29-1.12-1.93-1.44,3.78-3.12,6.34-7.32,7.7-10.61,2.34.31,2.7.38,3.01.42-.04.28-.28.42-.7.46-.39.88-.88,1.79-1.4,2.73h21.18v2.17ZM882.65,530.05c.28-1.82.6-3.99.84-6.27h-7.25c-.35,2.17-.7,4.34-1.05,6.27h7.46ZM883.77,521.62c.21-2.03.42-4.06.56-5.88h-6.86c-.28,1.86-.6,3.88-.88,5.88h7.18ZM885.66,523.79c-.28,2.28-.56,4.48-.8,6.27h7.88c.24-1.61.49-3.64.66-6.27h-7.74ZM886.57,515.73c-.17,1.86-.42,3.85-.63,5.88h7.63c.11-1.75.24-3.71.35-5.88h-7.35Z"/>
    <path class="cls-17" d="M907.08,506.74h22.72v29.47h-2.45v-2.1h-17.85v2.31h-2.42v-29.68ZM927.35,509.12h-17.85v10.05h17.85v-10.05ZM909.5,531.73h17.85v-10.26h-17.85v10.26Z"/>
    <path class="cls-17" d="M944.02,534.43l6.2-25.91h3.61l-6.27,25.91h-3.54Z"/>
    <path class="cls-17" d="M997.26,523.79h-5.18c-.18,2.55-.38,4.62-.63,6.27h4.87v2.1h-5.18c-.95,4.66-2.41,4.9-5.32,4.9-1.05,0-2.35-.04-3.64-.14-.04-.56-.24-1.37-.6-1.92,2.07.21,3.89.24,4.66.24,1.26,0,1.89-.49,2.49-3.08h-17.54c-.18.8-.32,1.58-.46,2.24l-2.35-.14c.6-2.73,1.29-6.55,1.93-10.47h-5.46v-2.17h5.81c.42-2.8.84-5.57,1.12-7.98h19.11l.56-.07,1.3.17c-.04.21-.04.49-.11.74-.14,2.7-.28,5.08-.42,7.14h5.04v2.17ZM995.47,510.24h-22.51c-1.4,2.13-3.19,4.34-5.36,6.27-.46-.49-1.29-1.12-1.93-1.44,3.78-3.12,6.34-7.32,7.7-10.61,2.34.31,2.7.38,3.01.42-.04.28-.28.42-.7.46-.39.88-.88,1.79-1.4,2.73h21.18v2.17ZM979.02,530.05c.28-1.82.6-3.99.84-6.27h-7.25c-.35,2.17-.7,4.34-1.05,6.27h7.46ZM980.14,521.62c.21-2.03.42-4.06.56-5.88h-6.86c-.28,1.86-.6,3.88-.88,5.88h7.18ZM982.03,523.79c-.28,2.28-.56,4.48-.8,6.27h7.88c.24-1.61.49-3.64.66-6.27h-7.74ZM982.94,515.73c-.17,1.86-.42,3.85-.63,5.88h7.63c.11-1.75.24-3.71.35-5.88h-7.35Z"/>
    <path class="cls-17" d="M1006.67,518.46v11.55c2.73,4.2,7.91,4.2,13.93,4.2,4.03,0,8.93-.1,11.83-.28-.31.53-.66,1.58-.77,2.24-2.42.07-6.3.14-9.84.14-7.81,0-12.67,0-16.14-4.34-1.54,1.58-3.19,3.12-4.48,4.34,0,.28-.07.38-.32.53l-1.33-2.38c1.47-1.16,3.29-2.7,4.87-4.2v-9.55h-4.52v-2.24h6.76ZM1002.02,505.3c2.13,1.68,4.52,4.13,5.53,5.92l-1.96,1.37c-.95-1.82-3.29-4.38-5.39-6.09l1.82-1.19ZM1013.01,507.89v7.21c0,4.9-.42,11.83-3.36,16.59-.42-.42-1.37-1.01-1.89-1.29,2.8-4.48,3.08-10.71,3.08-15.3v-9.21h19.08v23.59c0,2.62-1.33,2.7-6.09,2.7-.07-.59-.38-1.5-.66-2.03.91,0,1.75.04,2.41.04,1.93,0,2.14,0,2.14-.7v-21.6h-14.7ZM1014.41,516.08h4.73v-3.04h-4.38v-1.79h4.38v-2.87l2.7.18c-.04.24-.21.38-.67.46v2.24h4.8v1.79h-4.8v3.04h5.18v1.79h-11.94v-1.79ZM1017.35,527.78v1.82h-1.89v-9.63h9.52v7.81h-7.63ZM1023.05,521.72h-5.71v4.31h5.71v-4.31Z"/>
    <path class="cls-17" d="M1043.19,534.43l6.2-25.91h3.61l-6.27,25.91h-3.54Z"/>
    <path class="cls-17" d="M1096.43,523.79h-5.18c-.18,2.55-.38,4.62-.63,6.27h4.87v2.1h-5.18c-.95,4.66-2.41,4.9-5.32,4.9-1.05,0-2.35-.04-3.64-.14-.04-.56-.24-1.37-.6-1.92,2.07.21,3.89.24,4.66.24,1.26,0,1.89-.49,2.49-3.08h-17.54c-.18.8-.32,1.58-.46,2.24l-2.35-.14c.6-2.73,1.29-6.55,1.93-10.47h-5.46v-2.17h5.81c.42-2.8.84-5.57,1.12-7.98h19.11l.56-.07,1.3.17c-.04.21-.04.49-.11.74-.14,2.7-.28,5.08-.42,7.14h5.04v2.17ZM1094.65,510.24h-22.51c-1.4,2.13-3.19,4.34-5.36,6.27-.46-.49-1.29-1.12-1.93-1.44,3.78-3.12,6.34-7.32,7.7-10.61,2.34.31,2.7.38,3.01.42-.04.28-.28.42-.7.46-.39.88-.88,1.79-1.4,2.73h21.18v2.17ZM1078.2,530.05c.28-1.82.6-3.99.84-6.27h-7.25c-.35,2.17-.7,4.34-1.05,6.27h7.46ZM1079.32,521.62c.21-2.03.42-4.06.56-5.88h-6.86c-.28,1.86-.6,3.88-.88,5.88h7.18ZM1081.21,523.79c-.28,2.28-.56,4.48-.8,6.27h7.88c.24-1.61.49-3.64.66-6.27h-7.74ZM1082.12,515.73c-.17,1.86-.42,3.85-.63,5.88h7.63c.11-1.75.24-3.71.35-5.88h-7.35Z"/>
    <path class="cls-17" d="M1125.38,506.35v27.16c0,1.82-.49,2.62-1.79,3.04s-3.64.46-7.46.42c-.18-.66-.63-1.79-1.02-2.48,1.68.07,3.29.11,4.55.11,3.04,0,3.26,0,3.26-1.09v-7.81h-17.33c-.91,4.1-2.73,8.23-6.44,11.34-.35-.52-1.23-1.4-1.75-1.75,6.02-5.11,6.62-12.36,6.62-18.17v-10.78h21.35ZM1106.4,517.13c0,1.79-.07,3.99-.38,6.3h16.91v-6.3h-16.52ZM1122.93,508.66h-16.52v6.23h16.52v-6.23Z"/>
    <path class="cls-17" d="M1130.42,536.81c3.81-3.19,6.93-9.03,6.93-16.1s-3.22-13.02-6.93-16.1v-.17h2.1c3.57,3.19,6.69,9.07,6.69,16.28s-3.12,13.09-6.69,16.28h-2.1v-.17Z"/>
  </g>
  <rect class="cls-29" x="1620.88" y="367.34" width="224.53" height="224.53" rx="19.94" ry="19.94"/>
  <g>
    <path d="M1697.89,627.05l.59-.04,1.29.07c0,.22-.04.59-.04.89-.3,17.06-.59,22.5-1.67,24.05-.81,1.15-1.55,1.41-4.26,1.41-.74,0-1.55-.04-2.37-.07-.07-.74-.3-1.78-.7-2.48,1.7.15,3.26.15,3.89.15.59,0,.92-.11,1.26-.59.78-1.07,1.15-6.18,1.41-20.94h-6.07c-.33,9.84-1.52,19.02-6.18,24.64-.41-.56-1.29-1.26-1.92-1.63,4.29-5.03,5.37-13.54,5.66-23.02h-5.07v-2.44h5.14c.04-2.37.04-4.81.04-7.25l3.4.19c-.07.33-.33.55-.93.63,0,2.15-.04,4.29-.07,6.44h6.59ZM1703.26,624.2h12.58v28.79h-2.48v-2.48h-7.7v2.78h-2.41v-29.08ZM1705.66,648.1h7.7v-21.5h-7.7v21.5Z"/>
    <path d="M1750.06,650.84h4.51v2.22h-34.08v-2.22h4.55v-9.32h25.01v9.32ZM1725.05,636.11v2.07h-2.29v-16.73h11.58v14.65h-9.29ZM1732.04,623.53h-6.99v4.22h6.99v-4.22ZM1725.05,634.08h6.99v-4.33h-6.99v4.33ZM1727.42,643.59v7.25h5.14v-7.25h-5.14ZM1749.66,633.93h-9.44c-.67,2.48-2,4.92-4.59,6.77-.3-.48-1.18-1.33-1.67-1.7,4-2.89,4.55-6.92,4.55-10.29v-7.81h13.62v16.43c0,2.66-1.26,2.89-6.48,2.89-.15-.67-.55-1.63-.89-2.26.85.04,1.63.04,2.29.04,2.48,0,2.59,0,2.59-.7v-3.37ZM1740.07,643.59h-5.22v7.25h5.22v-7.25ZM1740.81,628.42c0,1,0,2.18-.22,3.51h9.07v-3.51h-8.84ZM1749.66,622.98h-8.84v3.44h8.84v-3.44ZM1747.62,643.59h-5.22v7.25h5.22v-7.25Z"/>
    <path d="M1776.85,624.72h14.58v2.37h-28.6v7.4c0,5.7-.48,14.02-3.66,19.69-.44-.44-1.55-1.15-2.15-1.44,3.03-5.37,3.33-12.88,3.33-18.24v-9.77h13.95v-4.96l3.29.22c-.04.26-.22.44-.74.52v4.22ZM1778.81,628.16c-.04.26-.22.44-.74.52v3.92h12.84v2.26h-12.84v5.66h10.25v13.58h-2.52v-1.41h-16.87v1.52h-2.44v-13.69h9.1v-12.58l3.22.22ZM1785.8,650.43v-7.66h-16.87v7.66h16.87Z"/>
    <path class="cls-19" d="M1683.2,689.49l.11,2c-4.83.95-9.91,1.92-13.09,2.52-.04.28-.25.42-.49.49l-.8-2.66c1.75-.25,3.92-.59,6.3-1.01v-10.33h-5.99v-2.14h5.99v-3.99h-3.96v-.84c-.42.46-.84.91-1.29,1.33-.38-.53-1.12-1.26-1.65-1.58,3.26-3.01,5.67-6.86,7-9.87l2.87.46c-.07.25-.28.42-.7.42v.04c2.31,1.86,5.01,4.34,6.37,5.99-.84.95-1.12,1.37-1.44,1.82-1.26-1.61-3.71-3.99-5.95-5.92-1.08,1.92-2.45,4.06-4.17,6.09h9.28v2.07h-4.2v3.99h5.71v2.14h-5.71v9.98l5.81-.98ZM1671.72,689.45c-.14-1.82-.8-4.55-1.58-6.65l1.75-.46c.81,2.1,1.47,4.8,1.65,6.58l-1.82.53ZM1682.95,682.91c-.1.21-.35.32-.7.32-.49,1.68-1.4,4.27-2.13,5.92-.04,0-1.61-.59-1.61-.59.7-1.72,1.61-4.55,2.03-6.48l2.42.84ZM1692.72,680.21c.49,2.03,1.09,3.96,1.89,5.71,1.65-1.26,3.54-2.91,4.73-4.2l2.03,1.82c-.17.17-.46.25-.77.17-1.29,1.16-3.4,2.8-5.11,3.99,1.54,2.83,3.61,5.04,6.2,6.33-.52.46-1.22,1.33-1.54,1.96-4.97-2.84-7.91-8.65-9.42-15.79h-3.5v11.87c2.28-.38,4.76-.88,7.25-1.33l.17,2.07c-4.06.91-8.26,1.82-10.92,2.34-.07.28-.25.46-.49.53l-.95-2.73,2.7-.46v-27.55h14.6v15.26h-6.86ZM1697.31,667.08h-10.08v4.38h10.08v-4.38ZM1687.22,673.53v4.52h10.08v-4.52h-10.08Z"/>
    <path class="cls-19" d="M1714.52,664.6c-.07.17-.35.31-.77.25-2.03,2.55-5.67,5.88-8.79,8.09-.28-.53-.95-1.44-1.37-1.89,2.94-1.92,6.41-5.04,8.19-7.6l2.73,1.16ZM1709.17,695.96v-15.4c-1.33,1.47-2.66,2.84-3.99,3.99-.31-.46-1.05-1.4-1.5-1.82,3.33-2.77,7.18-7.35,9.59-11.73l2.73,1.12c-.11.21-.38.35-.81.28-1.05,1.75-2.27,3.54-3.6,5.25l.63.21c-.07.21-.28.39-.7.46v17.64h-2.35ZM1736.23,675.84v2.27h-5.57v14.81c0,2.94-1.12,3.01-8.19,3.01-.11-.67-.42-1.61-.77-2.31,1.54.04,2.98.07,4.06.07,2.28,0,2.52,0,2.52-.81v-14.77h-12.18v-2.27h20.13ZM1734.9,665.65v2.24h-17.47v-2.24h17.47Z"/>
    <path class="cls-19" d="M1741.51,666.56h27.58v28.98h-2.52v-3.01h-22.65v3.19h-2.42v-29.16ZM1743.92,690.15h22.65v-21.25h-22.65v21.25Z"/>
    <path class="cls-19" d="M1805.91,669.67h-27.23v7.67c0,5.43-.46,13.34-3.33,18.73-.46-.42-1.43-1.08-2-1.33,2.77-5.11,3.01-12.25,3.01-17.4v-9.87h13.44v-4.03l3.12.21c-.04.25-.21.42-.7.49v3.33h13.69v2.21ZM1793.66,687.35v5.57h12.36v2.1h-27.13v-2.1h12.46v-5.57h-9.91v-2.1h9.91v-14.14l2.98.17c-.04.25-.21.42-.67.49v13.48h10.22v2.1h-10.22ZM1789.14,682.7c-.84-1.16-2.38-2.8-3.89-4.27-1.01,2.17-2.38,3.99-4.1,5.29-.38-.42-1.12-1.05-1.64-1.37,2.94-2.1,4.73-5.95,5.46-10.57l2.73.42c-.04.25-.25.38-.67.42-.25,1.37-.59,2.66-1.01,3.89,1.71,1.5,3.64,3.43,4.58,4.66l-1.47,1.54ZM1804.69,683.47c-1.15-1.37-3.29-3.4-5.32-5.15-1.01,2-2.38,3.68-4.03,4.83-.35-.38-1.05-1.02-1.58-1.33,2.91-1.96,4.73-5.6,5.5-10.05l2.7.46c-.07.25-.28.38-.67.42-.25,1.29-.6,2.55-1.05,3.75,2.14,1.75,4.66,4.03,5.95,5.5l-1.51,1.58Z"/>
  </g>
  <g>
    <path class="cls-23" d="M1807.48,458.01c0,7.17-6.4,12.98-14.28,12.98s-14.28-5.81-14.28-12.98c0,7.17-6.4,12.98-14.28,12.98s-14.28-5.81-14.28-12.98c0,7.17-6.4,12.98-14.28,12.98s-14.28-5.81-14.28-12.98c0,7.17-6.4,12.98-14.28,12.98s-14.28-5.81-14.28-12.98c0,7.17-6.4,12.98-14.28,12.98s-14.28-5.81-14.28-12.98"/>
    <path class="cls-22" d="M1664.65,458.01l14.89-47.23c.8-2.79,3.34-4.71,6.24-4.71h100.58c2.9,0,5.45,1.92,6.24,4.71l14.89,47.23"/>
    <path class="cls-23" d="M1797.75,470.99v77.91c0,3.59-2.91,6.49-6.49,6.49h-110.37c-3.59,0-6.49-2.91-6.49-6.49v-77.91"/>
    <line class="cls-22" x1="1719.84" y1="464.5" x2="1719.84" y2="555.39"/>
    <line class="cls-22" x1="1706.85" y1="503.45" x2="1706.85" y2="509.95"/>
    <line class="cls-22" x1="1758.79" y1="490.47" x2="1739.31" y2="509.95"/>
    <line class="cls-22" x1="1771.78" y1="503.45" x2="1745.81" y2="529.42"/>
    <line class="cls-22" x1="1778.92" y1="458.01" x2="1771.1" y2="406.07"/>
    <line class="cls-22" x1="1750.35" y1="458.01" x2="1745.54" y2="406.07"/>
    <line class="cls-22" x1="1721.78" y1="458.01" x2="1726.19" y2="406.07"/>
    <line class="cls-22" x1="1693.22" y1="458.01" x2="1701.58" y2="406.07"/>
  </g>
  <g>
    <line class="cls-21" x1="998.5" y1="259.5" x2="998.5" y2="375.22"/>
    <polygon class="cls-16" points="988.93 372.42 998.5 389 1008.07 372.42 988.93 372.42"/>
  </g>
  <g>
    <line class="cls-21" x1="1306.5" y1="509.35" x2="1547.05" y2="509.35"/>
    <polygon class="cls-16" points="1544.25 518.92 1560.83 509.35 1544.25 499.77 1544.25 518.92"/>
  </g>
  <text class="cls-10" transform="translate(1284.44 479.87)"><tspan x="0" y="0">純額の資金振</tspan><tspan class="cls-14" x="192" y="0">込を</tspan><tspan x="254.72" y="0">開始</tspan></text>
  <text class="cls-25" transform="translate(31.12 -17.79)"><tspan x="0" y="0">Statement Flow</tspan></text>
</svg>