<?xml version="1.0" encoding="UTF-8"?>
<svg id="Layer_1" data-name="Layer 1" xmlns="http://www.w3.org/2000/svg" viewBox="0 0 1992 1687">
  <defs>
    <style>
      .cls-1 {
        letter-spacing: -.04em;
      }

      .cls-2, .cls-3 {
        letter-spacing: -.04em;
      }

      .cls-4, .cls-5, .cls-6, .cls-7, .cls-8, .cls-9, .cls-3, .cls-10, .cls-11, .cls-12, .cls-13, .cls-14, .cls-15, .cls-16, .cls-17 {
        font-family: KozGoPr6N-Regular-83pv-RKSJ-H, 'Kozuka Gothic Pr6N';
      }

      .cls-4, .cls-18 {
        letter-spacing: 0em;
      }

      .cls-19 {
        letter-spacing: -.08em;
      }

      .cls-20, .cls-8 {
        letter-spacing: -.08em;
      }

      .cls-21, .cls-9 {
        letter-spacing: -.02em;
      }

      .cls-22 {
        letter-spacing: -.02em;
      }

      .cls-23 {
        letter-spacing: -.03em;
      }

      .cls-24 {
        letter-spacing: -.03em;
      }

      .cls-5 {
        letter-spacing: -.15em;
      }

      .cls-25 {
        letter-spacing: -.06em;
      }

      .cls-26 {
        letter-spacing: -.06em;
      }

      .cls-27 {
        letter-spacing: -.14em;
      }

      .cls-7 {
        letter-spacing: -.09em;
      }

      .cls-28 {
        letter-spacing: -.16em;
      }

      .cls-29 {
        letter-spacing: 0em;
      }

      .cls-30, .cls-17 {
        letter-spacing: 0em;
      }

      .cls-10 {
        letter-spacing: -.07em;
      }

      .cls-31 {
        fill: #ff931e;
        stroke: #d0d4eb;
      }

      .cls-31, .cls-32 {
        stroke-miterlimit: 10;
      }

      .cls-32 {
        fill: #f2f2f2;
        stroke: #22b573;
      }

      .cls-11 {
        letter-spacing: -.16em;
      }

      .cls-33 {
        font-size: 35.84px;
      }

      .cls-33, .cls-34 {
        fill: #666;
      }

      .cls-12 {
        font-size: 34.49px;
      }

      .cls-12, .cls-35, .cls-36 {
        fill: #fff;
      }

      .cls-37 {
        letter-spacing: -.05em;
      }

      .cls-38, .cls-15 {
        letter-spacing: -.1em;
      }

      .cls-39, .cls-13 {
        letter-spacing: -.05em;
      }

      .cls-40, .cls-14 {
        letter-spacing: -.05em;
      }

      .cls-41 {
        letter-spacing: -.05em;
      }

      .cls-42 {
        letter-spacing: -.1em;
      }

      .cls-43 {
        font-family: Arial-BoldMT, Arial;
        font-weight: 700;
      }

      .cls-35 {
        fill-rule: evenodd;
      }

      .cls-35, .cls-34, .cls-36, .cls-44 {
        stroke-width: 0px;
      }

      .cls-45 {
        letter-spacing: 0em;
      }

      .cls-44 {
        fill: #00a99d;
      }

      .cls-46 {
        letter-spacing: -.07em;
      }

      .cls-16 {
        letter-spacing: -.11em;
      }
    </style>
  </defs>
  <rect class="cls-36" width="1992" height="1687"/>
  <rect class="cls-31" x="26.84" y="31.78" width="564.75" height="139.39" rx="15.81" ry="15.81"/>
  <text class="cls-12" transform="translate(169.02 112.74)"><tspan x="0" y="0">加盟</tspan><tspan class="cls-1" x="68.98" y="0">店</tspan><tspan class="cls-46" x="102.09" y="0">アカ</tspan><tspan class="cls-42" x="166.24" y="0">ウ</tspan><tspan class="cls-28" x="197.28" y="0">ン</tspan><tspan class="cls-46" x="226.25" y="0">ト</tspan><tspan x="258.32" y="0">の作成</tspan></text>
  <path class="cls-35" d="M84.41,118.63l12.89-2.21,34.75-34.75c1.37-1.37,2.21-3.25,2.21-5.34,0-4.17-3.38-7.56-7.56-7.56-2.08,0-3.97.85-5.34,2.21l-34.75,34.75-2.21,12.89ZM123.5,73.12c.82-.82,1.95-1.33,3.2-1.33,2.5,0,4.53,2.03,4.53,4.53,0,1.25-.51,2.38-1.33,3.2l-1.95,1.95-6.41-6.41,1.95-1.95ZM119.41,77.21l6.41,6.41-27.82,27.82v-6.41h-6.41l27.82-27.82ZM89.35,108.05h5.63v5.63l-6.8,1.17,1.17-6.8ZM132.75,91.44c-.83,0-1.51.68-1.51,1.51v33.24c0,3.34-2.71,6.04-6.04,6.04h-48.35c-3.34,0-6.04-2.71-6.04-6.04v-48.35c0-3.34,2.71-6.04,6.04-6.04h33.24c.84,0,1.51-.68,1.51-1.51s-.67-1.51-1.51-1.51h-33.24c-5.01,0-9.06,4.06-9.06,9.06v48.35c0,5.01,4.06,9.06,9.06,9.06h48.35c5.01,0,9.06-4.06,9.06-9.06v-33.24c0-.83-.68-1.51-1.51-1.51"/>
  <rect class="cls-31" x="26.84" y="277.34" width="564.75" height="139.39" rx="15.81" ry="15.81"/>
  <text class="cls-12" transform="translate(168.68 358.3)"><tspan class="cls-1" x="0" y="0">ビ</tspan><tspan class="cls-22" x="33.11" y="0">ジ</tspan><tspan class="cls-37" x="66.91" y="0">ネ</tspan><tspan class="cls-22" x="99.67" y="0">ス</tspan><tspan x="133.47" y="0">情報</tspan></text>
  <path class="cls-35" d="M137.6,317.1h-21.95c0-4.2-3.27-7.6-7.31-7.6h-14.63c-4.04,0-7.31,3.41-7.31,7.6h-21.95c-2.02,0-3.66,1.7-3.66,3.81v19.01c0,2.1,1.64,3.8,3.66,3.8v30.42c0,2.1,1.64,3.8,3.66,3.8h65.84c2.02,0,3.66-1.7,3.66-3.8v-30.42c2.02,0,3.66-1.7,3.66-3.8v-19.01c0-2.1-1.64-3.81-3.66-3.81M93.71,313.29h14.63c2.02,0,3.65,1.7,3.65,3.8h-21.94c0-2.1,1.64-3.8,3.65-3.8M133.94,374.13h-65.84v-30.42h7.31v3.81c0,2.09,1.64,3.8,3.66,3.8h7.32c2.02,0,3.66-1.7,3.66-3.8v-3.81h21.94v3.81c0,2.09,1.64,3.8,3.66,3.8h7.32c2.02,0,3.66-1.7,3.66-3.8v-3.81h7.31v30.42ZM79.08,336.11h7.32v11.41h-7.32v-11.41ZM115.65,336.11h7.32v11.41h-7.32v-11.41ZM137.6,339.91h-10.97v-3.8c0-2.1-1.64-3.8-3.66-3.8h-7.32c-2.02,0-3.66,1.7-3.66,3.8v3.8h-21.94v-3.8c0-2.1-1.64-3.8-3.66-3.8h-7.32c-2.02,0-3.66,1.7-3.66,3.8v3.8h-10.97v-19.01h73.16v19.01Z"/>
  <rect class="cls-31" x="26.84" y="618.43" width="564.75" height="139.39" rx="15.81" ry="15.81"/>
  <text class="cls-12" transform="translate(167.64 700.39)"><tspan class="cls-41" x="0" y="0">ス</tspan><tspan class="cls-24" x="32.76" y="0">テ</tspan><tspan class="cls-19" x="66.22" y="0">ーク</tspan><tspan x="129.68" y="0">ホ</tspan><tspan class="cls-26" x="164.17" y="0">ル</tspan><tspan class="cls-22" x="196.58" y="0">ダ</tspan><tspan class="cls-45" x="230.38" y="0">ー</tspan><tspan x="264.53" y="0">情報</tspan></text>
  <path class="cls-35" d="M67.54,705.11c2.62-.72,7.13-3.69,7.13-10.4,0-6.01-1.96-8.66-3.01-10.08l-.13-.18s-.02-.03-.04-.05c-.08-.25-.33-1.27.2-3.46.21-.85.08-1.83-.28-2.62-.79-1.73-2.26-4.95-1.23-7.38,1.71-4.16,2.43-4.47,4.35-5.31.19-.08.37-.18.54-.29.48-.31,2.45-1.04,4.46-1.04.97,0,1.78.18,2.42.5.17-.67.37-1.35.65-2.02.24-.6.49-1.11.74-1.64-1.21-.53-2.52-.75-3.81-.75-2.82,0-5.49.97-6.56,1.65-3.12,1.36-4.43,2.62-6.39,7.4-1.71,4.01.33,8.37,1.33,10.56-1.22,5,.47,6.73.47,6.73.89,1.21,2.39,2.97,2.39,7.96,0,5.68-4.37,6.67-4.37,6.67-3.55,1.24-8.28,3.88-8.28,11.68,0,0,0,1.95,1.95,1.95h8.69c.47-1.44,1.08-2.75,1.83-3.9h-8.43c.58-3.71,2.88-5.11,5.37-6M135.64,701.37s-4.37-.99-4.37-6.67c0-4.99,1.5-6.74,2.39-7.96,0,0,1.69-1.73.47-6.73,1-2.19,3.03-6.55,1.33-10.56-1.97-4.78-3.28-6.03-6.39-7.4-1.07-.68-3.74-1.65-6.56-1.65-1.33,0-2.69.24-3.93.8.5,1.26.92,2.51,1.22,3.74.05-.03.1-.06.15-.09.66-.37,1.53-.55,2.56-.55,2.02,0,3.98.73,4.46,1.04.17.11.35.21.54.29,1.92.84,2.64,1.15,4.35,5.31,1.03,2.42-.44,5.64-1.23,7.38-.37.8-.49,1.77-.28,2.62.53,2.19.29,3.21.2,3.46,0,.01-.02.03-.03.05l-.13.18c-1.05,1.42-3.01,4.07-3.01,10.08,0,6.71,4.51,9.68,7.13,10.4,2.49.89,4.79,2.29,5.37,5.99h-8.43c.75,1.15,1.36,2.46,1.83,3.9h8.69c1.95,0,1.95-1.95,1.95-1.95,0-7.8-4.73-10.43-8.28-11.68M116.57,705.67s-6.99-1.67-6.99-8.97c0-6.41,2.87-8.67,3.98-10.23,0,0,2.28-2,.75-8.43,2.55-3.53,3.37-9.27.26-16.37-1.74-4.14-3.26-6.41-5.6-7.73-1.71-.97-3.66-1.33-5.55-1.33-3.52,0-6.86,1.25-8.2,2.12-3.9,1.75-6.52,3.36-8.98,9.51-2.13,5.16.41,10.77,1.66,13.58-1.53,6.44.59,8.65.59,8.65,1.11,1.56,3.98,3.82,3.98,10.23,0,7.3-6.99,8.97-6.99,8.97-4.44,1.6-13.7,4.65-13.7,15.18,0,0,0,1.95,1.95,1.95h54.6c1.95,0,1.95-1.95,1.95-1.95,0-10.53-9.26-13.59-13.7-15.18M75.83,718.9c.91-5.49,5.72-7.68,10.63-9.45l.15-.05c3.5-.93,9.74-4.67,9.74-12.7,0-6.81-2.76-10.13-4.24-11.92-.29-.36-.65-.82-.57-.72-.12-.26-.7-1.79.14-5.35.4-1.67-.27-2.58-.27-2.58-1.06-2.39-3.04-6.85-1.56-10.45,1.99-4.98,3.76-5.96,6.96-7.4.19-.08.37-.18.54-.29.6-.4,3.17-1.49,6.06-1.49,1.45,0,2.67.28,3.63.83,1.16.65,2.27,1.9,3.95,5.9,3.13,7.14,1.15,11.14.15,12.52-.66.92-.89,2.08-.63,3.18.77,3.27.27,4.65.14,4.93-.03.04-.5.63-.74.92-1.48,1.79-4.24,5.11-4.24,11.92,0,8.03,6.24,11.77,9.75,12.7l.15.05c4.91,1.76,9.72,3.96,10.63,9.45h-50.39Z"/>
  <rect class="cls-31" x="26.84" y="1020.07" width="564.75" height="139.39" rx="15.81" ry="15.81"/>
  <text class="cls-12" transform="translate(169.02 1101.15)"><tspan x="0" y="0">支払い詳細</tspan></text>
  <path class="cls-35" d="M107.91,1062.36h-3.25v19.53h3.25v-19.53ZM94.89,1062.36h-6.51v19.53h6.51v-19.53ZM101.4,1062.36h-3.25v19.53h3.25v-19.53ZM120.93,1062.36h-3.25v19.53h3.25v-19.53ZM114.42,1062.36h-3.25v19.53h3.25v-19.53ZM125.81,1055.85h-48.81c-.9,0-1.63.73-1.63,1.63v68.34c0,.9.73,1.63,1.63,1.63.45,0,.86-.18,1.15-.48l5.36-5.36,5.36,5.36c.29.29.7.48,1.15.48s.86-.18,1.15-.48l5.18-5.18,3.76,5.01.02-.02c.3.39.75.67,1.28.67s.98-.27,1.28-.67l.02.02,3.76-5.01,5.18,5.18c.29.29.7.48,1.15.48s.86-.18,1.15-.48l5.36-5.36,5.36,5.36c.29.29.7.48,1.15.48.9,0,1.63-.73,1.63-1.63v-68.34c0-.9-.73-1.63-1.63-1.63M124.18,1121.89l-3.73-3.73c-.29-.29-.7-.47-1.15-.47s-.86.18-1.15.47l-5.36,5.36-5.36-5.36c-.29-.29-.7-.47-1.15-.47-.53,0-.98.27-1.28.67l-.02-.02-3.58,4.77-3.58-4.77-.02.02c-.3-.39-.75-.67-1.28-.67-.45,0-.86.18-1.15.47l-5.36,5.36-5.36-5.36c-.29-.29-.7-.47-1.15-.47s-.86.18-1.15.47l-3.73,3.73v-62.78h45.56v62.78ZM114.42,1107.92h-32.54v3.25h32.54v-3.25ZM120.93,1101.41h-39.05v3.25h39.05v-3.25ZM85.13,1062.36h-3.25v19.53h3.25v-19.53ZM120.93,1094.9h-39.05v3.25h39.05v-3.25ZM107.91,1088.39h-26.03v3.25h26.03v-3.25Z"/>
  <rect class="cls-31" x="26.84" y="1257.89" width="564.75" height="139.39" rx="15.81" ry="15.81"/>
  <text class="cls-12" transform="translate(169.02 1338.97)"><tspan x="0" y="0">決済方法</tspan></text>
  <path class="cls-35" d="M120.83,1347.18h7.11c.98,0,1.78-.79,1.78-1.78v-7.1c0-.98-.8-1.78-1.78-1.78h-7.11c-.98,0-1.78.8-1.78,1.78v7.1c0,.98.8,1.78,1.78,1.78M136.82,1301.01h-71.04c-1.96,0-3.55,1.59-3.55,3.55v49.73c0,1.96,1.59,3.55,3.55,3.55h71.04c1.96,0,3.55-1.59,3.55-3.55v-49.73c0-1.96-1.59-3.55-3.55-3.55M136.82,1354.28h-71.04v-28.42h71.04v28.42ZM136.82,1311.66h-71.04v-7.1h71.04v7.1ZM74.66,1340.08h31.97c.98,0,1.78-.79,1.78-1.78s-.8-1.78-1.78-1.78h-31.97c-.98,0-1.78.8-1.78,1.78s.8,1.78,1.78,1.78M74.66,1347.18h24.86c.98,0,1.78-.79,1.78-1.78s-.8-1.78-1.78-1.78h-24.86c-.98,0-1.78.8-1.78,1.78s.8,1.78,1.78,1.78"/>
  <rect class="cls-31" x="26.4" y="1495.91" width="564.75" height="139.39" rx="15.81" ry="15.81"/>
  <text class="cls-12" transform="translate(168.57 1576.98)"><tspan x="0" y="0">最</tspan><tspan class="cls-1" x="34.49" y="0">終</tspan><tspan class="cls-37" x="67.6" y="0">ス</tspan><tspan class="cls-42" x="100.36" y="0">テ</tspan><tspan class="cls-27" x="131.4" y="0">ッ</tspan><tspan class="cls-29" x="161.06" y="0">プ</tspan></text>
  <path class="cls-35" d="M79.61,1579.01l1.72-1.71c.31-.31.5-.74.5-1.22,0-.94-.77-1.71-1.72-1.71-.47,0-.9.19-1.21.5l-1.72,1.72c-.31.31-.5.74-.5,1.22,0,.94.77,1.71,1.72,1.71.48,0,.9-.19,1.21-.5M90.41,1577.8c0-.95-.77-1.72-1.72-1.72-.48,0-.9.2-1.21.5l-17.15,17.15c-.31.31-.5.74-.5,1.21,0,.95.77,1.72,1.72,1.72.47,0,.9-.19,1.21-.5l17.15-17.15c.31-.31.5-.74.5-1.21M90.41,1584.65c-.48,0-.9.19-1.22.5l-5.14,5.15c-.31.31-.5.74-.5,1.21,0,.95.77,1.72,1.72,1.72.47,0,.9-.19,1.21-.5l5.15-5.15c.31-.31.5-.74.5-1.21,0-.95-.77-1.72-1.71-1.72M138.43,1529.78c0-.95-.77-1.72-1.72-1.72-.26,0-.51.07-.73.18h0s-71.95,30.82-71.95,30.82c0,0-.01,0-.02,0l-.06.03h0c-.58.29-.98.86-.98,1.54,0,.78.53,1.41,1.24,1.62v.03s28.32,11.66,28.32,11.66l11.66,28.33h.03c.21.7.84,1.23,1.62,1.23.68,0,1.26-.41,1.54-.98h.01s.02-.06.02-.06c0,0,0-.01,0-.02l30.84-71.95h-.02c.11-.23.19-.47.19-.74M69.1,1560.62l60.11-25.76-35.78,35.78-24.33-10.02ZM105.87,1597.39l-10.02-24.33,35.78-35.78-25.76,60.11Z"/>
  <rect class="cls-32" x="720.4" y="29.96" width="1239.93" height="162.97" rx="11.67" ry="11.67"/>
  <g>
    <path class="cls-34" d="M782.33,81.4c0-2.67.4-4.9,1.2-6.71.59-1.33,1.41-2.53,2.44-3.59,1.03-1.06,2.16-1.84,3.38-2.36,1.63-.69,3.51-1.04,5.64-1.04,3.86,0,6.94,1.2,9.25,3.59,2.31,2.39,3.47,5.72,3.47,9.98s-1.15,7.53-3.44,9.92c-2.3,2.39-5.37,3.58-9.21,3.58s-6.99-1.19-9.28-3.56c-2.3-2.37-3.45-5.64-3.45-9.81ZM787.78,81.22c0,2.96.68,5.21,2.05,6.74,1.37,1.53,3.11,2.29,5.21,2.29s3.83-.76,5.19-2.28c1.35-1.52,2.03-3.79,2.03-6.83s-.66-5.24-1.97-6.71c-1.31-1.48-3.06-2.21-5.24-2.21s-3.93.75-5.27,2.24c-1.33,1.49-2,3.75-2,6.76Z"/>
    <path class="cls-34" d="M817.73,94.32v-21.74h-7.77v-4.43h20.8v4.43h-7.75v21.74h-5.28Z"/>
    <path class="cls-34" d="M834.17,94.32v-26.17h8.48c3.21,0,5.31.13,6.28.39,1.5.39,2.75,1.25,3.77,2.56s1.52,3.01,1.52,5.1c0,1.61-.29,2.96-.88,4.05-.58,1.1-1.32,1.96-2.22,2.58-.9.62-1.81,1.04-2.74,1.24-1.26.25-3.09.38-5.48.38h-3.45v9.87h-5.28ZM839.46,72.58v7.43h2.89c2.08,0,3.47-.14,4.18-.41.7-.27,1.25-.7,1.65-1.29.4-.58.6-1.26.6-2.04,0-.95-.28-1.74-.84-2.36-.56-.62-1.27-1.01-2.12-1.16-.63-.12-1.9-.18-3.8-.18h-2.55Z"/>
    <path class="cls-34" d="M865.51,66.17c-.11.4-.48.62-1.21.58-1.28,5.96-1.94,12.5-1.94,16.45,0,2.74.11,5.52.48,7.24.69-1.79,2.27-5.63,2.78-6.91l1.54,1.61c-1.5,3.69-2.6,5.78-3.11,7.42-.18.62-.29,1.21-.29,1.72,0,.4.07.77.18,1.13l-2.6.48c-1.17-3.47-1.61-7.71-1.61-12.58s.77-11.48,1.94-17.81l3.84.66ZM888.8,92.9c-1.32.07-2.67.11-4.02.11-2.6,0-5.05-.15-6.8-.4-4.5-.66-6.58-3.14-6.58-6.07,0-2.52,1.39-4.64,3.44-7.06l2.38,1.02c-1.83,1.9-3.11,3.66-3.11,5.74,0,4.24,6.21,4.24,10.02,4.24,1.54,0,3.18-.07,4.72-.18l-.04,2.6ZM871.87,70.56c4.72-.11,11.08-.55,15.94-1.39l.22,2.56c-4.53.77-11.88,1.24-16.09,1.35l-.07-2.52Z"/>
    <path class="cls-34" d="M920.42,94.14c-3.14-2.49-7.13-4.86-10.97-6.11.07,1.43-.18,3.29-.48,4.24-.29,3.03-3.11,4.2-6.47,4.2-4.72,0-8.45-2.3-8.48-6-.07-3.69,3.8-5.96,8.41-6,1.28,0,2.92.07,4.28.33,0-.99-.18-1.83-.22-2.67-.33-4.79-.62-12.47-.66-17.73l3.8.22c0,.37-.33.69-.95.77-.04.99,0,5.81,0,6.91,2.38,0,7.71-.4,12.14-1.17l.26,2.6c-4.17.66-9.58,1.02-12.36,1.06,0,2.08.07,2.92.62,10.49,4.72,1.39,9.18,3.88,12.76,6.51l-1.68,2.34ZM902.36,86.68c-3.51.07-5.96,1.54-5.96,3.62,0,2.67,2.89,3.84,5.81,3.84,2.56,0,4.68-.91,4.68-3.51,0-.84,0-2.34-.07-3.4-1.46-.44-3.07-.55-4.46-.55Z"/>
    <path class="cls-34" d="M936.18,79.52c2.41-1.24,6.18-2.12,9.07-2.12,5.81,0,9.47,3.4,9.47,8.77,0,6.62-5.81,10.27-13.16,10.27-4.75,0-8.01-1.9-8.01-5.12,0-2.71,2.67-4.9,6-4.9,4.13,0,6.91,3.29,7.46,6.62,2.92-1.1,5.04-3.44,5.04-6.84,0-3.95-2.92-6.47-7.53-6.47-5.48,0-10.86,2.45-13.27,4.79-1.1,1.02-2.52,2.56-3.51,3.69l-1.86-1.86c3.29-3.44,13.75-13.42,18.72-18.06-2.12.29-9.43.58-13.6.73-.11.26-.47.48-.77.55l-.29-3.11c4.94-.04,14.37-.4,17.04-.8l.55-.26,1.94,2.38c-.18.15-.51.29-.88.33-2.6,2.12-9.54,8.63-12.39,11.37v.04ZM941.22,94.14c1.1,0,2.38-.15,3.33-.37-.4-2.81-2.49-5.19-5.19-5.19-1.9,0-3.58,1.02-3.58,2.71,0,2.23,3.03,2.85,5.45,2.85Z"/>
    <path class="cls-34" d="M965.83,72.28c3.44,1.5,7.06,3.33,10.38,5.26,2.34-3.51,4.75-8.12,6.58-12.76l3.58,1.46c-.15.33-.66.51-1.32.44-1.68,3.88-4.06,8.48-6.51,12.21,2.82,1.75,5.74,3.73,7.97,5.63l-1.75,2.3c-2.01-1.75-4.75-3.77-7.79-5.7-3.77,5.37-9.25,10.82-15.46,14.95-.44-.55-1.46-1.43-2.08-1.83,6.11-3.95,11.7-9.4,15.32-14.44-3.33-1.97-6.87-3.84-10.31-5.37l1.39-2.16Z"/>
    <path class="cls-34" d="M993.61,78.49h30.53v2.6h-29.14c-.22.37-.69.62-1.17.69l-.22-3.29Z"/>
    <path class="cls-34" d="M1038.18,70.23c-.04.33-.37.55-.84.62-.22,9.83-1.02,18.79-6.65,25.34-.58-.44-1.46-.99-2.19-1.39,5.45-5.92,6.11-15.06,6.21-24.9l3.47.33ZM1047.64,91.29c6.11-2.96,10.05-8.3,12.17-14.7.55.48,1.65,1.1,2.27,1.43-2.6,7.38-7.13,12.83-14.92,16.52-.11.29-.37.58-.62.73l-1.9-2.41.4-.55v-26.83l3.4.18c-.04.33-.29.62-.8.69v24.93Z"/>
    <path class="cls-34" d="M1095.79,67.82c-.07.15-.29.26-.47.33-1.97,4.68-5.12,8.74-8.67,11.7-.55-.48-1.57-1.13-2.23-1.5,3.36-2.45,6.07-6,7.28-9.07h-26.18v-2.49h27.57l.4-.18,2.3,1.21ZM1081.53,74.47c-.04.29-.37.55-.84.62-1.06,8.63-4.02,16.85-11.55,21.2-.51-.44-1.46-1.28-2.16-1.68,7.46-4.09,10.13-11.74,11-20.55l3.55.4Z"/>
    <path class="cls-34" d="M1121.38,83.98c-3.73-2.01-8.85-4.39-12.83-5.96v18.24h-2.74v-31.77l3.69.22c-.04.4-.33.66-.95.77v10.75l.55-.8c4.28,1.57,9.94,4.09,13.75,6.11l-1.46,2.45ZM1117.54,66.76c1.68,1.39,3.88,3.69,5.05,5.37l-1.39,1.13c-1.1-1.57-3.33-4.02-4.97-5.34l1.32-1.17ZM1122.44,63.61c1.72,1.43,3.91,3.73,5.01,5.34l-1.32,1.13c-1.13-1.57-3.36-3.99-5.01-5.34l1.32-1.13Z"/>
    <path class="cls-34" d="M1137.14,92.17c9.29-2.6,16.67-7.06,21.17-15.03.48.62,1.39,1.39,1.94,1.83-4.94,8.41-13.09,13.31-24.09,16.2-.07.29-.29.62-.58.73l-1.54-2.56.44-.69v-26.94l3.77.18c-.04.4-.37.73-1.1.8v25.48Z"/>
    <path class="cls-34" d="M1189.31,68.26c-.07.18-.26.33-.48.4-1.97,4.64-4.31,8.66-7.31,12.58,3.98,3.18,9.98,8.63,13.38,12.39l-2.23,1.94c-3.22-3.73-9.1-9.29-12.83-12.28-3.22,3.91-8.77,9.25-14.08,12.28-.4-.55-1.28-1.46-1.9-1.97,10.13-5.56,18.13-15.94,21.42-23.87h-17.95v-2.49h19.38l.48-.18,2.12,1.21Z"/>
    <path class="cls-34" d="M1217.38,70.12c-.15.33-.44.58-.91.58-1.32,11.37-5.12,21.28-11.19,21.28-3.07,0-5.85-3.07-5.85-8.85,0-8.77,6.84-16.12,16.45-16.12,10.57,0,15.14,6.69,15.14,13.82,0,8.7-5.04,12.91-13.89,14.95-.33-.58-.95-1.57-1.54-2.23,8.41-1.61,12.72-5.7,12.72-12.61,0-6.03-3.88-11.52-12.43-11.52-.37,0-.77.04-1.1.07l2.6.62ZM1213.87,69.65c-7.38.91-11.96,7.02-11.96,13.42,0,3.91,1.68,6.36,3.44,6.36,4.42,0,7.6-9.76,8.52-19.78Z"/>
    <path class="cls-34" d="M1248.49,68.04h-6.51c-.51,3.03-1.13,6.03-1.94,8.85h7.17v15.9h-7.2v3h-2.12v-12.91c-.69,1.5-1.46,2.85-2.3,4.02-.26-.55-.91-1.68-1.28-2.19,2.6-3.69,4.31-10.02,5.26-16.67h-4.46v-2.27h13.38v2.27ZM1245.06,90.6v-11.52h-5.05v11.52h5.05ZM1268.86,93.74v2.12h-15.1v1.79h-2.3v-16.31c-.84.99-1.75,1.9-2.74,2.71-.29-.55-.95-1.57-1.35-2.05,3.33-2.71,6-6.98,7.93-11.99h-4.46v4.53h-2.16v-6.69h7.39c.47-1.43.88-2.92,1.24-4.46l3.04.69c-.07.29-.37.44-.84.44-.29,1.13-.62,2.23-.95,3.33h9.76v6.69h-2.27v-4.53h-8.23c-.84,2.3-1.83,4.46-2.96,6.47h4.31c.69-1.54,1.46-3.51,1.86-4.94l2.82.88c-.07.22-.33.33-.73.33-.4,1.06-1.02,2.49-1.65,3.73h6.43v2.16h-6.76v3.69h5.89v1.97h-5.89v3.73h5.89v1.97h-5.89v3.73h7.71ZM1258.84,82.33v-3.69h-5.08v3.69h5.08ZM1258.84,88.04v-3.73h-5.08v3.73h5.08ZM1253.76,90.01v3.73h5.08v-3.73h-5.08Z"/>
    <path class="cls-34" d="M1284.5,69.65v2.05h-13.16v-2.05h13.16ZM1283.48,84.56v10.75h-8.41v1.72h-2.12v-12.47h10.53ZM1283.44,74.62v2.01h-10.46v-2.01h10.46ZM1272.99,81.6v-2.01h10.46v2.01h-10.46ZM1283.3,64.78v2.01h-10.13v-2.01h10.13ZM1281.32,86.65h-6.25v6.58h6.25v-6.58ZM1288.93,86.54c-.44,3.18-1.24,6.65-3.22,8.7l-1.86-1.24c1.79-1.79,2.67-5.01,3.03-8.01l2.05.55ZM1295.33,67.01c-.29,1.57-.66,3.25-1.21,4.9,1.75.88,3.36,1.79,4.5,2.6l-1.24,1.94c-1.02-.77-2.49-1.65-4.09-2.52-1.32,2.78-3.36,5.3-6.8,7.02-.29-.51-1.02-1.35-1.54-1.75,3.14-1.5,5.08-3.77,6.32-6.29-1.64-.8-3.36-1.54-4.94-2.08l1.21-1.75c1.46.51,3,1.13,4.53,1.83.44-1.28.73-2.6.95-3.88h-6.4v-2.12h15.39l1.06-.04,1.32.15c-.22,1.43-.22,12.32-1.72,14-.88,1.06-1.79,1.06-3.51,1.06-.91,0-2.05-.04-3.18-.11-.04-.66-.26-1.57-.66-2.16,1.94.15,2.74.15,4.39.15.44,0,.7-.07.95-.37.62-.73.99-3.4,1.28-10.57h-6.62ZM1292.84,93.67c0,.84.15.99,1.21.99h3.58c.95,0,1.13-.48,1.21-4.13.51.37,1.46.73,2.08.91-.22,4.35-.88,5.41-3.07,5.41h-4.09c-2.6,0-3.22-.69-3.22-3.18v-8.77l3,.22c-.04.22-.26.4-.69.48v8.08ZM1297.45,86.24c-1.32-1.57-4.09-3.77-6.51-5.19l1.57-1.43c2.38,1.39,5.23,3.47,6.58,5.05l-1.65,1.57ZM1303.7,95.17c-.48-2.49-2.12-6.18-4.06-8.88l2.01-.8c2.01,2.67,3.69,6.29,4.28,8.77l-2.23.91Z"/>
    <path class="cls-34" d="M794.49,126.2c-.11.29-.4.51-.95.55-1.46,8.77-4.5,18.02-8.77,23.43-.66-.51-1.65-.99-2.45-1.32,4.09-4.97,7.31-14.26,8.48-23.44l3.69.77ZM812.88,149.96c-1.72-6.4-5.96-16.78-9.73-23.54l2.38-1.13c3.84,6.54,8.12,16.85,10.02,23.62l-2.67,1.06ZM812.41,118.89c2.27,0,4.09,1.83,4.09,4.13s-1.83,4.09-4.09,4.09-4.09-1.86-4.09-4.09c0-2.38,1.9-4.13,4.09-4.13ZM815.29,123.02c0-1.65-1.32-2.92-2.89-2.92s-2.89,1.28-2.89,2.92,1.28,2.89,2.89,2.89,2.89-1.39,2.89-2.89Z"/>
    <path class="cls-34" d="M843.99,124.26c-.07.18-.26.33-.48.4-1.97,4.64-4.31,8.66-7.31,12.58,3.98,3.18,9.98,8.63,13.38,12.39l-2.23,1.94c-3.22-3.73-9.1-9.29-12.83-12.28-3.22,3.91-8.77,9.25-14.08,12.28-.4-.55-1.28-1.46-1.9-1.97,10.13-5.56,18.13-15.94,21.42-23.87h-17.95v-2.49h19.38l.47-.18,2.12,1.21Z"/>
    <path class="cls-34" d="M882.09,124.55c-.11.15-.29.29-.48.37-1.43,14.29-6.29,21.97-18.5,26.91-.47-.62-1.21-1.43-1.83-1.97,11.66-4.75,16.23-11.7,17.44-23.69h-20.88v10.09h-2.52v-12.58h24.24l.4-.29,2.12,1.17Z"/>
    <path class="cls-34" d="M887.75,134.5h30.53v2.6h-29.14c-.22.37-.69.62-1.17.69l-.22-3.29Z"/>
    <path class="cls-34" d="M945.33,139.98c-3.73-2.01-8.85-4.39-12.83-5.96v18.24h-2.74v-31.77l3.69.22c-.04.4-.33.66-.95.77v10.75l.55-.8c4.28,1.57,9.94,4.09,13.75,6.11l-1.46,2.45ZM941.49,122.76c1.68,1.39,3.88,3.69,5.05,5.37l-1.39,1.13c-1.1-1.57-3.33-4.02-4.97-5.34l1.32-1.17ZM946.39,119.62c1.72,1.43,3.91,3.73,5.01,5.34l-1.32,1.13c-1.13-1.57-3.36-3.99-5.01-5.34l1.32-1.13Z"/>
    <path class="cls-34" d="M972.97,126.13c-.15.33-.44.58-.91.58-1.32,11.37-5.12,21.28-11.19,21.28-3.07,0-5.85-3.07-5.85-8.85,0-8.77,6.84-16.12,16.45-16.12,10.57,0,15.14,6.69,15.14,13.82,0,8.7-5.04,12.91-13.89,14.95-.33-.58-.95-1.57-1.54-2.23,8.41-1.61,12.72-5.7,12.72-12.61,0-6.03-3.88-11.52-12.43-11.52-.37,0-.77.04-1.1.07l2.6.62ZM969.46,125.65c-7.38.91-11.96,7.02-11.96,13.42,0,3.91,1.68,6.36,3.44,6.36,4.42,0,7.6-9.76,8.52-19.78Z"/>
    <path class="cls-34" d="M995.82,132.45c-1.46,2.38-3.07,4.5-4.72,6.25-.29-.58-.91-1.75-1.32-2.3,3.69-3.8,7.31-10.2,9.47-16.67l3,.99c-.15.26-.4.37-.84.37-.99,2.63-2.16,5.23-3.47,7.71l1.02.29c-.04.26-.26.4-.7.48v23.87h-2.45v-20.99ZM1024.59,128.06h-11.74v5.63h10.86v2.3h-10.86v5.89h11.37v2.34h-11.37v9.18h-2.49v-25.34h-3.4c-1.54,3.18-3.29,6.11-5.15,8.26-.44-.48-1.32-1.28-1.87-1.68,2.96-3.36,5.81-9.14,7.53-14.7l3.14.91c-.15.26-.4.4-.88.4-.51,1.46-1.06,2.96-1.68,4.42h16.52v2.38Z"/>
    <path class="cls-34" d="M1048.79,128.43c.44,5.01,1.24,9.73,2.34,13.56,2.05-3.07,3.69-6.58,4.9-10.46l3,.91c-.07.26-.37.37-.84.37-1.5,4.5-3.55,8.52-6.14,11.96,1.5,3.88,3.33,6.32,5.45,6.32,1.13,0,1.64-2.01,1.9-7.02.55.55,1.39,1.1,2.08,1.32-.51,6.29-1.46,8.15-4.17,8.15-2.96,0-5.26-2.56-7.02-6.58-2.38,2.63-5.12,4.86-8.19,6.62-.33-.51-1.1-1.43-1.61-1.9,3.4-1.79,6.33-4.24,8.81-7.28-1.46-4.39-2.45-10.02-2.96-15.98h-13.42v4.94h8.41l.51-.04,1.28.07v.84c-.18,8.74-.4,11.88-1.17,12.87-.91.99-1.87,1.02-3.84,1.02-.84,0-1.79,0-2.78-.07-.07-.73-.33-1.68-.73-2.3,1.79.18,3.47.18,4.09.18.51,0,.91-.07,1.17-.37.51-.62.69-3.11.84-9.94h-7.79c0,3.62,0,12.32-4.09,17.88-.4-.48-1.39-1.28-1.94-1.61,3.25-4.5,3.62-10.82,3.62-15.61v-10.24h15.68c-.15-2.16-.22-4.35-.26-6.54l3.29.18c0,.29-.26.48-.77.55,0,1.94.04,3.91.15,5.81h11.96v2.38h-11.77ZM1052.56,119.73c2.34,1.21,5.23,3,6.65,4.31l-1.54,1.65c-1.43-1.32-4.28-3.22-6.62-4.46l1.5-1.5Z"/>
  </g>
  <rect class="cls-32" x="720.4" y="1495.03" width="1239.93" height="162.97" rx="11.67" ry="11.67"/>
  <text class="cls-33" transform="translate(780.75 1559.39)"><tspan class="cls-6"><tspan x="0" y="0">利用規約の承諾</tspan></tspan><tspan class="cls-6" x="0" y="56">同</tspan><tspan class="cls-15" x="35.84" y="56">意</tspan><tspan class="cls-13" x="68.1" y="56">し</tspan><tspan class="cls-6" x="102.15" y="56">ない場合</tspan><tspan class="cls-43" x="245.52" y="56">: 7</tspan><tspan class="cls-14" x="285.92" y="56">日</tspan><tspan class="cls-9" x="319.97" y="56">以</tspan><tspan class="cls-17" x="355.09" y="56">内</tspan><tspan class="cls-14" x="390.93" y="56">に</tspan><tspan class="cls-10" x="424.99" y="56">アカ</tspan><tspan class="cls-15" x="491.65" y="56">ウ</tspan><tspan class="cls-11" x="523.91" y="56">ン</tspan><tspan class="cls-10" x="554.02" y="56">ト</tspan><tspan class="cls-17" x="587.35" y="56">は削除保</tspan><tspan class="cls-8" x="730.72" y="56">留</tspan><tspan class="cls-7" x="763.7" y="56">と</tspan><tspan class="cls-16" x="796.32" y="56">な</tspan><tspan class="cls-5" x="828.22" y="56">り</tspan><tspan class="cls-3" x="858.68" y="56">ま</tspan><tspan class="cls-4" x="893.09" y="56">す</tspan></text>
  <rect class="cls-32" x="720.4" y="273.02" width="1239.93" height="272.74" rx="11.67" ry="11.67"/>
  <g>
    <path class="cls-34" d="M799.74,325.62h15.2v1.83h-32.44v-1.83h14.84v-2.33h-12.33v-1.68h12.33v-2.19h-11.22v-1.65h11.22v-2.33h-14.73v-1.83h14.73v-2.26h-10.83v-1.68h10.83v-2.62l3.12.22c-.04.25-.21.39-.72.47v1.94h10.36v3.94h4.66v1.83h-4.66v3.98h-10.36v2.19h12.62v1.68h-12.62v2.33ZM787.23,340.54v-11.25h23.23v11.18h-2.4v-1.18h-18.5v1.25h-2.33ZM808.06,331.04h-18.5v2.37h18.5v-2.37ZM789.56,337.52h18.5v-2.47h-18.5v2.47ZM799.74,311.36v2.26h7.96v-2.26h-7.96ZM799.74,315.45v2.33h7.96v-2.33h-7.96Z"/>
    <path class="cls-34" d="M824.87,323.58v-5.66c-1.61,2.29-3.73,4.44-5.7,5.63-.32-.47-.97-1.22-1.43-1.61,2.26-1.18,4.73-3.58,6.31-5.99h-5.77v-2.01h6.59v-6.77l2.83.18c-.04.21-.21.39-.68.47v6.13h6.52v2.01h-6.52v.5c1.47.86,5.7,3.62,6.7,4.41l-1.33,1.76c-1-.9-3.55-2.87-5.38-4.16v5.13h-2.15ZM826.95,329.82c-.04.57-.14,1.18-.25,1.76,2.22,1.54,4.91,3.62,6.38,4.91l-1.61,1.65c-1.18-1.18-3.41-2.98-5.45-4.48-1.04,2.22-3.05,4.37-6.92,6.13-.29-.54-.9-1.4-1.33-1.83,5.27-2.37,6.63-5.34,6.95-8.14h-6.49v-2.15h6.56v-3.3l2.9.18c-.04.25-.21.43-.68.5v2.62h6.67v2.15h-6.74ZM820.82,308.28c.97,1.25,1.86,3.01,2.19,4.16l-1.83.79c-.32-1.18-1.18-2.98-2.11-4.3l1.76-.65ZM828.81,312.58c.75-1.22,1.68-3.15,2.15-4.44l2.47.93c-.11.21-.36.29-.72.29-.57,1.15-1.5,2.83-2.29,3.94l-1.61-.72ZM840.75,335.59c-.11.14-.32.25-.65.29-1.43,1.58-4.52,3.51-7.2,4.59-.36-.47-1.08-1.22-1.61-1.61,2.69-1.04,5.7-2.9,7.13-4.48l2.33,1.22ZM835.05,314.73h4.88c.32-1.15.64-2.51.9-3.69h-7.02v-2.15h17.38v2.15h-7.89c-.25,1.08-.65,2.47-1.08,3.69h7.67v18.85h-14.84v-18.85ZM847.59,320.39v-3.73h-10.32v3.73h10.32ZM847.59,325.98v-3.73h-10.32v3.73h10.32ZM847.59,331.65v-3.8h-10.32v3.8h10.32ZM845.58,334.51c2.11,1.29,4.84,3.26,6.27,4.62-.21.14-.43.29-1.9,1.33-1.29-1.33-4.01-3.33-6.17-4.73l1.79-1.22Z"/>
    <path class="cls-34" d="M872.43,313.65c-.14.32-.43.57-.9.57-1.29,11.15-5.02,20.86-10.97,20.86-3.01,0-5.74-3.01-5.74-8.67,0-8.6,6.7-15.81,16.13-15.81,10.36,0,14.84,6.56,14.84,13.55,0,8.53-4.95,12.65-13.62,14.66-.32-.57-.93-1.54-1.5-2.19,8.24-1.58,12.47-5.59,12.47-12.37,0-5.91-3.8-11.29-12.19-11.29-.36,0-.75.04-1.08.07l2.54.61ZM868.99,313.19c-7.24.9-11.72,6.88-11.72,13.15,0,3.83,1.65,6.24,3.37,6.24,4.34,0,7.46-9.57,8.35-19.39Z"/>
    <path class="cls-34" d="M919.89,311.4c-.07.14-.29.25-.47.32-1.94,4.59-5.02,8.57-8.49,11.47-.54-.47-1.54-1.11-2.19-1.47,3.3-2.4,5.95-5.88,7.13-8.89h-25.66v-2.44h27.03l.39-.18,2.26,1.18ZM905.91,317.92c-.04.29-.36.54-.82.61-1.04,8.46-3.94,16.52-11.33,20.79-.5-.43-1.43-1.25-2.12-1.65,7.31-4.01,9.93-11.51,10.79-20.14l3.48.39Z"/>
    <path class="cls-34" d="M926.48,317.74c1.08,2.19,2.26,5.63,2.69,7.71l-2.01.54c-.43-2.08-1.54-5.34-2.62-7.63l1.94-.61ZM947.88,317.99c-.07.32-.43.39-.75.36-2.8,10.47-8.06,16.88-16.74,20.39-.29-.43-.93-1.25-1.4-1.65,8.57-3.37,13.48-9.25,16.09-19.93l2.8.82ZM935.19,316.02c.75,2.4,1.43,5.84,1.68,8.14l-2.12.39c-.21-2.29-.9-5.59-1.68-8.06l2.12-.47Z"/>
    <path class="cls-34" d="M953.76,312.47h22.8l.22-.11,2.44,1.86c-.11.14-.22.25-.43.32-2.9,13.48-9.14,20.5-20.11,24.66-.39-.65-1.11-1.58-1.61-2.11,10.43-3.84,16.45-10.5,18.78-22.15h-22.08v-2.47ZM981.07,306.05c2.15,0,3.91,1.76,3.91,3.94s-1.76,3.91-3.91,3.91-3.94-1.76-3.94-3.91c0-2.26,1.83-3.94,3.94-3.94ZM983.79,310c0-1.54-1.22-2.76-2.72-2.76s-2.76,1.22-2.76,2.76,1.25,2.76,2.76,2.76,2.72-1.33,2.72-2.76Z"/>
    <path class="cls-34" d="M1014.66,313.04v23.66h-2.58v-2.26h-19.75v2.33h-2.51v-23.73h24.84ZM1012.07,332.04v-16.6h-19.75v16.6h19.75Z"/>
    <path class="cls-34" d="M1021.86,321.86h29.93v2.54h-28.57c-.21.36-.68.61-1.15.68l-.21-3.23Z"/>
    <path class="cls-34" d="M1078.31,327.24c-3.66-1.97-8.67-4.3-12.58-5.84v17.89h-2.69v-31.15l3.62.21c-.04.39-.32.65-.93.75v10.54l.54-.79c4.19,1.54,9.75,4.01,13.48,5.99l-1.43,2.4ZM1074.55,310.36c1.65,1.36,3.8,3.62,4.95,5.27l-1.36,1.11c-1.08-1.54-3.26-3.94-4.87-5.23l1.29-1.15ZM1079.35,307.27c1.68,1.4,3.83,3.66,4.91,5.23l-1.29,1.11c-1.11-1.54-3.3-3.91-4.91-5.23l1.29-1.11Z"/>
    <path class="cls-34" d="M1088.93,323.71v-4.92h4.92v4.92h-4.92ZM1088.93,337.38v-4.92h4.92v4.92h-4.92Z"/>
    <path class="cls-34" d="M782.18,380.57c0-2.26,1.79-4.01,4.01-4.01s4.01,1.79,4.01,4.01-1.79,4.01-4.01,4.01-4.01-1.83-4.01-4.01Z"/>
    <path class="cls-34" d="M829.21,384.91l1.4.65c-.07.18-.18.25-.29.36-1.15,1.86-2.87,3.4-4.98,4.62,2.4.9,5.12,1.51,7.96,1.83-.47.47-1.04,1.25-1.33,1.83-3.15-.5-6.17-1.33-8.78-2.54-2.69,1.22-5.77,2.04-8.85,2.54-.21-.5-.65-1.29-1.04-1.76,2.65-.36,5.38-.97,7.78-1.86-1.22-.75-2.29-1.58-3.23-2.54-1.08.86-2.26,1.61-3.37,2.19-.32-.36-.97-.97-1.43-1.29,2.44-1.22,5.09-3.19,6.92-5.41h-3.37v-7.2c-.47.5-.9.97-1.36,1.4-.32-.29-.82-.65-1.33-.97-.68,1.15-1.65,2.44-2.72,3.69l1,.36c-.07.21-.29.39-.68.47v12.98h-2.22v-11.72c-1.04,1.04-2.12,2.04-3.19,2.87-.21-.29-.57-.75-.9-1.15-.61,3.48-1.65,6.92-3.41,9.75-.43-.43-1.51-1-2.08-1.25,3.58-5.73,3.91-13.73,3.91-19.53v-10.57h27.06v7.13h-10.82l1.36.47c-.14.25-.43.32-.75.29-.25.5-.54,1.04-.82,1.54h13.23v1.72h-14.34c-.43.65-.93,1.29-1.4,1.9h13.44v7.85h-8.1c-.39.5-.79,1-1.25,1.51h7.6l.39-.11ZM806.02,373.19c0,2.94-.11,6.52-.68,10.11,2.69-2.11,5.41-5.23,6.77-7.89l1.9.68c1.65-1.61,3.33-3.98,4.48-6.34h-6.63l2.15.75c-.11.21-.36.36-.75.29-1.29,1.83-3.73,4.34-5.77,5.95-.32-.39-.97-1.15-1.4-1.47,1.94-1.43,4.09-3.69,5.27-5.52h-5.34v3.44ZM828.24,364.62h-22.22v3.15h22.22v-3.15ZM818.64,377.06v1.83h9.79v-1.83h-9.79ZM818.64,380.25v1.86h9.79v-1.86h-9.79ZM819.61,386.59l-.36.32c1,1.04,2.37,1.97,3.94,2.72,1.65-.82,3.12-1.86,4.16-3.05h-7.74Z"/>
    <path class="cls-34" d="M841.22,364.91v8.49c0,5.99-.43,14.7-3.55,20.72-.43-.39-1.4-.97-2.01-1.22,3.01-5.73,3.26-13.76,3.26-19.53v-10.68h29.68v2.22h-27.38ZM855.95,386.45v4.62h12.8v2.22h-28.03v-2.22h4.8v-7.92l2.98.22c-.04.25-.25.43-.72.47v7.24h5.84v-10.61l3.05.18c-.04.25-.25.43-.72.5v3.15h9v2.15h-9ZM849.28,381.11h-2.08v-6.92c-1.18,2.44-2.72,4.66-4.27,5.99-.32-.47-1-1.15-1.43-1.51,1.9-1.47,3.91-4.34,5.12-7.13h-4.19v-1.97h4.77v-3.66l2.72.18c-.04.25-.21.43-.65.47v3.01h4.3v1.97h-4.3v.97c1,.72,3.58,2.69,4.23,3.26l-1.29,1.65c-.57-.65-1.86-1.86-2.94-2.83v6.52ZM861.9,381.11h-2.08v-7.92c-1.43,2.69-3.48,5.27-5.38,6.7-.36-.5-.97-1.18-1.43-1.58,2.15-1.33,4.45-4.09,5.84-6.77h-4.05v-1.97h5.02v-3.66l2.76.18c-.04.25-.21.43-.68.47v3.01h5.99v1.97h-5.02c1.33,2.76,3.62,5.41,6.06,6.67-.5.39-1.15,1.15-1.47,1.68-2.15-1.36-4.16-3.8-5.56-6.52v7.74Z"/>
    <path class="cls-34" d="M904.8,382.04v1.97h-3.8v6.49h-2.44v-1.65h-9.1v2.44c0,1.61-.47,2.26-1.54,2.62-1.11.36-3.01.36-6.06.36-.11-.57-.54-1.51-.86-2.08,1.33.04,2.65.07,3.62.07,2.19,0,2.4,0,2.4-.93v-2.47h-11.94v-1.9h11.94v-2.94h-15.02v-1.97h15.02v-2.72h-11.61v-1.83h11.61v-2.4h-10.54v-6.92h10.54v-2.26h-14.37v-2.04h14.37v-3.01l3.12.18c-.04.29-.22.47-.68.5v2.33h14.66v2.04h-14.66v2.26h11.04v6.92h-11.04v2.4h11.54v4.55h3.8ZM878.82,373.33h8.21v-3.41h-8.21v3.41ZM898.03,369.93h-8.57v3.41h8.57v-3.41ZM889.46,379.32v2.72h9.1v-2.72h-9.1ZM898.57,386.95v-2.94h-9.1v2.94h9.1Z"/>
    <path class="cls-34" d="M915.3,382.26c1.79-.61,3.62-1.22,5.45-1.86l.39,2.08c-4.44,1.68-9.14,3.4-12.15,4.44,0,.29-.18.5-.43.61l-1.29-2.65c1.54-.47,3.48-1.08,5.63-1.79v-15.66h-4.91v-2.26h12.29v2.26h-4.98v14.84ZM928.53,389.46c-.11.14-.36.21-.68.25-1.86,1.61-5.59,3.48-8.78,4.52-.32-.5-1.08-1.25-1.54-1.72,3.12-1,6.88-2.8,8.67-4.37l2.33,1.33ZM922.26,368.6h5.99c.36-1.18.68-2.58.93-3.8h-8.75v-2.15h20.5v2.15h-9.14c-.29,1.11-.72,2.54-1.15,3.8h8.89v18.85h-17.28v-18.85ZM937.17,374.26v-3.76h-12.62v3.76h12.62ZM937.17,379.85v-3.76h-12.62v3.76h12.62ZM937.17,385.52v-3.8h-12.62v3.8h12.62ZM939.64,394.26c-1.58-1.36-4.77-3.37-7.31-4.7l1.83-1.33c2.47,1.22,5.7,3.15,7.38,4.55l-1.9,1.47Z"/>
    <path class="cls-34" d="M962.12,360.93c-.07.29-.36.47-.72.54,3.48,4.73,9.93,10.14,15.48,13.01-.61.57-1.18,1.4-1.61,2.11-5.63-3.3-12.04-8.75-15.38-13.37-2.94,4.44-8.85,9.96-15.05,13.62-.32-.54-1-1.4-1.5-1.9,6.27-3.51,12.47-9.43,15.27-14.19l3.51.18ZM961.18,384.66v6.27h14.44v2.22h-31v-2.22h14.05v-6.27h-11.04v-2.19h11.04v-5.95h-9.46v-2.19h21.83v2.19h-9.86v5.95h11.18v2.19h-11.18Z"/>
    <path class="cls-34" d="M990.79,374.69c.82-1.86,1.79-4.88,2.29-6.92l2.76.79c-.07.22-.32.32-.75.36-.54,1.76-1.43,4.34-2.26,6.13h5.34v2.22h-18.89v-2.22h12.62l-1.11-.36ZM997.56,365.09v2.15h-17.35v-2.15h7.46v-4.19l3.05.18c-.04.25-.25.43-.72.5v3.51h7.56ZM981.76,394.23v-13.62h14.19v13.41h-2.33v-1.83h-9.57v2.04h-2.29ZM984.52,368.13c.82,1.83,1.5,4.27,1.72,5.84l-2.11.5c-.18-1.58-.82-4.05-1.58-5.91l1.97-.43ZM993.62,382.76h-9.57v7.28h9.57v-7.28ZM1011.04,362.94l1.58.79c-.04.18-.18.29-.32.36-1.36,3.05-3.26,6.92-5.23,10.68,3.87,3.62,5.48,6.31,5.48,8.89,0,5.63-3.91,5.63-6.24,5.63-.54,0-1.11,0-1.65-.04-.04-.65-.36-1.68-.82-2.37.79.07,1.54.11,2.22.11,2.4,0,4.12-.11,4.12-3.41,0-2.33-1.76-4.84-5.66-8.42,1.76-3.55,3.3-6.92,4.52-9.82h-7.13v28.85h-2.33v-31.15h11l.47-.11Z"/>
    <path class="cls-34" d="M1028.17,367.02v2.04h-13.15v-2.04h13.15ZM1027.03,381.93v10.54h-8.24v1.68h-2.12v-12.22h10.36ZM1026.92,372.04v1.97h-10.21v-1.97h10.21ZM1016.7,378.96v-1.97h10.21v1.97h-10.21ZM1026.81,362.18v1.97h-9.89v-1.97h9.89ZM1024.88,383.98h-6.09v6.45h6.09v-6.45ZM1040.29,390.61h8.17v2.29h-20.32v-2.29h2.98v-18.42l2.94.22c-.04.25-.21.43-.68.47v17.74h4.55v-25.38h-8.53v-2.29h18.5v2.29h-7.6v10.54h7.38v2.29h-7.38v12.54Z"/>
    <path class="cls-34" d="M1064.16,384.73h-9.5v3.44h-2.26v-25.02h11.76v21.58ZM1061.9,365.37h-7.24v7.28h7.24v-7.28ZM1054.66,382.51h7.24v-7.63h-7.24v7.63ZM1083.01,362.47v28.39c0,1.61-.39,2.4-1.51,2.8-1.11.39-3.08.47-6.24.47-.11-.68-.54-1.72-.9-2.4,1.22.04,2.4.07,3.37.07,2.62,0,2.9,0,2.9-.93v-8.35h-11.18c-.82,4.34-2.69,8.71-6.81,11.9-.36-.47-1.25-1.33-1.79-1.65,6.2-4.77,6.81-11.68,6.81-17.38v-12.9h15.34ZM1070.04,375.37c0,1.54-.07,3.19-.25,4.91h10.86v-6.74h-10.61v1.83ZM1080.65,364.73h-10.61v6.59h10.61v-6.59Z"/>
    <path class="cls-34" d="M1104.48,379.39h15.2v1.83h-32.44v-1.83h14.84v-2.33h-12.33v-1.68h12.33v-2.19h-11.22v-1.65h11.22v-2.33h-14.73v-1.83h14.73v-2.26h-10.83v-1.68h10.83v-2.62l3.12.22c-.04.25-.21.39-.72.47v1.94h10.36v3.94h4.66v1.83h-4.66v3.98h-10.36v2.19h12.62v1.68h-12.62v2.33ZM1091.97,394.3v-11.25h23.23v11.18h-2.4v-1.18h-18.5v1.25h-2.33ZM1112.8,384.8h-18.5v2.37h18.5v-2.37ZM1094.3,391.29h18.5v-2.47h-18.5v2.47ZM1104.48,365.12v2.26h7.96v-2.26h-7.96ZM1104.48,369.21v2.33h7.96v-2.33h-7.96Z"/>
    <path class="cls-34" d="M782.18,434.34c0-2.26,1.79-4.01,4.01-4.01s4.01,1.79,4.01,4.01-1.79,4.01-4.01,4.01-4.01-1.83-4.01-4.01Z"/>
    <path class="cls-34" d="M833.12,435.81v1.97h-3.8v6.49h-2.44v-1.65h-9.1v2.44c0,1.61-.47,2.26-1.54,2.62-1.11.36-3.01.36-6.06.36-.11-.57-.54-1.51-.86-2.08,1.33.04,2.65.07,3.62.07,2.19,0,2.4,0,2.4-.93v-2.47h-11.94v-1.9h11.94v-2.94h-15.02v-1.97h15.02v-2.72h-11.61v-1.83h11.61v-2.4h-10.54v-6.92h10.54v-2.26h-14.37v-2.04h14.37v-3.01l3.12.18c-.04.29-.21.47-.68.5v2.33h14.66v2.04h-14.66v2.26h11.04v6.92h-11.04v2.4h11.54v4.55h3.8ZM807.13,427.1h8.21v-3.4h-8.21v3.4ZM826.34,423.69h-8.57v3.4h8.57v-3.4ZM817.78,433.08v2.72h9.1v-2.72h-9.1ZM826.88,440.72v-2.94h-9.1v2.94h9.1Z"/>
    <path class="cls-34" d="M868.42,439.21h-12.44c3.33,2.76,8.57,5.05,13.3,6.09-.54.5-1.25,1.47-1.61,2.11-4.98-1.4-10.5-4.27-14.01-7.67v8.21h-2.4v-8.03c-3.51,3.26-9.03,5.99-13.91,7.38-.32-.61-1.04-1.54-1.58-2.04,4.66-1.08,9.82-3.37,13.15-6.06h-12.22v-2.08h14.55v-2.9h-11.11v-1.94h11.11v-2.87h-12.94v-2.01h8.17c-.36-1.11-1.11-2.65-1.86-3.8l1.4-.29h-9.18v-2.11h6.02c-.54-1.51-1.83-3.76-3.01-5.45l2.04-.72c1.29,1.65,2.65,3.94,3.19,5.45l-1.9.72h4.7v-6.59l3.05.18c-.04.36-.32.54-.79.61v5.81h4.66v-6.59l3.12.18c-.04.36-.36.54-.82.61v5.81h4.52c-.47-.18-1-.39-1.33-.5,1.04-1.54,2.29-3.94,2.94-5.59l2.83.97c-.07.22-.36.32-.75.32-.75,1.4-1.9,3.37-2.9,4.8h5.88v2.11h-8.1l1.04.32c-.11.25-.39.36-.75.32-.5.97-1.29,2.37-2.01,3.44h8.5v2.01h-13.3v2.87h11.54v1.94h-11.54v2.9h14.77v2.08ZM856.13,427.2c.64-1.04,1.47-2.62,2.01-3.87h-11.15c.82,1.18,1.61,2.76,1.97,3.84l-1.11.25h8.85l-.57-.22Z"/>
    <path class="cls-34" d="M884.8,420.79v2.04h-13.15v-2.04h13.15ZM883.66,435.7v10.54h-8.24v1.68h-2.12v-12.22h10.36ZM883.55,425.8v1.97h-10.21v-1.97h10.21ZM873.33,432.72v-1.97h10.21v1.97h-10.21ZM883.44,415.95v1.97h-9.89v-1.97h9.89ZM881.5,437.74h-6.09v6.45h6.09v-6.45ZM896.92,444.37h8.17v2.29h-20.32v-2.29h2.98v-18.42l2.94.22c-.04.25-.21.43-.68.47v17.74h4.55v-25.38h-8.53v-2.29h18.5v2.29h-7.6v10.54h7.38v2.29h-7.38v12.54Z"/>
    <path class="cls-34" d="M920.79,438.49h-9.5v3.44h-2.26v-25.02h11.76v21.58ZM918.53,419.14h-7.24v7.28h7.24v-7.28ZM911.29,436.27h7.24v-7.63h-7.24v7.63ZM939.64,416.23v28.39c0,1.61-.39,2.4-1.51,2.8-1.11.39-3.08.47-6.24.47-.11-.68-.54-1.72-.9-2.4,1.22.04,2.4.07,3.37.07,2.62,0,2.9,0,2.9-.93v-8.35h-11.18c-.82,4.34-2.69,8.71-6.81,11.9-.36-.47-1.25-1.33-1.79-1.65,6.2-4.77,6.81-11.68,6.81-17.38v-12.9h15.34ZM926.67,429.14c0,1.54-.07,3.19-.25,4.91h10.86v-6.74h-10.61v1.83ZM937.28,418.49h-10.61v6.59h10.61v-6.59Z"/>
    <path class="cls-34" d="M961.11,433.15h15.2v1.83h-32.44v-1.83h14.84v-2.33h-12.33v-1.68h12.33v-2.19h-11.22v-1.65h11.22v-2.33h-14.73v-1.83h14.73v-2.26h-10.83v-1.68h10.83v-2.62l3.12.22c-.04.25-.22.39-.72.47v1.94h10.36v3.94h4.66v1.83h-4.66v3.98h-10.36v2.19h12.62v1.68h-12.62v2.33ZM948.6,448.06v-11.25h23.23v11.18h-2.4v-1.18h-18.5v1.25h-2.33ZM969.43,438.56h-18.5v2.37h18.5v-2.37ZM950.93,445.05h18.5v-2.47h-18.5v2.47ZM961.11,418.89v2.26h7.96v-2.26h-7.96ZM961.11,422.97v2.33h7.96v-2.33h-7.96Z"/>
    <path class="cls-34" d="M782.18,488.1c0-2.26,1.79-4.01,4.01-4.01s4.01,1.79,4.01,4.01-1.79,4.01-4.01,4.01-4.01-1.83-4.01-4.01Z"/>
    <path class="cls-34" d="M817.85,490.5v7.81c1.9.36,3.98.47,6.24.47,1.25,0,7.56,0,9.21-.04-.39.61-.82,1.72-.93,2.44h-8.39c-7.71,0-13.3-1.33-16.63-7.74-1.29,3.51-3.12,6.45-5.63,8.42-.39-.47-1.25-1.18-1.83-1.58,3.94-2.9,6.02-8.39,6.85-15.09l3.08.5c-.07.25-.29.43-.72.43-.21,1.43-.5,2.83-.82,4.19,1.51,4.01,3.94,6.17,7.1,7.31v-15.77h-9.14v-2.29h21.08v2.29h-9.46v6.34h11v2.29h-11ZM804.01,475.05v5.41h-2.37v-7.71h13.69v-4.41l3.26.22c-.04.25-.25.43-.75.5v3.69h13.83v7.71h-2.47v-5.41h-25.2Z"/>
    <path class="cls-34" d="M841.47,491.58c-.11.25-.29.39-.68.36-.72,2.51-1.9,5.3-3.23,7.06-.43-.32-1.25-.75-1.76-1,1.29-1.65,2.4-4.37,3.08-7.06l2.58.65ZM853.33,489.53h-7.56v9.68c0,2.33-1,2.54-5.16,2.54-.11-.65-.39-1.51-.72-2.11.75,0,1.4.04,1.94.04,1.47,0,1.65,0,1.65-.5v-9.64h-7.63v-2.08h17.49v2.08ZM843.48,477.53v-3.33h-7.42v-2.08h7.42v-3.69l2.98.22c-.04.25-.21.39-.68.47v3.01h7.38v2.08h-7.38v3.33h6.45v2.08h-15.16v-2.08h6.42ZM851.68,484.48h-14.05v-2.04h14.05v2.04ZM849.75,490.9c1.08,1.68,2.22,3.98,2.69,5.34l-1.94.93c-.47-1.43-1.58-3.76-2.62-5.52l1.86-.75ZM861.51,477.24v5.2c-.04,2.76,1.04,12.47,7.89,17.24-.43.54-1.18,1.47-1.51,2.04-5.34-3.8-7.17-11.04-7.53-14.01h-.04c-.36,3.08-2.44,10-8.6,14.05-.29-.5-.97-1.47-1.4-1.94,7.85-4.98,8.85-14.52,8.85-17.38v-5.2h-2.19c-.82,2.98-1.83,5.66-3.05,7.63-.43-.39-1.36-1.04-1.94-1.33,2.15-3.37,3.55-9.32,4.34-15.16l3.01.61c-.07.29-.29.43-.75.43-.29,1.86-.65,3.76-1.08,5.59h9.89l1.33.04c0,.14-.04.36-.07.5-.39,2.94-1.08,6.74-1.86,9.1l-1.94-.57c.5-1.76,1-4.41,1.33-6.85h-4.7Z"/>
  </g>
  <rect class="cls-32" x="720.4" y="618.01" width="1239.93" height="333.22" rx="11.67" ry="11.67"/>
  <text class="cls-33" transform="translate(780.75 682.37)"><tspan class="cls-6"><tspan class="cls-38" x="0" y="0">新</tspan><tspan class="cls-39" x="32.26" y="0">し</tspan><tspan class="cls-2" x="66.31" y="0">い</tspan><tspan class="cls-40" x="100.72" y="0">ス</tspan><tspan class="cls-23" x="134.77" y="0">テ</tspan><tspan class="cls-20" x="169.54" y="0">ーク</tspan><tspan class="cls-30" x="235.49" y="0">ホ</tspan><tspan class="cls-25" x="271.33" y="0">ル</tspan><tspan class="cls-21" x="305.02" y="0">ダ</tspan><tspan class="cls-18" x="340.15" y="0">ー</tspan><tspan class="cls-30" x="375.63" y="0">の追加</tspan></tspan><tspan class="cls-43" x="0" y="56">KYC</tspan><tspan class="cls-17" x="75.68" y="56">の</tspan><tspan class="cls-3" x="111.52" y="56">完</tspan><tspan class="cls-9" x="145.93" y="56">了</tspan><tspan class="cls-6" x="0" y="112.01">本人確認</tspan><tspan class="cls-43" x="143.37" y="112.01">:</tspan></text>
  <g>
    <path class="cls-34" d="M1337.22,388.82c0-2.26,1.79-4.01,4.01-4.01s4.01,1.79,4.01,4.01-1.79,4.01-4.01,4.01-4.01-1.83-4.01-4.01Z"/>
    <path class="cls-34" d="M1363.1,382.18c1.11,1.36,4.12,5.66,4.8,6.7l-1.4,1.9c-.61-1.25-2.15-3.8-3.41-5.7v17.28h-2.29v-17.67c-1.29,4.19-3.05,8.32-4.84,10.79-.29-.65-.86-1.58-1.29-2.11,2.33-3.12,4.7-9,5.88-14.12h-5.09v-2.26h5.34v-7.89l2.97.21c-.04.22-.21.39-.68.47v7.2h4.55v2.26h-4.55v2.94ZM1388.08,386.59h-7.71c2.19,4.05,5.7,8.39,8.67,10.57-.57.43-1.4,1.29-1.83,1.9-2.72-2.37-5.84-6.56-8.03-10.75v14.05h-2.37v-13.73c-2.37,4.52-5.81,8.67-9.07,11.11-.39-.61-1.11-1.43-1.68-1.86,3.55-2.29,7.31-6.77,9.61-11.29h-8.21v-2.26h9.35v-6.45h-5.02c-.61,1.9-1.36,3.76-2.22,5.27-.5-.32-1.36-.75-1.97-.97,1.9-3.23,3.12-8.14,3.69-11.79l2.87.61c-.07.25-.32.39-.72.39-.25,1.22-.57,2.69-1,4.23h4.37v-6.52l3.08.21c-.04.25-.25.43-.72.5v5.81h7.85v2.26h-7.85v6.45h8.89v2.26Z"/>
    <path class="cls-34" d="M1408.69,398.82h15.05v2.37h-32.33v-2.37h14.77v-8.89h-11.4v-2.37h11.4v-8.24h-12.98v-2.37h28.78v2.37h-13.3v8.24h11.76v2.37h-11.76v8.89ZM1402.24,368.96c3.76,1.29,8.67,3.58,11.22,5.3l-1.79,2.11c-2.4-1.76-7.28-4.16-11.11-5.59l1.68-1.83Z"/>
    <path class="cls-34" d="M1457.4,387.13v15.38h-2.47v-1.51h-15.45v1.43h-2.37v-11.83c-3.01,1.83-6.13,3.23-9.25,4.23-.25-.61-.9-1.65-1.36-2.11,4.62-1.36,9.46-3.8,13.66-7.13-1.43-1.61-3.76-3.62-5.81-5.05l1.79-1.47c2.04,1.36,4.44,3.3,5.91,4.91,2.87-2.58,5.3-5.63,6.99-9h-11.4c-2.4,2.72-5.45,5.48-9.21,7.78-.36-.57-1.15-1.43-1.72-1.83,5.84-3.33,10.04-8.03,12.15-11.9l3.23.54c-.07.29-.32.47-.79.47-.54.9-1.18,1.83-1.9,2.76h11.04l.43-.14,1.76.93c-.11.14-.29.25-.47.32-2.15,5.23-5.81,9.71-10.11,13.23h15.34ZM1439.48,398.78h15.45v-9.43h-15.45v9.43Z"/>
    <path class="cls-34" d="M1484.68,369.89c-.07.21-.32.32-.72.32-.32.68-.72,1.36-1.15,2.04h12.97v1.9h-9.39c.82.97,1.58,2.08,1.97,2.9l-1.97.79c-.43-1-1.43-2.51-2.47-3.69h-2.47c-1.15,1.47-2.51,2.8-3.83,3.76-.47-.36-1.33-.9-1.9-1.18,1-.68,2.01-1.58,2.94-2.58h-6.27c.75,1.11,1.51,2.4,1.86,3.26l-2.04.72c-.39-1.04-1.29-2.69-2.19-3.98h-1.83c-1.08,1.58-2.29,3.05-3.48,4.12-.43-.36-1.25-.93-1.79-1.22,2.08-1.86,4.19-4.91,5.45-7.99l2.76.9c-.11.25-.39.36-.75.32-.32.65-.65,1.33-1.04,1.97h9.93v1.22c1.11-1.36,2.04-2.87,2.69-4.41l2.72.82ZM1469.16,390.36c-1.4-.93-4.09-2.19-6.24-2.94l1.08-1.72c2.11.65,4.87,1.79,6.24,2.72l-1.08,1.94ZM1464.21,400.43c1.86-2.29,4.62-6.24,6.77-9.64l1.5,1.54c-1.9,3.12-4.34,6.77-6.09,9.07.11.14.14.29.14.39,0,.18-.11.36-.22.47l-2.11-1.83ZM1466.11,378.92c2.04.75,4.66,2.04,5.95,3.01l-1.15,1.9c-1.29-1-3.87-2.37-5.91-3.23l1.11-1.68ZM1489.63,392.36c-.07.18-.21.32-.64.39v1.61h6.56v1.86h-6.56v3.87c0,2.33-1.04,2.33-6.27,2.33-.14-.57-.5-1.29-.79-1.83.82.04,1.61.04,2.26.04,2.51,0,2.51-.04,2.51-.57v-3.84h-14.95v-1.86h14.95v-2.01h-12.15v-8.82h7.89v-1.94h-9.82v-1.79h9.82v-2.33l2.94.21c-.04.25-.21.39-.72.47v1.65h8.21c-1.04-.75-2.83-1.72-4.34-2.33l1.15-1.33c1.54.57,3.48,1.54,4.48,2.26l-1.08,1.4h2.19v1.79h-10.61v1.94h8.24v8.82h-3.26ZM1479.45,401.54c-.75-1.25-2.51-2.94-4.12-4.05l1.65-1.11c1.65,1.04,3.44,2.69,4.23,3.94l-1.76,1.22ZM1476.72,385.12v2.08h5.7v-2.08h-5.7ZM1476.72,388.67v2.15h5.7v-2.15h-5.7ZM1490.63,385.12h-5.99v2.08h5.99v-2.08ZM1490.63,390.82v-2.15h-5.99v2.15h5.99Z"/>
    <path class="cls-34" d="M1498.37,377.2v-2.01h14.34v2.01h-14.34ZM1511.24,389.82v10.54h-9.03v1.68h-2.15v-12.22h11.18ZM1500.09,382.04v-1.97h11.25v1.97h-11.25ZM1500.09,386.92v-1.97h11.25v1.97h-11.25ZM1511.35,370.43v1.97h-11.08v-1.97h11.08ZM1509.05,391.86h-6.85v6.45h6.85v-6.45ZM1517.3,397.81c0,1.36.43,1.68,2.47,1.68h7.24c2.04,0,2.33-.93,2.54-6.13.61.43,1.61.82,2.29,1-.36,5.88-1.15,7.42-4.7,7.42h-7.53c-3.62,0-4.73-.79-4.73-3.94v-14.23h12.58v-10.11h-13.01v-2.29h15.45v16.42h-2.44v-1.72h-10.18v11.9Z"/>
    <path class="cls-34" d="M1556.97,379.32c.32,4.55.9,8.75,1.72,12.15,1.97-3.08,3.51-6.52,4.66-10.11l2.79.79c-.11.25-.36.39-.75.39-1.36,4.23-3.33,8.32-5.88,11.9,1.18,3.48,2.69,5.63,4.52,5.63,1.08,0,1.5-1.83,1.72-6.31.5.5,1.33,1.08,1.94,1.25-.43,5.7-1.29,7.42-3.84,7.42s-4.59-2.19-6.06-5.81c-1.83,2.26-3.94,4.23-6.31,5.81-.39-.57-1.11-1.33-1.76-1.79.9-.57,1.79-1.22,2.62-1.9h-7.06v3.73h-2.19v-3.73h-7.92v-1.94h7.92v-2.11h-6.34v-8.89h6.34v-2.08h-7.35v-1.86h7.35v-2.4l2.94.22c-.04.21-.25.39-.72.47v1.72h7.53v1.86h-7.53v2.08h6.56v8.89h-6.6v2.11h7.71v1.4c1.4-1.25,2.72-2.69,3.91-4.23-1.18-3.98-1.9-9.07-2.29-14.66h-19.86v-2.08h8.35v-3.12h-6.74v-2.01h6.74v-3.01l3.05.18c-.04.25-.21.43-.72.5v2.33h6.7v2.01h-6.7v3.12h9.07c-.14-2.62-.25-5.34-.25-8.06,2.4.11,2.8.14,3.15.18,0,.29-.21.47-.72.54,0,2.51.04,4.95.14,7.35h10.43v2.08h-10.29ZM1538.62,387.31v2.19h4.62v-2.19h-4.62ZM1538.62,390.97v2.22h4.62v-2.22h-4.62ZM1549.95,389.5v-2.19h-4.77v2.19h4.77ZM1549.95,393.19v-2.22h-4.77v2.22h4.77ZM1561.03,369.68c1.9,1.43,4.16,3.51,5.16,4.95l-1.79,1.4c-1-1.51-3.19-3.66-5.09-5.16l1.72-1.18Z"/>
    <path class="cls-34" d="M1603.21,390.29v1.97h-3.8v6.49h-2.44v-1.65h-9.1v2.44c0,1.61-.47,2.26-1.54,2.62-1.11.36-3.01.36-6.06.36-.11-.57-.54-1.51-.86-2.08,1.33.04,2.65.07,3.62.07,2.19,0,2.4,0,2.4-.93v-2.47h-11.94v-1.9h11.94v-2.94h-15.02v-1.97h15.02v-2.72h-11.61v-1.83h11.61v-2.4h-10.54v-6.92h10.54v-2.26h-14.37v-2.04h14.37v-3.01l3.12.18c-.04.29-.22.47-.68.5v2.33h14.66v2.04h-14.66v2.26h11.04v6.92h-11.04v2.4h11.54v4.55h3.8ZM1577.23,381.58h8.21v-3.41h-8.21v3.41ZM1596.44,378.17h-8.57v3.41h8.57v-3.41ZM1587.87,387.56v2.72h9.1v-2.72h-9.1ZM1596.97,395.2v-2.94h-9.1v2.94h9.1Z"/>
    <path class="cls-34" d="M1613.71,390.5c1.79-.61,3.62-1.22,5.45-1.86l.39,2.08c-4.44,1.68-9.14,3.4-12.15,4.44,0,.29-.18.5-.43.61l-1.29-2.65c1.54-.47,3.48-1.08,5.63-1.79v-15.66h-4.91v-2.26h12.29v2.26h-4.98v14.84ZM1626.94,397.7c-.11.14-.36.21-.68.25-1.86,1.61-5.59,3.48-8.78,4.52-.32-.5-1.08-1.25-1.54-1.72,3.12-1,6.88-2.8,8.67-4.37l2.33,1.33ZM1620.67,376.84h5.99c.36-1.18.68-2.58.93-3.8h-8.75v-2.15h20.5v2.15h-9.14c-.29,1.11-.72,2.54-1.15,3.8h8.89v18.85h-17.28v-18.85ZM1635.58,382.51v-3.76h-12.62v3.76h12.62ZM1635.58,388.1v-3.76h-12.62v3.76h12.62ZM1635.58,393.76v-3.8h-12.62v3.8h12.62ZM1638.05,402.51c-1.58-1.36-4.77-3.37-7.31-4.7l1.83-1.33c2.47,1.22,5.7,3.15,7.38,4.55l-1.9,1.47Z"/>
    <path class="cls-34" d="M1654.9,375.27v2.04h-13.15v-2.04h13.15ZM1653.75,390.18v10.54h-8.24v1.68h-2.12v-12.22h10.36ZM1653.64,380.28v1.97h-10.21v-1.97h10.21ZM1643.43,387.2v-1.97h10.21v1.97h-10.21ZM1653.53,370.43v1.97h-9.89v-1.97h9.89ZM1651.6,392.22h-6.09v6.45h6.09v-6.45ZM1667.01,398.85h8.17v2.29h-20.32v-2.29h2.98v-18.42l2.94.22c-.04.25-.21.43-.68.47v17.74h4.55v-25.38h-8.53v-2.29h18.5v2.29h-7.6v10.54h7.38v2.29h-7.38v12.54Z"/>
    <path class="cls-34" d="M1690.88,392.97h-9.5v3.44h-2.26v-25.02h11.76v21.58ZM1688.62,373.62h-7.24v7.28h7.24v-7.28ZM1681.38,390.75h7.24v-7.63h-7.24v7.63ZM1709.74,370.71v28.39c0,1.61-.39,2.4-1.51,2.8-1.11.39-3.08.47-6.24.47-.11-.68-.54-1.72-.9-2.4,1.22.04,2.4.07,3.37.07,2.62,0,2.9,0,2.9-.93v-8.35h-11.18c-.82,4.34-2.69,8.71-6.81,11.9-.36-.47-1.25-1.33-1.79-1.65,6.2-4.77,6.81-11.68,6.81-17.38v-12.9h15.34ZM1696.76,383.62c0,1.54-.07,3.19-.25,4.91h10.86v-6.74h-10.61v1.83ZM1707.37,372.97h-10.61v6.59h10.61v-6.59Z"/>
    <path class="cls-34" d="M1731.21,387.63h15.2v1.83h-32.44v-1.83h14.84v-2.33h-12.33v-1.68h12.33v-2.19h-11.22v-1.65h11.22v-2.33h-14.73v-1.83h14.73v-2.26h-10.83v-1.68h10.83v-2.62l3.12.22c-.04.25-.22.39-.72.47v1.94h10.36v3.94h4.66v1.83h-4.66v3.98h-10.36v2.19h12.62v1.68h-12.62v2.33ZM1718.7,402.54v-11.25h23.23v11.18h-2.4v-1.18h-18.5v1.25h-2.33ZM1739.52,393.04h-18.5v2.37h18.5v-2.37ZM1721.03,399.53h18.5v-2.47h-18.5v2.47ZM1731.21,373.37v2.26h7.96v-2.26h-7.96ZM1731.21,377.45v2.33h7.96v-2.33h-7.96Z"/>
    <path class="cls-34" d="M1337.22,442.58c0-2.26,1.79-4.01,4.01-4.01s4.01,1.79,4.01,4.01-1.79,4.01-4.01,4.01-4.01-1.83-4.01-4.01Z"/>
    <path class="cls-34" d="M1359.91,435.55c-1.36,2.26-2.87,4.27-4.37,5.99-.25-.57-.86-1.68-1.25-2.26,3.44-3.73,6.88-9.93,8.96-16.13l2.87.97c-.14.25-.39.36-.82.32-.93,2.51-2.04,5.02-3.3,7.42l.97.25c-.07.21-.25.39-.72.43v23.76h-2.33v-20.75ZM1378.01,452.62h10.39v2.29h-23.55v-2.29h10.72v-9.53h-8.53v-2.29h8.53v-8.32h-9.75v-2.29h12.83c-1.68-1.65-5.13-4.09-7.81-5.66l1.58-1.72c2.76,1.58,6.31,3.91,8.03,5.56l-1.58,1.83h9.03v2.29h-9.89v8.32h8.78v2.29h-8.78v9.53Z"/>
    <path class="cls-34" d="M1406.15,442.33h-10.79c-.11,4.41-.72,10-3.26,13.91-.36-.43-1.33-1.18-1.9-1.47,2.58-3.94,2.83-9.5,2.83-13.69v-9.89h13.12v11.15ZM1407.26,424.91v2.22h-16.06v-2.22h16.06ZM1403.82,433.4h-8.46v6.74h8.46v-6.74ZM1424.5,435.3v2.33h-4.27v18.6h-2.37v-18.6h-6.67c-.14,5.7-1.15,13.08-6.17,18.46-.32-.54-1.18-1.33-1.79-1.65,5.02-5.38,5.59-12.62,5.59-18.21v-9.57l1.86.5c3.98-1.04,8.32-2.4,10.79-3.8l2.33,1.94c-.14.14-.39.22-.72.14-2.9,1.33-7.6,2.72-11.9,3.76v6.09h13.3Z"/>
    <path class="cls-34" d="M1439.84,429.03v2.04h-13.15v-2.04h13.15ZM1438.69,443.94v10.54h-8.24v1.68h-2.12v-12.22h10.36ZM1438.59,434.05v1.97h-10.21v-1.97h10.21ZM1428.37,440.97v-1.97h10.21v1.97h-10.21ZM1438.48,424.19v1.97h-9.89v-1.97h9.89ZM1436.54,445.98h-6.09v6.45h6.09v-6.45ZM1451.96,452.62h8.17v2.29h-20.32v-2.29h2.98v-18.42l2.94.22c-.04.25-.21.43-.68.47v17.74h4.55v-25.38h-8.53v-2.29h18.5v2.29h-7.6v10.54h7.38v2.29h-7.38v12.54Z"/>
    <path class="cls-34" d="M1475.83,446.74h-9.5v3.44h-2.26v-25.02h11.76v21.58ZM1473.57,427.38h-7.24v7.28h7.24v-7.28ZM1466.33,444.51h7.24v-7.63h-7.24v7.63ZM1494.68,424.48v28.39c0,1.61-.39,2.4-1.51,2.8-1.11.39-3.08.47-6.24.47-.11-.68-.54-1.72-.9-2.4,1.22.04,2.4.07,3.37.07,2.62,0,2.9,0,2.9-.93v-8.35h-11.18c-.82,4.34-2.69,8.71-6.81,11.9-.36-.47-1.25-1.33-1.79-1.65,6.2-4.77,6.81-11.68,6.81-17.38v-12.9h15.34ZM1481.71,437.38c0,1.54-.07,3.19-.25,4.91h10.86v-6.74h-10.61v1.83ZM1492.31,426.74h-10.61v6.59h10.61v-6.59Z"/>
    <path class="cls-34" d="M1516.15,441.4h15.2v1.83h-32.44v-1.83h14.84v-2.33h-12.33v-1.68h12.33v-2.19h-11.22v-1.65h11.22v-2.33h-14.73v-1.83h14.73v-2.26h-10.83v-1.68h10.83v-2.62l3.12.22c-.04.25-.21.39-.72.47v1.94h10.36v3.94h4.66v1.83h-4.66v3.98h-10.36v2.19h12.62v1.68h-12.62v2.33ZM1503.64,456.31v-11.25h23.23v11.18h-2.4v-1.18h-18.5v1.25h-2.33ZM1524.47,446.81h-18.5v2.37h18.5v-2.37ZM1505.97,453.3h18.5v-2.47h-18.5v2.47ZM1516.15,427.13v2.26h7.96v-2.26h-7.96ZM1516.15,431.22v2.33h7.96v-2.33h-7.96Z"/>
  </g>
  <rect class="cls-32" x="720.4" y="1020.11" width="1239.93" height="162.97" rx="11.67" ry="11.67"/>
  <g>
    <path class="cls-34" d="M799.74,1072.72h15.2v1.83h-32.44v-1.83h14.84v-2.33h-12.33v-1.68h12.33v-2.19h-11.22v-1.65h11.22v-2.33h-14.73v-1.83h14.73v-2.26h-10.83v-1.69h10.83v-2.62l3.12.21c-.04.25-.21.39-.72.47v1.93h10.36v3.94h4.66v1.83h-4.66v3.98h-10.36v2.19h12.62v1.68h-12.62v2.33ZM787.23,1087.63v-11.25h23.23v11.18h-2.4v-1.18h-18.5v1.25h-2.33ZM808.06,1078.13h-18.5v2.37h18.5v-2.37ZM789.56,1084.62h18.5v-2.47h-18.5v2.47ZM799.74,1058.45v2.26h7.96v-2.26h-7.96ZM799.74,1062.54v2.33h7.96v-2.33h-7.96Z"/>
    <path class="cls-34" d="M824.87,1070.68v-5.66c-1.61,2.29-3.73,4.44-5.7,5.63-.32-.47-.97-1.22-1.43-1.61,2.26-1.18,4.73-3.58,6.31-5.99h-5.77v-2.01h6.59v-6.77l2.83.18c-.04.21-.21.39-.68.47v6.13h6.52v2.01h-6.52v.5c1.47.86,5.7,3.62,6.7,4.41l-1.33,1.76c-1-.9-3.55-2.87-5.38-4.16v5.12h-2.15ZM826.95,1076.91c-.04.57-.14,1.18-.25,1.76,2.22,1.54,4.91,3.62,6.38,4.91l-1.61,1.65c-1.18-1.18-3.41-2.98-5.45-4.48-1.04,2.22-3.05,4.37-6.92,6.13-.29-.54-.9-1.4-1.33-1.83,5.27-2.37,6.63-5.34,6.95-8.14h-6.49v-2.15h6.56v-3.3l2.9.18c-.04.25-.21.43-.68.5v2.62h6.67v2.15h-6.74ZM820.82,1055.37c.97,1.25,1.86,3.01,2.19,4.16l-1.83.79c-.32-1.18-1.18-2.97-2.11-4.3l1.76-.65ZM828.81,1059.67c.75-1.22,1.68-3.15,2.15-4.44l2.47.93c-.11.21-.36.29-.72.29-.57,1.15-1.5,2.83-2.29,3.94l-1.61-.72ZM840.75,1082.68c-.11.14-.32.25-.65.29-1.43,1.58-4.52,3.51-7.2,4.59-.36-.47-1.08-1.22-1.61-1.61,2.69-1.04,5.7-2.9,7.13-4.48l2.33,1.22ZM835.05,1061.82h4.88c.32-1.15.64-2.51.9-3.69h-7.02v-2.15h17.38v2.15h-7.89c-.25,1.08-.65,2.47-1.08,3.69h7.67v18.85h-14.84v-18.85ZM847.59,1067.49v-3.73h-10.32v3.73h10.32ZM847.59,1073.08v-3.73h-10.32v3.73h10.32ZM847.59,1078.74v-3.8h-10.32v3.8h10.32ZM845.58,1081.61c2.11,1.29,4.84,3.26,6.27,4.62-.21.14-.43.29-1.9,1.33-1.29-1.33-4.01-3.33-6.17-4.73l1.79-1.22Z"/>
    <path class="cls-34" d="M872.43,1060.75c-.14.32-.43.57-.9.57-1.29,11.15-5.02,20.86-10.97,20.86-3.01,0-5.74-3.01-5.74-8.67,0-8.6,6.7-15.81,16.13-15.81,10.36,0,14.84,6.56,14.84,13.55,0,8.53-4.95,12.65-13.62,14.66-.32-.57-.93-1.54-1.5-2.19,8.24-1.58,12.47-5.59,12.47-12.37,0-5.91-3.8-11.29-12.19-11.29-.36,0-.75.04-1.08.07l2.54.61ZM868.99,1060.28c-7.24.9-11.72,6.88-11.72,13.15,0,3.84,1.65,6.24,3.37,6.24,4.34,0,7.46-9.57,8.35-19.39Z"/>
    <path class="cls-34" d="M919.89,1058.49c-.07.14-.29.25-.47.32-1.94,4.59-5.02,8.57-8.49,11.47-.54-.47-1.54-1.11-2.19-1.47,3.3-2.4,5.95-5.88,7.13-8.89h-25.66v-2.44h27.03l.39-.18,2.26,1.18ZM905.91,1065.01c-.04.29-.36.54-.82.61-1.04,8.46-3.94,16.52-11.33,20.79-.5-.43-1.43-1.25-2.12-1.65,7.31-4.01,9.93-11.51,10.79-20.14l3.48.39Z"/>
    <path class="cls-34" d="M926.48,1064.83c1.08,2.19,2.26,5.63,2.69,7.71l-2.01.54c-.43-2.08-1.54-5.34-2.62-7.63l1.94-.61ZM947.88,1065.08c-.07.32-.43.39-.75.36-2.8,10.47-8.06,16.88-16.74,20.39-.29-.43-.93-1.25-1.4-1.65,8.57-3.37,13.48-9.25,16.09-19.93l2.8.83ZM935.19,1063.11c.75,2.4,1.43,5.84,1.68,8.14l-2.12.39c-.21-2.29-.9-5.59-1.68-8.06l2.12-.47Z"/>
    <path class="cls-34" d="M953.76,1059.56h22.8l.22-.11,2.44,1.86c-.11.14-.22.25-.43.32-2.9,13.48-9.14,20.5-20.11,24.66-.39-.65-1.11-1.58-1.61-2.12,10.43-3.83,16.45-10.5,18.78-22.15h-22.08v-2.47ZM981.07,1053.15c2.15,0,3.91,1.76,3.91,3.94s-1.76,3.91-3.91,3.91-3.94-1.76-3.94-3.91c0-2.26,1.83-3.94,3.94-3.94ZM983.79,1057.09c0-1.54-1.22-2.76-2.72-2.76s-2.76,1.22-2.76,2.76,1.25,2.76,2.76,2.76,2.72-1.33,2.72-2.76Z"/>
    <path class="cls-34" d="M1014.66,1060.14v23.66h-2.58v-2.26h-19.75v2.33h-2.51v-23.73h24.84ZM1012.07,1079.13v-16.59h-19.75v16.59h19.75Z"/>
    <path class="cls-34" d="M1021.86,1068.96h29.93v2.54h-28.57c-.21.36-.68.61-1.15.68l-.21-3.23Z"/>
    <path class="cls-34" d="M1078.31,1074.33c-3.66-1.97-8.67-4.3-12.58-5.84v17.89h-2.69v-31.15l3.62.21c-.04.39-.32.65-.93.75v10.54l.54-.79c4.19,1.54,9.75,4.01,13.48,5.99l-1.43,2.4ZM1074.55,1057.45c1.65,1.36,3.8,3.62,4.95,5.27l-1.36,1.11c-1.08-1.54-3.26-3.94-4.87-5.23l1.29-1.15ZM1079.35,1054.37c1.68,1.4,3.83,3.66,4.91,5.23l-1.29,1.11c-1.11-1.54-3.3-3.91-4.91-5.23l1.29-1.11Z"/>
    <path class="cls-34" d="M1088.93,1070.81v-4.92h4.92v4.92h-4.92ZM1088.93,1084.48v-4.92h4.92v4.92h-4.92Z"/>
    <path class="cls-34" d="M782.18,1127.67c0-2.26,1.79-4.01,4.01-4.01s4.01,1.79,4.01,4.01-1.79,4.01-4.01,4.01-4.01-1.83-4.01-4.01Z"/>
    <path class="cls-34" d="M814.8,1134.66l.11,2.04c-4.95.97-10.14,1.97-13.41,2.58-.04.29-.25.43-.5.5l-.82-2.72c1.79-.25,4.01-.61,6.45-1.04v-10.57h-6.13v-2.19h6.13v-4.09h-4.05v-.86c-.43.47-.86.93-1.33,1.36-.39-.54-1.15-1.29-1.68-1.61,3.33-3.08,5.81-7.03,7.17-10.11l2.94.47c-.07.25-.29.43-.72.43v.04c2.37,1.9,5.13,4.44,6.52,6.13-.86.97-1.15,1.4-1.47,1.86-1.29-1.65-3.8-4.09-6.09-6.06-1.11,1.97-2.51,4.16-4.27,6.24h9.5v2.12h-4.3v4.09h5.84v2.19h-5.84v10.21l5.95-1ZM803.05,1134.62c-.14-1.86-.82-4.66-1.61-6.81l1.79-.47c.82,2.15,1.5,4.91,1.68,6.74l-1.86.54ZM814.55,1127.92c-.11.22-.36.32-.72.32-.5,1.72-1.43,4.37-2.19,6.06-.04,0-1.65-.61-1.65-.61.72-1.76,1.65-4.66,2.08-6.63l2.47.86ZM824.55,1125.16c.5,2.08,1.11,4.05,1.94,5.84,1.68-1.29,3.62-2.97,4.84-4.3l2.08,1.86c-.18.18-.47.25-.79.18-1.33,1.18-3.48,2.87-5.23,4.09,1.58,2.9,3.69,5.16,6.34,6.49-.54.47-1.25,1.36-1.58,2.01-5.09-2.9-8.1-8.85-9.64-16.17h-3.58v12.15c2.33-.39,4.87-.9,7.42-1.36l.18,2.11c-4.16.93-8.46,1.86-11.18,2.4-.07.29-.25.47-.5.54l-.97-2.8,2.76-.47v-28.21h14.95v15.63h-7.03ZM829.25,1111.72h-10.32v4.48h10.32v-4.48ZM818.92,1118.31v4.62h10.32v-4.62h-10.32Z"/>
    <path class="cls-34" d="M846.88,1109.17c-.07.18-.36.32-.79.25-2.08,2.62-5.81,6.02-9,8.28-.29-.54-.97-1.47-1.4-1.94,3.01-1.97,6.56-5.16,8.39-7.78l2.8,1.18ZM841.4,1141.29v-15.77c-1.36,1.51-2.72,2.9-4.09,4.09-.32-.47-1.08-1.43-1.54-1.86,3.41-2.83,7.35-7.53,9.82-12.01l2.8,1.15c-.11.21-.39.36-.82.29-1.08,1.79-2.33,3.62-3.69,5.38l.65.21c-.07.21-.29.39-.72.47v18.07h-2.4ZM869.1,1120.68v2.33h-5.7v15.16c0,3.01-1.15,3.08-8.39,3.08-.11-.68-.43-1.65-.79-2.37,1.58.04,3.05.07,4.16.07,2.33,0,2.58,0,2.58-.82v-15.13h-12.47v-2.33h20.61ZM867.74,1110.25v2.29h-17.88v-2.29h17.88Z"/>
    <path class="cls-34" d="M884.95,1131.82h-9.5v3.44h-2.26v-25.02h11.76v21.58ZM882.69,1112.47h-7.24v7.28h7.24v-7.28ZM875.45,1129.6h7.24v-7.63h-7.24v7.63ZM903.8,1109.56v28.39c0,1.61-.39,2.4-1.51,2.8s-3.08.47-6.24.47c-.11-.68-.54-1.72-.9-2.4,1.22.04,2.4.07,3.37.07,2.62,0,2.9,0,2.9-.93v-8.35h-11.18c-.82,4.34-2.69,8.71-6.81,11.9-.36-.47-1.25-1.33-1.79-1.65,6.2-4.77,6.81-11.69,6.81-17.38v-12.9h15.34ZM890.82,1122.47c0,1.54-.07,3.19-.25,4.91h10.86v-6.74h-10.61v1.83ZM901.43,1111.82h-10.61v6.59h10.61v-6.59Z"/>
    <path class="cls-34" d="M918.78,1123.9c-.68-1.22-1.47-2.47-2.26-3.55l1.83-.86c1.68,2.26,3.48,5.3,4.16,7.28l-1.94.93c-.18-.57-.47-1.25-.83-1.97l-3.91.21v15.34h-2.19v-15.23c-2.04.07-3.91.18-5.38.21-.04.29-.25.39-.5.47l-.65-2.69h2.65c.79-.93,1.65-2.01,2.47-3.15-1.11-1.61-3.05-3.69-4.77-5.2l1.22-1.58c.36.29.72.61,1.08.97,1.25-2.12,2.72-5.02,3.55-7.1l2.62,1.11c-.14.22-.36.29-.75.29-1,2.08-2.65,5.02-4.01,7.03.93.93,1.76,1.86,2.33,2.69,1.61-2.4,3.15-4.95,4.27-7.03l2.54,1.22c-.14.18-.43.29-.83.29-1.86,3.05-4.8,7.31-7.38,10.43l6.67-.11ZM912.12,1129.31c-.07.21-.29.36-.68.36-.5,3.05-1.33,6.49-2.44,8.6-.47-.32-1.25-.68-1.79-.93,1.04-2.01,1.83-5.45,2.29-8.71l2.62.68ZM919.82,1136.27c-.32-1.94-1.33-4.91-2.37-7.13l1.86-.61c1.08,2.26,2.11,5.13,2.51,7.06l-2.01.68ZM922.62,1110.86h16.52v29.93h-2.29v-1.68h-12.01v1.97h-2.22v-30.22ZM929.71,1113.11h-4.88v10.68h4.88v-10.68ZM924.84,1126.05v10.82h4.88v-10.82h-4.88ZM936.85,1123.79v-10.68h-4.95v10.68h4.95ZM931.9,1136.88h4.95v-10.82h-4.95v10.82Z"/>
    <path class="cls-34" d="M961.11,1126.48h15.2v1.83h-32.44v-1.83h14.84v-2.33h-12.33v-1.68h12.33v-2.19h-11.22v-1.65h11.22v-2.33h-14.73v-1.83h14.73v-2.26h-10.83v-1.69h10.83v-2.62l3.12.21c-.04.25-.22.39-.72.47v1.93h10.36v3.94h4.66v1.83h-4.66v3.98h-10.36v2.19h12.62v1.68h-12.62v2.33ZM948.6,1141.39v-11.25h23.23v11.18h-2.4v-1.18h-18.5v1.25h-2.33ZM969.43,1131.9h-18.5v2.37h18.5v-2.37ZM950.93,1138.38h18.5v-2.47h-18.5v2.47ZM961.11,1112.22v2.26h7.96v-2.26h-7.96ZM961.11,1116.3v2.33h7.96v-2.33h-7.96Z"/>
    <path class="cls-34" d="M980.68,1113.54c2.22.14,5.2.14,7.63.14,1.61,0,3.44-.04,4.95-.07-.04-1.72-.07-3.73-.07-4.98l3.62.18c-.04.43-.36.64-.97.75-.04.57,0,3.33,0,3.94,4.19-.21,8.35-.57,11.9-1.4l.32,2.37c-3.51.79-7.67,1.15-12.22,1.36.04,2.15.07,4.37.14,6.59,3.48-.21,7.2-.68,10.11-1.4l.29,2.33c-3.01.65-6.77,1.08-10.36,1.25l.29,5.99c3.3,1.08,6.81,2.94,10.54,5.59l-1.58,2.19c-3.23-2.54-6.27-4.27-8.89-5.27,0,.57.04,1.22.04,1.69-.04,3.4-2.08,5.38-6.42,5.38-4.55,0-7.88-1.86-7.88-5.23s3.91-5.34,7.92-5.34c1.18,0,2.44.11,3.76.43-.04-1.54-.11-3.41-.14-5.34-1.15.04-2.44.07-3.48.07-6.13,0-7.85-.97-7.85-3.05,0-1.36,1.04-2.47,3.33-3.94l1.72,1.11c-1.61.9-2.47,1.68-2.47,2.4,0,1.08,1.68,1.29,6.24,1.29.79,0,1.61,0,2.4-.04l-.21-6.63c-1.54.07-3.33.07-4.95.07-2.29,0-5.56,0-7.71-.07v-2.37ZM993.94,1132.22c-1.43-.39-2.76-.57-4.01-.57-2.72,0-5.48,1.11-5.48,3.26s2.51,3.15,5.63,3.15c2.83,0,3.91-1.25,3.91-3.76l-.04-2.08Z"/>
    <path class="cls-34" d="M1034.34,1115.84c-3.05,1.08-7.1,1.76-11,2.04-1.5,8.21-3.69,16.38-6.56,22.4l-2.58-.97c2.94-5.77,5.09-13.19,6.49-21.33-.72.04-5.52.07-6.59.04l-.04-2.44c.57.04,1.33.04,2.15.04.32,0,3.91,0,4.84-.04.36-2.29.72-4.8.93-6.99l3.69.36c-.04.39-.54.68-1.04.72-.22,1.58-.57,3.51-.9,5.7,3.51-.32,7.06-.93,10.04-2.01l.57,2.47ZM1043.87,1139.71c-1.08.04-2.19.07-3.3.07-3.37,0-6.56-.25-8.49-.79-2.54-.72-4.01-2.58-3.98-4.95.04-1.58.72-3.37,2.22-5.2l2.15.93c-1.25,1.47-1.86,2.87-1.86,3.98,0,2.83,2.72,3.55,9.25,3.55,1.33,0,2.69-.04,4.01-.14v2.54ZM1029.89,1122.43c3.69-1.18,8.78-1.94,13.01-1.83v2.44c-4.05-.11-8.75.47-12.4,1.61l-.61-2.22Z"/>
    <path class="cls-34" d="M1051.62,1139.28c-1.11-2.58-1.54-7.92-1.54-12.62s.75-10.75,1.94-16.74l3.48.68c-.07.36-.43.61-.93.65-1.29,4.91-2.08,11.29-2.08,15.45,0,2.72.04,5.45.32,6.77.79-2.15,2.22-5.59,2.97-7.28l1.61,1.5c-1.18,2.44-3.69,7.89-3.69,9.57,0,.5.11,1.04.36,1.72l-2.44.29ZM1060.72,1118.17c3.01.04,6.02.07,9.03-.14-.14-3.08-.25-5.73-.32-8.39l3.62.11c-.04.36-.36.65-.93.75.04,2.29.11,4.62.18,7.35,2.83-.29,5.12-.79,7.02-1.43l.32,2.51c-1.72.54-4.19,1.04-7.24,1.29.14,3.98.32,8.17.43,10.47,2.72,1.11,5.45,2.87,7.31,4.55l-1.4,2.29c-1.47-1.47-3.58-3.05-5.81-4.09-.04,3.05-.61,6.45-5.99,6.45-4.19,0-6.99-2.01-6.99-5.16,0-3.66,3.69-5.27,6.99-5.27,1.11,0,2.29.14,3.41.47-.11-2.26-.32-6.02-.5-9.53-1.11.07-2.62.11-3.66.11h-5.45l-.04-2.33ZM1070.54,1132.25c-1.15-.36-2.37-.65-3.55-.65-2.19,0-4.8.79-4.8,3.05,0,2.01,2.15,3.01,4.77,3.01s3.62-1.29,3.62-4.16l-.04-1.25Z"/>
    <path class="cls-34" d="M1102.33,1112.04h-3.33v29.25h-2.33v-7.38c-4.3.75-8.57,1.5-11.36,1.94-.07.29-.29.47-.54.5l-.93-2.76c.93-.11,2.01-.25,3.19-.43v-21.11h-3.12v-2.26h18.42v2.26ZM1096.67,1117.24v-5.2h-7.35v5.2h7.35ZM1096.67,1124.73v-5.27h-7.35v5.27h7.35ZM1089.32,1126.95v5.91c2.29-.32,4.84-.72,7.35-1.08v-4.84h-7.35ZM1114.52,1113.19l1.5.5c-.04.18-.18.36-.29.47-.97,7.24-2.98,13.16-5.77,17.78,1.97,3.19,4.45,5.74,7.49,7.42-.57.43-1.36,1.36-1.72,1.97-2.9-1.76-5.27-4.16-7.21-7.17-2.15,3.01-4.66,5.38-7.46,7.13-.36-.57-1.08-1.47-1.61-1.94,2.87-1.65,5.48-4.19,7.67-7.53-2.26-4.3-3.83-9.53-4.91-15.41l2.22-.43c.9,4.98,2.22,9.57,4.16,13.44,2.04-3.8,3.62-8.46,4.52-13.8h-12.01v-2.37h12.97l.43-.07Z"/>
    <path class="cls-34" d="M1134.41,1125.48l.54-.07,1.43.29c0,.21-.07.5-.11.75-.68,8.92-1.33,12.44-2.62,13.69-.9.97-1.97,1.15-4.41,1.15-1.29,0-3.01-.07-4.73-.18-.07-.75-.39-1.76-.9-2.47,2.69.25,5.34.29,6.24.29s1.33-.07,1.72-.39c.93-.83,1.54-3.76,2.12-10.79h-9.68c-.14.68-.25,1.29-.39,1.86l-2.4-.39c.75-2.9,1.58-7.6,2.08-11.15h10.5v-6.27h-12.65v-2.26h15.05v11.83h-2.4v-1.04h-8.42c-.29,1.72-.61,3.51-.9,5.16h9.93ZM1146.6,1108.31l3.12.21c-.04.25-.21.43-.72.47v32.29h-2.4v-32.98Z"/>
    <path class="cls-34" d="M1168.82,1131.82h-9.5v3.44h-2.26v-25.02h11.76v21.58ZM1166.56,1112.47h-7.24v7.28h7.24v-7.28ZM1159.32,1129.6h7.24v-7.63h-7.24v7.63ZM1187.67,1109.56v28.39c0,1.61-.39,2.4-1.51,2.8s-3.08.47-6.24.47c-.11-.68-.54-1.72-.9-2.4,1.22.04,2.4.07,3.37.07,2.62,0,2.9,0,2.9-.93v-8.35h-11.18c-.82,4.34-2.69,8.71-6.81,11.9-.36-.47-1.25-1.33-1.79-1.65,6.2-4.77,6.81-11.69,6.81-17.38v-12.9h15.34ZM1174.7,1122.47c0,1.54-.07,3.19-.25,4.91h10.86v-6.74h-10.61v1.83ZM1185.31,1111.82h-10.61v6.59h10.61v-6.59Z"/>
    <path class="cls-34" d="M1202.66,1123.9c-.68-1.22-1.47-2.47-2.26-3.55l1.83-.86c1.68,2.26,3.48,5.3,4.16,7.28l-1.94.93c-.18-.57-.47-1.25-.83-1.97l-3.91.21v15.34h-2.19v-15.23c-2.04.07-3.91.18-5.38.21-.04.29-.25.39-.5.47l-.65-2.69h2.65c.79-.93,1.65-2.01,2.47-3.15-1.11-1.61-3.05-3.69-4.77-5.2l1.22-1.58c.36.29.72.61,1.08.97,1.25-2.12,2.72-5.02,3.55-7.1l2.62,1.11c-.14.22-.36.29-.75.29-1,2.08-2.65,5.02-4.01,7.03.93.93,1.76,1.86,2.33,2.69,1.61-2.4,3.15-4.95,4.27-7.03l2.54,1.22c-.14.18-.43.29-.83.29-1.86,3.05-4.8,7.31-7.38,10.43l6.67-.11ZM1195.99,1129.31c-.07.21-.29.36-.68.36-.5,3.05-1.33,6.49-2.44,8.6-.47-.32-1.25-.68-1.79-.93,1.04-2.01,1.83-5.45,2.29-8.71l2.62.68ZM1203.7,1136.27c-.32-1.94-1.33-4.91-2.37-7.13l1.86-.61c1.08,2.26,2.11,5.13,2.51,7.06l-2.01.68ZM1206.49,1110.86h16.52v29.93h-2.29v-1.68h-12.01v1.97h-2.22v-30.22ZM1213.59,1113.11h-4.88v10.68h4.88v-10.68ZM1208.71,1126.05v10.82h4.88v-10.82h-4.88ZM1220.72,1123.79v-10.68h-4.95v10.68h4.95ZM1215.77,1136.88h4.95v-10.82h-4.95v10.82Z"/>
    <path class="cls-34" d="M1244.99,1126.48h15.2v1.83h-32.44v-1.83h14.84v-2.33h-12.33v-1.68h12.33v-2.19h-11.22v-1.65h11.22v-2.33h-14.73v-1.83h14.73v-2.26h-10.83v-1.69h10.83v-2.62l3.12.21c-.04.25-.22.39-.72.47v1.93h10.36v3.94h4.66v1.83h-4.66v3.98h-10.36v2.19h12.62v1.68h-12.62v2.33ZM1232.48,1141.39v-11.25h23.23v11.18h-2.4v-1.18h-18.5v1.25h-2.33ZM1253.3,1131.9h-18.5v2.37h18.5v-2.37ZM1234.81,1138.38h18.5v-2.47h-18.5v2.47ZM1244.99,1112.22v2.26h7.96v-2.26h-7.96ZM1244.99,1116.3v2.33h7.96v-2.33h-7.96Z"/>
  </g>
  <rect class="cls-32" x="720.4" y="1258.69" width="1239.93" height="138.33" rx="11.67" ry="11.67"/>
  <g>
    <path class="cls-34" d="M782.18,1325.92c0-2.26,1.79-4.01,4.01-4.01s4.01,1.79,4.01,4.01-1.79,4.01-4.01,4.01-4.01-1.83-4.01-4.01Z"/>
    <path class="cls-34" d="M801.25,1316.35c2.33.9,5.23,2.47,6.7,3.69l-1.36,2.01c-1.43-1.22-4.3-2.87-6.63-3.87l1.29-1.83ZM800.93,1337.46c1.79-2.83,4.37-7.71,6.24-11.83l1.86,1.5c-1.72,3.84-4.01,8.35-5.7,11.15.14.18.18.36.18.5s-.04.29-.11.43l-2.47-1.76ZM803.19,1306.56c2.29,1,5.13,2.65,6.52,3.94l-1.4,1.97c-1.36-1.33-4.16-3.08-6.49-4.16l1.36-1.76ZM833.3,1325.6h-10.18c1.79,5.7,5.34,9.93,10.61,11.86-.57.54-1.33,1.43-1.68,2.11-5.59-2.4-9.25-7.13-11.22-13.58-1.04,5.2-3.83,10-11,13.62-.39-.5-1.25-1.36-1.86-1.76,6.77-3.3,9.43-7.6,10.47-12.26h-8.82v-2.29h9.21c.18-1.54.21-3.12.21-4.7v-4.09h-7.17v-2.29h7.17v-5.95l3.12.21c-.04.25-.25.43-.72.5v5.23h8.46v11.08h3.41v2.29ZM821.43,1314.52v4.12c0,1.58-.04,3.12-.21,4.66h6.31v-8.78h-6.09Z"/>
    <path class="cls-34" d="M837.1,1316.35c2.33.9,5.23,2.47,6.7,3.69l-1.36,2.01c-1.43-1.22-4.3-2.87-6.63-3.87l1.29-1.83ZM836.85,1337.46c1.86-2.83,4.52-7.71,6.49-11.83l1.83,1.5c-1.79,3.84-4.16,8.35-5.91,11.18.14.18.18.36.18.5s-.04.29-.11.39l-2.47-1.76ZM839.03,1306.56c2.29,1,5.13,2.65,6.52,3.94l-1.4,1.97c-1.36-1.33-4.16-3.08-6.49-4.16l1.36-1.76ZM863.33,1325.38v-2.33l3.08.22c-.04.25-.21.43-.72.5v15.77h-2.37v-6.67h-12.44c-.68,2.37-2.01,4.77-4.55,6.7-.43-.43-1.33-1.08-1.9-1.4,4.19-3.08,4.77-7.38,4.77-10.61v-4.48l3.01.18c-.04.25-.21.43-.68.5v1.61h11.79ZM864.01,1312.41l1.25.39c-.11.21-.36.32-.75.32-1.15,2.04-2.8,3.76-4.77,5.2,2.83,1.29,6.13,2.15,9.86,2.9-.54.54-1.11,1.43-1.36,2.15-4.05-.9-7.6-2.01-10.68-3.66-3.26,1.83-7.17,3.08-11.33,3.94-.22-.57-.79-1.58-1.18-2.08,3.76-.65,7.35-1.69,10.32-3.23-2.08-1.43-3.91-3.26-5.48-5.59l.86-.36h-4.52v-2.19h9.93v-3.98l3.15.18c-.04.25-.21.43-.72.5v3.3h10.47v2.19h-5.05ZM851.54,1327.5c0,.82,0,2.01-.22,3.3h12.01v-3.3h-11.79ZM852.26,1312.41c1.5,2.01,3.26,3.51,5.27,4.73,1.94-1.29,3.55-2.87,4.59-4.73h-9.86Z"/>
    <path class="cls-34" d="M897.92,1323.16l1.79,1.04c-.07.18-.29.29-.5.36-1.9,3.76-4.8,6.74-8.32,9.03,3.94,1.83,8.6,3.08,13.73,3.73-.54.57-1.18,1.61-1.54,2.33-5.52-.82-10.47-2.37-14.62-4.62-4.23,2.22-9.14,3.69-14.27,4.62-.29-.65-.93-1.72-1.43-2.26,4.77-.72,9.39-1.94,13.33-3.8-2.97-2.01-5.41-4.44-7.24-7.38l1.9-.79h-3.66v-2.15h20.36l.47-.11ZM875.16,1318.89v5.41h-2.29v-7.56h5.84c-.47-1.36-1.5-3.3-2.47-4.77l2.15-.65c1.08,1.54,2.22,3.62,2.65,4.95l-1.36.47h15.2c1.25-1.83,2.76-4.52,3.62-6.38l2.87,1.08c-.11.21-.39.29-.75.29-.79,1.47-2.04,3.41-3.19,5.02h6.49v7.56h-2.37v-5.41h-26.38ZM901.79,1308.36c-.11.07-.21.11-.39.11-.11,0-.22-.04-.36-.07-6.56,1.33-17.81,2.29-27.24,2.69-.04-.61-.36-1.5-.57-2.08,9.35-.39,20.57-1.4,26.74-2.72l1.83,2.08ZM881.08,1325.42c1.76,2.76,4.3,5.05,7.46,6.92,3.05-1.79,5.59-4.09,7.31-6.92h-14.77ZM887.88,1310.76c.86,1.68,1.76,3.98,2.01,5.34l-2.33.61c-.21-1.43-1.04-3.73-1.86-5.48l2.19-.47Z"/>
    <path class="cls-34" d="M914.98,1309.14c-.07.32-.39.57-.93.64-1.04,4.52-1.86,10.79-1.86,14.8,0,2.47.11,4.59.36,6.02.79-1.61,2.54-5.02,3.66-7.1l1.65,1.69c-2.62,4.66-4.27,7.63-4.27,9.03,0,.43.11.9.29,1.47l-2.51.5c-.93-2.58-1.65-6.52-1.65-11.54,0-4.59.75-10.75,1.79-16.09l3.48.57ZM920.29,1317.28c2.87,0,7.1-.07,9.68-.25-.21-4.16-.47-9.1-.57-9.86l3.69.14c-.04.39-.39.72-.97.82.07,1.97.25,5.63.39,8.75,2.44-.21,5.05-.57,7.03-1.11l.25,2.54c-2.01.43-4.55.79-7.2.97,0,.22.04.79.04,2.9,0,7.74-1.72,13.23-8.64,16.67-.29-.39-1.33-1.36-1.94-1.79,6.63-3.23,8.03-7.92,8.03-14.66l-.04-2.98c-2.4.14-6.52.25-9.71.25l-.04-2.4Z"/>
    <path class="cls-34" d="M958.46,1308.46h2.44c0,6.42.83,20.32,15.31,28.93-.54.43-1.51,1.43-1.94,2.04-9.32-5.66-13.19-13.87-14.77-20.86-2.58,9.57-7.24,16.74-14.77,20.9-.47-.5-1.4-1.4-2.01-1.83,7.92-4.12,12.54-11.76,14.8-22.19l1.47.36c-.29-1.79-.43-3.44-.47-4.87h-9.14v-2.44h9.07v-.04Z"/>
    <path class="cls-34" d="M980.18,1314.45c2.9,0,5.56-.25,6.74-.54.07-2.15.11-3.33.25-6.59l3.69.29c-.07.39-.39.65-1,.72-.14,1.58-.29,3.8-.36,5.13l1.11.43c-.86,1.72-1.22,3.84-1.43,5.13,3.94-3.69,8.32-6.31,11.29-6.31,3.37,0,5.05,2.37,5.05,6.52,0,.47-.04.93-.07,1.4-.25,3.15-.61,7.63-.61,10.5,0,2.15.25,3.3,1.76,3.3,1.08,0,3.23-1.08,4.77-2.4.07.72.36,2.19.5,2.72-1.83,1.33-3.98,2.33-5.63,2.33-3.01,0-4.01-1.79-4.01-5.52,0-1.86.65-11.72.65-11.76,0-3.12-1.08-4.52-2.83-4.52-2.69,0-7.2,2.9-10.93,6.85,0,5.2,0,11.58.04,16.45h-2.51c.04-2.08,0-12.29.04-14.59-1.25,2.51-3.69,5.77-6.52,8.64l-1.29-2.26c2.97-2.8,6.31-7.13,7.88-10.83,0-1.04.04-2.01.07-3.15-1.25.29-3.87.57-6.6.61l-.04-2.54Z"/>
    <path class="cls-34" d="M1047.24,1314.92h-18.46c-.14,2.01-.32,4.12-.61,6.24h12.8l.54-.07,1.43.25c-.04.25-.07.54-.14.75-.75,10.79-1.47,14.8-2.9,16.24-.97,1.04-1.94,1.22-4.19,1.22-1.29,0-3.08-.07-4.88-.18-.07-.68-.39-1.68-.86-2.37,2.65.25,5.23.25,6.13.25s1.33-.04,1.72-.39c1.11-1,1.83-4.62,2.47-13.41h-12.51c-1.22,6.38-4.05,12.62-11.58,16.2-.36-.61-1.08-1.47-1.72-1.94,10.14-4.59,11.25-14.27,11.69-22.8h-11.36v-2.33h14.84v-6.45l3.19.22c-.04.25-.25.43-.72.5v5.73h15.13v2.33Z"/>
    <path class="cls-34" d="M1051.4,1316.49c2.51.79,5.7,2.19,7.31,3.33l-1.29,2.08c-1.58-1.18-4.73-2.69-7.24-3.55l1.22-1.86ZM1051.47,1337.5c1.86-2.83,4.59-7.63,6.59-11.76,1.43,1.22,1.61,1.36,1.79,1.51-1.83,3.87-4.23,8.35-5.99,11.11.11.18.18.36.18.5,0,.18-.07.32-.18.43l-2.4-1.79ZM1053.41,1306.49c2.51.93,5.63,2.47,7.2,3.76l-1.4,2.01c-1.54-1.29-4.62-2.98-7.17-3.98l1.36-1.79ZM1083.48,1321.62v2.33h-13.94l1.29.43c-.11.22-.39.36-.83.39-1.11,3.05-2.94,7.17-4.55,10.36,3.76-.21,8.17-.43,12.51-.72-1.25-1.86-2.72-3.76-4.12-5.38l2.04-1.08c2.83,3.12,5.91,7.42,7.24,10.29l-2.26,1.29c-.36-.9-.93-1.94-1.58-3.05-6.6.54-13.51,1-17.85,1.29-.07.29-.29.47-.54.5l-1-2.87,2.98-.14c1.65-3.19,3.51-7.81,4.66-11.33h-7.67v-2.33h10.32v-7.06h-8.57v-2.29h8.57v-6.02l3.3.21c-.04.36-.36.61-.83.68v5.13h8.75v2.29h-8.75v7.06h10.83Z"/>
    <path class="cls-34" d="M1104.77,1312.76c-.14.32-.43.57-.9.57-1.29,11.15-5.02,20.86-10.97,20.86-3.01,0-5.74-3.01-5.74-8.67,0-8.6,6.7-15.81,16.13-15.81,10.36,0,14.84,6.56,14.84,13.55,0,8.53-4.95,12.65-13.62,14.66-.32-.57-.93-1.54-1.5-2.19,8.24-1.58,12.47-5.59,12.47-12.37,0-5.91-3.8-11.29-12.19-11.29-.36,0-.75.04-1.08.07l2.54.61ZM1101.33,1312.3c-7.24.9-11.72,6.88-11.72,13.15,0,3.84,1.65,6.24,3.37,6.24,4.34,0,7.46-9.57,8.35-19.39Z"/>
    <path class="cls-34" d="M1128.96,1320.58v11.83c2.8,4.3,8.1,4.3,14.27,4.3,4.12,0,9.14-.11,12.11-.29-.32.54-.68,1.61-.79,2.29-2.47.07-6.45.14-10.07.14-7.99,0-12.97,0-16.52-4.44-1.58,1.61-3.26,3.19-4.59,4.44,0,.29-.07.39-.32.54l-1.36-2.44c1.51-1.18,3.37-2.76,4.98-4.3v-9.79h-4.62v-2.29h6.92ZM1124.2,1307.1c2.19,1.72,4.62,4.23,5.66,6.06l-2.01,1.4c-.97-1.86-3.37-4.48-5.52-6.24l1.86-1.22ZM1154.81,1327.28v1.94h-24.23v-1.94h6.7v-3.58h-5.23v-1.94h5.23v-2.87l3.01.21c-.04.25-.25.43-.72.47v2.19h6.06v-2.87l3.01.21c-.04.25-.25.43-.72.5v2.15h5.41v1.94h-5.41v3.58h6.88ZM1138.32,1311.98v-2.51h-7.24v-1.76h9.36v6.02h-6.38v1.97c0,.68.18.82,1.33.82h4.09c.86,0,1.04-.21,1.11-1.86.43.32,1.25.54,1.83.68-.22,2.37-.83,2.94-2.65,2.94h-4.55c-2.54,0-3.23-.47-3.23-2.54v-3.76h6.34ZM1141.36,1330.51c-.18.29-.47.32-.75.25-1.97,1.65-4.95,3.4-7.49,4.52-.39-.43-1.15-1.11-1.65-1.47,2.51-.97,5.48-2.62,7.31-4.34l2.58,1.04ZM1139.57,1323.7v3.58h6.06v-3.58h-6.06ZM1150.61,1311.98v-2.51h-7.71v-1.76h9.86v6.02h-6.77v1.97c0,.68.21.82,1.5.82h4.48c.93,0,1.11-.21,1.18-2.01.47.29,1.29.54,1.86.68-.25,2.47-.86,3.08-2.76,3.08h-4.95c-2.69,0-3.41-.47-3.41-2.58v-3.73h6.7ZM1146.24,1329.47c3.01,1.36,6.31,3.19,8.24,4.7l-2.37,1.11c-1.68-1.47-4.7-3.3-7.6-4.7l1.72-1.11Z"/>
    <path class="cls-34" d="M1170.04,1324.23l-4.34,1.54v10.82c0,2.58-1.18,2.97-5.95,2.9-.11-.57-.47-1.58-.79-2.22,1.68.04,3.23.04,3.69.04.47-.04.68-.18.68-.68v-10c-1.68.57-3.23,1.11-4.44,1.5,0,.29-.18.5-.43.57l-1-2.83c1.61-.43,3.66-1.04,5.88-1.72v-8.42h-5.45v-2.26h5.45v-7.24l3.08.18c-.04.29-.21.43-.72.5v6.56h4.12v2.26h-4.12v7.67l4.01-1.25.32,2.08ZM1189.21,1322.66h-7.24c1.43,6.67,4.37,12.37,9.21,14.8-.57.5-1.33,1.43-1.72,2.11-5.27-3.01-8.32-9.21-9.89-16.92h-4.88c-.18,5.59-1.25,12.44-5.63,17.06-.32-.5-1.33-1.33-1.83-1.65,4.62-4.91,5.09-11.97,5.09-17.49v-12.62h16.88v14.7ZM1186.81,1310.29h-12.08v10.07h12.08v-10.07Z"/>
  </g>
  <g>
    <path class="cls-34" d="M962.65,784.2c0-2.26,1.79-4.01,4.01-4.01s4.01,1.79,4.01,4.01-1.79,4.01-4.01,4.01-4.01-1.83-4.01-4.01Z"/>
    <path class="cls-34" d="M987.74,778.86v11.79c2.8,4.27,8.03,4.27,14.77,4.27,3.94,0,8.53-.07,11.33-.25-.29.54-.68,1.65-.75,2.37-2.47.07-6.42.14-9.96.14-7.89,0-12.83,0-16.38-4.44-1.65,1.61-3.33,3.19-4.73,4.41.04.29-.04.43-.29.57l-1.4-2.54c1.54-1.15,3.41-2.72,5.09-4.27v-9.75h-4.73v-2.29h7.06ZM982.94,765.42c2.26,1.68,4.8,4.19,5.91,5.99l-1.97,1.5c-1.04-1.83-3.55-4.41-5.81-6.17l1.86-1.33ZM1000.11,793.92v-3.76h-10.65v-1.9h10.65v-2.44h-7.92v-10.29h7.92v-2.37h-9.25v-1.86h9.25v-2.83l3.05.18c-.04.25-.25.43-.72.5v2.15h9.32v1.86h-9.32v2.37h8.03v10.29h-8.03v2.44h10.82v1.9h-10.82v3.76h-2.33ZM992.37,767.61v2.8h-2.19v-4.7h22.37v4.7h-2.26v-2.8h-17.92ZM994.34,777.25v2.58h5.77v-2.58h-5.77ZM994.34,784.09h5.77v-2.62h-5.77v2.62ZM1008.28,777.25h-5.84v2.58h5.84v-2.58ZM1008.28,784.09v-2.62h-5.84v2.62h5.84Z"/>
    <path class="cls-34" d="M1032.83,791.37h-7.06v6.45h-2.26v-6.45h-7.17v-2.15h7.17v-3.08h-5.77v-12.58h5.77v-2.87h-6.67v-2.15h6.67v-4.01l2.97.18c-.04.25-.21.43-.68.47v3.37h6.52v2.15h-6.52v2.87h5.99v12.58h-6.02v3.08h7.06v2.15ZM1019.71,775.46v3.48h3.98v-3.48h-3.98ZM1019.71,780.73v3.55h3.98v-3.55h-3.98ZM1029.72,778.93v-3.48h-4.12v3.48h4.12ZM1029.72,784.27v-3.55h-4.12v3.55h4.12ZM1045.09,785.53c2.15,3.55,4.16,8.24,4.91,11.36l-2.22.93c-.18-.79-.43-1.65-.75-2.62-5.12.57-10.32,1.11-13.73,1.43-.04.29-.29.43-.54.47l-.9-2.87c.86-.04,1.86-.11,2.9-.18,1.11-3.62,2.33-9.03,3.05-13.23h-5.27v-2.33h17.13v2.33h-9.35c-.72,3.8-2.04,9.21-3.26,13.08,2.83-.18,6.02-.43,9.21-.68-.9-2.29-2.08-4.77-3.23-6.81l2.04-.9ZM1048.28,767.18v2.33h-14.01v-2.33h14.01Z"/>
    <path class="cls-34" d="M1066.02,785.82c-.04.21-.29.39-.72.47-1,5.59-3.08,9.64-11.79,11.69-.25-.61-.9-1.58-1.36-2.08,8.06-1.72,9.96-5.13,10.68-10.43l3.19.36ZM1074.02,794.13c0,1,.32,1.18,1.86,1.18h5.45c1.47,0,1.72-.65,1.86-5.16.54.43,1.58.82,2.26,1-.32,5.2-1,6.45-3.94,6.45h-5.84c-3.26,0-4.12-.75-4.12-3.48v-9.21h-15.52v-9.32c-.65.54-1.36,1.04-2.08,1.5-.39-.57-1.15-1.43-1.72-1.79,4.98-3.15,8.6-7.46,10.47-10.9l3.15.54c-.07.29-.32.47-.79.47-.36.61-.79,1.25-1.25,1.94h9.46l.39-.14,1.86,1.18c-.11.18-.29.29-.5.29-.82,1.47-2.15,3.3-3.48,4.88h10.97v11.36h-7.85c-.07.14-.29.29-.64.32v8.89ZM1068.68,773.56c1.11-1.18,2.22-2.72,3.08-4.12h-9.5c-1.11,1.36-2.37,2.76-3.83,4.12h10.25ZM1058.43,775.74v6.99h9.14v-6.99h-9.14ZM1080,782.73v-6.99h-10.07v6.99h10.07Z"/>
    <path class="cls-34" d="M1102.3,770.58v2.01h-14.34v-2.01h14.34ZM1100.83,785.21v10.54h-9.03v1.68h-2.15v-12.22h11.18ZM1089.68,777.43v-1.97h11.25v1.97h-11.25ZM1089.68,782.3v-1.97h11.25v1.97h-11.25ZM1100.93,765.82v1.97h-11.08v-1.97h11.08ZM1098.64,787.25h-6.85v6.45h6.85v-6.45ZM1121.47,781.69v2.33h-8.21v13.8h-2.44v-13.8h-8.67v-2.33h8.67v-9.43h-3.76c-1,2.62-2.15,5.02-3.44,6.77-.43-.39-1.36-.97-1.94-1.25,2.22-3.05,4.12-8.24,5.23-13.33l2.97.75c-.07.25-.32.36-.79.36-.36,1.47-.79,2.97-1.25,4.44h12.72v2.26h-7.31v9.43h8.21Z"/>
    <path class="cls-34" d="M1136.96,770.65v2.04h-13.15v-2.04h13.15ZM1135.81,785.56v10.54h-8.24v1.68h-2.12v-12.22h10.36ZM1135.7,775.67v1.97h-10.21v-1.97h10.21ZM1125.49,782.59v-1.97h10.21v1.97h-10.21ZM1135.59,765.82v1.97h-9.89v-1.97h9.89ZM1133.66,787.61h-6.09v6.45h6.09v-6.45ZM1149.07,794.24h8.17v2.29h-20.32v-2.29h2.98v-18.42l2.94.21c-.04.25-.21.43-.68.47v17.74h4.55v-25.38h-8.53v-2.29h18.5v2.29h-7.6v10.54h7.38v2.29h-7.38v12.54Z"/>
    <path class="cls-34" d="M962.65,837.97c0-2.26,1.79-4.01,4.01-4.01s4.01,1.79,4.01,4.01-1.79,4.01-4.01,4.01-4.01-1.83-4.01-4.01Z"/>
    <path class="cls-34" d="M1012.47,825.17c-.11.18-.29.29-.54.36-3.33,5.09-8.96,10.43-14.48,14.41,2.76,2.22,5.52,4.98,7.35,6.99l-2.19,1.9c-3.76-4.41-10.82-10.32-16.88-13.87l1.72-1.83c2.54,1.43,5.41,3.33,7.99,5.3,4.84-3.44,9.75-8.06,12.58-12.22h-26.31v-2.44h28.21l.43-.21,2.11,1.61Z"/>
    <path class="cls-34" d="M1044.98,821.59c-.14.18-.36.29-.68.29-.11,0-.21,0-.36-.04-2.76,2.8-6.74,6.06-10.22,8.57.29.11.72.32.86.39-.07.21-.39.43-.79.47v19.25h-2.62v-18.42c-3.8,2.69-8.75,5.59-13.66,7.99-.36-.57-1-1.47-1.51-1.97,9.79-4.52,20.5-12.19,26.27-18.53l2.69,2.01Z"/>
    <path class="cls-34" d="M1078.39,831.34h-12.98c-.68,9.21-3.01,14.8-10.82,19.28-.5-.57-1.36-1.25-2.04-1.76,7.42-4.12,9.61-9.03,10.29-17.53h-14.37v-2.47h14.48c.11-2.8.14-6.02.14-9.64l3.51.21c-.04.36-.36.57-.86.65-.04,3.26-.04,6.17-.18,8.78h12.83v2.47Z"/>
    <path class="cls-34" d="M1084.05,822.2c3.73,1.18,8.03,3.05,10.68,4.88l-1.36,2.26c-2.58-1.83-6.81-3.73-10.47-4.98l1.15-2.15ZM1083.91,847.03c12.72-3.94,21.18-11.08,25.48-21,.75.61,1.58,1.08,2.33,1.47-4.48,9.82-13.23,17.46-25.38,21.51-.04.32-.25.68-.5.82l-1.94-2.8Z"/>
    <path class="cls-34" d="M1127.1,824.88c-.11.29-.39.5-.93.54-1.43,8.6-4.41,17.67-8.6,22.98-.64-.5-1.61-.97-2.4-1.29,4.01-4.88,7.17-13.98,8.32-22.98l3.62.75ZM1145.13,848.18c-1.68-6.27-5.84-16.45-9.53-23.08l2.33-1.11c3.76,6.42,7.96,16.52,9.82,23.16l-2.62,1.04ZM1139.93,819.36c1.65,1.47,3.41,3.69,4.37,5.3l-1.36,1c-1-1.61-2.87-3.94-4.37-5.3l1.36-1ZM1144.66,817.5c1.61,1.51,3.41,3.66,4.41,5.27l-1.4,1.04c-1-1.61-2.87-3.91-4.37-5.27l1.36-1.04Z"/>
    <path class="cls-34" d="M1151.87,833.02h29.93v2.54h-28.57c-.21.36-.68.61-1.15.68l-.21-3.23Z"/>
    <path class="cls-34" d="M1214.84,827.75c-.07.14-.14.32-.32.47-.47,10.32-1.47,16.81-2.87,19.36-1.43,2.47-3.51,2.58-4.7,2.58-1.4,0-3.94-.32-6.42-.83.07-.72,0-1.79-.11-2.54,2.69.61,5.45.9,6.27.9,1.29,0,2.01-.32,2.76-1.68,1.08-2.19,1.97-8.21,2.33-16.27h-11.47c-1.79,8.57-5.34,15.66-11.83,20.54-.43-.47-1.36-1.15-2.04-1.58,6.2-4.66,9.46-10.79,11.18-18.96h-9.89v-2.4h10.39c.43-2.54.65-4.84.82-7.81l3.55.29c-.04.39-.36.61-.9.65-.21,2.62-.39,4.59-.79,6.88h11.61l.57-.21,1.83.64Z"/>
    <path class="cls-34" d="M1221.04,833.02h29.93v2.54h-28.57c-.21.36-.68.61-1.15.68l-.21-3.23Z"/>
    <path class="cls-34" d="M1277.5,838.4c-3.66-1.97-8.67-4.3-12.58-5.84v17.89h-2.69v-31.15l3.62.21c-.04.39-.32.65-.93.75v10.54l.54-.79c4.19,1.54,9.75,4.01,13.48,5.99l-1.43,2.4ZM1273.73,821.51c1.65,1.36,3.8,3.62,4.95,5.27l-1.36,1.11c-1.08-1.54-3.26-3.94-4.87-5.23l1.29-1.15ZM1278.54,818.43c1.68,1.4,3.83,3.66,4.91,5.23l-1.29,1.11c-1.11-1.54-3.3-3.91-4.91-5.23l1.29-1.11Z"/>
    <path class="cls-34" d="M962.65,891.73c0-2.26,1.79-4.01,4.01-4.01s4.01,1.79,4.01,4.01-1.79,4.01-4.01,4.01-4.01-1.83-4.01-4.01Z"/>
    <path class="cls-34" d="M992.69,878.65c-.11.29-.39.5-.93.54-1.43,8.6-4.41,17.67-8.6,22.98-.64-.5-1.61-.97-2.4-1.29,4.01-4.88,7.17-13.98,8.32-22.98l3.62.75ZM1010.72,901.95c-1.68-6.27-5.84-16.45-9.53-23.08l2.33-1.11c3.76,6.42,7.96,16.52,9.82,23.16l-2.62,1.04ZM1010.25,871.48c2.22,0,4.01,1.79,4.01,4.05s-1.79,4.01-4.01,4.01-4.01-1.83-4.01-4.01c0-2.33,1.86-4.05,4.01-4.05ZM1013.08,875.53c0-1.61-1.29-2.87-2.83-2.87s-2.83,1.25-2.83,2.87,1.25,2.83,2.83,2.83,2.83-1.36,2.83-2.83Z"/>
    <path class="cls-34" d="M1041.22,876.75c-.07.18-.25.32-.47.39-1.94,4.55-4.23,8.5-7.17,12.33,3.91,3.12,9.79,8.46,13.12,12.15l-2.19,1.9c-3.15-3.66-8.92-9.1-12.58-12.04-3.15,3.83-8.6,9.07-13.8,12.04-.39-.54-1.25-1.43-1.86-1.94,9.93-5.45,17.78-15.63,21-23.41h-17.6v-2.44h19l.47-.18,2.08,1.18Z"/>
    <path class="cls-34" d="M1060.29,888.93c-1.61,4.19-3.98,7.88-6.74,10.57l-2.08-1.36c2.69-2.51,5.02-5.91,6.49-10.11l2.33.9ZM1067.96,883.41v16.81c0,3.91-2.8,3.91-8.53,3.91-.14-.65-.43-1.65-.75-2.4,1.04.04,2.19.04,3.15.04h2.08c1,0,1.47-.64,1.47-1.5v-16.85h-12.19v-2.44h12.19v-7.56l3.41.18c-.04.36-.29.61-.82.68v6.7h12.12v2.44h-12.12ZM1074.38,887.79c2.62,2.9,5.63,7.13,7.56,10.43l-2.29,1.33c-1.76-3.26-4.91-7.89-7.31-10.61l2.04-1.15ZM1079.03,871.26c2.19,0,3.98,1.79,3.98,4.01s-1.79,4.01-3.98,4.01-4.05-1.79-4.05-4.01,1.86-4.01,4.05-4.01ZM1081.83,875.28c0-1.58-1.25-2.87-2.8-2.87s-2.87,1.29-2.87,2.87,1.29,2.83,2.87,2.83,2.8-1.36,2.8-2.83Z"/>
    <path class="cls-34" d="M1086.99,886.78h29.93v2.54h-28.57c-.21.36-.68.61-1.15.68l-.21-3.23Z"/>
    <path class="cls-34" d="M1142.73,892.12c-3.66-1.97-8.67-4.3-12.58-5.84v17.92h-2.69v-31.15l3.62.21c-.04.39-.32.65-.93.75v10.47l.54-.75c4.19,1.54,9.75,4.01,13.48,5.99l-1.43,2.4Z"/>
    <path class="cls-34" d="M1150.76,877.61c2.22.14,5.2.14,7.63.14,1.61,0,3.44-.04,4.95-.07-.04-1.72-.07-3.73-.07-4.98l3.62.18c-.04.43-.36.64-.97.75-.04.57,0,3.33,0,3.94,4.19-.21,8.35-.57,11.9-1.4l.32,2.37c-3.51.79-7.67,1.15-12.22,1.36.04,2.15.07,4.37.14,6.59,3.48-.21,7.2-.68,10.11-1.4l.29,2.33c-3.01.65-6.77,1.08-10.36,1.25l.29,5.99c3.3,1.08,6.81,2.94,10.54,5.59l-1.58,2.19c-3.23-2.54-6.27-4.27-8.89-5.27,0,.57.04,1.22.04,1.69-.04,3.4-2.08,5.38-6.42,5.38-4.55,0-7.88-1.86-7.88-5.23s3.91-5.34,7.92-5.34c1.18,0,2.44.11,3.76.43-.04-1.54-.11-3.41-.14-5.34-1.15.04-2.44.07-3.48.07-6.13,0-7.85-.97-7.85-3.05,0-1.36,1.04-2.47,3.33-3.94l1.72,1.11c-1.61.9-2.47,1.68-2.47,2.4,0,1.08,1.68,1.29,6.24,1.29.79,0,1.61,0,2.4-.04l-.21-6.63c-1.54.07-3.33.07-4.95.07-2.29,0-5.56,0-7.71-.07v-2.37ZM1164.02,896.28c-1.43-.39-2.76-.57-4.01-.57-2.72,0-5.48,1.11-5.48,3.26s2.51,3.15,5.63,3.15c2.83,0,3.91-1.25,3.91-3.76l-.04-2.08Z"/>
    <path class="cls-34" d="M1204.41,879.9c-3.05,1.08-7.1,1.76-11,2.04-1.5,8.21-3.69,16.38-6.56,22.4l-2.58-.97c2.94-5.77,5.09-13.19,6.49-21.33-.72.04-5.52.07-6.59.04l-.04-2.44c.57.04,1.33.04,2.15.04.32,0,3.91,0,4.84-.04.36-2.29.72-4.8.93-6.99l3.69.36c-.04.39-.54.68-1.04.72-.22,1.58-.57,3.51-.9,5.7,3.51-.32,7.06-.93,10.04-2.01l.57,2.47ZM1213.95,903.77c-1.08.04-2.19.07-3.3.07-3.37,0-6.56-.25-8.49-.79-2.54-.72-4.01-2.58-3.98-4.95.04-1.58.72-3.37,2.22-5.2l2.15.93c-1.25,1.47-1.86,2.87-1.86,3.98,0,2.83,2.72,3.55,9.25,3.55,1.33,0,2.69-.04,4.01-.14v2.54ZM1199.97,886.5c3.69-1.18,8.78-1.94,13.01-1.83v2.44c-4.05-.11-8.75.47-12.4,1.61l-.61-2.22Z"/>
    <path class="cls-34" d="M1221.69,903.34c-1.11-2.58-1.54-7.92-1.54-12.62s.75-10.75,1.94-16.74l3.48.68c-.07.36-.43.61-.93.65-1.29,4.91-2.08,11.29-2.08,15.45,0,2.72.04,5.45.32,6.77.79-2.15,2.22-5.59,2.97-7.28l1.61,1.5c-1.18,2.44-3.69,7.89-3.69,9.57,0,.5.11,1.04.36,1.72l-2.44.29ZM1230.79,882.23c3.01.04,6.02.07,9.03-.14-.14-3.08-.25-5.73-.32-8.39l3.62.11c-.04.36-.36.65-.93.75.04,2.29.11,4.62.18,7.35,2.83-.29,5.12-.79,7.02-1.43l.32,2.51c-1.72.54-4.19,1.04-7.24,1.29.14,3.98.32,8.17.43,10.47,2.72,1.11,5.45,2.87,7.31,4.55l-1.4,2.29c-1.47-1.47-3.58-3.05-5.81-4.09-.04,3.05-.61,6.45-5.99,6.45-4.19,0-6.99-2.01-6.99-5.16,0-3.66,3.69-5.27,6.99-5.27,1.11,0,2.29.14,3.41.47-.11-2.26-.32-6.02-.5-9.53-1.11.07-2.62.11-3.66.11h-5.45l-.04-2.33ZM1240.61,896.32c-1.15-.36-2.37-.65-3.55-.65-2.19,0-4.8.79-4.8,3.05,0,2.01,2.15,3.01,4.77,3.01s3.62-1.29,3.62-4.16l-.04-1.25Z"/>
    <path class="cls-34" d="M1284.41,882.7h-24.23v1.9c0,6.09-.54,14.87-4.37,20.79-.43-.43-1.5-1.04-2.08-1.29,3.69-5.7,4.05-13.69,4.05-19.5v-10.57h26.63v8.67ZM1282.01,876.21h-21.83v4.3h21.83v-4.3ZM1286.92,889.26h-12.44v4.41h9.32v11.61h-2.4v-1.25h-15.81v1.33h-2.33v-11.68h8.82v-4.41h-11.36v-2.19h11.36v-4.19l3.12.18c-.04.25-.22.43-.72.5v3.51h12.44v2.19ZM1281.4,901.84v-6.02h-15.81v6.02h15.81Z"/>
    <path class="cls-34" d="M1294.66,884.71c-1.36,2.26-2.87,4.26-4.37,5.99-.25-.57-.86-1.68-1.25-2.26,3.44-3.73,6.88-9.93,8.96-16.13l2.87.97c-.14.25-.39.36-.82.32-.93,2.51-2.04,5.02-3.3,7.42l.97.25c-.07.21-.25.39-.72.43v23.76h-2.33v-20.75ZM1312.76,901.77h10.39v2.29h-23.55v-2.29h10.72v-9.53h-8.53v-2.29h8.53v-8.32h-9.75v-2.29h12.83c-1.68-1.65-5.13-4.09-7.81-5.66l1.58-1.72c2.76,1.58,6.31,3.91,8.03,5.56l-1.58,1.83h9.03v2.29h-9.89v8.32h8.78v2.29h-8.78v9.53Z"/>
    <path class="cls-34" d="M1339.93,878.11v2.01h-14.34v-2.01h14.34ZM1338.46,892.73v10.54h-9.03v1.68h-2.15v-12.22h11.18ZM1327.32,884.96v-1.97h11.25v1.97h-11.25ZM1327.32,889.83v-1.97h11.25v1.97h-11.25ZM1338.57,873.34v1.97h-11.08v-1.97h11.08ZM1336.28,894.78h-6.85v6.45h6.85v-6.45ZM1359.11,889.22v2.33h-8.21v13.8h-2.44v-13.8h-8.67v-2.33h8.67v-9.43h-3.76c-1,2.62-2.15,5.02-3.44,6.77-.43-.39-1.36-.97-1.94-1.25,2.22-3.05,4.12-8.24,5.23-13.33l2.97.75c-.07.25-.32.36-.79.36-.36,1.47-.79,2.97-1.25,4.44h12.72v2.26h-7.31v9.43h8.21Z"/>
    <path class="cls-34" d="M1394.38,874.63v2.44h-4.55v24.66c0,1.83-.47,2.69-1.79,3.12-1.4.43-3.91.43-7.46.43-.18-.72-.68-1.9-1.04-2.62,1.65.07,3.26.11,4.55.11,3.12,0,3.26,0,3.26-1.08v-24.62h-25.3v-2.44h32.33ZM1380.58,896.1h-12.72v2.98h-2.37v-16.42h15.09v13.44ZM1378.18,884.96h-10.32v8.85h10.32v-8.85Z"/>
    <path class="cls-34" d="M1410.44,878.18v2.04h-13.15v-2.04h13.15ZM1409.29,893.09v10.54h-8.24v1.68h-2.12v-12.22h10.36ZM1409.18,883.2v1.97h-10.21v-1.97h10.21ZM1398.97,890.12v-1.97h10.21v1.97h-10.21ZM1409.07,873.34v1.97h-9.89v-1.97h9.89ZM1407.14,895.13h-6.09v6.45h6.09v-6.45ZM1422.55,901.77h8.17v2.29h-20.32v-2.29h2.98v-18.42l2.94.21c-.04.25-.21.43-.68.47v17.74h4.55v-25.38h-8.53v-2.29h18.5v2.29h-7.6v10.54h7.38v2.29h-7.38v12.54Z"/>
  </g>
  <g>
    <polygon class="cls-44" points="353.02 1219.52 353.02 1196.65 314.84 1227.74 276.66 1196.65 276.66 1219.52 314.84 1250.61 353.02 1219.52"/>
    <rect class="cls-44" x="284.91" y="1183.85" width="59.87" height="32.62" transform="translate(1515 885.32) rotate(90)"/>
  </g>
  <g>
    <polygon class="cls-44" points="353.02 1455.86 353.02 1432.99 314.84 1464.07 276.66 1432.99 276.66 1455.86 314.84 1486.94 353.02 1455.86"/>
    <rect class="cls-44" x="284.91" y="1420.18" width="59.87" height="32.62" transform="translate(1751.33 1121.66) rotate(90)"/>
  </g>
  <g>
    <polygon class="cls-44" points="353.02 978.7 353.02 955.83 314.84 986.92 276.66 955.83 276.66 978.7 314.84 1009.79 353.02 978.7"/>
    <rect class="cls-44" x="204.81" y="862.93" width="220.06" height="32.62" transform="translate(1194.08 564.41) rotate(90)"/>
  </g>
  <g>
    <polygon class="cls-44" points="353.02 575.47 353.02 552.6 314.84 583.69 276.66 552.6 276.66 575.47 314.84 606.56 353.02 575.47"/>
    <rect class="cls-44" x="234.49" y="489.39" width="160.69" height="32.62" transform="translate(820.54 190.86) rotate(90)"/>
  </g>
  <g>
    <polygon class="cls-44" points="353.02 237.21 353.02 214.34 314.84 245.43 276.66 214.34 276.66 237.21 314.84 268.3 353.02 237.21"/>
    <rect class="cls-44" x="280.98" y="197.61" width="67.73" height="32.62" transform="translate(528.76 -100.92) rotate(90)"/>
  </g>
</svg>