<?xml version="1.0" encoding="UTF-8"?>
<svg id="Layer_1" data-name="Layer 1" xmlns="http://www.w3.org/2000/svg" viewBox="0 0 1997 925">
  <defs>
    <style>
      .cls-1, .cls-2, .cls-3 {
        fill: #009245;
      }

      .cls-1, .cls-2, .cls-4, .cls-5, .cls-6 {
        font-family: Arial-BoldMT, Arial;
        font-weight: 700;
      }

      .cls-1, .cls-5 {
        font-size: 31.52px;
      }

      .cls-7 {
        fill: #ff931e;
      }

      .cls-8 {
        fill: #00a99d;
      }

      .cls-2 {
        font-size: 28.68px;
      }

      .cls-9, .cls-10 {
        fill: #4d4d4d;
      }

      .cls-11 {
        stroke: #00a99d;
      }

      .cls-11, .cls-12 {
        fill: none;
        stroke-width: 3px;
      }

      .cls-11, .cls-13, .cls-14 {
        stroke-miterlimit: 10;
      }

      .cls-4 {
        font-size: 55px;
      }

      .cls-4, .cls-15 {
        fill: #fff;
      }

      .cls-16 {
        fill-rule: evenodd;
      }

      .cls-16, .cls-13, .cls-14 {
        fill: #f2f2f2;
      }

      .cls-12 {
        stroke: #fff;
        stroke-linecap: round;
        stroke-linejoin: round;
      }

      .cls-17 {
        letter-spacing: 0em;
      }

      .cls-5 {
        fill: #ff1d25;
      }

      .cls-18 {
        fill: #29abe2;
      }

      .cls-13 {
        stroke: #ff1d25;
      }

      .cls-13, .cls-14 {
        stroke-width: 4px;
      }

      .cls-10 {
        font-family: ArialMT, Arial;
        font-size: 26.5px;
      }

      .cls-19 {
        letter-spacing: -.07em;
      }

      .cls-20 {
        letter-spacing: -.09em;
      }

      .cls-21 {
        letter-spacing: -.02em;
      }

      .cls-22 {
        letter-spacing: -.02em;
      }

      .cls-23 {
        letter-spacing: -.06em;
      }

      .cls-24 {
        letter-spacing: -.06em;
      }

      .cls-25 {
        letter-spacing: -.06em;
      }

      .cls-26 {
        letter-spacing: -.04em;
      }

      .cls-6 {
        font-size: 30px;
      }

      .cls-14 {
        stroke: #009245;
      }
    </style>
  </defs>
  <rect class="cls-15" y="1" width="1997" height="925"/>
  <rect class="cls-18" x="143.77" y="532.06" width="224.53" height="224.53" rx="19.94" ry="19.94"/>
  <g>
    <path d="M177.32,815.71h-5.82l-2.31-6.02h-10.59l-2.19,6.02h-5.67l10.32-26.49h5.65l10.61,26.49ZM167.47,805.23l-3.65-9.83-3.58,9.83h7.23Z"/>
    <path d="M197.1,805.97l5.18,1.64c-.79,2.89-2.12,5.04-3.96,6.44-1.85,1.4-4.2,2.1-7.04,2.1-3.52,0-6.41-1.2-8.67-3.6-2.26-2.4-3.4-5.69-3.4-9.86,0-4.41,1.14-7.83,3.41-10.27,2.28-2.44,5.27-3.66,8.98-3.66,3.24,0,5.87.96,7.89,2.87,1.2,1.13,2.11,2.76,2.71,4.88l-5.29,1.26c-.31-1.37-.97-2.46-1.96-3.25-.99-.79-2.2-1.19-3.62-1.19-1.96,0-3.56.7-4.78,2.11-1.22,1.41-1.83,3.69-1.83,6.85,0,3.35.6,5.73,1.81,7.15,1.21,1.42,2.77,2.13,4.7,2.13,1.42,0,2.64-.45,3.67-1.36,1.02-.9,1.76-2.32,2.21-4.26Z"/>
    <path d="M228.19,812.35c1.31.94,2.74,1.69,4.28,2.24l-1.97,3.78c-.81-.24-1.6-.57-2.37-.99-.17-.08-1.35-.87-3.56-2.35-1.73.76-3.66,1.14-5.76,1.14-4.07,0-7.26-1.2-9.57-3.59s-3.46-5.76-3.46-10.1,1.16-7.69,3.47-10.09c2.31-2.4,5.45-3.6,9.41-3.6s7.04,1.2,9.34,3.6c2.3,2.4,3.45,5.77,3.45,10.09,0,2.29-.32,4.3-.96,6.03-.48,1.33-1.25,2.61-2.31,3.85ZM223.89,809.33c.69-.81,1.2-1.78,1.54-2.93.34-1.14.52-2.46.52-3.94,0-3.06-.67-5.34-2.02-6.86s-3.11-2.27-5.29-2.27-3.95.76-5.3,2.28-2.03,3.8-2.03,6.85.68,5.41,2.03,6.95c1.36,1.54,3.07,2.3,5.14,2.3.77,0,1.5-.13,2.19-.38-1.08-.71-2.19-1.26-3.31-1.66l1.5-3.05c1.76.6,3.44,1.51,5.04,2.71Z"/>
    <path d="M235.62,789.22h5.35v14.34c0,2.28.06,3.75.2,4.43.23,1.08.77,1.96,1.63,2.61s2.04.98,3.53.98,2.66-.31,3.43-.93c.77-.62,1.23-1.38,1.39-2.29.16-.9.23-2.4.23-4.5v-14.65h5.35v13.91c0,3.18-.14,5.43-.43,6.74-.29,1.31-.82,2.42-1.6,3.32-.78.9-1.81,1.62-3.12,2.16-1.3.54-3,.8-5.1.8-2.53,0-4.45-.29-5.75-.88s-2.34-1.34-3.1-2.28c-.76-.93-1.26-1.91-1.5-2.94-.35-1.52-.52-3.76-.52-6.72v-14.13Z"/>
    <path d="M262.21,815.71v-26.49h5.35v26.49h-5.35Z"/>
    <path d="M272.67,815.71v-26.49h11.26c2.83,0,4.89.24,6.17.71s2.31,1.32,3.08,2.54,1.16,2.61,1.16,4.17c0,1.99-.58,3.63-1.75,4.92s-2.92,2.11-5.24,2.45c1.16.67,2.11,1.42,2.86,2.22.75.81,1.77,2.24,3.04,4.3l3.23,5.17h-6.4l-3.87-5.76c-1.37-2.06-2.31-3.36-2.82-3.89s-1.04-.9-1.61-1.1c-.57-.2-1.46-.3-2.69-.3h-1.08v11.06h-5.35ZM278.02,800.43h3.96c2.57,0,4.17-.11,4.81-.33.64-.22,1.14-.59,1.5-1.12s.54-1.19.54-1.99c0-.89-.24-1.61-.71-2.16-.47-.55-1.15-.89-2.01-1.04-.43-.06-1.73-.09-3.9-.09h-4.17v6.72Z"/>
    <path d="M299.38,815.71v-26.49h19.64v4.48h-14.29v5.87h13.3v4.46h-13.3v7.21h14.8v4.46h-20.14Z"/>
    <path d="M324.07,815.71v-26.49h11.25c2.83,0,4.89.24,6.17.71,1.28.48,2.31,1.32,3.08,2.54.77,1.22,1.16,2.61,1.16,4.17,0,1.99-.58,3.63-1.75,4.92s-2.91,2.11-5.24,2.45c1.16.67,2.11,1.42,2.86,2.22.75.81,1.77,2.24,3.04,4.3l3.23,5.17h-6.39l-3.87-5.76c-1.37-2.06-2.31-3.36-2.82-3.89s-1.04-.9-1.61-1.1c-.57-.2-1.46-.3-2.69-.3h-1.08v11.06h-5.35ZM329.42,800.43h3.96c2.57,0,4.17-.11,4.81-.33s1.14-.59,1.5-1.12.54-1.19.54-1.99c0-.89-.24-1.61-.71-2.16-.48-.55-1.15-.89-2.02-1.04-.43-.06-1.73-.09-3.9-.09h-4.17v6.72Z"/>
    <path class="cls-9" d="M70.37,857.71l9.62-25.05h3.57l10.25,25.05h-3.78l-2.92-7.59h-10.48l-2.75,7.59h-3.52ZM77.6,847.42h8.49l-2.62-6.94c-.8-2.11-1.39-3.84-1.78-5.2-.32,1.61-.77,3.2-1.35,4.79l-2.75,7.35Z"/>
    <path class="cls-9" d="M107.97,857.71v-2.67c-1.41,2.05-3.33,3.08-5.76,3.08-1.07,0-2.07-.21-3-.62-.93-.41-1.62-.93-2.07-1.55-.45-.62-.77-1.38-.95-2.28-.12-.6-.19-1.56-.19-2.87v-11.25h3.08v10.07c0,1.61.06,2.69.19,3.25.19.81.6,1.44,1.23,1.91.63.46,1.4.69,2.32.69s1.79-.24,2.6-.71c.81-.47,1.38-1.12,1.72-1.93.34-.81.5-2,.5-3.55v-9.72h3.08v18.15h-2.75Z"/>
    <path class="cls-9" d="M122.26,854.96l.44,2.72c-.87.18-1.64.27-2.32.27-1.12,0-1.98-.18-2.6-.53-.62-.35-1.05-.82-1.3-1.39-.25-.58-.38-1.79-.38-3.63v-10.44h-2.26v-2.39h2.26v-4.5l3.06-1.85v6.34h3.09v2.39h-3.09v10.61c0,.88.05,1.44.16,1.69.11.25.29.45.53.6.25.15.6.22,1.05.22.34,0,.79-.04,1.35-.12Z"/>
    <path class="cls-9" d="M125.26,857.71v-25.05h3.08v8.99c1.44-1.66,3.25-2.5,5.44-2.5,1.34,0,2.51.26,3.5.79.99.53,1.7,1.26,2.13,2.2.43.93.64,2.29.64,4.07v11.5h-3.08v-11.5c0-1.54-.33-2.66-1-3.36-.67-.7-1.61-1.05-2.83-1.05-.91,0-1.77.24-2.57.71s-1.38,1.11-1.72,1.92c-.34.81-.51,1.93-.51,3.35v9.93h-3.08Z"/>
    <path class="cls-9" d="M143.58,848.64c0-3.36.93-5.85,2.8-7.47,1.56-1.34,3.46-2.02,5.71-2.02,2.5,0,4.54.82,6.12,2.45,1.58,1.64,2.38,3.89,2.38,6.78,0,2.34-.35,4.17-1.05,5.51s-1.72,2.38-3.06,3.12c-1.34.74-2.8,1.11-4.38,1.11-2.54,0-4.59-.81-6.16-2.44-1.57-1.63-2.35-3.98-2.35-7.04ZM146.75,848.64c0,2.32.51,4.06,1.52,5.22s2.29,1.73,3.83,1.73,2.8-.58,3.81-1.74c1.01-1.16,1.52-2.93,1.52-5.32,0-2.24-.51-3.94-1.53-5.1s-2.29-1.74-3.8-1.74-2.81.58-3.83,1.73c-1.01,1.15-1.52,2.89-1.52,5.21Z"/>
    <path class="cls-9" d="M164.16,857.71v-18.15h2.77v2.75c.71-1.29,1.36-2.14,1.96-2.55.6-.41,1.26-.62,1.97-.62,1.04,0,2.09.33,3.16.99l-1.06,2.85c-.75-.44-1.5-.67-2.26-.67-.67,0-1.28.2-1.81.61-.54.41-.92.97-1.15,1.68-.34,1.09-.51,2.29-.51,3.59v9.5h-3.08Z"/>
    <path class="cls-9" d="M175.87,836.19v-3.54h3.08v3.54h-3.08ZM175.87,857.71v-18.15h3.08v18.15h-3.08Z"/>
    <path class="cls-9" d="M182.39,852.29l3.04-.48c.17,1.22.64,2.15,1.43,2.8.78.65,1.87.97,3.27.97s2.46-.29,3.14-.86c.68-.58,1.03-1.25,1.03-2.03,0-.69-.3-1.24-.91-1.64-.42-.27-1.47-.62-3.14-1.04-2.26-.57-3.82-1.06-4.69-1.48-.87-.42-1.53-.99-1.98-1.73-.45-.74-.67-1.55-.67-2.44,0-.81.18-1.56.55-2.25.37-.69.87-1.26,1.51-1.72.48-.35,1.13-.65,1.96-.9.83-.24,1.71-.37,2.66-.37,1.42,0,2.67.21,3.75.62,1.08.41,1.87.97,2.38,1.67.51.7.87,1.64,1.06,2.81l-3.01.41c-.14-.93-.53-1.66-1.19-2.19-.65-.52-1.58-.79-2.78-.79-1.41,0-2.42.23-3.03.7-.61.47-.91,1.01-.91,1.64,0,.4.12.76.38,1.08.25.33.64.6,1.18.82.31.11,1.21.38,2.72.79,2.18.58,3.69,1.06,4.55,1.43.86.37,1.54.91,2.03,1.62.49.71.74,1.58.74,2.63s-.3,1.99-.9,2.9c-.6.91-1.46,1.61-2.59,2.1-1.13.5-2.4.74-3.83.74-2.36,0-4.16-.49-5.39-1.47-1.24-.98-2.03-2.43-2.37-4.36Z"/>
    <path class="cls-9" d="M213.55,851.87l3.18.39c-.5,1.86-1.43,3.3-2.79,4.32-1.36,1.03-3.09,1.54-5.2,1.54-2.66,0-4.76-.82-6.32-2.45-1.55-1.63-2.33-3.93-2.33-6.88s.79-5.42,2.36-7.11c1.57-1.69,3.61-2.53,6.12-2.53s4.41.83,5.95,2.48c1.54,1.65,2.31,3.98,2.31,6.97,0,.18,0,.46-.02.82h-13.54c.11,1.99.68,3.52,1.69,4.58,1.01,1.06,2.28,1.59,3.79,1.59,1.13,0,2.09-.3,2.89-.89.8-.59,1.43-1.54,1.9-2.84ZM203.45,846.89h10.13c-.14-1.53-.53-2.67-1.16-3.43-.98-1.18-2.25-1.78-3.81-1.78-1.41,0-2.6.47-3.56,1.42-.96.95-1.49,2.21-1.6,3.79Z"/>
    <path class="cls-9" d="M232.37,857.71v-2.29c-1.15,1.8-2.84,2.7-5.08,2.7-1.45,0-2.78-.4-3.99-1.2-1.21-.8-2.15-1.91-2.82-3.34-.67-1.43-1-3.07-1-4.93s.3-3.46.9-4.93c.61-1.47,1.51-2.61,2.72-3.39,1.21-.79,2.56-1.18,4.05-1.18,1.09,0,2.07.23,2.92.69.85.46,1.55,1.06,2.08,1.8v-8.99h3.06v25.05h-2.85ZM222.64,848.65c0,2.32.49,4.06,1.47,5.21.98,1.15,2.14,1.73,3.47,1.73s2.49-.55,3.43-1.65c.94-1.1,1.41-2.78,1.41-5.03,0-2.48-.48-4.31-1.44-5.47s-2.13-1.74-3.54-1.74-2.51.56-3.43,1.68c-.92,1.12-1.38,2.88-1.38,5.28Z"/>
    <path class="cls-9" d="M255.92,857.71v-22.1h-8.25v-2.96h19.86v2.96h-8.29v22.1h-3.32Z"/>
    <path class="cls-9" d="M269.2,857.71v-18.15h2.77v2.75c.71-1.29,1.36-2.14,1.96-2.55s1.26-.62,1.97-.62c1.04,0,2.09.33,3.16.99l-1.06,2.85c-.75-.44-1.5-.67-2.26-.67-.67,0-1.28.2-1.81.61-.54.41-.92.97-1.14,1.68-.34,1.09-.51,2.29-.51,3.59v9.5h-3.08Z"/>
    <path class="cls-9" d="M292.73,855.47c-1.14.97-2.24,1.65-3.29,2.05-1.05.4-2.19.6-3.39.6-1.99,0-3.53-.49-4.6-1.46-1.07-.97-1.61-2.22-1.61-3.73,0-.89.2-1.7.61-2.44.4-.73.94-1.32,1.59-1.77s1.39-.78,2.21-1.01c.6-.16,1.52-.31,2.73-.46,2.48-.3,4.31-.65,5.49-1.06.01-.42.02-.69.02-.8,0-1.25-.29-2.14-.87-2.65-.79-.69-1.95-1.04-3.5-1.04-1.45,0-2.52.25-3.21.76-.69.51-1.2,1.4-1.53,2.69l-3.01-.41c.27-1.29.72-2.33,1.35-3.12s1.53-1.4,2.72-1.83c1.19-.43,2.56-.64,4.12-.64s2.81.18,3.78.55c.97.37,1.68.82,2.14,1.38.46.55.77,1.25.96,2.09.1.52.15,1.47.15,2.84v4.1c0,2.86.07,4.67.2,5.43s.39,1.48.78,2.18h-3.21c-.32-.64-.52-1.38-.62-2.24ZM292.47,848.6c-1.12.46-2.79.84-5.03,1.16-1.26.18-2.16.39-2.68.62-.53.23-.93.56-1.21,1-.28.44-.43.93-.43,1.46,0,.82.31,1.5.93,2.05.62.55,1.53.82,2.72.82s2.24-.26,3.16-.78c.92-.52,1.6-1.23,2.03-2.13.33-.7.5-1.72.5-3.08v-1.13Z"/>
    <path class="cls-9" d="M300.35,857.71v-18.15h2.77v2.58c1.33-1.99,3.26-2.99,5.78-2.99,1.09,0,2.1.2,3.02.59.92.39,1.6.91,2.06,1.55.46.64.77,1.4.96,2.27.11.57.17,1.57.17,2.99v11.16h-3.08v-11.04c0-1.25-.12-2.19-.36-2.81-.24-.62-.66-1.12-1.27-1.49-.61-.37-1.32-.56-2.14-.56-1.31,0-2.44.42-3.39,1.25-.95.83-1.43,2.41-1.43,4.73v9.91h-3.08Z"/>
    <path class="cls-9" d="M318.58,852.29l3.04-.48c.17,1.22.64,2.15,1.43,2.8.78.65,1.87.97,3.27.97s2.46-.29,3.14-.86c.68-.58,1.03-1.25,1.03-2.03,0-.69-.3-1.24-.91-1.64-.42-.27-1.47-.62-3.14-1.04-2.26-.57-3.82-1.06-4.69-1.48-.87-.42-1.53-.99-1.98-1.73-.45-.74-.67-1.55-.67-2.44,0-.81.18-1.56.55-2.25.37-.69.87-1.26,1.51-1.72.48-.35,1.13-.65,1.96-.9.83-.24,1.71-.37,2.66-.37,1.42,0,2.67.21,3.75.62,1.08.41,1.87.97,2.38,1.67.51.7.87,1.64,1.06,2.81l-3.01.41c-.14-.93-.53-1.66-1.19-2.19-.65-.52-1.58-.79-2.78-.79-1.41,0-2.42.23-3.03.7-.61.47-.91,1.01-.91,1.64,0,.4.12.76.38,1.08.25.33.64.6,1.18.82.31.11,1.21.38,2.72.79,2.18.58,3.69,1.06,4.55,1.43.86.37,1.54.91,2.03,1.62.49.71.74,1.58.74,2.63s-.3,1.99-.9,2.9c-.6.91-1.46,1.61-2.59,2.1-1.13.5-2.4.74-3.83.74-2.36,0-4.16-.49-5.39-1.47-1.24-.98-2.03-2.43-2.37-4.36Z"/>
    <path class="cls-9" d="M349.16,855.47c-1.14.97-2.24,1.65-3.29,2.05-1.05.4-2.18.6-3.39.6-1.99,0-3.53-.49-4.6-1.46-1.07-.97-1.61-2.22-1.61-3.73,0-.89.2-1.7.61-2.44.4-.73.93-1.32,1.59-1.77.65-.44,1.39-.78,2.21-1.01.6-.16,1.51-.31,2.73-.46,2.48-.3,4.31-.65,5.49-1.06,0-.42.02-.69.02-.8,0-1.25-.29-2.14-.87-2.65-.79-.69-1.96-1.04-3.5-1.04-1.45,0-2.52.25-3.2.76-.69.51-1.2,1.4-1.53,2.69l-3.01-.41c.27-1.29.72-2.33,1.35-3.12.62-.79,1.53-1.4,2.72-1.83,1.19-.43,2.56-.64,4.12-.64s2.81.18,3.78.55c.97.37,1.68.82,2.13,1.38s.78,1.25.96,2.09c.1.52.15,1.47.15,2.84v4.1c0,2.86.06,4.67.2,5.43.13.76.39,1.48.78,2.18h-3.21c-.32-.64-.53-1.38-.62-2.24ZM348.9,848.6c-1.12.46-2.79.84-5.03,1.16-1.26.18-2.16.39-2.68.62-.52.23-.93.56-1.21,1-.29.44-.43.93-.43,1.46,0,.82.31,1.5.93,2.05s1.53.82,2.73.82,2.24-.26,3.16-.78c.92-.52,1.6-1.23,2.03-2.13.33-.7.5-1.72.5-3.08v-1.13Z"/>
    <path class="cls-9" d="M368.62,851.06l3.03.39c-.33,2.08-1.18,3.72-2.54,4.9-1.36,1.18-3.03,1.77-5.02,1.77-2.48,0-4.48-.81-5.99-2.44-1.51-1.62-2.26-3.95-2.26-6.98,0-1.96.32-3.67.97-5.14.65-1.47,1.64-2.57,2.96-3.31,1.33-.74,2.77-1.1,4.33-1.1,1.97,0,3.58.5,4.84,1.5,1.25,1,2.06,2.41,2.41,4.25l-2.99.46c-.29-1.22-.79-2.14-1.51-2.75s-1.6-.92-2.62-.92c-1.55,0-2.81.56-3.78,1.67-.97,1.11-1.45,2.87-1.45,5.27s.47,4.21,1.4,5.31c.93,1.11,2.15,1.66,3.66,1.66,1.21,0,2.21-.37,3.02-1.11.81-.74,1.32-1.88,1.54-3.42Z"/>
    <path class="cls-9" d="M381,854.96l.44,2.72c-.87.18-1.64.27-2.32.27-1.12,0-1.98-.18-2.6-.53-.62-.35-1.05-.82-1.3-1.39-.25-.58-.38-1.79-.38-3.63v-10.44h-2.26v-2.39h2.26v-4.5l3.06-1.85v6.34h3.09v2.39h-3.09v10.61c0,.88.05,1.44.16,1.69.11.25.29.45.53.6.25.15.6.22,1.05.22.34,0,.79-.04,1.35-.12Z"/>
    <path class="cls-9" d="M384.02,836.19v-3.54h3.08v3.54h-3.08ZM384.02,857.71v-18.15h3.08v18.15h-3.08Z"/>
    <path class="cls-9" d="M390.63,848.64c0-3.36.93-5.85,2.8-7.47,1.56-1.34,3.46-2.02,5.71-2.02,2.5,0,4.54.82,6.12,2.45,1.58,1.64,2.38,3.89,2.38,6.78,0,2.34-.35,4.17-1.05,5.51s-1.72,2.38-3.06,3.12c-1.34.74-2.8,1.11-4.38,1.11-2.54,0-4.59-.81-6.16-2.44-1.57-1.63-2.35-3.98-2.35-7.04ZM393.8,848.64c0,2.32.51,4.06,1.52,5.22s2.29,1.73,3.83,1.73,2.8-.58,3.81-1.74c1.01-1.16,1.52-2.93,1.52-5.32,0-2.24-.51-3.94-1.53-5.1s-2.29-1.74-3.8-1.74-2.81.58-3.83,1.73c-1.01,1.15-1.52,2.89-1.52,5.21Z"/>
    <path class="cls-9" d="M411.24,857.71v-18.15h2.77v2.58c1.33-1.99,3.26-2.99,5.78-2.99,1.09,0,2.1.2,3.02.59.92.39,1.6.91,2.06,1.55.46.64.78,1.4.96,2.27.11.57.17,1.57.17,2.99v11.16h-3.08v-11.04c0-1.25-.12-2.19-.36-2.81-.24-.62-.66-1.12-1.27-1.49s-1.32-.56-2.14-.56c-1.31,0-2.44.42-3.39,1.25-.95.83-1.43,2.41-1.43,4.73v9.91h-3.08Z"/>
  </g>
  <path class="cls-16" d="M176.36,617.85h162.58v-7.98l-81.28-39.19-81.3,39.19v7.98h0ZM174.47,704.09h11.02v-68.72h-3.21c-1.03,0-1.86-.84-1.86-1.87v-11.89h-5.95c-1.04,0-1.87-.84-1.87-1.88v-11.05h0c0-.69.39-1.36,1.06-1.69l83.18-40.1c.5-.24,1.1-.26,1.64,0l83.04,40.04c.7.28,1.19.96,1.19,1.75v11.05c0,1.04-.85,1.88-1.89,1.88h-5.94v11.89c0,1.03-.84,1.87-1.86,1.87h-3.21v68.72h11.01c1.04,0,1.89.85,1.89,1.89v11.59c0,1.04-.85,1.88-1.89,1.88h-166.35c-1.04,0-1.87-.84-1.87-1.88v-11.59c0-1.03.84-1.89,1.87-1.89h0ZM223,621.61v11.89c0,1.03-.83,1.87-1.86,1.87h-3.21v68.72h23.5v-68.72h-3.2c-1.03,0-1.86-.84-1.86-1.87v-11.89h-13.37ZM278.94,621.61v11.89c0,1.03-.83,1.87-1.85,1.87h-3.22v68.72h23.51v-68.72h-3.21c-1.02,0-1.85-.84-1.85-1.87v-11.89h-13.38ZM331.17,621.61h-35.15v10.01h35.15v-10.01h0ZM275.22,621.61h-35.15v10.01h35.15v-10.01h0ZM219.29,621.61h-35.16v10.01h35.16v-10.01h0ZM189.25,704.09h24.9v-68.72h-24.9v68.72h0ZM245.2,704.09h24.91v-68.72h-24.91v68.72h0ZM301.14,704.09h24.92v-68.72h-24.92v68.72h0ZM338.94,707.86h-162.58v7.83h162.58v-7.83Z"/>
  <rect class="cls-7" x="153.71" y="61.91" width="219.29" height="219.29" rx="19.94" ry="19.94"/>
  <text class="cls-6" transform="translate(115.35 320.57)"><tspan class="cls-19" x="0" y="0">P</tspan><tspan class="cls-20" x="17.78" y="0">A</tspan><tspan x="36.69" y="0">YMENT G</tspan><tspan class="cls-19" x="173.36" y="0">A</tspan><tspan x="192.8" y="0">TE</tspan><tspan class="cls-25" x="231.14" y="0">W</tspan><tspan class="cls-20" x="257.8" y="0">A</tspan><tspan class="cls-21" x="276.71" y="0">Y</tspan></text>
  <g>
    <g>
      <path class="cls-12" d="M252.38,179.01c-5.49,1.26-10.7,3.46-15.31,6.42"/>
      <path class="cls-12" d="M289.64,185.43c-4.61-2.96-9.82-5.16-15.31-6.42"/>
      <path class="cls-12" d="M311.53,216.21c-1.26-5.49-3.46-10.7-6.42-15.31"/>
      <path class="cls-12" d="M221.59,200.9c-2.96,4.61-5.16,9.82-6.42,15.31"/>
      <path class="cls-12" d="M287.77,230.34c.19-1.01.25-2.08.25-3.16,0-13.69-10.98-24.67-24.67-24.67s-24.67,10.98-24.67,24.67c0,1.07.06,2.15.25,3.16"/>
      <polyline class="cls-12" points="252.38 179.01 252.38 164.08 274.33 164.08 274.33 179.01"/>
      <polyline class="cls-12" points="289.64 185.43 300.23 174.78 315.76 190.31 305.11 200.9"/>
      <polyline class="cls-12" points="311.5 216.2 326.46 216.2 326.46 230.34"/>
      <polyline class="cls-12" points="200.25 230.34 200.25 216.2 215.2 216.2"/>
      <polyline class="cls-12" points="221.59 200.9 210.95 190.31 226.48 174.78 237.07 185.43"/>
    </g>
    <path class="cls-12" d="M190.78,110.44h145.14v118.9c0,.55-.45,1-1,1h-143.14c-.55,0-1-.45-1-1v-118.9h0Z"/>
    <line class="cls-12" x1="190.78" y1="135.68" x2="335.92" y2="135.68"/>
    <circle class="cls-15" cx="209.71" cy="123.06" r="3.16"/>
    <circle class="cls-15" cx="222.34" cy="123.06" r="3.16"/>
    <circle class="cls-15" cx="234.96" cy="123.06" r="3.16"/>
  </g>
  <g>
    <line class="cls-11" x1="240.26" y1="341.09" x2="240.26" y2="503.06"/>
    <polygon class="cls-8" points="230.69 500.26 240.26 516.84 249.83 500.26 230.69 500.26"/>
  </g>
  <g>
    <line class="cls-11" x1="290.14" y1="354.87" x2="290.14" y2="516.84"/>
    <polygon class="cls-8" points="280.57 357.67 290.14 341.09 299.72 357.67 280.57 357.67"/>
  </g>
  <g>
    <line class="cls-11" x1="427.95" y1="173.84" x2="738.77" y2="173.84"/>
    <polygon class="cls-8" points="735.97 183.42 752.55 173.84 735.97 164.27 735.97 183.42"/>
  </g>
  <rect class="cls-11" x="882.6" y="378.95" width="178.46" height="179.13" transform="translate(615.93 -549.96) rotate(45)"/>
  <g>
    <path class="cls-3" d="M891.42,462.83v-20.53h6.65c2.52,0,4.16.1,4.93.31,1.18.31,2.16.98,2.96,2.01.79,1.03,1.19,2.37,1.19,4,0,1.26-.23,2.32-.69,3.18-.46.86-1.04,1.53-1.74,2.02-.71.49-1.42.82-2.15.97-.99.2-2.42.29-4.3.29h-2.7v7.74h-4.14ZM895.56,445.78v5.83h2.27c1.63,0,2.73-.11,3.28-.32.55-.21.98-.55,1.29-1.01.31-.46.47-.99.47-1.6,0-.75-.22-1.36-.66-1.85-.44-.49-.99-.79-1.67-.91-.5-.09-1.49-.14-2.98-.14h-2Z"/>
    <path class="cls-3" d="M910.52,442.31h4.14v11.12c0,1.76.05,2.91.15,3.43.18.84.6,1.51,1.27,2.02.67.51,1.58.76,2.74.76s2.06-.24,2.66-.72c.6-.48.96-1.07,1.08-1.77s.18-1.86.18-3.49v-11.36h4.15v10.78c0,2.46-.11,4.21-.34,5.22-.22,1.02-.64,1.88-1.24,2.58-.6.7-1.41,1.26-2.42,1.67-1.01.42-2.32.62-3.95.62-1.96,0-3.45-.23-4.46-.68s-1.81-1.04-2.4-1.76c-.59-.72-.98-1.48-1.16-2.28-.27-1.18-.41-2.91-.41-5.21v-10.95Z"/>
    <path class="cls-3" d="M931.27,462.83v-20.53h8.72c2.19,0,3.79.18,4.78.55,1,.37,1.79,1.02,2.39,1.97.6.94.9,2.02.9,3.24,0,1.54-.45,2.81-1.36,3.82-.91,1-2.26,1.64-4.06,1.9.9.52,1.64,1.1,2.22,1.72.58.63,1.37,1.74,2.36,3.33l2.51,4h-4.96l-3-4.47c-1.06-1.6-1.79-2.6-2.18-3.02-.39-.42-.81-.7-1.25-.85-.44-.15-1.13-.23-2.09-.23h-.84v8.57h-4.14ZM935.42,450.99h3.07c1.99,0,3.23-.08,3.72-.25s.88-.46,1.16-.87c.28-.41.42-.92.42-1.54,0-.69-.18-1.25-.55-1.67s-.89-.69-1.56-.81c-.34-.05-1.34-.07-3.02-.07h-3.24v5.21Z"/>
    <path class="cls-3" d="M965.1,455.29l4.02,1.27c-.62,2.24-1.64,3.9-3.07,4.99-1.43,1.09-3.25,1.63-5.45,1.63-2.73,0-4.97-.93-6.72-2.79-1.76-1.86-2.63-4.41-2.63-7.64,0-3.42.88-6.07,2.65-7.96,1.76-1.89,4.08-2.83,6.96-2.83,2.51,0,4.55.74,6.12,2.23.93.88,1.63,2.14,2.1,3.78l-4.1.98c-.24-1.06-.75-1.9-1.52-2.52s-1.71-.92-2.81-.92c-1.52,0-2.76.55-3.7,1.64-.95,1.09-1.42,2.86-1.42,5.31,0,2.6.47,4.44,1.4,5.55s2.15,1.65,3.64,1.65c1.1,0,2.05-.35,2.84-1.05.79-.7,1.36-1.8,1.71-3.3Z"/>
    <path class="cls-3" d="M972.69,462.83v-20.53h4.14v8.08h8.12v-8.08h4.15v20.53h-4.15v-8.98h-8.12v8.98h-4.14Z"/>
    <path class="cls-3" d="M1011.9,462.83h-4.51l-1.79-4.66h-8.21l-1.69,4.66h-4.4l8-20.53h4.38l8.22,20.53ZM1004.27,454.71l-2.83-7.62-2.77,7.62h5.6Z"/>
    <path class="cls-3" d="M1013.05,456.16l4.03-.39c.24,1.35.74,2.35,1.48,2.98s1.74.95,3,.95c1.33,0,2.34-.28,3.02-.85.68-.56,1.01-1.22,1.01-1.98,0-.49-.14-.9-.43-1.24s-.78-.64-1.49-.89c-.49-.17-1.59-.47-3.32-.9-2.22-.55-3.78-1.23-4.68-2.03-1.26-1.13-1.89-2.51-1.89-4.13,0-1.05.3-2.02.89-2.93.59-.91,1.45-1.6,2.56-2.08,1.12-.48,2.46-.71,4.04-.71,2.58,0,4.52.56,5.82,1.69,1.3,1.13,1.99,2.64,2.05,4.52l-4.15.18c-.18-1.05-.56-1.81-1.14-2.28-.58-.46-1.46-.69-2.62-.69s-2.15.25-2.83.74c-.44.32-.66.74-.66,1.27,0,.49.21.9.62,1.25.52.44,1.79.9,3.81,1.37,2.02.48,3.51.97,4.47,1.48s1.72,1.2,2.27,2.09c.55.88.82,1.97.82,3.27,0,1.18-.33,2.28-.98,3.3-.65,1.03-1.58,1.79-2.77,2.29-1.2.5-2.68.75-4.47.75-2.6,0-4.59-.6-5.98-1.8-1.39-1.2-2.22-2.95-2.49-5.24Z"/>
    <path class="cls-3" d="M1033.23,462.83v-20.53h15.22v3.47h-11.08v4.55h10.31v3.46h-10.31v5.59h11.47v3.46h-15.61Z"/>
    <path class="cls-3" d="M892.48,497.6l5.08-21.23h2.96l-5.14,21.23h-2.9Z"/>
    <path class="cls-3" d="M923.68,489.7l4.02,1.27c-.62,2.24-1.64,3.9-3.07,4.99-1.43,1.09-3.25,1.63-5.45,1.63-2.73,0-4.97-.93-6.72-2.79-1.76-1.86-2.63-4.41-2.63-7.64,0-3.42.88-6.07,2.65-7.96,1.76-1.89,4.08-2.83,6.96-2.83,2.51,0,4.55.74,6.12,2.23.93.88,1.63,2.14,2.1,3.78l-4.1.98c-.24-1.06-.75-1.9-1.52-2.52s-1.71-.92-2.81-.92c-1.52,0-2.76.55-3.7,1.64-.95,1.09-1.42,2.86-1.42,5.31,0,2.6.47,4.44,1.4,5.55s2.15,1.65,3.64,1.65c1.1,0,2.05-.35,2.84-1.05.79-.7,1.36-1.8,1.71-3.3Z"/>
    <path class="cls-3" d="M949.77,497.25h-4.51l-1.79-4.66h-8.21l-1.69,4.66h-4.4l8-20.53h4.38l8.22,20.53ZM942.14,489.13l-2.83-7.62-2.77,7.62h5.6Z"/>
    <path class="cls-3" d="M951.97,497.25v-20.53h6.65c2.52,0,4.16.1,4.93.31,1.18.31,2.16.98,2.96,2.01.79,1.03,1.19,2.37,1.19,4,0,1.26-.23,2.32-.69,3.18-.46.86-1.04,1.53-1.74,2.02-.71.49-1.42.82-2.15.97-.99.2-2.42.29-4.3.29h-2.7v7.74h-4.14ZM956.11,480.19v5.83h2.27c1.63,0,2.73-.11,3.28-.32.55-.21.98-.55,1.29-1.01.31-.46.47-.99.47-1.6,0-.75-.22-1.36-.66-1.85-.44-.49-.99-.79-1.67-.91-.5-.09-1.49-.14-2.98-.14h-2Z"/>
    <path class="cls-3" d="M975.72,497.25v-17.06h-6.09v-3.47h16.31v3.47h-6.08v17.06h-4.14Z"/>
    <path class="cls-3" d="M988.59,476.72h4.14v11.12c0,1.76.05,2.91.15,3.43.18.84.6,1.51,1.27,2.02.67.51,1.58.76,2.74.76s2.06-.24,2.66-.72c.6-.48.96-1.07,1.08-1.77s.18-1.86.18-3.49v-11.36h4.15v10.78c0,2.46-.11,4.21-.34,5.22-.22,1.02-.64,1.88-1.24,2.58-.6.7-1.41,1.26-2.42,1.67-1.01.42-2.32.62-3.95.62-1.96,0-3.45-.23-4.46-.68s-1.81-1.04-2.4-1.76c-.59-.72-.98-1.48-1.16-2.28-.27-1.18-.41-2.91-.41-5.21v-10.95Z"/>
    <path class="cls-3" d="M1009.34,497.25v-20.53h8.72c2.19,0,3.79.18,4.78.55,1,.37,1.79,1.02,2.39,1.97.6.94.9,2.02.9,3.24,0,1.54-.45,2.81-1.36,3.82-.91,1-2.26,1.64-4.06,1.9.9.52,1.64,1.1,2.22,1.72.58.63,1.37,1.74,2.36,3.33l2.51,4h-4.96l-3-4.47c-1.06-1.6-1.79-2.6-2.18-3.02-.39-.42-.81-.7-1.25-.85-.44-.15-1.13-.23-2.09-.23h-.84v8.57h-4.14ZM1013.49,485.4h3.07c1.99,0,3.23-.08,3.72-.25s.88-.46,1.16-.87c.28-.41.42-.92.42-1.54,0-.69-.18-1.25-.55-1.67s-.89-.69-1.56-.81c-.34-.05-1.34-.07-3.02-.07h-3.24v5.21Z"/>
    <path class="cls-3" d="M1030.04,497.25v-20.53h15.22v3.47h-11.08v4.55h10.31v3.46h-10.31v5.59h11.47v3.46h-15.61Z"/>
  </g>
  <text class="cls-10" transform="translate(497.71 153.14)"><tspan x="0" y="0">Sales</tspan><tspan class="cls-24" x="66.29" y="0"> </tspan><tspan x="72.2" y="0">Amount</tspan></text>
  <rect class="cls-14" x="1364.13" y="412.67" width="443.57" height="108.18" rx="27.6" ry="27.6"/>
  <text class="cls-1" transform="translate(1395.46 474.86)"><tspan x="0" y="0">ADD </tspan><tspan class="cls-22" x="77.04" y="0">T</tspan><tspan x="95.72" y="0">O SALES</tspan><tspan class="cls-26" x="234.08" y="0"> </tspan><tspan class="cls-17" x="241.66" y="0">AMOUNT</tspan></text>
  <rect class="cls-14" x="1363.13" y="682" width="443.57" height="168" rx="27.6" ry="27.6"/>
  <g>
    <path class="cls-3" d="M1439.09,734.5h-4.96l-1.97-5.12h-9.02l-1.86,5.12h-4.83l8.79-22.56h4.82l9.03,22.56ZM1430.7,725.58l-3.11-8.37-3.05,8.37h6.16Z"/>
    <path class="cls-3" d="M1441.49,711.94h8.33c1.88,0,3.31.14,4.29.43,1.32.39,2.46,1.08,3.4,2.08.94,1,1.66,2.21,2.16,3.66.49,1.44.74,3.22.74,5.33,0,1.86-.23,3.46-.69,4.8-.56,1.64-1.37,2.97-2.42,3.99-.79.77-1.86,1.37-3.2,1.8-1.01.32-2.35.48-4.03.48h-8.57v-22.56ZM1446.04,715.76v14.94h3.4c1.27,0,2.19-.07,2.75-.22.74-.18,1.35-.5,1.84-.94.49-.44.88-1.17,1.19-2.18s.46-2.39.46-4.13-.15-3.08-.46-4.02c-.31-.93-.74-1.66-1.29-2.18-.55-.52-1.26-.88-2.11-1.06-.64-.14-1.88-.21-3.74-.21h-2.05Z"/>
    <path class="cls-3" d="M1464.25,711.94h8.33c1.88,0,3.31.14,4.29.43,1.32.39,2.46,1.08,3.4,2.08.94,1,1.66,2.21,2.16,3.66.49,1.44.74,3.22.74,5.33,0,1.86-.23,3.46-.69,4.8-.56,1.64-1.37,2.97-2.42,3.99-.79.77-1.86,1.37-3.2,1.8-1.01.32-2.35.48-4.03.48h-8.57v-22.56ZM1468.8,715.76v14.94h3.4c1.27,0,2.19-.07,2.75-.22.74-.18,1.35-.5,1.84-.94.49-.44.88-1.17,1.19-2.18s.46-2.39.46-4.13-.15-3.08-.46-4.02c-.31-.93-.74-1.66-1.29-2.18-.55-.52-1.26-.88-2.11-1.06-.64-.14-1.88-.21-3.74-.21h-2.05Z"/>
    <path class="cls-3" d="M1500.86,734.5v-18.74h-6.7v-3.82h17.93v3.82h-6.68v18.74h-4.55Z"/>
    <path class="cls-3" d="M1513.54,723.36c0-2.3.34-4.23,1.03-5.79.51-1.15,1.21-2.18,2.1-3.09.89-.91,1.86-1.59,2.92-2.03,1.41-.59,3.03-.89,4.86-.89,3.32,0,5.98,1.03,7.98,3.09,2,2.06,2.99,4.93,2.99,8.6s-.99,6.49-2.97,8.55c-1.98,2.06-4.63,3.09-7.94,3.09s-6.02-1.02-8-3.07-2.97-4.87-2.97-8.46ZM1518.24,723.21c0,2.55.59,4.49,1.77,5.81s2.68,1.98,4.49,1.98,3.31-.65,4.47-1.96c1.16-1.31,1.75-3.27,1.75-5.89s-.57-4.51-1.7-5.79c-1.13-1.27-2.64-1.91-4.52-1.91s-3.39.64-4.54,1.93c-1.15,1.29-1.72,3.23-1.72,5.83Z"/>
    <path class="cls-3" d="M1426.56,761.18c0,1.26-.44,2.34-1.33,3.22-.89.89-1.96,1.33-3.21,1.33s-2.34-.45-3.22-1.34-1.33-1.96-1.33-3.22.44-2.32,1.33-3.21,1.96-1.33,3.22-1.33,2.32.44,3.21,1.32c.89.88,1.33,1.95,1.33,3.22Z"/>
    <path class="cls-3" d="M1436.76,772.32v-22.56h9.59c2.41,0,4.16.2,5.25.61s1.97,1.13,2.62,2.16.99,2.22.99,3.55c0,1.69-.5,3.09-1.49,4.19-1,1.1-2.48,1.8-4.46,2.08.99.57,1.8,1.21,2.44,1.89.64.69,1.51,1.91,2.59,3.66l2.75,4.4h-5.45l-3.29-4.91c-1.17-1.75-1.97-2.86-2.4-3.32-.43-.46-.89-.77-1.37-.94-.48-.17-1.25-.25-2.29-.25h-.92v9.42h-4.55ZM1441.31,759.3h3.37c2.18,0,3.55-.09,4.09-.28.54-.18.97-.5,1.28-.95.31-.45.46-1.02.46-1.69,0-.76-.2-1.37-.61-1.84s-.98-.76-1.72-.89c-.37-.05-1.48-.08-3.32-.08h-3.56v5.72Z"/>
    <path class="cls-3" d="M1459.5,772.32v-22.56h16.73v3.82h-12.17v5h11.33v3.8h-11.33v6.14h12.6v3.8h-17.16Z"/>
    <path class="cls-3" d="M1480.56,772.32v-22.56h15.47v3.82h-10.91v5.34h9.42v3.82h-9.42v9.59h-4.55Z"/>
    <path class="cls-3" d="M1499.75,749.76h4.55v12.22c0,1.94.06,3.2.17,3.77.19.92.66,1.67,1.39,2.22.73.56,1.74.84,3.01.84s2.27-.26,2.92-.79c.66-.53,1.05-1.18,1.18-1.95.13-.77.2-2.05.2-3.83v-12.48h4.56v11.85c0,2.71-.12,4.62-.37,5.74-.25,1.12-.7,2.06-1.36,2.83-.66.77-1.55,1.38-2.66,1.84-1.11.46-2.55.68-4.34.68-2.15,0-3.79-.25-4.9-.75-1.11-.5-1.99-1.14-2.64-1.94-.65-.79-1.07-1.63-1.28-2.5-.3-1.29-.45-3.2-.45-5.72v-12.04Z"/>
    <path class="cls-3" d="M1522.58,772.32v-22.56h4.43l9.23,15.07v-15.07h4.23v22.56h-4.57l-9.1-14.71v14.71h-4.23Z"/>
    <path class="cls-3" d="M1545.28,749.76h8.33c1.88,0,3.31.14,4.29.43,1.32.39,2.46,1.08,3.4,2.08.94,1,1.66,2.21,2.16,3.66.49,1.44.74,3.22.74,5.33,0,1.86-.23,3.46-.69,4.8-.56,1.64-1.37,2.97-2.42,3.99-.79.77-1.86,1.37-3.2,1.8-1.01.32-2.35.48-4.03.48h-8.57v-22.56ZM1549.84,753.58v14.94h3.4c1.27,0,2.19-.07,2.75-.22.74-.18,1.35-.5,1.84-.94.49-.44.88-1.17,1.19-2.18s.46-2.39.46-4.13-.15-3.08-.46-4.02c-.31-.93-.74-1.66-1.29-2.18-.55-.52-1.26-.88-2.11-1.06-.64-.14-1.88-.21-3.74-.21h-2.05Z"/>
    <path class="cls-3" d="M1595.99,772.32h-4.96l-1.97-5.12h-9.02l-1.86,5.12h-4.83l8.79-22.56h4.82l9.03,22.56ZM1587.61,763.4l-3.11-8.37-3.05,8.37h6.16Z"/>
    <path class="cls-3" d="M1598.35,772.32v-22.56h6.82l4.09,15.39,4.05-15.39h6.83v22.56h-4.23v-17.76l-4.48,17.76h-4.39l-4.46-17.76v17.76h-4.23Z"/>
    <path class="cls-3" d="M1623.74,761.18c0-2.3.34-4.23,1.03-5.79.51-1.15,1.21-2.18,2.1-3.09.89-.91,1.86-1.59,2.92-2.03,1.41-.59,3.03-.89,4.86-.89,3.32,0,5.98,1.03,7.98,3.09,2,2.06,2.99,4.93,2.99,8.6s-.99,6.49-2.97,8.55c-1.98,2.06-4.63,3.09-7.94,3.09s-6.02-1.02-8-3.07-2.97-4.87-2.97-8.46ZM1628.43,761.03c0,2.55.59,4.49,1.77,5.81s2.68,1.98,4.49,1.98,3.31-.65,4.47-1.96c1.16-1.31,1.75-3.27,1.75-5.89s-.57-4.51-1.7-5.79c-1.13-1.27-2.64-1.91-4.52-1.91s-3.39.64-4.54,1.93c-1.15,1.29-1.72,3.23-1.72,5.83Z"/>
    <path class="cls-3" d="M1649.15,749.76h4.55v12.22c0,1.94.06,3.2.17,3.77.19.92.66,1.67,1.39,2.22.73.56,1.74.84,3.01.84s2.27-.26,2.92-.79c.66-.53,1.05-1.18,1.18-1.95.13-.77.2-2.05.2-3.83v-12.48h4.56v11.85c0,2.71-.12,4.62-.37,5.74-.25,1.12-.7,2.06-1.36,2.83-.66.77-1.55,1.38-2.66,1.84-1.11.46-2.55.68-4.34.68-2.15,0-3.79-.25-4.9-.75-1.11-.5-1.99-1.14-2.64-1.94-.65-.79-1.07-1.63-1.28-2.5-.3-1.29-.45-3.2-.45-5.72v-12.04Z"/>
    <path class="cls-3" d="M1671.99,772.32v-22.56h4.43l9.23,15.07v-15.07h4.23v22.56h-4.57l-9.1-14.71v14.71h-4.23Z"/>
    <path class="cls-3" d="M1699.78,772.32v-18.74h-6.7v-3.82h17.93v3.82h-6.68v18.74h-4.55Z"/>
    <path class="cls-3" d="M1426.56,799c0,1.26-.44,2.34-1.33,3.22-.89.89-1.96,1.33-3.21,1.33s-2.34-.45-3.22-1.34-1.33-1.96-1.33-3.22.44-2.32,1.33-3.21,1.96-1.33,3.22-1.33,2.32.44,3.21,1.32c.89.88,1.33,1.95,1.33,3.22Z"/>
    <path class="cls-3" d="M1436.76,810.15v-22.56h9.59c2.41,0,4.16.2,5.25.61s1.97,1.13,2.62,2.16.99,2.22.99,3.55c0,1.69-.5,3.09-1.49,4.19-1,1.1-2.48,1.8-4.46,2.08.99.57,1.8,1.21,2.44,1.89.64.69,1.51,1.91,2.59,3.66l2.75,4.4h-5.45l-3.29-4.91c-1.17-1.75-1.97-2.86-2.4-3.32-.43-.46-.89-.77-1.37-.94-.48-.17-1.25-.25-2.29-.25h-.92v9.42h-4.55ZM1441.31,797.13h3.37c2.18,0,3.55-.09,4.09-.28.54-.18.97-.5,1.28-.95.31-.45.46-1.02.46-1.69,0-.76-.2-1.37-.61-1.84s-.98-.76-1.72-.89c-.37-.05-1.48-.08-3.32-.08h-3.56v5.72Z"/>
    <path class="cls-3" d="M1459.5,810.15v-22.56h16.73v3.82h-12.17v5h11.33v3.8h-11.33v6.14h12.6v3.8h-17.16Z"/>
    <path class="cls-3" d="M1480.56,810.15v-22.56h15.47v3.82h-10.91v5.34h9.42v3.82h-9.42v9.59h-4.55Z"/>
    <path class="cls-3" d="M1499.75,787.58h4.55v12.22c0,1.94.06,3.2.17,3.77.19.92.66,1.67,1.39,2.22.73.56,1.74.84,3.01.84s2.27-.26,2.92-.79c.66-.53,1.05-1.18,1.18-1.95.13-.77.2-2.05.2-3.83v-12.48h4.56v11.85c0,2.71-.12,4.62-.37,5.74-.25,1.12-.7,2.06-1.36,2.83-.66.77-1.55,1.38-2.66,1.84-1.11.46-2.55.68-4.34.68-2.15,0-3.79-.25-4.9-.75-1.11-.5-1.99-1.14-2.64-1.94-.65-.79-1.07-1.63-1.28-2.5-.3-1.29-.45-3.2-.45-5.72v-12.04Z"/>
    <path class="cls-3" d="M1522.58,810.15v-22.56h4.43l9.23,15.07v-15.07h4.23v22.56h-4.57l-9.1-14.71v14.71h-4.23Z"/>
    <path class="cls-3" d="M1545.28,787.58h8.33c1.88,0,3.31.14,4.29.43,1.32.39,2.46,1.08,3.4,2.08.94,1,1.66,2.21,2.16,3.66.49,1.44.74,3.22.74,5.33,0,1.86-.23,3.46-.69,4.8-.56,1.64-1.37,2.97-2.42,3.99-.79.77-1.86,1.37-3.2,1.8-1.01.32-2.35.48-4.03.48h-8.57v-22.56ZM1549.84,791.4v14.94h3.4c1.27,0,2.19-.07,2.75-.22.74-.18,1.35-.5,1.84-.94.49-.44.88-1.17,1.19-2.18s.46-2.39.46-4.13-.15-3.08-.46-4.02c-.31-.93-.74-1.66-1.29-2.18-.55-.52-1.26-.88-2.11-1.06-.64-.14-1.88-.21-3.74-.21h-2.05Z"/>
    <path class="cls-3" d="M1576.85,810.15v-22.56h15.47v3.82h-10.91v5.34h9.42v3.82h-9.42v9.59h-4.55Z"/>
    <path class="cls-3" d="M1596.07,810.15v-22.56h16.73v3.82h-12.17v5h11.33v3.8h-11.33v6.14h12.6v3.8h-17.16Z"/>
    <path class="cls-3" d="M1617.09,810.15v-22.56h16.73v3.82h-12.17v5h11.33v3.8h-11.33v6.14h12.6v3.8h-17.16Z"/>
    <path class="cls-3" d="M1661.31,801.85l4.42,1.4c-.68,2.46-1.8,4.29-3.38,5.49-1.58,1.2-3.57,1.79-5.99,1.79-3,0-5.46-1.02-7.39-3.07s-2.89-4.84-2.89-8.39c0-3.76.97-6.67,2.91-8.75,1.94-2.08,4.49-3.12,7.65-3.12,2.76,0,5,.82,6.73,2.45,1.03.96,1.79,2.35,2.31,4.16l-4.51,1.08c-.27-1.17-.82-2.09-1.67-2.77-.85-.68-1.88-1.02-3.09-1.02-1.67,0-3.03.6-4.07,1.8-1.04,1.2-1.56,3.14-1.56,5.83,0,2.85.51,4.88,1.54,6.09,1.03,1.21,2.36,1.82,4,1.82,1.21,0,2.25-.38,3.12-1.15s1.5-1.98,1.88-3.63Z"/>
    <path class="cls-3" d="M1668.71,799c0-2.3.34-4.23,1.03-5.79.51-1.15,1.21-2.18,2.1-3.09.89-.91,1.86-1.59,2.92-2.03,1.41-.59,3.03-.89,4.86-.89,3.32,0,5.98,1.03,7.98,3.09,2,2.06,2.99,4.93,2.99,8.6s-.99,6.49-2.97,8.55c-1.98,2.06-4.63,3.09-7.94,3.09s-6.02-1.02-8-3.07-2.97-4.87-2.97-8.46ZM1673.4,798.85c0,2.55.59,4.49,1.77,5.81s2.68,1.98,4.49,1.98,3.31-.65,4.47-1.96c1.16-1.31,1.75-3.27,1.75-5.89s-.57-4.51-1.7-5.79c-1.13-1.27-2.64-1.91-4.52-1.91s-3.39.64-4.54,1.93c-1.15,1.29-1.72,3.23-1.72,5.83Z"/>
    <path class="cls-3" d="M1694.12,787.58h4.55v12.22c0,1.94.06,3.2.17,3.77.19.92.66,1.67,1.39,2.22.73.56,1.74.84,3.01.84s2.27-.26,2.92-.79c.66-.53,1.05-1.18,1.18-1.95.13-.77.2-2.05.2-3.83v-12.48h4.56v11.85c0,2.71-.12,4.62-.37,5.74-.25,1.12-.7,2.06-1.36,2.83-.66.77-1.55,1.38-2.66,1.84-1.11.46-2.55.68-4.34.68-2.15,0-3.79-.25-4.9-.75-1.11-.5-1.99-1.14-2.64-1.94-.65-.79-1.07-1.63-1.28-2.5-.3-1.29-.45-3.2-.45-5.72v-12.04Z"/>
    <path class="cls-3" d="M1716.95,810.15v-22.56h4.43l9.23,15.07v-15.07h4.23v22.56h-4.57l-9.1-14.71v14.71h-4.23Z"/>
    <path class="cls-3" d="M1744.75,810.15v-18.74h-6.7v-3.82h17.93v3.82h-6.68v18.74h-4.55Z"/>
  </g>
  <g>
    <line class="cls-11" x1="1115.5" y1="467.38" x2="1322.15" y2="467.38"/>
    <polygon class="cls-8" points="1319.34 476.96 1335.92 467.38 1319.34 457.81 1319.34 476.96"/>
  </g>
  <rect class="cls-11" x="896.8" y="700.53" width="149.31" height="148.92" transform="translate(832.53 -459.93) rotate(45)"/>
  <text class="cls-2" transform="translate(896.56 784.56)"><tspan x="0" y="0">REFUND ?</tspan></text>
  <g>
    <line class="cls-11" x1="972.59" y1="606.81" x2="972.59" y2="648.95"/>
    <polygon class="cls-8" points="963.02 646.15 972.59 662.73 982.17 646.15 963.02 646.15"/>
  </g>
  <text class="cls-10" transform="translate(1168.83 448.3)"><tspan x="0" y="0">Captured</tspan></text>
  <g>
    <line class="cls-11" x1="1094.5" y1="773.5" x2="1321.15" y2="773.13"/>
    <polygon class="cls-8" points="1318.36 782.71 1334.92 773.11 1318.33 763.56 1318.36 782.71"/>
  </g>
  <text class="cls-10" transform="translate(1149.87 754.02)"><tspan x="0" y="0">Refunded</tspan></text>
  <rect class="cls-13" x="1434.37" y="119.09" width="373.63" height="108.18" rx="27.6" ry="27.6"/>
  <text class="cls-5" transform="translate(1461.18 182.07)"><tspan x="0" y="0">Declined </tspan><tspan class="cls-23" x="140.12" y="0">T</tspan><tspan x="157.64" y="0">ransaction</tspan></text>
  <g>
    <path class="cls-3" d="M872.22,173.13h-4.51l-1.79-4.66h-8.21l-1.69,4.66h-4.4l8-20.53h4.38l8.22,20.53ZM864.59,165l-2.83-7.62-2.77,7.62h5.6Z"/>
    <path class="cls-3" d="M874.39,152.6h4.14v11.12c0,1.76.05,2.91.15,3.43.18.84.6,1.51,1.27,2.02.67.51,1.58.76,2.74.76s2.06-.24,2.66-.72c.6-.48.96-1.07,1.08-1.77s.18-1.86.18-3.49v-11.36h4.15v10.78c0,2.46-.11,4.21-.34,5.22-.22,1.02-.64,1.88-1.24,2.58-.6.7-1.41,1.26-2.42,1.67-1.01.42-2.32.62-3.95.62-1.96,0-3.45-.23-4.46-.68s-1.81-1.04-2.4-1.76c-.59-.72-.98-1.48-1.16-2.28-.27-1.18-.41-2.91-.41-5.21v-10.95Z"/>
    <path class="cls-3" d="M899.75,173.13v-17.06h-6.09v-3.47h16.31v3.47h-6.08v17.06h-4.14Z"/>
    <path class="cls-3" d="M912.66,173.13v-20.53h4.14v8.08h8.12v-8.08h4.15v20.53h-4.15v-8.98h-8.12v8.98h-4.14Z"/>
    <path class="cls-3" d="M932.52,162.99c0-2.09.31-3.85.94-5.27.47-1.04,1.1-1.98,1.91-2.81.81-.83,1.69-1.45,2.65-1.85,1.28-.54,2.75-.81,4.42-.81,3.02,0,5.45.94,7.26,2.81,1.82,1.88,2.72,4.49,2.72,7.83s-.9,5.91-2.7,7.78c-1.8,1.87-4.21,2.81-7.23,2.81s-5.48-.93-7.28-2.79-2.7-4.43-2.7-7.7ZM936.79,162.85c0,2.32.54,4.09,1.61,5.29,1.07,1.2,2.44,1.8,4.09,1.8s3.01-.6,4.07-1.79,1.59-2.98,1.59-5.36-.52-4.11-1.55-5.26c-1.03-1.16-2.4-1.74-4.11-1.74s-3.09.59-4.13,1.76c-1.05,1.17-1.57,2.94-1.57,5.3Z"/>
    <path class="cls-3" d="M955.68,173.13v-20.53h8.72c2.19,0,3.79.18,4.78.55,1,.37,1.79,1.02,2.39,1.97.6.94.9,2.02.9,3.24,0,1.54-.45,2.81-1.36,3.82-.91,1-2.26,1.64-4.06,1.9.9.52,1.64,1.1,2.22,1.72.58.63,1.37,1.74,2.36,3.33l2.51,4h-4.96l-3-4.47c-1.06-1.6-1.79-2.6-2.18-3.02-.39-.42-.81-.7-1.25-.85-.44-.15-1.13-.23-2.09-.23h-.84v8.57h-4.14ZM959.82,161.28h3.07c1.99,0,3.23-.08,3.72-.25s.88-.46,1.16-.87c.28-.41.42-.92.42-1.54,0-.69-.18-1.25-.55-1.67s-.89-.69-1.56-.81c-.34-.05-1.34-.07-3.02-.07h-3.24v5.21Z"/>
    <path class="cls-3" d="M976.25,173.13v-20.53h4.14v20.53h-4.14Z"/>
    <path class="cls-3" d="M983.29,166.45l4.03-.39c.24,1.35.74,2.35,1.48,2.98s1.74.95,3,.95c1.33,0,2.34-.28,3.02-.85.68-.56,1.01-1.22,1.01-1.98,0-.49-.14-.9-.43-1.24s-.78-.64-1.49-.89c-.49-.17-1.59-.47-3.32-.9-2.22-.55-3.78-1.23-4.68-2.03-1.26-1.13-1.89-2.51-1.89-4.13,0-1.05.3-2.02.89-2.93.59-.91,1.45-1.6,2.56-2.08,1.12-.48,2.46-.71,4.04-.71,2.58,0,4.52.56,5.82,1.69,1.3,1.13,1.99,2.64,2.05,4.52l-4.15.18c-.18-1.05-.56-1.81-1.14-2.28-.58-.46-1.46-.69-2.62-.69s-2.15.25-2.83.74c-.44.32-.66.74-.66,1.27,0,.49.21.9.62,1.25.52.44,1.79.9,3.81,1.37,2.02.48,3.51.97,4.47,1.48s1.72,1.2,2.27,2.09c.55.88.82,1.97.82,3.27,0,1.18-.33,2.28-.98,3.3-.65,1.03-1.58,1.79-2.77,2.29-1.2.5-2.68.75-4.47.75-2.6,0-4.59-.6-5.98-1.8-1.39-1.2-2.22-2.95-2.49-5.24Z"/>
    <path class="cls-3" d="M1021.98,173.13h-4.51l-1.79-4.66h-8.21l-1.69,4.66h-4.4l8-20.53h4.38l8.22,20.53ZM1014.35,165l-2.83-7.62-2.77,7.62h5.6Z"/>
    <path class="cls-3" d="M1026.68,173.13v-17.06h-6.09v-3.47h16.31v3.47h-6.08v17.06h-4.14Z"/>
    <path class="cls-3" d="M1039.45,173.13v-20.53h4.14v20.53h-4.14Z"/>
    <path class="cls-3" d="M1046.7,162.99c0-2.09.31-3.85.94-5.27.47-1.04,1.1-1.98,1.91-2.81.81-.83,1.69-1.45,2.65-1.85,1.28-.54,2.75-.81,4.42-.81,3.02,0,5.45.94,7.26,2.81,1.82,1.88,2.72,4.49,2.72,7.83s-.9,5.91-2.7,7.78c-1.8,1.87-4.21,2.81-7.23,2.81s-5.48-.93-7.28-2.79-2.7-4.43-2.7-7.7ZM1050.97,162.85c0,2.32.54,4.09,1.61,5.29,1.07,1.2,2.44,1.8,4.09,1.8s3.01-.6,4.07-1.79,1.59-2.98,1.59-5.36-.52-4.11-1.55-5.26c-1.03-1.16-2.4-1.74-4.11-1.74s-3.09.59-4.13,1.76c-1.05,1.17-1.57,2.94-1.57,5.3Z"/>
    <path class="cls-3" d="M1069.89,173.13v-20.53h4.03l8.4,13.71v-13.71h3.85v20.53h-4.16l-8.28-13.39v13.39h-3.85Z"/>
    <path class="cls-3" d="M885.55,207.89l5.08-21.23h2.96l-5.14,21.23h-2.9Z"/>
    <path class="cls-3" d="M895.65,207.54v-20.53h6.65c2.52,0,4.16.1,4.93.31,1.18.31,2.16.98,2.96,2.01.79,1.03,1.19,2.37,1.19,4,0,1.26-.23,2.32-.69,3.18-.46.86-1.04,1.53-1.74,2.02-.71.49-1.42.82-2.15.97-.99.2-2.42.29-4.3.29h-2.7v7.74h-4.14ZM899.79,190.48v5.83h2.27c1.63,0,2.73-.11,3.28-.32.55-.21.98-.55,1.29-1.01.31-.46.47-.99.47-1.6,0-.75-.22-1.36-.66-1.85-.44-.49-.99-.79-1.67-.91-.5-.09-1.49-.14-2.98-.14h-2Z"/>
    <path class="cls-3" d="M914.75,187.01h4.14v11.12c0,1.76.05,2.91.15,3.43.18.84.6,1.51,1.27,2.02.67.51,1.58.76,2.74.76s2.06-.24,2.66-.72c.6-.48.96-1.07,1.08-1.77s.18-1.86.18-3.49v-11.36h4.15v10.78c0,2.46-.11,4.21-.34,5.22-.22,1.02-.64,1.88-1.24,2.58-.6.7-1.41,1.26-2.42,1.67-1.01.42-2.32.62-3.95.62-1.96,0-3.45-.23-4.46-.68s-1.81-1.04-2.4-1.76c-.59-.72-.98-1.48-1.16-2.28-.27-1.18-.41-2.91-.41-5.21v-10.95Z"/>
    <path class="cls-3" d="M935.5,207.54v-20.53h8.72c2.19,0,3.79.18,4.78.55,1,.37,1.79,1.02,2.39,1.97.6.94.9,2.02.9,3.24,0,1.54-.45,2.81-1.36,3.82-.91,1-2.26,1.64-4.06,1.9.9.52,1.64,1.1,2.22,1.72.58.63,1.37,1.74,2.36,3.33l2.51,4h-4.96l-3-4.47c-1.06-1.6-1.79-2.6-2.18-3.02-.39-.42-.81-.7-1.25-.85-.44-.15-1.13-.23-2.09-.23h-.84v8.57h-4.14ZM939.64,195.69h3.07c1.99,0,3.23-.08,3.72-.25s.88-.46,1.16-.87c.28-.41.42-.92.42-1.54,0-.69-.18-1.25-.55-1.67s-.89-.69-1.56-.81c-.34-.05-1.34-.07-3.02-.07h-3.24v5.21Z"/>
    <path class="cls-3" d="M969.33,199.99l4.02,1.27c-.62,2.24-1.64,3.9-3.07,4.99-1.43,1.09-3.25,1.63-5.45,1.63-2.73,0-4.97-.93-6.72-2.79-1.76-1.86-2.63-4.41-2.63-7.64,0-3.42.88-6.07,2.65-7.96,1.76-1.89,4.08-2.83,6.96-2.83,2.51,0,4.55.74,6.12,2.23.93.88,1.63,2.14,2.1,3.78l-4.1.98c-.24-1.06-.75-1.9-1.52-2.52s-1.71-.92-2.81-.92c-1.52,0-2.76.55-3.7,1.64-.95,1.09-1.42,2.86-1.42,5.31,0,2.6.47,4.44,1.4,5.55s2.15,1.65,3.64,1.65c1.1,0,2.05-.35,2.84-1.05.79-.7,1.36-1.8,1.71-3.3Z"/>
    <path class="cls-3" d="M976.92,207.54v-20.53h4.14v8.08h8.12v-8.08h4.15v20.53h-4.15v-8.98h-8.12v8.98h-4.14Z"/>
    <path class="cls-3" d="M1016.13,207.54h-4.51l-1.79-4.66h-8.21l-1.69,4.66h-4.4l8-20.53h4.38l8.22,20.53ZM1008.5,199.42l-2.83-7.62-2.77,7.62h5.6Z"/>
    <path class="cls-3" d="M1017.28,200.86l4.03-.39c.24,1.35.74,2.35,1.48,2.98s1.74.95,3,.95c1.33,0,2.34-.28,3.02-.85.68-.56,1.01-1.22,1.01-1.98,0-.49-.14-.9-.43-1.24s-.78-.64-1.49-.89c-.49-.17-1.59-.47-3.32-.9-2.22-.55-3.78-1.23-4.68-2.03-1.26-1.13-1.89-2.51-1.89-4.13,0-1.05.3-2.02.89-2.93.59-.91,1.45-1.6,2.56-2.08,1.12-.48,2.46-.71,4.04-.71,2.58,0,4.52.56,5.82,1.69,1.3,1.13,1.99,2.64,2.05,4.52l-4.15.18c-.18-1.05-.56-1.81-1.14-2.28-.58-.46-1.46-.69-2.62-.69s-2.15.25-2.83.74c-.44.32-.66.74-.66,1.27,0,.49.21.9.62,1.25.52.44,1.79.9,3.81,1.37,2.02.48,3.51.97,4.47,1.48s1.72,1.2,2.27,2.09c.55.88.82,1.97.82,3.27,0,1.18-.33,2.28-.98,3.3-.65,1.03-1.58,1.79-2.77,2.29-1.2.5-2.68.75-4.47.75-2.6,0-4.59-.6-5.98-1.8-1.39-1.2-2.22-2.95-2.49-5.24Z"/>
    <path class="cls-3" d="M1037.46,207.54v-20.53h15.22v3.47h-11.08v4.55h10.31v3.46h-10.31v5.59h11.47v3.46h-15.61Z"/>
  </g>
  <g>
    <line class="cls-11" x1="1187.5" y1="175.67" x2="1397.72" y2="175.67"/>
    <polygon class="cls-8" points="1394.92 185.25 1411.5 175.67 1394.92 166.1 1394.92 185.25"/>
  </g>
  <text class="cls-10" transform="translate(1204.96 153.59)"><tspan x="0" y="0">Not Successful</tspan></text>
  <line class="cls-11" x1="968.5" y1="83.5" x2="769.5" y2="173.5"/>
  <line class="cls-11" x1="1166.5" y1="174.5" x2="967.5" y2="84.5"/>
  <line class="cls-11" x1="968.66" y1="264.99" x2="1167.66" y2="174.99"/>
  <line class="cls-11" x1="770.66" y1="173.99" x2="969.66" y2="263.99"/>
  <g>
    <path class="cls-9" d="M325.85,431.1v-22.91h10.16c2.04,0,3.59.21,4.66.62,1.06.41,1.91,1.14,2.55,2.18.63,1.04.95,2.19.95,3.45,0,1.62-.53,2.99-1.58,4.11-1.05,1.11-2.68,1.82-4.88,2.12.8.38,1.41.77,1.83,1.14.88.81,1.72,1.83,2.52,3.05l3.98,6.23h-3.81l-3.03-4.77c-.89-1.38-1.62-2.43-2.19-3.16-.57-.73-1.09-1.24-1.54-1.53-.45-.29-.91-.5-1.38-.61-.34-.07-.91-.11-1.69-.11h-3.52v10.17h-3.03ZM328.88,418.3h6.52c1.38,0,2.47-.14,3.25-.43.78-.29,1.38-.75,1.78-1.38.41-.63.61-1.32.61-2.05,0-1.08-.39-1.97-1.18-2.67-.79-.7-2.03-1.05-3.73-1.05h-7.25v7.58Z"/>
    <path class="cls-9" d="M359.91,425.76l2.91.36c-.46,1.7-1.31,3.02-2.55,3.95-1.24.94-2.82,1.41-4.75,1.41-2.43,0-4.35-.75-5.77-2.24-1.42-1.5-2.13-3.59-2.13-6.29s.72-4.96,2.16-6.5c1.44-1.54,3.3-2.31,5.59-2.31s4.03.75,5.44,2.27c1.41,1.51,2.11,3.63,2.11,6.38,0,.17,0,.42-.02.75h-12.38c.1,1.82.62,3.22,1.55,4.19.93.97,2.08,1.45,3.47,1.45,1.03,0,1.91-.27,2.64-.81.73-.54,1.31-1.41,1.73-2.59ZM350.68,421.21h9.27c-.12-1.4-.48-2.44-1.06-3.14-.9-1.08-2.06-1.62-3.48-1.62-1.29,0-2.38.43-3.26,1.3-.88.86-1.37,2.02-1.46,3.47Z"/>
    <path class="cls-9" d="M377.18,425.02l2.77.36c-.3,1.91-1.08,3.4-2.32,4.48-1.25,1.08-2.77,1.62-4.59,1.62-2.27,0-4.1-.74-5.48-2.23-1.38-1.48-2.07-3.61-2.07-6.38,0-1.79.3-3.36.89-4.7s1.5-2.35,2.71-3.02c1.21-.67,2.53-1.01,3.96-1.01,1.8,0,3.28.46,4.42,1.37,1.15.91,1.88,2.21,2.2,3.88l-2.73.42c-.26-1.12-.72-1.95-1.38-2.52-.66-.56-1.46-.84-2.4-.84-1.42,0-2.57.51-3.45,1.52-.89,1.02-1.33,2.62-1.33,4.82s.43,3.85,1.28,4.86c.85,1.01,1.97,1.52,3.34,1.52,1.1,0,2.03-.34,2.77-1.02.74-.68,1.21-1.72,1.41-3.12Z"/>
    <path class="cls-9" d="M381.3,422.8c0-3.07.85-5.35,2.56-6.83,1.43-1.23,3.17-1.84,5.22-1.84,2.28,0,4.15.75,5.59,2.24,1.45,1.49,2.17,3.56,2.17,6.2,0,2.13-.32,3.81-.96,5.04-.64,1.22-1.57,2.17-2.8,2.85-1.22.68-2.56,1.02-4.01,1.02-2.32,0-4.2-.75-5.63-2.23-1.43-1.49-2.15-3.64-2.15-6.44ZM384.19,422.8c0,2.12.46,3.72,1.39,4.77.93,1.06,2.09,1.59,3.5,1.59s2.56-.53,3.48-1.59c.93-1.06,1.39-2.68,1.39-4.86,0-2.05-.47-3.61-1.4-4.66-.93-1.06-2.09-1.59-3.48-1.59s-2.57.53-3.5,1.58c-.93,1.05-1.39,2.64-1.39,4.77Z"/>
    <path class="cls-9" d="M400.14,431.1v-16.59h2.53v2.36c1.22-1.82,2.98-2.73,5.28-2.73,1,0,1.92.18,2.76.54.84.36,1.47.83,1.88,1.41.42.58.71,1.28.88,2.08.1.52.16,1.43.16,2.73v10.2h-2.81v-10.09c0-1.15-.11-2-.33-2.57-.22-.57-.61-1.02-1.16-1.36-.56-.34-1.21-.51-1.96-.51-1.2,0-2.23.38-3.1,1.14-.87.76-1.3,2.2-1.3,4.33v9.06h-2.81Z"/>
    <path class="cls-9" d="M428.77,425.02l2.77.36c-.3,1.91-1.08,3.4-2.32,4.48-1.25,1.08-2.77,1.62-4.59,1.62-2.27,0-4.1-.74-5.48-2.23-1.38-1.48-2.07-3.61-2.07-6.38,0-1.79.3-3.36.89-4.7s1.5-2.35,2.71-3.02c1.21-.67,2.53-1.01,3.96-1.01,1.8,0,3.28.46,4.42,1.37,1.15.91,1.88,2.21,2.2,3.88l-2.73.42c-.26-1.12-.72-1.95-1.38-2.52-.66-.56-1.46-.84-2.4-.84-1.42,0-2.57.51-3.45,1.52-.89,1.02-1.33,2.62-1.33,4.82s.43,3.85,1.28,4.86c.85,1.01,1.97,1.52,3.34,1.52,1.1,0,2.03-.34,2.77-1.02.74-.68,1.21-1.72,1.41-3.12Z"/>
    <path class="cls-9" d="M433.96,411.43v-3.23h2.81v3.23h-2.81ZM433.96,431.1v-16.59h2.81v16.59h-2.81Z"/>
    <path class="cls-9" d="M440.99,431.1v-22.91h2.81v22.91h-2.81Z"/>
    <path class="cls-9" d="M459.52,425.76l2.91.36c-.46,1.7-1.31,3.02-2.55,3.95-1.24.94-2.82,1.41-4.75,1.41-2.43,0-4.35-.75-5.77-2.24-1.42-1.5-2.13-3.59-2.13-6.29s.72-4.96,2.16-6.5c1.44-1.54,3.3-2.31,5.59-2.31s4.03.75,5.44,2.27c1.41,1.51,2.11,3.63,2.11,6.38,0,.17,0,.42-.02.75h-12.38c.1,1.82.62,3.22,1.55,4.19.93.97,2.08,1.45,3.47,1.45,1.03,0,1.91-.27,2.64-.81.73-.54,1.31-1.41,1.73-2.59ZM450.29,421.21h9.27c-.12-1.4-.48-2.44-1.06-3.14-.9-1.08-2.06-1.62-3.48-1.62-1.29,0-2.38.43-3.26,1.3-.88.86-1.37,2.02-1.46,3.47Z"/>
    <path class="cls-9" d="M464.83,426.15l2.78-.44c.16,1.11.59,1.97,1.3,2.56.71.59,1.71.89,2.99.89s2.25-.26,2.88-.79c.62-.53.94-1.14.94-1.85,0-.64-.28-1.14-.83-1.5-.39-.25-1.34-.57-2.88-.95-2.06-.52-3.49-.97-4.29-1.35-.8-.38-1.4-.91-1.81-1.58-.41-.67-.62-1.41-.62-2.23,0-.74.17-1.42.51-2.05.34-.63.8-1.15,1.38-1.57.44-.32,1.03-.6,1.79-.82.75-.22,1.56-.34,2.43-.34,1.3,0,2.45.19,3.43.56s1.71.88,2.18,1.52.79,1.5.97,2.57l-2.75.38c-.12-.85-.49-1.52-1.09-2-.6-.48-1.45-.72-2.54-.72-1.29,0-2.21.21-2.77.64-.55.43-.83.93-.83,1.5,0,.36.11.69.34.98.23.3.59.55,1.08.75.28.1,1.11.34,2.48.72,1.99.53,3.38.97,4.16,1.3.79.34,1.4.83,1.85,1.48.45.65.67,1.45.67,2.41s-.27,1.82-.82,2.65-1.34,1.47-2.37,1.92-2.2.68-3.5.68c-2.16,0-3.8-.45-4.93-1.34-1.13-.9-1.85-2.22-2.16-3.98Z"/>
    <path class="cls-9" d="M493.91,431.1l-5.08-16.59h2.91l2.64,9.58.98,3.56c.04-.18.33-1.32.86-3.42l2.64-9.72h2.89l2.48,9.62.83,3.17.95-3.2,2.84-9.59h2.73l-5.19,16.59h-2.92l-2.64-9.94-.64-2.83-3.36,12.77h-2.94Z"/>
    <path class="cls-9" d="M513.97,411.43v-3.23h2.81v3.23h-2.81ZM513.97,431.1v-16.59h2.81v16.59h-2.81Z"/>
    <path class="cls-9" d="M527.21,428.59l.41,2.48c-.79.17-1.5.25-2.12.25-1.02,0-1.81-.16-2.38-.48-.56-.32-.96-.75-1.19-1.27-.23-.53-.34-1.63-.34-3.32v-9.55h-2.06v-2.19h2.06v-4.11l2.8-1.69v5.8h2.83v2.19h-2.83v9.7c0,.8.05,1.32.15,1.55.1.23.26.41.48.55.22.13.54.2.96.2.31,0,.72-.04,1.23-.11Z"/>
    <path class="cls-9" d="M529.96,431.1v-22.91h2.81v8.22c1.31-1.52,2.97-2.28,4.97-2.28,1.23,0,2.3.24,3.2.73s1.55,1.15,1.95,2.01c.39.85.59,2.09.59,3.72v10.52h-2.81v-10.52c0-1.41-.3-2.43-.91-3.07s-1.47-.96-2.59-.96c-.83,0-1.62.22-2.35.65-.73.43-1.26,1.02-1.57,1.76-.31.74-.47,1.76-.47,3.06v9.08h-2.81Z"/>
    <path class="cls-9" d="M323.29,469.5l8.8-22.91h3.27l9.38,22.91h-3.45l-2.67-6.94h-9.58l-2.52,6.94h-3.22ZM329.89,460.09h7.77l-2.39-6.34c-.73-1.93-1.27-3.51-1.62-4.75-.29,1.47-.7,2.93-1.23,4.38l-2.52,6.72Z"/>
    <path class="cls-9" d="M357.61,463.42l2.77.36c-.3,1.91-1.08,3.4-2.32,4.48-1.25,1.08-2.77,1.62-4.59,1.62-2.27,0-4.1-.74-5.48-2.23-1.38-1.48-2.07-3.61-2.07-6.38,0-1.79.3-3.36.89-4.7s1.5-2.35,2.71-3.02c1.21-.67,2.53-1.01,3.96-1.01,1.8,0,3.28.46,4.42,1.37,1.15.91,1.88,2.21,2.2,3.88l-2.73.42c-.26-1.11-.72-1.95-1.38-2.52-.66-.56-1.46-.84-2.4-.84-1.42,0-2.57.51-3.45,1.52-.89,1.02-1.33,2.62-1.33,4.82s.43,3.85,1.28,4.86c.85,1.01,1.97,1.52,3.34,1.52,1.1,0,2.03-.34,2.77-1.02.74-.68,1.21-1.72,1.41-3.12Z"/>
    <path class="cls-9" d="M373.36,475.86v-8.12c-.44.61-1.05,1.12-1.84,1.53-.79.41-1.62.61-2.51.61-1.97,0-3.66-.79-5.09-2.36s-2.13-3.73-2.13-6.47c0-1.67.29-3.16.87-4.48s1.42-2.33,2.52-3.01c1.1-.68,2.3-1.02,3.62-1.02,2.05,0,3.67.86,4.84,2.59v-2.22h2.53v22.95h-2.81ZM364.69,461.16c0,2.14.45,3.74,1.34,4.8.9,1.07,1.97,1.6,3.22,1.6s2.23-.51,3.09-1.52c.86-1.02,1.3-2.56,1.3-4.63,0-2.21-.46-3.87-1.37-4.98-.91-1.11-1.98-1.67-3.21-1.67s-2.25.52-3.1,1.55c-.85,1.04-1.27,2.65-1.27,4.85Z"/>
    <path class="cls-9" d="M391.46,469.5v-2.44c-1.29,1.88-3.05,2.81-5.27,2.81-.98,0-1.89-.19-2.74-.56-.85-.38-1.48-.85-1.89-1.41-.41-.57-.7-1.26-.87-2.09-.12-.55-.17-1.43-.17-2.62v-10.28h2.81v9.2c0,1.47.06,2.46.17,2.97.18.74.55,1.32,1.12,1.74.57.42,1.28.63,2.12.63s1.63-.22,2.38-.65c.74-.43,1.26-1.02,1.57-1.77.31-.75.46-1.83.46-3.24v-8.89h2.81v16.59h-2.52Z"/>
    <path class="cls-9" d="M398.39,449.83v-3.23h2.81v3.23h-2.81ZM398.39,469.5v-16.59h2.81v16.59h-2.81Z"/>
    <path class="cls-9" d="M405.46,469.5v-16.59h2.53v2.52c.65-1.18,1.24-1.95,1.79-2.33s1.15-.56,1.8-.56c.95,0,1.91.3,2.89.91l-.97,2.61c-.69-.41-1.38-.61-2.06-.61-.62,0-1.17.18-1.66.55-.49.37-.84.88-1.05,1.54-.31,1-.47,2.09-.47,3.28v8.69h-2.81Z"/>
    <path class="cls-9" d="M427.5,464.16l2.91.36c-.46,1.7-1.31,3.02-2.55,3.95-1.24.94-2.82,1.41-4.75,1.41-2.43,0-4.35-.75-5.77-2.24s-2.13-3.59-2.13-6.29.72-4.96,2.16-6.5,3.3-2.31,5.59-2.31,4.03.75,5.44,2.27,2.11,3.64,2.11,6.38c0,.17,0,.42-.02.75h-12.38c.1,1.82.62,3.22,1.55,4.19.93.97,2.08,1.45,3.47,1.45,1.03,0,1.91-.27,2.64-.81.73-.54,1.31-1.41,1.73-2.59ZM418.27,459.61h9.27c-.12-1.4-.48-2.44-1.06-3.14-.9-1.08-2.06-1.62-3.48-1.62-1.29,0-2.38.43-3.26,1.3-.88.86-1.37,2.02-1.46,3.47Z"/>
    <path class="cls-9" d="M433.91,469.5v-16.59h2.53v2.52c.65-1.18,1.24-1.95,1.79-2.33s1.15-.56,1.8-.56c.95,0,1.91.3,2.89.91l-.97,2.61c-.69-.41-1.38-.61-2.06-.61-.62,0-1.17.18-1.66.55-.49.37-.84.88-1.05,1.54-.31,1-.47,2.09-.47,3.28v8.69h-2.81Z"/>
    <path class="cls-9" d="M453.85,469.5v-22.91h7.89c1.78,0,3.14.11,4.08.33,1.31.3,2.43.85,3.36,1.64,1.21,1.02,2.11,2.33,2.71,3.91.6,1.59.9,3.4.9,5.45,0,1.74-.2,3.28-.61,4.62s-.93,2.46-1.56,3.34c-.64.88-1.33,1.57-2.09,2.08-.76.5-1.67.89-2.73,1.15-1.07.26-2.29.39-3.68.39h-8.27ZM456.88,466.8h4.89c1.51,0,2.7-.14,3.55-.42s1.54-.68,2.05-1.19c.72-.72,1.28-1.68,1.68-2.9.4-1.21.6-2.68.6-4.41,0-2.4-.39-4.24-1.18-5.52-.79-1.29-1.74-2.15-2.87-2.59-.81-.31-2.12-.47-3.92-.47h-4.81v17.5Z"/>
    <path class="cls-9" d="M487.43,467.45c-1.04.89-2.04,1.51-3.01,1.88-.96.36-2,.55-3.1.55-1.82,0-3.22-.45-4.2-1.34-.98-.89-1.47-2.03-1.47-3.41,0-.81.18-1.55.55-2.23.37-.67.85-1.21,1.45-1.62.6-.41,1.27-.71,2.02-.92.55-.15,1.38-.29,2.5-.42,2.27-.27,3.94-.59,5.02-.97,0-.39.02-.63.02-.73,0-1.15-.27-1.95-.8-2.42-.72-.64-1.79-.95-3.2-.95-1.32,0-2.3.23-2.93.7-.63.46-1.1,1.28-1.4,2.46l-2.75-.38c.25-1.18.66-2.13,1.23-2.85.57-.72,1.4-1.28,2.48-1.67,1.08-.39,2.34-.59,3.77-.59s2.57.17,3.45.5c.88.33,1.54.75,1.95,1.26.42.5.71,1.14.88,1.91.09.48.14,1.34.14,2.59v3.75c0,2.61.06,4.27.18,4.96.12.69.36,1.36.71,1.99h-2.94c-.29-.58-.48-1.27-.56-2.05ZM487.19,461.17c-1.02.42-2.55.77-4.59,1.06-1.16.17-1.97.35-2.45.56-.48.21-.85.51-1.11.91-.26.4-.39.85-.39,1.34,0,.75.28,1.38.85,1.88.57.5,1.4.75,2.49.75s2.05-.24,2.89-.71,1.46-1.12,1.86-1.95c.3-.64.45-1.57.45-2.81v-1.03Z"/>
    <path class="cls-9" d="M500.54,466.99l.41,2.48c-.79.17-1.5.25-2.12.25-1.02,0-1.81-.16-2.38-.48s-.96-.75-1.19-1.27c-.23-.53-.34-1.63-.34-3.32v-9.55h-2.06v-2.19h2.06v-4.11l2.8-1.69v5.8h2.83v2.19h-2.83v9.7c0,.8.05,1.32.15,1.55.1.23.26.41.48.55.22.14.54.2.96.2.31,0,.72-.04,1.23-.11Z"/>
    <path class="cls-9" d="M514.11,467.45c-1.04.89-2.04,1.51-3.01,1.88-.96.36-2,.55-3.1.55-1.82,0-3.22-.45-4.2-1.34-.98-.89-1.47-2.03-1.47-3.41,0-.81.18-1.55.55-2.23.37-.67.85-1.21,1.45-1.62.6-.41,1.27-.71,2.02-.92.55-.15,1.38-.29,2.5-.42,2.27-.27,3.94-.59,5.02-.97,0-.39.02-.63.02-.73,0-1.15-.27-1.95-.8-2.42-.72-.64-1.79-.95-3.2-.95-1.32,0-2.3.23-2.93.7-.63.46-1.1,1.28-1.4,2.46l-2.75-.38c.25-1.18.66-2.13,1.23-2.85.57-.72,1.4-1.28,2.48-1.67,1.08-.39,2.34-.59,3.77-.59s2.57.17,3.45.5c.88.33,1.54.75,1.95,1.26.42.5.71,1.14.88,1.91.09.48.14,1.34.14,2.59v3.75c0,2.61.06,4.27.18,4.96.12.69.36,1.36.71,1.99h-2.94c-.29-.58-.48-1.27-.56-2.05ZM513.88,461.17c-1.02.42-2.55.77-4.59,1.06-1.16.17-1.97.35-2.45.56-.48.21-.85.51-1.11.91-.26.4-.39.85-.39,1.34,0,.75.28,1.38.85,1.88.57.5,1.4.75,2.49.75s2.05-.24,2.89-.71,1.46-1.12,1.86-1.95c.3-.64.45-1.57.45-2.81v-1.03Z"/>
  </g>
  <g>
    <line class="cls-11" x1="969.56" y1="272.54" x2="969.56" y2="314.69"/>
    <polygon class="cls-8" points="959.99 311.89 969.56 328.47 979.14 311.89 959.99 311.89"/>
  </g>
  <text class="cls-10" transform="translate(989.2 298.57)"><tspan x="0" y="0">Successful</tspan></text>
  <text class="cls-4" transform="translate(31.12 -14.79)"><tspan x="0" y="0">Reporting Metrics Logic Flow</tspan></text>
</svg>