<?xml version="1.0" encoding="UTF-8"?>
<svg id="Layer_1" data-name="Layer 1" xmlns="http://www.w3.org/2000/svg" viewBox="0 0 1997 833">
  <defs>
    <style>
      .cls-1 {
        letter-spacing: -.02em;
      }

      .cls-2 {
        letter-spacing: -.02em;
      }

      .cls-3 {
        stroke-width: 6px;
      }

      .cls-3, .cls-4, .cls-5, .cls-6, .cls-7 {
        fill: none;
      }

      .cls-3, .cls-8, .cls-9, .cls-6, .cls-7, .cls-10 {
        stroke-miterlimit: 10;
      }

      .cls-3, .cls-6 {
        stroke: #808082;
      }

      .cls-11 {
        font-size: 20px;
      }

      .cls-11, .cls-12 {
        font-family: Arial-BoldMT, Arial;
        font-weight: 700;
      }

      .cls-13, .cls-12 {
        font-size: 23.18px;
      }

      .cls-13, .cls-14, .cls-15 {
        font-family: ArialMT, Arial;
      }

      .cls-4 {
        stroke-width: 5px;
      }

      .cls-4, .cls-5 {
        stroke-linecap: round;
        stroke-linejoin: round;
      }

      .cls-4, .cls-9 {
        stroke: #999;
      }

      .cls-14, .cls-15 {
        font-size: 25.2px;
      }

      .cls-16 {
        letter-spacing: -.04em;
      }

      .cls-5 {
        stroke: #ff931e;
      }

      .cls-5, .cls-6 {
        stroke-width: 2px;
      }

      .cls-17 {
        letter-spacing: -.07em;
      }

      .cls-18 {
        letter-spacing: -.07em;
      }

      .cls-19 {
        letter-spacing: -.07em;
      }

      .cls-20 {
        letter-spacing: -.06em;
      }

      .cls-8, .cls-10 {
        stroke: #b3b3b3;
      }

      .cls-8, .cls-21 {
        fill: #fff;
      }

      .cls-9 {
        fill: #163567;
      }

      .cls-7 {
        stroke: #e6e6e6;
      }

      .cls-10 {
        opacity: .12;
      }

      .cls-15, .cls-22 {
        fill: #ff931e;
      }

      .cls-23 {
        fill: #f2f2f2;
      }

      .cls-23, .cls-24, .cls-22, .cls-21, .cls-25, .cls-26 {
        stroke-width: 0px;
      }

      .cls-24 {
        fill: #b9bbbd;
      }

      .cls-25 {
        fill: #eff0f0;
      }

      .cls-26 {
        fill: #00a99d;
      }
    </style>
  </defs>
  <rect class="cls-21" width="1997" height="833"/>
  <rect class="cls-25" x="40.35" y="39.98" width="1937.4" height="62.65"/>
  <g>
    <circle class="cls-24" cx="73.06" cy="73.09" r="7.99"/>
    <circle class="cls-24" cx="95" cy="73.09" r="7.99"/>
    <path class="cls-24" d="M124.94,73.09c0,4.41-3.58,7.99-7.99,7.99s-7.99-3.58-7.99-7.99,3.58-7.99,7.99-7.99,7.99,3.58,7.99,7.99Z"/>
  </g>
  <rect class="cls-6" x="40.43" y="35.5" width="1936.89" height="771.11"/>
  <text class="cls-14" transform="translate(138.84 80.76)"><tspan x="0" y="0">https://me.paymentoptions.com/accounts/merchant-details/</tspan></text>
  <text class="cls-13" transform="translate(159.61 241.79)"><tspan x="0" y="0">MERCHAN</tspan><tspan class="cls-1" x="117.19" y="0">T</tspan><tspan x="130.93" y="0" xml:space="preserve"> DE</tspan><tspan class="cls-19" x="169.57" y="0">T</tspan><tspan x="182.01" y="0">AILS</tspan></text>
  <text class="cls-13" transform="translate(167.67 448.4)"><tspan x="0" y="0">API KEYS</tspan></text>
  <rect class="cls-23" x="159.23" y="259.01" width="398.47" height="54.18"/>
  <rect class="cls-23" x="159.23" y="328.55" width="398.47" height="54.18"/>
  <rect class="cls-23" x="607.72" y="259.01" width="398.47" height="54.18"/>
  <rect class="cls-23" x="607.72" y="328.55" width="398.47" height="54.18"/>
  <rect class="cls-23" x="1066.29" y="259.01" width="398.47" height="54.18"/>
  <rect class="cls-23" x="1066.29" y="328.55" width="398.47" height="54.18"/>
  <rect class="cls-23" x="1514.78" y="259.01" width="398.47" height="54.18"/>
  <rect class="cls-23" x="1514.78" y="328.55" width="398.47" height="54.18"/>
  <text class="cls-13" transform="translate(167.5 513.8)"><tspan x="0" y="0">LIVE</tspan><tspan class="cls-20" x="50.25" y="0"> </tspan><tspan x="55.42" y="0">API KE</tspan><tspan class="cls-1" x="130.14" y="0">Y</tspan></text>
  <text class="cls-13" transform="translate(513.19 513.8)"><tspan x="0" y="0">xxxxxxxxxxxxxxxxxxxxxxxxxxxxxxxxxxxxxxxxxxxxxx</tspan></text>
  <text class="cls-13" transform="translate(1654.43 521.86)"><tspan x="0" y="0">DECODE BASE 64</tspan></text>
  <text class="cls-12" transform="translate(169.51 621.64)"><tspan x="0" y="0">PRODUCT INFORM</tspan><tspan class="cls-17" x="212.47" y="0">A</tspan><tspan x="227.49" y="0">TION</tspan></text>
  <rect class="cls-23" x="234.5" y="657.9" width="1672.7" height="54.18"/>
  <rect class="cls-23" x="60.83" y="152.98" width="54.44" height="54.18"/>
  <rect class="cls-23" x="60.83" y="241.67" width="54.44" height="54.18"/>
  <rect class="cls-23" x="60.83" y="330.36" width="54.44" height="54.18"/>
  <g>
    <path class="cls-24" d="M1955.36,66.52c0,1.03-.83,1.86-1.86,1.86h-18.47c-1.03,0-1.86-.83-1.86-1.86h0c0-1.03.83-1.86,1.86-1.86h18.47c1.03,0,1.86.83,1.86,1.86h0Z"/>
    <path class="cls-24" d="M1955.36,72.65c0,1.03-.83,1.86-1.86,1.86h-18.47c-1.03,0-1.86-.83-1.86-1.86h0c0-1.03.83-1.86,1.86-1.86h18.47c1.03,0,1.86.83,1.86,1.86h0Z"/>
    <path class="cls-24" d="M1955.36,78.79c0,1.03-.83,1.86-1.86,1.86h-18.47c-1.03,0-1.86-.83-1.86-1.86h0c0-1.03.83-1.86,1.86-1.86h18.47c1.03,0,1.86.83,1.86,1.86h0Z"/>
  </g>
  <rect class="cls-3" x="40.68" y="35.5" width="1937.07" height="67.53"/>
  <text class="cls-15" transform="translate(155.75 159.45)"><tspan x="0" y="0">Home / Merchant / Merchant Details</tspan></text>
  <g>
    <path class="cls-5" d="M97.53,262.19c0,2.61-2.04,4.73-4.56,4.73s-4.56-2.12-4.56-4.73v-2.7c0-2.61,2.04-4.73,4.56-4.73s4.56,2.12,4.56,4.73v2.7Z"/>
    <circle class="cls-5" cx="80.81" cy="259.32" r="3.8"/>
    <path class="cls-5" d="M84.64,271.7c-1.5-1.09-3.35-1.73-5.35-1.73-4.44,0-8.13,3.18-8.95,7.37-.18.91.58,1.75,1.5,1.75h7.45"/>
    <path class="cls-5" d="M92.97,271.48h0c-6.13,0-11.2,4.54-12.04,10.43-.13.91.6,1.73,1.52,1.73h21.04c.92,0,1.65-.82,1.52-1.73-.84-5.9-5.91-10.43-12.04-10.43Z"/>
  </g>
  <line class="cls-7" x1="134.41" y1="133.26" x2="134.41" y2="774.25"/>
  <rect class="cls-8" x="1035.5" y="105" width="942" height="701.5"/>
  <rect class="cls-22" x="1035.5" y="105.5" width="942" height="77"/>
  <rect class="cls-10" x="41" y="104" width="993" height="703"/>
  <g>
    <polygon class="cls-26" points="99.41 654.6 80.93 654.6 106.05 685.45 80.93 716.3 99.41 716.3 124.53 685.45 99.41 654.6"/>
    <rect class="cls-26" x="16.5" y="672.27" width="91.45" height="26.36"/>
  </g>
  <g>
    <circle class="cls-4" cx="190.14" cy="685.17" r="22.36"/>
    <line class="cls-4" x1="190.14" y1="677.39" x2="190.14" y2="698.78"/>
    <circle class="cls-9" cx="190.14" cy="669.61" r="1.94"/>
  </g>
  <text class="cls-11" transform="translate(1062.11 221.29)"><tspan x="0" y="0">MERCHANT</tspan><tspan class="cls-16" x="114.43" y="0"> </tspan><tspan x="119.25" y="0">ACCOUNT</tspan></text>
  <rect class="cls-23" x="1058.73" y="238.51" width="388.49" height="38.99"/>
  <text class="cls-11" transform="translate(1531.59 221.42)"><tspan x="0" y="0">SHO</tspan><tspan class="cls-2" x="43.34" y="0">P</tspan><tspan x="56.32" y="0" xml:space="preserve"> PROCESSING UR</tspan><tspan class="cls-2" x="229.68" y="0">L</tspan></text>
  <rect class="cls-23" x="1536.01" y="238.64" width="388.49" height="38.86"/>
  <text class="cls-11" transform="translate(1062.11 320.29)"><tspan x="0" y="0">MERCHANT C</tspan><tspan class="cls-18" x="134.43" y="0">A</tspan><tspan x="147.39" y="0">TEGO</tspan><tspan class="cls-16" x="204.06" y="0">R</tspan><tspan class="cls-2" x="217.76" y="0">Y</tspan><tspan x="230.74" y="0" xml:space="preserve"> CODE</tspan></text>
  <rect class="cls-23" x="1058.73" y="337.51" width="388.49" height="38.99"/>
  <text class="cls-11" transform="translate(1531.59 320.42)"><tspan x="0" y="0">SETTLEMENT CURRENC</tspan><tspan class="cls-2" x="238.89" y="0">Y</tspan></text>
  <rect class="cls-23" x="1536.01" y="337.64" width="388.49" height="38.86"/>
  <text class="cls-11" transform="translate(1062.11 420.29)"><tspan x="0" y="0">PROCESSING CURRENC</tspan><tspan class="cls-2" x="238.92" y="0">Y</tspan></text>
  <rect class="cls-23" x="1058.73" y="437.51" width="388.49" height="38.99"/>
  <text class="cls-11" transform="translate(1531.59 420.42)"><tspan x="0" y="0">DAS MID</tspan></text>
  <rect class="cls-23" x="1536.01" y="437.64" width="388.49" height="38.86"/>
  <text class="cls-11" transform="translate(1062.11 522.29)"><tspan x="0" y="0">BILLING DESCRIP</tspan><tspan class="cls-2" x="174.45" y="0">T</tspan><tspan x="186.31" y="0">OR</tspan></text>
  <rect class="cls-23" x="1058.73" y="539.51" width="388.49" height="38.99"/>
  <text class="cls-11" transform="translate(1531.59 522.42)"><tspan x="0" y="0">SCHEME TYPES</tspan></text>
  <rect class="cls-23" x="1536.01" y="539.64" width="388.49" height="38.86"/>
  <text class="cls-11" transform="translate(1062.11 621.29)"><tspan x="0" y="0">CONNECTION METHODS</tspan></text>
  <rect class="cls-23" x="1058.73" y="638.51" width="388.49" height="38.99"/>
  <text class="cls-11" transform="translate(1531.59 621.42)"><tspan x="0" y="0">TRANSACTION TYPE</tspan></text>
  <rect class="cls-23" x="1536.01" y="638.64" width="388.49" height="38.86"/>
  <rect class="cls-23" x="1058.73" y="692.51" width="388.49" height="38.99"/>
  <rect class="cls-23" x="1536.01" y="692.64" width="388.49" height="38.86"/>
  <rect class="cls-23" x="1058.73" y="746.51" width="388.49" height="38.99"/>
  <rect class="cls-23" x="1536.01" y="746.64" width="388.49" height="38.86"/>
</svg>