<?xml version="1.0" encoding="UTF-8"?>
<svg id="Layer_1" data-name="Layer 1" xmlns="http://www.w3.org/2000/svg" viewBox="0 0 1997 1106">
  <defs>
    <style>
      .cls-1 {
        letter-spacing: -.18em;
      }

      .cls-2 {
        letter-spacing: -.18em;
      }

      .cls-3 {
        letter-spacing: -.01em;
      }

      .cls-4 {
        letter-spacing: -.02em;
      }

      .cls-5, .cls-6, .cls-7, .cls-8, .cls-9, .cls-10, .cls-11 {
        stroke-miterlimit: 10;
      }

      .cls-5, .cls-6, .cls-7, .cls-8, .cls-9, .cls-10, .cls-11, .cls-12 {
        fill: none;
      }

      .cls-5, .cls-12 {
        stroke: #fff;
        stroke-linecap: round;
        stroke-width: 3px;
      }

      .cls-13 {
        letter-spacing: -.02em;
      }

      .cls-14 {
        letter-spacing: -.04em;
      }

      .cls-15 {
        letter-spacing: -.04em;
      }

      .cls-16 {
        letter-spacing: -.08em;
      }

      .cls-17 {
        letter-spacing: -.08em;
      }

      .cls-18 {
        letter-spacing: -.02em;
      }

      .cls-19 {
        letter-spacing: -.02em;
      }

      .cls-20 {
        letter-spacing: -.13em;
      }

      .cls-21 {
        letter-spacing: -.13em;
      }

      .cls-22 {
        letter-spacing: -.03em;
      }

      .cls-23 {
        letter-spacing: -.03em;
      }

      .cls-24 {
        letter-spacing: -.03em;
      }

      .cls-25, .cls-26 {
        font-size: 30px;
      }

      .cls-25, .cls-26, .cls-27 {
        font-family: KozGoPr6N-Regular-83pv-RKSJ-H, 'Kozuka Gothic Pr6N';
      }

      .cls-25, .cls-28 {
        fill: #29abe2;
      }

      .cls-26, .cls-29 {
        fill: #00a99d;
      }

      .cls-6 {
        stroke-dasharray: 0 0 6.89 6.89;
      }

      .cls-6, .cls-7, .cls-8, .cls-9, .cls-10, .cls-11 {
        stroke-width: 5px;
      }

      .cls-6, .cls-8, .cls-10 {
        stroke: #29abe2;
      }

      .cls-30 {
        letter-spacing: -.06em;
      }

      .cls-31 {
        letter-spacing: -.06em;
      }

      .cls-32 {
        letter-spacing: -.14em;
      }

      .cls-33 {
        letter-spacing: -.14em;
      }

      .cls-34 {
        letter-spacing: -.12em;
      }

      .cls-35 {
        letter-spacing: -.12em;
      }

      .cls-7, .cls-9, .cls-11 {
        stroke: #00a99d;
      }

      .cls-36 {
        letter-spacing: -.17em;
      }

      .cls-37 {
        letter-spacing: -.17em;
      }

      .cls-38 {
        letter-spacing: -.17em;
      }

      .cls-39 {
        letter-spacing: -.11em;
      }

      .cls-40 {
        letter-spacing: -.11em;
      }

      .cls-41 {
        letter-spacing: -.05em;
      }

      .cls-42 {
        letter-spacing: -.05em;
      }

      .cls-43 {
        letter-spacing: -.1em;
      }

      .cls-44 {
        letter-spacing: -.1em;
      }

      .cls-9 {
        stroke-dasharray: 0 0 6.88 6.88;
      }

      .cls-10 {
        stroke-dasharray: 0 0 6.95 6.95;
      }

      .cls-45 {
        letter-spacing: -.05em;
      }

      .cls-46 {
        fill: #f2f2f2;
        fill-rule: evenodd;
      }

      .cls-46, .cls-47, .cls-48, .cls-28, .cls-49, .cls-50, .cls-51, .cls-52, .cls-53, .cls-54, .cls-55, .cls-56, .cls-57, .cls-58, .cls-59, .cls-60, .cls-61, .cls-62, .cls-63, .cls-64, .cls-65, .cls-66, .cls-67, .cls-68, .cls-69, .cls-70, .cls-71, .cls-72, .cls-73, .cls-74, .cls-75, .cls-76, .cls-77, .cls-29, .cls-78 {
        stroke-width: 0px;
      }

      .cls-79 {
        letter-spacing: -.09em;
      }

      .cls-11 {
        stroke-dasharray: 0 0 7.32 7.32;
      }

      .cls-27 {
        font-size: 37px;
      }

      .cls-80 {
        letter-spacing: -.15em;
      }

      .cls-81 {
        letter-spacing: 0em;
      }

      .cls-47 {
        fill: #f7f9f9;
      }

      .cls-48 {
        fill: #fb6922;
      }

      .cls-49 {
        fill: #3babdc;
      }

      .cls-50 {
        fill: #0e65b4;
      }

      .cls-51 {
        fill: #0f284f;
      }

      .cls-52 {
        fill: #0f1b40;
      }

      .cls-53 {
        fill: #0e0e0e;
      }

      .cls-54 {
        fill: #1b5d9c;
      }

      .cls-55 {
        fill: #08478a;
      }

      .cls-56 {
        fill: #1485c3;
      }

      .cls-57 {
        fill: #145698;
      }

      .cls-58 {
        fill: #070707;
      }

      .cls-59 {
        fill: #1486c3;
      }

      .cls-60 {
        fill: #151515;
      }

      .cls-61 {
        fill: #0a1338;
      }

      .cls-62 {
        fill: #1f9b46;
      }

      .cls-63 {
        fill: #1d83c0;
      }

      .cls-64 {
        fill: #10284e;
      }

      .cls-65 {
        fill: #115295;
      }

      .cls-66 {
        fill: #11841a;
      }

      .cls-67 {
        fill: #c1181b;
      }

      .cls-68 {
        fill: #c12225;
      }

      .cls-69 {
        fill: #ff931e;
      }

      .cls-70 {
        fill: #ff7bac;
      }

      .cls-71 {
        fill: #f1f6f9;
      }

      .cls-72 {
        fill: #fff;
      }

      .cls-73 {
        fill: #ed1b23;
      }

      .cls-74 {
        fill: #edf3f8;
      }

      .cls-75 {
        fill: #fc9d31;
      }

      .cls-76 {
        fill: #fcfcfa;
      }

      .cls-77 {
        fill: #052d78;
      }

      .cls-78 {
        fill: #021668;
      }

      .cls-12 {
        stroke-linejoin: round;
      }
    </style>
  </defs>
  <rect class="cls-72" x="1" y="1" width="1997" height="1104"/>
  <rect class="cls-28" x="1632.72" y="682.66" width="224.53" height="224.53" rx="19.94" ry="19.94"/>
  <text class="cls-27" transform="translate(1686.79 960.91)"><tspan x="0" y="0">加盟店</tspan></text>
  <g>
    <path class="cls-12" d="M1816.4,773.33c0,7.17-6.4,12.98-14.28,12.98s-14.28-5.81-14.28-12.98c0,7.17-6.4,12.98-14.28,12.98s-14.28-5.81-14.28-12.98c0,7.17-6.4,12.98-14.28,12.98s-14.28-5.81-14.28-12.98c0,7.17-6.4,12.98-14.28,12.98s-14.28-5.81-14.28-12.98c0,7.17-6.4,12.98-14.28,12.98s-14.28-5.81-14.28-12.98"/>
    <path class="cls-5" d="M1673.57,773.33l14.89-47.23c.8-2.79,3.34-4.71,6.24-4.71h100.58c2.9,0,5.45,1.92,6.24,4.71l14.89,47.23"/>
    <path class="cls-12" d="M1806.66,786.31v77.91c0,3.59-2.91,6.49-6.49,6.49h-110.37c-3.59,0-6.49-2.91-6.49-6.49v-77.91"/>
    <line class="cls-5" x1="1728.75" y1="779.82" x2="1728.75" y2="870.71"/>
    <line class="cls-5" x1="1715.77" y1="818.77" x2="1715.77" y2="825.27"/>
    <line class="cls-5" x1="1767.71" y1="805.79" x2="1748.23" y2="825.27"/>
    <line class="cls-5" x1="1780.69" y1="818.77" x2="1754.72" y2="844.74"/>
    <line class="cls-5" x1="1787.83" y1="773.33" x2="1780.01" y2="721.39"/>
    <line class="cls-5" x1="1759.27" y1="773.33" x2="1754.45" y2="721.39"/>
    <line class="cls-5" x1="1730.7" y1="773.33" x2="1735.11" y2="721.39"/>
    <line class="cls-5" x1="1702.13" y1="773.33" x2="1710.49" y2="721.39"/>
  </g>
  <rect class="cls-28" x="882.44" y="678.65" width="224.53" height="224.53" rx="19.94" ry="19.94"/>
  <path class="cls-46" d="M913.41,764.43h162.58v-7.98l-81.28-39.19-81.3,39.19v7.98h0ZM911.52,850.67h11.02v-68.72h-3.21c-1.03,0-1.86-.84-1.86-1.87v-11.89h-5.95c-1.04,0-1.87-.84-1.87-1.88v-11.05h0c0-.69.39-1.36,1.06-1.69l83.18-40.1c.5-.24,1.1-.26,1.64,0l83.04,40.04c.7.28,1.19.96,1.19,1.75v11.05c0,1.04-.85,1.88-1.89,1.88h-5.94v11.89c0,1.03-.84,1.87-1.86,1.87h-3.21v68.72h11.01c1.04,0,1.89.85,1.89,1.89v11.59c0,1.04-.85,1.88-1.89,1.88h-166.35c-1.04,0-1.87-.84-1.87-1.88v-11.59c0-1.03.84-1.89,1.87-1.89h0ZM960.04,768.2v11.89c0,1.03-.83,1.87-1.86,1.87h-3.21v68.72h23.5v-68.72h-3.2c-1.03,0-1.86-.84-1.86-1.87v-11.89h-13.37ZM1015.98,768.2v11.89c0,1.03-.83,1.87-1.85,1.87h-3.22v68.72h23.51v-68.72h-3.21c-1.02,0-1.85-.84-1.85-1.87v-11.89h-13.38ZM1068.22,768.2h-35.15v10.01h35.15v-10.01h0ZM1012.27,768.2h-35.15v10.01h35.15v-10.01h0ZM956.33,768.2h-35.16v10.01h35.16v-10.01h0ZM926.3,850.67h24.9v-68.72h-24.9v68.72h0ZM982.25,850.67h24.91v-68.72h-24.91v68.72h0ZM1038.19,850.67h24.92v-68.72h-24.92v68.72h0ZM1075.99,854.44h-162.58v7.83h162.58v-7.83Z"/>
  <text class="cls-27" transform="translate(894.55 957.02)"><tspan class="cls-33" x="0" y="0">ア</tspan><tspan class="cls-35" x="31.82" y="0">ク</tspan><tspan class="cls-79" x="64.38" y="0">ワイア</tspan><tspan class="cls-41" x="165.39" y="0">ラ</tspan></text>
  <rect class="cls-29" x="135.48" y="681.47" width="224.53" height="224.53" rx="19.94" ry="19.94"/>
  <text class="cls-27" transform="translate(116.25 962.43)"><tspan class="cls-24" x="0" y="0">カ</tspan><tspan class="cls-21" x="35.89" y="0">ー</tspan><tspan class="cls-30" x="68.08" y="0">ド</tspan><tspan class="cls-24" x="102.86" y="0">ス</tspan><tspan class="cls-4" x="138.75" y="0">キ</tspan><tspan class="cls-24" x="175.01" y="0">ー</tspan><tspan class="cls-18" x="210.9" y="0">ム</tspan></text>
  <path class="cls-46" d="M320.65,782.83h-118.9c-1.79,0-3.43.73-4.61,1.91-1.18,1.19-1.92,2.82-1.92,4.61v68.4c0,1.8.73,3.43,1.91,4.61h0c1.18,1.19,2.81,1.92,4.61,1.92h118.9c1.8,0,3.43-.73,4.61-1.92,1.18-1.18,1.92-2.81,1.92-4.61v-68.4c0-1.8-.73-3.43-1.91-4.61h0c-1.18-1.18-2.82-1.91-4.61-1.91h0ZM173.76,778.08l127.45-34.15-4.27-15.94-127.46,34.15,4.27,15.94h0ZM302.06,747.08l8.71,32.48h-109.02c-2.7,0-5.15,1.1-6.92,2.87-1.77,1.77-2.88,4.22-2.88,6.92v38.33c-1.21-.02-2.37-.38-3.36-1-1.35-.84-2.39-2.18-2.84-3.84l-11.15-41.62,127.46-34.15h0ZM168.64,758.99l-.59-2.21c-.46-1.71-.19-3.45.61-4.88l.04-.07c.84-1.45,2.23-2.59,3.96-3.05l114.84-30.78c1.71-.46,3.45-.19,4.89.61l.08.05c1.44.84,2.57,2.23,3.04,3.96l.59,2.21-127.46,34.15h0ZM314.78,797.11v10.62h-24.53v-10.62h24.53ZM288.61,793.85h27.8c.9,0,1.63.73,1.63,1.64v13.88c0,.9-.73,1.63-1.63,1.63h-27.8c-.9,0-1.63-.73-1.63-1.63v-13.88c0-.9.73-1.64,1.63-1.64h0ZM227.18,810.85v13.31h-16.92v-13.31h16.92ZM208.63,807.59h20.18c.9,0,1.63.73,1.63,1.63v16.57c0,.9-.73,1.63-1.63,1.63h-20.18c-.91,0-1.64-.73-1.64-1.63v-16.57c0-.9.73-1.63,1.64-1.63h0ZM293.12,848.74c-.9,0-1.63-.72-1.63-1.63s.73-1.63,1.63-1.63h23.28c.9,0,1.63.72,1.63,1.63s-.73,1.63-1.63,1.63h-23.28ZM264.96,848.75c-.9,0-1.63-.73-1.63-1.64s.73-1.63,1.63-1.63h23.29c.9,0,1.63.73,1.63,1.63s-.73,1.64-1.63,1.64h-23.29ZM236.79,848.75c-.9,0-1.63-.73-1.63-1.64s.73-1.63,1.63-1.63h23.28c.9,0,1.63.73,1.63,1.63s-.73,1.64-1.63,1.64h-23.28ZM208.63,848.75c-.91,0-1.64-.73-1.64-1.64s.73-1.63,1.64-1.63h23.28c.91,0,1.64.73,1.64,1.63s-.73,1.64-1.64,1.64h-23.28ZM191.96,830.95c-1.82-.02-3.59-.56-5.09-1.5-2.02-1.27-3.6-3.27-4.26-5.75l-17.71-66.07c-.69-2.56-.27-5.17.93-7.32l.06-.1c1.25-2.17,3.34-3.86,5.94-4.56l114.84-30.77c2.57-.69,5.17-.28,7.33.93l.1.06c2.17,1.25,3.86,3.33,4.56,5.94l1.01,3.74v.04s.02.04.02.04l5.09,19v.05s.03.04.03.04l9.34,34.86h6.5c2.69,0,5.15,1.1,6.92,2.87h0c1.78,1.78,2.88,4.23,2.88,6.92v68.4c0,2.7-1.1,5.15-2.88,6.92-1.77,1.78-4.22,2.88-6.92,2.88h-118.9c-2.68,0-5.11-1.09-6.89-2.86l-.02-.02h0c-1.77-1.78-2.88-4.23-2.88-6.92v-26.81Z"/>
  <g>
    <path class="cls-56" d="M325.37,1010.28c0-.2,0-.4,0-.6.17-.65.48-1.3.49-1.95.03-7.03,0-14.07,0-21.1,0,0-.01.02-.01.02.1-.11.2-.21.3-.32,0,0-.02.01-.02.01.59.01,1.18.03,1.77.03,16.26,0,32.52-.01,48.77.04.82,0,1.64.56,2.46.86,0,8.28-.01,16.57-.02,24.85-.08.72-.25,1.45-.21,2.17.07,1.14-.33,1.55-1.33,1.41-.86-.12-2,.43-2.01-1.36-.01-2.58-.2-5.15-.25-7.72-.02-1.2-.48-1.71-1.57-1.7-3.51.03-7.01.01-10.52.02-.93,0-1.86-.03-2.79.02-1.47.08-2.98.06-4.41.39-.72.16-1.27.68-1.93-.1-.18-.21-.58-.3-.87-.3-4.86-.02-9.72-.02-14.58,0-.58,0-1.16.25-1.74.24-1.3-.02-2.59-.14-3.89-.2-.56-.03-1.16.12-1.69-.03-1.92-.52-3.09.08-4,2.1-.5,1.12-1.1,2.19-1.65,3.28-.1-.01-.19-.02-.29-.04Z"/>
    <path class="cls-59" d="M325.37,1015.96c0-.2,0-.39-.01-.59,1.71.46,3.39.52,4.57-.32,1.12.25,1.87.51,2.64.58.9.09,1.82-.03,2.72.05.33.03.88.32.91.55.17,1.37.28,2.75.28,4.13,0,1.56-.14,3.13-.23,4.69-.05.82.18,1.36,1.02,1.4,1.78.08,3.57.25,5.35.23,2.96-.03,5.93-.23,8.89-.24,1.24,0,1.87-.41,1.95-1.82.02-.33.44-.63.68-.94-.04,2.44.51,3.08,2.5,3.03,1.61-.04,3.23.01,4.84-.01,5.87-.09,11.74-.2,17.61-.3,0,4.89,0,9.78,0,14.68l-.24.63s.01-.02.01-.02c-.1.11-.19.21-.29.32h.01c-16.68-.02-33.37-.03-50.05-.04-.84,0-1.69-.03-2.53-.04-.05-.02-.07-.06-.08-.12-.02-.88-.07-1.77-.07-2.65,0-7.24,0-14.47-.03-21.71,0-.5-.31-.99-.48-1.49Z"/>
    <path class="cls-75" d="M153.29,992.08c2.52-1.69,5.07-3.17,8.08-3.73,6.74-1.24,13.91,2.12,17.67,8.51,7.05,11.97.86,27.15-12,29.16-4.84.76-9.4-.34-13.27-3.87-.02-.16-.03-.31-.05-.47.19-.14.4-.24.56-.41,4.72-5.2,6.6-11.37,5.09-18.57-.88-4.2-2.63-7.88-6.05-10.35-.01-.09-.02-.17-.03-.26Z"/>
    <path class="cls-73" d="M153.29,992.08c0,.09.02.17.03.26-.38.26-.81.46-1.14.78-6.16,5.92-7.41,16.74-2.64,24.07,1.11,1.71,2.78,3,4.18,4.48.02.16.03.31.05.47-1.51.89-2.97,1.9-4.54,2.64-10.06,4.75-21.85-2.2-23.81-13.99-1.84-11.05,5.07-21.39,15.24-22.59,4.62-.55,8.91.7,12.63,3.88Z"/>
    <path class="cls-62" d="M307.29,1020.57c.57-.11,1.16-.18,1.71-.35,1.68-.52,2.66-1.7,2.74-3.25.12-2.1-.38-2.95-2.28-3.88-.12-.06-.22-.16-.35-.24,2.31-1.29,2.77-2.12,2.37-4-.33-1.53-1.26-2.35-2.58-2.44-2.72-.19-5.44-.22-8.16-.32-.41-.16-.81-.32-1.29-.51,0-1.94,0-3.9,0-5.87,0-.56-.02-1.11-.04-1.67.52-2.84,2.14-4.54,4.63-5.33.26-.05.52-.09.78-.14,0,0-.03.05-.03.05,2.41.01,4.81.09,7.21,0,1.24-.05,1.61.33,1.6,1.72-.05,11.08-.03,22.16-.03,33.23,0,.71-.01,1.42-.02,2.13-.64,2.13-1.81,3.71-3.82,4.42-.48-.08-.96-.21-1.44-.21-2.59-.02-5.17-.04-7.76,0-.89.02-1.18-.29-1.17-1.27.04-3.62,0-7.25.03-10.88,0-.43.17-.86.25-1.28.19.03.38.07.58.1.12.13.24.38.36.39,2.12.02,4.24.02,6.35,0,.12,0,.23-.26.35-.4Z"/>
    <path class="cls-55" d="M264.75,1000.12c.65-4.76,2.79-7.1,7.06-7.73.43.09.85.24,1.28.25,2.11.03,4.23.03,6.34.04,0,4.3.02,8.6,0,12.9,0,.37-.14.75-.22,1.12-.06-.17-.12-.5-.18-.5-1.6.05-3.21.13-4.81.21-.08.87-.24,1.73-.23,2.6.03,2.71.11,5.41.18,8.12-.54.42-1.08,1.2-1.63,1.21-2.4.05-4.8-.13-7.2-.23-.13-.55-.36-1.09-.36-1.64-.03-4.93,0-9.85-.03-14.78,0-.52-.14-1.05-.22-1.57Z"/>
    <path class="cls-49" d="M379.12,1026.39c-5.87.1-11.74.21-17.61.3-1.61.03-3.23-.03-4.84.01-1.99.06-2.54-.59-2.5-3.03-.24.31-.66.61-.68.94-.08,1.41-.71,1.81-1.95,1.82-2.96,0-5.93.21-8.89.24-1.78.02-3.57-.15-5.35-.23-.84-.04-1.07-.58-1.02-1.4.09-1.56.22-3.13.23-4.69,0-1.38-.11-2.77-.28-4.13-.03-.23-.58-.53-.91-.55-.9-.08-1.82.04-2.72-.05-.77-.07-1.52-.33-2.64-.58-1.18.84-2.86.79-4.57.32,0-1.01,0-2.01,0-3.02.09-.49.17-.99.26-1.48.01-.19.02-.37.04-.56.55-1.09,1.15-2.16,1.65-3.28.91-2.02,2.08-2.62,4-2.1.53.14,1.12,0,1.69.03,1.3.06,2.59.18,3.89.2.58,0,1.16-.23,1.74-.24,4.86-.02,9.72-.02,14.58,0,.3,0,.69.08.87.3.66.78,1.21.26,1.93.1,1.43-.33,2.93-.31,4.41-.39.93-.05,1.86-.02,2.79-.02,3.51,0,7.01.01,10.52-.02,1.09,0,1.55.5,1.57,1.7.05,2.58.23,5.15.25,7.72.01,1.79,1.15,1.24,2.01,1.36,1,.14,1.41-.27,1.33-1.41-.05-.71.13-1.44.21-2.17,0,.87,0,1.74,0,2.61.28-5.03.29-10.05.28-15.06-.01-4.12-.05-8.25-.07-12.37l.1-.02c.08.53.22,1.05.22,1.58.01,8.5.01,16.99.01,25.49q0,2.22-2.01,2.23c-.41,0-.82.03-1.22.04-13.12,0-26.23,0-39.1,0-.15,2.94-.32,5.7-.39,8.47,0,.26.57.79.85.77,2.77-.2,5.61.68,8.33-.54.18-.08.44.04.66.06,1.93.24,3.87.47,5.78.71.41-2.92.56-3.11,2.55-3.46.07.37.14.74.22,1.11-.05.4-.1.8-.15,1.21-.2.78.13,1,.77.89,1.09-.09,2.18-.19,3.27-.28.18.08.36.16.55.25,4.11-.03,8.21-.07,12.32-.1.07-.05.13-.1.2-.15.27-.1.66-.37.81-.27,1.71,1.24,3.49.51,5.23.22.34-.06.63-.48,1.12-.88.09.51.21.9.22,1.3.02,4.83.02,9.66.01,14.48,0,.23-.14.45-.21.68,0,0-.1-.02-.1-.02.02-4.77.04-9.55.05-14.32,0-.11-.17-.22-.25-.33ZM361.96,1006.7c-2.28-1.63-4.51-1.7-6.78-.19-.2.13-.61.23-.74.1-1.73-1.59-3.79-1.08-5.75-1.07-2.31,0-4.62.31-6.92.21-1.59-.07-3.19-.78-4.39.98-.81-1.1-2.9-1.69-3.97-1.1-.23.13-.34.69-.35,1.06-.01.81.08,1.62.12,2.42-.73-.85-1.18-1.76-1.52-2.7-.49-1.33-1.52-.91-2.34-.84-.41.04-.93.62-1.12,1.09-.84,2.15-1.59,4.34-2.34,6.53-.16.46-.19.97-.31,1.64.77,0,1.31,0,1.84,0,.83,0,1.65.2,2.1-1.04.3-.83.82-.21,1.27.19.44.39,1.02.78,1.55.81,1.79.1,3.59.04,5.39.04,4,0,8,.01,12-.04.57,0,1.15-.33,1.88-.56.87.94,3.24.97,3.78.04,1,.2,1.9.47,2.81.54,1.18.09,2.36,0,3.55.01.74,0,1.39,0,1.83-.9.4-.82.95-.67,1.5.04.32.4.85.75,1.32.83.8.14,1.64.13,2.45.02.68-.1,1.33-.43,2.18-.73.85,1.59,2.49.46,3.91.73-.08-1.11-.16-2.04-.2-2.97-.07-1.69-.12-3.38-.17-5.07-.02-.82-.31-1.4-1.14-1.24-.84.16-2.13-.7-2.3,1.13-1.37-1.31-2.45-1.52-4.18-.83v3.22c-.57-1.04-.98-2.45-1.86-3.19-1.02-.85-2.33-.55-3.12.85Z"/>
    <path class="cls-51" d="M243.66,1020.73c-.05.11-.1.23-.15.34-.34.54-.65,1.1-1.02,1.62-.39.56-.74,1.41-1.25,1.55-.91.25-1.92.07-3.06.07.55-1.61,1.03-2.93,1.44-4.28.38-1.25.69-2.53,1.03-3.8v.02c.27-.42.63-.8.81-1.27.88-2.32,1.77-4.64,2.55-7,.41-1.22.61-2.52.91-3.78,0,0-.02.02-.02.02.16-.51.33-1.02.49-1.53,0,0,.06-.08.06-.08.09-.08.17-.17.26-.25,0,0,.03-.02.03-.02,1.25-.04,2.51-.1,3.76-.11,2.01-.02,1.94.01,2.38,2.2.56,2.77,1.26,5.5,1.9,8.25.03.08.03.16.02.24.46,2.11.93,4.22,1.39,6.32,0,0-.02-.02-.02-.02,0,.11-.01.22-.02.33.27,1.52.54,3.05.84,4.77-.96,0-1.72-.06-2.48.01-1.05.1-1.65-.27-1.66-1.53,0-.48-.06-1.04-.28-1.43-.27-.48-.73-1.15-1.14-1.18-2.13-.12-4.27-.07-6.4-.03-.13,0-.25.37-.37.56ZM249.86,1015.92c-.55-2.49-1.06-4.84-1.64-7.47-1,2.66-1.89,5.03-2.81,7.47h4.45Z"/>
    <path class="cls-67" d="M296.66,1028.81c-.57,3.42-2.69,5.39-5.82,5.39-2.94,0-5.88,0-8.91,0v-16.95c.41.62.75,1.11,1.08,1.61.28.22.57.43.85.65h-.01c.72.3,1.44.61,2.16.93.18.01.36.03.54.04.41.19.82.54,1.22.53,2.82-.09,5.64-.25,8.62-.39,0,1.73-.03,3.75.01,5.76.02.81.17,1.62.26,2.44Z"/>
    <path class="cls-67" d="M288.74,992.39c.18,0,.37,0,.55-.01,1.88.09,3.76.25,5.64.23,1.08-.01,1.51.26,1.49,1.55-.08,3.72-.02,7.43-.04,11.15,0,.46-.18.92-.28,1.39-.28-.2-.56-.58-.84-.57-2.67.05-5.35.01-8.01.29-2.18.23-4.02,1.41-5.36,3.51.25-3.99-.68-8,.5-11.92.59-1.96,1.64-3.51,3.33-4.49,1-.38,2.01-.75,3.01-1.13Z"/>
    <path class="cls-64" d="M205.42,1018.41c.1-.02.19-.04.29-.07.22-.27.55-.49.64-.81,1.43-4.7,2.83-9.4,4.22-14.11.09-.31-.02-.68-.03-1.03,0,0,0,.02,0,.02.12-.09.24-.18.36-.27l-.03.02c1.25,0,2.5,0,3.97,0-.65,2.12-1.23,3.91-1.73,5.73-.21.75-.23,1.57-.34,2.36-1.34,4.29-2.72,8.56-3.99,12.88-.32,1.1-.79,1.49-1.82,1.4-1.17-.1-2.36-.1-3.53,0-.95.08-1.47-.37-1.7-1.28-.32-1.23-.59-2.48-.87-3.73.03-.51.16-1.05.07-1.53-.25-1.31-.58-2.6-.92-3.88-.88-3.27-1.76-6.55-2.72-9.8-.12-.4-.72-.63-1.09-.94-.91-.08-1.83-.16-2.74-.24,0-.31.01-.62.02-.92,2.77.24,5.63-.66,8.33.68,0,0,.02.09.02.09.38,1.53.76,3.05,1.14,4.58.11.5.21,1,.32,1.5.47,2.29.95,4.57,1.42,6.86l-.02-.02c.1.41.2.81.3,1.22,0,0-.02-.03-.02-.03.22.41-.57,1.28.5,1.3Z"/>
    <path class="cls-55" d="M279.41,1030.01c-.79,1.9-1.78,3.57-3.88,3.91-3.08-.01-6.16-.06-9.24,0-.98.02-1.35-.25-1.33-1.4.06-3.77.01-7.54.04-11.31,0-.45.2-.91.31-1.36.9.23,1.8.47,2.69.7.2.16.41.45.61.45,2.21.03,4.43.04,6.64,0,.21,0,.42-.28.62-.43l3.26-1.35c.11.5.3,1,.31,1.51.03,2.91.02,5.82.03,8.73.02.08,0,.16-.04.23-.03.03-.1.06-.1.08.02.08.05.15.08.22Z"/>
    <path class="cls-51" d="M237.68,1004.34c0,.09,0,.18-.05.26-.14.55-.28,1.1-.37,1.48-1.42,0-2.78-.12-4.1.04-.98.12-2.19-.06-2.7,1.32,0,0-.02.01-.02,0-.11.08-.22.17-.33.25,0,0,.04-.04.04-.04-1.02.63-.96,1.29-.05,1.98,0,0-.03-.03-.03-.03.27.21.54.43.81.64,0,0-.02-.02-.02-.02.12.08.24.16.37.24,0,0-.03-.04-.03-.04.36.97,1.01,1.11,1.83.77.11.04.21.07.32.11.48.26.95.53,1.43.79.06,0,.1.04.12.1.14.12.27.24.41.35,0,0-.01-.01-.01-.01.1.07.21.14.31.21,0,0,.06.04.06.04.14.14.28.28.42.42v-.02c.18.21.37.42.56.63.08.09.15.18.23.27.68,2.43.71,4.88.1,7.33l-.02-.11s.03.11.03.11c-.24.31-.47.61-.71.92-.02.06-.05.1-.11.12-1.1.49-2.17,1.16-3.31,1.42-3.07.71-6.16.59-9.38-.01.1-.57.17-1.03.25-1.49q.4-2.32,2.48-1.96c1.17,0,2.36.13,3.5-.04.88-.14,2.05.16,2.49-1.18h-.01c.19-.19.37-.4.56-.61l-.02.02c.84-.61.88-1.19-.04-1.75-.07-.11-.13-.22-.2-.33-.2-.19-.39-.38-.59-.57h.02c-1.21-1.67-3.06-1.83-4.74-2.38l-.09.02-.06-.07c-.1-.09-.21-.18-.31-.26l.02.02c-.09-.27-.14-.58-.29-.8-1.5-2.25-1.89-4.56-.42-7.02.11-.18.06-.47.08-.7,0,0-.01.02-.01.02.1-.11.21-.22.31-.33,0,0-.03.04-.03.04.1-.11.2-.22.3-.33,0,0-.02.02-.02.02.21-.18.42-.36.62-.54l-.02.02c.18,0,.4.06.53-.02,2.47-1.51,5.16-1.52,7.88-1.45,1.95.05,1.97.05,2.02,2.14Z"/>
    <path class="cls-71" d="M355.3,1023.72c-.07-.37-.14-.75-.22-1.11-1.99.35-2.14.55-2.55,3.46-1.91-.23-3.84-.47-5.78-.71-.22-.03-.48-.14-.66-.06-2.72,1.21-5.55.33-8.33.54-.28.02-.86-.51-.85-.77.08-2.77.24-5.53.39-8.47,12.87,0,25.98,0,39.1,0,.27.37.55.74.82,1.1-1.14.34-2.57-.64-3.43.94-.39,0-.77,0-1.16,0-.24-.3-.45-.81-.72-.85-.8-.12-1.64.07-2.44-.07-1.31-.24-1.73.6-1.78,1.7-.03.62.35,1.26.55,1.9-.63,0-1.25-.01-1.88-.02,0-.65-.2-.99-.88-.9-.56.08-1.14.02-1.75.02v-1.52h2.85l.26-.25v-.89c-1.46-.14-2.92-.28-4.36-.41v4.89l-.14.88c-.33-.17-.64-.39-.98-.5-.25-.08-.55-.02-.82-.02-.18-.26-.36-.53-.54-.81.32-.27.72-.43.8-.7.21-.76.54-1.67.33-2.32-.18-.57-1.02-1.2-1.61-1.25-1.08-.09-2.18.23-3.39.4v5.8c-.27,0-.54,0-.81-.01ZM354.62,1017.99c-.11-.08-.22-.16-.33-.24h0c-1.3-.14-2.6-.28-4.04-.43.05.97.08,1.61.11,2.24,0,1.09-.02,2.18-.02,3.27-.03.57-.06,1.14-.1,1.84.54-.03.95-.05,1.35-.08v-2.34c.4-.02.81-.05,1.21-.05,2.19-.03,3.09-1.67,2.12-3.88-.1-.11-.21-.22-.31-.33h.02ZM342.18,1020.38h-2.53v-1.46h3.07v-1.41h-4.41v7.08h4.47c-.02-.45-.04-.86-.06-1.4h-3.13c.03-.49.05-.85.07-1.33h2.52v-1.48ZM343.82,1017.53c.51,1.22,1.38,2.38,1.34,3.51-.03,1.13-.96,2.22-1.52,3.38,2.16.87,1.9-1.54,2.86-2.2q1.63,2.49,3.05,2.2c-2.18-2.16-2.19-4.39-.34-6.66.04-.05,0-.17-.01-.21-1.79-.79-1.84,1.17-2.62,2.11-.76-1.07-.97-2.89-2.75-2.12Z"/>
    <path class="cls-67" d="M295.57,1017.43c-.16.11-.33.23-.49.34-.11.07-.22.14-.33.22-1.97.75-3.98,1.01-6,.37-2.51-.79-4.08-3.21-3.78-5.59.35-2.71,2.31-4.59,5.07-4.56,2.02.02,4.03.36,6.05.56.08.12.23.23.23.35.03,2.43.08,4.86.02,7.28,0,.35-.51.69-.78,1.03Z"/>
    <path class="cls-63" d="M379.12,987.26c-.82-.3-1.64-.85-2.46-.86-16.26-.05-32.52-.04-48.77-.04-.59,0-1.18-.02-1.77-.03.54-.18,1.07-.53,1.61-.53,16.48-.03,32.96-.02,49.44-.02,1.04,0,1.87.31,2.24,1.49,0,0-.1.02-.1.02-.06-.01-.12-.02-.19-.02Z"/>
    <path class="cls-63" d="M326.04,1041.92c.84.01,1.69.04,2.53.04,16.68.01,33.37.02,50.05.03-.48.19-.96.53-1.45.53-16.47.03-32.94.02-49.41-.01-.58,0-1.15-.38-1.73-.59Z"/>
    <path class="cls-68" d="M295.57,1017.43c.27-.34.77-.68.78-1.03.05-2.43,0-4.85-.02-7.28,0-.12-.15-.23-.23-.35,0-.69,0-1.38,0-2.08.1-.46.27-.92.28-1.39.02-3.72-.04-7.44.04-11.15.03-1.29-.41-1.56-1.49-1.55-1.88.02-3.76-.14-5.64-.23h7.55c.03.54.07.97.07,1.4,0,11.15,0,22.31,0,33.46,0,.53-.15,1.05-.24,1.58-.09-.81-.25-1.62-.26-2.44-.04-2.02-.01-4.03-.01-5.76-2.98.15-5.8.31-8.62.39-.4.01-.81-.35-1.22-.53,2.83-.12,5.65-.21,8.47-.41.36-.02.95-.56.98-.91.05-.55-.27-1.15-.44-1.73Z"/>
    <path class="cls-62" d="M301.27,1018.29v-4.2c1.68.12,3.34.1,4.94.42.54.11,1.17,1.02,1.33,1.69.23.94-.35,1.6-1.26,1.93-1.67.61-3.32.7-5.01.15Z"/>
    <path class="cls-65" d="M356.11,1023.73v-5.8c1.22-.17,2.32-.49,3.39-.4.59.05,1.42.68,1.61,1.25.21.66-.12,1.56-.33,2.32-.07.27-.47.43-.8.7.19.28.37.55.54.81.31.58.63,1.16.94,1.73,0,.1,0,.2-.01.3-1.95.62-2.14-1.28-2.87-2.4-.07-.05-.13-.1-.2-.15-.19,0-.38-.02-.57-.02-.06.06-.13.12-.19.17-.12.82-.23,1.64-.35,2.46-.27,0-.54,0-.81,0-.12-.32-.24-.64-.36-.96ZM357.57,1020.94c.86-.28,1.55-.47,2.19-.77.12-.06.11-.87.06-.88-.73-.18-1.47-.29-2.25-.42v2.07Z"/>
    <path class="cls-60" d="M131.24,1035.86c-.18-.35-.47-.68-.5-1.04-.08-.94.06-1.9-.1-2.82-.07-.42-.67-1.04-.99-1.01-.36.03-.92.65-.97,1.07-.14,1.12-.05,2.27-.05,3.88-.47-.39-.93-.6-.94-.82-.06-1.67-.03-3.35-.03-5.25,1.32.24,2.47.47,3.63.65.18.03.39-.18.58-.28,1.48-.79,2.78.02,2.84,1.78.04,1.18,0,2.37,0,3.55-.12.09-.23.18-.35.27-.25-.32-.66-.6-.71-.95-.11-.72-.04-1.48-.03-2.23,0-.79.13-1.76-.97-1.7-1.02.06-.95.98-.94,1.79.01.94,0,1.88,0,2.82-.16.1-.32.2-.48.29Z"/>
    <path class="cls-62" d="M301.27,1008.21c1.4,0,2.72-.09,4.01.03.98.09,1.93.55,1.93,1.88,0,1.29-.87,1.79-1.89,1.95-.98.15-1.98.21-2.97.3-.72.07-1.12-.22-1.1-1.09.03-.98,0-1.97,0-3.07Z"/>
    <path class="cls-58" d="M179.49,1030.6q.06-4.32.84-4.39v9.18c-.9.16-1.84.6-2.63.38-.86-.23-1.81-.91-2.3-1.7-.64-1.02-.41-2.26.41-3.25.76-.92,1.72-1.02,2.74-.76.29.07.54.3.95.54ZM179.49,1032.42c-.08-.81-.61-1.5-1.7-1.54-1-.03-1.83.9-1.81,1.98.02,1.12.82,1.97,1.82,1.93,1.05-.04,1.72-.85,1.68-2.37Z"/>
    <path class="cls-57" d="M368.24,1021.33c-.2-.63-.58-1.28-.55-1.9.05-1.1.47-1.95,1.78-1.7.79.15,1.63-.04,2.44.07.27.04.48.55.72.85-.38.12-.76.23-1.15.35-.54-.02-1.1-.12-1.63-.02-.31.06-.56.44-.84.68.3.35.56.89.92,1.01.36.12.84-.19,1.27-.31.88-.02,1.66.29,1.85,1.28.18.97.34,2.07-.76,2.67-1.32,0-2.64,0-3.95,0,0-.2.02-.4.03-.6h2.49v-.17c-.98-.09-1.96-.18-2.93-.28.18-.05.36-.11.54-.16.85.02,1.7.1,2.54.03.26-.02.49-.47.73-.73-.24-.2-.46-.55-.71-.58-.57-.07-1.16.02-1.73.04-.36-.18-.71-.37-1.07-.55Z"/>
    <path class="cls-57" d="M373.79,1018.64c.85-1.58,2.29-.59,3.43-.94h1.53c-.24.44-.48.87-.72,1.29h-1.37c-.18-.01-.38-.09-.54-.03-.37.16-.72.38-1.08.57.35.3.67.69,1.07.87.31.14.72.06,1.08.02.95-.11,1.69.33,1.87,1.29.18.96.35,2.13-.88,2.62-1.39,0-2.78,0-4.18,0,0-.21,0-.42,0-.63.66,0,1.34.08,1.99,0,.5-.07.98-.34,1.46-.52l.29-.95c-.1-.11-.19-.22-.29-.33-.91-.07-1.82-.15-2.73-.22-1.08-.72-1.33-1.77-.97-3.04Z"/>
    <path class="cls-52" d="M214.77,1022.24c1.12-6.72,2.24-13.43,3.38-20.25h4.98c-.8,4.65-1.59,9.31-2.39,13.97-.09-.2-.18-.4-.27-.6.69-4.32,1.37-8.63,2.09-13.15-1.01,0-1.95.05-2.89-.01-.92-.06-1.27.38-1.41,1.34-.5,3.5-1.04,7.01-1.64,10.49-.48,2.75-1.07,5.47-1.61,8.2-.08,0-.16,0-.25,0Z"/>
    <path class="cls-60" d="M141.18,1029.73v5.68c-.95.14-1.86.38-2.79.4-1.56.03-2.73-1.52-2.58-3.27.14-1.69,1.44-2.82,3.03-2.57.42.07.81.47,1.23.5.28.02.58-.36,1.11-.74ZM140.36,1032.85c0-1.05-.88-1.99-1.86-1.95-1.1.05-1.64.78-1.72,1.89-.08,1.16.69,1.98,1.73,1.98,1.03,0,1.85-.85,1.85-1.93Z"/>
    <path class="cls-57" d="M362.34,1023.12c.05-.29.1-.59.14-.88.09-.86.3-1.74.23-2.59-.11-1.45.24-2.15,1.69-1.92.8.13,1.63.03,2.44.03,0,.3,0,.59,0,.89-.09.08-.18.17-.26.25h-2.85v1.52c.61,0,1.19.06,1.75-.02.68-.09.89.25.88.9-.2.22-.4.44-.6.66-.4-.02-.8-.02-1.2-.06-.96-.08-1.02.42-.73,1.21h1.66c.61.18,1.7-.26,1.34,1.21-1.45,0-2.91,0-4.36,0-.04-.4-.08-.81-.12-1.21Z"/>
    <path class="cls-53" d="M152.13,1033.1c.54,1.82,1.63,2.2,2.88,1.28.26-.19.61-.22.97-.18-.82,1.62-2.02,1.99-3.42,1.27-1.2-.62-1.77-2.17-1.34-3.65.41-1.39,1.64-2.1,3.16-1.82,1.22.23,1.89,1.27,1.89,3.1h-4.13ZM155.11,1032.24c.08-.18.16-.36.24-.54-.61-.26-1.22-.73-1.83-.73-.48,0-.95.59-1.42.92.07.12.14.23.21.35h2.8Z"/>
    <path class="cls-53" d="M170.43,1030.29v5.1c-.86.16-1.66.53-2.37.37-.86-.19-2.06-.59-2.36-1.29-.4-.93-.3-2.32.03-3.34.33-1.01,1.38-1.33,2.43-1.17.71.11,1.43.21,2.27.32ZM167.85,1034.79c1.03-.02,1.78-.86,1.69-2.03-.08-1.13-.62-1.87-1.73-1.84-1.07.03-1.66.7-1.68,1.88-.03,1.2.69,2,1.72,1.99Z"/>
    <path class="cls-53" d="M146.13,1033.9c-1.03-.37-1.73-.61-2.44-.87-.84-.3-1.13-1-.91-1.86.31-1.22,1.27-1.43,2.18-1.14.54.17.94.87,1.4,1.33-.07.06-.14.13-.21.19-.51-.22-1.02-.55-1.55-.62-.28-.04-.61.39-.92.6.23.24.43.57.71.69.49.22,1.06.24,1.55.47.96.45,1.12,1.59.41,2.41-1.05,1.2-2.72.99-4.15-.79.49,0,.85-.12,1.04.02.94.7,1.78.73,2.89-.43Z"/>
    <path class="cls-63" d="M325.37,1015.96c.17.5.48.99.48,1.49.03,7.24.02,14.47.03,21.71,0,.88.05,1.77.07,2.65-.21-.51-.6-1.02-.6-1.54-.02-8.1,0-16.21.02-24.31Z"/>
    <path class="cls-77" d="M279.47,1029.47c0-2.91,0-5.82-.03-8.73,0-.5-.2-1.01-.31-1.51.03-4.18.06-8.36.09-12.54.08-.37.22-.75.22-1.12,0-4.3,0-8.6,0-12.9.09-.01.18-.02.28-.03,0,10.99,0,21.97.03,32.96,0,.58.14,1.15.21,1.73v.6c-.07.3-.15.6-.22.9-.09.22-.18.44-.27.65Z"/>
    <path class="cls-66" d="M313.57,1029.7c0-.71.02-1.42.02-2.13,0-11.08-.02-22.16.03-33.23,0-1.4-.37-1.77-1.6-1.72-2.4.09-4.81,0-7.21,0,.74-.09,1.49-.24,2.23-.26,2.22-.03,4.44-.01,6.76-.01.03.42.08.8.08,1.17,0,11.39.01,22.78,0,34.17,0,.67-.2,1.35-.31,2.02Z"/>
    <path class="cls-78" d="M265.3,1019.84c-.11.45-.31.91-.31,1.36-.03,3.77.02,7.54-.04,11.31-.02,1.15.35,1.42,1.33,1.4,3.08-.05,6.16,0,9.24,0-.15.09-.3.26-.45.26-3.4.01-6.8.01-10.15.01-.1-.18-.18-.26-.18-.34,0-11.24,0-22.49.01-33.73.08.52.22,1.05.22,1.57.02,4.93,0,9.85.03,14.78,0,.55.23,1.09.36,1.64-.02.58-.03,1.16-.05,1.73Z"/>
    <path class="cls-63" d="M325.85,986.62c.01,7.03.03,14.07,0,21.1,0,.65-.32,1.3-.49,1.95-.02-7.21-.04-14.41-.02-21.62,0-.48.33-.96.5-1.44Z"/>
    <path class="cls-58" d="M150.77,1035.25c-2.04.84-2.62.38-2.71-1.51-.05-1.06.56-2.36-.72-3.1-.05-.03-.02-.4,0-.41,1.23-.27.54-1.43.87-2.28,1.24.12.52,1.25.78,1.78.36.26.72.51,1.08.76-.33.23-.66.47-1.08.76.13,1.47-.84,3.48,1.78,4.01Z"/>
    <path class="cls-53" d="M164.63,1030.93c-2.24-.08-2.93.38-2.97,1.83-.04,1.5.69,2.04,2.74,2.05.06.13.12.26.18.39-.44.2-.87.56-1.31.58-1.4.06-2.51-1.09-2.62-2.6-.12-1.63.68-2.99,2.01-3.17.65-.09,1.6-.54,1.96.9Z"/>
    <path class="cls-52" d="M226.2,1020.44q-2.08-.36-2.48,1.96c-.08.46-.16.93-.25,1.49,3.22.6,6.31.73,9.38.01,1.14-.27,2.21-.94,3.31-1.42-2.84,2.61-6.24,2.51-9.64,2.33-1.15-.06-2.29-.29-3.58-.46.3-1.71.55-3.19.84-4.81.91.2,1.67.38,2.44.55,0,.12-.01.24-.02.35Z"/>
    <path class="cls-61" d="M243.66,1020.73c.12-.2.24-.56.37-.56,2.13-.03,4.27-.09,6.4.03.4.02.86.69,1.14,1.18.22.39.28.95.28,1.43.01,1.26.61,1.62,1.66,1.53.76-.07,1.52-.01,2.48-.01-.3-1.73-.57-3.25-.84-4.77.09,0,.17,0,.26,0,.37,1.62.74,3.24,1.17,5.08-1.45,0-2.82.04-4.19-.04-.27-.02-.66-.47-.76-.8-.3-1.02-.48-2.08-.69-3.07h-7.28Z"/>
    <path class="cls-65" d="M279.95,1027.32c-.07-.58-.21-1.15-.21-1.73-.02-10.99-.02-21.97-.03-32.96,0-.08.01-.15.02-.23.09.2.25.4.25.61,0,11.44-.02,22.87-.04,34.31Z"/>
    <path class="cls-52" d="M196.17,1003.39c.38.31.98.54,1.09.94.96,3.25,1.84,6.52,2.72,9.8.35,1.28.67,2.58.92,3.88.09.48-.04,1.02-.07,1.53-1.1-4.49-2.17-8.98-3.34-13.45-.25-.96-.88-1.8-1.33-2.7Z"/>
    <path class="cls-52" d="M210.54,1002.4c.01.34.12.72.03,1.03-1.39,4.71-2.79,9.42-4.22,14.11-.1.31-.42.54-.64.81.89-3.1,1.75-6.2,2.68-9.29.67-2.23,1.43-4.44,2.15-6.66Z"/>
    <path class="cls-58" d="M175.08,1030.26c-.29.3-.52.76-.78.79-1.15.13-1.39.87-1.33,1.96.04.69.07,1.4-.02,2.08-.03.26-.39.48-.82.97v-5.79h2.94Z"/>
    <path class="cls-52" d="M240.65,1016.22c-.34,1.27-.65,2.55-1.03,3.8-.41,1.35-.89,2.67-1.44,4.28,1.14,0,2.15.18,3.06-.07.5-.14.86-.99,1.25-1.55.36-.52.68-1.08,1.02-1.62-.31.92-.56,1.89-.98,2.75-.19.38-.73.74-1.14.78-1.16.1-2.34.04-3.88.04,1.1-2.95,2.12-5.69,3.14-8.42Z"/>
    <path class="cls-58" d="M157.65,1030.26c1.06-.08,1.93-.14,2.8-.2.06.1.12.21.18.31-.32.23-.69.42-.96.71-.43.46-.97.93-1.14,1.51-.2.67-.01,1.47-.06,2.21-.02.31-.24.6-.36.9-.15-.28-.43-.55-.44-.83-.04-1.58-.02-3.16-.02-4.6Z"/>
    <path class="cls-61" d="M253.78,1012.67c-.64-2.75-1.34-5.48-1.9-8.25-.44-2.19-.37-2.22-2.38-2.2-1.25.01-2.51.07-3.76.11.68-.14,1.36-.34,2.05-.42.67-.07,1.35-.02,2.03-.02,1.95,0,1.93,0,2.37,2.16.47,2.3.99,4.59,1.46,6.89.11.56.09,1.14.13,1.72Z"/>
    <path class="cls-66" d="M299.65,1020.48c-.09.43-.25.86-.25,1.28-.02,3.63.01,7.25-.03,10.88-.01.98.29,1.29,1.17,1.27,2.58-.05,5.17-.03,7.76,0,.48,0,.96.14,1.44.21-3.49,0-6.99,0-10.63,0,0-2.99,0-5.96,0-8.93,0-1.35-.03-2.69.02-4.03,0-.23.34-.45.52-.68Z"/>
    <path class="cls-61" d="M220.47,1015.36c.09.2.18.4.27.6-.38,2.84-.77,5.67-1.16,8.59h-5.22c.15-.8.28-1.56.42-2.31.08,0,.16,0,.25,0,0,.63,0,1.25,0,2.08,1.13,0,2.26.07,3.37-.04.31-.03.77-.54.84-.9.46-2.66.84-5.34,1.25-8.01Z"/>
    <path class="cls-52" d="M244.93,1004.19c-.3,1.26-.5,2.56-.91,3.78-.79,2.36-1.67,4.68-2.55,7-.18.47-.54.85-.82,1.27,1.43-4.02,2.86-8.03,4.29-12.05Z"/>
    <path class="cls-61" d="M237.68,1004.34c-.04-2.1-.07-2.09-2.02-2.14-2.72-.07-5.41-.06-7.88,1.45-.14.08-.35.02-.53.02,2.62-2,5.6-2.16,8.63-1.96.7.05,1.39.29,2.08.44l-.02.03c-.09.72-.18,1.44-.26,2.16Z"/>
    <path class="cls-61" d="M212.76,1010.26c.11-.79.13-1.6.34-2.36.5-1.82,1.09-3.62,1.73-5.73-1.48,0-2.72,0-3.97,0,1.45-.13,2.9-.26,4.6-.42-.95,3-1.82,5.76-2.7,8.51Z"/>
    <path class="cls-61" d="M230.46,1007.45c.51-1.38,1.73-1.2,2.7-1.32,1.33-.16,2.68-.04,4.1-.04.09-.38.23-.93.37-1.48v2.34c-2.43-.13-4.87-.89-7.18.51Z"/>
    <path class="cls-71" d="M377.77,1022.24c-.1.32-.19.63-.29.95-1,.07-2,.13-3,.2.09-.57.18-1.13.27-1.7.91.07,1.82.15,2.73.22.1.11.19.22.29.33Z"/>
    <path class="cls-61" d="M226.1,1004.78c-.02.24.02.53-.08.7-1.47,2.46-1.08,4.78.42,7.02.15.22.19.53.29.8-2.13-1.01-2.85-6.59-.63-8.53Z"/>
    <path class="cls-52" d="M236.97,1021.45c.61-2.46.58-4.9-.1-7.33,1.46,2.05,1.5,5.06.1,7.33Z"/>
    <path class="cls-71" d="M371.21,1020.37c-.43.12-.91.42-1.27.31-.37-.12-.62-.66-.92-1.01.28-.24.53-.62.84-.68.53-.1,1.08,0,1.63.02-.09.46-.18.91-.27,1.37Z"/>
    <path class="cls-66" d="M299.42,998.03c.01.56.04,1.11.04,1.67,0,1.97,0,3.93,0,5.87.47.19.88.35,1.29.51-.48.12-.96.24-1.77.44.16-2.95.3-5.72.45-8.49Z"/>
    <path class="cls-71" d="M369.3,1021.88c.58-.02,1.16-.11,1.73-.04.25.03.48.37.71.58-.24.26-.47.71-.73.73-.84.08-1.69,0-2.54-.03.28-.41.55-.82.83-1.24Z"/>
    <path class="cls-52" d="M204.67,1015.94c-.47-2.29-.95-4.57-1.42-6.86.47,2.29.95,4.57,1.42,6.86Z"/>
    <path class="cls-52" d="M255.19,1019.23c-.46-2.11-.93-4.22-1.39-6.32.46,2.11.93,4.22,1.39,6.32Z"/>
    <path class="cls-61" d="M201.77,1002.91c-2.7-1.34-5.55-.44-8.33-.68-.1,0-.2,0-.3,0-.07,0-.14-.02-.21-.02.3-.1.6-.28.9-.29,2.06-.03,4.13-.09,6.19.03.6.04,1.17.63,1.75.97Z"/>
    <path class="cls-77" d="M367.94,1023.28c.97.09,1.94.18,2.92.28v.17h-2.48c0,.2-.02.4-.03.6,1.32,0,2.64,0,3.95,0-.28.12-.55.23-.83.35-.09,0-.18,0-.27,0-1,0-2.01,0-3.01,0-.09,0-.18-.01-.27-.02,0-.46,0-.92,0-1.39Z"/>
    <path class="cls-52" d="M227.17,1013.61c1.68.55,3.54.71,4.74,2.39-1.58-.8-3.16-1.6-4.74-2.39Z"/>
    <path class="cls-61" d="M226.2,1020.44c0-.12.01-.24.02-.35,2.04.1,4.07.15,5.98-.87-.44,1.34-1.61,1.05-2.49,1.18-1.15.18-2.33.04-3.5.04Z"/>
    <path class="cls-71" d="M365.48,1023.11h-1.66c-.29-.79-.22-1.29.73-1.21.4.03.8.04,1.2.06-.09.38-.18.76-.27,1.15Z"/>
    <path class="cls-78" d="M279.73,992.41c-.01.08-.02.15-.02.23-.09.01-.18.02-.28.03-2.11,0-4.23,0-6.34-.04-.43,0-.86-.16-1.28-.25,2.64,0,5.28.02,7.92.02Z"/>
    <path class="cls-61" d="M202.93,1007.58c-.38-1.53-.76-3.05-1.14-4.58.38,1.53.76,3.05,1.14,4.58Z"/>
    <path class="cls-66" d="M307.29,1020.57c-.12.14-.23.4-.35.4-2.12.03-4.24.03-6.35,0-.12,0-.24-.25-.36-.39,2.35,0,4.71-.01,7.06-.02Z"/>
    <path class="cls-68" d="M288.74,992.39c-1,.38-2.01.75-3.01,1.13,1-.38,2.01-.75,3.01-1.13Z"/>
    <path class="cls-77" d="M362.45,1024.33c1.45,0,2.91,0,4.36,0,0,.1.02.19.02.29-.09.02-.18.04-.27.07-.18,0-.37,0-.55,0-.09,0-.18,0-.27,0l-3.3-.35Z"/>
    <path class="cls-77" d="M374.03,1024.34c1.39,0,2.78,0,4.18,0-.24.11-.48.22-.71.33-.27,0-.54,0-.81,0-.88-.11-1.77-.23-2.65-.34Z"/>
    <path class="cls-77" d="M374.49,1023.39c1-.07,2-.13,3-.2-.49.18-.96.45-1.46.52-.65.09-1.33.01-1.99,0-.04-.08-.07-.16-.08-.26.09-.04.17-.08.26-.12.09.02.19.03.28.05Z"/>
    <path class="cls-68" d="M286.01,1020.43c-.72-.31-1.44-.62-2.16-.94.72.31,1.44.62,2.16.94Z"/>
    <path class="cls-61" d="M230.09,1009.65c-.92-.69-.97-1.35.05-1.98-.02.66-.03,1.32-.05,1.98Z"/>
    <path class="cls-61" d="M233.02,1011.22c-.82.34-1.47.2-1.83-.77.61.26,1.22.51,1.83.77Z"/>
    <path class="cls-61" d="M232.68,1016.88c.92.56.88,1.15.04,1.75-.01-.58-.03-1.17-.04-1.75Z"/>
    <path class="cls-71" d="M376.67,1019h1.37c-.46.87-.91.87-1.37,0Z"/>
    <path class="cls-52" d="M205.42,1018.41c-1.07-.02-.28-.89-.5-1.3.17.43.33.87.5,1.3Z"/>
    <path class="cls-52" d="M234.77,1012.12c-.48-.26-.95-.53-1.43-.79.48.26.95.53,1.43.79Z"/>
    <path class="cls-61" d="M245.4,1002.68c-.16.51-.32,1.02-.49,1.53.16-.51.32-1.02.49-1.53Z"/>
    <path class="cls-71" d="M355.92,1025.81c-.65.11-.98-.11-.77-.89.26.3.52.59.77.89Z"/>
    <path class="cls-52" d="M193.14,1002.22c.1,0,.2,0,.3,0,0,.31-.01.62-.02.92-.16-.22-.32-.43-.48-.65.07-.09.13-.19.2-.28Z"/>
    <path class="cls-52" d="M204.95,1017.14c-.1-.41-.2-.81-.3-1.22.1.41.2.81.3,1.22Z"/>
    <path class="cls-56" d="M325.63,1010.87c-.09.49-.17.99-.26,1.48,0-.49,0-.98,0-1.47.08,0,.17,0,.25,0Z"/>
    <path class="cls-61" d="M230.88,1010.26c-.27-.21-.54-.43-.81-.64.27.21.54.43.81.64Z"/>
    <path class="cls-68" d="M283.86,1019.51c-.28-.22-.57-.43-.85-.65.28.22.57.43.85.65Z"/>
    <path class="cls-52" d="M236.27,1022.36c.23-.31.47-.61.71-.92-.23.31-.47.61-.71.92Z"/>
    <path class="cls-61" d="M227.27,1003.66c-.21.18-.42.36-.62.54.21-.18.42-.36.62-.54Z"/>
    <path class="cls-63" d="M378.88,1041.71c.08-.21.16-.42.24-.63.07,0,.13,0,.2-.02,0,0,.1.02.1.02-.18.21-.36.42-.54.64Z"/>
    <path class="cls-52" d="M236.64,1013.84c-.19-.21-.38-.42-.58-.63.19.21.38.42.58.63Z"/>
    <path class="cls-61" d="M232.74,1018.61c-.19.21-.37.41-.56.62.19-.21.37-.41.56-.62Z"/>
    <path class="cls-66" d="M304.83,992.56c-.26.05-.52.09-.78.14.26-.05.52-.09.78-.14Z"/>
    <path class="cls-65" d="M279.73,1028.82c.07-.3.15-.6.22-.9-.07.3-.15.6-.22.9Z"/>
    <path class="cls-71" d="M376.68,1024.68c.27,0,.54,0,.81,0-.27,0-.54,0-.81,0Z"/>
    <path class="cls-52" d="M231.9,1015.99c.2.19.39.38.59.57-.2-.19-.39-.38-.59-.57Z"/>
    <path class="cls-71" d="M356.47,1024.69c.27,0,.54,0,.81,0-.27,0-.54,0-.81,0Z"/>
    <path class="cls-63" d="M325.63,1010.87c-.08,0-.17,0-.25,0,0-.2,0-.4,0-.6.1.01.19.02.29.04-.01.19-.02.37-.04.56Z"/>
    <path class="cls-71" d="M359.73,1025.77c-.18-.08-.36-.16-.55-.25.18.08.36.16.55.25Z"/>
    <path class="cls-52" d="M235.3,1012.57c-.14-.12-.27-.24-.41-.35.14.12.27.24.41.35Z"/>
    <path class="cls-52" d="M236.08,1013.23c-.14-.14-.28-.28-.42-.42.14.14.28.28.42.42Z"/>
    <path class="cls-71" d="M365.75,1024.68c.09,0,.18,0,.27,0-.09,0-.18,0-.27,0Z"/>
    <path class="cls-71" d="M366.57,1024.68c.09-.02.18-.04.27-.07-.09.02-.18.04-.27.07Z"/>
    <path class="cls-71" d="M367.94,1024.66c.09,0,.18.01.27.02-.09,0-.18-.01-.27-.02Z"/>
    <path class="cls-71" d="M371.21,1024.68c.09,0,.18,0,.27,0-.09,0-.18,0-.27,0Z"/>
    <path class="cls-71" d="M361.46,1024.64c.02-.1.02-.2.01-.3.02.07.06.14.07.21,0,.02-.05.06-.08.09Z"/>
    <path class="cls-71" d="M374.21,1023.34c-.09.04-.17.08-.26.12.09-.04.17-.08.26-.12Z"/>
    <path class="cls-71" d="M358.39,1022.08c.07.05.13.1.2.15-.09-.02-.15-.07-.2-.15Z"/>
    <path class="cls-71" d="M372.25,1025.53c-.07.05-.13.1-.2.15.05-.08.12-.12.2-.15Z"/>
    <path class="cls-71" d="M357.62,1022.23c.06-.06.13-.12.19-.17-.04.09-.1.15-.19.17Z"/>
    <path class="cls-52" d="M255.41,1019.55c-.09,0-.17,0-.26,0,0-.11.01-.22.02-.33.08.11.16.22.24.34Z"/>
    <path class="cls-68" d="M294.75,1017.99l.33-.22-.33.22Z"/>
    <path class="cls-61" d="M226.71,1013.29c.1.09.21.18.31.26-.1-.09-.21-.18-.31-.26Z"/>
    <path class="cls-77" d="M279.41,1030.01c-.03-.07-.07-.14-.08-.22,0-.02.06-.05.1-.08,0,.1-.01.2-.02.3Z"/>
    <path class="cls-52" d="M235.6,1012.76c-.1-.07-.21-.14-.31-.21.1.07.21.14.31.21Z"/>
    <path class="cls-61" d="M231.22,1010.48c-.12-.08-.24-.16-.37-.24.12.08.24.16.37.24Z"/>
    <path class="cls-61" d="M230.11,1007.71c.11-.08.22-.17.33-.25-.11.08-.22.17-.33.25Z"/>
    <path class="cls-61" d="M226.39,1004.48c-.1.11-.21.22-.31.33.1-.11.21-.22.31-.33Z"/>
    <path class="cls-61" d="M226.67,1004.18c-.1.11-.2.22-.3.33.1-.11.2-.22.3-.33Z"/>
    <path class="cls-61" d="M245.71,1002.36c-.09.08-.17.17-.26.25.08-.08.17-.17.26-.25Z"/>
    <path class="cls-61" d="M210.89,1002.15c-.12.09-.24.18-.36.27.12-.09.24-.18.36-.27Z"/>
    <path class="cls-64" d="M193.14,1002.22c-.07.09-.13.19-.2.28,0-.1-.01-.2-.02-.3.07,0,.14.01.21.02Z"/>
    <polygon class="cls-61" points="237.97 1002.15 237.98 1002.18 237.95 1002.19 237.97 1002.15"/>
    <path class="cls-63" d="M326.13,986.32c-.1.11-.2.21-.3.32.1-.11.2-.21.3-.32Z"/>
    <path class="cls-63" d="M378.6,1042.01c.1-.11.19-.21.29-.32-.1.11-.19.21-.29.32Z"/>
    <path class="cls-50" d="M379.12,987.26c.06,0,.13.01.19.02.03,4.12.06,8.25.07,12.37.01,5.02,0,10.03-.28,15.06,0-.87,0-1.74,0-2.61,0-8.28.01-16.57.02-24.85Z"/>
    <path class="cls-50" d="M379.32,1041.05c-.07.01-.13.02-.2.02,0-4.89,0-9.78,0-14.68.09.11.25.22.25.33,0,4.77-.03,9.55-.05,14.32Z"/>
    <path class="cls-48" d="M153.72,1021.67c-1.41-1.48-3.07-2.77-4.18-4.48-4.77-7.34-3.52-18.15,2.64-24.07.33-.32.76-.52,1.14-.78,3.42,2.47,5.17,6.15,6.05,10.35,1.51,7.21-.37,13.38-5.09,18.57-.15.17-.37.28-.56.41Z"/>
    <path class="cls-47" d="M265.3,1019.84c.02-.58.03-1.16.05-1.73,2.4.1,4.8.27,7.2.23.55-.01,1.09-.79,1.63-1.21.02-3.57.03-7.15.05-10.72,1.6-.08,3.21-.16,4.81-.21.06,0,.12.33.18.5-.03,4.18-.06,8.36-.09,12.54-1.09.45-2.17.9-3.26,1.35-2.62,0-5.25-.02-7.88-.03-.9-.23-1.8-.47-2.69-.7Z"/>
    <path class="cls-78" d="M274.23,1006.4c-.02,3.57-.03,7.15-.05,10.72-.06-2.71-.15-5.41-.18-8.12,0-.87.15-1.73.23-2.6Z"/>
    <path class="cls-74" d="M361.96,1006.7c.79-1.4,2.1-1.7,3.12-.85.88.73,1.28,2.15,1.86,3.19v-3.22c1.73-.69,2.81-.48,4.18.83.16-1.83,1.46-.97,2.3-1.13.84-.16,1.12.42,1.14,1.24.05,1.69.1,3.38.17,5.07.04.93.12,1.86.2,2.97-1.42-.27-3.07.86-3.91-.73-.85.3-1.5.63-2.18.73-.8.11-1.65.12-2.45-.02-.48-.08-1.01-.43-1.32-.83-.55-.71-1.1-.86-1.5-.04-.44.9-1.08.91-1.83.9-1.18-.01-2.37.08-3.55-.01-.91-.07-1.81-.34-2.81-.54-.54.94-2.92.91-3.78-.04-.74.23-1.31.56-1.88.56-4,.05-8,.03-12,.04-1.8,0-3.6.06-5.39-.04-.53-.03-1.11-.42-1.55-.81-.45-.4-.97-1.02-1.27-.19-.45,1.24-1.27,1.03-2.1,1.04-.54,0-1.08,0-1.84,0,.12-.66.15-1.18.31-1.64.75-2.19,1.5-4.38,2.34-6.53.18-.47.71-1.06,1.12-1.09.82-.07,1.86-.49,2.34.84.35.95.8,1.85,1.52,2.7-.05-.81-.14-1.62-.12-2.42,0-.37.12-.93.35-1.06,1.07-.59,3.16,0,3.97,1.1,1.2-1.76,2.8-1.05,4.39-.98,2.3.1,4.61-.21,6.92-.21,1.95,0,4.01-.52,5.75,1.07.13.12.54.03.74-.1,2.27-1.51,4.51-1.45,6.78.19ZM334.35,1013.49c.09.01.18.02.27.03.3-.36.81-.68.87-1.08.13-.88.04-1.8.04-2.7.62.93.92,1.9,1.3,2.82.16.39.5.69.75,1.03.27-.34.6-.64.79-1.02.47-.95.89-1.93,1.32-2.9-.01,1-.03,1.99-.04,2.99.05.29.11.58.16.87h1.03v-6.89c-.59.05-1.08.09-1.57.13-.56,1.43-1.11,2.86-1.69,4.37-.56-1.43-1.04-2.68-1.53-3.94-.57-.16-1.13-.31-1.7-.47-.02.33-.03.65-.05.98-.02,1.86-.04,3.72-.06,5.58-.02.03-.05.07-.07.1.06.03.12.07.18.1ZM347.44,1012.37c-1.03-.14-2.06-.29-3.2-.45.02-.28,0-.87.06-.88.91-.17,1.82-.26,2.83-.38-.05-.46-.09-.86-.1-.96-.93-.86-2.44.55-2.94-1.58h3.07c.08-.18.17-.35.25-.53,0-.2,0-.4.01-.6-1.5-.15-2.99-.31-4.48-.46v7.01h4.48v-1.17ZM352.63,1006.73h-3.61v6.76h1.22v-2.29c.84-.24,1.37.1,1.63,1.02.34,1.2,1.02,1.74,2.27,1.22-.24-.45-.48-.87-.69-1.29-.21-.42-.41-.85-.61-1.25,1.72-1.64,1.61-3.2-.21-4.16ZM368.2,1007.29v6.23h1.15c.08-1.33.15-2.59.22-3.85.65.97,1.37,1.9,1.94,2.92.53.95,1.17,1.23,2.07.89v-6.72h-1.43v4.16c-.93-1.51-1.68-2.73-2.43-3.95-.52.01-1.04.03-1.56.04.01.1.03.19.04.29ZM361.41,1008.96c-.81-2.17-3.03-2.99-4.86-1.92-.93.54-1.65,2.54-1.38,3.81.36,1.64,1.46,2.58,2.79,2.75,1.24.15,2.45-.78,3.7-.04.16.1.62-.11.77-.33,1.02-1.4,2.8-1.26,3.5.31h1.45c-.85-2.35-1.68-4.63-2.45-6.75-1.38-.52-1.87.18-2.19,1.35-.33,1.19-.81,2.33-1.23,3.47-.5-.28-.93-.53-1.45-.83-.21,1.64-1.32,1.39-2.21,1.24-.97-.16-1.53-1.03-1.33-2.06.13-.65.66-1.56,1.16-1.7,1.05-.28,2.33-.44,2.52,1.47.46-.3.8-.52,1.21-.77ZM333.25,1013.55c-.84-2.32-1.65-4.57-2.48-6.85h-1.54c-.8,2.27-1.61,4.54-2.53,7.14.74-.28,1.37-.31,1.64-.66.99-1.31,2.8-1.18,3.46.38h1.45Z"/>
    <path class="cls-47" d="M249.86,1015.92h-4.45c.92-2.44,1.81-4.8,2.81-7.47.58,2.63,1.09,4.98,1.64,7.47Z"/>
    <path class="cls-78" d="M268,1020.55c2.63,0,5.25.02,7.88.03-.21.15-.41.43-.62.43-2.21.03-4.43.03-6.64,0-.21,0-.41-.3-.61-.45Z"/>
    <path class="cls-57" d="M342.18,1020.38v1.48h-2.52c-.03.48-.05.83-.07,1.33h3.13c.02.54.04.95.06,1.4h-4.47v-7.08h4.41v1.41h-3.07v1.46h2.53Z"/>
    <path class="cls-65" d="M343.82,1017.53c1.78-.77,1.99,1.05,2.75,2.12.79-.94.83-2.89,2.62-2.11,0,.04.05.17.01.21-1.84,2.27-1.83,4.5.34,6.66q-1.43.29-3.05-2.2c-.95.66-.7,3.07-2.86,2.2.56-1.16,1.49-2.25,1.52-3.38.03-1.13-.84-2.29-1.34-3.51Z"/>
    <path class="cls-65" d="M350.33,1022.83c0-1.09.02-2.18.02-3.27.28-2.33,1.9-1.79,3.25-1.81.22,0,.45,0,.67,0h0c.11.08.22.16.33.24,0,0-.02-.01-.02-.01.1.11.21.22.31.33.97,2.22.08,3.85-2.12,3.88-.4,0-.81.04-1.21.05-.17.65-.35,1.31-.55,2.06-.28-.59-.49-1.04-.7-1.48ZM351.52,1018.75c.06.9.08,1.38.13,2.12.77-.2,1.45-.33,2.09-.59.12-.05.14-.87.07-.9-.67-.25-1.38-.4-2.29-.64Z"/>
    <path class="cls-77" d="M366.84,1017.76c-.81,0-1.64.1-2.44-.03-1.46-.23-1.8.47-1.69,1.92.07.85-.14,1.73-.23,2.59v-4.89c1.44.14,2.9.27,4.36.41Z"/>
    <path class="cls-54" d="M354.28,1017.75c-.22,0-.45,0-.67,0-1.36.02-2.97-.52-3.25,1.81-.03-.63-.06-1.27-.11-2.24,1.43.15,2.73.29,4.04.43Z"/>
    <path class="cls-54" d="M350.33,1022.83c.21.45.42.89.7,1.48.2-.76.38-1.41.55-2.06,0,.73,0,1.46,0,2.34-.39.02-.8.05-1.35.08.04-.7.07-1.27.1-1.84Z"/>
    <path class="cls-77" d="M366.58,1018.9c.09-.08.18-.17.26-.25-.09.08-.18.17-.26.25Z"/>
    <path class="cls-54" d="M354.91,1018.31c-.1-.11-.21-.22-.31-.33.1.11.21.22.31.33Z"/>
    <path class="cls-54" d="M354.62,1017.99c-.11-.08-.22-.16-.33-.24.11.08.22.16.33.24Z"/>
    <path class="cls-71" d="M357.57,1020.94v-2.07c.78.13,1.52.24,2.25.42.05.01.06.82-.06.88-.64.3-1.33.49-2.19.77Z"/>
    <path class="cls-71" d="M179.49,1032.42c.04,1.53-.63,2.33-1.68,2.37-1,.04-1.8-.81-1.82-1.93-.02-1.08.81-2.01,1.81-1.98,1.09.04,1.61.73,1.7,1.54Z"/>
    <path class="cls-76" d="M377.77,1022.24c-.1-.11-.19-.22-.29-.33.1.11.19.22.29.33Z"/>
    <path class="cls-64" d="M220.47,1015.36c-.4,2.67-.78,5.35-1.25,8.01-.06.36-.53.87-.84.9-1.11.11-2.24.04-3.37.04,0-.83,0-1.45,0-2.08.54-2.73,1.14-5.45,1.61-8.2.6-3.49,1.13-6.99,1.64-10.49.14-.97.49-1.4,1.41-1.34.93.06,1.87.01,2.89.01-.72,4.52-1.41,8.83-2.09,13.15Z"/>
    <path class="cls-47" d="M140.36,1032.85c0,1.08-.82,1.93-1.85,1.93-1.05,0-1.82-.82-1.73-1.98.08-1.11.63-1.84,1.72-1.89.98-.04,1.86.9,1.86,1.95Z"/>
    <path class="cls-74" d="M155.11,1032.24h-2.8c-.07-.12-.14-.23-.21-.35.47-.33.95-.92,1.42-.92.61,0,1.22.46,1.83.73-.08.18-.16.36-.24.54Z"/>
    <path class="cls-47" d="M167.85,1034.79c-1.03.02-1.74-.78-1.72-1.99.02-1.18.61-1.86,1.68-1.88,1.1-.03,1.65.71,1.73,1.84.08,1.16-.66,2.01-1.69,2.03Z"/>
    <path class="cls-57" d="M361.41,1008.96c-.4.26-.75.48-1.21.77-.19-1.9-1.47-1.75-2.52-1.47-.5.14-1.03,1.05-1.16,1.7-.21,1.03.35,1.9,1.33,2.06.89.15,2,.4,2.21-1.24.52.3.96.54,1.45.83.41-1.15.9-2.28,1.23-3.47.32-1.17.81-1.87,2.19-1.35.77,2.12,1.6,4.4,2.45,6.75-.55,0-1,0-1.45,0-.71-1.57-2.49-1.72-3.5-.32-.15.21-.61.42-.77.33-1.25-.74-2.46.19-3.7.04-1.32-.16-2.43-1.11-2.79-2.75-.28-1.27.44-3.27,1.38-3.81,1.83-1.07,4.06-.25,4.86,1.92ZM363.99,1008.46c-.32,1-.52,1.65-.75,2.37h1.68c-.29-.73-.55-1.38-.93-2.37Z"/>
    <path class="cls-54" d="M339.69,1009.67c-.44.97-.85,1.95-1.32,2.9-.19.38-.52.69-.79,1.02-.26-.34-.59-.64-.75-1.03-.38-.93-.68-1.89-1.3-2.82,0,.9.09,1.82-.04,2.7-.06.4-.57.72-.87,1.08,0-1.62.09-3.26-.02-4.87-.09-1.31.27-1.79,1.45-1.46.49,1.26.98,2.51,1.53,3.94.58-1.5,1.14-2.94,1.69-4.37.42.15.83.3,1.36.49,0,1.58.06,3.21-.04,4.83-.03.5-.51.97-.78,1.45-.05-.29-.11-.58-.16-.87.59-.5.62-1.94.04-2.99Z"/>
    <path class="cls-65" d="M333.25,1013.55h-1.45c-.66-1.56-2.47-1.69-3.46-.38-.27.35-.89.38-1.64.66.92-2.6,1.73-4.87,2.53-7.14h1.54c.83,2.29,1.64,4.53,2.48,6.85ZM329.97,1008.48c-.35.96-.58,1.61-.85,2.36h1.67c-.25-.71-.46-1.33-.82-2.36Z"/>
    <path class="cls-65" d="M369.72,1006.95c.75,1.22,1.5,2.44,2.43,3.95v-4.16h1.43v6.72c-.91.34-1.54.07-2.07-.89-.57-1.02-1.29-1.95-1.94-2.92,0,0,0,.03,0,.03-.07-.1-.14-.19-.21-.29-.18,1.22-.37,2.45-.55,3.67-.11,0-.22-.01-.34-.02,0-.81.03-1.63,0-2.44-.06-1.11-.18-2.22-.27-3.33-.01-.1-.03-.19-.04-.29.52-.01,1.04-.03,1.56-.04Z"/>
    <path class="cls-65" d="M352.63,1006.73c1.82.95,1.93,2.52.21,4.16.19.4.39.83.61,1.25.22.42.45.84.69,1.29-1.25.52-1.93-.02-2.27-1.22-.26-.91-.78-1.26-1.63-1.02-.18.64-.36,1.28-.54,1.92-.31-1.9-.33-3.77-.27-5.65,0-.17.53-.4.84-.46.78-.14,1.57-.19,2.36-.27ZM350.16,1007.81c.12,1,.16,1.42.24,2.04.8-.5,2,.47,2.12-1.06.02-.22-1.31-.56-2.35-.98Z"/>
    <path class="cls-57" d="M347.43,1006.99c0,.2,0,.4-.01.6-.88,0-1.75,0-2.63,0,0,.06.01.12.02.18.78.12,1.57.23,2.35.35h-3.07c.5,2.13,2.01.72,2.94,1.58.01.1.05.5.1.96-1.01.12-1.93.21-2.83.38-.07.01-.04.6-.06.88,1.14.16,2.17.3,3.2.45-.74,1.59-2.07.66-3.13.88-.69.14-.98-.25-.96-1.03.03-1.39.03-2.79,0-4.18-.02-.76.23-1.09.95-1.06,1.04.04,2.09,0,3.14,0Z"/>
    <path class="cls-65" d="M347.43,1006.99c-1.05,0-2.09.03-3.14,0-.72-.03-.96.3-.95,1.06.03,1.39.03,2.79,0,4.18-.02.77.27,1.17.96,1.03,1.06-.22,2.4.71,3.13-.88v1.17h-4.48v-7.01c1.48.15,2.98.3,4.48.46Z"/>
    <path class="cls-55" d="M368.2,1007.29c.09,1.11.21,2.22.27,3.33.04.81,0,1.63,0,2.44.11,0,.22.01.34.02.18-1.22.37-2.45.55-3.67.07.1.14.19.21.29,0,0,0-.03,0-.03-.07,1.26-.14,2.52-.22,3.85h-1.15v-6.23Z"/>
    <path class="cls-77" d="M352.63,1006.73c-.79.09-1.58.14-2.36.27-.31.05-.83.29-.84.46-.06,1.87-.04,3.75.27,5.65.18-.64.36-1.28.54-1.92,0,.74,0,1.48,0,2.29h-1.22v-6.76c1.27,0,2.44,0,3.61,0Z"/>
    <path class="cls-55" d="M336.04,1007.19c-1.17-.33-1.53.15-1.45,1.46.11,1.62.02,3.25.02,4.87-.09-.01-.18-.02-.27-.03,0-.09-.04-.16-.11-.2.02-1.86.04-3.72.06-5.58.02-.33.03-.65.05-.98.57.16,1.13.31,1.7.47Z"/>
    <path class="cls-77" d="M339.81,1013.53c.27-.48.75-.95.78-1.45.1-1.62.04-3.25.04-4.83-.53-.19-.94-.34-1.36-.49.49-.04.99-.08,1.57-.13v6.89c-.34,0-.69,0-1.03,0Z"/>
    <path class="cls-77" d="M339.69,1009.67c.57,1.05.55,2.5-.04,2.99.01-1,.03-1.99.04-2.99Z"/>
    <path class="cls-65" d="M347.17,1008.12c-.78-.12-1.57-.23-2.35-.35,0-.06-.01-.12-.02-.18.88,0,1.75,0,2.63,0-.08.18-.17.35-.25.53Z"/>
    <path class="cls-55" d="M369.72,1006.95c-.52.01-1.04.03-1.56.04.52-.01,1.04-.03,1.56-.04Z"/>
    <path class="cls-54" d="M334.34,1006.72c-.02.33-.03.65-.05.98.02-.33.03-.65.05-.98Z"/>
    <path class="cls-54" d="M334.23,1013.29c.07.05.1.11.11.2-.06-.03-.12-.07-.18-.1.02-.03.05-.07.07-.1Z"/>
    <path class="cls-74" d="M351.52,1018.75c.91.24,1.61.39,2.29.64.07.03.05.85-.07.9-.63.26-1.31.38-2.09.59-.05-.74-.07-1.22-.13-2.12Z"/>
    <path class="cls-74" d="M363.99,1008.46c.39.99.64,1.64.93,2.37h-1.68c.23-.73.43-1.37.75-2.37Z"/>
    <path class="cls-74" d="M329.97,1008.48c.36,1.02.57,1.65.82,2.36h-1.67c.27-.75.5-1.4.85-2.36Z"/>
    <path class="cls-74" d="M369.58,1009.7c-.07-.1-.14-.19-.21-.29.07.1.14.19.21.29Z"/>
    <path class="cls-74" d="M350.16,1007.81c1.05.42,2.37.77,2.35.98-.12,1.53-1.31.56-2.12,1.06-.07-.63-.12-1.04-.24-2.04Z"/>
  </g>
  <rect class="cls-69" x="1240.9" y="70.57" width="263.48" height="263.48" rx="19.94" ry="19.94"/>
  <text class="cls-27" transform="translate(1229.64 375.46)"><tspan x="0" y="0">決</tspan><tspan class="cls-18" x="37" y="0">済</tspan><tspan class="cls-3" x="73.26" y="0">ゲ</tspan><tspan class="cls-80" x="109.89" y="0">ー</tspan><tspan class="cls-35" x="141.34" y="0">ト</tspan><tspan class="cls-1" x="173.9" y="0">ウ</tspan><tspan class="cls-44" x="204.24" y="0">ェ</tspan><tspan class="cls-41" x="237.54" y="0">イ</tspan></text>
  <g>
    <g>
      <path class="cls-12" d="M1359.45,211.26c-6.59,1.52-12.86,4.15-18.39,7.71"/>
      <path class="cls-12" d="M1404.22,218.98c-5.54-3.56-11.8-6.2-18.39-7.71"/>
      <path class="cls-12" d="M1430.53,255.96c-1.52-6.59-4.15-12.86-7.71-18.39"/>
      <path class="cls-12" d="M1322.47,237.57c-3.56,5.54-6.2,11.8-7.71,18.39"/>
      <path class="cls-12" d="M1401.98,272.94c.23-1.21.3-2.5.3-3.79,0-16.45-13.19-29.65-29.65-29.65s-29.65,13.19-29.65,29.65c0,1.29.08,2.58.3,3.79"/>
      <polyline class="cls-12" points="1359.45 211.26 1359.45 193.33 1385.83 193.33 1385.83 211.26"/>
      <polyline class="cls-12" points="1404.22 218.98 1416.95 206.19 1435.6 224.84 1422.81 237.57"/>
      <polyline class="cls-12" points="1430.49 255.96 1448.46 255.96 1448.46 272.94"/>
      <polyline class="cls-12" points="1296.82 272.94 1296.82 255.96 1314.79 255.96"/>
      <polyline class="cls-12" points="1322.47 237.57 1309.68 224.84 1328.34 206.19 1341.06 218.98"/>
    </g>
    <path class="cls-12" d="M1285.45,128.88h174.39v143.06c0,.55-.45,1-1,1h-172.39c-.55,0-1-.45-1-1v-143.06h0Z"/>
    <line class="cls-12" x1="1285.45" y1="159.21" x2="1459.83" y2="159.21"/>
    <circle class="cls-72" cx="1308.19" cy="144.05" r="3.79"/>
    <circle class="cls-72" cx="1323.36" cy="144.05" r="3.79"/>
    <circle class="cls-72" cx="1338.52" cy="144.05" r="3.79"/>
  </g>
  <rect class="cls-70" x="141.88" y="67.55" width="224.53" height="224.53" rx="19.94" ry="19.94"/>
  <text class="cls-27" transform="translate(184.53 345.77)"><tspan class="cls-17" x="0" y="0">イ</tspan><tspan class="cls-36" x="34.04" y="0">シ</tspan><tspan class="cls-33" x="64.75" y="0">ュ</tspan><tspan class="cls-15" x="96.57" y="0">ア</tspan></text>
  <path class="cls-46" d="M172.85,153.84h162.58v-7.98l-81.28-39.19-81.3,39.19v7.98h0ZM170.96,240.09h11.02v-68.72h-3.21c-1.03,0-1.86-.84-1.86-1.87v-11.89h-5.95c-1.04,0-1.87-.84-1.87-1.88v-11.05h0c0-.69.39-1.36,1.06-1.69l83.18-40.1c.5-.24,1.1-.26,1.64,0l83.04,40.04c.7.28,1.19.96,1.19,1.75v11.05c0,1.04-.85,1.88-1.89,1.88h-5.94v11.89c0,1.03-.84,1.87-1.86,1.87h-3.21v68.72h11.01c1.04,0,1.89.85,1.89,1.89v11.59c0,1.04-.85,1.88-1.89,1.88h-166.35c-1.04,0-1.87-.84-1.87-1.88v-11.59c0-1.03.84-1.89,1.87-1.89h0ZM219.49,157.61v11.89c0,1.03-.83,1.87-1.86,1.87h-3.21v68.72h23.5v-68.72h-3.2c-1.03,0-1.86-.84-1.86-1.87v-11.89h-13.37ZM275.43,157.61v11.89c0,1.03-.83,1.87-1.85,1.87h-3.22v68.72h23.51v-68.72h-3.21c-1.02,0-1.85-.84-1.85-1.87v-11.89h-13.38ZM327.66,157.61h-35.15v10.01h35.15v-10.01h0ZM271.71,157.61h-35.15v10.01h35.15v-10.01h0ZM215.78,157.61h-35.16v10.01h35.16v-10.01h0ZM185.74,240.09h24.9v-68.72h-24.9v68.72h0ZM241.69,240.09h24.91v-68.72h-24.91v68.72h0ZM297.63,240.09h24.92v-68.72h-24.92v68.72h0ZM335.43,243.85h-162.58v7.83h162.58v-7.83Z"/>
  <g>
    <line class="cls-7" x1="395" y1="765.5" x2="830.04" y2="765.5"/>
    <polygon class="cls-29" points="825.37 781.46 853 765.5 825.37 749.54 825.37 781.46"/>
  </g>
  <g>
    <line class="cls-8" x1="417.96" y1="823.5" x2="849" y2="823.5"/>
    <polygon class="cls-28" points="422.63 839.46 395 823.5 422.63 807.54 422.63 839.46"/>
  </g>
  <text class="cls-26" transform="translate(530.61 752.71)"><tspan x="0" y="0">資金の解放</tspan></text>
  <text class="cls-25" transform="translate(480.64 861.96)"><tspan class="cls-38" x="0" y="0">ク</tspan><tspan class="cls-20" x="24.9" y="0">リア</tspan><tspan class="cls-32" x="77.1" y="0">リ</tspan><tspan class="cls-39" x="102.9" y="0">ン</tspan><tspan class="cls-42" x="129.6" y="0">グ</tspan><tspan class="cls-19" x="158.1" y="0">プ</tspan><tspan class="cls-23" x="187.5" y="0">ロ</tspan><tspan class="cls-31" x="216.6" y="0">セ</tspan><tspan class="cls-13" x="244.8" y="0">ス</tspan></text>
  <text class="cls-25" transform="translate(596.6 375.71)"><tspan class="cls-43" x="0" y="0">キ</tspan><tspan class="cls-34" x="27" y="0">ャ</tspan><tspan class="cls-81" x="53.4" y="0">プ</tspan><tspan class="cls-40" x="83.1" y="0">チ</tspan><tspan class="cls-37" x="109.8" y="0">ャ</tspan><tspan class="cls-42" x="134.7" y="0">し</tspan><tspan x="163.2" y="0">た取</tspan><tspan class="cls-19" x="223.2" y="0">引を</tspan><tspan x="282" y="0">送信</tspan></text>
  <g>
    <path class="cls-28" d="M1568.47,81.3l.48-.03,1.05.06c0,.18-.03.48-.03.72-.24,13.83-.48,18.24-1.35,19.5-.66.93-1.26,1.14-3.45,1.14-.6,0-1.26-.03-1.92-.06-.06-.6-.24-1.44-.57-2.01,1.38.12,2.64.12,3.15.12.48,0,.75-.09,1.02-.48.63-.87.93-5.01,1.14-16.98h-4.92c-.27,7.98-1.23,15.42-5.01,19.98-.33-.45-1.05-1.02-1.56-1.32,3.48-4.08,4.35-10.98,4.59-18.66h-4.11v-1.98h4.17c.03-1.92.03-3.9.03-5.88l2.76.15c-.06.27-.27.45-.75.51,0,1.74-.03,3.48-.06,5.22h5.34ZM1572.83,78.99h10.2v23.34h-2.01v-2.01h-6.24v2.25h-1.95v-23.58ZM1574.77,98.37h6.24v-17.43h-6.24v17.43Z"/>
    <path class="cls-28" d="M1610.77,100.59h3.66v1.8h-27.63v-1.8h3.69v-7.56h20.28v7.56ZM1590.5,88.65v1.68h-1.86v-13.56h9.39v11.88h-7.53ZM1596.17,78.45h-5.67v3.42h5.67v-3.42ZM1590.5,87h5.67v-3.51h-5.67v3.51ZM1592.42,94.71v5.88h4.17v-5.88h-4.17ZM1610.44,86.88h-7.65c-.54,2.01-1.62,3.99-3.72,5.49-.24-.39-.96-1.08-1.35-1.38,3.24-2.34,3.69-5.61,3.69-8.34v-6.33h11.04v13.32c0,2.16-1.02,2.34-5.25,2.34-.12-.54-.45-1.32-.72-1.83.69.03,1.32.03,1.86.03,2.01,0,2.1,0,2.1-.57v-2.73ZM1602.67,94.71h-4.23v5.88h4.23v-5.88ZM1603.27,82.41c0,.81,0,1.77-.18,2.85h7.35v-2.85h-7.17ZM1610.44,78h-7.17v2.79h7.17v-2.79ZM1608.79,94.71h-4.23v5.88h4.23v-5.88Z"/>
    <path class="cls-28" d="M1632.5,79.41h11.82v1.92h-23.19v6c0,4.62-.39,11.37-2.97,15.96-.36-.36-1.26-.93-1.74-1.17,2.46-4.35,2.7-10.44,2.7-14.79v-7.92h11.31v-4.02l2.67.18c-.03.21-.18.36-.6.42v3.42ZM1634.08,82.2c-.03.21-.18.36-.6.42v3.18h10.41v1.83h-10.41v4.59h8.31v11.01h-2.04v-1.14h-13.68v1.23h-1.98v-11.1h7.38v-10.2l2.61.18ZM1639.75,100.26v-6.21h-13.68v6.21h13.68Z"/>
    <path class="cls-28" d="M1662.34,80.85c-.12.27-.36.48-.75.48-1.08,9.33-4.2,17.46-9.18,17.46-2.52,0-4.8-2.52-4.8-7.26,0-7.2,5.61-13.23,13.5-13.23,8.67,0,12.42,5.49,12.42,11.34,0,7.14-4.14,10.59-11.4,12.27-.27-.48-.78-1.29-1.26-1.83,6.9-1.32,10.44-4.68,10.44-10.35,0-4.95-3.18-9.45-10.2-9.45-.3,0-.63.03-.9.06l2.13.51ZM1659.46,80.46c-6.06.75-9.81,5.76-9.81,11.01,0,3.21,1.38,5.22,2.82,5.22,3.63,0,6.24-8.01,6.99-16.23Z"/>
    <path class="cls-28" d="M1689.04,97.71l.09,1.71c-4.14.81-8.49,1.65-11.22,2.16-.03.24-.21.36-.42.42l-.69-2.28c1.5-.21,3.36-.51,5.4-.87v-8.85h-5.13v-1.83h5.13v-3.42h-3.39v-.72c-.36.39-.72.78-1.11,1.14-.33-.45-.96-1.08-1.41-1.35,2.79-2.58,4.86-5.88,6-8.46l2.46.39c-.06.21-.24.36-.6.36v.03c1.98,1.59,4.29,3.72,5.46,5.13-.72.81-.96,1.17-1.23,1.56-1.08-1.38-3.18-3.42-5.1-5.07-.93,1.65-2.1,3.48-3.57,5.22h7.95v1.77h-3.6v3.42h4.89v1.83h-4.89v8.55l4.98-.84ZM1679.21,97.68c-.12-1.56-.69-3.9-1.35-5.7l1.5-.39c.69,1.8,1.26,4.11,1.41,5.64l-1.56.45ZM1688.83,92.07c-.09.18-.3.27-.6.27-.42,1.44-1.2,3.66-1.83,5.07-.03,0-1.38-.51-1.38-.51.6-1.47,1.38-3.9,1.74-5.55l2.07.72ZM1697.2,89.76c.42,1.74.93,3.39,1.62,4.89,1.41-1.08,3.03-2.49,4.05-3.6l1.74,1.56c-.15.15-.39.21-.66.15-1.11.99-2.91,2.4-4.38,3.42,1.32,2.43,3.09,4.32,5.31,5.43-.45.39-1.05,1.14-1.32,1.68-4.26-2.43-6.78-7.41-8.07-13.53h-3v10.17c1.95-.33,4.08-.75,6.21-1.14l.15,1.77c-3.48.78-7.08,1.56-9.36,2.01-.06.24-.21.39-.42.45l-.81-2.34,2.31-.39v-23.61h12.51v13.08h-5.88ZM1701.13,78.51h-8.64v3.75h8.64v-3.75ZM1692.5,84.03v3.87h8.64v-3.87h-8.64Z"/>
    <path class="cls-28" d="M1715.9,76.38c-.06.15-.3.27-.66.21-1.74,2.19-4.86,5.04-7.53,6.93-.24-.45-.81-1.23-1.17-1.62,2.52-1.65,5.49-4.32,7.02-6.51l2.34.99ZM1711.31,103.26v-13.2c-1.14,1.26-2.28,2.43-3.42,3.42-.27-.39-.9-1.2-1.29-1.56,2.85-2.37,6.15-6.3,8.22-10.05l2.34.96c-.09.18-.33.3-.69.24-.9,1.5-1.95,3.03-3.09,4.5l.54.18c-.06.18-.24.33-.6.39v15.12h-2.01ZM1734.49,86.01v1.95h-4.77v12.69c0,2.52-.96,2.58-7.02,2.58-.09-.57-.36-1.38-.66-1.98,1.32.03,2.55.06,3.48.06,1.95,0,2.16,0,2.16-.69v-12.66h-10.44v-1.95h17.25ZM1733.35,77.28v1.92h-14.97v-1.92h14.97Z"/>
    <path class="cls-28" d="M1739.03,78.06h23.64v24.84h-2.16v-2.58h-19.41v2.73h-2.07v-24.99ZM1741.1,98.28h19.41v-18.21h-19.41v18.21Z"/>
    <path class="cls-28" d="M1794.22,80.73h-23.34v6.57c0,4.65-.39,11.43-2.85,16.05-.39-.36-1.23-.93-1.71-1.14,2.37-4.38,2.58-10.5,2.58-14.91v-8.46h11.52v-3.45l2.67.18c-.03.21-.18.36-.6.42v2.85h11.73v1.89ZM1783.72,95.88v4.77h10.59v1.8h-23.25v-1.8h10.68v-4.77h-8.49v-1.8h8.49v-12.12l2.55.15c-.03.21-.18.36-.57.42v11.55h8.76v1.8h-8.76ZM1779.85,91.89c-.72-.99-2.04-2.4-3.33-3.66-.87,1.86-2.04,3.42-3.51,4.53-.33-.36-.96-.9-1.41-1.17,2.52-1.8,4.05-5.1,4.68-9.06l2.34.36c-.03.21-.21.33-.57.36-.21,1.17-.51,2.28-.87,3.33,1.47,1.29,3.12,2.94,3.93,3.99l-1.26,1.32ZM1793.17,92.55c-.99-1.17-2.82-2.91-4.56-4.41-.87,1.71-2.04,3.15-3.45,4.14-.3-.33-.9-.87-1.35-1.14,2.49-1.68,4.05-4.8,4.71-8.61l2.31.39c-.06.21-.24.33-.57.36-.21,1.11-.51,2.19-.9,3.21,1.83,1.5,3.99,3.45,5.1,4.71l-1.29,1.35Z"/>
    <path class="cls-28" d="M1796.69,89.7c1.26-1.2,4.35-4.47,5.94-6.18,2.31-2.55,3.45-3.12,4.95-3.12,1.8,0,3.09,1.14,5.76,4.32,2.13,2.58,7.05,8.07,11.31,11.97l-1.59,1.86c-4.11-3.72-9-9.33-10.8-11.58-2.55-3.12-3.48-4.32-4.71-4.32s-2.13.99-3.96,3.06c-1.02,1.17-3.45,3.84-4.74,5.28.03.39-.09.69-.33.84l-1.83-2.13Z"/>
    <path class="cls-28" d="M1839.88,77.25h2.04c0,5.37.69,17.01,12.81,24.21-.45.36-1.26,1.2-1.62,1.71-7.8-4.74-11.04-11.61-12.36-17.46-2.16,8.01-6.06,14.01-12.36,17.49-.39-.42-1.17-1.17-1.68-1.53,6.63-3.45,10.5-9.84,12.39-18.57l1.23.3c-.24-1.5-.36-2.88-.39-4.08h-7.65v-2.04h7.59v-.03Z"/>
    <path class="cls-28" d="M1871.54,92.76v7.68h12.12v1.8h-26.04v-1.8h11.82v-7.68h-10.47v-1.8h10.47v-4.2h-6.45v-1.71c-1.62,1.26-3.36,2.43-5.1,3.42-.3-.45-.84-1.17-1.26-1.59,5.25-2.79,10.41-7.59,12.78-11.64l2.94.18c-.06.24-.3.39-.6.45,2.91,4.02,8.31,8.37,12.96,10.62-.48.51-.99,1.17-1.35,1.77-4.68-2.58-10.05-6.96-12.87-10.92-1.59,2.43-4.26,5.16-7.35,7.59h15.09v1.83h-6.69v4.2h10.71v1.8h-10.71ZM1864.46,99.93c-.39-1.53-1.59-3.9-2.82-5.67l1.65-.63c1.26,1.68,2.52,4.02,2.94,5.55l-1.77.75ZM1879.87,94.53c-.09.18-.33.27-.66.24-.87,1.56-2.31,3.78-3.45,5.22l-1.5-.75c1.11-1.5,2.58-3.96,3.36-5.7l2.25.99Z"/>
    <path class="cls-28" d="M1570.16,111.51c-3.27,2.73-5.94,7.74-5.94,13.8s2.76,11.16,5.94,13.8v.15h-1.8c-3.03-2.73-5.73-7.77-5.73-13.95s2.7-11.22,5.73-13.95h1.8v.15Z"/>
    <path class="cls-28" d="M1599.34,127.77v1.98h-12.69v6.69c0,1.53-.45,2.13-1.53,2.46-1.11.36-3.06.39-6.3.36-.15-.57-.54-1.44-.87-2.01,1.44.06,2.82.06,3.87.06,2.55,0,2.76,0,2.76-.87v-6.69h-12.63v-1.98h12.63v-5.07h-10.62v-1.92h10.62v-4.86c-3.3.39-6.78.69-9.99.87-.06-.51-.3-1.29-.54-1.74,7.26-.48,15.99-1.44,20.43-3.03l1.74,1.71c-.09.06-.18.09-.36.09-.06,0-.15,0-.27-.03-2.16.72-5.1,1.29-8.34,1.77-.06.21-.21.3-.6.36v4.86h10.98v1.92h-10.98v5.07h12.69Z"/>
    <path class="cls-28" d="M1608.17,124.77v-3.93c-1.53,1.86-3.57,3.6-5.52,4.65-.24-.45-.72-1.14-1.11-1.53,2.22-.96,4.65-2.97,6.09-5.07h-5.91v-1.71h6.45v-5.76l2.46.15c-.03.21-.18.36-.57.39v5.22h6.36v1.71h-6.36v.69c1.23.72,4.44,2.79,5.25,3.39l-1.17,1.47c-.72-.69-2.64-2.19-4.08-3.24v3.57h-1.89ZM1616.54,129.48h-2.7c-.45,1.86-1.14,3.42-2.13,4.77,1.35.72,2.55,1.44,3.48,2.13l-1.35,1.5c-.9-.72-2.1-1.47-3.42-2.19-1.77,1.59-4.17,2.76-7.44,3.57-.15-.54-.57-1.29-.96-1.71,2.85-.57,5.01-1.47,6.63-2.79-1.14-.57-2.31-1.11-3.48-1.59l-.6,1.08-1.77-.66c.66-1.11,1.47-2.58,2.25-4.11h-3.39v-1.77h4.29c.48-.99.96-1.98,1.35-2.88l2.37.54c-.09.21-.27.3-.66.27-.3.63-.63,1.35-.99,2.07h8.52v1.77ZM1604.5,112.26c.9,1.23,1.77,2.88,2.1,3.99l-1.59.75c-.3-1.08-1.17-2.79-2.04-4.05l1.53-.69ZM1607.15,129.48c-.39.75-.78,1.5-1.17,2.22,1.35.51,2.7,1.08,3.99,1.68.87-1.08,1.47-2.37,1.89-3.9h-4.71ZM1611.34,116.28c.81-1.08,1.86-2.85,2.43-4.05l2.1.93c-.09.21-.33.24-.6.21-.63,1.08-1.71,2.61-2.55,3.63l-1.38-.72ZM1629.55,118.95h-2.01c-.72,4.95-1.89,9.06-3.78,12.39,1.53,2.73,3.51,4.89,6.03,6.21-.48.42-1.11,1.17-1.44,1.74-2.4-1.41-4.29-3.48-5.82-6.03-1.83,2.52-4.2,4.53-7.32,6.03-.21-.48-.75-1.32-1.11-1.71,3.21-1.47,5.61-3.57,7.38-6.33-1.23-2.55-2.16-5.49-2.85-8.7-.6,1.38-1.23,2.61-1.95,3.63-.33-.39-1.05-.99-1.53-1.29,2.13-3,3.66-8.28,4.53-13.5l2.55.54c-.06.24-.27.36-.66.36-.3,1.59-.66,3.21-1.08,4.77h9.06v1.89ZM1619.96,118.95l-.09.3c.6,3.6,1.5,6.96,2.79,9.87,1.38-2.82,2.25-6.21,2.85-10.17h-5.55Z"/>
    <path class="cls-28" d="M1639.4,123.84v1.47c1.05.84,4.23,3.87,4.95,4.62l-1.23,1.65c-.63-.93-2.4-2.88-3.72-4.23v11.88h-1.95v-12.3c-1.35,3.15-3.15,6.36-4.86,8.25-.21-.57-.72-1.44-1.08-1.92,2.01-2.1,4.29-5.97,5.52-9.42h-5.13v-1.92h5.55v-10.53l2.52.18c-.03.21-.18.33-.57.39v9.96h5.31v1.92h-5.31ZM1633.75,113.49c.99,2.04,1.86,4.71,2.13,6.45l-1.71.48c-.27-1.74-1.08-4.44-2.01-6.48l1.59-.45ZM1645.12,114.12c-.09.18-.3.3-.6.3-.69,1.83-1.86,4.56-2.79,6.24-.33-.12-1.11-.48-1.41-.57.87-1.77,1.98-4.71,2.52-6.75l2.28.78ZM1659.64,130.44l-4.11.72v8.1h-1.98v-7.74l-8.73,1.56-.36-1.89,9.09-1.59v-18.15l2.58.18c-.03.21-.18.36-.6.42v17.19l3.78-.66.33,1.86ZM1647.04,121.47c1.89,1.23,4.08,3.09,5.13,4.41-1.2.96-1.32,1.11-1.47,1.26-1.02-1.32-3.18-3.24-5.07-4.53l1.41-1.14ZM1647.83,113.49c1.74,1.26,3.72,3.09,4.62,4.38l-1.5,1.2c-.87-1.32-2.82-3.21-4.56-4.5l1.44-1.08Z"/>
    <path class="cls-28" d="M1687.51,124.23c-.06.03-.12.06-.18.06-.18,0-.33-.09-.45-.18-2.28.75-5.61,1.98-8.1,3.06.06.69.09,1.47.09,2.34,0,.96-.03,2.04-.09,3.21l-2.19.12c.09-1.08.15-2.46.15-3.63,0-.45,0-.87-.03-1.2-3.39,1.65-6.15,3.66-6.15,5.46s2.07,2.58,6.21,2.58c2.91,0,5.61-.06,7.53-.3l.03,2.01c-1.77.18-4.47.24-7.56.24-5.76,0-8.31-1.38-8.31-4.44,0-2.64,3.48-5.19,7.98-7.44-.18-1.89-1.02-2.82-2.22-2.82-2.19,0-4.47,1.23-7.17,4.23-.84.93-2.01,2.1-3.3,3.27l-1.47-1.47c3-2.64,5.82-5.16,7.56-11.07l-1.68.03h-5.01v-1.95c1.83.03,3.96.03,5.19.03l2.04-.03c.33-1.38.6-2.67.81-4.29l2.94.36c-.06.3-.3.48-.75.54-.21,1.2-.48,2.25-.75,3.33,2.04-.03,6.42-.51,10.32-1.74l.36,2.01c-3.75,1.17-8.28,1.59-11.25,1.68-.72,2.25-1.47,4.05-2.16,5.07h.03c1.32-1.17,3.3-1.95,4.83-1.95,2.04,0,3.33,1.47,3.72,3.9,2.52-1.14,5.7-2.37,8.1-3.3l.93,2.28Z"/>
    <path class="cls-28" d="M1705.39,125.01h12.57v1.83h-18.63c-1.23,5.31-3.69,9.78-7.29,12.42-.33-.39-1.05-1.02-1.53-1.35,3.27-2.25,5.52-6.24,6.72-11.07h-6.36v-1.83h12.45v-2.97h-9.45v-1.74h9.45v-2.85h-10.98v-1.8h6.39c-.51-1.08-1.38-2.43-2.22-3.45l1.71-.72c1.05,1.17,2.1,2.76,2.55,3.87l-.69.3h8.58l-.63-.24c.78-1.11,1.83-2.88,2.37-4.08l2.4.9c-.09.18-.3.24-.63.24-.54.93-1.41,2.19-2.13,3.18h6.63v1.8h-11.28v2.85h9.72v1.74h-9.72v2.97ZM1707.64,131.19v5.43h9.21v1.8h-20.43v-1.8h9.15v-5.43h-6.15v-1.8h14.91v1.8h-6.69Z"/>
    <path class="cls-28" d="M1727.3,112.68c-.06.36-.33.57-.93.66-.24,3.48-.54,11.43-.54,15.87s2.22,6.63,6,6.63,7.38-1.83,10.8-5.7c.3.48.99,1.44,1.35,1.77-3.51,3.99-7.77,6.09-12.18,6.09-5.46,0-8.25-3.15-8.25-8.82,0-3.78.27-13.08.48-16.77l3.27.27Z"/>
    <path class="cls-28" d="M1758.26,126.03l.45-.06,1.2.24c0,.18-.06.42-.09.63-.57,7.47-1.11,10.41-2.19,11.46-.75.81-1.65.96-3.69.96-1.08,0-2.52-.06-3.96-.15-.06-.63-.33-1.47-.75-2.07,2.25.21,4.47.24,5.22.24s1.11-.06,1.44-.33c.78-.69,1.29-3.15,1.77-9.03h-8.1c-.12.57-.21,1.08-.33,1.56l-2.01-.33c.63-2.43,1.32-6.36,1.74-9.33h8.79v-5.25h-10.59v-1.89h12.6v9.9h-2.01v-.87h-7.05c-.24,1.44-.51,2.94-.75,4.32h8.31ZM1768.46,111.66l2.61.18c-.03.21-.18.36-.6.39v27.03h-2.01v-27.6Z"/>
    <path class="cls-28" d="M1792.49,139.02c-3.03-3.54-7.71-7.98-11.76-11.16-1.5-1.2-2.04-2.04-2.04-3.12,0-.87.48-1.71,1.59-2.73,2.73-2.52,7.86-7.38,10.74-10.32l2.55,1.68c-.06.06-.27.3-.66.3-.12,0-.24-.03-.36-.06-3,2.88-7.68,6.96-10.14,9.27-.72.69-1.29,1.29-1.29,1.77,0,.51.54,1.11,1.59,1.89,3.96,3.06,8.19,6.93,11.85,10.89l-2.07,1.59Z"/>
    <path class="cls-28" d="M1797.56,139.11c3.27-2.73,5.94-7.74,5.94-13.8s-2.76-11.16-5.94-13.8v-.15h1.8c3.06,2.73,5.73,7.77,5.73,13.95s-2.67,11.22-5.73,13.95h-1.8v-.15Z"/>
  </g>
  <g>
    <line class="cls-7" x1="256.95" y1="638.19" x2="256.95" y2="413.34"/>
    <polygon class="cls-29" points="272.91 418.01 256.95 390.37 240.99 418.01 272.91 418.01"/>
  </g>
  <text class="cls-26" transform="translate(283.03 523.22)"><tspan x="0" y="0">使</tspan><tspan class="cls-22" x="30" y="0">用</tspan><tspan class="cls-45" x="59.1" y="0">さ</tspan><tspan x="87.6" y="0">れ</tspan><tspan class="cls-22" x="117.6" y="0">たカ</tspan><tspan class="cls-20" x="175.8" y="0">ー</tspan><tspan class="cls-14" x="201.9" y="0">ド</tspan><tspan class="cls-19" x="230.7" y="0">を引</tspan><tspan class="cls-14" x="289.5" y="0">き</tspan><tspan class="cls-16" x="318.3" y="0">落</tspan><tspan class="cls-2" x="345.9" y="0">と</tspan><tspan class="cls-42" x="370.5" y="0">し</tspan></text>
  <g>
    <line class="cls-8" x1="1773.5" y1="171.5" x2="1770" y2="171.5"/>
    <line class="cls-10" x1="1763.05" y1="171.5" x2="1543.98" y2="171.5"/>
    <line class="cls-8" x1="1540.5" y1="171.5" x2="1537" y2="171.5"/>
  </g>
  <g>
    <line class="cls-8" x1="1773.5" y1="626.54" x2="1773.5" y2="623.04"/>
    <line class="cls-6" x1="1773.5" y1="616.14" x2="1773.5" y2="178.45"/>
    <line class="cls-8" x1="1773.5" y1="175" x2="1773.5" y2="171.5"/>
    <polygon class="cls-28" points="1789.46 621.87 1773.5 649.5 1757.54 621.87 1789.46 621.87"/>
  </g>
  <g>
    <line class="cls-8" x1="1201.5" y1="171.5" x2="1198" y2="171.5"/>
    <line class="cls-10" x1="1191.05" y1="171.5" x2="971.98" y2="171.5"/>
    <line class="cls-8" x1="968.5" y1="171.5" x2="965" y2="171.5"/>
  </g>
  <g>
    <line class="cls-8" x1="958.5" y1="626.54" x2="958.5" y2="623.04"/>
    <line class="cls-6" x1="958.5" y1="616.14" x2="958.5" y2="178.45"/>
    <line class="cls-8" x1="958.5" y1="175" x2="958.5" y2="171.5"/>
    <polygon class="cls-28" points="974.46 621.87 958.5 649.5 942.54 621.87 974.46 621.87"/>
  </g>
  <g>
    <line class="cls-7" x1="1560.46" y1="239.5" x2="1563.96" y2="239.5"/>
    <line class="cls-11" x1="1571.28" y1="239.5" x2="1699.34" y2="239.5"/>
    <line class="cls-7" x1="1703" y1="239.5" x2="1706.5" y2="239.5"/>
    <polygon class="cls-29" points="1565.13 255.46 1537.5 239.5 1565.13 223.54 1565.13 255.46"/>
  </g>
  <g>
    <line class="cls-7" x1="1706.5" y1="239.5" x2="1706.5" y2="243"/>
    <line class="cls-9" x1="1706.5" y1="249.88" x2="1706.5" y2="631.56"/>
    <line class="cls-7" x1="1706.5" y1="635" x2="1706.5" y2="638.5"/>
  </g>
  <g>
    <line class="cls-7" x1="1182.54" y1="239.5" x2="1179.04" y2="239.5"/>
    <line class="cls-11" x1="1171.72" y1="239.5" x2="1043.66" y2="239.5"/>
    <line class="cls-7" x1="1040" y1="239.5" x2="1036.5" y2="239.5"/>
    <polygon class="cls-29" points="1177.87 223.54 1205.5 239.5 1177.87 255.46 1177.87 223.54"/>
  </g>
  <g>
    <line class="cls-7" x1="1039.5" y1="240" x2="1039.5" y2="243.5"/>
    <line class="cls-9" x1="1039.5" y1="250.38" x2="1039.5" y2="632.06"/>
    <line class="cls-7" x1="1039.5" y1="635.5" x2="1039.5" y2="639"/>
  </g>
  <text class="cls-26" transform="translate(1055.12 478.75)"><tspan x="0" y="0">正味</tspan><tspan class="cls-19" x="60" y="0">額を</tspan><tspan x="118.8" y="0">入金</tspan></text>
</svg>