<?xml version="1.0" encoding="UTF-8"?>
<svg id="Layer_1" data-name="Layer 1" xmlns="http://www.w3.org/2000/svg" viewBox="0 0 1992 1455">
  <defs>
    <style>
      .cls-1 {
        letter-spacing: 0em;
      }

      .cls-1, .cls-2, .cls-3, .cls-4, .cls-5, .cls-6, .cls-7, .cls-8, .cls-9, .cls-10, .cls-11, .cls-12, .cls-13, .cls-14, .cls-15, .cls-16, .cls-17, .cls-18, .cls-19, .cls-20, .cls-21, .cls-22, .cls-23, .cls-24, .cls-25, .cls-26, .cls-27 {
        font-family: KozGoPr6N-Regular-83pv-RKSJ-H, 'Kozuka Gothic Pr6N';
      }

      .cls-28 {
        letter-spacing: -.02em;
      }

      .cls-2 {
        letter-spacing: 0em;
      }

      .cls-29 {
        letter-spacing: -.04em;
      }

      .cls-3, .cls-30, .cls-31 {
        letter-spacing: 0em;
      }

      .cls-32 {
        letter-spacing: -.04em;
      }

      .cls-33, .cls-16 {
        letter-spacing: -.04em;
      }

      .cls-34, .cls-14 {
        letter-spacing: -.04em;
      }

      .cls-35 {
        letter-spacing: -.08em;
      }

      .cls-36 {
        letter-spacing: -.08em;
      }

      .cls-37, .cls-9 {
        letter-spacing: -.02em;
      }

      .cls-38, .cls-10 {
        letter-spacing: -.02em;
      }

      .cls-39 {
        letter-spacing: -.13em;
      }

      .cls-40 {
        letter-spacing: -.03em;
      }

      .cls-41 {
        letter-spacing: -.03em;
      }

      .cls-4 {
        letter-spacing: 0em;
      }

      .cls-42 {
        letter-spacing: -.06em;
      }

      .cls-43 {
        letter-spacing: -.06em;
      }

      .cls-44 {
        letter-spacing: -.06em;
      }

      .cls-6 {
        letter-spacing: -.05em;
      }

      .cls-45 {
        letter-spacing: -.14em;
      }

      .cls-7 {
        letter-spacing: -.05em;
      }

      .cls-8 {
        letter-spacing: -.09em;
      }

      .cls-11 {
        letter-spacing: -.08em;
      }

      .cls-12 {
        letter-spacing: -.03em;
      }

      .cls-13 {
        font-size: 34.61px;
      }

      .cls-13, .cls-46, .cls-47 {
        fill: #fff;
      }

      .cls-30, .cls-48 {
        font-family: Arial-BoldMT, Arial;
        font-weight: 700;
      }

      .cls-15 {
        letter-spacing: -.04em;
      }

      .cls-17 {
        letter-spacing: -.02em;
      }

      .cls-49 {
        letter-spacing: -.16em;
      }

      .cls-18 {
        letter-spacing: -.07em;
      }

      .cls-19 {
        letter-spacing: -.07em;
      }

      .cls-50 {
        fill: #ff931e;
        stroke: #d0d4eb;
      }

      .cls-50, .cls-51 {
        stroke-miterlimit: 10;
      }

      .cls-51 {
        fill: #f2f2f2;
        stroke: #22b573;
      }

      .cls-52 {
        font-size: 36.68px;
      }

      .cls-52, .cls-53, .cls-54 {
        fill: #666;
      }

      .cls-53 {
        font-size: 35.97px;
      }

      .cls-20 {
        letter-spacing: -.16em;
      }

      .cls-21 {
        letter-spacing: -.16em;
      }

      .cls-55, .cls-22 {
        letter-spacing: -.1em;
      }

      .cls-56 {
        letter-spacing: -.1em;
      }

      .cls-57 {
        letter-spacing: -.05em;
      }

      .cls-58, .cls-24 {
        letter-spacing: -.05em;
      }

      .cls-59 {
        letter-spacing: -.1em;
      }

      .cls-60 {
        letter-spacing: -.05em;
      }

      .cls-61 {
        letter-spacing: -.05em;
      }

      .cls-46 {
        fill-rule: evenodd;
      }

      .cls-46, .cls-54, .cls-47, .cls-62 {
        stroke-width: 0px;
      }

      .cls-63 {
        letter-spacing: -.15em;
      }

      .cls-64 {
        letter-spacing: 0em;
      }

      .cls-65 {
        letter-spacing: 0em;
      }

      .cls-23 {
        letter-spacing: -.1em;
      }

      .cls-25 {
        letter-spacing: -.48em;
      }

      .cls-62 {
        fill: #00a99d;
      }

      .cls-66 {
        letter-spacing: -.07em;
      }

      .cls-26 {
        letter-spacing: -.11em;
      }

      .cls-27 {
        letter-spacing: -.11em;
      }
    </style>
  </defs>
  <rect class="cls-47" width="1992" height="1455"/>
  <rect class="cls-50" x="26.85" y="32.79" width="590.65" height="139.87" rx="15.81" ry="15.81"/>
  <text class="cls-13" transform="translate(164.51 113.96)"><tspan class="cls-64" x="0" y="0">パ</tspan><tspan class="cls-63" x="34.26" y="0">ー</tspan><tspan class="cls-56" x="63.68" y="0">ト</tspan><tspan class="cls-29" x="94.83" y="0">ナ</tspan><tspan class="cls-44" x="128.05" y="0">ー</tspan><tspan class="cls-66" x="160.58" y="0">アカ</tspan><tspan class="cls-59" x="224.95" y="0">ウ</tspan><tspan class="cls-49" x="256.1" y="0">ン</tspan><tspan class="cls-66" x="285.17" y="0">ト</tspan><tspan x="317.35" y="0">の作成</tspan></text>
  <path class="cls-46" d="M84.61,119.93l12.94-2.22,34.87-34.87c1.37-1.37,2.22-3.26,2.22-5.36,0-4.19-3.39-7.58-7.58-7.58-2.09,0-3.99.85-5.36,2.22l-34.87,34.87-2.22,12.94ZM123.84,74.27c.82-.82,1.96-1.33,3.21-1.33,2.51,0,4.55,2.04,4.55,4.55,0,1.25-.51,2.39-1.33,3.21l-1.96,1.96-6.43-6.43,1.96-1.96ZM119.73,78.37l6.43,6.43-27.92,27.92v-6.43h-6.43l27.91-27.92ZM89.56,109.32h5.65v5.65l-6.82,1.17,1.17-6.82ZM133.12,92.65c-.84,0-1.52.68-1.52,1.52v33.35c0,3.35-2.71,6.06-6.06,6.06h-48.51c-3.35,0-6.06-2.71-6.06-6.06v-48.51c0-3.35,2.71-6.06,6.06-6.06h33.35c.84,0,1.52-.68,1.52-1.52s-.68-1.52-1.52-1.52h-33.35c-5.02,0-9.09,4.07-9.09,9.09v48.51c0,5.02,4.07,9.09,9.09,9.09h48.51c5.02,0,9.09-4.07,9.09-9.09v-33.35c0-.84-.68-1.52-1.52-1.52"/>
  <rect class="cls-50" x="26.86" y="279.19" width="590.14" height="139.87" rx="15.81" ry="15.81"/>
  <text class="cls-13" transform="translate(169.17 360.36)"><tspan class="cls-32" x="0" y="0">ビ</tspan><tspan class="cls-28" x="33.22" y="0">ジ</tspan><tspan class="cls-61" x="67.14" y="0">ネ</tspan><tspan class="cls-28" x="100.02" y="0">ス</tspan><tspan x="133.93" y="0">情報</tspan></text>
  <path class="cls-46" d="M137.98,319.09h-22.02c0-4.21-3.29-7.63-7.34-7.63h-14.68c-4.05,0-7.34,3.42-7.34,7.63h-22.02c-2.03,0-3.67,1.71-3.67,3.82v19.07c0,2.1,1.64,3.82,3.67,3.82v30.52c0,2.1,1.64,3.82,3.67,3.82h66.07c2.03,0,3.67-1.71,3.67-3.82v-30.52c2.03,0,3.67-1.71,3.67-3.82v-19.07c0-2.11-1.64-3.82-3.67-3.82M93.94,315.27h14.68c2.02,0,3.67,1.71,3.67,3.82h-22.02c0-2.1,1.64-3.82,3.67-3.82M134.31,376.31h-66.07v-30.52h7.34v3.82c0,2.1,1.64,3.81,3.67,3.81h7.34c2.02,0,3.67-1.71,3.67-3.81v-3.82h22.02v3.82c0,2.1,1.65,3.81,3.67,3.81h7.34c2.03,0,3.67-1.71,3.67-3.81v-3.82h7.34v30.52ZM79.26,338.16h7.34v11.45h-7.34v-11.45ZM115.96,338.16h7.34v11.45h-7.34v-11.45ZM137.98,341.98h-11.01v-3.82c0-2.1-1.64-3.82-3.67-3.82h-7.34c-2.02,0-3.67,1.71-3.67,3.82v3.82h-22.02v-3.82c0-2.1-1.65-3.82-3.67-3.82h-7.34c-2.03,0-3.67,1.71-3.67,3.82v3.82h-11.01v-19.07h73.41v19.07Z"/>
  <rect class="cls-50" x="26.86" y="621.46" width="590.14" height="139.87" rx="15.81" ry="15.81"/>
  <text class="cls-13" transform="translate(168.13 704.63)"><tspan class="cls-57" x="0" y="0">ス</tspan><tspan class="cls-40" x="32.88" y="0">テ</tspan><tspan class="cls-36" x="66.45" y="0">ーク</tspan><tspan x="130.12" y="0">ホ</tspan><tspan class="cls-44" x="164.73" y="0">ル</tspan><tspan class="cls-28" x="197.26" y="0">ダ</tspan><tspan class="cls-64" x="231.18" y="0">ー</tspan><tspan x="265.44" y="0">情報</tspan></text>
  <path class="cls-46" d="M67.69,708.44c2.63-.72,7.15-3.7,7.15-10.44,0-6.03-1.96-8.69-3.02-10.11l-.13-.18s-.02-.03-.04-.05c-.08-.25-.33-1.28.2-3.48.21-.85.08-1.83-.28-2.63-.79-1.74-2.27-4.97-1.23-7.4,1.72-4.17,2.44-4.49,4.36-5.33.19-.08.37-.18.54-.29.48-.31,2.46-1.04,4.48-1.04.97,0,1.78.18,2.43.51.17-.68.37-1.35.65-2.03.24-.6.49-1.11.74-1.64-1.22-.53-2.53-.75-3.82-.75-2.83,0-5.51.98-6.58,1.66-3.13,1.37-4.44,2.63-6.42,7.42-1.71,4.03.33,8.4,1.33,10.6-1.23,5.02.47,6.75.47,6.75.89,1.22,2.4,2.98,2.4,7.98,0,5.7-4.39,6.69-4.39,6.69-3.56,1.25-8.31,3.89-8.31,11.72,0,0,0,1.96,1.96,1.96h8.72c.47-1.45,1.08-2.76,1.84-3.91h-8.46c.59-3.72,2.89-5.12,5.39-6.02M136.02,704.69s-4.38-.99-4.38-6.69c0-5.01,1.51-6.77,2.4-7.98,0,0,1.7-1.73.47-6.75,1-2.2,3.04-6.57,1.33-10.6-1.98-4.79-3.29-6.06-6.42-7.42-1.07-.68-3.75-1.66-6.58-1.66-1.34,0-2.7.24-3.95.81.5,1.27.92,2.52,1.22,3.76.05-.03.1-.07.15-.09.67-.37,1.53-.55,2.57-.55,2.02,0,4,.73,4.48,1.04.17.11.35.21.54.29,1.93.84,2.65,1.15,4.36,5.33,1.04,2.43-.44,5.66-1.23,7.4-.37.8-.49,1.78-.28,2.63.53,2.2.29,3.22.2,3.48,0,.01-.02.03-.03.05l-.13.18c-1.06,1.43-3.02,4.09-3.02,10.11,0,6.73,4.53,9.71,7.15,10.44,2.5.89,4.81,2.3,5.39,6.01h-8.46c.75,1.15,1.37,2.47,1.84,3.92h8.72c1.96,0,1.96-1.96,1.96-1.96,0-7.83-4.74-10.47-8.31-11.72M116.88,709s-7.01-1.67-7.01-9c0-6.43,2.88-8.7,3.99-10.27,0,0,2.29-2,.75-8.46,2.55-3.54,3.38-9.31.26-16.43-1.74-4.16-3.28-6.44-5.62-7.76-1.72-.97-3.67-1.33-5.57-1.33-3.54,0-6.89,1.25-8.23,2.13-3.91,1.76-6.54,3.38-9.02,9.54-2.14,5.18.41,10.8,1.66,13.63-1.53,6.46.59,8.68.59,8.68,1.12,1.57,3.99,3.83,3.99,10.27,0,7.32-7.01,9-7.01,9-4.45,1.6-13.75,4.67-13.75,15.23,0,0,0,1.96,1.96,1.96h54.79c1.96,0,1.96-1.96,1.96-1.96,0-10.57-9.29-13.63-13.75-15.23M76,722.28c.91-5.51,5.74-7.71,10.67-9.48l.16-.05c3.52-.94,9.78-4.69,9.78-12.74,0-6.83-2.77-10.16-4.26-11.96-.29-.36-.65-.83-.57-.72-.12-.26-.71-1.8.14-5.36.4-1.67-.28-2.59-.28-2.59-1.07-2.4-3.05-6.87-1.56-10.49,2-5,3.77-5.98,6.99-7.43.19-.08.37-.18.54-.29.61-.4,3.18-1.49,6.08-1.49,1.45,0,2.68.28,3.65.83,1.16.66,2.28,1.91,3.97,5.93,3.14,7.17,1.15,11.18.15,12.56-.67.92-.89,2.09-.63,3.19.78,3.28.28,4.67.14,4.95-.03.04-.5.64-.74.92-1.49,1.79-4.26,5.13-4.26,11.96,0,8.05,6.27,11.81,9.78,12.74l.16.05c4.93,1.77,9.76,3.97,10.67,9.48h-50.56Z"/>
  <rect class="cls-50" x="26.86" y="1024.49" width="590.14" height="139.87" rx="15.81" ry="15.81"/>
  <text class="cls-13" transform="translate(169.51 1105.84)"><tspan x="0" y="0">支払い詳細</tspan></text>
  <path class="cls-46" d="M108.19,1066.92h-3.27v19.59h3.27v-19.59ZM95.13,1066.92h-6.53v19.59h6.53v-19.59ZM101.66,1066.92h-3.27v19.59h3.27v-19.59ZM121.25,1066.92h-3.27v19.59h3.27v-19.59ZM114.72,1066.92h-3.27v19.59h3.27v-19.59ZM126.15,1060.39h-48.98c-.9,0-1.63.73-1.63,1.63v68.57c0,.9.73,1.63,1.63,1.63.45,0,.86-.18,1.15-.48l5.38-5.37,5.38,5.37c.3.3.7.48,1.15.48s.86-.18,1.15-.48l5.2-5.2,3.77,5.03.02-.02c.3.4.75.67,1.28.67s.98-.27,1.28-.67l.02.02,3.77-5.03,5.2,5.2c.3.3.7.48,1.15.48s.86-.18,1.15-.48l5.38-5.37,5.38,5.37c.3.3.7.48,1.15.48.9,0,1.63-.73,1.63-1.63v-68.57c0-.9-.73-1.63-1.63-1.63M124.52,1126.65l-3.74-3.74c-.3-.29-.7-.48-1.15-.48s-.86.18-1.15.48l-5.38,5.38-5.38-5.38c-.3-.29-.7-.48-1.15-.48-.53,0-.98.27-1.28.67l-.02-.02-3.59,4.79-3.59-4.79-.02.02c-.3-.4-.75-.67-1.28-.67-.45,0-.86.18-1.15.48l-5.38,5.38-5.38-5.38c-.3-.29-.7-.48-1.15-.48s-.86.18-1.15.48l-3.74,3.74v-63h45.72v63ZM114.72,1112.63h-32.65v3.27h32.65v-3.27ZM121.25,1106.1h-39.18v3.27h39.18v-3.27ZM85.33,1066.92h-3.27v19.59h3.27v-19.59ZM121.25,1099.57h-39.18v3.27h39.18v-3.27ZM108.19,1093.04h-26.12v3.27h26.12v-3.27Z"/>
  <rect class="cls-50" x="26.4" y="1271.51" width="590.14" height="139.87" rx="15.81" ry="15.81"/>
  <text class="cls-13" transform="translate(169.06 1352.87)"><tspan x="0" y="0">最</tspan><tspan class="cls-32" x="34.61" y="0">終</tspan><tspan class="cls-57" x="67.83" y="0">ス</tspan><tspan class="cls-56" x="100.71" y="0">テ</tspan><tspan class="cls-45" x="131.86" y="0">ッ</tspan><tspan x="161.62" y="0">プ</tspan></text>
  <path class="cls-46" d="M79.8,1354.9l1.72-1.72c.31-.31.5-.74.5-1.22,0-.95-.77-1.72-1.72-1.72-.47,0-.9.19-1.22.5l-1.72,1.72c-.31.32-.5.74-.5,1.22,0,.95.77,1.72,1.72,1.72.48,0,.9-.19,1.22-.5M90.63,1353.69c0-.95-.77-1.72-1.72-1.72-.48,0-.91.2-1.22.5l-17.21,17.21c-.31.32-.5.75-.5,1.22,0,.95.77,1.72,1.72,1.72.47,0,.9-.19,1.22-.5l17.21-17.21c.31-.31.5-.74.5-1.21M90.63,1360.57c-.48,0-.91.19-1.22.5l-5.16,5.16c-.31.31-.5.74-.5,1.22,0,.95.77,1.72,1.72,1.72.47,0,.9-.19,1.22-.5l5.16-5.16c.31-.31.5-.74.5-1.22,0-.95-.77-1.72-1.72-1.72M138.81,1305.5c0-.95-.77-1.72-1.72-1.72-.26,0-.51.07-.73.18h0s-72.2,30.93-72.2,30.93c0,0-.01,0-.02,0l-.06.03h0c-.58.29-.99.87-.99,1.55,0,.78.53,1.42,1.24,1.63v.03s28.42,11.71,28.42,11.71l11.71,28.43h.03c.21.7.84,1.23,1.63,1.23.68,0,1.27-.41,1.54-.99h.01s.02-.06.02-.06c0,0,0-.01,0-.02l30.95-72.2h-.02c.11-.23.19-.47.19-.74M69.25,1336.45l60.31-25.85-35.9,35.9-24.41-10.05ZM106.15,1373.35l-10.05-24.41,35.9-35.9-25.85,60.32Z"/>
  <rect class="cls-51" x="722.8" y="30.96" width="1244.2" height="163.53" rx="11.67" ry="11.67"/>
  <text class="cls-52" transform="translate(783.35 95.55)"><tspan class="cls-48" x="0" y="0">OTP</tspan><tspan class="cls-19" x="75.41" y="0">に</tspan><tspan class="cls-27" x="109.53" y="0">よ</tspan><tspan class="cls-11" x="142.18" y="0">る</tspan><tspan class="cls-6" x="175.92" y="0">メ</tspan><tspan class="cls-4" x="210.78" y="0">ー</tspan><tspan class="cls-16" x="247.09" y="0">ル</tspan><tspan class="cls-20" x="282.31" y="0">ア</tspan><tspan class="cls-8" x="313.12" y="0">ド</tspan><tspan class="cls-16" x="346.51" y="0">レ</tspan><tspan class="cls-9" x="381.72" y="0">ス</tspan><tspan class="cls-1" x="417.67" y="0">の確認</tspan><tspan class="cls-5"><tspan class="cls-33" x="0" y="56.2">パ</tspan><tspan class="cls-42" x="35.22" y="56.2">ス</tspan><tspan class="cls-60" x="69.7" y="56.2">ワ</tspan><tspan class="cls-39" x="104.55" y="56.2">ー</tspan><tspan class="cls-37" x="136.47" y="56.2">ド</tspan><tspan x="172.42" y="56.2">の作成</tspan></tspan></text>
  <rect class="cls-51" x="722.8" y="1270.63" width="1244.2" height="163.53" rx="11.67" ry="11.67"/>
  <text class="cls-53" transform="translate(783.35 1335.21)"><tspan class="cls-5"><tspan x="0" y="0">利用規約の承諾</tspan></tspan><tspan class="cls-5" x="0" y="56.2">同</tspan><tspan class="cls-22" x="35.97" y="56.2">意</tspan><tspan class="cls-24" x="68.34" y="56.2">し</tspan><tspan class="cls-5" x="102.5" y="56.2">ない場合</tspan><tspan class="cls-30" x="246.37" y="56.2"> </tspan><tspan class="cls-18" x="254.92" y="56.2">アカ</tspan><tspan class="cls-23" x="321.82" y="56.2">ウ</tspan><tspan class="cls-21" x="354.19" y="56.2">ン</tspan><tspan class="cls-18" x="384.4" y="56.2">ト</tspan><tspan class="cls-3" x="417.85" y="56.2">は</tspan><tspan class="cls-48" x="453.82" y="56.2">7</tspan><tspan class="cls-24" x="472.38" y="56.2">日</tspan><tspan class="cls-10" x="506.55" y="56.2">以</tspan><tspan class="cls-5" x="541.8" y="56.2">内</tspan><tspan class="cls-2" x="577.76" y="56.2">に</tspan><tspan class="cls-3" x="613.37" y="56.2">削</tspan><tspan class="cls-12" x="649.34" y="56.2">除</tspan><tspan class="cls-7" x="684.22" y="56.2">さ</tspan><tspan class="cls-14" x="718.39" y="56.2">れま</tspan><tspan class="cls-26" x="787.45" y="56.2">す</tspan><tspan class="cls-25" x="819.46" y="56.2">。</tspan></text>
  <rect class="cls-51" x="722.8" y="274.86" width="1244.2" height="273.68" rx="11.67" ry="11.67"/>
  <g>
    <path class="cls-54" d="M802.41,327.65h15.25v1.83h-32.55v-1.83h14.89v-2.34h-12.37v-1.69h12.37v-2.19h-11.26v-1.65h11.26v-2.34h-14.78v-1.83h14.78v-2.27h-10.86v-1.69h10.86v-2.63l3.13.22c-.04.25-.21.4-.72.47v1.94h10.39v3.96h4.68v1.83h-4.68v3.99h-10.39v2.19h12.66v1.69h-12.66v2.34ZM789.86,342.61v-11.29h23.31v11.22h-2.41v-1.19h-18.56v1.26h-2.34ZM810.75,333.08h-18.56v2.37h18.56v-2.37ZM792.19,339.59h18.56v-2.48h-18.56v2.48ZM802.41,313.33v2.27h7.98v-2.27h-7.98ZM802.41,317.43v2.34h7.98v-2.34h-7.98Z"/>
    <path class="cls-54" d="M827.62,325.6v-5.68c-1.62,2.3-3.74,4.46-5.72,5.65-.32-.47-.97-1.22-1.44-1.62,2.27-1.19,4.75-3.6,6.33-6.01h-5.79v-2.01h6.62v-6.8l2.84.18c-.04.22-.22.4-.68.47v6.15h6.55v2.01h-6.55v.5c1.47.86,5.72,3.63,6.73,4.42l-1.33,1.76c-1.01-.9-3.56-2.88-5.39-4.17v5.14h-2.16ZM829.71,331.85c-.04.58-.14,1.19-.25,1.76,2.23,1.55,4.93,3.63,6.4,4.93l-1.62,1.65c-1.19-1.19-3.42-2.99-5.47-4.5-1.04,2.23-3.06,4.39-6.94,6.15-.29-.54-.9-1.4-1.33-1.83,5.29-2.37,6.65-5.36,6.98-8.16h-6.51v-2.16h6.58v-3.31l2.91.18c-.04.25-.22.43-.68.5v2.63h6.69v2.16h-6.76ZM823.56,310.24c.97,1.26,1.87,3.02,2.19,4.17l-1.83.79c-.32-1.19-1.19-2.99-2.12-4.32l1.76-.65ZM831.58,314.55c.76-1.22,1.69-3.17,2.16-4.46l2.48.94c-.11.22-.36.29-.72.29-.58,1.15-1.51,2.84-2.3,3.96l-1.62-.72ZM843.55,337.64c-.11.14-.32.25-.65.29-1.44,1.58-4.53,3.52-7.23,4.6-.36-.47-1.08-1.22-1.62-1.62,2.7-1.04,5.72-2.91,7.16-4.5l2.34,1.22ZM837.83,316.71h4.89c.32-1.15.65-2.52.9-3.7h-7.05v-2.16h17.44v2.16h-7.91c-.25,1.08-.65,2.48-1.08,3.7h7.7v18.92h-14.89v-18.92ZM850.42,322.4v-3.74h-10.36v3.74h10.36ZM850.42,328.01v-3.74h-10.36v3.74h10.36ZM850.42,333.69v-3.81h-10.36v3.81h10.36ZM848.41,336.57c2.12,1.29,4.86,3.27,6.29,4.64-.22.14-.43.29-1.91,1.33-1.29-1.33-4.03-3.34-6.19-4.75l1.8-1.22Z"/>
    <path class="cls-54" d="M875.35,315.63c-.14.32-.43.58-.9.58-1.29,11.19-5.04,20.93-11,20.93-3.02,0-5.75-3.02-5.75-8.7,0-8.63,6.73-15.86,16.18-15.86,10.39,0,14.89,6.58,14.89,13.59,0,8.56-4.96,12.7-13.67,14.71-.32-.58-.93-1.55-1.51-2.19,8.27-1.58,12.52-5.61,12.52-12.41,0-5.93-3.81-11.33-12.23-11.33-.36,0-.75.04-1.08.07l2.55.61ZM871.9,315.17c-7.27.9-11.76,6.91-11.76,13.2,0,3.85,1.65,6.26,3.38,6.26,4.35,0,7.48-9.6,8.38-19.46Z"/>
    <path class="cls-54" d="M922.97,313.37c-.07.14-.29.25-.47.32-1.94,4.6-5.04,8.6-8.52,11.51-.54-.47-1.55-1.11-2.19-1.47,3.31-2.41,5.97-5.9,7.16-8.92h-25.75v-2.45h27.12l.4-.18,2.27,1.19ZM908.94,319.91c-.04.29-.36.54-.83.61-1.04,8.49-3.96,16.58-11.37,20.86-.5-.43-1.44-1.26-2.12-1.65,7.34-4.03,9.96-11.54,10.83-20.21l3.49.4Z"/>
    <path class="cls-54" d="M929.59,319.73c1.08,2.19,2.27,5.65,2.7,7.73l-2.01.54c-.43-2.09-1.55-5.36-2.63-7.66l1.94-.61ZM951.06,319.99c-.07.32-.43.4-.76.36-2.8,10.5-8.09,16.94-16.8,20.46-.29-.43-.93-1.26-1.4-1.65,8.6-3.38,13.52-9.28,16.15-20l2.81.83ZM938.33,318.01c.76,2.41,1.44,5.86,1.69,8.16l-2.12.4c-.22-2.3-.9-5.61-1.69-8.09l2.12-.47Z"/>
    <path class="cls-54" d="M956.96,314.45h22.87l.22-.11,2.45,1.87c-.11.14-.22.25-.43.32-2.91,13.52-9.17,20.57-20.18,24.74-.4-.65-1.12-1.58-1.62-2.12,10.47-3.85,16.51-10.54,18.85-22.23h-22.15v-2.48ZM984.36,308.01c2.16,0,3.92,1.76,3.92,3.96s-1.76,3.92-3.92,3.92-3.96-1.76-3.96-3.92c0-2.27,1.83-3.96,3.96-3.96ZM987.09,311.97c0-1.55-1.22-2.77-2.73-2.77s-2.77,1.22-2.77,2.77,1.26,2.77,2.77,2.77,2.73-1.33,2.73-2.77Z"/>
    <path class="cls-54" d="M1018.06,315.02v23.74h-2.59v-2.27h-19.82v2.34h-2.52v-23.81h24.92ZM1015.47,334.08v-16.65h-19.82v16.65h19.82Z"/>
    <path class="cls-54" d="M1025.29,323.87h30.03v2.55h-28.66c-.22.36-.68.61-1.15.68l-.22-3.24Z"/>
    <path class="cls-54" d="M1081.94,329.26c-3.67-1.98-8.7-4.32-12.62-5.86v17.95h-2.7v-31.25l3.63.22c-.04.4-.32.65-.93.76v10.57l.54-.79c4.21,1.55,9.78,4.03,13.52,6.01l-1.44,2.41ZM1078.16,312.32c1.65,1.37,3.81,3.63,4.96,5.29l-1.37,1.11c-1.08-1.55-3.27-3.96-4.89-5.25l1.29-1.15ZM1082.98,309.23c1.69,1.4,3.85,3.67,4.93,5.25l-1.29,1.11c-1.11-1.55-3.31-3.92-4.93-5.25l1.29-1.11Z"/>
    <path class="cls-54" d="M1092.59,325.73v-4.93h4.93v4.93h-4.93ZM1092.59,339.44v-4.93h4.93v4.93h-4.93Z"/>
    <path class="cls-54" d="M784.79,382.78c0-2.27,1.8-4.03,4.03-4.03s4.03,1.8,4.03,4.03-1.8,4.03-4.03,4.03-4.03-1.83-4.03-4.03Z"/>
    <path class="cls-54" d="M831.92,387.13l1.4.65c-.07.18-.18.25-.29.36-1.15,1.87-2.88,3.42-5,4.64,2.41.9,5.14,1.51,7.98,1.83-.47.47-1.04,1.26-1.33,1.83-3.17-.5-6.19-1.33-8.81-2.55-2.7,1.22-5.79,2.05-8.88,2.55-.22-.5-.65-1.29-1.04-1.76,2.66-.36,5.39-.97,7.8-1.87-1.22-.76-2.3-1.58-3.24-2.55-1.08.86-2.27,1.62-3.38,2.19-.32-.36-.97-.97-1.44-1.29,2.45-1.22,5.11-3.2,6.94-5.43h-3.38v-7.23c-.47.5-.9.97-1.37,1.4-.32-.29-.83-.65-1.33-.97-.68,1.15-1.65,2.45-2.73,3.7l1.01.36c-.07.22-.29.4-.68.47v13.02h-2.23v-11.76c-1.04,1.04-2.12,2.05-3.2,2.88-.22-.29-.58-.75-.9-1.15-.61,3.49-1.65,6.94-3.42,9.78-.43-.43-1.51-1.01-2.09-1.26,3.6-5.75,3.92-13.77,3.92-19.6v-10.61h27.15v7.16h-10.86l1.37.47c-.14.25-.43.32-.75.29-.25.5-.54,1.04-.83,1.55h13.27v1.73h-14.39c-.43.65-.93,1.29-1.4,1.91h13.49v7.88h-8.13c-.4.5-.79,1.01-1.26,1.51h7.62l.4-.11ZM808.65,375.37c0,2.95-.11,6.55-.68,10.14,2.7-2.12,5.43-5.25,6.8-7.91l1.91.68c1.65-1.62,3.34-3.99,4.5-6.37h-6.65l2.16.76c-.11.22-.36.36-.76.29-1.29,1.83-3.74,4.35-5.79,5.97-.32-.4-.97-1.15-1.4-1.47,1.94-1.44,4.1-3.7,5.29-5.54h-5.36v3.45ZM830.95,366.78h-22.3v3.17h22.3v-3.17ZM821.31,379.26v1.83h9.82v-1.83h-9.82ZM821.31,382.46v1.87h9.82v-1.87h-9.82ZM822.28,388.82l-.36.32c1.01,1.04,2.37,1.98,3.96,2.73,1.65-.83,3.13-1.87,4.17-3.06h-7.77Z"/>
    <path class="cls-54" d="M843.97,367.07v8.52c0,6.01-.43,14.75-3.56,20.79-.43-.4-1.4-.97-2.01-1.22,3.02-5.75,3.27-13.81,3.27-19.6v-10.72h29.78v2.23h-27.48ZM858.75,388.68v4.64h12.84v2.23h-28.12v-2.23h4.82v-7.95l2.98.22c-.04.25-.25.43-.72.47v7.27h5.86v-10.65l3.06.18c-.04.25-.25.43-.72.5v3.17h9.03v2.16h-9.03ZM852.06,383.32h-2.09v-6.94c-1.19,2.45-2.73,4.68-4.28,6.01-.32-.47-1.01-1.15-1.44-1.51,1.91-1.47,3.92-4.35,5.14-7.16h-4.21v-1.98h4.78v-3.67l2.73.18c-.04.25-.22.43-.65.47v3.02h4.32v1.98h-4.32v.97c1.01.72,3.6,2.7,4.24,3.27l-1.29,1.65c-.58-.65-1.87-1.87-2.95-2.84v6.55ZM864.72,383.32h-2.09v-7.95c-1.44,2.7-3.49,5.29-5.39,6.73-.36-.5-.97-1.19-1.44-1.58,2.16-1.33,4.46-4.1,5.86-6.8h-4.06v-1.98h5.04v-3.67l2.77.18c-.04.25-.22.43-.68.47v3.02h6.01v1.98h-5.04c1.33,2.77,3.63,5.43,6.08,6.69-.5.4-1.15,1.15-1.47,1.69-2.16-1.37-4.17-3.81-5.57-6.55v7.77Z"/>
    <path class="cls-54" d="M907.77,384.26v1.98h-3.81v6.51h-2.45v-1.65h-9.13v2.45c0,1.62-.47,2.27-1.55,2.63-1.12.36-3.02.36-6.08.36-.11-.58-.54-1.51-.86-2.09,1.33.04,2.66.07,3.63.07,2.19,0,2.41,0,2.41-.94v-2.48h-11.98v-1.91h11.98v-2.95h-15.07v-1.98h15.07v-2.73h-11.65v-1.83h11.65v-2.41h-10.57v-6.94h10.57v-2.27h-14.42v-2.05h14.42v-3.02l3.13.18c-.04.29-.22.47-.68.5v2.34h14.71v2.05h-14.71v2.27h11.08v6.94h-11.08v2.41h11.58v4.57h3.81ZM881.7,375.52h8.24v-3.42h-8.24v3.42ZM900.97,372.1h-8.6v3.42h8.6v-3.42ZM892.38,381.52v2.73h9.13v-2.73h-9.13ZM901.51,389.18v-2.95h-9.13v2.95h9.13Z"/>
    <path class="cls-54" d="M918.31,384.47c1.8-.61,3.63-1.22,5.47-1.87l.4,2.09c-4.46,1.69-9.17,3.42-12.19,4.46,0,.29-.18.5-.43.61l-1.29-2.66c1.55-.47,3.49-1.08,5.65-1.8v-15.72h-4.93v-2.27h12.34v2.27h-5v14.89ZM931.58,391.7c-.11.14-.36.22-.68.25-1.87,1.62-5.61,3.49-8.81,4.53-.32-.5-1.08-1.26-1.55-1.73,3.13-1.01,6.91-2.81,8.7-4.39l2.34,1.33ZM925.29,370.77h6.01c.36-1.19.68-2.59.93-3.81h-8.78v-2.16h20.57v2.16h-9.17c-.29,1.11-.72,2.55-1.15,3.81h8.92v18.92h-17.34v-18.92ZM940.25,376.45v-3.78h-12.66v3.78h12.66ZM940.25,382.06v-3.78h-12.66v3.78h12.66ZM940.25,387.75v-3.81h-12.66v3.81h12.66ZM942.73,396.52c-1.58-1.37-4.78-3.38-7.34-4.71l1.83-1.33c2.48,1.22,5.72,3.17,7.41,4.57l-1.91,1.47Z"/>
    <path class="cls-54" d="M965.28,363.07c-.07.29-.36.47-.72.54,3.49,4.75,9.96,10.18,15.54,13.06-.61.58-1.19,1.4-1.62,2.12-5.65-3.31-12.08-8.78-15.43-13.42-2.95,4.46-8.88,10-15.11,13.67-.32-.54-1.01-1.4-1.51-1.91,6.29-3.52,12.52-9.46,15.32-14.24l3.52.18ZM964.34,386.88v6.29h14.49v2.23h-31.11v-2.23h14.1v-6.29h-11.08v-2.19h11.08v-5.97h-9.5v-2.19h21.9v2.19h-9.89v5.97h11.22v2.19h-11.22Z"/>
    <path class="cls-54" d="M994.05,376.88c.83-1.87,1.8-4.89,2.3-6.94l2.77.79c-.07.22-.32.32-.75.36-.54,1.76-1.44,4.35-2.27,6.15h5.36v2.23h-18.95v-2.23h12.66l-1.12-.36ZM1000.85,367.25v2.16h-17.41v-2.16h7.48v-4.21l3.06.18c-.04.25-.25.43-.72.5v3.52h7.59ZM984.99,396.48v-13.67h14.24v13.45h-2.34v-1.83h-9.6v2.05h-2.3ZM987.76,370.3c.83,1.83,1.51,4.28,1.73,5.86l-2.12.5c-.18-1.58-.83-4.06-1.58-5.93l1.98-.43ZM996.89,384.98h-9.6v7.3h9.6v-7.3ZM1014.37,365.09l1.58.79c-.04.18-.18.29-.32.36-1.37,3.06-3.27,6.94-5.25,10.72,3.88,3.63,5.5,6.33,5.5,8.92,0,5.65-3.92,5.65-6.26,5.65-.54,0-1.12,0-1.65-.04-.04-.65-.36-1.69-.83-2.37.79.07,1.55.11,2.23.11,2.41,0,4.14-.11,4.14-3.42,0-2.34-1.76-4.86-5.68-8.45,1.76-3.56,3.31-6.94,4.53-9.85h-7.16v28.95h-2.34v-31.25h11.04l.47-.11Z"/>
    <path class="cls-54" d="M1031.57,369.19v2.05h-13.2v-2.05h13.2ZM1030.42,384.15v10.57h-8.27v1.69h-2.12v-12.26h10.39ZM1030.31,374.22v1.98h-10.25v-1.98h10.25ZM1020.06,381.16v-1.98h10.25v1.98h-10.25ZM1030.2,364.33v1.98h-9.93v-1.98h9.93ZM1028.26,386.2h-6.11v6.47h6.11v-6.47ZM1043.72,392.85h8.2v2.3h-20.39v-2.3h2.99v-18.49l2.95.22c-.04.25-.22.43-.68.47v17.8h4.57v-25.46h-8.56v-2.3h18.56v2.3h-7.62v10.57h7.41v2.3h-7.41v12.59Z"/>
    <path class="cls-54" d="M1067.68,386.95h-9.53v3.45h-2.27v-25.1h11.8v21.65ZM1065.41,367.53h-7.26v7.3h7.26v-7.3ZM1058.15,384.72h7.26v-7.66h-7.26v7.66ZM1086.59,364.62v28.48c0,1.62-.4,2.41-1.51,2.81-1.11.4-3.09.47-6.26.47-.11-.68-.54-1.73-.9-2.41,1.22.04,2.41.07,3.38.07,2.63,0,2.91,0,2.91-.94v-8.38h-11.22c-.83,4.35-2.7,8.74-6.83,11.94-.36-.47-1.26-1.33-1.8-1.65,6.22-4.78,6.83-11.72,6.83-17.44v-12.95h15.39ZM1073.57,377.57c0,1.55-.07,3.2-.25,4.93h10.9v-6.76h-10.65v1.83ZM1084.22,366.89h-10.65v6.62h10.65v-6.62Z"/>
    <path class="cls-54" d="M1108.14,381.6h15.25v1.83h-32.55v-1.83h14.89v-2.34h-12.37v-1.69h12.37v-2.19h-11.26v-1.65h11.26v-2.34h-14.78v-1.83h14.78v-2.27h-10.86v-1.69h10.86v-2.63l3.13.22c-.04.25-.22.4-.72.47v1.94h10.39v3.96h4.68v1.83h-4.68v3.99h-10.39v2.19h12.66v1.69h-12.66v2.34ZM1095.59,396.56v-11.29h23.31v11.22h-2.41v-1.19h-18.56v1.26h-2.34ZM1116.48,387.03h-18.56v2.37h18.56v-2.37ZM1097.92,393.54h18.56v-2.48h-18.56v2.48ZM1108.14,367.28v2.27h7.98v-2.27h-7.98ZM1108.14,371.38v2.34h7.98v-2.34h-7.98Z"/>
    <path class="cls-54" d="M784.79,436.73c0-2.27,1.8-4.03,4.03-4.03s4.03,1.8,4.03,4.03-1.8,4.03-4.03,4.03-4.03-1.83-4.03-4.03Z"/>
    <path class="cls-54" d="M835.84,438.21v1.98h-3.81v6.51h-2.45v-1.65h-9.13v2.45c0,1.62-.47,2.27-1.55,2.63-1.12.36-3.02.36-6.08.36-.11-.58-.54-1.51-.86-2.09,1.33.04,2.66.07,3.63.07,2.19,0,2.41,0,2.41-.94v-2.48h-11.98v-1.91h11.98v-2.95h-15.07v-1.98h15.07v-2.73h-11.65v-1.83h11.65v-2.41h-10.57v-6.94h10.57v-2.27h-14.42v-2.05h14.42v-3.02l3.13.18c-.04.29-.21.47-.68.5v2.34h14.71v2.05h-14.71v2.27h11.08v6.94h-11.08v2.41h11.58v4.57h3.81ZM809.76,429.47h8.24v-3.42h-8.24v3.42ZM829.04,426.05h-8.6v3.42h8.6v-3.42ZM820.44,435.47v2.73h9.13v-2.73h-9.13ZM829.58,443.13v-2.95h-9.13v2.95h9.13Z"/>
    <path class="cls-54" d="M871.26,441.62h-12.48c3.34,2.77,8.6,5.07,13.34,6.11-.54.5-1.26,1.47-1.62,2.12-5-1.4-10.54-4.28-14.06-7.7v8.24h-2.41v-8.06c-3.52,3.27-9.06,6.01-13.95,7.41-.32-.61-1.04-1.55-1.58-2.05,4.68-1.08,9.85-3.38,13.2-6.08h-12.26v-2.09h14.6v-2.91h-11.15v-1.94h11.15v-2.88h-12.98v-2.01h8.2c-.36-1.12-1.12-2.66-1.87-3.81l1.4-.29h-9.21v-2.12h6.04c-.54-1.51-1.83-3.78-3.02-5.47l2.05-.72c1.29,1.65,2.66,3.96,3.2,5.47l-1.91.72h4.71v-6.62l3.06.18c-.04.36-.32.54-.79.61v5.83h4.68v-6.62l3.13.18c-.04.36-.36.54-.83.61v5.83h4.53c-.47-.18-1.01-.4-1.33-.5,1.04-1.55,2.3-3.96,2.95-5.61l2.84.97c-.07.22-.36.32-.75.32-.76,1.4-1.91,3.38-2.91,4.82h5.9v2.12h-8.13l1.04.32c-.11.25-.4.36-.75.32-.5.97-1.29,2.37-2.01,3.45h8.52v2.01h-13.34v2.88h11.58v1.94h-11.58v2.91h14.82v2.09ZM858.93,429.57c.65-1.04,1.47-2.63,2.01-3.88h-11.18c.83,1.19,1.62,2.77,1.98,3.85l-1.12.25h8.88l-.58-.22Z"/>
    <path class="cls-54" d="M887.7,423.14v2.05h-13.2v-2.05h13.2ZM886.55,438.1v10.57h-8.27v1.69h-2.12v-12.26h10.39ZM886.44,428.17v1.98h-10.25v-1.98h10.25ZM876.19,435.11v-1.98h10.25v1.98h-10.25ZM886.33,418.28v1.98h-9.93v-1.98h9.93ZM884.39,440.15h-6.11v6.47h6.11v-6.47ZM899.86,446.8h8.2v2.3h-20.39v-2.3h2.99v-18.49l2.95.22c-.04.25-.22.43-.68.47v17.8h4.57v-25.46h-8.56v-2.3h18.56v2.3h-7.62v10.57h7.41v2.3h-7.41v12.59Z"/>
    <path class="cls-54" d="M923.81,440.9h-9.53v3.45h-2.27v-25.1h11.8v21.65ZM921.54,421.48h-7.26v7.3h7.26v-7.3ZM914.28,438.67h7.26v-7.66h-7.26v7.66ZM942.73,418.57v28.48c0,1.62-.4,2.41-1.51,2.81-1.11.4-3.09.47-6.26.47-.11-.68-.54-1.73-.9-2.41,1.22.04,2.41.07,3.38.07,2.63,0,2.91,0,2.91-.94v-8.38h-11.22c-.83,4.35-2.7,8.74-6.83,11.94-.36-.47-1.26-1.33-1.8-1.65,6.22-4.78,6.83-11.72,6.83-17.44v-12.95h15.39ZM929.71,431.52c0,1.55-.07,3.2-.25,4.93h10.9v-6.76h-10.65v1.83ZM940.35,420.83h-10.65v6.62h10.65v-6.62Z"/>
    <path class="cls-54" d="M964.27,435.54h15.25v1.83h-32.55v-1.83h14.89v-2.34h-12.37v-1.69h12.37v-2.19h-11.26v-1.65h11.26v-2.34h-14.78v-1.83h14.78v-2.27h-10.86v-1.69h10.86v-2.63l3.13.22c-.04.25-.22.4-.72.47v1.94h10.39v3.96h4.68v1.83h-4.68v3.99h-10.39v2.19h12.66v1.69h-12.66v2.34ZM951.72,450.51v-11.29h23.31v11.22h-2.41v-1.19h-18.56v1.26h-2.34ZM972.62,440.98h-18.56v2.37h18.56v-2.37ZM954.06,447.48h18.56v-2.48h-18.56v2.48ZM964.27,421.23v2.27h7.98v-2.27h-7.98ZM964.27,425.33v2.34h7.98v-2.34h-7.98Z"/>
    <path class="cls-54" d="M784.79,490.68c0-2.27,1.8-4.03,4.03-4.03s4.03,1.8,4.03,4.03-1.8,4.03-4.03,4.03-4.03-1.83-4.03-4.03Z"/>
    <path class="cls-54" d="M820.52,493.09v7.84c1.91.36,3.99.47,6.26.47,1.26,0,7.59,0,9.24-.04-.4.61-.83,1.73-.93,2.45h-8.42c-7.73,0-13.34-1.33-16.69-7.77-1.29,3.52-3.13,6.47-5.65,8.45-.4-.47-1.26-1.19-1.83-1.58,3.96-2.91,6.04-8.42,6.87-15.14l3.09.5c-.07.25-.29.43-.72.43-.22,1.44-.5,2.84-.83,4.21,1.51,4.03,3.96,6.19,7.12,7.34v-15.82h-9.17v-2.3h21.15v2.3h-9.5v6.37h11.04v2.3h-11.04ZM806.63,477.59v5.43h-2.37v-7.73h13.74v-4.42l3.27.22c-.04.25-.25.43-.76.5v3.7h13.88v7.73h-2.48v-5.43h-25.28Z"/>
    <path class="cls-54" d="M844.22,494.17c-.11.25-.29.4-.68.36-.72,2.52-1.91,5.32-3.24,7.08-.43-.32-1.26-.76-1.76-1.01,1.29-1.65,2.41-4.39,3.09-7.09l2.59.65ZM856.12,492.12h-7.59v9.71c0,2.34-1.01,2.55-5.18,2.55-.11-.65-.4-1.51-.72-2.12.75,0,1.4.04,1.94.04,1.47,0,1.65,0,1.65-.5v-9.67h-7.66v-2.09h17.55v2.09ZM846.23,480.07v-3.34h-7.44v-2.09h7.44v-3.7l2.99.22c-.04.25-.22.4-.68.47v3.02h7.41v2.09h-7.41v3.34h6.47v2.09h-15.21v-2.09h6.44ZM854.47,487.05h-14.1v-2.05h14.1v2.05ZM852.53,493.49c1.08,1.69,2.23,3.99,2.7,5.36l-1.94.94c-.47-1.44-1.58-3.78-2.63-5.54l1.87-.75ZM864.32,479.78v5.21c-.04,2.77,1.04,12.52,7.91,17.3-.43.54-1.19,1.47-1.51,2.05-5.36-3.81-7.19-11.08-7.55-14.06h-.04c-.36,3.09-2.45,10.03-8.63,14.1-.29-.5-.97-1.47-1.4-1.94,7.88-5,8.88-14.57,8.88-17.44v-5.21h-2.19c-.83,2.98-1.83,5.68-3.06,7.66-.43-.4-1.37-1.04-1.94-1.33,2.16-3.38,3.56-9.35,4.35-15.21l3.02.61c-.07.29-.29.43-.75.43-.29,1.87-.65,3.78-1.08,5.61h9.93l1.33.04c0,.14-.04.36-.07.5-.4,2.95-1.08,6.76-1.87,9.13l-1.94-.58c.5-1.76,1.01-4.42,1.33-6.87h-4.71Z"/>
  </g>
  <rect class="cls-51" x="722.8" y="621.03" width="1244.2" height="334.37" rx="11.67" ry="11.67"/>
  <text class="cls-53" transform="translate(783.35 685.62)"><tspan class="cls-5"><tspan class="cls-55" x="0" y="0">新</tspan><tspan class="cls-58" x="32.37" y="0">し</tspan><tspan class="cls-34" x="66.54" y="0">い</tspan><tspan class="cls-58" x="101.07" y="0">ス</tspan><tspan class="cls-41" x="135.23" y="0">テ</tspan><tspan class="cls-35" x="170.12" y="0">ーク</tspan><tspan class="cls-31" x="236.3" y="0">ホ</tspan><tspan class="cls-43" x="272.27" y="0">ル</tspan><tspan class="cls-38" x="306.07" y="0">ダ</tspan><tspan class="cls-65" x="341.32" y="0">ー</tspan><tspan x="376.93" y="0">の追加</tspan></tspan><tspan class="cls-48" x="0" y="56.2">KYC</tspan><tspan class="cls-5" x="75.94" y="56.2">の</tspan><tspan class="cls-15" x="111.9" y="56.2">完</tspan><tspan class="cls-17" x="146.43" y="56.2">了</tspan><tspan class="cls-5" x="0" y="112.39">本人確認</tspan><tspan class="cls-30" x="143.86" y="112.39">:</tspan></text>
  <g>
    <path class="cls-54" d="M1261.74,391.05c0-2.27,1.8-4.03,4.03-4.03s4.03,1.8,4.03,4.03-1.8,4.03-4.03,4.03-4.03-1.83-4.03-4.03Z"/>
    <path class="cls-54" d="M1287.65,384.4c1.12,1.37,4.14,5.68,4.82,6.73l-1.4,1.91c-.61-1.26-2.16-3.81-3.42-5.72v17.33h-2.3v-17.73c-1.29,4.21-3.06,8.34-4.85,10.83-.29-.65-.86-1.58-1.29-2.12,2.34-3.13,4.71-9.03,5.9-14.17h-5.11v-2.27h5.36v-7.91l2.99.22c-.04.22-.22.4-.68.47v7.23h4.57v2.27h-4.57v2.95ZM1312.72,388.82h-7.73c2.19,4.06,5.72,8.42,8.7,10.61-.58.43-1.4,1.29-1.83,1.91-2.73-2.37-5.86-6.58-8.06-10.79v14.1h-2.37v-13.77c-2.37,4.53-5.83,8.7-9.1,11.15-.4-.61-1.12-1.44-1.69-1.87,3.56-2.3,7.34-6.8,9.64-11.33h-8.24v-2.27h9.39v-6.47h-5.03c-.61,1.91-1.37,3.78-2.23,5.29-.5-.32-1.37-.76-1.98-.97,1.91-3.24,3.13-8.16,3.7-11.83l2.88.61c-.07.25-.32.4-.72.4-.25,1.22-.58,2.7-1.01,4.24h4.39v-6.55l3.09.22c-.04.25-.25.43-.72.5v5.83h7.88v2.27h-7.88v6.47h8.92v2.27Z"/>
    <path class="cls-54" d="M1333.4,401.09h15.1v2.37h-32.44v-2.37h14.82v-8.92h-11.44v-2.37h11.44v-8.27h-13.02v-2.37h28.88v2.37h-13.34v8.27h11.8v2.37h-11.8v8.92ZM1326.93,371.13c3.78,1.29,8.7,3.6,11.26,5.32l-1.8,2.12c-2.41-1.76-7.3-4.17-11.15-5.61l1.69-1.83Z"/>
    <path class="cls-54" d="M1382.28,389.36v15.43h-2.48v-1.51h-15.5v1.44h-2.37v-11.87c-3.02,1.83-6.15,3.24-9.28,4.24-.25-.61-.9-1.65-1.37-2.12,4.64-1.37,9.5-3.81,13.7-7.16-1.44-1.62-3.78-3.63-5.83-5.07l1.8-1.47c2.05,1.37,4.46,3.31,5.93,4.93,2.88-2.59,5.32-5.65,7.01-9.03h-11.44c-2.41,2.73-5.47,5.5-9.24,7.8-.36-.58-1.15-1.44-1.73-1.83,5.86-3.34,10.07-8.06,12.19-11.94l3.24.54c-.07.29-.32.47-.79.47-.54.9-1.19,1.83-1.91,2.77h11.08l.43-.14,1.76.94c-.11.14-.29.25-.47.32-2.16,5.25-5.83,9.75-10.14,13.27h15.39ZM1364.3,401.05h15.5v-9.46h-15.5v9.46Z"/>
    <path class="cls-54" d="M1409.65,372.06c-.07.22-.32.32-.72.32-.32.68-.72,1.37-1.15,2.05h13.02v1.91h-9.42c.83.97,1.58,2.09,1.98,2.91l-1.98.79c-.43-1.01-1.44-2.52-2.48-3.7h-2.48c-1.15,1.47-2.52,2.81-3.85,3.78-.47-.36-1.33-.9-1.91-1.19,1.01-.68,2.01-1.58,2.95-2.59h-6.29c.75,1.11,1.51,2.41,1.87,3.27l-2.05.72c-.4-1.04-1.29-2.7-2.19-3.99h-1.83c-1.08,1.58-2.3,3.06-3.49,4.14-.43-.36-1.26-.94-1.8-1.22,2.09-1.87,4.21-4.93,5.47-8.02l2.77.9c-.11.25-.4.36-.75.32-.32.65-.65,1.33-1.04,1.98h9.96v1.22c1.12-1.37,2.05-2.88,2.7-4.42l2.73.83ZM1394.08,392.6c-1.4-.94-4.1-2.19-6.26-2.95l1.08-1.73c2.12.65,4.89,1.8,6.26,2.73l-1.08,1.94ZM1389.11,402.71c1.87-2.3,4.64-6.26,6.8-9.67l1.51,1.55c-1.91,3.13-4.35,6.8-6.11,9.1.11.14.14.29.14.4,0,.18-.11.36-.22.47l-2.12-1.83ZM1391.02,381.13c2.05.76,4.68,2.05,5.97,3.02l-1.15,1.91c-1.29-1.01-3.88-2.37-5.93-3.24l1.12-1.69ZM1414.61,394.61c-.07.18-.22.32-.65.4v1.62h6.58v1.87h-6.58v3.88c0,2.34-1.04,2.34-6.29,2.34-.14-.58-.5-1.29-.79-1.83.83.04,1.62.04,2.27.04,2.52,0,2.52-.04,2.52-.58v-3.85h-15v-1.87h15v-2.01h-12.19v-8.85h7.91v-1.94h-9.85v-1.8h9.85v-2.34l2.95.22c-.04.25-.22.4-.72.47v1.65h8.24c-1.04-.76-2.84-1.73-4.35-2.34l1.15-1.33c1.55.58,3.49,1.55,4.5,2.27l-1.08,1.4h2.19v1.8h-10.65v1.94h8.27v8.85h-3.27ZM1404.4,403.82c-.75-1.26-2.52-2.95-4.14-4.06l1.65-1.11c1.65,1.04,3.45,2.7,4.24,3.96l-1.76,1.22ZM1401.66,387.35v2.09h5.72v-2.09h-5.72ZM1401.66,390.91v2.16h5.72v-2.16h-5.72ZM1415.62,387.35h-6.01v2.09h6.01v-2.09ZM1415.62,393.07v-2.16h-6.01v2.16h6.01Z"/>
    <path class="cls-54" d="M1423.39,379.4v-2.01h14.39v2.01h-14.39ZM1436.3,392.06v10.57h-9.06v1.69h-2.16v-12.26h11.22ZM1425.11,384.26v-1.98h11.29v1.98h-11.29ZM1425.11,389.15v-1.98h11.29v1.98h-11.29ZM1436.41,372.6v1.98h-11.11v-1.98h11.11ZM1434.11,394.11h-6.87v6.47h6.87v-6.47ZM1442.38,400.08c0,1.37.43,1.69,2.48,1.69h7.26c2.05,0,2.34-.94,2.55-6.15.61.43,1.62.83,2.3,1.01-.36,5.9-1.15,7.44-4.71,7.44h-7.55c-3.63,0-4.75-.79-4.75-3.96v-14.28h12.62v-10.14h-13.06v-2.3h15.5v16.47h-2.45v-1.73h-10.21v11.94Z"/>
    <path class="cls-54" d="M1482.19,381.52c.32,4.57.9,8.78,1.73,12.19,1.98-3.09,3.52-6.55,4.67-10.14l2.81.79c-.11.25-.36.4-.75.4-1.37,4.24-3.34,8.34-5.9,11.94,1.19,3.49,2.7,5.65,4.53,5.65,1.08,0,1.51-1.83,1.73-6.33.5.5,1.33,1.08,1.94,1.26-.43,5.72-1.29,7.44-3.85,7.44s-4.6-2.19-6.08-5.83c-1.83,2.27-3.96,4.24-6.33,5.83-.4-.58-1.11-1.33-1.76-1.8.9-.58,1.8-1.22,2.62-1.91h-7.08v3.74h-2.19v-3.74h-7.95v-1.94h7.95v-2.12h-6.37v-8.92h6.37v-2.09h-7.37v-1.87h7.37v-2.41l2.95.22c-.04.22-.25.4-.72.47v1.73h7.55v1.87h-7.55v2.09h6.58v8.92h-6.62v2.12h7.73v1.4c1.4-1.26,2.73-2.7,3.92-4.24-1.19-3.99-1.91-9.1-2.3-14.71h-19.92v-2.09h8.38v-3.13h-6.76v-2.01h6.76v-3.02l3.06.18c-.04.25-.22.43-.72.5v2.34h6.73v2.01h-6.73v3.13h9.1c-.14-2.62-.25-5.36-.25-8.09,2.41.11,2.81.14,3.17.18,0,.29-.22.47-.72.54,0,2.52.04,4.96.14,7.37h10.47v2.09h-10.32ZM1463.78,389.54v2.19h4.64v-2.19h-4.64ZM1463.78,393.21v2.23h4.64v-2.23h-4.64ZM1475.14,391.74v-2.19h-4.78v2.19h4.78ZM1475.14,395.44v-2.23h-4.78v2.23h4.78ZM1486.26,371.85c1.91,1.44,4.17,3.52,5.18,4.96l-1.8,1.4c-1.01-1.51-3.2-3.67-5.11-5.18l1.73-1.19Z"/>
    <path class="cls-54" d="M1528.59,392.53v1.98h-3.81v6.51h-2.45v-1.65h-9.13v2.45c0,1.62-.47,2.27-1.55,2.63-1.12.36-3.02.36-6.08.36-.11-.58-.54-1.51-.86-2.09,1.33.04,2.66.07,3.63.07,2.19,0,2.41,0,2.41-.94v-2.48h-11.98v-1.91h11.98v-2.95h-15.07v-1.98h15.07v-2.73h-11.65v-1.83h11.65v-2.41h-10.57v-6.94h10.57v-2.27h-14.42v-2.05h14.42v-3.02l3.13.18c-.04.29-.22.47-.68.5v2.34h14.71v2.05h-14.71v2.27h11.08v6.94h-11.08v2.41h11.58v4.57h3.81ZM1502.51,383.79h8.24v-3.42h-8.24v3.42ZM1521.79,380.37h-8.6v3.42h8.6v-3.42ZM1513.2,389.8v2.73h9.13v-2.73h-9.13ZM1522.33,397.46v-2.95h-9.13v2.95h9.13Z"/>
    <path class="cls-54" d="M1539.13,392.74c1.8-.61,3.63-1.22,5.47-1.87l.4,2.09c-4.46,1.69-9.17,3.42-12.19,4.46,0,.29-.18.5-.43.61l-1.29-2.66c1.55-.47,3.49-1.08,5.65-1.8v-15.72h-4.93v-2.27h12.34v2.27h-5v14.89ZM1552.4,399.97c-.11.14-.36.22-.68.25-1.87,1.62-5.61,3.49-8.81,4.53-.32-.5-1.08-1.26-1.55-1.73,3.13-1.01,6.91-2.81,8.7-4.39l2.34,1.33ZM1546.1,379.04h6.01c.36-1.19.68-2.59.93-3.81h-8.78v-2.16h20.57v2.16h-9.17c-.29,1.11-.72,2.55-1.15,3.81h8.92v18.92h-17.33v-18.92ZM1561.07,384.72v-3.78h-12.66v3.78h12.66ZM1561.07,390.33v-3.78h-12.66v3.78h12.66ZM1561.07,396.02v-3.81h-12.66v3.81h12.66ZM1563.55,404.79c-1.58-1.37-4.78-3.38-7.34-4.71l1.83-1.33c2.48,1.22,5.72,3.17,7.41,4.57l-1.91,1.47Z"/>
    <path class="cls-54" d="M1580.45,377.46v2.05h-13.2v-2.05h13.2ZM1579.3,392.42v10.57h-8.27v1.69h-2.12v-12.26h10.39ZM1579.19,382.49v1.98h-10.25v-1.98h10.25ZM1568.94,389.44v-1.98h10.25v1.98h-10.25ZM1579.09,372.6v1.98h-9.93v-1.98h9.93ZM1577.14,394.47h-6.11v6.47h6.11v-6.47ZM1592.61,401.12h8.2v2.3h-20.39v-2.3h2.99v-18.49l2.95.22c-.04.25-.22.43-.68.47v17.8h4.57v-25.46h-8.56v-2.3h18.56v2.3h-7.62v10.57h7.41v2.3h-7.41v12.59Z"/>
    <path class="cls-54" d="M1616.56,395.23h-9.53v3.45h-2.27v-25.1h11.8v21.65ZM1614.3,375.81h-7.26v7.3h7.26v-7.3ZM1607.03,393h7.26v-7.66h-7.26v7.66ZM1635.48,372.89v28.48c0,1.62-.4,2.41-1.51,2.81-1.11.4-3.09.47-6.26.47-.11-.68-.54-1.73-.9-2.41,1.22.04,2.41.07,3.38.07,2.63,0,2.91,0,2.91-.94v-8.38h-11.22c-.83,4.35-2.7,8.74-6.83,11.94-.36-.47-1.26-1.33-1.8-1.65,6.22-4.78,6.83-11.72,6.83-17.44v-12.95h15.39ZM1622.46,385.84c0,1.55-.07,3.2-.25,4.93h10.9v-6.76h-10.65v1.83ZM1633.11,375.16h-10.65v6.62h10.65v-6.62Z"/>
    <path class="cls-54" d="M1657.02,389.87h15.25v1.83h-32.55v-1.83h14.89v-2.34h-12.37v-1.69h12.37v-2.19h-11.26v-1.65h11.26v-2.34h-14.78v-1.83h14.78v-2.27h-10.86v-1.69h10.86v-2.63l3.13.22c-.04.25-.22.4-.72.47v1.94h10.39v3.96h4.68v1.83h-4.68v3.99h-10.39v2.19h12.66v1.69h-12.66v2.34ZM1644.47,404.83v-11.29h23.31v11.22h-2.41v-1.19h-18.56v1.26h-2.34ZM1665.37,395.3h-18.56v2.37h18.56v-2.37ZM1646.81,401.81h18.56v-2.48h-18.56v2.48ZM1657.02,375.55v2.27h7.98v-2.27h-7.98ZM1657.02,379.65v2.34h7.98v-2.34h-7.98Z"/>
    <path class="cls-54" d="M1261.74,445c0-2.27,1.8-4.03,4.03-4.03s4.03,1.8,4.03,4.03-1.8,4.03-4.03,4.03-4.03-1.83-4.03-4.03Z"/>
    <path class="cls-54" d="M1284.45,437.95c-1.37,2.27-2.88,4.28-4.39,6.01-.25-.58-.86-1.69-1.26-2.27,3.45-3.74,6.91-9.96,8.99-16.18l2.88.97c-.14.25-.4.36-.83.32-.94,2.52-2.05,5.04-3.31,7.44l.97.25c-.07.22-.25.4-.72.43v23.84h-2.34v-20.82ZM1302.61,455.07h10.43v2.3h-23.63v-2.3h10.75v-9.57h-8.56v-2.3h8.56v-8.34h-9.78v-2.3h12.88c-1.69-1.65-5.14-4.1-7.84-5.68l1.58-1.73c2.77,1.58,6.33,3.92,8.06,5.57l-1.58,1.83h9.06v2.3h-9.93v8.34h8.81v2.3h-8.81v9.57Z"/>
    <path class="cls-54" d="M1330.85,444.75h-10.83c-.11,4.42-.72,10.03-3.27,13.95-.36-.43-1.33-1.19-1.91-1.47,2.59-3.96,2.84-9.53,2.84-13.74v-9.93h13.16v11.19ZM1331.96,427.27v2.23h-16.11v-2.23h16.11ZM1328.51,435.8h-8.49v6.76h8.49v-6.76ZM1349.26,437.7v2.34h-4.28v18.67h-2.37v-18.67h-6.69c-.14,5.72-1.15,13.13-6.19,18.52-.32-.54-1.19-1.33-1.8-1.65,5.04-5.4,5.61-12.66,5.61-18.27v-9.6l1.87.5c3.99-1.04,8.34-2.41,10.83-3.81l2.34,1.94c-.14.14-.4.22-.72.14-2.91,1.33-7.62,2.73-11.94,3.78v6.11h13.34Z"/>
    <path class="cls-54" d="M1364.66,431.41v2.05h-13.2v-2.05h13.2ZM1363.5,446.37v10.57h-8.27v1.69h-2.12v-12.26h10.39ZM1363.4,436.44v1.98h-10.25v-1.98h10.25ZM1353.15,443.39v-1.98h10.25v1.98h-10.25ZM1363.29,426.55v1.98h-9.93v-1.98h9.93ZM1361.35,448.42h-6.11v6.47h6.11v-6.47ZM1376.81,455.07h8.2v2.3h-20.39v-2.3h2.99v-18.49l2.95.22c-.04.25-.22.43-.68.47v17.8h4.57v-25.46h-8.56v-2.3h18.56v2.3h-7.62v10.57h7.41v2.3h-7.41v12.59Z"/>
    <path class="cls-54" d="M1400.76,449.18h-9.53v3.45h-2.27v-25.1h11.8v21.65ZM1398.5,429.75h-7.26v7.3h7.26v-7.3ZM1391.23,446.95h7.26v-7.66h-7.26v7.66ZM1419.68,426.84v28.48c0,1.62-.4,2.41-1.51,2.81-1.11.4-3.09.47-6.26.47-.11-.68-.54-1.73-.9-2.41,1.22.04,2.41.07,3.38.07,2.63,0,2.91,0,2.91-.94v-8.38h-11.22c-.83,4.35-2.7,8.74-6.83,11.94-.36-.47-1.26-1.33-1.8-1.65,6.22-4.78,6.83-11.72,6.83-17.44v-12.95h15.39ZM1406.66,439.79c0,1.55-.07,3.2-.25,4.93h10.9v-6.76h-10.65v1.83ZM1417.31,429.11h-10.65v6.62h10.65v-6.62Z"/>
    <path class="cls-54" d="M1441.23,443.82h15.25v1.83h-32.55v-1.83h14.89v-2.34h-12.37v-1.69h12.37v-2.19h-11.26v-1.65h11.26v-2.34h-14.78v-1.83h14.78v-2.27h-10.86v-1.69h10.86v-2.63l3.13.22c-.04.25-.21.4-.72.47v1.94h10.39v3.96h4.68v1.83h-4.68v3.99h-10.39v2.19h12.66v1.69h-12.66v2.34ZM1428.67,458.78v-11.29h23.31v11.22h-2.41v-1.19h-18.56v1.26h-2.34ZM1449.57,449.25h-18.56v2.37h18.56v-2.37ZM1431.01,455.76h18.56v-2.48h-18.56v2.48ZM1441.23,429.5v2.27h7.98v-2.27h-7.98ZM1441.23,433.6v2.34h7.98v-2.34h-7.98Z"/>
  </g>
  <rect class="cls-51" x="722.8" y="1024.53" width="1244.2" height="163.53" rx="11.67" ry="11.67"/>
  <g>
    <path class="cls-54" d="M802.41,1077.32h15.25v1.83h-32.55v-1.83h14.89v-2.34h-12.37v-1.69h12.37v-2.19h-11.26v-1.65h11.26v-2.34h-14.78v-1.83h14.78v-2.27h-10.86v-1.69h10.86v-2.63l3.13.22c-.04.25-.21.4-.72.47v1.94h10.39v3.96h4.68v1.83h-4.68v3.99h-10.39v2.19h12.66v1.69h-12.66v2.34ZM789.86,1092.28v-11.29h23.31v11.22h-2.41v-1.19h-18.56v1.26h-2.34ZM810.75,1082.75h-18.56v2.37h18.56v-2.37ZM792.19,1089.26h18.56v-2.48h-18.56v2.48ZM802.41,1063v2.27h7.98v-2.27h-7.98ZM802.41,1067.1v2.34h7.98v-2.34h-7.98Z"/>
    <path class="cls-54" d="M827.62,1075.27v-5.68c-1.62,2.3-3.74,4.46-5.72,5.65-.32-.47-.97-1.22-1.44-1.62,2.27-1.19,4.75-3.6,6.33-6.01h-5.79v-2.01h6.62v-6.8l2.84.18c-.04.22-.22.4-.68.47v6.15h6.55v2.01h-6.55v.5c1.47.86,5.72,3.63,6.73,4.42l-1.33,1.76c-1.01-.9-3.56-2.88-5.39-4.17v5.14h-2.16ZM829.71,1081.52c-.04.58-.14,1.19-.25,1.76,2.23,1.55,4.93,3.63,6.4,4.93l-1.62,1.65c-1.19-1.19-3.42-2.98-5.47-4.5-1.04,2.23-3.06,4.39-6.94,6.15-.29-.54-.9-1.4-1.33-1.83,5.29-2.37,6.65-5.36,6.98-8.16h-6.51v-2.16h6.58v-3.31l2.91.18c-.04.25-.22.43-.68.5v2.63h6.69v2.16h-6.76ZM823.56,1059.91c.97,1.26,1.87,3.02,2.19,4.17l-1.83.79c-.32-1.19-1.19-2.99-2.12-4.32l1.76-.65ZM831.58,1064.22c.76-1.22,1.69-3.17,2.16-4.46l2.48.94c-.11.22-.36.29-.72.29-.58,1.15-1.51,2.84-2.3,3.96l-1.62-.72ZM843.55,1087.31c-.11.14-.32.25-.65.29-1.44,1.58-4.53,3.52-7.23,4.6-.36-.47-1.08-1.22-1.62-1.62,2.7-1.04,5.72-2.91,7.16-4.5l2.34,1.22ZM837.83,1066.38h4.89c.32-1.15.65-2.52.9-3.71h-7.05v-2.16h17.44v2.16h-7.91c-.25,1.08-.65,2.48-1.08,3.71h7.7v18.92h-14.89v-18.92ZM850.42,1072.06v-3.74h-10.36v3.74h10.36ZM850.42,1077.68v-3.74h-10.36v3.74h10.36ZM850.42,1083.36v-3.81h-10.36v3.81h10.36ZM848.41,1086.24c2.12,1.29,4.86,3.27,6.29,4.64-.22.14-.43.29-1.91,1.33-1.29-1.33-4.03-3.34-6.19-4.75l1.8-1.22Z"/>
    <path class="cls-54" d="M875.35,1065.3c-.14.32-.43.58-.9.58-1.29,11.19-5.04,20.93-11,20.93-3.02,0-5.75-3.02-5.75-8.7,0-8.63,6.73-15.86,16.18-15.86,10.39,0,14.89,6.58,14.89,13.59,0,8.56-4.96,12.7-13.67,14.71-.32-.58-.93-1.55-1.51-2.19,8.27-1.58,12.52-5.61,12.52-12.41,0-5.93-3.81-11.33-12.23-11.33-.36,0-.75.04-1.08.07l2.55.61ZM871.9,1064.84c-7.27.9-11.76,6.91-11.76,13.2,0,3.85,1.65,6.26,3.38,6.26,4.35,0,7.48-9.6,8.38-19.46Z"/>
    <path class="cls-54" d="M922.97,1063.04c-.07.14-.29.25-.47.32-1.94,4.6-5.04,8.6-8.52,11.51-.54-.47-1.55-1.12-2.19-1.47,3.31-2.41,5.97-5.9,7.16-8.92h-25.75v-2.45h27.12l.4-.18,2.27,1.19ZM908.94,1069.58c-.04.29-.36.54-.83.61-1.04,8.49-3.96,16.58-11.37,20.86-.5-.43-1.44-1.26-2.12-1.65,7.34-4.03,9.96-11.54,10.83-20.21l3.49.4Z"/>
    <path class="cls-54" d="M929.59,1069.4c1.08,2.19,2.27,5.65,2.7,7.73l-2.01.54c-.43-2.09-1.55-5.36-2.63-7.66l1.94-.61ZM951.06,1069.66c-.07.32-.43.4-.76.36-2.8,10.5-8.09,16.94-16.8,20.46-.29-.43-.93-1.26-1.4-1.65,8.6-3.38,13.52-9.28,16.15-20l2.81.83ZM938.33,1067.68c.76,2.41,1.44,5.86,1.69,8.16l-2.12.4c-.22-2.3-.9-5.61-1.69-8.09l2.12-.47Z"/>
    <path class="cls-54" d="M956.96,1064.12h22.87l.22-.11,2.45,1.87c-.11.14-.22.25-.43.32-2.91,13.52-9.17,20.57-20.18,24.74-.4-.65-1.12-1.58-1.62-2.12,10.47-3.85,16.51-10.54,18.85-22.23h-22.15v-2.48ZM984.36,1057.68c2.16,0,3.92,1.76,3.92,3.96s-1.76,3.92-3.92,3.92-3.96-1.76-3.96-3.92c0-2.27,1.83-3.96,3.96-3.96ZM987.09,1061.63c0-1.55-1.22-2.77-2.73-2.77s-2.77,1.22-2.77,2.77,1.26,2.77,2.77,2.77,2.73-1.33,2.73-2.77Z"/>
    <path class="cls-54" d="M1018.06,1064.69v23.74h-2.59v-2.27h-19.82v2.34h-2.52v-23.81h24.92ZM1015.47,1083.75v-16.65h-19.82v16.65h19.82Z"/>
    <path class="cls-54" d="M1025.29,1073.54h30.03v2.55h-28.66c-.22.36-.68.61-1.15.68l-.22-3.24Z"/>
    <path class="cls-54" d="M1081.94,1078.93c-3.67-1.98-8.7-4.32-12.62-5.86v17.95h-2.7v-31.25l3.63.22c-.04.4-.32.65-.93.76v10.57l.54-.79c4.21,1.55,9.78,4.03,13.52,6.01l-1.44,2.41ZM1078.16,1062c1.65,1.37,3.81,3.63,4.96,5.29l-1.37,1.12c-1.08-1.55-3.27-3.96-4.89-5.25l1.29-1.15ZM1082.98,1058.9c1.69,1.4,3.85,3.67,4.93,5.25l-1.29,1.12c-1.11-1.55-3.31-3.92-4.93-5.25l1.29-1.12Z"/>
    <path class="cls-54" d="M1092.59,1075.4v-4.93h4.93v4.93h-4.93ZM1092.59,1089.11v-4.93h4.93v4.93h-4.93Z"/>
    <path class="cls-54" d="M784.79,1132.45c0-2.27,1.8-4.03,4.03-4.03s4.03,1.8,4.03,4.03-1.8,4.03-4.03,4.03-4.03-1.83-4.03-4.03Z"/>
    <path class="cls-54" d="M817.46,1139.46l.11,2.05c-4.96.97-10.18,1.98-13.45,2.59-.04.29-.25.43-.5.5l-.83-2.73c1.8-.25,4.03-.61,6.47-1.04v-10.61h-6.15v-2.19h6.15v-4.1h-4.06v-.86c-.43.47-.86.93-1.33,1.37-.4-.54-1.15-1.29-1.69-1.62,3.34-3.09,5.83-7.05,7.19-10.14l2.95.47c-.07.25-.29.43-.72.43v.04c2.37,1.91,5.14,4.46,6.55,6.15-.86.97-1.15,1.4-1.47,1.87-1.29-1.65-3.81-4.1-6.11-6.08-1.12,1.98-2.52,4.17-4.28,6.26h9.53v2.12h-4.32v4.1h5.86v2.19h-5.86v10.25l5.97-1.01ZM805.66,1139.43c-.14-1.87-.83-4.67-1.62-6.83l1.8-.47c.83,2.16,1.51,4.93,1.69,6.76l-1.87.54ZM817.21,1132.7c-.11.22-.36.32-.72.32-.5,1.73-1.44,4.39-2.19,6.08-.04,0-1.65-.61-1.65-.61.72-1.76,1.65-4.68,2.09-6.65l2.48.86ZM827.24,1129.93c.5,2.09,1.12,4.06,1.94,5.86,1.69-1.29,3.63-2.99,4.86-4.32l2.09,1.87c-.18.18-.47.25-.79.18-1.33,1.19-3.49,2.88-5.25,4.1,1.58,2.91,3.7,5.18,6.37,6.51-.54.47-1.26,1.37-1.58,2.01-5.11-2.91-8.13-8.88-9.67-16.22h-3.6v12.19c2.34-.4,4.89-.9,7.45-1.37l.18,2.12c-4.17.93-8.49,1.87-11.22,2.41-.07.29-.25.47-.5.54l-.97-2.81,2.77-.47v-28.3h15v15.68h-7.05ZM831.95,1116.45h-10.36v4.5h10.36v-4.5ZM821.59,1123.07v4.64h10.36v-4.64h-10.36Z"/>
    <path class="cls-54" d="M849.65,1113.89c-.07.18-.36.32-.79.25-2.09,2.63-5.83,6.04-9.03,8.31-.29-.54-.97-1.47-1.4-1.94,3.02-1.98,6.58-5.18,8.42-7.8l2.81,1.19ZM844.15,1146.12v-15.82c-1.37,1.51-2.73,2.91-4.1,4.1-.32-.47-1.08-1.44-1.55-1.87,3.42-2.84,7.37-7.55,9.85-12.05l2.81,1.15c-.11.22-.4.36-.83.29-1.08,1.8-2.34,3.63-3.71,5.39l.65.22c-.07.22-.29.4-.72.47v18.13h-2.41ZM871.95,1125.44v2.34h-5.72v15.21c0,3.02-1.15,3.09-8.42,3.09-.11-.68-.43-1.66-.79-2.37,1.58.04,3.06.07,4.17.07,2.34,0,2.59,0,2.59-.83v-15.18h-12.52v-2.34h20.68ZM870.58,1114.97v2.3h-17.95v-2.3h17.95Z"/>
    <path class="cls-54" d="M887.84,1136.62h-9.53v3.45h-2.27v-25.1h11.8v21.65ZM885.58,1117.2h-7.26v7.3h7.26v-7.3ZM878.31,1134.39h7.26v-7.66h-7.26v7.66ZM906.76,1114.29v28.48c0,1.62-.4,2.41-1.51,2.81-1.11.4-3.09.47-6.26.47-.11-.68-.54-1.73-.9-2.41,1.22.04,2.41.07,3.38.07,2.63,0,2.91,0,2.91-.94v-8.38h-11.22c-.83,4.35-2.7,8.74-6.83,11.94-.36-.47-1.26-1.33-1.8-1.65,6.22-4.78,6.83-11.72,6.83-17.44v-12.95h15.39ZM893.74,1127.24c0,1.55-.07,3.2-.25,4.93h10.9v-6.76h-10.65v1.83ZM904.39,1116.56h-10.65v6.62h10.65v-6.62Z"/>
    <path class="cls-54" d="M921.8,1128.68c-.68-1.22-1.47-2.48-2.27-3.56l1.83-.86c1.69,2.27,3.49,5.32,4.17,7.3l-1.94.94c-.18-.58-.47-1.26-.83-1.98l-3.92.22v15.39h-2.19v-15.29c-2.05.07-3.92.18-5.4.22-.04.29-.25.4-.5.47l-.65-2.7h2.66c.79-.93,1.65-2.01,2.48-3.17-1.11-1.62-3.06-3.7-4.78-5.21l1.22-1.58c.36.29.72.61,1.08.97,1.26-2.12,2.73-5.04,3.56-7.12l2.63,1.12c-.14.22-.36.29-.76.29-1.01,2.09-2.66,5.04-4.03,7.05.94.93,1.76,1.87,2.34,2.7,1.62-2.41,3.17-4.96,4.28-7.05l2.55,1.22c-.14.18-.43.29-.83.29-1.87,3.06-4.82,7.34-7.41,10.47l6.69-.11ZM915.11,1134.11c-.07.22-.29.36-.68.36-.5,3.06-1.33,6.51-2.45,8.63-.47-.32-1.26-.68-1.8-.94,1.04-2.01,1.83-5.47,2.3-8.74l2.62.68ZM922.84,1141.08c-.32-1.94-1.33-4.93-2.37-7.16l1.87-.61c1.08,2.27,2.12,5.14,2.52,7.08l-2.01.68ZM925.65,1115.58h16.58v30.03h-2.3v-1.69h-12.05v1.98h-2.23v-30.32ZM932.77,1117.85h-4.89v10.72h4.89v-10.72ZM927.88,1130.83v10.86h4.89v-10.86h-4.89ZM939.92,1128.57v-10.72h-4.96v10.72h4.96ZM934.96,1141.7h4.96v-10.86h-4.96v10.86Z"/>
    <path class="cls-54" d="M964.27,1131.26h15.25v1.83h-32.55v-1.83h14.89v-2.34h-12.37v-1.69h12.37v-2.19h-11.26v-1.65h11.26v-2.34h-14.78v-1.83h14.78v-2.27h-10.86v-1.69h10.86v-2.63l3.13.22c-.04.25-.22.4-.72.47v1.94h10.39v3.96h4.68v1.83h-4.68v3.99h-10.39v2.19h12.66v1.69h-12.66v2.34ZM951.72,1146.23v-11.29h23.31v11.22h-2.41v-1.19h-18.56v1.26h-2.34ZM972.62,1136.7h-18.56v2.37h18.56v-2.37ZM954.06,1143.21h18.56v-2.48h-18.56v2.48ZM964.27,1116.95v2.27h7.98v-2.27h-7.98ZM964.27,1121.05v2.34h7.98v-2.34h-7.98Z"/>
    <path class="cls-54" d="M983.91,1118.28c2.23.14,5.21.14,7.66.14,1.62,0,3.45-.04,4.96-.07-.04-1.73-.07-3.74-.07-5l3.63.18c-.04.43-.36.65-.97.75-.04.58,0,3.35,0,3.96,4.21-.22,8.38-.58,11.94-1.4l.32,2.37c-3.52.79-7.7,1.15-12.26,1.37.04,2.16.07,4.39.14,6.62,3.49-.22,7.23-.68,10.14-1.4l.29,2.34c-3.02.65-6.8,1.08-10.39,1.26l.29,6.01c3.31,1.08,6.83,2.95,10.57,5.61l-1.58,2.19c-3.24-2.55-6.29-4.28-8.92-5.29,0,.58.04,1.22.04,1.69-.04,3.42-2.09,5.39-6.44,5.39-4.57,0-7.91-1.87-7.91-5.25s3.92-5.36,7.95-5.36c1.19,0,2.45.11,3.78.43-.04-1.55-.11-3.42-.14-5.36-1.15.04-2.45.07-3.49.07-6.15,0-7.88-.97-7.88-3.06,0-1.37,1.04-2.48,3.34-3.96l1.73,1.12c-1.62.9-2.48,1.69-2.48,2.41,0,1.08,1.69,1.29,6.26,1.29.79,0,1.62,0,2.41-.04l-.22-6.65c-1.55.07-3.34.07-4.96.07-2.3,0-5.57,0-7.73-.07v-2.37ZM997.22,1137.02c-1.44-.4-2.77-.58-4.03-.58-2.73,0-5.5,1.11-5.5,3.27s2.52,3.17,5.65,3.17c2.84,0,3.92-1.26,3.92-3.78l-.04-2.09Z"/>
    <path class="cls-54" d="M1037.75,1120.58c-3.06,1.08-7.12,1.76-11.04,2.05-1.51,8.24-3.71,16.44-6.58,22.48l-2.59-.97c2.95-5.79,5.11-13.24,6.51-21.4-.72.04-5.54.07-6.62.04l-.04-2.45c.58.04,1.33.04,2.16.04.32,0,3.92,0,4.86-.04.36-2.3.72-4.82.93-7.01l3.7.36c-.04.4-.54.68-1.04.72-.22,1.58-.58,3.52-.9,5.72,3.52-.32,7.08-.94,10.07-2.01l.58,2.48ZM1047.32,1144.54c-1.08.04-2.19.07-3.31.07-3.38,0-6.58-.25-8.52-.79-2.55-.72-4.03-2.59-3.99-4.96.04-1.58.72-3.38,2.23-5.21l2.16.94c-1.26,1.47-1.87,2.88-1.87,3.99,0,2.84,2.73,3.56,9.28,3.56,1.33,0,2.7-.04,4.03-.14v2.55ZM1033.29,1127.2c3.7-1.19,8.81-1.94,13.06-1.83v2.45c-4.06-.11-8.78.47-12.44,1.62l-.61-2.23Z"/>
    <path class="cls-54" d="M1055.09,1144.1c-1.12-2.59-1.55-7.95-1.55-12.66s.76-10.79,1.94-16.8l3.49.68c-.07.36-.43.61-.93.65-1.29,4.93-2.09,11.33-2.09,15.5,0,2.73.04,5.47.32,6.8.79-2.16,2.23-5.61,2.99-7.3l1.62,1.51c-1.19,2.45-3.7,7.91-3.7,9.6,0,.5.11,1.04.36,1.73l-2.45.29ZM1064.22,1122.92c3.02.04,6.04.07,9.06-.14-.14-3.09-.25-5.75-.32-8.42l3.63.11c-.04.36-.36.65-.94.75.04,2.3.11,4.64.18,7.37,2.84-.29,5.14-.79,7.05-1.44l.32,2.52c-1.73.54-4.21,1.04-7.26,1.29.14,3.99.32,8.2.43,10.5,2.73,1.12,5.47,2.88,7.34,4.57l-1.4,2.3c-1.47-1.47-3.6-3.06-5.83-4.1-.04,3.06-.61,6.47-6.01,6.47-4.21,0-7.01-2.01-7.01-5.18,0-3.67,3.7-5.29,7.01-5.29,1.12,0,2.3.14,3.42.47-.11-2.27-.32-6.04-.5-9.57-1.11.07-2.62.11-3.67.11h-5.47l-.04-2.34ZM1074.08,1137.06c-1.15-.36-2.37-.65-3.56-.65-2.19,0-4.82.79-4.82,3.06,0,2.01,2.16,3.02,4.78,3.02s3.63-1.29,3.63-4.17l-.04-1.26Z"/>
    <path class="cls-54" d="M1105.98,1116.77h-3.34v29.35h-2.34v-7.41c-4.32.75-8.6,1.51-11.4,1.94-.07.29-.29.47-.54.5l-.94-2.77c.94-.11,2.01-.25,3.2-.43v-21.18h-3.13v-2.27h18.49v2.27ZM1100.3,1121.99v-5.21h-7.37v5.21h7.37ZM1100.3,1129.5v-5.29h-7.37v5.29h7.37ZM1092.92,1131.73v5.93c2.3-.32,4.86-.72,7.37-1.08v-4.86h-7.37ZM1118.21,1117.92l1.51.5c-.04.18-.18.36-.29.47-.97,7.27-2.99,13.2-5.79,17.84,1.98,3.2,4.46,5.75,7.52,7.45-.58.43-1.37,1.37-1.73,1.98-2.91-1.76-5.29-4.17-7.23-7.19-2.16,3.02-4.68,5.39-7.48,7.16-.36-.58-1.08-1.47-1.62-1.94,2.88-1.65,5.5-4.21,7.7-7.55-2.27-4.32-3.85-9.57-4.93-15.46l2.23-.43c.9,5,2.23,9.6,4.17,13.49,2.05-3.81,3.63-8.49,4.53-13.85h-12.05v-2.37h13.02l.43-.07Z"/>
    <path class="cls-54" d="M1138.17,1130.26l.54-.07,1.44.29c0,.22-.07.5-.11.76-.68,8.96-1.33,12.48-2.63,13.74-.9.97-1.98,1.15-4.42,1.15-1.29,0-3.02-.07-4.75-.18-.07-.75-.4-1.76-.9-2.48,2.7.25,5.36.29,6.26.29s1.33-.07,1.73-.4c.94-.83,1.55-3.78,2.12-10.83h-9.71c-.14.68-.25,1.29-.4,1.87l-2.41-.4c.75-2.91,1.58-7.62,2.09-11.18h10.54v-6.29h-12.7v-2.27h15.11v11.87h-2.41v-1.04h-8.45c-.29,1.73-.61,3.52-.9,5.18h9.96ZM1150.4,1113.03l3.13.21c-.04.25-.22.43-.72.47v32.4h-2.41v-33.09Z"/>
    <path class="cls-54" d="M1172.7,1136.62h-9.53v3.45h-2.27v-25.1h11.8v21.65ZM1170.43,1117.2h-7.26v7.3h7.26v-7.3ZM1163.17,1134.39h7.26v-7.66h-7.26v7.66ZM1191.62,1114.29v28.48c0,1.62-.4,2.41-1.51,2.81-1.11.4-3.09.47-6.26.47-.11-.68-.54-1.73-.9-2.41,1.22.04,2.41.07,3.38.07,2.63,0,2.91,0,2.91-.94v-8.38h-11.22c-.83,4.35-2.7,8.74-6.83,11.94-.36-.47-1.26-1.33-1.8-1.65,6.22-4.78,6.83-11.72,6.83-17.44v-12.95h15.39ZM1178.6,1127.24c0,1.55-.07,3.2-.25,4.93h10.9v-6.76h-10.65v1.83ZM1189.24,1116.56h-10.65v6.62h10.65v-6.62Z"/>
    <path class="cls-54" d="M1206.65,1128.68c-.68-1.22-1.47-2.48-2.27-3.56l1.83-.86c1.69,2.27,3.49,5.32,4.17,7.3l-1.94.94c-.18-.58-.47-1.26-.83-1.98l-3.92.22v15.39h-2.19v-15.29c-2.05.07-3.92.18-5.4.22-.04.29-.25.4-.5.47l-.65-2.7h2.66c.79-.93,1.65-2.01,2.48-3.17-1.11-1.62-3.06-3.7-4.78-5.21l1.22-1.58c.36.29.72.61,1.08.97,1.26-2.12,2.73-5.04,3.56-7.12l2.63,1.12c-.14.22-.36.29-.76.29-1.01,2.09-2.66,5.04-4.03,7.05.94.93,1.76,1.87,2.34,2.7,1.62-2.41,3.17-4.96,4.28-7.05l2.55,1.22c-.14.18-.43.29-.83.29-1.87,3.06-4.82,7.34-7.41,10.47l6.69-.11ZM1199.96,1134.11c-.07.22-.29.36-.68.36-.5,3.06-1.33,6.51-2.45,8.63-.47-.32-1.26-.68-1.8-.94,1.04-2.01,1.83-5.47,2.3-8.74l2.62.68ZM1207.69,1141.08c-.32-1.94-1.33-4.93-2.37-7.16l1.87-.61c1.08,2.27,2.12,5.14,2.52,7.08l-2.01.68ZM1210.5,1115.58h16.58v30.03h-2.3v-1.69h-12.05v1.98h-2.23v-30.32ZM1217.62,1117.85h-4.89v10.72h4.89v-10.72ZM1212.73,1130.83v10.86h4.89v-10.86h-4.89ZM1224.78,1128.57v-10.72h-4.96v10.72h4.96ZM1219.81,1141.7h4.96v-10.86h-4.96v10.86Z"/>
    <path class="cls-54" d="M1249.13,1131.26h15.25v1.83h-32.55v-1.83h14.89v-2.34h-12.37v-1.69h12.37v-2.19h-11.26v-1.65h11.26v-2.34h-14.78v-1.83h14.78v-2.27h-10.86v-1.69h10.86v-2.63l3.13.22c-.04.25-.22.4-.72.47v1.94h10.39v3.96h4.68v1.83h-4.68v3.99h-10.39v2.19h12.66v1.69h-12.66v2.34ZM1236.57,1146.23v-11.29h23.31v11.22h-2.41v-1.19h-18.56v1.26h-2.34ZM1257.47,1136.7h-18.56v2.37h18.56v-2.37ZM1238.91,1143.21h18.56v-2.48h-18.56v2.48ZM1249.13,1116.95v2.27h7.98v-2.27h-7.98ZM1249.13,1121.05v2.34h7.98v-2.34h-7.98Z"/>
  </g>
  <g>
    <path class="cls-54" d="M1096.63,787.81c0-2.27,1.8-4.03,4.03-4.03s4.03,1.8,4.03,4.03-1.8,4.03-4.03,4.03-4.03-1.83-4.03-4.03Z"/>
    <path class="cls-54" d="M1121.76,782.45v11.83c2.81,4.28,8.06,4.28,14.82,4.28,3.96,0,8.56-.07,11.37-.25-.29.54-.68,1.65-.75,2.37-2.48.07-6.44.14-10,.14-7.91,0-12.88,0-16.44-4.46-1.65,1.62-3.34,3.2-4.75,4.42.04.29-.04.43-.29.58l-1.4-2.55c1.55-1.15,3.42-2.73,5.11-4.28v-9.78h-4.75v-2.3h7.08ZM1116.94,768.96c2.27,1.69,4.82,4.21,5.93,6.01l-1.98,1.51c-1.04-1.83-3.56-4.42-5.83-6.19l1.87-1.33ZM1134.16,797.55v-3.78h-10.68v-1.91h10.68v-2.45h-7.95v-10.32h7.95v-2.37h-9.28v-1.87h9.28v-2.84l3.06.18c-.04.25-.25.43-.72.5v2.16h9.35v1.87h-9.35v2.37h8.06v10.32h-8.06v2.45h10.86v1.91h-10.86v3.78h-2.34ZM1126.4,771.15v2.81h-2.19v-4.71h22.44v4.71h-2.27v-2.81h-17.98ZM1128.37,780.83v2.59h5.79v-2.59h-5.79ZM1128.37,787.7h5.79v-2.62h-5.79v2.62ZM1142.36,780.83h-5.86v2.59h5.86v-2.59ZM1142.36,787.7v-2.62h-5.86v2.62h5.86Z"/>
    <path class="cls-54" d="M1167,795h-7.08v6.47h-2.27v-6.47h-7.19v-2.16h7.19v-3.09h-5.79v-12.62h5.79v-2.88h-6.69v-2.16h6.69v-4.03l2.99.18c-.04.25-.22.43-.68.47v3.38h6.55v2.16h-6.55v2.88h6.01v12.62h-6.04v3.09h7.08v2.16ZM1153.84,779.03v3.49h3.99v-3.49h-3.99ZM1153.84,784.32v3.56h3.99v-3.56h-3.99ZM1163.87,782.52v-3.49h-4.14v3.49h4.14ZM1163.87,787.88v-3.56h-4.14v3.56h4.14ZM1179.3,789.14c2.16,3.56,4.17,8.27,4.93,11.4l-2.23.93c-.18-.79-.43-1.65-.75-2.62-5.14.58-10.36,1.12-13.77,1.44-.04.29-.29.43-.54.47l-.9-2.88c.86-.04,1.87-.11,2.91-.18,1.12-3.63,2.34-9.06,3.06-13.27h-5.29v-2.34h17.19v2.34h-9.39c-.72,3.81-2.05,9.24-3.27,13.13,2.84-.18,6.04-.43,9.24-.68-.9-2.3-2.09-4.78-3.24-6.83l2.05-.9ZM1182.5,770.72v2.34h-14.06v-2.34h14.06Z"/>
    <path class="cls-54" d="M1200.31,789.42c-.04.22-.29.4-.72.47-1.01,5.61-3.09,9.67-11.83,11.72-.25-.61-.9-1.58-1.37-2.09,8.09-1.73,10-5.14,10.72-10.47l3.2.36ZM1208.33,797.77c0,1.01.32,1.19,1.87,1.19h5.47c1.47,0,1.73-.65,1.87-5.18.54.43,1.58.83,2.27,1.01-.32,5.21-1.01,6.47-3.96,6.47h-5.86c-3.27,0-4.14-.75-4.14-3.49v-9.24h-15.57v-9.35c-.65.54-1.37,1.04-2.09,1.51-.4-.58-1.15-1.44-1.73-1.8,5-3.17,8.63-7.48,10.5-10.93l3.17.54c-.07.29-.32.47-.79.47-.36.61-.79,1.26-1.26,1.94h9.5l.4-.14,1.87,1.19c-.11.18-.29.29-.5.29-.83,1.47-2.16,3.31-3.49,4.89h11v11.4h-7.88c-.07.14-.29.29-.65.32v8.92ZM1202.97,777.12c1.11-1.19,2.23-2.73,3.09-4.14h-9.53c-1.12,1.37-2.37,2.77-3.85,4.14h10.29ZM1192.68,779.32v7.01h9.17v-7.01h-9.17ZM1214.33,786.33v-7.01h-10.11v7.01h10.11Z"/>
    <path class="cls-54" d="M1236.7,774.14v2.01h-14.39v-2.01h14.39ZM1235.23,788.81v10.57h-9.06v1.69h-2.16v-12.26h11.22ZM1224.04,781.01v-1.98h11.29v1.98h-11.29ZM1224.04,785.9v-1.98h11.29v1.98h-11.29ZM1235.34,769.36v1.98h-11.11v-1.98h11.11ZM1233.04,790.86h-6.87v6.47h6.87v-6.47ZM1255.94,785.29v2.34h-8.24v13.85h-2.45v-13.85h-8.7v-2.34h8.7v-9.46h-3.78c-1.01,2.62-2.16,5.04-3.45,6.8-.43-.4-1.37-.97-1.94-1.26,2.23-3.06,4.14-8.27,5.25-13.38l2.99.76c-.07.25-.32.36-.79.36-.36,1.47-.79,2.99-1.26,4.46h12.77v2.27h-7.34v9.46h8.24Z"/>
    <path class="cls-54" d="M1271.48,774.21v2.05h-13.2v-2.05h13.2ZM1270.33,789.17v10.57h-8.27v1.69h-2.12v-12.26h10.39ZM1270.22,779.25v1.98h-10.25v-1.98h10.25ZM1259.97,786.19v-1.98h10.25v1.98h-10.25ZM1270.12,769.36v1.98h-9.93v-1.98h9.93ZM1268.17,791.22h-6.11v6.47h6.11v-6.47ZM1283.64,797.88h8.2v2.3h-20.39v-2.3h2.99v-18.49l2.95.22c-.04.25-.22.43-.68.47v17.8h4.57v-25.46h-8.56v-2.3h18.56v2.3h-7.62v10.57h7.41v2.3h-7.41v12.59Z"/>
    <path class="cls-54" d="M1096.63,841.75c0-2.27,1.8-4.03,4.03-4.03s4.03,1.8,4.03,4.03-1.8,4.03-4.03,4.03-4.03-1.83-4.03-4.03Z"/>
    <path class="cls-54" d="M1146.57,828.92c-.11.18-.29.29-.54.36-3.34,5.11-8.99,10.47-14.53,14.46,2.77,2.23,5.54,5,7.37,7.01l-2.19,1.91c-3.78-4.42-10.86-10.36-16.94-13.92l1.73-1.83c2.55,1.44,5.43,3.34,8.02,5.32,4.86-3.45,9.78-8.09,12.62-12.26h-26.4v-2.45h28.3l.43-.22,2.12,1.62Z"/>
    <path class="cls-54" d="M1179.19,825.32c-.14.18-.36.29-.68.29-.11,0-.22,0-.36-.04-2.77,2.81-6.76,6.08-10.25,8.6.29.11.72.32.86.4-.07.22-.4.43-.79.47v19.31h-2.63v-18.49c-3.81,2.7-8.78,5.61-13.7,8.02-.36-.58-1.01-1.47-1.51-1.98,9.82-4.53,20.57-12.23,26.36-18.59l2.7,2.01Z"/>
    <path class="cls-54" d="M1212.71,835.1h-13.02c-.68,9.24-3.02,14.85-10.86,19.35-.5-.58-1.37-1.26-2.05-1.76,7.45-4.14,9.64-9.06,10.32-17.59h-14.42v-2.48h14.53c.11-2.8.14-6.04.14-9.67l3.52.22c-.04.36-.36.58-.86.65-.04,3.27-.04,6.19-.18,8.81h12.88v2.48Z"/>
    <path class="cls-54" d="M1218.4,825.93c3.74,1.19,8.06,3.06,10.72,4.89l-1.37,2.27c-2.59-1.83-6.83-3.74-10.5-5l1.15-2.16ZM1218.25,850.85c12.77-3.96,21.25-11.11,25.57-21.08.75.61,1.58,1.08,2.34,1.47-4.5,9.85-13.27,17.51-25.46,21.58-.04.32-.25.68-.5.83l-1.94-2.81Z"/>
    <path class="cls-54" d="M1261.59,828.63c-.11.29-.4.5-.93.54-1.44,8.63-4.42,17.73-8.63,23.05-.65-.5-1.62-.97-2.41-1.29,4.03-4.89,7.19-14.03,8.34-23.05l3.63.75ZM1279.68,852c-1.69-6.29-5.86-16.51-9.57-23.16l2.34-1.11c3.78,6.44,7.98,16.58,9.85,23.23l-2.62,1.04ZM1274.47,823.09c1.65,1.47,3.42,3.7,4.39,5.32l-1.37,1.01c-1.01-1.62-2.88-3.96-4.39-5.32l1.37-1.01ZM1279.22,821.22c1.62,1.51,3.42,3.67,4.42,5.29l-1.4,1.04c-1.01-1.62-2.88-3.92-4.39-5.29l1.37-1.04Z"/>
    <path class="cls-54" d="M1286.45,836.79h30.03v2.55h-28.66c-.22.36-.68.61-1.15.68l-.22-3.24Z"/>
    <path class="cls-54" d="M1349.64,831.5c-.07.14-.14.32-.32.47-.47,10.36-1.47,16.87-2.88,19.42-1.44,2.48-3.52,2.59-4.71,2.59-1.4,0-3.96-.32-6.44-.83.07-.72,0-1.8-.11-2.55,2.7.61,5.47.9,6.29.9,1.29,0,2.01-.32,2.77-1.69,1.08-2.19,1.98-8.24,2.34-16.33h-11.51c-1.8,8.6-5.36,15.72-11.87,20.61-.43-.47-1.37-1.15-2.05-1.58,6.22-4.67,9.5-10.83,11.22-19.03h-9.93v-2.41h10.43c.43-2.55.65-4.86.83-7.84l3.56.29c-.04.4-.36.61-.9.65-.22,2.62-.4,4.6-.79,6.91h11.65l.58-.22,1.83.65Z"/>
    <path class="cls-54" d="M1355.86,836.79h30.03v2.55h-28.66c-.22.36-.68.61-1.15.68l-.22-3.24Z"/>
    <path class="cls-54" d="M1412.51,842.19c-3.67-1.98-8.7-4.32-12.62-5.86v17.95h-2.7v-31.25l3.63.22c-.04.4-.32.65-.93.76v10.57l.54-.79c4.21,1.55,9.78,4.03,13.52,6.01l-1.44,2.41ZM1408.73,825.25c1.65,1.37,3.81,3.63,4.96,5.29l-1.37,1.12c-1.08-1.55-3.27-3.96-4.89-5.25l1.29-1.15ZM1413.55,822.15c1.69,1.4,3.85,3.67,4.93,5.25l-1.29,1.12c-1.11-1.55-3.31-3.92-4.93-5.25l1.29-1.12Z"/>
    <path class="cls-54" d="M1096.63,895.7c0-2.27,1.8-4.03,4.03-4.03s4.03,1.8,4.03,4.03-1.8,4.03-4.03,4.03-4.03-1.83-4.03-4.03Z"/>
    <path class="cls-54" d="M1126.72,882.58c-.11.29-.4.5-.93.54-1.44,8.63-4.42,17.73-8.63,23.05-.65-.5-1.62-.97-2.41-1.29,4.03-4.89,7.19-14.03,8.34-23.05l3.63.75ZM1144.81,905.95c-1.69-6.29-5.86-16.51-9.57-23.16l2.34-1.11c3.78,6.44,7.98,16.58,9.85,23.23l-2.62,1.04ZM1144.34,875.38c2.23,0,4.03,1.8,4.03,4.06s-1.8,4.03-4.03,4.03-4.03-1.83-4.03-4.03c0-2.34,1.87-4.06,4.03-4.06ZM1147.18,879.45c0-1.62-1.29-2.88-2.84-2.88s-2.84,1.26-2.84,2.88,1.26,2.84,2.84,2.84,2.84-1.37,2.84-2.84Z"/>
    <path class="cls-54" d="M1175.42,880.67c-.07.18-.25.32-.47.4-1.94,4.57-4.24,8.52-7.19,12.37,3.92,3.13,9.82,8.49,13.16,12.19l-2.19,1.91c-3.17-3.67-8.96-9.13-12.62-12.08-3.17,3.85-8.63,9.1-13.85,12.08-.4-.54-1.26-1.44-1.87-1.94,9.96-5.47,17.84-15.68,21.08-23.48h-17.66v-2.45h19.06l.47-.18,2.09,1.19Z"/>
    <path class="cls-54" d="M1194.55,892.9c-1.62,4.21-3.99,7.91-6.76,10.61l-2.09-1.37c2.7-2.52,5.04-5.93,6.51-10.14l2.34.9ZM1202.25,887.36v16.87c0,3.92-2.81,3.92-8.56,3.92-.14-.65-.43-1.65-.76-2.41,1.04.04,2.19.04,3.17.04h2.09c1.01,0,1.47-.65,1.47-1.51v-16.9h-12.23v-2.45h12.23v-7.59l3.42.18c-.04.36-.29.61-.83.68v6.73h12.16v2.45h-12.16ZM1208.69,891.75c2.63,2.91,5.65,7.16,7.59,10.47l-2.3,1.33c-1.76-3.27-4.93-7.91-7.34-10.65l2.05-1.15ZM1213.36,875.17c2.19,0,3.99,1.8,3.99,4.03s-1.8,4.03-3.99,4.03-4.06-1.8-4.06-4.03,1.87-4.03,4.06-4.03ZM1216.17,879.2c0-1.58-1.26-2.88-2.8-2.88s-2.88,1.29-2.88,2.88,1.29,2.84,2.88,2.84,2.8-1.37,2.8-2.84Z"/>
    <path class="cls-54" d="M1221.35,890.74h30.03v2.55h-28.66c-.22.36-.68.61-1.15.68l-.22-3.24Z"/>
    <path class="cls-54" d="M1277.27,896.1c-3.67-1.98-8.7-4.32-12.62-5.86v17.98h-2.7v-31.25l3.63.22c-.04.4-.32.65-.93.76v10.5l.54-.75c4.21,1.55,9.78,4.03,13.52,6.01l-1.44,2.41Z"/>
    <path class="cls-54" d="M1285.33,881.53c2.23.14,5.21.14,7.66.14,1.62,0,3.45-.04,4.96-.07-.04-1.73-.07-3.74-.07-5l3.63.18c-.04.43-.36.65-.97.75-.04.58,0,3.35,0,3.96,4.21-.22,8.38-.58,11.94-1.4l.32,2.37c-3.52.79-7.7,1.15-12.26,1.37.04,2.16.07,4.39.14,6.62,3.49-.22,7.23-.68,10.14-1.4l.29,2.34c-3.02.65-6.8,1.08-10.39,1.26l.29,6.01c3.31,1.08,6.83,2.95,10.57,5.61l-1.58,2.19c-3.24-2.55-6.29-4.28-8.92-5.29,0,.58.04,1.22.04,1.69-.04,3.42-2.09,5.39-6.44,5.39-4.57,0-7.91-1.87-7.91-5.25s3.92-5.36,7.95-5.36c1.19,0,2.45.11,3.78.43-.04-1.55-.11-3.42-.14-5.36-1.15.04-2.45.07-3.49.07-6.15,0-7.88-.97-7.88-3.06,0-1.37,1.04-2.48,3.34-3.96l1.73,1.12c-1.62.9-2.48,1.69-2.48,2.41,0,1.08,1.69,1.29,6.26,1.29.79,0,1.62,0,2.41-.04l-.22-6.65c-1.55.07-3.34.07-4.96.07-2.3,0-5.57,0-7.73-.07v-2.37ZM1298.64,900.27c-1.44-.4-2.77-.58-4.03-.58-2.73,0-5.5,1.11-5.5,3.27s2.52,3.17,5.65,3.17c2.84,0,3.92-1.26,3.92-3.78l-.04-2.09Z"/>
    <path class="cls-54" d="M1339.17,883.83c-3.06,1.08-7.12,1.76-11.04,2.05-1.51,8.24-3.71,16.44-6.58,22.48l-2.59-.97c2.95-5.79,5.11-13.24,6.51-21.4-.72.04-5.54.07-6.62.04l-.04-2.45c.58.04,1.33.04,2.16.04.32,0,3.92,0,4.86-.04.36-2.3.72-4.82.93-7.01l3.7.36c-.04.4-.54.68-1.04.72-.22,1.58-.58,3.52-.9,5.72,3.52-.32,7.08-.94,10.07-2.01l.58,2.48ZM1348.74,907.79c-1.08.04-2.19.07-3.31.07-3.38,0-6.58-.25-8.52-.79-2.55-.72-4.03-2.59-3.99-4.96.04-1.58.72-3.38,2.23-5.21l2.16.94c-1.26,1.47-1.87,2.88-1.87,3.99,0,2.84,2.73,3.56,9.28,3.56,1.33,0,2.7-.04,4.03-.14v2.55ZM1334.71,890.45c3.7-1.19,8.81-1.94,13.06-1.83v2.45c-4.06-.11-8.78.47-12.44,1.62l-.61-2.23Z"/>
    <path class="cls-54" d="M1356.51,907.36c-1.12-2.59-1.55-7.95-1.55-12.66s.76-10.79,1.94-16.8l3.49.68c-.07.36-.43.61-.93.65-1.29,4.93-2.09,11.33-2.09,15.5,0,2.73.04,5.47.32,6.8.79-2.16,2.23-5.61,2.99-7.3l1.62,1.51c-1.19,2.45-3.7,7.91-3.7,9.6,0,.5.11,1.04.36,1.73l-2.45.29ZM1365.64,886.17c3.02.04,6.04.07,9.06-.14-.14-3.09-.25-5.75-.32-8.42l3.63.11c-.04.36-.36.65-.94.75.04,2.3.11,4.64.18,7.37,2.84-.29,5.14-.79,7.05-1.44l.32,2.52c-1.73.54-4.21,1.04-7.26,1.29.14,3.99.32,8.2.43,10.5,2.73,1.12,5.47,2.88,7.34,4.57l-1.4,2.3c-1.47-1.47-3.6-3.06-5.83-4.1-.04,3.06-.61,6.47-6.01,6.47-4.21,0-7.01-2.01-7.01-5.18,0-3.67,3.7-5.29,7.01-5.29,1.12,0,2.3.14,3.42.47-.11-2.27-.32-6.04-.5-9.57-1.11.07-2.62.11-3.67.11h-5.47l-.04-2.34ZM1375.5,900.31c-1.15-.36-2.37-.65-3.56-.65-2.19,0-4.82.79-4.82,3.06,0,2.01,2.16,3.02,4.78,3.02s3.63-1.29,3.63-4.17l-.04-1.26Z"/>
    <path class="cls-54" d="M1419.45,886.64h-24.31v1.91c0,6.11-.54,14.93-4.39,20.86-.43-.43-1.51-1.04-2.09-1.29,3.7-5.72,4.06-13.74,4.06-19.56v-10.61h26.72v8.7ZM1417.04,880.13h-21.9v4.32h21.9v-4.32ZM1421.97,893.22h-12.48v4.42h9.35v11.65h-2.41v-1.26h-15.86v1.33h-2.34v-11.72h8.85v-4.42h-11.4v-2.19h11.4v-4.21l3.13.18c-.04.25-.22.43-.72.5v3.52h12.48v2.19ZM1416.43,905.85v-6.04h-15.86v6.04h15.86Z"/>
    <path class="cls-54" d="M1429.74,888.65c-1.37,2.27-2.88,4.28-4.39,6.01-.25-.58-.86-1.69-1.26-2.27,3.45-3.74,6.91-9.96,8.99-16.18l2.88.97c-.14.25-.4.36-.83.32-.94,2.52-2.05,5.04-3.31,7.44l.97.25c-.07.22-.25.4-.72.43v23.84h-2.34v-20.82ZM1447.9,905.77h10.43v2.3h-23.63v-2.3h10.75v-9.57h-8.56v-2.3h8.56v-8.34h-9.78v-2.3h12.88c-1.69-1.65-5.14-4.1-7.84-5.68l1.58-1.73c2.77,1.58,6.33,3.92,8.06,5.57l-1.58,1.83h9.06v2.3h-9.93v8.34h8.81v2.3h-8.81v9.57Z"/>
    <path class="cls-54" d="M1475.16,882.04v2.01h-14.39v-2.01h14.39ZM1473.69,896.71v10.57h-9.06v1.69h-2.16v-12.26h11.22ZM1462.5,888.91v-1.98h11.29v1.98h-11.29ZM1462.5,893.8v-1.98h11.29v1.98h-11.29ZM1473.79,877.25v1.98h-11.11v-1.98h11.11ZM1471.49,898.76h-6.87v6.47h6.87v-6.47ZM1494.4,893.19v2.34h-8.24v13.85h-2.45v-13.85h-8.7v-2.34h8.7v-9.46h-3.78c-1.01,2.62-2.16,5.04-3.45,6.8-.43-.4-1.37-.97-1.94-1.26,2.23-3.06,4.14-8.27,5.25-13.38l2.99.76c-.07.25-.32.36-.79.36-.36,1.47-.79,2.99-1.26,4.46h12.77v2.27h-7.34v9.46h8.24Z"/>
    <path class="cls-54" d="M1529.79,878.55v2.45h-4.57v24.74c0,1.83-.47,2.7-1.8,3.13-1.4.43-3.92.43-7.48.43-.18-.72-.68-1.91-1.04-2.63,1.65.07,3.27.11,4.57.11,3.13,0,3.27,0,3.27-1.08v-24.71h-25.39v-2.45h32.44ZM1515.95,900.09h-12.77v2.98h-2.37v-16.47h15.14v13.49ZM1513.54,888.91h-10.36v8.88h10.36v-8.88Z"/>
    <path class="cls-54" d="M1545.91,882.11v2.05h-13.2v-2.05h13.2ZM1544.76,897.07v10.57h-8.27v1.69h-2.12v-12.26h10.39ZM1544.65,887.14v1.98h-10.25v-1.98h10.25ZM1534.4,894.08v-1.98h10.25v1.98h-10.25ZM1544.54,877.25v1.98h-9.93v-1.98h9.93ZM1542.6,899.12h-6.11v6.47h6.11v-6.47ZM1558.06,905.77h8.2v2.3h-20.39v-2.3h2.99v-18.49l2.95.22c-.04.25-.22.43-.68.47v17.8h4.57v-25.46h-8.56v-2.3h18.56v2.3h-7.62v10.57h7.41v2.3h-7.41v12.59Z"/>
  </g>
  <g>
    <polygon class="cls-62" points="354.14 1224.62 354.14 1201.67 315.83 1232.87 277.52 1201.67 277.52 1224.62 315.83 1255.82 354.14 1224.62"/>
    <rect class="cls-62" x="285.8" y="1188.83" width="60.07" height="32.74" transform="translate(1521.03 889.36) rotate(90)"/>
  </g>
  <g>
    <polygon class="cls-62" points="354.14 982.98 354.14 960.03 315.83 991.22 277.52 960.03 277.52 982.98 315.83 1014.17 354.14 982.98"/>
    <rect class="cls-62" x="205.43" y="866.81" width="220.82" height="32.74" transform="translate(1199.01 567.34) rotate(90)"/>
  </g>
  <g>
    <polygon class="cls-62" points="354.14 578.36 354.14 555.41 315.83 586.6 277.52 555.41 277.52 578.36 315.83 609.55 354.14 578.36"/>
    <rect class="cls-62" x="235.21" y="491.97" width="161.25" height="32.74" transform="translate(824.17 192.51) rotate(90)"/>
  </g>
  <g>
    <polygon class="cls-62" points="354.14 238.93 354.14 215.98 315.83 247.17 277.52 215.98 277.52 238.93 315.83 270.12 354.14 238.93"/>
    <rect class="cls-62" x="281.85" y="199.19" width="67.96" height="32.74" transform="translate(531.39 -100.28) rotate(90)"/>
  </g>
</svg>