<?xml version="1.0" encoding="UTF-8"?>
<svg id="Layer_1" data-name="Layer 1" xmlns="http://www.w3.org/2000/svg" viewBox="0 0 1997 925">
  <defs>
    <style>
      .cls-1 {
        fill: #ff931e;
      }

      .cls-2 {
        fill: #00a99d;
      }

      .cls-3, .cls-4 {
        fill: #009245;
      }

      .cls-5, .cls-6 {
        fill: #4d4d4d;
      }

      .cls-4 {
        font-family: MyriadPro-Bold, 'Myriad Pro';
        font-size: 37px;
      }

      .cls-4, .cls-7, .cls-8 {
        font-weight: 700;
      }

      .cls-9 {
        stroke: #00a99d;
      }

      .cls-9, .cls-10, .cls-11 {
        fill: none;
        stroke-width: 3px;
      }

      .cls-9, .cls-10, .cls-12 {
        stroke-miterlimit: 10;
      }

      .cls-7 {
        font-size: 55px;
      }

      .cls-7, .cls-13 {
        fill: #fff;
      }

      .cls-7, .cls-8 {
        font-family: Arial-BoldMT, Arial;
      }

      .cls-14 {
        fill-rule: evenodd;
      }

      .cls-14, .cls-12 {
        fill: #f2f2f2;
      }

      .cls-10, .cls-11 {
        stroke: #fff;
        stroke-linecap: round;
      }

      .cls-11 {
        stroke-linejoin: round;
      }

      .cls-15 {
        fill: #29abe2;
      }

      .cls-6 {
        font-family: ArialMT, Arial;
        font-size: 32px;
      }

      .cls-16 {
        letter-spacing: -.07em;
      }

      .cls-17 {
        letter-spacing: -.09em;
      }

      .cls-18 {
        letter-spacing: -.02em;
      }

      .cls-19 {
        letter-spacing: -.06em;
      }

      .cls-8 {
        font-size: 30px;
      }

      .cls-12 {
        stroke: #009245;
        stroke-width: 4px;
      }

      .cls-20 {
        letter-spacing: .01em;
      }
    </style>
  </defs>
  <rect class="cls-13" y="-1" width="1997" height="925"/>
  <rect class="cls-15" x="153.82" y="515.97" width="224.53" height="224.53" rx="19.94" ry="19.94"/>
  <g>
    <path d="M187.37,799.62h-5.82l-2.31-6.02h-10.59l-2.19,6.02h-5.67l10.32-26.49h5.65l10.61,26.49ZM177.52,789.14l-3.65-9.83-3.58,9.83h7.23Z"/>
    <path d="M207.15,789.88l5.18,1.64c-.79,2.89-2.12,5.04-3.97,6.44-1.85,1.4-4.19,2.1-7.04,2.1-3.52,0-6.41-1.2-8.67-3.6-2.26-2.4-3.4-5.69-3.4-9.86,0-4.41,1.14-7.83,3.42-10.27,2.28-2.44,5.27-3.66,8.98-3.66,3.24,0,5.87.96,7.89,2.87,1.2,1.13,2.11,2.76,2.71,4.88l-5.29,1.26c-.31-1.37-.97-2.46-1.96-3.25-.99-.79-2.2-1.19-3.62-1.19-1.96,0-3.56.7-4.78,2.11-1.22,1.41-1.83,3.69-1.83,6.85,0,3.35.6,5.73,1.81,7.15s2.77,2.13,4.7,2.13c1.42,0,2.64-.45,3.67-1.36,1.02-.9,1.76-2.32,2.21-4.26Z"/>
    <path d="M238.24,796.26c1.31.94,2.74,1.69,4.28,2.24l-1.97,3.78c-.81-.24-1.6-.57-2.37-.99-.17-.08-1.35-.87-3.56-2.35-1.73.76-3.66,1.14-5.76,1.14-4.07,0-7.26-1.2-9.57-3.59s-3.46-5.76-3.46-10.1,1.16-7.69,3.47-10.09c2.31-2.4,5.45-3.6,9.41-3.6s7.04,1.2,9.34,3.6c2.3,2.4,3.45,5.77,3.45,10.09,0,2.29-.32,4.3-.96,6.03-.48,1.33-1.25,2.61-2.31,3.85ZM233.94,793.24c.69-.81,1.2-1.78,1.54-2.93.34-1.14.51-2.46.51-3.94,0-3.06-.67-5.34-2.02-6.86-1.35-1.51-3.11-2.27-5.29-2.27s-3.95.76-5.3,2.28c-1.35,1.52-2.03,3.8-2.03,6.85s.68,5.41,2.03,6.95c1.36,1.54,3.07,2.3,5.14,2.3.77,0,1.5-.13,2.19-.38-1.08-.71-2.19-1.26-3.31-1.66l1.5-3.05c1.76.6,3.44,1.51,5.04,2.71Z"/>
    <path d="M245.67,773.13h5.35v14.34c0,2.28.07,3.75.2,4.43.23,1.08.77,1.96,1.63,2.61s2.04.98,3.53.98,2.66-.31,3.43-.93c.77-.62,1.23-1.38,1.39-2.29.16-.9.23-2.4.23-4.5v-14.65h5.35v13.91c0,3.18-.14,5.43-.43,6.74-.29,1.31-.82,2.42-1.6,3.32-.78.9-1.82,1.62-3.12,2.16-1.3.54-3,.8-5.1.8-2.53,0-4.45-.29-5.75-.88s-2.34-1.34-3.1-2.28c-.76-.93-1.26-1.91-1.5-2.94-.35-1.52-.52-3.76-.52-6.72v-14.13Z"/>
    <path d="M272.26,799.62v-26.49h5.35v26.49h-5.35Z"/>
    <path d="M282.72,799.62v-26.49h11.25c2.83,0,4.89.24,6.17.71,1.28.48,2.31,1.32,3.08,2.54.77,1.22,1.16,2.61,1.16,4.17,0,1.99-.58,3.63-1.75,4.92s-2.92,2.11-5.24,2.45c1.16.67,2.11,1.42,2.86,2.22s1.77,2.24,3.04,4.3l3.23,5.17h-6.4l-3.87-5.76c-1.37-2.06-2.31-3.36-2.82-3.89s-1.04-.9-1.61-1.1c-.57-.2-1.46-.3-2.69-.3h-1.08v11.06h-5.35ZM288.07,784.34h3.96c2.57,0,4.17-.11,4.81-.33.64-.22,1.14-.59,1.5-1.12s.54-1.19.54-1.99c0-.89-.24-1.61-.71-2.16-.48-.55-1.15-.89-2.01-1.04-.43-.06-1.73-.09-3.9-.09h-4.17v6.72Z"/>
    <path d="M309.42,799.62v-26.49h19.64v4.48h-14.29v5.87h13.3v4.46h-13.3v7.21h14.8v4.46h-20.14Z"/>
    <path d="M334.12,799.62v-26.49h11.25c2.83,0,4.89.24,6.17.71,1.28.48,2.31,1.32,3.08,2.54.77,1.22,1.16,2.61,1.16,4.17,0,1.99-.58,3.63-1.75,4.92s-2.92,2.11-5.24,2.45c1.16.67,2.11,1.42,2.86,2.22s1.77,2.24,3.04,4.3l3.23,5.17h-6.4l-3.87-5.76c-1.37-2.06-2.31-3.36-2.82-3.89s-1.04-.9-1.61-1.1c-.57-.2-1.46-.3-2.69-.3h-1.08v11.06h-5.35ZM339.47,784.34h3.96c2.57,0,4.17-.11,4.81-.33.64-.22,1.14-.59,1.5-1.12s.54-1.19.54-1.99c0-.89-.24-1.61-.71-2.16-.48-.55-1.15-.89-2.01-1.04-.43-.06-1.73-.09-3.9-.09h-4.17v6.72Z"/>
    <path class="cls-5" d="M80.42,841.62l9.62-25.05h3.57l10.25,25.05h-3.78l-2.92-7.59h-10.48l-2.75,7.59h-3.52ZM87.65,831.33h8.49l-2.62-6.94c-.8-2.11-1.39-3.84-1.78-5.2-.32,1.61-.77,3.2-1.35,4.79l-2.75,7.35Z"/>
    <path class="cls-5" d="M118.02,841.62v-2.67c-1.41,2.05-3.33,3.08-5.76,3.08-1.07,0-2.07-.21-3-.62-.93-.41-1.62-.93-2.07-1.55-.45-.62-.77-1.38-.95-2.28-.13-.6-.19-1.56-.19-2.87v-11.25h3.08v10.07c0,1.61.06,2.69.19,3.25.19.81.6,1.44,1.23,1.91.63.46,1.4.69,2.32.69s1.79-.24,2.6-.71c.81-.47,1.38-1.12,1.72-1.93.34-.81.5-2,.5-3.55v-9.72h3.08v18.15h-2.75Z"/>
    <path class="cls-5" d="M132.3,838.87l.44,2.72c-.87.18-1.64.27-2.32.27-1.12,0-1.98-.18-2.6-.53-.62-.35-1.05-.82-1.3-1.39-.25-.58-.38-1.79-.38-3.63v-10.44h-2.26v-2.39h2.26v-4.5l3.06-1.85v6.34h3.09v2.39h-3.09v10.61c0,.88.05,1.44.16,1.69.11.25.28.45.53.6.25.15.6.22,1.05.22.34,0,.79-.04,1.35-.12Z"/>
    <path class="cls-5" d="M135.31,841.62v-25.05h3.08v8.99c1.44-1.66,3.25-2.5,5.44-2.5,1.34,0,2.51.26,3.5.79.99.53,1.7,1.26,2.13,2.2.43.93.64,2.29.64,4.07v11.5h-3.08v-11.5c0-1.54-.33-2.66-1-3.36-.67-.7-1.61-1.05-2.83-1.05-.91,0-1.77.24-2.57.71-.8.47-1.38,1.11-1.72,1.92-.34.81-.51,1.93-.51,3.35v9.93h-3.08Z"/>
    <path class="cls-5" d="M153.63,832.55c0-3.36.93-5.85,2.8-7.47,1.56-1.34,3.46-2.02,5.71-2.02,2.5,0,4.53.82,6.12,2.45,1.58,1.64,2.38,3.89,2.38,6.78,0,2.34-.35,4.17-1.05,5.51-.7,1.34-1.72,2.38-3.06,3.12-1.34.74-2.8,1.11-4.38,1.11-2.54,0-4.59-.81-6.16-2.44-1.57-1.63-2.35-3.98-2.35-7.04ZM156.79,832.55c0,2.32.51,4.06,1.52,5.22,1.01,1.16,2.29,1.73,3.83,1.73s2.8-.58,3.81-1.74c1.01-1.16,1.52-2.93,1.52-5.32,0-2.24-.51-3.94-1.53-5.1-1.02-1.16-2.29-1.74-3.8-1.74s-2.81.58-3.83,1.73c-1.01,1.15-1.52,2.89-1.52,5.21Z"/>
    <path class="cls-5" d="M174.21,841.62v-18.15h2.77v2.75c.71-1.29,1.36-2.14,1.96-2.55.6-.41,1.26-.62,1.97-.62,1.04,0,2.09.33,3.16.99l-1.06,2.85c-.75-.44-1.5-.67-2.26-.67-.67,0-1.28.2-1.81.61-.54.41-.92.97-1.15,1.68-.34,1.09-.51,2.29-.51,3.59v9.5h-3.08Z"/>
    <path class="cls-5" d="M185.91,820.1v-3.54h3.08v3.54h-3.08ZM185.91,841.62v-18.15h3.08v18.15h-3.08Z"/>
    <path class="cls-5" d="M192.44,836.2l3.04-.48c.17,1.22.65,2.15,1.43,2.8.78.65,1.87.97,3.27.97s2.46-.29,3.14-.86c.68-.58,1.03-1.25,1.03-2.03,0-.69-.3-1.24-.91-1.64-.42-.27-1.47-.62-3.14-1.04-2.26-.57-3.82-1.06-4.69-1.48-.87-.42-1.53-.99-1.98-1.73-.45-.74-.67-1.55-.67-2.44,0-.81.18-1.56.55-2.25s.87-1.26,1.51-1.72c.48-.35,1.13-.65,1.96-.9.83-.24,1.71-.37,2.66-.37,1.42,0,2.67.21,3.75.62,1.08.41,1.87.97,2.38,1.67.51.7.87,1.64,1.06,2.81l-3.01.41c-.14-.93-.53-1.66-1.19-2.19-.66-.52-1.58-.79-2.78-.79-1.41,0-2.42.23-3.03.7-.6.47-.91,1.01-.91,1.64,0,.4.13.76.38,1.08.25.33.64.6,1.18.82.31.11,1.21.38,2.72.79,2.18.58,3.69,1.06,4.55,1.43.86.37,1.54.91,2.03,1.62.49.71.74,1.58.74,2.63s-.3,1.99-.9,2.9c-.6.91-1.46,1.61-2.59,2.1-1.13.5-2.4.74-3.83.74-2.36,0-4.16-.49-5.39-1.47-1.24-.98-2.03-2.43-2.37-4.36Z"/>
    <path class="cls-5" d="M223.6,835.78l3.18.39c-.5,1.86-1.43,3.3-2.79,4.32-1.36,1.03-3.09,1.54-5.2,1.54-2.66,0-4.76-.82-6.32-2.45-1.55-1.63-2.33-3.93-2.33-6.88s.79-5.42,2.36-7.11c1.57-1.69,3.61-2.53,6.12-2.53s4.41.83,5.95,2.48c1.54,1.65,2.31,3.98,2.31,6.97,0,.18,0,.46-.02.82h-13.54c.11,1.99.68,3.52,1.69,4.58,1.01,1.06,2.28,1.59,3.79,1.59,1.13,0,2.09-.3,2.89-.89.8-.59,1.43-1.54,1.9-2.84ZM213.5,830.8h10.13c-.14-1.53-.52-2.67-1.16-3.43-.98-1.18-2.25-1.78-3.81-1.78-1.41,0-2.6.47-3.56,1.42-.96.95-1.5,2.21-1.6,3.79Z"/>
    <path class="cls-5" d="M242.41,841.62v-2.29c-1.15,1.8-2.84,2.7-5.08,2.7-1.45,0-2.78-.4-3.99-1.2-1.21-.8-2.15-1.91-2.82-3.34-.67-1.43-1-3.07-1-4.93s.3-3.46.91-4.93c.6-1.47,1.51-2.61,2.72-3.39,1.21-.79,2.56-1.18,4.05-1.18,1.09,0,2.07.23,2.92.69.85.46,1.55,1.06,2.08,1.8v-8.99h3.06v25.05h-2.85ZM232.69,832.56c0,2.32.49,4.06,1.47,5.21.98,1.15,2.14,1.73,3.47,1.73s2.49-.55,3.43-1.65c.94-1.1,1.41-2.78,1.41-5.03,0-2.48-.48-4.31-1.44-5.47s-2.14-1.74-3.54-1.74-2.51.56-3.43,1.68c-.92,1.12-1.38,2.88-1.38,5.28Z"/>
    <path class="cls-5" d="M265.96,841.62v-22.1h-8.25v-2.96h19.86v2.96h-8.29v22.1h-3.32Z"/>
    <path class="cls-5" d="M279.24,841.62v-18.15h2.77v2.75c.71-1.29,1.36-2.14,1.96-2.55.6-.41,1.26-.62,1.97-.62,1.04,0,2.09.33,3.16.99l-1.06,2.85c-.75-.44-1.5-.67-2.26-.67-.67,0-1.28.2-1.81.61-.54.41-.92.97-1.15,1.68-.34,1.09-.51,2.29-.51,3.59v9.5h-3.08Z"/>
    <path class="cls-5" d="M302.77,839.38c-1.14.97-2.24,1.65-3.29,2.05-1.05.4-2.18.6-3.39.6-1.99,0-3.53-.49-4.6-1.46-1.07-.97-1.61-2.22-1.61-3.73,0-.89.2-1.7.61-2.44.4-.73.93-1.32,1.59-1.77.65-.44,1.39-.78,2.21-1.01.6-.16,1.51-.31,2.73-.46,2.48-.3,4.31-.65,5.49-1.06.01-.42.02-.69.02-.8,0-1.25-.29-2.14-.87-2.65-.79-.69-1.95-1.04-3.5-1.04-1.45,0-2.52.25-3.2.76-.69.51-1.2,1.4-1.53,2.69l-3.01-.41c.27-1.29.72-2.33,1.35-3.12.63-.79,1.53-1.4,2.72-1.83,1.19-.43,2.56-.64,4.12-.64s2.81.18,3.78.55c.97.37,1.68.82,2.14,1.38.46.55.77,1.25.96,2.09.1.52.15,1.47.15,2.84v4.1c0,2.86.07,4.67.2,5.43.13.76.39,1.48.78,2.18h-3.21c-.32-.64-.52-1.38-.62-2.24ZM302.52,832.51c-1.12.46-2.79.84-5.03,1.16-1.26.18-2.16.39-2.68.62-.52.23-.93.56-1.21,1-.28.44-.43.93-.43,1.46,0,.82.31,1.5.93,2.05.62.55,1.53.82,2.73.82s2.24-.26,3.16-.78c.92-.52,1.6-1.23,2.03-2.13.33-.7.5-1.72.5-3.08v-1.13Z"/>
    <path class="cls-5" d="M310.4,841.62v-18.15h2.77v2.58c1.33-1.99,3.26-2.99,5.78-2.99,1.09,0,2.1.2,3.02.59.92.39,1.6.91,2.06,1.55.46.64.77,1.4.96,2.27.11.57.17,1.57.17,2.99v11.16h-3.08v-11.04c0-1.25-.12-2.19-.36-2.81-.24-.62-.66-1.12-1.27-1.49-.61-.37-1.32-.56-2.14-.56-1.31,0-2.44.42-3.39,1.25-.95.83-1.43,2.41-1.43,4.73v9.91h-3.08Z"/>
    <path class="cls-5" d="M328.63,836.2l3.04-.48c.17,1.22.65,2.15,1.43,2.8.78.65,1.87.97,3.27.97s2.46-.29,3.14-.86c.68-.58,1.03-1.25,1.03-2.03,0-.69-.3-1.24-.91-1.64-.42-.27-1.47-.62-3.14-1.04-2.26-.57-3.82-1.06-4.69-1.48-.87-.42-1.53-.99-1.98-1.73-.45-.74-.67-1.55-.67-2.44,0-.81.18-1.56.55-2.25s.87-1.26,1.51-1.72c.48-.35,1.13-.65,1.96-.9.83-.24,1.71-.37,2.66-.37,1.42,0,2.67.21,3.75.62,1.08.41,1.87.97,2.38,1.67.51.7.87,1.64,1.06,2.81l-3.01.41c-.14-.93-.53-1.66-1.19-2.19-.66-.52-1.58-.79-2.78-.79-1.41,0-2.42.23-3.03.7-.6.47-.91,1.01-.91,1.64,0,.4.13.76.38,1.08.25.33.64.6,1.18.82.31.11,1.21.38,2.72.79,2.18.58,3.69,1.06,4.55,1.43.86.37,1.54.91,2.03,1.62.49.71.74,1.58.74,2.63s-.3,1.99-.9,2.9c-.6.91-1.46,1.61-2.59,2.1-1.13.5-2.4.74-3.83.74-2.36,0-4.16-.49-5.39-1.47-1.24-.98-2.03-2.43-2.37-4.36Z"/>
    <path class="cls-5" d="M359.21,839.38c-1.14.97-2.24,1.65-3.29,2.05-1.05.4-2.18.6-3.39.6-1.99,0-3.53-.49-4.6-1.46-1.07-.97-1.61-2.22-1.61-3.73,0-.89.2-1.7.61-2.44.4-.73.93-1.32,1.59-1.77.65-.44,1.39-.78,2.21-1.01.6-.16,1.51-.31,2.73-.46,2.48-.3,4.31-.65,5.49-1.06.01-.42.02-.69.02-.8,0-1.25-.29-2.14-.87-2.65-.79-.69-1.95-1.04-3.5-1.04-1.45,0-2.52.25-3.2.76-.69.51-1.2,1.4-1.53,2.69l-3.01-.41c.27-1.29.72-2.33,1.35-3.12.63-.79,1.53-1.4,2.72-1.83,1.19-.43,2.56-.64,4.12-.64s2.81.18,3.78.55c.97.37,1.68.82,2.14,1.38.46.55.77,1.25.96,2.09.1.52.15,1.47.15,2.84v4.1c0,2.86.07,4.67.2,5.43.13.76.39,1.48.78,2.18h-3.21c-.32-.64-.52-1.38-.62-2.24ZM358.95,832.51c-1.12.46-2.79.84-5.03,1.16-1.26.18-2.16.39-2.68.62-.52.23-.93.56-1.21,1-.28.44-.43.93-.43,1.46,0,.82.31,1.5.93,2.05.62.55,1.53.82,2.73.82s2.24-.26,3.16-.78c.92-.52,1.6-1.23,2.03-2.13.33-.7.5-1.72.5-3.08v-1.13Z"/>
    <path class="cls-5" d="M378.67,834.97l3.03.39c-.33,2.08-1.18,3.72-2.54,4.9-1.36,1.18-3.03,1.77-5.02,1.77-2.48,0-4.48-.81-5.99-2.44-1.51-1.62-2.26-3.95-2.26-6.98,0-1.96.32-3.67.97-5.14.65-1.47,1.64-2.57,2.96-3.31,1.33-.74,2.77-1.1,4.33-1.1,1.97,0,3.58.5,4.84,1.5,1.25,1,2.06,2.41,2.41,4.25l-2.99.46c-.29-1.22-.79-2.14-1.51-2.75-.72-.62-1.6-.92-2.62-.92-1.55,0-2.81.56-3.78,1.67-.97,1.11-1.45,2.87-1.45,5.27s.47,4.21,1.4,5.31c.93,1.11,2.15,1.66,3.66,1.66,1.21,0,2.21-.37,3.02-1.11.81-.74,1.32-1.88,1.54-3.42Z"/>
    <path class="cls-5" d="M391.04,838.87l.44,2.72c-.87.18-1.64.27-2.32.27-1.12,0-1.98-.18-2.6-.53-.62-.35-1.05-.82-1.3-1.39-.25-.58-.38-1.79-.38-3.63v-10.44h-2.26v-2.39h2.26v-4.5l3.06-1.85v6.34h3.09v2.39h-3.09v10.61c0,.88.05,1.44.16,1.69.11.25.28.45.53.6.25.15.6.22,1.05.22.34,0,.79-.04,1.35-.12Z"/>
    <path class="cls-5" d="M394.07,820.1v-3.54h3.08v3.54h-3.08ZM394.07,841.62v-18.15h3.08v18.15h-3.08Z"/>
    <path class="cls-5" d="M400.68,832.55c0-3.36.93-5.85,2.8-7.47,1.56-1.34,3.46-2.02,5.71-2.02,2.5,0,4.53.82,6.12,2.45,1.58,1.64,2.38,3.89,2.38,6.78,0,2.34-.35,4.17-1.05,5.51-.7,1.34-1.72,2.38-3.06,3.12-1.34.74-2.8,1.11-4.38,1.11-2.54,0-4.59-.81-6.16-2.44-1.57-1.63-2.35-3.98-2.35-7.04ZM403.84,832.55c0,2.32.51,4.06,1.52,5.22,1.01,1.16,2.29,1.73,3.83,1.73s2.8-.58,3.81-1.74c1.01-1.16,1.52-2.93,1.52-5.32,0-2.24-.51-3.94-1.53-5.1-1.02-1.16-2.29-1.74-3.8-1.74s-2.81.58-3.83,1.73c-1.01,1.15-1.52,2.89-1.52,5.21Z"/>
    <path class="cls-5" d="M421.29,841.62v-18.15h2.77v2.58c1.33-1.99,3.26-2.99,5.78-2.99,1.09,0,2.1.2,3.02.59.92.39,1.6.91,2.06,1.55.46.64.77,1.4.96,2.27.11.57.17,1.57.17,2.99v11.16h-3.08v-11.04c0-1.25-.12-2.19-.36-2.81-.24-.62-.66-1.12-1.27-1.49-.61-.37-1.32-.56-2.14-.56-1.31,0-2.44.42-3.39,1.25-.95.83-1.43,2.41-1.43,4.73v9.91h-3.08Z"/>
  </g>
  <path class="cls-14" d="M186.41,601.76h162.58v-7.98l-81.28-39.19-81.3,39.19v7.98h0ZM184.52,688h11.02v-68.72h-3.21c-1.03,0-1.86-.84-1.86-1.87v-11.89h-5.95c-1.04,0-1.87-.84-1.87-1.88v-11.05h0c0-.69.39-1.36,1.06-1.69l83.18-40.1c.5-.24,1.1-.26,1.64,0l83.04,40.04c.7.28,1.19.96,1.19,1.75v11.05c0,1.04-.85,1.88-1.89,1.88h-5.94v11.89c0,1.03-.84,1.87-1.86,1.87h-3.21v68.72h11.01c1.04,0,1.89.85,1.89,1.89v11.59c0,1.04-.85,1.88-1.89,1.88h-166.35c-1.04,0-1.87-.84-1.87-1.88v-11.59c0-1.03.84-1.89,1.87-1.89h0ZM233.05,605.52v11.89c0,1.03-.83,1.87-1.86,1.87h-3.21v68.72h23.5v-68.72h-3.2c-1.03,0-1.86-.84-1.86-1.87v-11.89h-13.37ZM288.99,605.52v11.89c0,1.03-.83,1.87-1.85,1.87h-3.22v68.72h23.51v-68.72h-3.21c-1.02,0-1.85-.84-1.85-1.87v-11.89h-13.38ZM341.22,605.52h-35.15v10.01h35.15v-10.01h0ZM285.27,605.52h-35.15v10.01h35.15v-10.01h0ZM229.34,605.52h-35.16v10.01h35.16v-10.01h0ZM199.3,688h24.9v-68.72h-24.9v68.72h0ZM255.25,688h24.91v-68.72h-24.91v68.72h0ZM311.19,688h24.92v-68.72h-24.92v68.72h0ZM348.99,691.77h-162.58v7.83h162.58v-7.83Z"/>
  <rect class="cls-1" x="181.75" y="78.23" width="186.89" height="186.89" rx="19.94" ry="19.94"/>
  <text class="cls-8" transform="translate(125.39 304.48)"><tspan class="cls-16" x="0" y="0">P</tspan><tspan class="cls-17" x="17.78" y="0">A</tspan><tspan x="36.69" y="0">YMENT G</tspan><tspan class="cls-16" x="173.36" y="0">A</tspan><tspan x="192.8" y="0">TE</tspan><tspan class="cls-19" x="231.14" y="0">W</tspan><tspan class="cls-17" x="257.8" y="0">A</tspan><tspan class="cls-18" x="276.71" y="0">Y</tspan></text>
  <g>
    <g>
      <path class="cls-11" d="M265.84,178.02c-4.68,1.08-9.12,2.95-13.05,5.47"/>
      <path class="cls-11" d="M297.6,183.49c-3.93-2.53-8.37-4.4-13.05-5.47"/>
      <path class="cls-11" d="M316.26,209.72c-1.08-4.68-2.95-9.12-5.47-13.05"/>
      <path class="cls-11" d="M239.61,196.68c-2.53,3.93-4.4,8.37-5.47,13.05"/>
      <path class="cls-11" d="M296.01,221.77c.16-.86.22-1.77.22-2.69,0-11.67-9.36-21.03-21.03-21.03s-21.03,9.36-21.03,21.03c0,.91.05,1.83.22,2.69"/>
      <polyline class="cls-11" points="265.84 178.02 265.84 165.3 284.55 165.3 284.55 178.02"/>
      <polyline class="cls-11" points="297.6 183.49 306.62 174.42 319.86 187.65 310.78 196.68"/>
      <polyline class="cls-11" points="316.23 209.72 328.98 209.72 328.98 221.77"/>
      <polyline class="cls-11" points="221.42 221.77 221.42 209.72 234.16 209.72"/>
      <polyline class="cls-11" points="239.61 196.68 230.54 187.65 243.77 174.42 252.8 183.49"/>
    </g>
    <path class="cls-11" d="M213.35,119.59h123.69v101.18c0,.55-.45,1-1,1h-121.69c-.55,0-1-.45-1-1v-101.18h0Z"/>
    <line class="cls-11" x1="213.35" y1="141.1" x2="337.04" y2="141.1"/>
    <circle class="cls-13" cx="229.49" cy="130.34" r="2.69"/>
    <circle class="cls-13" cx="240.24" cy="130.34" r="2.69"/>
    <circle class="cls-13" cx="251" cy="130.34" r="2.69"/>
  </g>
  <g>
    <line class="cls-9" x1="250.31" y1="325" x2="250.31" y2="486.97"/>
    <polygon class="cls-2" points="240.73 484.17 250.31 500.75 259.88 484.17 240.73 484.17"/>
  </g>
  <g>
    <line class="cls-9" x1="300.19" y1="338.78" x2="300.19" y2="500.75"/>
    <polygon class="cls-2" points="290.62 341.58 300.19 325 309.77 341.58 290.62 341.58"/>
  </g>
  <g>
    <line class="cls-9" x1="394" y1="169.5" x2="729.72" y2="169.5"/>
    <polygon class="cls-2" points="726.92 179.07 743.5 169.5 726.92 159.93 726.92 179.07"/>
  </g>
  <g>
    <path class="cls-5" d="M325.02,413v-22.91h10.16c2.04,0,3.59.21,4.66.62,1.06.41,1.91,1.14,2.55,2.18.63,1.04.95,2.19.95,3.45,0,1.62-.53,3-1.58,4.11-1.05,1.12-2.68,1.82-4.88,2.12.8.39,1.41.77,1.83,1.14.88.81,1.72,1.83,2.52,3.05l3.98,6.23h-3.81l-3.03-4.77c-.89-1.38-1.62-2.43-2.19-3.16-.57-.73-1.09-1.24-1.54-1.53-.45-.29-.91-.49-1.38-.61-.34-.07-.91-.11-1.69-.11h-3.52v10.17h-3.03ZM328.05,400.2h6.52c1.38,0,2.47-.14,3.25-.43.78-.29,1.38-.74,1.78-1.38.41-.63.61-1.31.61-2.05,0-1.08-.39-1.97-1.18-2.67-.79-.7-2.03-1.05-3.73-1.05h-7.25v7.58Z"/>
    <path class="cls-5" d="M359.08,407.65l2.91.36c-.46,1.7-1.31,3.02-2.55,3.95-1.24.94-2.82,1.41-4.75,1.41-2.43,0-4.35-.75-5.77-2.24-1.42-1.49-2.13-3.59-2.13-6.29s.72-4.96,2.16-6.5c1.44-1.54,3.3-2.31,5.59-2.31s4.03.76,5.44,2.27c1.41,1.51,2.11,3.64,2.11,6.38,0,.17,0,.42-.02.75h-12.38c.1,1.82.62,3.22,1.55,4.19.93.97,2.08,1.45,3.47,1.45,1.03,0,1.91-.27,2.64-.81.73-.54,1.31-1.41,1.73-2.59ZM349.85,403.11h9.27c-.12-1.4-.48-2.44-1.06-3.14-.9-1.08-2.06-1.62-3.48-1.62-1.29,0-2.38.43-3.26,1.3-.88.87-1.37,2.02-1.46,3.47Z"/>
    <path class="cls-5" d="M376.35,406.92l2.77.36c-.3,1.91-1.08,3.4-2.32,4.48-1.25,1.08-2.77,1.62-4.59,1.62-2.27,0-4.1-.74-5.48-2.23-1.38-1.48-2.07-3.61-2.07-6.38,0-1.79.3-3.36.89-4.7s1.5-2.35,2.71-3.02c1.21-.67,2.53-1.01,3.96-1.01,1.8,0,3.28.46,4.42,1.37,1.15.91,1.88,2.21,2.2,3.88l-2.73.42c-.26-1.11-.72-1.95-1.38-2.52-.66-.56-1.46-.84-2.4-.84-1.42,0-2.57.51-3.45,1.52-.89,1.02-1.33,2.62-1.33,4.82s.43,3.85,1.28,4.86c.85,1.01,1.97,1.52,3.34,1.52,1.1,0,2.03-.34,2.77-1.02.74-.68,1.21-1.72,1.41-3.12Z"/>
    <path class="cls-5" d="M380.47,404.7c0-3.07.85-5.35,2.56-6.83,1.43-1.23,3.17-1.84,5.22-1.84,2.28,0,4.15.75,5.59,2.24,1.45,1.5,2.17,3.56,2.17,6.2,0,2.14-.32,3.82-.96,5.04-.64,1.22-1.57,2.17-2.8,2.85-1.22.68-2.56,1.02-4.01,1.02-2.32,0-4.2-.74-5.63-2.23-1.43-1.49-2.15-3.63-2.15-6.44ZM383.36,404.7c0,2.12.46,3.72,1.39,4.77.93,1.06,2.09,1.59,3.5,1.59s2.56-.53,3.48-1.59c.93-1.06,1.39-2.68,1.39-4.86,0-2.05-.47-3.61-1.4-4.66-.93-1.06-2.09-1.59-3.48-1.59s-2.57.53-3.5,1.58c-.93,1.05-1.39,2.64-1.39,4.77Z"/>
    <path class="cls-5" d="M399.32,413v-16.59h2.53v2.36c1.22-1.82,2.98-2.73,5.28-2.73,1,0,1.92.18,2.76.54.84.36,1.47.83,1.88,1.41.42.58.71,1.28.88,2.08.1.52.16,1.43.16,2.73v10.2h-2.81v-10.09c0-1.15-.11-2-.33-2.57-.22-.57-.61-1.02-1.16-1.36-.56-.34-1.21-.51-1.96-.51-1.2,0-2.23.38-3.1,1.14-.87.76-1.3,2.2-1.3,4.33v9.06h-2.81Z"/>
    <path class="cls-5" d="M427.94,406.92l2.77.36c-.3,1.91-1.08,3.4-2.32,4.48-1.25,1.08-2.77,1.62-4.59,1.62-2.27,0-4.1-.74-5.48-2.23-1.38-1.48-2.07-3.61-2.07-6.38,0-1.79.3-3.36.89-4.7s1.5-2.35,2.71-3.02c1.21-.67,2.53-1.01,3.96-1.01,1.8,0,3.28.46,4.42,1.37,1.15.91,1.88,2.21,2.2,3.88l-2.73.42c-.26-1.11-.72-1.95-1.38-2.52-.66-.56-1.46-.84-2.4-.84-1.42,0-2.57.51-3.45,1.52-.89,1.02-1.33,2.62-1.33,4.82s.43,3.85,1.28,4.86c.85,1.01,1.97,1.52,3.34,1.52,1.1,0,2.03-.34,2.77-1.02.74-.68,1.21-1.72,1.41-3.12Z"/>
    <path class="cls-5" d="M433.13,393.33v-3.23h2.81v3.23h-2.81ZM433.13,413v-16.59h2.81v16.59h-2.81Z"/>
    <path class="cls-5" d="M440.16,413v-22.91h2.81v22.91h-2.81Z"/>
    <path class="cls-5" d="M458.69,407.65l2.91.36c-.46,1.7-1.31,3.02-2.55,3.95-1.24.94-2.82,1.41-4.75,1.41-2.43,0-4.35-.75-5.77-2.24-1.42-1.49-2.13-3.59-2.13-6.29s.72-4.96,2.16-6.5c1.44-1.54,3.3-2.31,5.59-2.31s4.03.76,5.44,2.27c1.41,1.51,2.11,3.64,2.11,6.38,0,.17,0,.42-.02.75h-12.38c.1,1.82.62,3.22,1.55,4.19.93.97,2.08,1.45,3.47,1.45,1.03,0,1.91-.27,2.64-.81.73-.54,1.31-1.41,1.73-2.59ZM449.46,403.11h9.27c-.12-1.4-.48-2.44-1.06-3.14-.9-1.08-2.06-1.62-3.48-1.62-1.29,0-2.38.43-3.26,1.3-.88.87-1.37,2.02-1.46,3.47Z"/>
    <path class="cls-5" d="M464,408.04l2.78-.44c.16,1.12.59,1.97,1.3,2.56.71.59,1.71.89,2.99.89s2.25-.26,2.88-.79c.62-.53.94-1.14.94-1.85,0-.63-.28-1.13-.83-1.5-.39-.25-1.34-.57-2.88-.95-2.06-.52-3.49-.97-4.29-1.35-.8-.38-1.4-.91-1.81-1.58-.41-.67-.62-1.41-.62-2.23,0-.74.17-1.42.51-2.05.34-.63.8-1.15,1.38-1.57.44-.32,1.03-.6,1.79-.82.75-.22,1.56-.34,2.43-.34,1.3,0,2.45.19,3.43.56s1.71.88,2.18,1.52.79,1.5.97,2.57l-2.75.38c-.12-.85-.49-1.52-1.09-2-.6-.48-1.45-.72-2.54-.72-1.29,0-2.21.21-2.77.64-.55.43-.83.93-.83,1.5,0,.37.11.69.34.98.23.3.59.55,1.08.75.28.1,1.11.34,2.48.72,1.99.53,3.38.97,4.16,1.3.79.34,1.4.83,1.85,1.48.45.65.67,1.45.67,2.41s-.27,1.82-.82,2.65-1.34,1.47-2.37,1.92-2.2.68-3.5.68c-2.16,0-3.8-.45-4.93-1.34-1.13-.9-1.85-2.22-2.16-3.98Z"/>
    <path class="cls-5" d="M493.08,413l-5.08-16.59h2.91l2.64,9.58.98,3.56c.04-.18.33-1.32.86-3.42l2.64-9.72h2.89l2.48,9.62.83,3.17.95-3.2,2.84-9.59h2.73l-5.19,16.59h-2.92l-2.64-9.94-.64-2.83-3.36,12.77h-2.94Z"/>
    <path class="cls-5" d="M513.14,393.33v-3.23h2.81v3.23h-2.81ZM513.14,413v-16.59h2.81v16.59h-2.81Z"/>
    <path class="cls-5" d="M526.38,410.48l.41,2.48c-.79.17-1.5.25-2.12.25-1.02,0-1.81-.16-2.38-.48s-.96-.75-1.19-1.27c-.23-.53-.34-1.63-.34-3.32v-9.55h-2.06v-2.19h2.06v-4.11l2.8-1.69v5.8h2.83v2.19h-2.83v9.7c0,.8.05,1.32.15,1.55.1.23.26.41.48.55.22.14.54.2.96.2.31,0,.72-.04,1.23-.11Z"/>
    <path class="cls-5" d="M529.13,413v-22.91h2.81v8.22c1.31-1.52,2.97-2.28,4.97-2.28,1.23,0,2.3.24,3.2.73s1.55,1.15,1.95,2.01c.39.85.59,2.09.59,3.72v10.52h-2.81v-10.52c0-1.41-.3-2.43-.91-3.07s-1.47-.96-2.59-.96c-.83,0-1.62.22-2.35.65-.73.43-1.26,1.02-1.57,1.76-.31.74-.47,1.76-.47,3.06v9.08h-2.81Z"/>
    <path class="cls-5" d="M322.46,451.4l8.8-22.91h3.27l9.38,22.91h-3.45l-2.67-6.94h-9.58l-2.52,6.94h-3.22ZM329.07,441.99h7.77l-2.39-6.34c-.73-1.93-1.27-3.51-1.62-4.75-.29,1.47-.7,2.93-1.23,4.38l-2.52,6.72Z"/>
    <path class="cls-5" d="M356.79,445.32l2.77.36c-.3,1.91-1.08,3.4-2.32,4.48-1.25,1.08-2.77,1.62-4.59,1.62-2.27,0-4.1-.74-5.48-2.23-1.38-1.48-2.07-3.61-2.07-6.38,0-1.79.3-3.36.89-4.7s1.5-2.35,2.71-3.02c1.21-.67,2.53-1.01,3.96-1.01,1.8,0,3.28.46,4.42,1.37,1.15.91,1.88,2.21,2.2,3.88l-2.73.42c-.26-1.12-.72-1.95-1.38-2.52-.66-.56-1.46-.84-2.4-.84-1.42,0-2.57.51-3.45,1.52-.89,1.02-1.33,2.62-1.33,4.82s.43,3.85,1.28,4.86c.85,1.01,1.97,1.52,3.34,1.52,1.1,0,2.03-.34,2.77-1.02.74-.68,1.21-1.72,1.41-3.12Z"/>
    <path class="cls-5" d="M372.54,457.76v-8.12c-.44.61-1.05,1.12-1.84,1.53-.79.41-1.62.61-2.51.61-1.97,0-3.66-.79-5.09-2.36-1.42-1.57-2.13-3.73-2.13-6.47,0-1.67.29-3.16.87-4.48.58-1.32,1.42-2.33,2.52-3.01,1.1-.68,2.3-1.02,3.62-1.02,2.05,0,3.67.86,4.84,2.59v-2.22h2.53v22.95h-2.81ZM363.86,443.05c0,2.13.45,3.74,1.34,4.8.9,1.07,1.97,1.6,3.22,1.6s2.23-.51,3.09-1.52c.86-1.02,1.3-2.56,1.3-4.63,0-2.21-.46-3.87-1.37-4.98-.91-1.12-1.98-1.67-3.21-1.67s-2.25.52-3.1,1.55c-.85,1.04-1.27,2.65-1.27,4.85Z"/>
    <path class="cls-5" d="M390.63,451.4v-2.44c-1.29,1.88-3.05,2.81-5.27,2.81-.98,0-1.89-.19-2.74-.56-.85-.38-1.48-.85-1.89-1.41-.41-.57-.7-1.26-.87-2.09-.12-.55-.17-1.43-.17-2.62v-10.28h2.81v9.2c0,1.47.06,2.46.17,2.97.18.74.55,1.32,1.12,1.74.57.42,1.28.63,2.12.63s1.63-.22,2.38-.65c.74-.43,1.26-1.02,1.57-1.77.31-.75.46-1.83.46-3.24v-8.89h2.81v16.59h-2.52Z"/>
    <path class="cls-5" d="M397.57,431.73v-3.23h2.81v3.23h-2.81ZM397.57,451.4v-16.59h2.81v16.59h-2.81Z"/>
    <path class="cls-5" d="M404.63,451.4v-16.59h2.53v2.52c.65-1.18,1.24-1.95,1.79-2.33s1.15-.56,1.8-.56c.95,0,1.91.3,2.89.91l-.97,2.61c-.69-.41-1.38-.61-2.06-.61-.62,0-1.17.18-1.66.55-.49.37-.84.88-1.05,1.54-.31,1-.47,2.09-.47,3.28v8.69h-2.81Z"/>
    <path class="cls-5" d="M426.68,446.05l2.91.36c-.46,1.7-1.31,3.02-2.55,3.95-1.24.94-2.82,1.41-4.75,1.41-2.43,0-4.35-.75-5.77-2.24-1.42-1.5-2.13-3.59-2.13-6.29s.72-4.96,2.16-6.5c1.44-1.54,3.3-2.31,5.59-2.31s4.03.75,5.44,2.27c1.41,1.51,2.11,3.63,2.11,6.38,0,.17,0,.42-.02.75h-12.38c.1,1.82.62,3.22,1.55,4.19.93.97,2.08,1.45,3.47,1.45,1.03,0,1.91-.27,2.64-.81.73-.54,1.31-1.41,1.73-2.59ZM417.44,441.51h9.27c-.12-1.4-.48-2.44-1.06-3.14-.9-1.08-2.06-1.62-3.48-1.62-1.29,0-2.38.43-3.26,1.3-.88.86-1.37,2.02-1.46,3.47Z"/>
    <path class="cls-5" d="M433.08,451.4v-16.59h2.53v2.52c.65-1.18,1.24-1.95,1.79-2.33s1.15-.56,1.8-.56c.95,0,1.91.3,2.89.91l-.97,2.61c-.69-.41-1.38-.61-2.06-.61-.62,0-1.17.18-1.66.55-.49.37-.84.88-1.05,1.54-.31,1-.47,2.09-.47,3.28v8.69h-2.81Z"/>
    <path class="cls-5" d="M453.02,451.4v-22.91h7.89c1.78,0,3.14.11,4.08.33,1.31.3,2.43.85,3.36,1.64,1.21,1.02,2.11,2.33,2.71,3.91.6,1.59.9,3.4.9,5.45,0,1.74-.2,3.28-.61,4.62s-.93,2.46-1.56,3.34c-.64.88-1.33,1.57-2.09,2.08-.76.5-1.67.89-2.73,1.15-1.07.26-2.29.39-3.68.39h-8.27ZM456.05,448.7h4.89c1.51,0,2.7-.14,3.55-.42s1.54-.68,2.05-1.19c.72-.72,1.28-1.69,1.68-2.9.4-1.21.6-2.69.6-4.41,0-2.4-.39-4.24-1.18-5.52-.79-1.29-1.74-2.15-2.87-2.59-.81-.31-2.12-.47-3.92-.47h-4.81v17.5Z"/>
    <path class="cls-5" d="M486.6,449.35c-1.04.88-2.04,1.51-3.01,1.88-.96.36-2,.55-3.1.55-1.82,0-3.22-.45-4.2-1.34-.98-.89-1.47-2.03-1.47-3.41,0-.81.18-1.55.55-2.23.37-.67.85-1.21,1.45-1.62.6-.41,1.27-.71,2.02-.92.55-.15,1.38-.29,2.5-.42,2.27-.27,3.94-.59,5.02-.97,0-.39.02-.63.02-.73,0-1.15-.27-1.95-.8-2.42-.72-.64-1.79-.95-3.2-.95-1.32,0-2.3.23-2.93.7-.63.46-1.1,1.28-1.4,2.46l-2.75-.38c.25-1.18.66-2.13,1.23-2.85.57-.72,1.4-1.28,2.48-1.67,1.08-.39,2.34-.59,3.77-.59s2.57.17,3.45.5c.88.33,1.54.75,1.95,1.26.42.5.71,1.14.88,1.91.09.48.14,1.34.14,2.59v3.75c0,2.61.06,4.27.18,4.96.12.69.36,1.36.71,1.99h-2.94c-.29-.58-.48-1.27-.56-2.05ZM486.36,443.07c-1.02.42-2.55.77-4.59,1.06-1.16.17-1.97.35-2.45.56-.48.21-.85.51-1.11.91-.26.4-.39.85-.39,1.34,0,.75.28,1.38.85,1.88.57.5,1.4.75,2.49.75s2.05-.24,2.89-.71c.84-.47,1.46-1.12,1.86-1.95.3-.64.45-1.57.45-2.81v-1.03Z"/>
    <path class="cls-5" d="M499.71,448.88l.41,2.48c-.79.17-1.5.25-2.12.25-1.02,0-1.81-.16-2.38-.48-.56-.32-.96-.75-1.19-1.27-.23-.53-.34-1.63-.34-3.32v-9.55h-2.06v-2.19h2.06v-4.11l2.8-1.69v5.8h2.83v2.19h-2.83v9.7c0,.8.05,1.32.15,1.55.1.23.26.41.48.55.22.13.54.2.96.2.31,0,.72-.04,1.23-.11Z"/>
    <path class="cls-5" d="M513.29,449.35c-1.04.88-2.04,1.51-3.01,1.88-.96.36-2,.55-3.1.55-1.82,0-3.22-.45-4.2-1.34-.98-.89-1.47-2.03-1.47-3.41,0-.81.18-1.55.55-2.23.37-.67.85-1.21,1.45-1.62.6-.41,1.27-.71,2.02-.92.55-.15,1.38-.29,2.5-.42,2.27-.27,3.94-.59,5.02-.97,0-.39.02-.63.02-.73,0-1.15-.27-1.95-.8-2.42-.72-.64-1.79-.95-3.2-.95-1.32,0-2.3.23-2.93.7-.63.46-1.1,1.28-1.4,2.46l-2.75-.38c.25-1.18.66-2.13,1.23-2.85.57-.72,1.4-1.28,2.48-1.67,1.08-.39,2.34-.59,3.77-.59s2.57.17,3.45.5c.88.33,1.54.75,1.95,1.26.42.5.71,1.14.88,1.91.09.48.14,1.34.14,2.59v3.75c0,2.61.06,4.27.18,4.96.12.69.36,1.36.71,1.99h-2.94c-.29-.58-.48-1.27-.56-2.05ZM513.05,443.07c-1.02.42-2.55.77-4.59,1.06-1.16.17-1.97.35-2.45.56-.48.21-.85.51-1.11.91-.26.4-.39.85-.39,1.34,0,.75.28,1.38.85,1.88.57.5,1.4.75,2.49.75s2.05-.24,2.89-.71c.84-.47,1.46-1.12,1.86-1.95.3-.64.45-1.57.45-2.81v-1.03Z"/>
  </g>
  <rect class="cls-12" x="748" y="413" width="511.85" height="184" rx="29.5" ry="29.5"/>
  <rect class="cls-12" x="781" y="111" width="405" height="116" rx="29.5" ry="29.5"/>
  <text class="cls-6" transform="translate(442.95 149.35)"><tspan x="0" y="0">Calculates Fees</tspan></text>
  <text class="cls-4" transform="translate(890.46 181.01)"><tspan x="0" y="0">MDR / </tspan><tspan class="cls-20" x="106.19" y="0">O</tspan><tspan x="133.2" y="0">thers</tspan></text>
  <g>
    <path class="cls-3" d="M823.03,486.2c1.52.78,3.85,1.55,6.25,1.55,2.59,0,3.96-1.07,3.96-2.7s-1.18-2.44-4.18-3.51c-4.14-1.44-6.85-3.74-6.85-7.36,0-4.25,3.55-7.51,9.44-7.51,2.81,0,4.88.59,6.37,1.26l-1.26,4.55c-1-.48-2.78-1.18-5.22-1.18s-3.62,1.11-3.62,2.41c0,1.59,1.41,2.29,4.62,3.52,4.4,1.63,6.47,3.92,6.47,7.44,0,4.18-3.22,7.73-10.06,7.73-2.85,0-5.66-.74-7.07-1.52l1.15-4.66Z"/>
    <path class="cls-3" d="M857.66,481.46h-9.18v5.92h10.25v4.62h-15.91v-24.94h15.39v4.62h-9.73v5.18h9.18v4.59Z"/>
    <path class="cls-3" d="M867.58,471.8h-6.7v-4.74h19.17v4.74h-6.81v20.2h-5.66v-20.2Z"/>
    <path class="cls-3" d="M888.67,471.8h-6.7v-4.74h19.17v4.74h-6.81v20.2h-5.66v-20.2Z"/>
    <path class="cls-3" d="M904.13,467.07h5.66v20.2h9.92v4.74h-15.58v-24.94Z"/>
    <path class="cls-3" d="M937.88,481.46h-9.18v5.92h10.25v4.62h-15.91v-24.94h15.39v4.62h-9.73v5.18h9.18v4.59Z"/>
    <path class="cls-3" d="M963.89,482.46c-.11-3-.22-6.62-.22-10.25h-.11c-.78,3.18-1.81,6.73-2.77,9.66l-3.04,9.73h-4.4l-2.67-9.66c-.81-2.92-1.66-6.48-2.26-9.73h-.07c-.15,3.37-.26,7.22-.44,10.32l-.45,9.47h-5.22l1.59-24.94h7.51l2.44,8.33c.78,2.89,1.55,6,2.11,8.92h.11c.7-2.89,1.55-6.18,2.37-8.96l2.66-8.29h7.36l1.37,24.94h-5.51l-.37-9.55Z"/>
    <path class="cls-3" d="M988.94,481.46h-9.18v5.92h10.25v4.62h-15.91v-24.94h15.39v4.62h-9.73v5.18h9.18v4.59Z"/>
    <path class="cls-3" d="M993.86,492.01v-24.94h6.59l5.18,9.14c1.48,2.63,2.96,5.74,4.07,8.55h.11c-.37-3.29-.48-6.66-.48-10.4v-7.29h5.18v24.94h-5.92l-5.33-9.62c-1.48-2.66-3.11-5.88-4.33-8.81l-.11.04c.15,3.29.22,6.81.22,10.88v7.51h-5.18Z"/>
    <path class="cls-3" d="M1024.2,471.8h-6.7v-4.74h19.17v4.74h-6.81v20.2h-5.66v-20.2Z"/>
    <path class="cls-3" d="M1047.13,467.4c1.81-.29,4.51-.52,7.51-.52,3.7,0,6.29.55,8.07,1.96,1.48,1.18,2.29,2.92,2.29,5.22,0,3.18-2.26,5.37-4.4,6.14v.11c1.74.7,2.7,2.37,3.33,4.66.78,2.81,1.55,6.07,2.04,7.03h-5.77c-.41-.7-1-2.74-1.74-5.81-.67-3.11-1.74-3.96-4.03-4h-1.7v9.81h-5.59v-24.61ZM1052.72,478.13h2.22c2.81,0,4.48-1.41,4.48-3.59,0-2.29-1.55-3.44-4.14-3.48-1.37,0-2.15.11-2.55.19v6.88Z"/>
    <path class="cls-3" d="M1083.91,481.46h-9.18v5.92h10.25v4.62h-15.91v-24.94h15.39v4.62h-9.73v5.18h9.18v4.59Z"/>
    <path class="cls-3" d="M1088.83,467.4c1.74-.29,4.18-.52,7.62-.52s5.96.67,7.62,2c1.59,1.26,2.66,3.33,2.66,5.77s-.81,4.51-2.29,5.92c-1.92,1.81-4.77,2.63-8.1,2.63-.74,0-1.41-.04-1.92-.11v8.92h-5.59v-24.61ZM1094.42,478.72c.48.11,1.07.15,1.89.15,3,0,4.85-1.52,4.85-4.07,0-2.29-1.59-3.66-4.4-3.66-1.15,0-1.92.11-2.33.22v7.36Z"/>
    <path class="cls-3" d="M1133.16,479.28c0,8.18-4.96,13.14-12.25,13.14s-11.73-5.59-11.73-12.69c0-7.47,4.77-13.06,12.14-13.06s11.84,5.74,11.84,12.62ZM1115.14,479.61c0,4.88,2.29,8.33,6.07,8.33s5.99-3.63,5.99-8.47c0-4.48-2.15-8.33-6.03-8.33s-6.03,3.63-6.03,8.47Z"/>
    <path class="cls-3" d="M1136.86,467.4c1.81-.29,4.51-.52,7.51-.52,3.7,0,6.29.55,8.07,1.96,1.48,1.18,2.29,2.92,2.29,5.22,0,3.18-2.26,5.37-4.4,6.14v.11c1.74.7,2.7,2.37,3.33,4.66.78,2.81,1.55,6.07,2.04,7.03h-5.77c-.41-.7-1-2.74-1.74-5.81-.67-3.11-1.74-3.96-4.03-4h-1.7v9.81h-5.59v-24.61ZM1142.45,478.13h2.22c2.81,0,4.48-1.41,4.48-3.59,0-2.29-1.55-3.44-4.14-3.48-1.37,0-2.15.11-2.55.19v6.88Z"/>
    <path class="cls-3" d="M1163.61,471.8h-6.7v-4.74h19.17v4.74h-6.81v20.2h-5.66v-20.2Z"/>
    <path class="cls-3" d="M798.59,510.84c-2.11,3.4-3.74,8.36-3.74,14.99s1.67,11.43,3.74,14.88h-3.92c-2-2.85-4.22-7.77-4.22-14.91.04-7.18,2.22-12.06,4.22-14.95h3.92Z"/>
    <path class="cls-3" d="M802.29,511.8c2.07-.33,4.77-.52,7.62-.52,4.74,0,7.81.85,10.21,2.66,2.59,1.92,4.22,5,4.22,9.4,0,4.77-1.74,8.07-4.14,10.1-2.63,2.18-6.62,3.22-11.51,3.22-2.92,0-4.99-.18-6.4-.37v-24.5ZM807.95,532.15c.48.11,1.26.11,1.96.11,5.11.04,8.44-2.78,8.44-8.73.04-5.18-3-7.92-7.84-7.92-1.26,0-2.07.11-2.55.22v16.32Z"/>
    <path class="cls-3" d="M838.14,536.41l-.33-1.81h-.11c-1.18,1.44-3.03,2.22-5.18,2.22-3.66,0-5.85-2.66-5.85-5.55,0-4.7,4.22-6.96,10.62-6.92v-.26c0-.96-.52-2.33-3.29-2.33-1.85,0-3.81.63-5,1.37l-1.04-3.63c1.26-.7,3.74-1.59,7.03-1.59,6.03,0,7.96,3.55,7.96,7.81v6.29c0,1.74.07,3.4.26,4.4h-5.07ZM837.48,527.86c-2.96-.04-5.26.67-5.26,2.85,0,1.44.96,2.15,2.22,2.15,1.41,0,2.55-.93,2.92-2.07.07-.3.11-.63.11-.96v-1.96Z"/>
    <path class="cls-3" d="M853.2,513.28c0,1.55-1.18,2.81-3.04,2.81s-2.96-1.26-2.92-2.81c-.04-1.63,1.15-2.85,2.96-2.85s2.96,1.22,3,2.85ZM847.39,536.41v-18.09h5.62v18.09h-5.62Z"/>
    <path class="cls-3" d="M857.53,510.13h5.62v26.27h-5.62v-26.27Z"/>
    <path class="cls-3" d="M871.92,518.31l2.7,8.88c.29,1.07.67,2.41.89,3.37h.11c.26-.96.55-2.33.81-3.37l2.22-8.88h6.03l-4.22,11.92c-2.59,7.18-4.33,10.06-6.37,11.88-1.96,1.7-4.03,2.29-5.44,2.48l-1.18-4.77c.7-.11,1.59-.44,2.44-.96.85-.44,1.78-1.33,2.33-2.26.19-.26.3-.56.3-.81,0-.19-.04-.48-.26-.93l-6.62-16.54h6.25Z"/>
    <path class="cls-3" d="M892.87,537.89l7.92-26.83h3.74l-7.92,26.83h-3.74Z"/>
    <path class="cls-3" d="M917.1,536.41l-5.92-24.94h6.03l1.89,10.29c.55,2.96,1.07,6.18,1.48,8.7h.07c.41-2.7,1-5.7,1.63-8.77l2.11-10.21h6l2,10.51c.55,2.92.96,5.59,1.33,8.36h.07c.37-2.78.92-5.7,1.44-8.66l2.04-10.21h5.74l-6.44,24.94h-6.11l-2.11-10.73c-.48-2.52-.89-4.85-1.19-7.7h-.07c-.44,2.81-.85,5.18-1.44,7.7l-2.37,10.73h-6.18Z"/>
    <path class="cls-3" d="M948.51,529.15c.18,2.33,2.48,3.44,5.11,3.44,1.92,0,3.48-.26,5-.74l.74,3.81c-1.85.74-4.11,1.11-6.55,1.11-6.14,0-9.66-3.55-9.66-9.21,0-4.59,2.85-9.66,9.14-9.66,5.85,0,8.07,4.55,8.07,9.03,0,.96-.11,1.81-.19,2.22h-11.65ZM955.14,525.3c0-1.37-.59-3.66-3.18-3.66-2.37,0-3.33,2.15-3.48,3.66h6.66Z"/>
    <path class="cls-3" d="M968.05,529.15c.19,2.33,2.48,3.44,5.11,3.44,1.93,0,3.48-.26,5-.74l.74,3.81c-1.85.74-4.11,1.11-6.55,1.11-6.14,0-9.66-3.55-9.66-9.21,0-4.59,2.85-9.66,9.14-9.66,5.85,0,8.07,4.55,8.07,9.03,0,.96-.11,1.81-.19,2.22h-11.66ZM974.67,525.3c0-1.37-.59-3.66-3.18-3.66-2.37,0-3.33,2.15-3.48,3.66h6.66Z"/>
    <path class="cls-3" d="M988.88,525.93h.07c.41-.74.85-1.48,1.3-2.18l3.66-5.44h6.77l-6.47,7.33,7.4,10.77h-6.92l-4.37-7.44-1.44,1.78v5.66h-5.62v-26.27h5.62v15.8Z"/>
    <path class="cls-3" d="M1003.71,510.13h5.62v26.27h-5.62v-26.27Z"/>
    <path class="cls-3" d="M1018.11,518.31l2.7,8.88c.29,1.07.67,2.41.89,3.37h.11c.26-.96.55-2.33.81-3.37l2.22-8.88h6.03l-4.22,11.92c-2.59,7.18-4.33,10.06-6.37,11.88-1.96,1.7-4.03,2.29-5.44,2.48l-1.18-4.77c.7-.11,1.59-.44,2.44-.96.85-.44,1.78-1.33,2.33-2.26.19-.26.3-.56.3-.81,0-.19-.04-.48-.26-.93l-6.62-16.54h6.25Z"/>
    <path class="cls-3" d="M1039.05,537.89l7.92-26.83h3.74l-7.92,26.83h-3.74Z"/>
    <path class="cls-3" d="M1081.71,526.86c-.11-3-.22-6.62-.22-10.25h-.11c-.78,3.18-1.81,6.73-2.77,9.66l-3.04,9.73h-4.4l-2.67-9.66c-.81-2.92-1.66-6.48-2.26-9.73h-.07c-.15,3.37-.26,7.21-.44,10.32l-.45,9.47h-5.22l1.59-24.94h7.51l2.44,8.33c.78,2.89,1.55,6,2.11,8.92h.11c.7-2.89,1.55-6.18,2.37-8.96l2.66-8.29h7.36l1.37,24.94h-5.51l-.37-9.55Z"/>
    <path class="cls-3" d="M1109.72,527.16c0,6.62-4.7,9.66-9.55,9.66-5.29,0-9.36-3.48-9.36-9.32s3.85-9.58,9.66-9.58,9.25,3.81,9.25,9.25ZM1096.62,527.34c0,3.11,1.29,5.44,3.7,5.44,2.18,0,3.59-2.18,3.59-5.44,0-2.7-1.04-5.44-3.59-5.44-2.7,0-3.7,2.78-3.7,5.44Z"/>
    <path class="cls-3" d="M1113.2,524.08c0-2.26-.07-4.18-.15-5.77h4.88l.26,2.48h.11c.74-1.15,2.59-2.89,5.59-2.89,3.7,0,6.48,2.44,6.48,7.77v10.73h-5.62v-10.03c0-2.33-.81-3.92-2.85-3.92-1.55,0-2.48,1.07-2.85,2.11-.15.33-.22.89-.22,1.41v10.44h-5.62v-12.32Z"/>
    <path class="cls-3" d="M1140.95,513.13v5.18h4.03v4.14h-4.03v6.55c0,2.18.52,3.18,2.22,3.18.7,0,1.26-.07,1.66-.15l.04,4.26c-.74.3-2.07.48-3.66.48-1.81,0-3.33-.63-4.22-1.55-1.04-1.07-1.55-2.81-1.55-5.37v-7.4h-2.4v-4.14h2.4v-3.92l5.51-1.26Z"/>
    <path class="cls-3" d="M1148.24,510.13h5.62v10.32h.07c.59-.78,1.33-1.37,2.22-1.85.81-.44,1.89-.7,2.92-.7,3.59,0,6.33,2.48,6.33,7.92v10.58h-5.62v-9.95c0-2.37-.81-4-2.92-4-1.48,0-2.4.96-2.81,1.96-.15.37-.18.85-.18,1.26v10.73h-5.62v-26.27Z"/>
    <path class="cls-3" d="M1169.92,510.13h5.62v26.27h-5.62v-26.27Z"/>
    <path class="cls-3" d="M1184.31,518.31l2.7,8.88c.3,1.07.67,2.41.89,3.37h.11c.26-.96.55-2.33.81-3.37l2.22-8.88h6.03l-4.22,11.92c-2.59,7.18-4.33,10.06-6.37,11.88-1.96,1.7-4.03,2.29-5.44,2.48l-1.18-4.77c.7-.11,1.59-.44,2.44-.96.85-.44,1.78-1.33,2.33-2.26.18-.26.29-.56.29-.81,0-.19-.04-.48-.26-.93l-6.62-16.54h6.25Z"/>
    <path class="cls-3" d="M1198.48,540.7c2.04-3.4,3.74-8.4,3.74-14.95s-1.67-11.47-3.74-14.91h3.92c1.96,2.85,4.22,7.7,4.22,14.91-.04,7.22-2.26,12.06-4.22,14.95h-3.92Z"/>
  </g>
  <rect class="cls-15" x="1620.88" y="367.34" width="224.53" height="224.53" rx="19.94" ry="19.94"/>
  <g>
    <path d="M1621.95,650.99v-26.49h8l4.81,18.07,4.75-18.07h8.02v26.49h-4.97v-20.85l-5.26,20.85h-5.15l-5.24-20.85v20.85h-4.97Z"/>
    <path d="M1652.84,650.99v-26.49h19.64v4.48h-14.29v5.87h13.3v4.46h-13.3v7.21h14.8v4.46h-20.14Z"/>
    <path d="M1677.54,650.99v-26.49h11.25c2.83,0,4.89.24,6.17.71,1.28.48,2.31,1.32,3.08,2.54.77,1.22,1.16,2.61,1.16,4.17,0,1.99-.58,3.63-1.75,4.92s-2.92,2.11-5.24,2.45c1.16.67,2.11,1.42,2.86,2.22s1.77,2.24,3.04,4.3l3.23,5.17h-6.4l-3.87-5.76c-1.37-2.06-2.31-3.36-2.82-3.89s-1.04-.9-1.61-1.1c-.57-.2-1.46-.3-2.69-.3h-1.08v11.06h-5.35ZM1682.88,635.7h3.96c2.57,0,4.17-.11,4.81-.33.64-.22,1.14-.59,1.5-1.12s.54-1.19.54-1.99c0-.89-.24-1.61-.71-2.16-.48-.55-1.15-.89-2.01-1.04-.43-.06-1.73-.09-3.9-.09h-4.17v6.72Z"/>
    <path d="M1721.19,641.25l5.18,1.64c-.79,2.89-2.12,5.04-3.97,6.44-1.85,1.4-4.19,2.1-7.04,2.1-3.52,0-6.41-1.2-8.67-3.6-2.26-2.4-3.4-5.69-3.4-9.86,0-4.41,1.14-7.83,3.42-10.27,2.28-2.44,5.27-3.66,8.98-3.66,3.24,0,5.87.96,7.89,2.87,1.2,1.13,2.11,2.76,2.71,4.88l-5.29,1.26c-.31-1.37-.97-2.46-1.96-3.25-.99-.79-2.2-1.19-3.62-1.19-1.96,0-3.56.7-4.78,2.11-1.22,1.41-1.83,3.69-1.83,6.85,0,3.35.6,5.73,1.81,7.15s2.77,2.13,4.7,2.13c1.42,0,2.64-.45,3.67-1.36,1.02-.9,1.76-2.32,2.21-4.26Z"/>
    <path d="M1730.98,650.99v-26.49h5.35v10.42h10.48v-10.42h5.35v26.49h-5.35v-11.58h-10.48v11.58h-5.35Z"/>
    <path d="M1781.56,650.99h-5.82l-2.31-6.02h-10.59l-2.19,6.02h-5.67l10.32-26.49h5.65l10.61,26.49ZM1771.72,640.51l-3.65-9.83-3.58,9.83h7.23Z"/>
    <path d="M1784.45,650.99v-26.49h5.2l10.84,17.69v-17.69h4.97v26.49h-5.37l-10.68-17.27v17.27h-4.97Z"/>
    <path d="M1817.08,650.99v-22h-7.86v-4.48h21.05v4.48h-7.84v22h-5.35Z"/>
    <path d="M1832.37,642.37l5.2-.51c.31,1.75.95,3.03,1.91,3.85.96.82,2.25,1.23,3.88,1.23,1.72,0,3.02-.36,3.89-1.09.87-.73,1.31-1.58,1.31-2.56,0-.63-.18-1.16-.55-1.6-.37-.44-1.01-.82-1.92-1.15-.63-.22-2.05-.6-4.28-1.16-2.87-.71-4.88-1.58-6.03-2.62-1.63-1.46-2.44-3.23-2.44-5.33,0-1.35.38-2.61,1.15-3.79.76-1.17,1.87-2.07,3.31-2.68,1.44-.61,3.18-.92,5.21-.92,3.32,0,5.83.73,7.51,2.19,1.68,1.46,2.56,3.4,2.65,5.83l-5.35.24c-.23-1.36-.72-2.34-1.47-2.94-.75-.6-1.88-.89-3.39-.89s-2.77.32-3.65.96c-.57.41-.85.96-.85,1.64,0,.63.26,1.16.79,1.61.67.57,2.31,1.16,4.91,1.77,2.6.62,4.53,1.25,5.77,1.91,1.25.66,2.22,1.55,2.93,2.69.7,1.14,1.06,2.54,1.06,4.22,0,1.52-.42,2.94-1.26,4.26-.84,1.33-2.04,2.31-3.58,2.95-1.54.64-3.46.97-5.76.97-3.35,0-5.92-.77-7.71-2.32s-2.87-3.8-3.22-6.77Z"/>
    <path class="cls-5" d="M1633.06,692.99v-25.05h9.4c1.91,0,3.45.25,4.61.76s2.06,1.29,2.72,2.34c.65,1.05.98,2.16.98,3.31,0,1.07-.29,2.08-.87,3.02-.58.95-1.46,1.71-2.63,2.29,1.51.44,2.68,1.2,3.49,2.27.81,1.07,1.22,2.33,1.22,3.79,0,1.17-.25,2.26-.74,3.27-.5,1.01-1.11,1.79-1.84,2.33-.73.55-1.64.96-2.74,1.24-1.1.28-2.45.42-4.04.42h-9.55ZM1636.38,678.46h5.42c1.47,0,2.52-.1,3.16-.29.84-.25,1.48-.67,1.91-1.25.43-.58.64-1.31.64-2.19,0-.83-.2-1.56-.6-2.2-.4-.63-.97-1.06-1.71-1.3-.74-.23-2.01-.35-3.81-.35h-5.01v7.57ZM1636.38,690.03h6.24c1.07,0,1.82-.04,2.26-.12.76-.14,1.4-.36,1.91-.68.51-.32.93-.78,1.26-1.39.33-.61.5-1.31.5-2.11,0-.93-.24-1.75-.72-2.43s-1.14-1.17-1.99-1.45c-.85-.28-2.07-.42-3.67-.42h-5.79v8.61Z"/>
    <path class="cls-5" d="M1668,690.75c-1.14.97-2.24,1.65-3.29,2.05-1.05.4-2.18.6-3.39.6-1.99,0-3.53-.49-4.6-1.46-1.07-.97-1.61-2.22-1.61-3.73,0-.89.2-1.7.61-2.44.4-.73.93-1.32,1.59-1.77.65-.44,1.39-.78,2.21-1.01.6-.16,1.51-.31,2.73-.46,2.48-.3,4.31-.65,5.49-1.06.01-.42.02-.69.02-.8,0-1.25-.29-2.14-.87-2.65-.79-.69-1.95-1.04-3.5-1.04-1.45,0-2.52.25-3.2.76-.69.51-1.2,1.4-1.53,2.69l-3.01-.41c.27-1.29.72-2.33,1.35-3.12.63-.79,1.53-1.4,2.72-1.83,1.19-.43,2.56-.64,4.12-.64s2.81.18,3.78.55c.97.37,1.68.82,2.14,1.38.46.55.77,1.25.96,2.09.1.52.15,1.47.15,2.84v4.1c0,2.86.07,4.67.2,5.43.13.76.39,1.48.78,2.18h-3.21c-.32-.64-.52-1.38-.62-2.24ZM1667.74,683.88c-1.12.46-2.79.84-5.03,1.16-1.26.18-2.16.39-2.68.62-.52.23-.93.56-1.21,1-.28.44-.43.93-.43,1.46,0,.82.31,1.5.93,2.05.62.55,1.53.82,2.73.82s2.24-.26,3.16-.78c.92-.52,1.6-1.23,2.03-2.13.33-.7.5-1.72.5-3.08v-1.13Z"/>
    <path class="cls-5" d="M1675.62,692.99v-18.15h2.77v2.58c1.33-1.99,3.26-2.99,5.78-2.99,1.09,0,2.1.2,3.02.59.92.39,1.6.91,2.06,1.55.46.64.77,1.4.96,2.27.11.57.17,1.57.17,2.99v11.16h-3.08v-11.04c0-1.25-.12-2.19-.36-2.81-.24-.62-.66-1.12-1.27-1.49-.61-.37-1.32-.56-2.14-.56-1.31,0-2.44.42-3.39,1.25-.95.83-1.43,2.41-1.43,4.73v9.91h-3.08Z"/>
    <path class="cls-5" d="M1695.1,692.99v-25.05h3.08v14.29l7.28-7.38h3.98l-6.94,6.73,7.64,11.42h-3.79l-6-9.28-2.17,2.08v7.2h-3.08Z"/>
    <path class="cls-5" d="M1718.02,692.99l9.62-25.05h3.57l10.25,25.05h-3.78l-2.92-7.59h-10.48l-2.75,7.59h-3.52ZM1725.25,682.7h8.49l-2.62-6.94c-.8-2.11-1.39-3.84-1.78-5.2-.32,1.61-.77,3.2-1.35,4.79l-2.75,7.35Z"/>
    <path class="cls-5" d="M1755.56,686.34l3.03.39c-.33,2.08-1.18,3.72-2.54,4.9-1.36,1.18-3.03,1.77-5.02,1.77-2.48,0-4.48-.81-5.99-2.44-1.51-1.62-2.26-3.95-2.26-6.98,0-1.96.32-3.67.97-5.14.65-1.47,1.64-2.57,2.96-3.31,1.33-.74,2.77-1.1,4.33-1.1,1.97,0,3.58.5,4.84,1.5,1.25,1,2.06,2.41,2.41,4.25l-2.99.46c-.29-1.22-.79-2.14-1.51-2.75-.72-.62-1.6-.92-2.62-.92-1.55,0-2.81.56-3.78,1.67-.97,1.11-1.45,2.87-1.45,5.27s.47,4.21,1.4,5.31c.93,1.11,2.15,1.66,3.66,1.66,1.21,0,2.21-.37,3.02-1.11.81-.74,1.32-1.88,1.54-3.42Z"/>
    <path class="cls-5" d="M1773.06,686.34l3.03.39c-.33,2.08-1.18,3.72-2.54,4.9-1.36,1.18-3.03,1.77-5.02,1.77-2.48,0-4.48-.81-5.99-2.44-1.51-1.62-2.26-3.95-2.26-6.98,0-1.96.32-3.67.97-5.14.65-1.47,1.64-2.57,2.96-3.31,1.33-.74,2.77-1.1,4.33-1.1,1.97,0,3.58.5,4.84,1.5,1.25,1,2.06,2.41,2.41,4.25l-2.99.46c-.29-1.22-.79-2.14-1.51-2.75-.72-.62-1.6-.92-2.62-.92-1.55,0-2.81.56-3.78,1.67-.97,1.11-1.45,2.87-1.45,5.27s.47,4.21,1.4,5.31c.93,1.11,2.15,1.66,3.66,1.66,1.21,0,2.21-.37,3.02-1.11.81-.74,1.32-1.88,1.54-3.42Z"/>
    <path class="cls-5" d="M1777.58,683.91c0-3.36.93-5.85,2.8-7.47,1.56-1.34,3.46-2.02,5.71-2.02,2.5,0,4.53.82,6.12,2.45,1.58,1.64,2.38,3.89,2.38,6.78,0,2.34-.35,4.17-1.05,5.51-.7,1.34-1.72,2.38-3.06,3.12-1.34.74-2.8,1.11-4.38,1.11-2.54,0-4.59-.81-6.16-2.44-1.57-1.63-2.35-3.98-2.35-7.04ZM1780.74,683.91c0,2.32.51,4.06,1.52,5.22,1.01,1.16,2.29,1.73,3.83,1.73s2.8-.58,3.81-1.74c1.01-1.16,1.52-2.93,1.52-5.32,0-2.24-.51-3.94-1.53-5.1-1.02-1.16-2.29-1.74-3.8-1.74s-2.81.58-3.83,1.73c-1.01,1.15-1.52,2.89-1.52,5.21Z"/>
    <path class="cls-5" d="M1810.08,692.99v-2.67c-1.41,2.05-3.33,3.08-5.76,3.08-1.07,0-2.07-.21-3-.62-.93-.41-1.62-.93-2.07-1.55-.45-.62-.77-1.38-.95-2.28-.13-.6-.19-1.56-.19-2.87v-11.25h3.08v10.07c0,1.61.06,2.69.19,3.25.19.81.6,1.44,1.23,1.91.63.46,1.4.69,2.32.69s1.79-.24,2.6-.71c.81-.47,1.38-1.12,1.72-1.93.34-.81.5-2,.5-3.55v-9.72h3.08v18.15h-2.75Z"/>
    <path class="cls-5" d="M1817.65,692.99v-18.15h2.77v2.58c1.33-1.99,3.26-2.99,5.78-2.99,1.09,0,2.1.2,3.02.59.92.39,1.6.91,2.06,1.55.46.64.77,1.4.96,2.27.11.57.17,1.57.17,2.99v11.16h-3.08v-11.04c0-1.25-.12-2.19-.36-2.81-.24-.62-.66-1.12-1.27-1.49-.61-.37-1.32-.56-2.14-.56-1.31,0-2.44.42-3.39,1.25-.95.83-1.43,2.41-1.43,4.73v9.91h-3.08Z"/>
    <path class="cls-5" d="M1843.83,690.24l.44,2.72c-.87.18-1.64.27-2.32.27-1.12,0-1.98-.18-2.6-.53-.62-.35-1.05-.82-1.3-1.39-.25-.58-.38-1.79-.38-3.63v-10.44h-2.26v-2.39h2.26v-4.5l3.06-1.85v6.34h3.09v2.39h-3.09v10.61c0,.88.05,1.44.16,1.69.11.25.28.45.53.6.25.15.6.22,1.05.22.34,0,.79-.04,1.35-.12Z"/>
  </g>
  <g>
    <path class="cls-11" d="M1807.48,458.01c0,7.17-6.4,12.98-14.28,12.98s-14.28-5.81-14.28-12.98c0,7.17-6.4,12.98-14.28,12.98s-14.28-5.81-14.28-12.98c0,7.17-6.4,12.98-14.28,12.98s-14.28-5.81-14.28-12.98c0,7.17-6.4,12.98-14.28,12.98s-14.28-5.81-14.28-12.98c0,7.17-6.4,12.98-14.28,12.98s-14.28-5.81-14.28-12.98"/>
    <path class="cls-10" d="M1664.65,458.01l14.89-47.23c.8-2.79,3.34-4.71,6.24-4.71h100.58c2.9,0,5.45,1.92,6.24,4.71l14.89,47.23"/>
    <path class="cls-11" d="M1797.75,470.99v77.91c0,3.59-2.91,6.49-6.49,6.49h-110.37c-3.59,0-6.49-2.91-6.49-6.49v-77.91"/>
    <line class="cls-10" x1="1719.84" y1="464.5" x2="1719.84" y2="555.39"/>
    <line class="cls-10" x1="1706.85" y1="503.45" x2="1706.85" y2="509.95"/>
    <line class="cls-10" x1="1758.79" y1="490.47" x2="1739.31" y2="509.95"/>
    <line class="cls-10" x1="1771.78" y1="503.45" x2="1745.81" y2="529.42"/>
    <line class="cls-10" x1="1778.92" y1="458.01" x2="1771.1" y2="406.07"/>
    <line class="cls-10" x1="1750.35" y1="458.01" x2="1745.54" y2="406.07"/>
    <line class="cls-10" x1="1721.78" y1="458.01" x2="1726.19" y2="406.07"/>
    <line class="cls-10" x1="1693.22" y1="458.01" x2="1701.58" y2="406.07"/>
  </g>
  <g>
    <line class="cls-9" x1="998.5" y1="259.5" x2="998.5" y2="375.22"/>
    <polygon class="cls-2" points="988.93 372.42 998.5 389 1008.07 372.42 988.93 372.42"/>
  </g>
  <g>
    <line class="cls-9" x1="1306.5" y1="509.35" x2="1547.05" y2="509.35"/>
    <polygon class="cls-2" points="1544.25 518.92 1560.83 509.35 1544.25 499.77 1544.25 518.92"/>
  </g>
  <g>
    <path class="cls-5" d="M1343.43,451.87v-22.91h3.03v22.91h-3.03Z"/>
    <path class="cls-5" d="M1351.44,451.87v-16.59h2.53v2.36c1.22-1.82,2.98-2.73,5.28-2.73,1,0,1.92.18,2.76.54s1.47.83,1.88,1.41.71,1.28.88,2.08c.1.52.16,1.43.16,2.73v10.2h-2.81v-10.09c0-1.15-.11-2-.33-2.57s-.61-1.02-1.16-1.36-1.21-.51-1.96-.51c-1.2,0-2.23.38-3.1,1.14s-1.3,2.2-1.3,4.33v9.06h-2.81Z"/>
    <path class="cls-5" d="M1369.26,432.2v-3.23h2.81v3.23h-2.81ZM1369.26,451.87v-16.59h2.81v16.59h-2.81Z"/>
    <path class="cls-5" d="M1382.49,449.35l.41,2.48c-.79.17-1.5.25-2.12.25-1.02,0-1.81-.16-2.38-.48-.56-.32-.96-.75-1.19-1.27s-.34-1.63-.34-3.32v-9.55h-2.06v-2.19h2.06v-4.11l2.8-1.69v5.8h2.83v2.19h-2.83v9.7c0,.8.05,1.32.15,1.55s.26.41.48.55.54.2.96.2c.31,0,.72-.04,1.23-.11Z"/>
    <path class="cls-5" d="M1385.26,432.2v-3.23h2.81v3.23h-2.81ZM1385.26,451.87v-16.59h2.81v16.59h-2.81Z"/>
    <path class="cls-5" d="M1403.18,449.82c-1.04.89-2.04,1.51-3.01,1.88s-2,.55-3.1.55c-1.82,0-3.22-.45-4.2-1.34s-1.47-2.03-1.47-3.41c0-.81.19-1.55.55-2.23s.85-1.21,1.45-1.62,1.27-.71,2.02-.92c.55-.15,1.38-.29,2.5-.42,2.27-.27,3.94-.59,5.02-.97,0-.39.02-.63.02-.73,0-1.15-.27-1.95-.8-2.42-.72-.64-1.79-.95-3.2-.95-1.32,0-2.3.23-2.93.7s-1.1,1.28-1.4,2.46l-2.75-.38c.25-1.18.66-2.13,1.23-2.85s1.4-1.28,2.48-1.67,2.34-.59,3.77-.59,2.57.17,3.45.5,1.54.75,1.95,1.26.71,1.14.88,1.91c.09.48.14,1.34.14,2.59v3.75c0,2.61.06,4.27.18,4.96s.36,1.36.71,1.99h-2.94c-.29-.58-.48-1.27-.56-2.05ZM1402.94,443.54c-1.02.42-2.55.77-4.59,1.06-1.16.17-1.97.35-2.45.56s-.85.51-1.11.91-.39.85-.39,1.34c0,.75.28,1.38.85,1.88s1.4.75,2.49.75,2.05-.24,2.89-.71,1.46-1.12,1.86-1.95c.3-.64.45-1.57.45-2.81v-1.03Z"/>
    <path class="cls-5" d="M1416.29,449.35l.41,2.48c-.79.17-1.5.25-2.12.25-1.02,0-1.81-.16-2.38-.48-.56-.32-.96-.75-1.19-1.27s-.34-1.63-.34-3.32v-9.55h-2.06v-2.19h2.06v-4.11l2.8-1.69v5.8h2.83v2.19h-2.83v9.7c0,.8.05,1.32.15,1.55s.26.41.48.55.54.2.96.2c.31,0,.72-.04,1.23-.11Z"/>
    <path class="cls-5" d="M1430.4,446.53l2.91.36c-.46,1.7-1.31,3.02-2.55,3.95s-2.82,1.41-4.75,1.41c-2.43,0-4.35-.75-5.77-2.24s-2.13-3.59-2.13-6.29.72-4.96,2.16-6.5,3.3-2.31,5.59-2.31,4.03.75,5.44,2.27,2.11,3.64,2.11,6.38c0,.17,0,.42-.02.75h-12.38c.1,1.82.62,3.22,1.55,4.19s2.08,1.45,3.47,1.45c1.03,0,1.91-.27,2.64-.81s1.31-1.41,1.73-2.59ZM1421.16,441.98h9.27c-.12-1.4-.48-2.44-1.06-3.14-.9-1.08-2.06-1.62-3.48-1.62-1.29,0-2.38.43-3.26,1.3s-1.37,2.02-1.46,3.47Z"/>
    <path class="cls-5" d="M1435.71,446.92l2.78-.44c.16,1.11.59,1.97,1.3,2.56s1.71.89,2.99.89,2.25-.26,2.88-.79.94-1.14.94-1.85c0-.64-.28-1.14-.83-1.5-.38-.25-1.34-.57-2.88-.95-2.06-.52-3.49-.97-4.29-1.35s-1.4-.91-1.81-1.58-.62-1.41-.62-2.23c0-.74.17-1.42.51-2.05s.8-1.15,1.38-1.57c.44-.32,1.03-.6,1.79-.82s1.56-.34,2.43-.34c1.3,0,2.45.19,3.43.56s1.71.88,2.18,1.52.79,1.5.97,2.57l-2.75.38c-.12-.85-.49-1.52-1.09-2s-1.45-.72-2.54-.72c-1.29,0-2.21.21-2.77.64s-.83.93-.83,1.5c0,.36.12.69.34.98.23.3.59.55,1.08.75.28.1,1.11.34,2.48.72,1.99.53,3.38.97,4.16,1.3s1.4.83,1.85,1.48.67,1.45.67,2.41-.27,1.82-.82,2.65-1.34,1.47-2.37,1.92-2.2.68-3.5.68c-2.16,0-3.8-.45-4.93-1.34s-1.85-2.22-2.16-3.98Z"/>
    <path class="cls-5" d="M1461.72,451.87v-16.59h2.53v2.36c1.22-1.82,2.98-2.73,5.28-2.73,1,0,1.92.18,2.76.54s1.47.83,1.88,1.41.71,1.28.88,2.08c.1.52.16,1.43.16,2.73v10.2h-2.81v-10.09c0-1.15-.11-2-.33-2.57s-.61-1.02-1.16-1.36-1.21-.51-1.96-.51c-1.2,0-2.23.38-3.1,1.14s-1.3,2.2-1.3,4.33v9.06h-2.81Z"/>
    <path class="cls-5" d="M1490.88,446.53l2.91.36c-.46,1.7-1.31,3.02-2.55,3.95s-2.82,1.41-4.75,1.41c-2.43,0-4.35-.75-5.77-2.24s-2.13-3.59-2.13-6.29.72-4.96,2.16-6.5,3.3-2.31,5.59-2.31,4.03.75,5.44,2.27,2.11,3.64,2.11,6.38c0,.17,0,.42-.02.75h-12.38c.1,1.82.62,3.22,1.55,4.19s2.08,1.45,3.47,1.45c1.03,0,1.91-.27,2.64-.81s1.31-1.41,1.73-2.59ZM1481.65,441.98h9.27c-.12-1.4-.48-2.44-1.06-3.14-.9-1.08-2.06-1.62-3.48-1.62-1.29,0-2.38.43-3.26,1.3s-1.37,2.02-1.46,3.47Z"/>
    <path class="cls-5" d="M1503.46,449.35l.41,2.48c-.79.17-1.5.25-2.12.25-1.02,0-1.81-.16-2.38-.48-.56-.32-.96-.75-1.19-1.27s-.34-1.63-.34-3.32v-9.55h-2.06v-2.19h2.06v-4.11l2.8-1.69v5.8h2.83v2.19h-2.83v9.7c0,.8.05,1.32.15,1.55s.26.41.48.55.54.2.96.2c.31,0,.72-.04,1.23-.11Z"/>
    <path class="cls-5" d="M1343.22,490.27v-14.41h-2.48v-2.19h2.48v-1.77c0-1.11.1-1.94.3-2.48.27-.73.75-1.32,1.43-1.77s1.64-.68,2.87-.68c.79,0,1.67.09,2.62.28l-.42,2.45c-.58-.1-1.13-.16-1.66-.16-.85,0-1.46.18-1.81.55-.35.37-.53,1.05-.53,2.05v1.53h3.23v2.19h-3.23v14.41h-2.8Z"/>
    <path class="cls-5" d="M1362.32,490.27v-2.44c-1.29,1.88-3.05,2.81-5.27,2.81-.98,0-1.89-.19-2.74-.56s-1.48-.85-1.89-1.41c-.41-.57-.7-1.26-.87-2.09-.12-.55-.17-1.43-.17-2.62v-10.28h2.81v9.2c0,1.47.06,2.46.17,2.97.18.74.55,1.32,1.12,1.74s1.28.63,2.12.63,1.63-.22,2.38-.65c.74-.43,1.26-1.02,1.57-1.77.31-.74.46-1.83.46-3.24v-8.89h2.81v16.59h-2.52Z"/>
    <path class="cls-5" d="M1369.24,490.27v-16.59h2.53v2.36c1.22-1.82,2.98-2.73,5.28-2.73,1,0,1.92.18,2.76.54s1.47.83,1.88,1.41c.42.58.71,1.28.88,2.08.1.52.16,1.43.16,2.73v10.2h-2.81v-10.09c0-1.15-.11-2-.33-2.57-.22-.57-.61-1.02-1.16-1.36-.56-.34-1.21-.51-1.96-.51-1.2,0-2.23.38-3.1,1.14-.87.76-1.3,2.2-1.3,4.33v9.06h-2.81Z"/>
    <path class="cls-5" d="M1397.8,490.27v-2.09c-1.05,1.65-2.6,2.47-4.64,2.47-1.32,0-2.54-.37-3.65-1.09s-1.97-1.75-2.58-3.05c-.61-1.31-.91-2.81-.91-4.51s.28-3.16.83-4.51c.55-1.35,1.38-2.38,2.48-3.1s2.34-1.08,3.7-1.08c1,0,1.89.21,2.67.63s1.42.97,1.91,1.65v-8.22h2.8v22.91h-2.61ZM1388.91,481.99c0,2.12.45,3.71,1.34,4.77.9,1.05,1.95,1.58,3.17,1.58s2.27-.5,3.13-1.51c.86-1,1.29-2.54,1.29-4.6,0-2.27-.44-3.94-1.31-5s-1.95-1.59-3.23-1.59-2.29.51-3.13,1.53c-.84,1.02-1.26,2.63-1.26,4.83Z"/>
    <path class="cls-5" d="M1419.87,487.75l.41,2.48c-.79.17-1.5.25-2.12.25-1.02,0-1.81-.16-2.38-.48s-.96-.75-1.19-1.27c-.23-.53-.34-1.63-.34-3.32v-9.55h-2.06v-2.19h2.06v-4.11l2.8-1.69v5.8h2.83v2.19h-2.83v9.7c0,.8.05,1.32.15,1.55.1.23.26.41.48.55.22.14.54.2.96.2.31,0,.72-.04,1.23-.11Z"/>
    <path class="cls-5" d="M1422.58,490.27v-16.59h2.53v2.52c.65-1.18,1.24-1.95,1.79-2.33s1.15-.56,1.8-.56c.95,0,1.91.3,2.89.91l-.97,2.61c-.69-.41-1.38-.61-2.06-.61-.62,0-1.17.19-1.66.55-.49.37-.84.88-1.05,1.54-.31,1-.47,2.09-.47,3.28v8.69h-2.81Z"/>
    <path class="cls-5" d="M1444.1,488.22c-1.04.89-2.04,1.51-3.01,1.88s-2,.55-3.1.55c-1.82,0-3.22-.45-4.2-1.34s-1.47-2.03-1.47-3.41c0-.81.19-1.55.55-2.23s.85-1.21,1.45-1.62,1.27-.71,2.02-.92c.55-.15,1.38-.29,2.5-.42,2.27-.27,3.94-.59,5.02-.97,0-.38.02-.63.02-.73,0-1.15-.27-1.95-.8-2.42-.72-.63-1.79-.95-3.2-.95-1.32,0-2.3.23-2.93.7-.63.46-1.1,1.28-1.4,2.46l-2.75-.38c.25-1.18.66-2.13,1.23-2.85.57-.72,1.4-1.28,2.48-1.67s2.34-.59,3.77-.59,2.57.17,3.45.5c.88.33,1.54.75,1.95,1.26.42.51.71,1.14.88,1.91.09.48.14,1.34.14,2.59v3.75c0,2.62.06,4.27.18,4.96.12.69.36,1.36.71,1.99h-2.94c-.29-.58-.48-1.27-.56-2.05ZM1443.87,481.94c-1.02.42-2.55.77-4.59,1.06-1.16.17-1.97.35-2.45.56-.48.21-.85.51-1.11.91-.26.4-.39.85-.39,1.34,0,.75.28,1.38.85,1.88s1.4.75,2.49.75,2.05-.24,2.89-.71c.84-.47,1.46-1.12,1.86-1.95.3-.63.45-1.57.45-2.81v-1.03Z"/>
    <path class="cls-5" d="M1451.07,490.27v-16.59h2.53v2.36c1.22-1.82,2.98-2.73,5.28-2.73,1,0,1.92.18,2.76.54s1.47.83,1.88,1.41c.42.58.71,1.28.88,2.08.1.52.16,1.43.16,2.73v10.2h-2.81v-10.09c0-1.15-.11-2-.33-2.57-.22-.57-.61-1.02-1.16-1.36-.56-.34-1.21-.51-1.96-.51-1.2,0-2.23.38-3.1,1.14-.87.76-1.3,2.2-1.3,4.33v9.06h-2.81Z"/>
    <path class="cls-5" d="M1467.74,485.32l2.78-.44c.16,1.12.59,1.97,1.3,2.56s1.71.89,2.99.89,2.25-.26,2.88-.79c.62-.53.94-1.14.94-1.85,0-.63-.28-1.13-.83-1.5-.38-.25-1.34-.57-2.88-.95-2.06-.52-3.49-.97-4.29-1.35-.8-.38-1.4-.91-1.81-1.58s-.62-1.41-.62-2.23c0-.74.17-1.42.51-2.05.34-.63.8-1.15,1.38-1.57.44-.32,1.03-.6,1.79-.82.76-.22,1.56-.34,2.43-.34,1.3,0,2.45.19,3.43.56s1.71.88,2.18,1.52.79,1.5.97,2.57l-2.75.38c-.12-.85-.49-1.52-1.09-2-.6-.48-1.45-.72-2.54-.72-1.29,0-2.21.21-2.77.64-.55.43-.83.93-.83,1.5,0,.37.12.69.34.98.23.3.59.55,1.08.75.28.1,1.11.34,2.48.72,1.99.53,3.38.97,4.16,1.3.79.34,1.4.83,1.85,1.48.45.65.67,1.45.67,2.41s-.27,1.82-.82,2.65-1.34,1.47-2.37,1.92-2.2.68-3.5.68c-2.16,0-3.8-.45-4.93-1.34-1.13-.9-1.85-2.22-2.16-3.98Z"/>
    <path class="cls-5" d="M1485.54,490.27v-14.41h-2.48v-2.19h2.48v-1.77c0-1.11.1-1.94.3-2.48.27-.73.75-1.32,1.43-1.77s1.64-.68,2.87-.68c.79,0,1.67.09,2.62.28l-.42,2.45c-.58-.1-1.13-.16-1.66-.16-.85,0-1.46.18-1.81.55-.35.37-.53,1.05-.53,2.05v1.53h3.23v2.19h-3.23v14.41h-2.8Z"/>
    <path class="cls-5" d="M1505.12,484.92l2.91.36c-.46,1.7-1.31,3.02-2.55,3.95s-2.82,1.41-4.75,1.41c-2.43,0-4.35-.75-5.77-2.24-1.42-1.49-2.13-3.59-2.13-6.29s.72-4.96,2.16-6.5c1.44-1.54,3.3-2.31,5.59-2.31s4.03.76,5.44,2.27c1.41,1.51,2.11,3.64,2.11,6.38,0,.17,0,.42-.02.75h-12.38c.1,1.82.62,3.22,1.55,4.19s2.08,1.45,3.47,1.45c1.03,0,1.91-.27,2.64-.81.73-.54,1.31-1.41,1.73-2.59ZM1495.88,480.38h9.27c-.12-1.4-.48-2.44-1.06-3.14-.9-1.08-2.06-1.62-3.48-1.62-1.29,0-2.38.43-3.26,1.3-.88.87-1.37,2.02-1.46,3.47Z"/>
    <path class="cls-5" d="M1511.52,490.27v-16.59h2.53v2.52c.65-1.18,1.24-1.95,1.79-2.33s1.15-.56,1.8-.56c.95,0,1.91.3,2.89.91l-.97,2.61c-.69-.41-1.38-.61-2.06-.61-.62,0-1.17.19-1.66.55-.49.37-.84.88-1.05,1.54-.31,1-.47,2.09-.47,3.28v8.69h-2.81Z"/>
  </g>
  <text class="cls-7" transform="translate(31.12 -17.79)"><tspan x="0" y="0">Statement Flow</tspan></text>
</svg>