<?xml version="1.0" encoding="UTF-8"?>
<svg id="Layer_1" data-name="Layer 1" xmlns="http://www.w3.org/2000/svg" viewBox="0 0 1997 925">
  <defs>
    <style>
      .cls-1 {
        fill: #ff931e;
      }

      .cls-2 {
        fill: #00a99d;
      }

      .cls-3 {
        fill: #ff7bac;
      }

      .cls-4 {
        fill: #009245;
      }

      .cls-5, .cls-6 {
        fill: #4d4d4d;
      }

      .cls-7, .cls-8, .cls-9, .cls-10, .cls-11 {
        fill: none;
      }

      .cls-7, .cls-8, .cls-9, .cls-12 {
        stroke-miterlimit: 10;
      }

      .cls-7, .cls-8, .cls-11 {
        stroke: #00a99d;
      }

      .cls-7, .cls-9, .cls-10, .cls-11 {
        stroke-width: 3px;
      }

      .cls-8 {
        stroke-width: 5px;
      }

      .cls-13 {
        fill-rule: evenodd;
      }

      .cls-13, .cls-12 {
        fill: #f2f2f2;
      }

      .cls-14 {
        fill: #fff;
      }

      .cls-9, .cls-10 {
        stroke: #fff;
      }

      .cls-9, .cls-10, .cls-11 {
        stroke-linecap: round;
      }

      .cls-10, .cls-11 {
        stroke-linejoin: round;
      }

      .cls-15 {
        fill: #29abe2;
      }

      .cls-6 {
        font-family: ArialMT, Arial;
        font-size: 27.72px;
      }

      .cls-16 {
        letter-spacing: -.07em;
      }

      .cls-17 {
        letter-spacing: -.09em;
      }

      .cls-18 {
        letter-spacing: -.02em;
      }

      .cls-19 {
        letter-spacing: -.06em;
      }

      .cls-20 {
        font-family: Arial-BoldMT, Arial;
        font-size: 30px;
        font-weight: 700;
      }

      .cls-12 {
        stroke: #009245;
        stroke-width: 4px;
      }
    </style>
  </defs>
  <rect class="cls-14" width="1997" height="925"/>
  <rect class="cls-3" x="104.85" y="61" width="224.53" height="224.53" rx="19.94" ry="19.94"/>
  <rect class="cls-15" x="1003.82" y="530.97" width="224.53" height="224.53" rx="19.94" ry="19.94"/>
  <rect class="cls-15" x="540.14" y="60.97" width="224.53" height="224.53" rx="19.94" ry="19.94"/>
  <g>
    <path d="M106.18,329.48l5.18,1.64c-.79,2.89-2.12,5.04-3.97,6.44-1.85,1.4-4.19,2.1-7.04,2.1-3.52,0-6.41-1.2-8.67-3.6-2.26-2.4-3.4-5.69-3.4-9.86,0-4.41,1.14-7.83,3.42-10.27,2.28-2.44,5.27-3.66,8.98-3.66,3.24,0,5.87.96,7.89,2.87,1.2,1.13,2.11,2.76,2.71,4.88l-5.29,1.26c-.31-1.37-.97-2.46-1.96-3.25-.99-.79-2.2-1.19-3.62-1.19-1.96,0-3.56.7-4.78,2.11-1.22,1.41-1.83,3.69-1.83,6.85,0,3.35.6,5.73,1.81,7.15,1.2,1.42,2.77,2.13,4.7,2.13,1.42,0,2.64-.45,3.67-1.35,1.02-.9,1.76-2.32,2.21-4.26Z"/>
    <path d="M139.84,339.22h-5.82l-2.31-6.02h-10.59l-2.19,6.02h-5.67l10.32-26.49h5.65l10.61,26.49ZM129.99,328.74l-3.65-9.83-3.58,9.83h7.23Z"/>
    <path d="M142.69,339.22v-26.49h11.25c2.83,0,4.89.24,6.17.71,1.28.48,2.31,1.32,3.08,2.54.77,1.22,1.16,2.61,1.16,4.17,0,1.99-.58,3.63-1.75,4.92-1.17,1.29-2.92,2.11-5.24,2.45,1.16.67,2.11,1.42,2.86,2.22.75.81,1.77,2.24,3.04,4.3l3.23,5.17h-6.4l-3.87-5.76c-1.37-2.06-2.31-3.36-2.82-3.89-.51-.54-1.04-.9-1.61-1.1-.57-.2-1.46-.3-2.69-.3h-1.08v11.06h-5.35ZM148.04,323.94h3.96c2.57,0,4.17-.11,4.81-.33.64-.22,1.14-.59,1.5-1.12.36-.53.54-1.19.54-1.99,0-.89-.24-1.61-.71-2.16-.48-.55-1.15-.89-2.01-1.04-.43-.06-1.73-.09-3.9-.09h-4.17v6.72Z"/>
    <path d="M169.38,312.74h9.77c2.21,0,3.88.17,5.04.51,1.55.46,2.88,1.27,3.99,2.44,1.11,1.17,1.95,2.6,2.53,4.29.58,1.69.87,3.78.87,6.26,0,2.18-.27,4.06-.81,5.64-.66,1.93-1.61,3.49-2.84,4.68-.93.9-2.18,1.61-3.76,2.11-1.18.37-2.76.56-4.73.56h-10.06v-26.49ZM174.72,317.22v17.54h3.99c1.49,0,2.57-.08,3.23-.25.87-.22,1.59-.58,2.16-1.1.57-.52,1.04-1.37,1.4-2.56.36-1.19.54-2.8.54-4.85s-.18-3.62-.54-4.72c-.36-1.1-.87-1.95-1.52-2.57s-1.47-1.03-2.47-1.25c-.75-.17-2.21-.25-4.39-.25h-2.4Z"/>
    <path d="M196.13,339.22v-26.49h5.35v10.42h10.48v-10.42h5.35v26.49h-5.35v-11.58h-10.48v11.58h-5.35Z"/>
    <path d="M221.75,326.14c0-2.7.4-4.96,1.21-6.79.6-1.35,1.42-2.56,2.47-3.63,1.04-1.07,2.18-1.87,3.42-2.38,1.65-.7,3.55-1.05,5.71-1.05,3.9,0,7.02,1.21,9.37,3.63s3.51,5.79,3.51,10.1-1.16,7.62-3.49,10.04c-2.32,2.42-5.43,3.62-9.32,3.62s-7.07-1.2-9.39-3.6c-2.32-2.4-3.49-5.71-3.49-9.93ZM227.26,325.96c0,3,.69,5.27,2.08,6.82,1.39,1.55,3.14,2.32,5.28,2.32s3.88-.77,5.25-2.3c1.37-1.54,2.05-3.84,2.05-6.91s-.67-5.3-2-6.79c-1.33-1.49-3.1-2.24-5.3-2.24s-3.98.76-5.33,2.27c-1.35,1.51-2.02,3.79-2.02,6.84Z"/>
    <path d="M251.76,339.22v-26.27h5.35v21.81h13.3v4.46h-18.64Z"/>
    <path d="M274.2,312.74h9.77c2.21,0,3.88.17,5.04.51,1.55.46,2.88,1.27,3.99,2.44,1.11,1.17,1.95,2.6,2.53,4.29.58,1.69.87,3.78.87,6.26,0,2.18-.27,4.06-.81,5.64-.66,1.93-1.61,3.49-2.84,4.68-.93.9-2.18,1.61-3.76,2.11-1.18.37-2.76.56-4.73.56h-10.06v-26.49ZM279.54,317.22v17.54h3.99c1.49,0,2.57-.08,3.23-.25.87-.22,1.59-.58,2.16-1.1.57-.52,1.04-1.37,1.4-2.56.36-1.19.54-2.8.54-4.85s-.18-3.62-.54-4.72c-.36-1.1-.87-1.95-1.52-2.57s-1.47-1.03-2.47-1.25c-.75-.17-2.21-.25-4.39-.25h-2.4Z"/>
    <path d="M300.93,339.22v-26.49h19.64v4.48h-14.29v5.87h13.3v4.46h-13.3v7.21h14.8v4.46h-20.14Z"/>
    <path d="M325.63,339.22v-26.49h11.25c2.83,0,4.89.24,6.17.71,1.28.48,2.31,1.32,3.08,2.54.77,1.22,1.16,2.61,1.16,4.17,0,1.99-.58,3.63-1.75,4.92-1.17,1.29-2.92,2.11-5.24,2.45,1.16.67,2.11,1.42,2.86,2.22.75.81,1.77,2.24,3.04,4.3l3.23,5.17h-6.4l-3.87-5.76c-1.37-2.06-2.31-3.36-2.82-3.89-.51-.54-1.04-.9-1.61-1.1-.57-.2-1.46-.3-2.69-.3h-1.08v11.06h-5.35ZM330.98,323.94h3.96c2.57,0,4.17-.11,4.81-.33.64-.22,1.14-.59,1.5-1.12.36-.53.54-1.19.54-1.99,0-.89-.24-1.61-.71-2.16-.48-.55-1.15-.89-2.01-1.04-.43-.06-1.73-.09-3.9-.09h-4.17v6.72Z"/>
    <path class="cls-5" d="M87.12,381.22v-25.05h3.32v25.05h-3.32Z"/>
    <path class="cls-5" d="M95.89,381.22v-18.15h2.77v2.58c1.33-1.99,3.26-2.99,5.78-2.99,1.09,0,2.1.2,3.02.59.92.39,1.6.91,2.06,1.55.46.64.77,1.4.96,2.27.11.57.17,1.57.17,2.99v11.16h-3.08v-11.04c0-1.25-.12-2.19-.36-2.81-.24-.62-.66-1.12-1.27-1.49-.61-.37-1.32-.56-2.14-.56-1.31,0-2.44.42-3.39,1.25-.95.83-1.43,2.41-1.43,4.73v9.91h-3.08Z"/>
    <path class="cls-5" d="M115.37,359.71v-3.54h3.08v3.54h-3.08ZM115.37,381.22v-18.15h3.08v18.15h-3.08Z"/>
    <path class="cls-5" d="M129.85,378.47l.44,2.72c-.87.18-1.64.27-2.32.27-1.12,0-1.98-.18-2.6-.53s-1.05-.82-1.3-1.39c-.25-.57-.38-1.79-.38-3.63v-10.44h-2.26v-2.39h2.26v-4.49l3.06-1.85v6.34h3.09v2.39h-3.09v10.61c0,.88.05,1.44.16,1.69.11.25.28.45.53.6.25.15.6.22,1.05.22.34,0,.79-.04,1.35-.12Z"/>
    <path class="cls-5" d="M132.87,359.71v-3.54h3.08v3.54h-3.08ZM132.87,381.22v-18.15h3.08v18.15h-3.08Z"/>
    <path class="cls-5" d="M152.47,378.98c-1.14.97-2.24,1.65-3.29,2.05s-2.18.6-3.39.6c-1.99,0-3.53-.49-4.6-1.46-1.07-.97-1.61-2.22-1.61-3.73,0-.89.2-1.7.61-2.44.4-.73.93-1.32,1.59-1.77.65-.44,1.39-.78,2.21-1.01.6-.16,1.51-.31,2.73-.46,2.48-.3,4.31-.65,5.49-1.06.01-.42.02-.69.02-.8,0-1.25-.29-2.14-.87-2.65-.79-.69-1.95-1.04-3.5-1.04-1.45,0-2.52.25-3.2.76-.69.51-1.2,1.4-1.53,2.69l-3.01-.41c.27-1.29.72-2.33,1.35-3.12.63-.79,1.53-1.4,2.72-1.83,1.19-.43,2.56-.64,4.12-.64s2.81.18,3.78.55c.97.36,1.68.82,2.14,1.38.46.55.77,1.25.96,2.09.1.52.15,1.47.15,2.84v4.1c0,2.86.07,4.67.2,5.43.13.76.39,1.48.78,2.18h-3.21c-.32-.64-.52-1.38-.62-2.24ZM152.22,372.11c-1.12.46-2.79.84-5.03,1.16-1.26.18-2.16.39-2.68.62-.52.23-.93.56-1.21,1-.28.44-.43.93-.43,1.46,0,.82.31,1.5.93,2.05.62.55,1.53.82,2.73.82s2.24-.26,3.16-.78c.92-.52,1.6-1.23,2.03-2.13.33-.69.5-1.72.5-3.08v-1.13Z"/>
    <path class="cls-5" d="M166.81,378.47l.44,2.72c-.87.18-1.64.27-2.32.27-1.12,0-1.98-.18-2.6-.53s-1.05-.82-1.3-1.39c-.25-.57-.38-1.79-.38-3.63v-10.44h-2.26v-2.39h2.26v-4.49l3.06-1.85v6.34h3.09v2.39h-3.09v10.61c0,.88.05,1.44.16,1.69.11.25.28.45.53.6.25.15.6.22,1.05.22.34,0,.79-.04,1.35-.12Z"/>
    <path class="cls-5" d="M182.25,375.38l3.18.39c-.5,1.86-1.43,3.3-2.79,4.32-1.36,1.03-3.09,1.54-5.2,1.54-2.66,0-4.76-.82-6.32-2.45-1.55-1.63-2.33-3.93-2.33-6.88s.79-5.42,2.36-7.11c1.57-1.69,3.61-2.53,6.12-2.53s4.41.83,5.95,2.48c1.54,1.65,2.31,3.98,2.31,6.97,0,.18,0,.46-.02.82h-13.54c.11,1.99.68,3.52,1.69,4.58,1.01,1.06,2.28,1.59,3.79,1.59,1.13,0,2.09-.3,2.89-.89.8-.59,1.43-1.54,1.9-2.84ZM172.14,370.4h10.13c-.14-1.53-.52-2.67-1.16-3.44-.98-1.18-2.25-1.78-3.81-1.78-1.41,0-2.6.47-3.56,1.42-.96.95-1.5,2.21-1.6,3.79Z"/>
    <path class="cls-5" d="M188.06,375.8l3.04-.48c.17,1.22.65,2.15,1.43,2.8.78.65,1.87.97,3.27.97s2.46-.29,3.14-.86c.68-.57,1.03-1.25,1.03-2.02,0-.69-.3-1.24-.91-1.64-.42-.27-1.47-.62-3.14-1.04-2.26-.57-3.82-1.06-4.69-1.48-.87-.42-1.53-.99-1.98-1.73-.45-.74-.67-1.55-.67-2.44,0-.81.18-1.56.55-2.25s.87-1.26,1.51-1.72c.48-.35,1.13-.65,1.96-.9.83-.24,1.71-.37,2.66-.37,1.42,0,2.67.21,3.75.62,1.08.41,1.87.97,2.38,1.67.51.7.87,1.64,1.06,2.81l-3.01.41c-.14-.93-.53-1.66-1.19-2.19-.66-.52-1.58-.79-2.78-.79-1.41,0-2.42.23-3.03.7-.6.47-.91,1.01-.91,1.64,0,.4.13.76.38,1.08.25.33.64.6,1.18.82.31.11,1.21.38,2.72.79,2.18.58,3.69,1.06,4.55,1.43.86.37,1.54.91,2.03,1.62.49.71.74,1.58.74,2.63s-.3,1.99-.9,2.9c-.6.91-1.46,1.61-2.59,2.1-1.13.5-2.4.74-3.83.74-2.36,0-4.16-.49-5.39-1.47-1.24-.98-2.03-2.43-2.37-4.36Z"/>
    <path class="cls-5" d="M216.9,381.22v-25.05h9.45c1.66,0,2.93.08,3.81.24,1.23.21,2.26.6,3.09,1.17.83.58,1.5,1.38,2.01,2.42.51,1.04.76,2.18.76,3.42,0,2.13-.68,3.93-2.03,5.41-1.36,1.48-3.81,2.21-7.35,2.21h-6.43v10.19h-3.32ZM220.22,368.08h6.48c2.14,0,3.66-.4,4.56-1.2.9-.8,1.35-1.92,1.35-3.37,0-1.05-.27-1.95-.79-2.69-.53-.75-1.23-1.24-2.09-1.48-.56-.15-1.59-.22-3.09-.22h-6.41v8.96Z"/>
    <path class="cls-5" d="M251.7,378.98c-1.14.97-2.24,1.65-3.29,2.05s-2.18.6-3.39.6c-1.99,0-3.53-.49-4.6-1.46-1.07-.97-1.61-2.22-1.61-3.73,0-.89.2-1.7.61-2.44.4-.73.93-1.32,1.59-1.77.65-.44,1.39-.78,2.21-1.01.6-.16,1.51-.31,2.73-.46,2.48-.3,4.31-.65,5.49-1.06.01-.42.02-.69.02-.8,0-1.25-.29-2.14-.87-2.65-.79-.69-1.95-1.04-3.5-1.04-1.45,0-2.52.25-3.2.76-.69.51-1.2,1.4-1.53,2.69l-3.01-.41c.27-1.29.72-2.33,1.35-3.12.63-.79,1.53-1.4,2.72-1.83,1.19-.43,2.56-.64,4.12-.64s2.81.18,3.78.55c.97.36,1.68.82,2.14,1.38.46.55.77,1.25.96,2.09.1.52.15,1.47.15,2.84v4.1c0,2.86.07,4.67.2,5.43.13.76.39,1.48.78,2.18h-3.21c-.32-.64-.52-1.38-.62-2.24ZM251.44,372.11c-1.12.46-2.79.84-5.03,1.16-1.26.18-2.16.39-2.68.62-.52.23-.93.56-1.21,1-.28.44-.43.93-.43,1.46,0,.82.31,1.5.93,2.05.62.55,1.53.82,2.73.82s2.24-.26,3.16-.78c.92-.52,1.6-1.23,2.03-2.13.33-.69.5-1.72.5-3.08v-1.13Z"/>
    <path class="cls-5" d="M259.18,388.21l-.34-2.89c.67.18,1.26.27,1.76.27.68,0,1.23-.11,1.64-.34.41-.23.75-.55,1.01-.96.19-.31.51-1.07.94-2.29.06-.17.15-.42.27-.75l-6.89-18.18h3.31l3.78,10.51c.49,1.33.93,2.73,1.32,4.2.35-1.41.77-2.79,1.26-4.14l3.88-10.58h3.08l-6.9,18.46c-.74,1.99-1.32,3.37-1.73,4.12-.55,1.01-1.17,1.76-1.88,2.23-.71.47-1.55.71-2.53.71-.59,0-1.25-.13-1.98-.38Z"/>
    <path class="cls-5" d="M276.82,381.22v-18.15h2.75v2.55c.57-.89,1.33-1.6,2.27-2.15.95-.54,2.02-.81,3.23-.81,1.34,0,2.45.28,3.31.84.86.56,1.47,1.34,1.82,2.34,1.44-2.12,3.3-3.18,5.61-3.18,1.8,0,3.18.5,4.15,1.5.97,1,1.45,2.53,1.45,4.61v12.46h-3.06v-11.43c0-1.23-.1-2.12-.3-2.66-.2-.54-.56-.98-1.08-1.31-.52-.33-1.14-.5-1.85-.5-1.28,0-2.34.42-3.18,1.27-.84.85-1.26,2.21-1.26,4.08v10.54h-3.08v-11.79c0-1.37-.25-2.39-.75-3.08-.5-.68-1.32-1.03-2.46-1.03-.87,0-1.67.23-2.4.68-.73.46-1.27,1.12-1.6,2-.33.88-.5,2.14-.5,3.79v9.42h-3.08Z"/>
    <path class="cls-5" d="M318.4,375.38l3.18.39c-.5,1.86-1.43,3.3-2.79,4.32-1.36,1.03-3.09,1.54-5.2,1.54-2.66,0-4.76-.82-6.32-2.45-1.55-1.63-2.33-3.93-2.33-6.88s.79-5.42,2.36-7.11c1.57-1.69,3.61-2.53,6.12-2.53s4.41.83,5.95,2.48c1.54,1.65,2.31,3.98,2.31,6.97,0,.18,0,.46-.02.82h-13.54c.11,1.99.68,3.52,1.69,4.58,1.01,1.06,2.28,1.59,3.79,1.59,1.13,0,2.09-.3,2.89-.89.8-.59,1.43-1.54,1.9-2.84ZM308.3,370.4h10.13c-.14-1.53-.52-2.67-1.16-3.44-.98-1.18-2.25-1.78-3.81-1.78-1.41,0-2.6.47-3.56,1.42-.96.95-1.5,2.21-1.6,3.79Z"/>
    <path class="cls-5" d="M325.44,381.22v-18.15h2.77v2.58c1.33-1.99,3.26-2.99,5.78-2.99,1.09,0,2.1.2,3.02.59.92.39,1.6.91,2.06,1.55.46.64.77,1.4.96,2.27.11.57.17,1.57.17,2.99v11.16h-3.08v-11.04c0-1.25-.12-2.19-.36-2.81-.24-.62-.66-1.12-1.27-1.49-.61-.37-1.32-.56-2.14-.56-1.31,0-2.44.42-3.39,1.25-.95.83-1.43,2.41-1.43,4.73v9.91h-3.08Z"/>
    <path class="cls-5" d="M351.62,378.47l.44,2.72c-.87.18-1.64.27-2.32.27-1.12,0-1.98-.18-2.6-.53s-1.05-.82-1.3-1.39c-.25-.57-.38-1.79-.38-3.63v-10.44h-2.26v-2.39h2.26v-4.49l3.06-1.85v6.34h3.09v2.39h-3.09v10.61c0,.88.05,1.44.16,1.69.11.25.28.45.53.6.25.15.6.22,1.05.22.34,0,.79-.04,1.35-.12Z"/>
  </g>
  <g>
    <path d="M1037.37,814.62h-5.82l-2.31-6.02h-10.59l-2.19,6.02h-5.67l10.32-26.49h5.65l10.61,26.49ZM1027.52,804.14l-3.65-9.83-3.58,9.83h7.23Z"/>
    <path d="M1057.15,804.88l5.18,1.64c-.79,2.89-2.12,5.04-3.97,6.44-1.85,1.4-4.19,2.1-7.04,2.1-3.52,0-6.41-1.2-8.67-3.6-2.26-2.4-3.4-5.69-3.4-9.86,0-4.41,1.14-7.83,3.42-10.27,2.28-2.44,5.27-3.66,8.98-3.66,3.24,0,5.87.96,7.89,2.87,1.2,1.13,2.11,2.76,2.71,4.88l-5.29,1.26c-.31-1.37-.97-2.46-1.96-3.25-.99-.79-2.2-1.19-3.62-1.19-1.96,0-3.56.7-4.78,2.11-1.22,1.41-1.83,3.69-1.83,6.85,0,3.35.6,5.73,1.81,7.15s2.77,2.13,4.7,2.13c1.42,0,2.64-.45,3.67-1.36,1.02-.9,1.76-2.32,2.21-4.26Z"/>
    <path d="M1088.24,811.26c1.31.94,2.74,1.69,4.28,2.24l-1.97,3.78c-.81-.24-1.6-.57-2.37-.99-.17-.08-1.35-.87-3.56-2.35-1.73.76-3.66,1.14-5.76,1.14-4.07,0-7.26-1.2-9.57-3.59s-3.46-5.76-3.46-10.1,1.16-7.69,3.47-10.09c2.31-2.4,5.45-3.6,9.41-3.6s7.04,1.2,9.34,3.6c2.3,2.4,3.45,5.77,3.45,10.09,0,2.29-.32,4.3-.96,6.03-.48,1.33-1.25,2.61-2.31,3.85ZM1083.94,808.24c.69-.81,1.2-1.78,1.54-2.93.34-1.14.51-2.46.51-3.94,0-3.06-.67-5.34-2.02-6.86-1.35-1.51-3.11-2.27-5.29-2.27s-3.95.76-5.3,2.28c-1.35,1.52-2.03,3.8-2.03,6.85s.68,5.41,2.03,6.95c1.36,1.54,3.07,2.3,5.14,2.3.77,0,1.5-.13,2.19-.38-1.08-.71-2.19-1.26-3.31-1.66l1.5-3.05c1.76.6,3.44,1.51,5.04,2.71Z"/>
    <path d="M1095.67,788.13h5.35v14.34c0,2.28.07,3.75.2,4.43.23,1.08.77,1.96,1.63,2.61s2.04.98,3.53.98,2.66-.31,3.43-.93c.77-.62,1.23-1.38,1.39-2.29.16-.9.23-2.4.23-4.5v-14.65h5.35v13.91c0,3.18-.14,5.43-.43,6.74-.29,1.31-.82,2.42-1.6,3.32-.78.9-1.82,1.62-3.12,2.16-1.3.54-3,.8-5.1.8-2.53,0-4.45-.29-5.75-.88s-2.34-1.34-3.1-2.28c-.76-.93-1.26-1.91-1.5-2.94-.35-1.52-.52-3.76-.52-6.72v-14.13Z"/>
    <path d="M1122.26,814.62v-26.49h5.35v26.49h-5.35Z"/>
    <path d="M1132.72,814.62v-26.49h11.25c2.83,0,4.89.24,6.17.71,1.28.48,2.31,1.32,3.08,2.54.77,1.22,1.16,2.61,1.16,4.17,0,1.99-.58,3.63-1.75,4.92s-2.92,2.11-5.24,2.45c1.16.67,2.11,1.42,2.86,2.22s1.77,2.24,3.04,4.3l3.23,5.17h-6.4l-3.87-5.76c-1.37-2.06-2.31-3.36-2.82-3.89s-1.04-.9-1.61-1.1c-.57-.2-1.46-.3-2.69-.3h-1.08v11.06h-5.35ZM1138.07,799.34h3.96c2.57,0,4.17-.11,4.81-.33.64-.22,1.14-.59,1.5-1.12s.54-1.19.54-1.99c0-.89-.24-1.61-.71-2.16-.48-.55-1.15-.89-2.01-1.04-.43-.06-1.73-.09-3.9-.09h-4.17v6.72Z"/>
    <path d="M1159.42,814.62v-26.49h19.64v4.48h-14.29v5.87h13.3v4.46h-13.3v7.21h14.8v4.46h-20.14Z"/>
    <path d="M1184.12,814.62v-26.49h11.25c2.83,0,4.89.24,6.17.71,1.28.48,2.31,1.32,3.08,2.54.77,1.22,1.16,2.61,1.16,4.17,0,1.99-.58,3.63-1.75,4.92s-2.92,2.11-5.24,2.45c1.16.67,2.11,1.42,2.86,2.22s1.77,2.24,3.04,4.3l3.23,5.17h-6.4l-3.87-5.76c-1.37-2.06-2.31-3.36-2.82-3.89s-1.04-.9-1.61-1.1c-.57-.2-1.46-.3-2.69-.3h-1.08v11.06h-5.35ZM1189.47,799.34h3.96c2.57,0,4.17-.11,4.81-.33.64-.22,1.14-.59,1.5-1.12s.54-1.19.54-1.99c0-.89-.24-1.61-.71-2.16-.48-.55-1.15-.89-2.01-1.04-.43-.06-1.73-.09-3.9-.09h-4.17v6.72Z"/>
    <path class="cls-5" d="M930.42,856.62l9.62-25.05h3.57l10.25,25.05h-3.78l-2.92-7.59h-10.48l-2.75,7.59h-3.52ZM937.65,846.33h8.49l-2.62-6.94c-.8-2.11-1.39-3.84-1.78-5.2-.32,1.61-.77,3.2-1.35,4.79l-2.75,7.35Z"/>
    <path class="cls-5" d="M968.02,856.62v-2.67c-1.41,2.05-3.33,3.08-5.76,3.08-1.07,0-2.07-.21-3-.62-.93-.41-1.62-.93-2.07-1.55-.45-.62-.77-1.38-.95-2.28-.13-.6-.19-1.56-.19-2.87v-11.25h3.08v10.07c0,1.61.06,2.69.19,3.25.19.81.6,1.44,1.23,1.91.63.46,1.4.69,2.32.69s1.79-.24,2.6-.71c.81-.47,1.38-1.12,1.72-1.93.34-.81.5-2,.5-3.55v-9.72h3.08v18.15h-2.75Z"/>
    <path class="cls-5" d="M982.3,853.87l.44,2.72c-.87.18-1.64.27-2.32.27-1.12,0-1.98-.18-2.6-.53-.62-.35-1.05-.82-1.3-1.39-.25-.58-.38-1.79-.38-3.63v-10.44h-2.26v-2.39h2.26v-4.5l3.06-1.85v6.34h3.09v2.39h-3.09v10.61c0,.88.05,1.44.16,1.69.11.25.28.45.53.6.25.15.6.22,1.05.22.34,0,.79-.04,1.35-.12Z"/>
    <path class="cls-5" d="M985.31,856.62v-25.05h3.08v8.99c1.44-1.66,3.25-2.5,5.44-2.5,1.34,0,2.51.26,3.5.79.99.53,1.7,1.26,2.13,2.2.43.93.64,2.29.64,4.07v11.5h-3.08v-11.5c0-1.54-.33-2.66-1-3.36-.67-.7-1.61-1.05-2.83-1.05-.91,0-1.77.24-2.57.71-.8.47-1.38,1.11-1.72,1.92-.34.81-.51,1.93-.51,3.35v9.93h-3.08Z"/>
    <path class="cls-5" d="M1003.63,847.55c0-3.36.93-5.85,2.8-7.47,1.56-1.34,3.46-2.02,5.71-2.02,2.5,0,4.53.82,6.12,2.45,1.58,1.64,2.38,3.89,2.38,6.78,0,2.34-.35,4.17-1.05,5.51-.7,1.34-1.72,2.38-3.06,3.12-1.34.74-2.8,1.11-4.38,1.11-2.54,0-4.59-.81-6.16-2.44-1.57-1.63-2.35-3.98-2.35-7.04ZM1006.79,847.55c0,2.32.51,4.06,1.52,5.22,1.01,1.16,2.29,1.73,3.83,1.73s2.8-.58,3.81-1.74c1.01-1.16,1.52-2.93,1.52-5.32,0-2.24-.51-3.94-1.53-5.1-1.02-1.16-2.29-1.74-3.8-1.74s-2.81.58-3.83,1.73c-1.01,1.15-1.52,2.89-1.52,5.21Z"/>
    <path class="cls-5" d="M1024.21,856.62v-18.15h2.77v2.75c.71-1.29,1.36-2.14,1.96-2.55.6-.41,1.26-.62,1.97-.62,1.04,0,2.09.33,3.16.99l-1.06,2.85c-.75-.44-1.5-.67-2.26-.67-.67,0-1.28.2-1.81.61-.54.41-.92.97-1.15,1.68-.34,1.09-.51,2.29-.51,3.59v9.5h-3.08Z"/>
    <path class="cls-5" d="M1035.91,835.1v-3.54h3.08v3.54h-3.08ZM1035.91,856.62v-18.15h3.08v18.15h-3.08Z"/>
    <path class="cls-5" d="M1042.44,851.2l3.04-.48c.17,1.22.65,2.15,1.43,2.8.78.65,1.87.97,3.27.97s2.46-.29,3.14-.86c.68-.58,1.03-1.25,1.03-2.03,0-.69-.3-1.24-.91-1.64-.42-.27-1.47-.62-3.14-1.04-2.26-.57-3.82-1.06-4.69-1.48-.87-.42-1.53-.99-1.98-1.73-.45-.74-.67-1.55-.67-2.44,0-.81.18-1.56.55-2.25s.87-1.26,1.51-1.72c.48-.35,1.13-.65,1.96-.9.83-.24,1.71-.37,2.66-.37,1.42,0,2.67.21,3.75.62,1.08.41,1.87.97,2.38,1.67.51.7.87,1.64,1.06,2.81l-3.01.41c-.14-.93-.53-1.66-1.19-2.19-.66-.52-1.58-.79-2.78-.79-1.41,0-2.42.23-3.03.7-.6.47-.91,1.01-.91,1.64,0,.4.13.76.38,1.08.25.33.64.6,1.18.82.31.11,1.21.38,2.72.79,2.18.58,3.69,1.06,4.55,1.43.86.37,1.54.91,2.03,1.62.49.71.74,1.58.74,2.63s-.3,1.99-.9,2.9c-.6.91-1.46,1.61-2.59,2.1-1.13.5-2.4.74-3.83.74-2.36,0-4.16-.49-5.39-1.47-1.24-.98-2.03-2.43-2.37-4.36Z"/>
    <path class="cls-5" d="M1073.6,850.78l3.18.39c-.5,1.86-1.43,3.3-2.79,4.32-1.36,1.03-3.09,1.54-5.2,1.54-2.66,0-4.76-.82-6.32-2.45-1.55-1.63-2.33-3.93-2.33-6.88s.79-5.42,2.36-7.11c1.57-1.69,3.61-2.53,6.12-2.53s4.41.83,5.95,2.48c1.54,1.65,2.31,3.98,2.31,6.97,0,.18,0,.46-.02.82h-13.54c.11,1.99.68,3.52,1.69,4.58,1.01,1.06,2.28,1.59,3.79,1.59,1.13,0,2.09-.3,2.89-.89.8-.59,1.43-1.54,1.9-2.84ZM1063.5,845.8h10.13c-.14-1.53-.52-2.67-1.16-3.43-.98-1.18-2.25-1.78-3.81-1.78-1.41,0-2.6.47-3.56,1.42-.96.95-1.5,2.21-1.6,3.79Z"/>
    <path class="cls-5" d="M1092.41,856.62v-2.29c-1.15,1.8-2.84,2.7-5.08,2.7-1.45,0-2.78-.4-3.99-1.2-1.21-.8-2.15-1.91-2.82-3.34-.67-1.43-1-3.07-1-4.93s.3-3.46.91-4.93c.6-1.47,1.51-2.61,2.72-3.39,1.21-.79,2.56-1.18,4.05-1.18,1.09,0,2.07.23,2.92.69.85.46,1.55,1.06,2.08,1.8v-8.99h3.06v25.05h-2.85ZM1082.69,847.56c0,2.32.49,4.06,1.47,5.21.98,1.15,2.14,1.73,3.47,1.73s2.49-.55,3.43-1.65c.94-1.1,1.41-2.78,1.41-5.03,0-2.48-.48-4.31-1.44-5.47s-2.14-1.74-3.54-1.74-2.51.56-3.43,1.68c-.92,1.12-1.38,2.88-1.38,5.28Z"/>
    <path class="cls-5" d="M1115.96,856.62v-22.1h-8.25v-2.96h19.86v2.96h-8.29v22.1h-3.32Z"/>
    <path class="cls-5" d="M1129.24,856.62v-18.15h2.77v2.75c.71-1.29,1.36-2.14,1.96-2.55.6-.41,1.26-.62,1.97-.62,1.04,0,2.09.33,3.16.99l-1.06,2.85c-.75-.44-1.5-.67-2.26-.67-.67,0-1.28.2-1.81.61-.54.41-.92.97-1.15,1.68-.34,1.09-.51,2.29-.51,3.59v9.5h-3.08Z"/>
    <path class="cls-5" d="M1152.77,854.38c-1.14.97-2.24,1.65-3.29,2.05-1.05.4-2.18.6-3.39.6-1.99,0-3.53-.49-4.6-1.46-1.07-.97-1.61-2.22-1.61-3.73,0-.89.2-1.7.61-2.44.4-.73.93-1.32,1.59-1.77.65-.44,1.39-.78,2.21-1.01.6-.16,1.51-.31,2.73-.46,2.48-.3,4.31-.65,5.49-1.06.01-.42.02-.69.02-.8,0-1.25-.29-2.14-.87-2.65-.79-.69-1.95-1.04-3.5-1.04-1.45,0-2.52.25-3.2.76-.69.51-1.2,1.4-1.53,2.69l-3.01-.41c.27-1.29.72-2.33,1.35-3.12.63-.79,1.53-1.4,2.72-1.83,1.19-.43,2.56-.64,4.12-.64s2.81.18,3.78.55c.97.37,1.68.82,2.14,1.38.46.55.77,1.25.96,2.09.1.52.15,1.47.15,2.84v4.1c0,2.86.07,4.67.2,5.43.13.76.39,1.48.78,2.18h-3.21c-.32-.64-.52-1.38-.62-2.24ZM1152.52,847.51c-1.12.46-2.79.84-5.03,1.16-1.26.18-2.16.39-2.68.62-.52.23-.93.56-1.21,1-.28.44-.43.93-.43,1.46,0,.82.31,1.5.93,2.05.62.55,1.53.82,2.73.82s2.24-.26,3.16-.78c.92-.52,1.6-1.23,2.03-2.13.33-.7.5-1.72.5-3.08v-1.13Z"/>
    <path class="cls-5" d="M1160.4,856.62v-18.15h2.77v2.58c1.33-1.99,3.26-2.99,5.78-2.99,1.09,0,2.1.2,3.02.59.92.39,1.6.91,2.06,1.55.46.64.77,1.4.96,2.27.11.57.17,1.57.17,2.99v11.16h-3.08v-11.04c0-1.25-.12-2.19-.36-2.81-.24-.62-.66-1.12-1.27-1.49-.61-.37-1.32-.56-2.14-.56-1.31,0-2.44.42-3.39,1.25-.95.83-1.43,2.41-1.43,4.73v9.91h-3.08Z"/>
    <path class="cls-5" d="M1178.63,851.2l3.04-.48c.17,1.22.65,2.15,1.43,2.8.78.65,1.87.97,3.27.97s2.46-.29,3.14-.86c.68-.58,1.03-1.25,1.03-2.03,0-.69-.3-1.24-.91-1.64-.42-.27-1.47-.62-3.14-1.04-2.26-.57-3.82-1.06-4.69-1.48-.87-.42-1.53-.99-1.98-1.73-.45-.74-.67-1.55-.67-2.44,0-.81.18-1.56.55-2.25s.87-1.26,1.51-1.72c.48-.35,1.13-.65,1.96-.9.83-.24,1.71-.37,2.66-.37,1.42,0,2.67.21,3.75.62,1.08.41,1.87.97,2.38,1.67.51.7.87,1.64,1.06,2.81l-3.01.41c-.14-.93-.53-1.66-1.19-2.19-.66-.52-1.58-.79-2.78-.79-1.41,0-2.42.23-3.03.7-.6.47-.91,1.01-.91,1.64,0,.4.13.76.38,1.08.25.33.64.6,1.18.82.31.11,1.21.38,2.72.79,2.18.58,3.69,1.06,4.55,1.43.86.37,1.54.91,2.03,1.62.49.71.74,1.58.74,2.63s-.3,1.99-.9,2.9c-.6.91-1.46,1.61-2.59,2.1-1.13.5-2.4.74-3.83.74-2.36,0-4.16-.49-5.39-1.47-1.24-.98-2.03-2.43-2.37-4.36Z"/>
    <path class="cls-5" d="M1209.21,854.38c-1.14.97-2.24,1.65-3.29,2.05-1.05.4-2.18.6-3.39.6-1.99,0-3.53-.49-4.6-1.46-1.07-.97-1.61-2.22-1.61-3.73,0-.89.2-1.7.61-2.44.4-.73.93-1.32,1.59-1.77.65-.44,1.39-.78,2.21-1.01.6-.16,1.51-.31,2.73-.46,2.48-.3,4.31-.65,5.49-1.06.01-.42.02-.69.02-.8,0-1.25-.29-2.14-.87-2.65-.79-.69-1.95-1.04-3.5-1.04-1.45,0-2.52.25-3.2.76-.69.51-1.2,1.4-1.53,2.69l-3.01-.41c.27-1.29.72-2.33,1.35-3.12.63-.79,1.53-1.4,2.72-1.83,1.19-.43,2.56-.64,4.12-.64s2.81.18,3.78.55c.97.37,1.68.82,2.14,1.38.46.55.77,1.25.96,2.09.1.52.15,1.47.15,2.84v4.1c0,2.86.07,4.67.2,5.43.13.76.39,1.48.78,2.18h-3.21c-.32-.64-.52-1.38-.62-2.24ZM1208.95,847.51c-1.12.46-2.79.84-5.03,1.16-1.26.18-2.16.39-2.68.62-.52.23-.93.56-1.21,1-.28.44-.43.93-.43,1.46,0,.82.31,1.5.93,2.05.62.55,1.53.82,2.73.82s2.24-.26,3.16-.78c.92-.52,1.6-1.23,2.03-2.13.33-.7.5-1.72.5-3.08v-1.13Z"/>
    <path class="cls-5" d="M1228.67,849.97l3.03.39c-.33,2.08-1.18,3.72-2.54,4.9-1.36,1.18-3.03,1.77-5.02,1.77-2.48,0-4.48-.81-5.99-2.44-1.51-1.62-2.26-3.95-2.26-6.98,0-1.96.32-3.67.97-5.14.65-1.47,1.64-2.57,2.96-3.31,1.33-.74,2.77-1.1,4.33-1.1,1.97,0,3.58.5,4.84,1.5,1.25,1,2.06,2.41,2.41,4.25l-2.99.46c-.29-1.22-.79-2.14-1.51-2.75-.72-.62-1.6-.92-2.62-.92-1.55,0-2.81.56-3.78,1.67-.97,1.11-1.45,2.87-1.45,5.27s.47,4.21,1.4,5.31c.93,1.11,2.15,1.66,3.66,1.66,1.21,0,2.21-.37,3.02-1.11.81-.74,1.32-1.88,1.54-3.42Z"/>
    <path class="cls-5" d="M1241.04,853.87l.44,2.72c-.87.18-1.64.27-2.32.27-1.12,0-1.98-.18-2.6-.53-.62-.35-1.05-.82-1.3-1.39-.25-.58-.38-1.79-.38-3.63v-10.44h-2.26v-2.39h2.26v-4.5l3.06-1.85v6.34h3.09v2.39h-3.09v10.61c0,.88.05,1.44.16,1.69.11.25.28.45.53.6.25.15.6.22,1.05.22.34,0,.79-.04,1.35-.12Z"/>
    <path class="cls-5" d="M1244.07,835.1v-3.54h3.08v3.54h-3.08ZM1244.07,856.62v-18.15h3.08v18.15h-3.08Z"/>
    <path class="cls-5" d="M1250.68,847.55c0-3.36.93-5.85,2.8-7.47,1.56-1.34,3.46-2.02,5.71-2.02,2.5,0,4.53.82,6.12,2.45,1.58,1.64,2.38,3.89,2.38,6.78,0,2.34-.35,4.17-1.05,5.51-.7,1.34-1.72,2.38-3.06,3.12-1.34.74-2.8,1.11-4.38,1.11-2.54,0-4.59-.81-6.16-2.44-1.57-1.63-2.35-3.98-2.35-7.04ZM1253.84,847.55c0,2.32.51,4.06,1.52,5.22,1.01,1.16,2.29,1.73,3.83,1.73s2.8-.58,3.81-1.74c1.01-1.16,1.52-2.93,1.52-5.32,0-2.24-.51-3.94-1.53-5.1-1.02-1.16-2.29-1.74-3.8-1.74s-2.81.58-3.83,1.73c-1.01,1.15-1.52,2.89-1.52,5.21Z"/>
    <path class="cls-5" d="M1271.29,856.62v-18.15h2.77v2.58c1.33-1.99,3.26-2.99,5.78-2.99,1.09,0,2.1.2,3.02.59.92.39,1.6.91,2.06,1.55.46.64.77,1.4.96,2.27.11.57.17,1.57.17,2.99v11.16h-3.08v-11.04c0-1.25-.12-2.19-.36-2.81-.24-.62-.66-1.12-1.27-1.49-.61-.37-1.32-.56-2.14-.56-1.31,0-2.44.42-3.39,1.25-.95.83-1.43,2.41-1.43,4.73v9.91h-3.08Z"/>
  </g>
  <g>
    <path d="M541.2,344.62v-26.49h8l4.81,18.07,4.75-18.07h8.02v26.49h-4.97v-20.85l-5.26,20.85h-5.15l-5.24-20.85v20.85h-4.97Z"/>
    <path d="M572.1,344.62v-26.49h19.64v4.48h-14.29v5.87h13.3v4.46h-13.3v7.21h14.8v4.46h-20.14Z"/>
    <path d="M596.79,344.62v-26.49h11.25c2.83,0,4.89.24,6.17.71,1.28.48,2.31,1.32,3.08,2.54.77,1.22,1.16,2.61,1.16,4.17,0,1.99-.58,3.63-1.75,4.92s-2.92,2.11-5.24,2.45c1.16.67,2.11,1.42,2.86,2.22s1.77,2.24,3.04,4.3l3.23,5.17h-6.4l-3.87-5.76c-1.37-2.06-2.31-3.36-2.82-3.89s-1.04-.9-1.61-1.1c-.57-.2-1.46-.3-2.69-.3h-1.08v11.06h-5.35ZM602.14,329.34h3.96c2.57,0,4.17-.11,4.81-.33.64-.22,1.14-.59,1.5-1.12s.54-1.19.54-1.99c0-.89-.24-1.61-.71-2.16-.48-.55-1.15-.89-2.01-1.04-.43-.06-1.73-.09-3.9-.09h-4.17v6.72Z"/>
    <path d="M640.44,334.88l5.18,1.64c-.79,2.89-2.12,5.04-3.97,6.44-1.85,1.4-4.19,2.1-7.04,2.1-3.52,0-6.41-1.2-8.67-3.6-2.26-2.4-3.4-5.69-3.4-9.86,0-4.41,1.14-7.83,3.42-10.27,2.28-2.44,5.27-3.66,8.98-3.66,3.24,0,5.87.96,7.89,2.87,1.2,1.13,2.11,2.76,2.71,4.88l-5.29,1.26c-.31-1.37-.97-2.46-1.96-3.25-.99-.79-2.2-1.19-3.62-1.19-1.96,0-3.56.7-4.78,2.11-1.22,1.41-1.83,3.69-1.83,6.85,0,3.35.6,5.73,1.81,7.15s2.77,2.13,4.7,2.13c1.42,0,2.64-.45,3.67-1.36,1.02-.9,1.76-2.32,2.21-4.26Z"/>
    <path d="M650.23,344.62v-26.49h5.35v10.42h10.48v-10.42h5.35v26.49h-5.35v-11.58h-10.48v11.58h-5.35Z"/>
    <path d="M700.82,344.62h-5.82l-2.31-6.02h-10.59l-2.19,6.02h-5.67l10.32-26.49h5.65l10.61,26.49ZM690.97,334.14l-3.65-9.83-3.58,9.83h7.23Z"/>
    <path d="M703.71,344.62v-26.49h5.2l10.84,17.69v-17.69h4.97v26.49h-5.37l-10.68-17.27v17.27h-4.97Z"/>
    <path d="M736.34,344.62v-22h-7.86v-4.48h21.05v4.48h-7.84v22h-5.35Z"/>
    <path d="M751.62,336l5.2-.51c.31,1.75.95,3.03,1.91,3.85.96.82,2.25,1.23,3.88,1.23,1.72,0,3.02-.36,3.89-1.09.87-.73,1.31-1.58,1.31-2.56,0-.63-.18-1.16-.55-1.6-.37-.44-1.01-.82-1.92-1.15-.63-.22-2.05-.6-4.28-1.16-2.87-.71-4.88-1.58-6.03-2.62-1.63-1.46-2.44-3.23-2.44-5.33,0-1.35.38-2.61,1.15-3.79.76-1.17,1.87-2.07,3.31-2.68,1.44-.61,3.18-.92,5.21-.92,3.32,0,5.83.73,7.51,2.19,1.68,1.46,2.56,3.4,2.65,5.83l-5.35.24c-.23-1.36-.72-2.34-1.47-2.94-.75-.6-1.88-.89-3.39-.89s-2.77.32-3.65.96c-.57.41-.85.96-.85,1.64,0,.63.26,1.16.79,1.61.67.57,2.31,1.16,4.91,1.77,2.6.62,4.53,1.25,5.77,1.91,1.25.66,2.22,1.55,2.93,2.69.7,1.14,1.06,2.54,1.06,4.22,0,1.52-.42,2.94-1.26,4.26-.84,1.33-2.04,2.31-3.58,2.95-1.54.64-3.46.97-5.76.97-3.35,0-5.92-.77-7.71-2.32s-2.87-3.8-3.22-6.77Z"/>
    <path class="cls-5" d="M564.95,386.62l-6.65-25.05h3.4l3.81,16.42c.41,1.72.76,3.43,1.06,5.13.64-2.68,1.01-4.22,1.13-4.63l4.77-16.92h4l3.59,12.68c.9,3.14,1.55,6.1,1.95,8.87.32-1.58.73-3.4,1.25-5.45l3.93-16.1h3.33l-6.87,25.05h-3.2l-5.28-19.09c-.44-1.59-.71-2.57-.79-2.94-.26,1.15-.51,2.13-.74,2.94l-5.31,19.09h-3.38Z"/>
    <path class="cls-5" d="M605.01,380.78l3.18.39c-.5,1.86-1.43,3.3-2.79,4.32-1.36,1.03-3.09,1.54-5.2,1.54-2.66,0-4.76-.82-6.32-2.45-1.55-1.63-2.33-3.93-2.33-6.88s.79-5.42,2.36-7.11c1.57-1.69,3.61-2.53,6.12-2.53s4.41.83,5.95,2.48c1.54,1.65,2.31,3.98,2.31,6.97,0,.18,0,.46-.02.82h-13.54c.11,1.99.68,3.52,1.69,4.58,1.01,1.06,2.28,1.59,3.79,1.59,1.13,0,2.09-.3,2.89-.89.8-.59,1.43-1.54,1.9-2.84ZM594.91,375.8h10.13c-.14-1.53-.52-2.67-1.16-3.43-.98-1.18-2.25-1.78-3.81-1.78-1.41,0-2.6.47-3.56,1.42-.96.95-1.5,2.21-1.6,3.79Z"/>
    <path class="cls-5" d="M614.89,386.62h-2.85v-25.05h3.08v8.94c1.3-1.63,2.96-2.44,4.97-2.44,1.12,0,2.17.23,3.17.67,1,.45,1.82,1.08,2.46,1.9.64.81,1.15,1.8,1.51,2.95.37,1.15.55,2.38.55,3.69,0,3.11-.77,5.51-2.31,7.21-1.54,1.7-3.38,2.55-5.54,2.55s-3.82-.89-5.04-2.68v2.27ZM614.85,377.41c0,2.18.3,3.75.89,4.72.97,1.58,2.28,2.38,3.93,2.38,1.34,0,2.51-.58,3.49-1.75.98-1.17,1.47-2.91,1.47-5.22s-.47-4.12-1.41-5.25c-.94-1.13-2.08-1.69-3.41-1.69s-2.51.58-3.49,1.75c-.98,1.17-1.47,2.86-1.47,5.07Z"/>
    <path class="cls-5" d="M630.28,381.2l3.04-.48c.17,1.22.65,2.15,1.43,2.8.78.65,1.87.97,3.27.97s2.46-.29,3.14-.86c.68-.58,1.03-1.25,1.03-2.03,0-.69-.3-1.24-.91-1.64-.42-.27-1.47-.62-3.14-1.04-2.26-.57-3.82-1.06-4.69-1.48-.87-.42-1.53-.99-1.98-1.73-.45-.74-.67-1.55-.67-2.44,0-.81.18-1.56.55-2.25s.87-1.26,1.51-1.72c.48-.35,1.13-.65,1.96-.9.83-.24,1.71-.37,2.66-.37,1.42,0,2.67.21,3.75.62,1.08.41,1.87.97,2.38,1.67.51.7.87,1.64,1.06,2.81l-3.01.41c-.14-.93-.53-1.66-1.19-2.19-.66-.52-1.58-.79-2.78-.79-1.41,0-2.42.23-3.03.7-.6.47-.91,1.01-.91,1.64,0,.4.13.76.38,1.08.25.33.64.6,1.18.82.31.11,1.21.38,2.72.79,2.18.58,3.69,1.06,4.55,1.43.86.37,1.54.91,2.03,1.62.49.71.74,1.58.74,2.63s-.3,1.99-.9,2.9c-.6.91-1.46,1.61-2.59,2.1-1.13.5-2.4.74-3.83.74-2.36,0-4.16-.49-5.39-1.47-1.24-.98-2.03-2.43-2.37-4.36Z"/>
    <path class="cls-5" d="M649.03,365.1v-3.54h3.08v3.54h-3.08ZM649.03,386.62v-18.15h3.08v18.15h-3.08Z"/>
    <path class="cls-5" d="M663.51,383.87l.44,2.72c-.87.18-1.64.27-2.32.27-1.12,0-1.98-.18-2.6-.53-.62-.35-1.05-.82-1.3-1.39-.25-.58-.38-1.79-.38-3.63v-10.44h-2.26v-2.39h2.26v-4.5l3.06-1.85v6.34h3.09v2.39h-3.09v10.61c0,.88.05,1.44.16,1.69.11.25.28.45.53.6.25.15.6.22,1.05.22.34,0,.79-.04,1.35-.12Z"/>
    <path class="cls-5" d="M678.94,380.78l3.18.39c-.5,1.86-1.43,3.3-2.79,4.32-1.36,1.03-3.09,1.54-5.2,1.54-2.66,0-4.76-.82-6.32-2.45-1.55-1.63-2.33-3.93-2.33-6.88s.79-5.42,2.36-7.11c1.57-1.69,3.61-2.53,6.12-2.53s4.41.83,5.95,2.48c1.54,1.65,2.31,3.98,2.31,6.97,0,.18,0,.46-.02.82h-13.54c.11,1.99.68,3.52,1.69,4.58,1.01,1.06,2.28,1.59,3.79,1.59,1.13,0,2.09-.3,2.89-.89.8-.59,1.43-1.54,1.9-2.84ZM668.84,375.8h10.13c-.14-1.53-.52-2.67-1.16-3.43-.98-1.18-2.25-1.78-3.81-1.78-1.41,0-2.6.47-3.56,1.42-.96.95-1.5,2.21-1.6,3.79Z"/>
    <path class="cls-5" d="M683.67,387.05l7.26-25.91h2.46l-7.25,25.91h-2.48Z"/>
    <path class="cls-5" d="M693.35,386.62l9.62-25.05h3.57l10.25,25.05h-3.78l-2.92-7.59h-10.48l-2.75,7.59h-3.52ZM700.58,376.33h8.49l-2.62-6.94c-.8-2.11-1.39-3.84-1.78-5.2-.32,1.61-.77,3.2-1.35,4.79l-2.75,7.35Z"/>
    <path class="cls-5" d="M719.05,393.58v-25.1h2.8v2.36c.66-.92,1.41-1.62,2.24-2.08.83-.46,1.84-.69,3.02-.69,1.55,0,2.92.4,4.1,1.2,1.19.8,2.08,1.92,2.68,3.38.6,1.45.91,3.04.91,4.78,0,1.86-.33,3.53-1,5.02-.67,1.49-1.64,2.63-2.91,3.42-1.27.79-2.61,1.19-4.01,1.19-1.03,0-1.95-.22-2.76-.65-.82-.43-1.48-.98-2.01-1.64v8.83h-3.08ZM721.83,377.65c0,2.34.47,4.06,1.42,5.18.95,1.12,2.09,1.67,3.43,1.67s2.54-.58,3.51-1.73c.97-1.16,1.46-2.95,1.46-5.38s-.48-4.04-1.43-5.2c-.95-1.15-2.09-1.73-3.41-1.73s-2.47.61-3.48,1.84c-1.01,1.22-1.51,3-1.51,5.34Z"/>
    <path class="cls-5" d="M738.51,393.58v-25.1h2.8v2.36c.66-.92,1.41-1.62,2.24-2.08.83-.46,1.84-.69,3.02-.69,1.55,0,2.92.4,4.1,1.2,1.19.8,2.08,1.92,2.68,3.38.6,1.45.91,3.04.91,4.78,0,1.86-.33,3.53-1,5.02-.67,1.49-1.64,2.63-2.91,3.42-1.27.79-2.61,1.19-4.01,1.19-1.03,0-1.95-.22-2.76-.65-.82-.43-1.48-.98-2.01-1.64v8.83h-3.08ZM741.3,377.65c0,2.34.47,4.06,1.42,5.18.95,1.12,2.09,1.67,3.43,1.67s2.54-.58,3.51-1.73c.97-1.16,1.46-2.95,1.46-5.38s-.48-4.04-1.43-5.2c-.95-1.15-2.09-1.73-3.41-1.73s-2.47.61-3.48,1.84c-1.01,1.22-1.51,3-1.51,5.34Z"/>
  </g>
  <g>
    <path class="cls-10" d="M726.74,151.64c0,7.17-6.4,12.98-14.28,12.98s-14.28-5.81-14.28-12.98c0,7.17-6.4,12.98-14.28,12.98s-14.28-5.81-14.28-12.98c0,7.17-6.4,12.98-14.28,12.98s-14.28-5.81-14.28-12.98c0,7.17-6.4,12.98-14.28,12.98s-14.28-5.81-14.28-12.98c0,7.17-6.4,12.98-14.28,12.98s-14.28-5.81-14.28-12.98"/>
    <path class="cls-9" d="M583.91,151.64l14.89-47.23c.8-2.79,3.34-4.71,6.24-4.71h100.58c2.9,0,5.45,1.92,6.24,4.71l14.89,47.23"/>
    <path class="cls-10" d="M717,164.62v77.91c0,3.59-2.91,6.49-6.49,6.49h-110.37c-3.59,0-6.49-2.91-6.49-6.49v-77.91"/>
    <line class="cls-9" x1="639.09" y1="158.13" x2="639.09" y2="249.03"/>
    <line class="cls-9" x1="626.11" y1="197.09" x2="626.11" y2="203.58"/>
    <line class="cls-9" x1="678.05" y1="184.1" x2="658.57" y2="203.58"/>
    <line class="cls-9" x1="691.03" y1="197.09" x2="665.06" y2="223.06"/>
    <line class="cls-9" x1="698.18" y1="151.64" x2="690.36" y2="99.7"/>
    <line class="cls-9" x1="669.61" y1="151.64" x2="664.79" y2="99.7"/>
    <line class="cls-9" x1="641.04" y1="151.64" x2="645.45" y2="99.7"/>
    <line class="cls-9" x1="612.48" y1="151.64" x2="620.83" y2="99.7"/>
  </g>
  <path class="cls-13" d="M1036.41,616.76h162.58v-7.98l-81.28-39.19-81.3,39.19v7.98h0ZM1034.52,703h11.02v-68.72h-3.21c-1.03,0-1.86-.84-1.86-1.87v-11.89h-5.95c-1.04,0-1.87-.84-1.87-1.88v-11.05h0c0-.69.39-1.36,1.06-1.69l83.18-40.1c.5-.24,1.1-.26,1.64,0l83.04,40.04c.7.28,1.19.96,1.19,1.75v11.05c0,1.04-.85,1.88-1.89,1.88h-5.94v11.89c0,1.03-.84,1.87-1.86,1.87h-3.21v68.72h11.01c1.04,0,1.89.85,1.89,1.89v11.59c0,1.04-.85,1.88-1.89,1.88h-166.35c-1.04,0-1.87-.84-1.87-1.88v-11.59c0-1.03.84-1.89,1.87-1.89h0ZM1083.05,620.52v11.89c0,1.03-.83,1.87-1.86,1.87h-3.21v68.72h23.5v-68.72h-3.2c-1.03,0-1.86-.84-1.86-1.87v-11.89h-13.37ZM1138.99,620.52v11.89c0,1.03-.83,1.87-1.85,1.87h-3.22v68.72h23.51v-68.72h-3.21c-1.02,0-1.85-.84-1.85-1.87v-11.89h-13.38ZM1191.22,620.52h-35.15v10.01h35.15v-10.01h0ZM1135.27,620.52h-35.15v10.01h35.15v-10.01h0ZM1079.34,620.52h-35.16v10.01h35.16v-10.01h0ZM1049.3,703h24.9v-68.72h-24.9v68.72h0ZM1105.25,703h24.91v-68.72h-24.91v68.72h0ZM1161.19,703h24.92v-68.72h-24.92v68.72h0ZM1198.99,706.77h-162.58v7.83h162.58v-7.83Z"/>
  <g>
    <path class="cls-10" d="M245.34,134.13c0,15.69-13.4,28.25-29.38,26.86-14.17-1.23-24.55-14.04-24.55-28.26v-7.99c0-14.22,10.39-27.03,24.55-28.26,15.98-1.39,29.38,11.17,29.38,26.86v10.79Z"/>
    <path class="cls-10" d="M232.56,185.96l-9.02,10.77c-2.69,3.22-7.64,3.22-10.34,0l-9.02-10.77c-3.76-4.48-10.05-6.2-15.41-3.86-24.04,10.47-41.46,33.31-44.19,60.49-.4,4,2.72,7.5,6.74,7.5h134.09c4.02,0,7.14-3.5,6.74-7.5-2.73-27.18-20.15-50.02-44.19-60.49-5.36-2.34-11.65-.62-15.41,3.86Z"/>
  </g>
  <g>
    <line class="cls-7" x1="802.5" y1="204.25" x2="996.72" y2="204.25"/>
    <polygon class="cls-2" points="993.92 213.82 1010.5 204.25 993.92 194.68 993.92 213.82"/>
  </g>
  <g>
    <line class="cls-8" x1="352.5" y1="184.5" x2="491.54" y2="184.5"/>
    <polygon class="cls-2" points="486.87 200.46 514.5 184.5 486.87 168.54 486.87 200.46"/>
  </g>
  <g>
    <rect class="cls-11" x="392.73" y="217.22" width="74.21" height="48.4" rx="1" ry="1"/>
    <rect class="cls-11" x="392.73" y="226.9" width="74.21" height="9.68"/>
    <line class="cls-11" x1="399.18" y1="252.71" x2="412.09" y2="252.71"/>
    <line class="cls-11" x1="421.77" y1="252.71" x2="431.45" y2="252.71"/>
  </g>
  <rect class="cls-1" x="1031.75" y="93.23" width="186.89" height="186.89" rx="19.94" ry="19.94"/>
  <text class="cls-20" transform="translate(975.39 319.48)"><tspan class="cls-16" x="0" y="0">P</tspan><tspan class="cls-17" x="17.78" y="0">A</tspan><tspan x="36.69" y="0">YMENT G</tspan><tspan class="cls-16" x="173.36" y="0">A</tspan><tspan x="192.8" y="0">TE</tspan><tspan class="cls-19" x="231.14" y="0">W</tspan><tspan class="cls-17" x="257.8" y="0">A</tspan><tspan class="cls-18" x="276.71" y="0">Y</tspan></text>
  <g>
    <g>
      <path class="cls-10" d="M1115.84,193.02c-4.68,1.08-9.12,2.95-13.05,5.47"/>
      <path class="cls-10" d="M1147.6,198.49c-3.93-2.53-8.37-4.4-13.05-5.47"/>
      <path class="cls-10" d="M1166.26,224.72c-1.08-4.68-2.95-9.12-5.47-13.05"/>
      <path class="cls-10" d="M1089.61,211.68c-2.53,3.93-4.4,8.37-5.47,13.05"/>
      <path class="cls-10" d="M1146.01,236.77c.16-.86.22-1.77.22-2.69,0-11.67-9.36-21.03-21.03-21.03s-21.03,9.36-21.03,21.03c0,.91.05,1.83.22,2.69"/>
      <polyline class="cls-10" points="1115.84 193.02 1115.84 180.3 1134.55 180.3 1134.55 193.02"/>
      <polyline class="cls-10" points="1147.6 198.49 1156.62 189.42 1169.86 202.65 1160.78 211.68"/>
      <polyline class="cls-10" points="1166.23 224.72 1178.98 224.72 1178.98 236.77"/>
      <polyline class="cls-10" points="1071.42 236.77 1071.42 224.72 1084.16 224.72"/>
      <polyline class="cls-10" points="1089.61 211.68 1080.54 202.65 1093.77 189.42 1102.8 198.49"/>
    </g>
    <path class="cls-10" d="M1063.35,134.59h123.69v101.18c0,.55-.45,1-1,1h-121.69c-.55,0-1-.45-1-1v-101.18h0Z"/>
    <line class="cls-10" x1="1063.35" y1="156.1" x2="1187.04" y2="156.1"/>
    <circle class="cls-14" cx="1079.49" cy="145.34" r="2.69"/>
    <circle class="cls-14" cx="1090.24" cy="145.34" r="2.69"/>
    <circle class="cls-14" cx="1101" cy="145.34" r="2.69"/>
  </g>
  <g>
    <line class="cls-7" x1="1100.31" y1="340" x2="1100.31" y2="501.97"/>
    <polygon class="cls-2" points="1090.73 499.17 1100.31 515.75 1109.88 499.17 1090.73 499.17"/>
  </g>
  <g>
    <line class="cls-7" x1="1150.19" y1="353.78" x2="1150.19" y2="515.75"/>
    <polygon class="cls-2" points="1140.62 356.58 1150.19 340 1159.77 356.58 1140.62 356.58"/>
  </g>
  <g>
    <line class="cls-7" x1="816.28" y1="162.5" x2="1008" y2="162.5"/>
    <polygon class="cls-2" points="819.08 172.07 802.5 162.5 819.08 152.93 819.08 172.07"/>
  </g>
  <rect class="cls-12" x="1452" y="580" width="459" height="127" rx="42.4" ry="42.4"/>
  <g>
    <path class="cls-4" d="M1494.51,638.62v-19.03h-6.8v-3.88h18.2v3.88h-6.78v19.03h-4.62Z"/>
    <path class="cls-4" d="M1508.92,638.62v-22.91h9.73c2.45,0,4.23.21,5.34.62,1.11.41,2,1.14,2.66,2.2.67,1.05,1,2.26,1,3.61,0,1.72-.51,3.14-1.52,4.26-1.01,1.12-2.52,1.83-4.53,2.12,1,.58,1.83,1.22,2.48,1.92.65.7,1.53,1.94,2.63,3.72l2.8,4.47h-5.53l-3.34-4.98c-1.19-1.78-2-2.9-2.44-3.37-.44-.46-.9-.78-1.39-.95-.49-.17-1.27-.26-2.33-.26h-.94v9.56h-4.62ZM1513.54,625.4h3.42c2.22,0,3.6-.09,4.16-.28.55-.19.98-.51,1.3-.97.31-.46.47-1.03.47-1.72,0-.77-.21-1.39-.62-1.87-.41-.47-.99-.77-1.74-.9-.38-.05-1.5-.08-3.38-.08h-3.61v5.81Z"/>
    <path class="cls-4" d="M1552.67,638.62h-5.03l-2-5.2h-9.16l-1.89,5.2h-4.91l8.92-22.91h4.89l9.17,22.91ZM1544.15,629.56l-3.16-8.5-3.09,8.5h6.25Z"/>
    <path class="cls-4" d="M1555.17,638.62v-22.91h4.5l9.38,15.3v-15.3h4.3v22.91h-4.64l-9.23-14.94v14.94h-4.3Z"/>
    <path class="cls-4" d="M1577.06,631.17l4.5-.44c.27,1.51.82,2.62,1.65,3.33.83.71,1.95,1.06,3.35,1.06,1.49,0,2.61-.31,3.37-.95.75-.63,1.13-1.37,1.13-2.21,0-.54-.16-1-.48-1.38-.32-.38-.87-.71-1.66-.99-.54-.19-1.78-.52-3.7-1-2.48-.61-4.22-1.37-5.22-2.27-1.41-1.26-2.11-2.8-2.11-4.61,0-1.17.33-2.26.99-3.27.66-1.02,1.61-1.79,2.86-2.32,1.24-.53,2.75-.8,4.51-.8,2.88,0,5.04.63,6.49,1.89,1.45,1.26,2.22,2.94,2.29,5.05l-4.62.2c-.2-1.18-.62-2.02-1.27-2.54-.65-.52-1.63-.77-2.93-.77s-2.4.28-3.16.83c-.49.35-.73.83-.73,1.42,0,.54.23,1.01.69,1.39.58.49,2,1,4.25,1.53s3.91,1.08,4.99,1.65c1.08.57,1.92,1.34,2.53,2.33s.91,2.2.91,3.65c0,1.31-.37,2.54-1.09,3.69-.73,1.15-1.76,2-3.09,2.55-1.33.56-3,.84-4.98.84-2.9,0-5.12-.67-6.67-2.01-1.55-1.34-2.48-3.29-2.78-5.85Z"/>
    <path class="cls-4" d="M1620.23,638.62h-5.03l-2-5.2h-9.16l-1.89,5.2h-4.91l8.92-22.91h4.89l9.17,22.91ZM1611.72,629.56l-3.16-8.5-3.09,8.5h6.25Z"/>
    <path class="cls-4" d="M1637.34,630.2l4.48,1.42c-.69,2.5-1.83,4.36-3.43,5.57-1.6,1.21-3.63,1.82-6.09,1.82-3.04,0-5.54-1.04-7.5-3.12-1.96-2.08-2.94-4.92-2.94-8.52,0-3.81.98-6.77,2.95-8.88s4.56-3.16,7.77-3.16c2.8,0,5.08.83,6.83,2.48,1.04.98,1.82,2.39,2.34,4.22l-4.58,1.09c-.27-1.19-.84-2.12-1.7-2.81s-1.9-1.03-3.13-1.03c-1.7,0-3.08.61-4.13,1.83-1.06,1.22-1.59,3.19-1.59,5.92,0,2.9.52,4.96,1.56,6.19,1.04,1.23,2.4,1.84,4.06,1.84,1.23,0,2.29-.39,3.17-1.17.88-.78,1.52-2.01,1.91-3.69Z"/>
    <path class="cls-4" d="M1650.95,638.62v-19.03h-6.8v-3.88h18.2v3.88h-6.78v19.03h-4.62Z"/>
    <path class="cls-4" d="M1665.2,638.62v-22.91h4.62v22.91h-4.62Z"/>
    <path class="cls-4" d="M1673.29,627.31c0-2.33.35-4.29,1.05-5.88.52-1.17,1.23-2.21,2.13-3.14.9-.93,1.89-1.61,2.96-2.06,1.43-.6,3.07-.91,4.94-.91,3.38,0,6.08,1.05,8.1,3.14,2.03,2.09,3.04,5.01,3.04,8.73s-1.01,6.59-3.02,8.68c-2.01,2.09-4.7,3.13-8.06,3.13s-6.12-1.04-8.12-3.12c-2.01-2.08-3.02-4.94-3.02-8.59ZM1678.06,627.15c0,2.59.6,4.56,1.8,5.9,1.2,1.34,2.72,2.01,4.56,2.01s3.36-.66,4.54-1.99c1.18-1.33,1.77-3.32,1.77-5.98s-.58-4.58-1.73-5.88c-1.15-1.29-2.68-1.94-4.59-1.94s-3.44.65-4.61,1.96c-1.17,1.31-1.75,3.28-1.75,5.91Z"/>
    <path class="cls-4" d="M1699.17,638.62v-22.91h4.5l9.38,15.3v-15.3h4.3v22.91h-4.64l-9.23-14.94v14.94h-4.3Z"/>
    <path class="cls-4" d="M1731.12,638.62v-22.91h16.98v3.88h-12.36v5.08h11.5v3.86h-11.5v6.23h12.8v3.86h-17.42Z"/>
    <path class="cls-4" d="M1752.59,638.62v-22.72h4.62v18.86h11.5v3.86h-16.12Z"/>
    <path class="cls-4" d="M1771.87,638.62v-22.91h4.62v22.91h-4.62Z"/>
    <path class="cls-4" d="M1791.56,630.2v-3.86h9.97v9.12c-.97.94-2.37,1.76-4.21,2.48-1.84.71-3.7,1.07-5.59,1.07-2.4,0-4.48-.5-6.27-1.51-1.78-1-3.12-2.44-4.02-4.31-.9-1.87-1.34-3.9-1.34-6.1,0-2.38.5-4.5,1.5-6.36,1-1.85,2.46-3.28,4.39-4.27,1.47-.76,3.3-1.14,5.48-1.14,2.84,0,5.06.6,6.66,1.79,1.6,1.19,2.63,2.84,3.09,4.95l-4.59.86c-.32-1.12-.93-2.01-1.82-2.66-.89-.65-2-.98-3.34-.98-2.02,0-3.63.64-4.82,1.92-1.19,1.28-1.79,3.18-1.79,5.7,0,2.72.6,4.76,1.81,6.12,1.21,1.36,2.79,2.04,4.75,2.04.97,0,1.94-.19,2.91-.57.97-.38,1.81-.84,2.51-1.38v-2.91h-5.3Z"/>
    <path class="cls-4" d="M1805.65,638.62v-22.91h4.62v22.91h-4.62Z"/>
    <path class="cls-4" d="M1814.7,615.71h9.16c1.81,0,3.16.08,4.05.23.89.15,1.69.47,2.39.95.7.48,1.29,1.12,1.76,1.91s.7,1.69.7,2.68c0,1.07-.29,2.06-.87,2.95-.58.9-1.36,1.57-2.35,2.02,1.4.41,2.47,1.1,3.22,2.08.75.98,1.12,2.13,1.12,3.45,0,1.04-.24,2.05-.73,3.04s-1.15,1.77-1.98,2.36c-.84.59-1.87.95-3.1,1.09-.77.08-2.63.14-5.58.16h-7.8v-22.91ZM1819.33,619.53v5.3h3.03c1.8,0,2.92-.03,3.36-.08.79-.09,1.41-.37,1.87-.82s.68-1.05.68-1.79-.2-1.28-.59-1.73c-.39-.44-.97-.71-1.74-.8-.46-.05-1.78-.08-3.95-.08h-2.66ZM1819.33,628.63v6.12h4.28c1.67,0,2.72-.05,3.17-.14.69-.12,1.25-.43,1.68-.91.43-.48.65-1.13.65-1.95,0-.69-.17-1.27-.5-1.75-.33-.48-.82-.83-1.45-1.05-.63-.22-2-.33-4.1-.33h-3.73Z"/>
    <path class="cls-4" d="M1837.92,638.62v-22.72h4.62v18.86h11.5v3.86h-16.12Z"/>
    <path class="cls-4" d="M1857.34,638.62v-22.91h16.98v3.88h-12.36v5.08h11.5v3.86h-11.5v6.23h12.8v3.86h-17.42Z"/>
    <path class="cls-4" d="M1539.17,677.02v-22.91h15.7v3.88h-11.08v5.42h9.56v3.88h-9.56v9.73h-4.62Z"/>
    <path class="cls-4" d="M1557.75,665.71c0-2.33.35-4.29,1.05-5.88.52-1.17,1.23-2.21,2.13-3.14.9-.93,1.89-1.62,2.96-2.06,1.43-.6,3.07-.91,4.94-.91,3.38,0,6.08,1.05,8.1,3.14,2.03,2.09,3.04,5,3.04,8.73s-1.01,6.59-3.02,8.68c-2.01,2.09-4.7,3.13-8.06,3.13s-6.12-1.04-8.12-3.12c-2.01-2.08-3.02-4.94-3.02-8.59ZM1562.51,665.55c0,2.59.6,4.56,1.8,5.9,1.2,1.34,2.72,2.01,4.56,2.01s3.36-.66,4.54-1.99c1.18-1.33,1.77-3.32,1.77-5.98s-.58-4.58-1.73-5.88c-1.15-1.29-2.68-1.94-4.59-1.94s-3.44.65-4.61,1.96c-1.17,1.31-1.75,3.28-1.75,5.91Z"/>
    <path class="cls-4" d="M1583.59,677.02v-22.91h9.73c2.45,0,4.23.21,5.34.62,1.11.41,2,1.14,2.66,2.2.67,1.05,1,2.25,1,3.61,0,1.72-.51,3.14-1.52,4.26-1.01,1.12-2.52,1.83-4.53,2.12,1,.58,1.83,1.22,2.48,1.92.65.7,1.53,1.94,2.63,3.72l2.8,4.47h-5.53l-3.34-4.98c-1.19-1.78-2-2.9-2.44-3.37-.44-.46-.9-.78-1.39-.95-.49-.17-1.27-.26-2.33-.26h-.94v9.56h-4.62ZM1588.22,663.8h3.42c2.22,0,3.6-.09,4.16-.28.55-.19.98-.51,1.3-.97.31-.46.47-1.03.47-1.72,0-.77-.21-1.39-.62-1.87-.41-.47-.99-.77-1.74-.9-.38-.05-1.5-.08-3.38-.08h-3.61v5.81Z"/>
    <path class="cls-4" d="M1614.4,669.57l4.5-.44c.27,1.51.82,2.62,1.65,3.33.83.71,1.95,1.06,3.35,1.06,1.49,0,2.61-.32,3.37-.95.75-.63,1.13-1.37,1.13-2.21,0-.54-.16-1-.48-1.38-.32-.38-.87-.71-1.66-.99-.54-.19-1.78-.52-3.7-1-2.48-.62-4.22-1.37-5.22-2.27-1.41-1.26-2.11-2.8-2.11-4.61,0-1.17.33-2.26.99-3.27.66-1.02,1.61-1.79,2.86-2.32,1.24-.53,2.75-.8,4.51-.8,2.88,0,5.04.63,6.49,1.89,1.45,1.26,2.22,2.94,2.29,5.05l-4.62.2c-.2-1.18-.62-2.02-1.27-2.54-.65-.52-1.63-.77-2.93-.77s-2.4.28-3.16.83c-.49.35-.73.83-.73,1.42,0,.54.23,1,.69,1.39.58.49,2,1,4.25,1.53s3.91,1.08,4.99,1.65c1.08.57,1.92,1.34,2.53,2.33s.91,2.2.91,3.65c0,1.31-.37,2.54-1.09,3.69-.73,1.15-1.76,2-3.09,2.55-1.33.56-3,.84-4.98.84-2.9,0-5.12-.67-6.67-2.01-1.55-1.34-2.48-3.29-2.78-5.85Z"/>
    <path class="cls-4" d="M1636.92,677.02v-22.91h16.98v3.88h-12.36v5.08h11.5v3.86h-11.5v6.23h12.8v3.86h-17.42Z"/>
    <path class="cls-4" d="M1663.42,677.02v-19.03h-6.8v-3.88h18.2v3.88h-6.78v19.03h-4.62Z"/>
    <path class="cls-4" d="M1682.97,677.02v-19.03h-6.8v-3.88h18.2v3.88h-6.78v19.03h-4.62Z"/>
    <path class="cls-4" d="M1697.48,677.02v-22.72h4.62v18.86h11.5v3.86h-16.12Z"/>
    <path class="cls-4" d="M1716.9,677.02v-22.91h16.98v3.88h-12.36v5.08h11.5v3.86h-11.5v6.23h12.8v3.86h-17.42Z"/>
    <path class="cls-4" d="M1738.19,677.02v-22.91h6.92l4.16,15.62,4.11-15.62h6.94v22.91h-4.3v-18.03l-4.55,18.03h-4.45l-4.53-18.03v18.03h-4.3Z"/>
    <path class="cls-4" d="M1764.9,677.02v-22.91h16.98v3.88h-12.36v5.08h11.5v3.86h-11.5v6.23h12.8v3.86h-17.42Z"/>
    <path class="cls-4" d="M1786.29,677.02v-22.91h4.5l9.38,15.3v-15.3h4.3v22.91h-4.64l-9.23-14.94v14.94h-4.3Z"/>
    <path class="cls-4" d="M1814.51,677.02v-19.03h-6.8v-3.88h18.2v3.88h-6.78v19.03h-4.62Z"/>
  </g>
  <g>
    <line class="cls-7" x1="1244" y1="184.5" x2="1385.72" y2="184.5"/>
    <polygon class="cls-2" points="1382.92 194.07 1399.5 184.5 1382.92 174.93 1382.92 194.07"/>
  </g>
  <line class="cls-7" x1="1715" y1="182.5" x2="1820.5" y2="182.5"/>
  <rect class="cls-7" x="1469.41" y="91.56" width="186.68" height="187.38" transform="translate(588.71 -1050.77) rotate(45)"/>
  <g>
    <line class="cls-7" x1="1563.5" y1="339.5" x2="1563.5" y2="543.22"/>
    <polygon class="cls-2" points="1553.93 540.42 1563.5 557 1573.07 540.42 1553.93 540.42"/>
  </g>
  <g>
    <path class="cls-4" d="M1504.05,171.41l4.2,1.33c-.64,2.34-1.72,4.08-3.21,5.22-1.5,1.14-3.4,1.71-5.71,1.71-2.85,0-5.2-.97-7.03-2.92s-2.75-4.61-2.75-7.99c0-3.57.92-6.35,2.77-8.33s4.27-2.97,7.28-2.97c2.63,0,4.76.78,6.4,2.33.98.92,1.71,2.24,2.2,3.96l-4.29,1.03c-.25-1.11-.79-1.99-1.59-2.64-.81-.64-1.79-.97-2.94-.97-1.59,0-2.88.57-3.88,1.71-.99,1.14-1.49,2.99-1.49,5.55,0,2.71.49,4.65,1.46,5.8s2.25,1.73,3.81,1.73c1.15,0,2.14-.37,2.97-1.1s1.43-1.88,1.79-3.46Z"/>
    <path class="cls-4" d="M1531.34,179.31h-4.72l-1.88-4.88h-8.58l-1.77,4.88h-4.6l8.36-21.47h4.59l8.6,21.47ZM1523.36,170.81l-2.96-7.97-2.9,7.97h5.86Z"/>
    <path class="cls-4" d="M1533.64,179.31v-21.47h6.96c2.64,0,4.36.11,5.16.32,1.23.32,2.26,1.02,3.09,2.1s1.24,2.47,1.24,4.18c0,1.32-.24,2.43-.72,3.33s-1.09,1.6-1.82,2.12c-.74.51-1.49.85-2.25,1.02-1.04.21-2.54.31-4.5.31h-2.83v8.1h-4.34ZM1537.97,161.46v6.09h2.37c1.71,0,2.85-.11,3.43-.34s1.03-.58,1.35-1.05c.33-.48.49-1.04.49-1.67,0-.78-.23-1.43-.69-1.93s-1.04-.83-1.74-.95c-.52-.1-1.56-.15-3.12-.15h-2.09Z"/>
    <path class="cls-4" d="M1558.48,179.31v-17.84h-6.37v-3.63h17.07v3.63h-6.36v17.84h-4.34Z"/>
    <path class="cls-4" d="M1571.94,157.83h4.34v11.63c0,1.85.05,3.04.16,3.59.19.88.63,1.58,1.33,2.12.7.53,1.65.8,2.86.8s2.16-.25,2.78-.75,1-1.12,1.13-1.85.19-1.95.19-3.65v-11.88h4.34v11.28c0,2.58-.12,4.4-.35,5.46s-.67,1.96-1.3,2.7c-.63.73-1.47,1.32-2.53,1.75s-2.43.65-4.13.65c-2.05,0-3.61-.24-4.66-.71-1.06-.47-1.9-1.09-2.51-1.85s-1.02-1.55-1.21-2.38c-.28-1.23-.43-3.05-.43-5.45v-11.46Z"/>
    <path class="cls-4" d="M1593.65,179.31v-21.47h9.13c2.29,0,3.96.19,5,.58,1.04.39,1.87,1.07,2.5,2.06s.94,2.11.94,3.38c0,1.61-.47,2.94-1.42,3.99s-2.36,1.71-4.25,1.98c.94.55,1.71,1.15,2.32,1.8.61.65,1.43,1.82,2.47,3.49l2.62,4.19h-5.19l-3.13-4.67c-1.11-1.67-1.88-2.72-2.29-3.16s-.84-.73-1.3-.89-1.19-.24-2.18-.24h-.88v8.96h-4.34ZM1597.99,166.91h3.21c2.08,0,3.38-.09,3.9-.26s.92-.48,1.21-.91.44-.97.44-1.61c0-.72-.19-1.31-.58-1.75-.39-.44-.93-.73-1.63-.84-.35-.05-1.41-.07-3.16-.07h-3.38v5.45Z"/>
    <path class="cls-4" d="M1615.3,179.31v-21.47h15.92v3.63h-11.59v4.76h10.78v3.62h-10.78v5.84h12v3.62h-16.33Z"/>
    <path class="cls-4" d="M1497.76,215.31v-21.47h6.49l3.9,14.65,3.85-14.65h6.5v21.47h-4.03v-16.9l-4.26,16.9h-4.17l-4.25-16.9v16.9h-4.03Z"/>
    <path class="cls-4" d="M1522.8,215.31v-21.47h15.92v3.63h-11.59v4.76h10.78v3.62h-10.78v5.84h12v3.62h-16.33Z"/>
    <path class="cls-4" d="M1547.65,215.31v-17.84h-6.37v-3.63h17.06v3.63h-6.36v17.84h-4.34Z"/>
    <path class="cls-4" d="M1561.15,215.31v-21.47h4.34v8.45h8.5v-8.45h4.34v21.47h-4.34v-9.39h-8.5v9.39h-4.34Z"/>
    <path class="cls-4" d="M1581.93,204.7c0-2.19.33-4.02.98-5.51.49-1.09,1.15-2.08,2-2.94.84-.87,1.77-1.51,2.78-1.93,1.34-.57,2.88-.85,4.63-.85,3.16,0,5.7.98,7.6,2.94,1.9,1.96,2.85,4.69,2.85,8.19s-.94,6.18-2.83,8.14-4.4,2.94-7.56,2.94-5.73-.97-7.62-2.92-2.83-4.63-2.83-8.05ZM1586.39,204.55c0,2.43.56,4.27,1.68,5.53s2.55,1.88,4.28,1.88,3.15-.62,4.26-1.87c1.11-1.25,1.66-3.11,1.66-5.6s-.54-4.3-1.62-5.51c-1.08-1.21-2.51-1.82-4.3-1.82s-3.23.61-4.32,1.84-1.64,3.07-1.64,5.54Z"/>
    <path class="cls-4" d="M1606.12,193.83h7.93c1.79,0,3.15.14,4.09.41,1.26.37,2.34,1.03,3.24,1.98s1.58,2.11,2.05,3.48.7,3.06.7,5.08c0,1.77-.22,3.29-.66,4.57-.54,1.56-1.3,2.83-2.3,3.79-.75.73-1.77,1.3-3.05,1.71-.96.3-2.24.45-3.84.45h-8.16v-21.47ZM1610.46,197.46v14.22h3.24c1.21,0,2.08-.07,2.62-.21.7-.18,1.29-.47,1.75-.89.46-.42.84-1.11,1.14-2.07s.44-2.27.44-3.93-.15-2.93-.44-3.82-.7-1.58-1.23-2.08-1.2-.83-2.01-1.01c-.61-.14-1.79-.21-3.56-.21h-1.95Z"/>
  </g>
  <g>
    <line class="cls-7" x1="1820.5" y1="182.5" x2="1820.5" y2="540.22"/>
    <polygon class="cls-2" points="1810.93 537.42 1820.5 554 1830.07 537.42 1810.93 537.42"/>
  </g>
  <text class="cls-6" transform="translate(1255.23 165)"><tspan x="0" y="0">Authorised</tspan></text>
  <text class="cls-6" transform="translate(1581.43 368.35)"><tspan x="0" y="0">Auto</tspan></text>
  <text class="cls-6" transform="translate(1716.49 163.35)"><tspan x="0" y="0">Manual</tspan></text>
</svg>