<?xml version="1.0" encoding="UTF-8"?>
<svg id="Layer_1" data-name="Layer 1" xmlns="http://www.w3.org/2000/svg" viewBox="0 0 1997 925">
  <defs>
    <style>
      .cls-1 {
        letter-spacing: -.09em;
      }

      .cls-1, .cls-2, .cls-3, .cls-4, .cls-5, .cls-6, .cls-7, .cls-8, .cls-9, .cls-10, .cls-11, .cls-12 {
        font-family: KozGoPr6N-Regular-83pv-RKSJ-H, 'Kozuka Gothic Pr6N';
      }

      .cls-2 {
        letter-spacing: -.06em;
      }

      .cls-3 {
        letter-spacing: -.13em;
      }

      .cls-4, .cls-5, .cls-13, .cls-14 {
        fill: #009245;
      }

      .cls-4, .cls-14 {
        font-size: 28.68px;
      }

      .cls-5, .cls-6 {
        font-size: 31.52px;
      }

      .cls-15 {
        fill: #ff931e;
      }

      .cls-16 {
        fill: #00a99d;
      }

      .cls-6 {
        fill: #ff1d25;
      }

      .cls-7 {
        letter-spacing: 0em;
      }

      .cls-8 {
        font-size: 30px;
      }

      .cls-17 {
        stroke: #00a99d;
      }

      .cls-17, .cls-18 {
        fill: none;
        stroke-width: 3px;
      }

      .cls-17, .cls-19, .cls-20 {
        stroke-miterlimit: 10;
      }

      .cls-21 {
        font-size: 55px;
      }

      .cls-21, .cls-22 {
        fill: #fff;
      }

      .cls-21, .cls-23 {
        font-family: Arial-BoldMT, Arial;
        font-weight: 700;
      }

      .cls-24 {
        fill-rule: evenodd;
      }

      .cls-24, .cls-19, .cls-20 {
        fill: #f2f2f2;
      }

      .cls-18 {
        stroke: #fff;
        stroke-linecap: round;
        stroke-linejoin: round;
      }

      .cls-25 {
        fill: #29abe2;
      }

      .cls-19 {
        stroke: #ff1d25;
      }

      .cls-19, .cls-20 {
        stroke-width: 4px;
      }

      .cls-9 {
        font-size: 32px;
      }

      .cls-9, .cls-10 {
        fill: #4d4d4d;
      }

      .cls-10 {
        font-size: 26.5px;
      }

      .cls-26 {
        letter-spacing: -.09em;
      }

      .cls-27 {
        letter-spacing: -.1em;
      }

      .cls-28 {
        letter-spacing: -.08em;
      }

      .cls-29 {
        letter-spacing: -.06em;
      }

      .cls-30 {
        letter-spacing: -.17em;
      }

      .cls-31 {
        letter-spacing: -.18em;
      }

      .cls-32 {
        letter-spacing: -.12em;
      }

      .cls-33 {
        letter-spacing: -.12em;
      }

      .cls-34 {
        letter-spacing: -.13em;
      }

      .cls-35 {
        letter-spacing: -.14em;
      }

      .cls-36 {
        letter-spacing: -.15em;
      }

      .cls-37 {
        letter-spacing: -.02em;
      }

      .cls-38 {
        letter-spacing: -.02em;
      }

      .cls-39 {
        letter-spacing: -.05em;
      }

      .cls-40 {
        letter-spacing: -.05em;
      }

      .cls-41 {
        letter-spacing: 0em;
      }

      .cls-42 {
        letter-spacing: 0em;
      }

      .cls-43 {
        letter-spacing: 0em;
      }

      .cls-20 {
        stroke: #009245;
      }

      .cls-11 {
        letter-spacing: -.04em;
      }
    </style>
  </defs>
  <rect class="cls-22" y="1" width="1997" height="925"/>
  <rect class="cls-25" x="143.77" y="532.06" width="224.53" height="224.53" rx="19.94" ry="19.94"/>
  <g>
    <path d="M182.52,788.88c-.07.15-.29.26-.48.33-2,4.74-5.18,8.84-8.77,11.84-.55-.48-1.59-1.15-2.26-1.52,3.4-2.48,6.14-6.07,7.36-9.18h-26.49v-2.52h27.9l.41-.18,2.33,1.22ZM168.09,795.62c-.04.3-.37.56-.85.63-1.07,8.73-4.07,17.06-11.69,21.46-.52-.44-1.48-1.29-2.18-1.7,7.55-4.14,10.25-11.88,11.14-20.79l3.59.41Z"/>
    <path d="M211.64,792.55c-.15.19-.33.37-.55.52-3.88,11.99-9.95,19.69-20.17,24.87-.44-.63-1.15-1.48-1.89-2.04,9.69-4.7,15.69-12.1,18.76-21.91h-13.21c-2.15,3.33-5,6.55-8.29,9.14-.52-.52-1.37-1.22-2.11-1.7,5.03-3.88,9.29-9.55,11.8-16.06l3.52,1c-.15.37-.59.48-1.07.48-.74,1.63-1.52,3.18-2.37,4.66h13.03l.44-.22,2.11,1.26Z"/>
    <path d="M245.05,789.62c-.11.15-.29.3-.48.37-1.44,14.47-6.37,22.24-18.72,27.23-.48-.63-1.22-1.44-1.85-2,11.8-4.81,16.43-11.84,17.65-23.98h-21.13v10.21h-2.55v-12.73h24.53l.41-.3,2.15,1.18Z"/>
    <path d="M279.2,787.88c-.15.19-.37.3-.7.3-.11,0-.22,0-.37-.04-2.85,2.89-6.96,6.25-10.54,8.84.29.11.74.33.89.41-.07.22-.41.44-.81.48v19.87h-2.7v-19.02c-3.92,2.78-9.03,5.77-14.1,8.25-.37-.59-1.04-1.52-1.55-2.04,10.1-4.66,21.16-12.58,27.12-19.13l2.78,2.07Z"/>
    <path d="M314.24,788.88c-.07.15-.3.26-.48.33-2,4.74-5.18,8.84-8.77,11.84-.56-.48-1.59-1.15-2.26-1.52,3.4-2.48,6.14-6.07,7.36-9.18h-26.49v-2.52h27.9l.41-.18,2.33,1.22ZM299.81,795.62c-.04.3-.37.56-.85.63-1.07,8.73-4.07,17.06-11.69,21.46-.52-.44-1.48-1.29-2.18-1.7,7.55-4.14,10.25-11.88,11.14-20.79l3.59.41Z"/>
    <path d="M346.13,797.54c-.07.15-.26.3-.48.37-3.03,11.17-9.21,16.61-20.28,19.68-.33-.67-1.04-1.59-1.55-2.15,10.07-2.52,16.32-7.7,18.65-16.28h-24.5v-2.52h25.61l.37-.22,2.18,1.11ZM342.66,789.62h-21.09v-2.44h21.09v2.44Z"/>
    <path d="M149.14,839.13l1.63.7c-.07.18-.22.33-.37.44-1.48,8.95-4.92,16.02-9.21,19.87-.44-.52-1.37-1.44-1.96-1.78,3.96-3.33,7.03-9.29,8.47-16.84h-7.33v-2.29h8.29l.48-.11ZM157.95,849.79v4.07h8.14v2.15h-8.14v4.11c0,1.7-.41,2.41-1.63,2.81-1.22.41-3.37.44-6.66.44-.15-.7-.56-1.74-.93-2.41,1.33.04,2.63.04,3.63.04h2.18c.7-.04.93-.22.93-.89v-4.11h-7.77v-2.15h7.77v-4.07h-5.59v-2.11h5.59v-3.89h-4.85v-2.11h4.85v-4.44l1.7.11c2.4-1.11,4.85-2.59,6.73-4.07h-19.24v-2.29h21.98l.48-.15,2,1.29c-.11.18-.37.26-.55.33-2.59,2.41-6.73,5.11-10.62,6.81v2.4h5.4v2.11h-5.4v3.89h6v2.11h-6ZM165.57,837.87c.37,2.29.81,4.55,1.37,6.66,1.78-1.78,3.74-4,4.96-5.74l2.33,1.96c-.15.19-.48.22-.78.19-1.44,1.74-3.85,4.18-5.81,5.92,1.55,4.81,3.81,8.77,6.96,11.06-.63.48-1.48,1.44-1.92,2.15-5.14-4.29-7.92-12.36-9.4-21.83l2.29-.37Z"/>
    <path d="M189.99,835.13v2.07h-13.32v-2.07h13.32ZM188.96,850.23v10.88h-8.51v1.74h-2.15v-12.62h10.66ZM188.92,840.17v2.04h-10.58v-2.04h10.58ZM178.34,847.23v-2.04h10.58v2.04h-10.58ZM188.77,830.21v2.04h-10.25v-2.04h10.25ZM186.77,852.34h-6.33v6.66h6.33v-6.66ZM194.47,852.23c-.44,3.22-1.26,6.73-3.26,8.81l-1.89-1.26c1.81-1.81,2.7-5.07,3.07-8.1l2.07.55ZM200.95,832.47c-.3,1.59-.67,3.29-1.22,4.96,1.78.89,3.4,1.81,4.55,2.63l-1.26,1.96c-1.04-.78-2.52-1.67-4.14-2.55-1.33,2.81-3.4,5.37-6.88,7.1-.3-.52-1.04-1.37-1.55-1.78,3.18-1.52,5.14-3.81,6.4-6.36-1.67-.81-3.4-1.55-5-2.11l1.22-1.78c1.48.52,3.04,1.15,4.59,1.85.45-1.29.74-2.63.96-3.92h-6.47v-2.15h15.58l1.07-.04,1.33.15c-.22,1.44-.22,12.47-1.74,14.17-.89,1.07-1.81,1.07-3.55,1.07-.93,0-2.07-.04-3.22-.11-.04-.67-.26-1.59-.67-2.18,1.96.15,2.77.15,4.44.15.44,0,.7-.07.96-.37.63-.74,1-3.44,1.29-10.69h-6.7ZM198.43,859.44c0,.85.15,1,1.22,1h3.63c.96,0,1.15-.48,1.22-4.18.52.37,1.48.74,2.11.93-.22,4.4-.89,5.48-3.11,5.48h-4.14c-2.63,0-3.26-.7-3.26-3.22v-8.88l3.03.22c-.04.22-.26.41-.7.48v8.18ZM203.09,851.93c-1.33-1.59-4.14-3.81-6.59-5.25l1.59-1.44c2.4,1.41,5.29,3.52,6.66,5.11l-1.67,1.59ZM209.42,860.96c-.48-2.52-2.15-6.25-4.11-8.99l2.04-.81c2.04,2.7,3.74,6.37,4.33,8.88l-2.26.92Z"/>
    <path d="M215,839.31c2.41.93,5.4,2.55,6.92,3.81l-1.41,2.07c-1.48-1.26-4.44-2.96-6.85-4l1.33-1.89ZM214.74,861.11c1.92-2.92,4.66-7.96,6.7-12.21l1.89,1.55c-1.85,3.96-4.29,8.62-6.11,11.54.15.19.19.37.19.52s-.04.3-.11.41l-2.55-1.81ZM217,829.21c2.37,1.04,5.29,2.74,6.74,4.07l-1.44,2.04c-1.41-1.37-4.29-3.18-6.7-4.29l1.4-1.81ZM242.09,848.64v-2.41l3.18.22c-.04.26-.22.44-.74.52v16.28h-2.44v-6.88h-12.84c-.7,2.44-2.07,4.92-4.7,6.92-.44-.44-1.37-1.11-1.96-1.44,4.33-3.18,4.92-7.62,4.92-10.95v-4.62l3.11.18c-.04.26-.22.44-.7.52v1.67h12.17ZM242.79,835.24l1.29.41c-.11.22-.37.33-.78.33-1.19,2.11-2.89,3.89-4.92,5.37,2.92,1.33,6.33,2.22,10.18,3-.55.55-1.15,1.48-1.41,2.22-4.18-.92-7.85-2.07-11.03-3.77-3.37,1.89-7.4,3.18-11.69,4.07-.22-.59-.81-1.63-1.22-2.15,3.89-.67,7.59-1.74,10.66-3.33-2.15-1.48-4.04-3.37-5.66-5.77l.89-.37h-4.66v-2.26h10.25v-4.11l3.26.19c-.04.26-.22.44-.74.52v3.4h10.8v2.26h-5.22ZM229.91,850.82c0,.85,0,2.07-.22,3.4h12.39v-3.4h-12.17ZM230.65,835.24c1.55,2.07,3.37,3.63,5.44,4.88,2-1.33,3.66-2.96,4.74-4.88h-10.18Z"/>
    <path d="M281.53,839.57c-.11.41-.52.67-1.07.67-.41,2.55-1,5.25-1.63,7.55,2,.85,4.11,1.81,6.22,2.89l-1.19,2.48c-2-1-3.92-1.96-5.81-2.78-1.78,5.33-4.33,9.21-8.25,11.8-.52-.52-1.44-1.15-2.11-1.55,3.88-2.55,6.29-6.03,7.99-11.32-3.74-1.48-7.14-2.52-9.88-2.74-2.55,9.32-4.85,11.77-9.29,11.77s-5.29-3.55-5.29-5.81c0-5.74,5.96-8.4,12.58-8.44.78-2.96,1.48-6.59,2-10.43-1.74.15-7.66.56-10.47.74-.15.26-.45.44-.78.52l-.33-3c3.18-.11,10.06-.55,12.29-.78.41-.04.55-.22.81-.41l2.29,1.37c-.18.3-.48.44-.92.59-.59,4.11-1.48,8.36-2.29,11.54,2.85.22,6.25,1.22,9.95,2.63.63-2.22,1.19-5.07,1.59-8.07l3.59.78ZM263.21,846.42c-5.33.07-9.58,2.18-9.58,6.11,0,2.07,1,3.48,2.74,3.48,2.7,0,4.48-.92,6.85-9.58Z"/>
    <path d="M306.76,833.06h-3.44v30.19h-2.4v-7.62c-4.44.78-8.84,1.55-11.73,2-.07.3-.29.48-.55.52l-.96-2.85c.96-.11,2.07-.26,3.29-.44v-21.79h-3.22v-2.33h19.02v2.33ZM300.92,838.43v-5.37h-7.59v5.37h7.59ZM300.92,846.16v-5.44h-7.59v5.44h7.59ZM293.33,848.45v6.11c2.37-.33,5-.74,7.59-1.11v-5h-7.59ZM319.35,834.25l1.55.52c-.04.18-.18.37-.29.48-1,7.47-3.07,13.58-5.96,18.35,2.04,3.29,4.59,5.92,7.73,7.66-.59.44-1.41,1.41-1.78,2.04-3-1.81-5.44-4.29-7.44-7.4-2.22,3.11-4.81,5.55-7.7,7.36-.37-.59-1.11-1.52-1.66-2,2.96-1.7,5.66-4.33,7.92-7.77-2.33-4.44-3.96-9.84-5.07-15.91l2.29-.44c.93,5.14,2.29,9.88,4.29,13.88,2.11-3.92,3.74-8.73,4.66-14.25h-12.4v-2.44h13.39l.45-.07Z"/>
    <path d="M339.88,846.94l.55-.07,1.48.3c0,.22-.07.52-.11.78-.7,9.21-1.37,12.84-2.7,14.13-.93,1-2.04,1.18-4.55,1.18-1.33,0-3.11-.07-4.88-.19-.07-.78-.41-1.81-.93-2.55,2.78.26,5.51.3,6.44.3s1.37-.07,1.78-.41c.96-.85,1.59-3.88,2.18-11.14h-9.99c-.15.7-.26,1.33-.41,1.92l-2.48-.41c.78-3,1.63-7.84,2.15-11.51h10.84v-6.48h-13.06v-2.33h15.54v12.21h-2.48v-1.07h-8.7c-.3,1.78-.63,3.63-.93,5.33h10.25ZM352.46,829.21l3.22.22c-.04.26-.22.44-.74.48v33.34h-2.48v-34.04Z"/>
  </g>
  <path class="cls-24" d="M176.36,617.85h162.58v-7.98l-81.28-39.19-81.3,39.19v7.98h0ZM174.47,704.09h11.02v-68.72h-3.21c-1.03,0-1.86-.84-1.86-1.87v-11.89h-5.95c-1.04,0-1.87-.84-1.87-1.88v-11.05h0c0-.69.39-1.36,1.06-1.69l83.18-40.1c.5-.24,1.1-.26,1.64,0l83.04,40.04c.7.28,1.19.96,1.19,1.75v11.05c0,1.04-.85,1.88-1.89,1.88h-5.94v11.89c0,1.03-.84,1.87-1.86,1.87h-3.21v68.72h11.01c1.04,0,1.89.85,1.89,1.89v11.59c0,1.04-.85,1.88-1.89,1.88h-166.35c-1.04,0-1.87-.84-1.87-1.88v-11.59c0-1.03.84-1.89,1.87-1.89h0ZM223,621.61v11.89c0,1.03-.83,1.87-1.86,1.87h-3.21v68.72h23.5v-68.72h-3.2c-1.03,0-1.86-.84-1.86-1.87v-11.89h-13.37ZM278.94,621.61v11.89c0,1.03-.83,1.87-1.85,1.87h-3.22v68.72h23.51v-68.72h-3.21c-1.02,0-1.85-.84-1.85-1.87v-11.89h-13.38ZM331.17,621.61h-35.15v10.01h35.15v-10.01h0ZM275.22,621.61h-35.15v10.01h35.15v-10.01h0ZM219.29,621.61h-35.16v10.01h35.16v-10.01h0ZM189.25,704.09h24.9v-68.72h-24.9v68.72h0ZM245.2,704.09h24.91v-68.72h-24.91v68.72h0ZM301.14,704.09h24.92v-68.72h-24.92v68.72h0ZM338.94,707.86h-162.58v7.83h162.58v-7.83Z"/>
  <rect class="cls-15" x="153.71" y="61.91" width="219.29" height="219.29" rx="19.94" ry="19.94"/>
  <text class="cls-8" transform="translate(148.35 320.57)"><tspan x="0" y="0">決</tspan><tspan class="cls-37" x="30" y="0">済</tspan><tspan class="cls-42" x="59.4" y="0">ゲ</tspan><tspan class="cls-36" x="89.1" y="0">ー</tspan><tspan class="cls-33" x="114.6" y="0">ト</tspan><tspan class="cls-31" x="141" y="0">ウ</tspan><tspan class="cls-27" x="165.6" y="0">ェ</tspan><tspan class="cls-39" x="192.6" y="0">イ</tspan></text>
  <g>
    <g>
      <path class="cls-18" d="M252.38,179.01c-5.49,1.26-10.7,3.46-15.31,6.42"/>
      <path class="cls-18" d="M289.64,185.43c-4.61-2.96-9.82-5.16-15.31-6.42"/>
      <path class="cls-18" d="M311.53,216.21c-1.26-5.49-3.46-10.7-6.42-15.31"/>
      <path class="cls-18" d="M221.59,200.9c-2.96,4.61-5.16,9.82-6.42,15.31"/>
      <path class="cls-18" d="M287.77,230.34c.19-1.01.25-2.08.25-3.16,0-13.69-10.98-24.67-24.67-24.67s-24.67,10.98-24.67,24.67c0,1.07.06,2.15.25,3.16"/>
      <polyline class="cls-18" points="252.38 179.01 252.38 164.08 274.33 164.08 274.33 179.01"/>
      <polyline class="cls-18" points="289.64 185.43 300.23 174.78 315.76 190.31 305.11 200.9"/>
      <polyline class="cls-18" points="311.5 216.2 326.46 216.2 326.46 230.34"/>
      <polyline class="cls-18" points="200.25 230.34 200.25 216.2 215.2 216.2"/>
      <polyline class="cls-18" points="221.59 200.9 210.95 190.31 226.48 174.78 237.07 185.43"/>
    </g>
    <path class="cls-18" d="M190.78,110.44h145.14v118.9c0,.55-.45,1-1,1h-143.14c-.55,0-1-.45-1-1v-118.9h0Z"/>
    <line class="cls-18" x1="190.78" y1="135.68" x2="335.92" y2="135.68"/>
    <circle class="cls-22" cx="209.71" cy="123.06" r="3.16"/>
    <circle class="cls-22" cx="222.34" cy="123.06" r="3.16"/>
    <circle class="cls-22" cx="234.96" cy="123.06" r="3.16"/>
  </g>
  <g>
    <line class="cls-17" x1="240.26" y1="341.09" x2="240.26" y2="503.06"/>
    <polygon class="cls-16" points="230.69 500.26 240.26 516.84 249.83 500.26 230.69 500.26"/>
  </g>
  <g>
    <line class="cls-17" x1="290.14" y1="354.87" x2="290.14" y2="516.84"/>
    <polygon class="cls-16" points="280.57 357.67 290.14 341.09 299.72 357.67 280.57 357.67"/>
  </g>
  <g>
    <line class="cls-17" x1="427.95" y1="173.84" x2="738.77" y2="173.84"/>
    <polygon class="cls-16" points="735.97 183.42 752.55 173.84 735.97 164.27 735.97 183.42"/>
  </g>
  <rect class="cls-17" x="882.6" y="378.95" width="178.46" height="179.13" transform="translate(615.93 -549.96) rotate(45)"/>
  <text class="cls-14" transform="translate(871.81 480.83)"><tspan class="cls-12" x="0" y="0">購入</tspan><tspan class="cls-23" x="57.36" y="0" xml:space="preserve"> / </tspan><tspan class="cls-7" x="81.26" y="0">売上処理</tspan></text>
  <text class="cls-10" transform="translate(526.47 153.14)"><tspan x="0" y="0">売上金額</tspan></text>
  <rect class="cls-20" x="1364.13" y="412.67" width="443.57" height="108.18" rx="27.6" ry="27.6"/>
  <text class="cls-5" transform="translate(1475.29 474.86)"><tspan x="0" y="0">売上金額</tspan><tspan class="cls-43" x="126.07" y="0">に</tspan><tspan x="157.27" y="0">加算</tspan></text>
  <rect class="cls-20" x="1363.13" y="682" width="443.57" height="168" rx="27.6" ry="27.6"/>
  <g>
    <path class="cls-13" d="M1424.49,720.51v10.31c2.46,3.75,6.97,3.75,12.64,3.75,3.4,0,7.41-.09,9.87-.25-.25.5-.63,1.51-.69,2.14-2.17.09-5.64.16-8.76.16-6.49,0-10.81,0-14-3.91-1.54,1.39-3.21,2.81-4.57,3.88.03.28-.06.41-.28.5l-1.23-2.33c1.51-1.01,3.37-2.46,4.98-3.85v-8.39h-4.63v-2.02h6.68ZM1419.79,708.68c2.11,1.36,4.54,3.44,5.64,4.98l-1.67,1.42c-1.04-1.58-3.44-3.72-5.55-5.14l1.58-1.26ZM1430.86,731.48v1.39h-2.08v-21.56h5.2c.47-1.13.92-2.52,1.17-3.53l2.84.57c-.09.22-.28.31-.66.35-.32.72-.72,1.7-1.17,2.62h7.34v8.29h-12.64v3.06h13.93v10.18h-2.08v-1.36h-11.85ZM1441.42,713.13h-10.56v4.63h10.56v-4.63ZM1442.71,724.48h-11.85v5.17h11.85v-5.17Z"/>
    <path class="cls-13" d="M1461.49,714.11l.5-.03,1.1.06c0,.19-.03.5-.03.76-.25,14.53-.5,19.17-1.42,20.49-.69.98-1.32,1.2-3.62,1.2-.63,0-1.32-.03-2.02-.06-.06-.63-.25-1.51-.6-2.11,1.45.13,2.77.13,3.31.13.5,0,.79-.09,1.07-.5.66-.91.98-5.26,1.2-17.84h-5.17c-.28,8.38-1.29,16.2-5.26,21-.35-.47-1.1-1.07-1.64-1.39,3.66-4.29,4.57-11.54,4.82-19.61h-4.32v-2.08h4.38c.03-2.02.03-4.1.03-6.18l2.9.16c-.06.28-.28.47-.79.54,0,1.83-.03,3.66-.06,5.49h5.61ZM1466.06,711.68h10.72v24.53h-2.11v-2.11h-6.56v2.36h-2.05v-24.78ZM1468.11,732.04h6.56v-18.32h-6.56v18.32Z"/>
    <path class="cls-13" d="M1417.71,763.02c0-1.99,1.58-3.53,3.53-3.53s3.53,1.58,3.53,3.53-1.58,3.53-3.53,3.53-3.53-1.61-3.53-3.53Z"/>
    <path class="cls-13" d="M1442.05,758.33v10.31c2.49,3.75,7.28,3.75,12.96,3.75,3.44,0,7.47-.09,9.93-.25-.25.5-.6,1.51-.69,2.14-2.21.09-5.67.16-8.83.16-6.53,0-11.07,0-14.28-3.91-1.48,1.39-3,2.81-4.22,3.88.03.25-.06.38-.28.5l-1.26-2.33c1.39-1.01,3.09-2.43,4.6-3.78v-8.45h-4.16v-2.02h6.24ZM1437.73,746.47c1.99,1.45,4.29,3.59,5.3,5.2l-1.7,1.39c-.95-1.61-3.18-3.85-5.2-5.36l1.61-1.23ZM1451.5,756.31c.91,2.65,2.27,4.98,4.04,6.94,1.77-1.99,3.25-4.38,4.16-7.12h-11.16c-.09,4.29-.79,9.74-3.78,13.62-.35-.41-1.23-1.04-1.73-1.23,3.12-4.04,3.47-9.62,3.47-13.75v-7.41h17.91v2.02h-15.83v4.79h12.17l.38-.09,1.36.54c-.03.16-.16.28-.25.38-1.04,3.91-2.87,7.16-5.2,9.71,2.11,1.83,4.67,3.22,7.63,4.04-.47.41-1.07,1.23-1.39,1.83-3-.95-5.58-2.43-7.69-4.38-2.17,1.96-4.63,3.44-7.25,4.45-.25-.54-.79-1.39-1.23-1.8,2.49-.85,4.92-2.24,7-4.16-1.92-2.18-3.4-4.82-4.44-7.85l1.86-.5Z"/>
    <path class="cls-13" d="M1482.71,763.97v8.07h12.74v1.89h-27.36v-1.89h12.42v-8.07h-11v-1.89h11v-4.41h-6.78v-1.8c-1.7,1.32-3.53,2.55-5.36,3.59-.31-.47-.88-1.23-1.32-1.67,5.52-2.93,10.94-7.98,13.43-12.23l3.09.19c-.06.25-.32.41-.63.47,3.06,4.22,8.73,8.8,13.62,11.16-.5.54-1.04,1.23-1.42,1.86-4.92-2.71-10.56-7.31-13.52-11.47-1.67,2.55-4.48,5.42-7.72,7.98h15.86v1.92h-7.03v4.41h11.25v1.89h-11.25ZM1475.27,771.5c-.41-1.61-1.67-4.1-2.96-5.96l1.73-.66c1.32,1.76,2.65,4.22,3.09,5.83l-1.86.79ZM1491.47,765.83c-.09.19-.35.28-.69.25-.91,1.64-2.43,3.97-3.62,5.49l-1.58-.79c1.17-1.58,2.71-4.16,3.53-5.99l2.37,1.04Z"/>
    <path class="cls-13" d="M1511.13,765.48c-.25-.25-.54-.54-.85-.82v8.29h-7.5v1.51h-1.86v-8.92c-.47.25-.95.47-1.42.69-.25-.44-.79-1.13-1.17-1.51,2.3-.95,4.63-2.49,6.59-4.44-1.07-.82-2.17-1.61-3.18-2.33-.69.69-1.39,1.32-2.08,1.83-.31-.35-.95-.91-1.36-1.23,2.3-1.58,4.54-4.35,5.8-7.28l2.24.73c-.06.19-.28.28-.66.28-.22.47-.47.95-.72,1.42h4.35l.35-.09c.72.38,1.01.5,1.29.63-.06.13-.19.22-.32.31-.72,2.02-1.76,3.85-3.06,5.45,1.92,1.45,3.69,2.87,4.82,4l-1.26,1.48ZM1500.95,750.63v3.09h-1.8v-4.89h5.49v-3.12l2.62.16c-.03.22-.19.38-.6.44v2.52h5.52v4.89h-1.86v-3.09h-9.36ZM1510.22,764.6c-1.07-.98-2.43-2.08-3.85-3.22-1.2,1.23-2.49,2.3-3.88,3.22h7.72ZM1508.39,771.19v-4.85h-5.61v4.85h5.61ZM1503.92,755.3c-.31.47-.66.91-1.01,1.36,1.01.69,2.11,1.45,3.22,2.24.88-1.1,1.64-2.3,2.21-3.59h-4.41ZM1518.64,770.81c-.09.09-.28.19-.57.22-1.26,1.39-3.94,3.03-6.24,3.94-.35-.41-.98-1.04-1.45-1.42,2.36-.88,4.98-2.46,6.21-3.81l2.05,1.07ZM1513.85,752.43h4.29c.25-1.01.54-2.24.69-3.28h-6.24v-1.89h15.38v1.89h-7c-.19.95-.5,2.18-.82,3.28h6.43v16.58h-12.74v-16.58ZM1524.56,757.41v-3.28h-8.76v3.28h8.76ZM1524.56,762.33v-3.31h-8.76v3.31h8.76ZM1524.56,767.31v-3.34h-8.76v3.34h8.76ZM1526.74,775.13c-1.17-1.2-3.53-3-5.42-4.22l1.58-1.04c1.89,1.17,4.32,2.9,5.55,4.1l-1.7,1.17Z"/>
    <path class="cls-13" d="M1417.71,800.85c0-1.99,1.58-3.53,3.53-3.53s3.53,1.58,3.53,3.53-1.58,3.53-3.53,3.53-3.53-1.61-3.53-3.53Z"/>
    <path class="cls-13" d="M1442.05,796.15v10.31c2.49,3.75,7.28,3.75,12.96,3.75,3.44,0,7.47-.09,9.93-.25-.25.5-.6,1.51-.69,2.14-2.21.09-5.67.16-8.83.16-6.53,0-11.07,0-14.28-3.91-1.48,1.39-3,2.81-4.22,3.88.03.25-.06.38-.28.5l-1.26-2.33c1.39-1.01,3.09-2.43,4.6-3.78v-8.45h-4.16v-2.02h6.24ZM1437.73,784.29c1.99,1.45,4.29,3.59,5.3,5.2l-1.7,1.39c-.95-1.61-3.18-3.85-5.2-5.36l1.61-1.23ZM1451.5,794.13c.91,2.65,2.27,4.98,4.04,6.94,1.77-1.99,3.25-4.38,4.16-7.12h-11.16c-.09,4.29-.79,9.74-3.78,13.62-.35-.41-1.23-1.04-1.73-1.23,3.12-4.04,3.47-9.62,3.47-13.75v-7.41h17.91v2.02h-15.83v4.79h12.17l.38-.09,1.36.54c-.03.16-.16.28-.25.38-1.04,3.91-2.87,7.16-5.2,9.71,2.11,1.83,4.67,3.22,7.63,4.04-.47.41-1.07,1.23-1.39,1.83-3-.95-5.58-2.43-7.69-4.38-2.17,1.96-4.63,3.44-7.25,4.45-.25-.54-.79-1.39-1.23-1.8,2.49-.85,4.92-2.24,7-4.16-1.92-2.18-3.4-4.82-4.44-7.85l1.86-.5Z"/>
    <path class="cls-13" d="M1482.71,801.79v8.07h12.74v1.89h-27.36v-1.89h12.42v-8.07h-11v-1.89h11v-4.41h-6.78v-1.8c-1.7,1.32-3.53,2.55-5.36,3.59-.31-.47-.88-1.23-1.32-1.67,5.52-2.93,10.94-7.98,13.43-12.23l3.09.19c-.06.25-.32.41-.63.47,3.06,4.22,8.73,8.8,13.62,11.16-.5.54-1.04,1.23-1.42,1.86-4.92-2.71-10.56-7.31-13.52-11.47-1.67,2.55-4.48,5.42-7.72,7.98h15.86v1.92h-7.03v4.41h11.25v1.89h-11.25ZM1475.27,809.33c-.41-1.61-1.67-4.1-2.96-5.96l1.73-.66c1.32,1.76,2.65,4.22,3.09,5.83l-1.86.79ZM1491.47,803.65c-.09.19-.35.28-.69.25-.91,1.64-2.43,3.97-3.62,5.49l-1.58-.79c1.17-1.58,2.71-4.16,3.53-5.99l2.37,1.04Z"/>
    <path class="cls-13" d="M1527.68,800.75v2.08h-13.33v7.03c0,1.61-.47,2.24-1.61,2.59-1.17.38-3.22.41-6.62.38-.16-.6-.57-1.51-.91-2.11,1.51.06,2.96.06,4.07.06,2.68,0,2.9,0,2.9-.92v-7.03h-13.27v-2.08h13.27v-5.33h-11.16v-2.02h11.16v-5.11c-3.47.41-7.12.73-10.5.91-.06-.54-.31-1.36-.57-1.83,7.63-.5,16.8-1.51,21.47-3.18l1.83,1.8c-.09.06-.19.09-.38.09-.06,0-.16,0-.28-.03-2.27.76-5.36,1.36-8.76,1.86-.06.22-.22.32-.63.38v5.11h11.54v2.02h-11.54v5.33h13.33Z"/>
    <path class="cls-13" d="M1536.95,797.6v-4.13c-1.61,1.96-3.75,3.78-5.8,4.89-.25-.47-.76-1.2-1.17-1.61,2.33-1.01,4.89-3.12,6.4-5.33h-6.21v-1.8h6.78v-6.05l2.58.16c-.03.22-.19.38-.6.41v5.49h6.68v1.8h-6.68v.72c1.29.76,4.67,2.93,5.52,3.56l-1.23,1.54c-.76-.72-2.77-2.3-4.29-3.4v3.75h-1.99ZM1545.74,802.55h-2.84c-.47,1.96-1.2,3.59-2.24,5.01,1.42.76,2.68,1.51,3.66,2.24l-1.42,1.58c-.95-.76-2.21-1.54-3.59-2.3-1.86,1.67-4.38,2.9-7.82,3.75-.16-.57-.6-1.36-1.01-1.8,3-.6,5.26-1.54,6.97-2.93-1.2-.6-2.43-1.17-3.66-1.67l-.63,1.13-1.86-.69c.69-1.17,1.54-2.71,2.36-4.32h-3.56v-1.86h4.51c.5-1.04,1.01-2.08,1.42-3.03l2.49.57c-.09.22-.28.32-.69.28-.32.66-.66,1.42-1.04,2.18h8.95v1.86ZM1533.1,784.45c.95,1.29,1.86,3.03,2.21,4.19l-1.67.79c-.31-1.13-1.23-2.93-2.14-4.26l1.61-.72ZM1535.87,802.55c-.41.79-.82,1.58-1.23,2.33,1.42.54,2.84,1.13,4.19,1.77.91-1.13,1.54-2.49,1.99-4.1h-4.95ZM1540.29,788.68c.85-1.13,1.95-2.99,2.55-4.25l2.21.98c-.09.22-.35.25-.63.22-.66,1.13-1.8,2.74-2.68,3.81l-1.45-.76ZM1559.42,791.48h-2.11c-.76,5.2-1.99,9.52-3.97,13.02,1.61,2.87,3.69,5.14,6.34,6.53-.5.44-1.17,1.23-1.51,1.83-2.52-1.48-4.51-3.66-6.12-6.34-1.92,2.65-4.41,4.76-7.69,6.34-.22-.5-.79-1.39-1.17-1.8,3.37-1.54,5.89-3.75,7.75-6.65-1.29-2.68-2.27-5.77-3-9.14-.63,1.45-1.29,2.74-2.05,3.81-.35-.41-1.1-1.04-1.61-1.36,2.24-3.15,3.85-8.7,4.76-14.19l2.68.57c-.06.25-.28.38-.69.38-.32,1.67-.69,3.37-1.14,5.01h9.52v1.99ZM1549.33,791.48l-.09.32c.63,3.78,1.58,7.31,2.93,10.37,1.45-2.96,2.36-6.53,2.99-10.69h-5.83Z"/>
    <path class="cls-13" d="M1569.76,796.62v1.54c1.1.88,4.45,4.07,5.2,4.85l-1.29,1.73c-.66-.98-2.52-3.03-3.91-4.45v12.48h-2.05v-12.93c-1.42,3.31-3.31,6.68-5.11,8.67-.22-.6-.76-1.51-1.14-2.02,2.11-2.21,4.51-6.27,5.8-9.9h-5.39v-2.02h5.83v-11.06l2.65.19c-.03.22-.19.35-.6.41v10.47h5.58v2.02h-5.58ZM1563.83,785.75c1.04,2.14,1.95,4.95,2.24,6.78l-1.8.5c-.28-1.83-1.13-4.67-2.11-6.81l1.67-.47ZM1575.78,786.41c-.09.19-.32.32-.63.32-.72,1.92-1.95,4.79-2.93,6.56-.35-.13-1.17-.5-1.48-.6.91-1.86,2.08-4.95,2.65-7.09l2.4.82ZM1591.04,803.56l-4.32.76v8.51h-2.08v-8.13l-9.17,1.64-.38-1.99,9.55-1.67v-19.07l2.71.19c-.03.22-.19.38-.63.44v18.06l3.97-.69.35,1.95ZM1577.79,794.13c1.99,1.29,4.29,3.25,5.39,4.63-1.26,1.01-1.39,1.17-1.54,1.32-1.07-1.39-3.34-3.4-5.33-4.76l1.48-1.2ZM1578.61,785.75c1.83,1.32,3.91,3.25,4.86,4.6l-1.58,1.26c-.91-1.39-2.96-3.37-4.79-4.73l1.51-1.13Z"/>
    <path class="cls-13" d="M1599.98,797.6v-4.13c-1.61,1.96-3.75,3.78-5.8,4.89-.25-.47-.76-1.2-1.17-1.61,2.33-1.01,4.89-3.12,6.4-5.33h-6.21v-1.8h6.78v-6.05l2.58.16c-.03.22-.19.38-.6.41v5.49h6.68v1.8h-6.68v.72c1.29.76,4.67,2.93,5.52,3.56l-1.23,1.54c-.76-.72-2.77-2.3-4.29-3.4v3.75h-1.99ZM1608.78,802.55h-2.84c-.47,1.96-1.2,3.59-2.24,5.01,1.42.76,2.68,1.51,3.66,2.24l-1.42,1.58c-.95-.76-2.21-1.54-3.59-2.3-1.86,1.67-4.38,2.9-7.82,3.75-.16-.57-.6-1.36-1.01-1.8,3-.6,5.26-1.54,6.97-2.93-1.2-.6-2.43-1.17-3.66-1.67l-.63,1.13-1.86-.69c.69-1.17,1.54-2.71,2.36-4.32h-3.56v-1.86h4.51c.5-1.04,1.01-2.08,1.42-3.03l2.49.57c-.09.22-.28.32-.69.28-.32.66-.66,1.42-1.04,2.18h8.95v1.86ZM1596.14,784.45c.95,1.29,1.86,3.03,2.21,4.19l-1.67.79c-.31-1.13-1.23-2.93-2.14-4.26l1.61-.72ZM1598.91,802.55c-.41.79-.82,1.58-1.23,2.33,1.42.54,2.84,1.13,4.19,1.77.91-1.13,1.54-2.49,1.99-4.1h-4.95ZM1603.32,788.68c.85-1.13,1.95-2.99,2.55-4.25l2.21.98c-.09.22-.35.25-.63.22-.66,1.13-1.8,2.74-2.68,3.81l-1.45-.76ZM1622.46,791.48h-2.11c-.76,5.2-1.99,9.52-3.97,13.02,1.61,2.87,3.69,5.14,6.34,6.53-.5.44-1.17,1.23-1.51,1.83-2.52-1.48-4.51-3.66-6.12-6.34-1.92,2.65-4.41,4.76-7.69,6.34-.22-.5-.79-1.39-1.17-1.8,3.37-1.54,5.89-3.75,7.75-6.65-1.29-2.68-2.27-5.77-3-9.14-.63,1.45-1.29,2.74-2.05,3.81-.35-.41-1.1-1.04-1.61-1.36,2.24-3.15,3.85-8.7,4.76-14.19l2.68.57c-.06.25-.28.38-.69.38-.32,1.67-.69,3.37-1.14,5.01h9.52v1.99ZM1612.37,791.48l-.09.32c.63,3.78,1.58,7.31,2.93,10.37,1.45-2.96,2.36-6.53,2.99-10.69h-5.83Z"/>
  </g>
  <g>
    <line class="cls-17" x1="1115.5" y1="467.38" x2="1322.15" y2="467.38"/>
    <polygon class="cls-16" points="1319.34 476.96 1335.92 467.38 1319.34 457.81 1319.34 476.96"/>
  </g>
  <rect class="cls-17" x="896.8" y="700.53" width="149.31" height="148.92" transform="translate(832.53 -459.93) rotate(45)"/>
  <text class="cls-4" transform="translate(930.9 784.56)"><tspan x="0" y="0">返</tspan><tspan class="cls-30" x="28.68" y="0">金？</tspan></text>
  <g>
    <line class="cls-17" x1="972.59" y1="606.81" x2="972.59" y2="648.95"/>
    <polygon class="cls-16" points="963.02 646.15 972.59 662.73 982.17 646.15 963.02 646.15"/>
  </g>
  <text class="cls-10" transform="translate(1143.83 448.3)"><tspan x="0" y="0">売上確定済み</tspan></text>
  <g>
    <line class="cls-17" x1="1094.5" y1="773.5" x2="1321.15" y2="773.13"/>
    <polygon class="cls-16" points="1318.36 782.71 1334.92 773.11 1318.33 763.56 1318.36 782.71"/>
  </g>
  <text class="cls-10" transform="translate(1154.34 754.02)"><tspan x="0" y="0">返金済み</tspan></text>
  <rect class="cls-19" x="1434.37" y="119.09" width="373.63" height="108.18" rx="27.6" ry="27.6"/>
  <text class="cls-6" transform="translate(1556.66 182.07)"><tspan x="0" y="0">取引拒否</tspan></text>
  <text class="cls-14" transform="translate(872.36 181.13)"><tspan class="cls-11" x="0" y="0">オ</tspan><tspan class="cls-2" x="27.53" y="0">ー</tspan><tspan class="cls-3" x="54.49" y="0">ソ</tspan><tspan class="cls-1" x="79.44" y="0">リ</tspan><tspan class="cls-23" x="105.54" y="0" xml:space="preserve"> / </tspan><tspan class="cls-7" x="129.44" y="0">購入</tspan></text>
  <g>
    <line class="cls-17" x1="1187.5" y1="175.67" x2="1397.72" y2="175.67"/>
    <polygon class="cls-16" points="1394.92 185.25 1411.5 175.67 1394.92 166.1 1394.92 185.25"/>
  </g>
  <text class="cls-10" transform="translate(1266.84 153.59)"><tspan x="0" y="0">失敗</tspan></text>
  <line class="cls-17" x1="968.5" y1="83.5" x2="769.5" y2="173.5"/>
  <line class="cls-17" x1="1166.5" y1="174.5" x2="967.5" y2="84.5"/>
  <line class="cls-17" x1="968.66" y1="264.99" x2="1167.66" y2="174.99"/>
  <line class="cls-17" x1="770.66" y1="173.99" x2="969.66" y2="263.99"/>
  <text class="cls-9" transform="translate(310.05 435.1)"><tspan class="cls-35" x="0" y="0">ア</tspan><tspan class="cls-32" x="27.52" y="0">ク</tspan><tspan class="cls-26" x="55.68" y="0">ワイア</tspan><tspan class="cls-40" x="143.04" y="0">ラ</tspan><tspan class="cls-38" x="173.44" y="0">の</tspan><tspan class="cls-41" x="204.8" y="0">デ</tspan><tspan class="cls-29" x="236.48" y="0">ー</tspan><tspan class="cls-34" x="266.56" y="0">タ</tspan><tspan class="cls-28" x="294.4" y="0">と</tspan><tspan x="323.84" y="0">照合</tspan></text>
  <g>
    <line class="cls-17" x1="969.56" y1="272.54" x2="969.56" y2="314.69"/>
    <polygon class="cls-16" points="959.99 311.89 969.56 328.47 979.14 311.89 959.99 311.89"/>
  </g>
  <text class="cls-10" transform="translate(1026.78 298.57)"><tspan x="0" y="0">成功</tspan></text>
  <text class="cls-21" transform="translate(31.12 -18.79)"><tspan x="0" y="0">Reporting Metrics Logic Flow</tspan></text>
</svg>