<?xml version="1.0" encoding="UTF-8"?>
<svg id="Layer_1" data-name="Layer 1" xmlns="http://www.w3.org/2000/svg" viewBox="0 0 1997 1150">
  <defs>
    <style>
      .cls-1 {
        letter-spacing: -.09em;
      }

      .cls-1, .cls-2, .cls-3, .cls-4, .cls-5, .cls-6, .cls-7, .cls-8, .cls-9, .cls-10, .cls-11, .cls-12, .cls-13, .cls-14, .cls-15, .cls-16 {
        font-family: KozGoPr6N-Regular-83pv-RKSJ-H, 'Kozuka Gothic Pr6N';
      }

      .cls-2 {
        letter-spacing: -.09em;
      }

      .cls-3, .cls-17 {
        letter-spacing: -.16em;
      }

      .cls-4 {
        letter-spacing: -.16em;
      }

      .cls-5 {
        letter-spacing: -.07em;
      }

      .cls-6 {
        letter-spacing: -.02em;
      }

      .cls-7, .cls-18 {
        letter-spacing: -.13em;
      }

      .cls-8 {
        letter-spacing: -.14em;
      }

      .cls-9 {
        letter-spacing: -.12em;
      }

      .cls-19, .cls-20, .cls-21, .cls-12 {
        fill: #fff;
      }

      .cls-19, .cls-20, .cls-12 {
        font-size: 25.9px;
      }

      .cls-22 {
        fill: #ff931e;
      }

      .cls-10, .cls-23, .cls-24 {
        letter-spacing: 0em;
      }

      .cls-25 {
        stroke: #29abe2;
      }

      .cls-25, .cls-26, .cls-27, .cls-28, .cls-29 {
        fill: none;
      }

      .cls-25, .cls-26, .cls-28, .cls-29 {
        stroke-miterlimit: 10;
      }

      .cls-25, .cls-29 {
        stroke-width: 5px;
      }

      .cls-30 {
        fill: #4d4d4d;
      }

      .cls-31 {
        letter-spacing: 0em;
      }

      .cls-31, .cls-32, .cls-20, .cls-33, .cls-24 {
        font-weight: 700;
      }

      .cls-31, .cls-32, .cls-33, .cls-24 {
        font-family: Arial-BoldMT, Arial;
      }

      .cls-11, .cls-34 {
        font-size: 35px;
      }

      .cls-35 {
        fill: #0071bc;
      }

      .cls-32 {
        letter-spacing: 0em;
      }

      .cls-20 {
        font-family: Courier-Bold, Courier;
      }

      .cls-33 {
        letter-spacing: -.02em;
      }

      .cls-26, .cls-27 {
        stroke: #fff;
        stroke-linecap: round;
        stroke-width: 3px;
      }

      .cls-27 {
        stroke-linejoin: round;
      }

      .cls-36 {
        fill: #29abe2;
      }

      .cls-28 {
        stroke: #0071bc;
        stroke-width: 4px;
      }

      .cls-37 {
        fill: #f1f1f1;
        fill-rule: evenodd;
      }

      .cls-38 {
        letter-spacing: -.1em;
      }

      .cls-39 {
        letter-spacing: -.08em;
      }

      .cls-40 {
        letter-spacing: -.18em;
      }

      .cls-41 {
        letter-spacing: -.12em;
      }

      .cls-42 {
        letter-spacing: -.13em;
      }

      .cls-43 {
        letter-spacing: -.15em;
      }

      .cls-29 {
        stroke: #ff931e;
      }

      .cls-44 {
        letter-spacing: -.02em;
      }

      .cls-45 {
        letter-spacing: -.02em;
      }

      .cls-46, .cls-13 {
        letter-spacing: -.05em;
      }

      .cls-47 {
        letter-spacing: -.04em;
      }

      .cls-48, .cls-16 {
        letter-spacing: -.03em;
      }

      .cls-49 {
        letter-spacing: -.01em;
      }

      .cls-14 {
        letter-spacing: -.05em;
      }
    </style>
  </defs>
  <rect class="cls-21" width="1997" height="1150"/>
  <rect class="cls-36" x="75.5" y="68.64" width="187.59" height="187.59" rx="19.94" ry="19.94"/>
  <text class="cls-11" transform="translate(116.03 298.73)"><tspan x="0" y="0">加盟店</tspan></text>
  <g>
    <path class="cls-27" d="M224.17,144.98c0,5.49-4.9,9.95-10.94,9.95s-10.94-4.45-10.94-9.95c0,5.49-4.9,9.95-10.94,9.95s-10.94-4.45-10.94-9.95c0,5.49-4.9,9.95-10.94,9.95s-10.94-4.45-10.94-9.95c0,5.49-4.9,9.95-10.94,9.95s-10.94-4.45-10.94-9.95c0,5.49-4.9,9.95-10.94,9.95s-10.94-4.45-10.94-9.95"/>
    <path class="cls-26" d="M114.73,144.98l11.4-36.19c.61-2.14,2.56-3.61,4.78-3.61h77.06c2.22,0,4.17,1.47,4.78,3.61l11.4,36.19"/>
    <path class="cls-27" d="M216.71,154.93v59.69c0,2.75-2.23,4.97-4.97,4.97h-84.56c-2.75,0-4.97-2.23-4.97-4.97v-59.69"/>
    <line class="cls-26" x1="157.02" y1="149.96" x2="157.02" y2="219.59"/>
    <line class="cls-26" x1="147.07" y1="179.8" x2="147.07" y2="184.78"/>
    <line class="cls-26" x1="186.86" y1="169.85" x2="171.94" y2="184.78"/>
    <line class="cls-26" x1="196.81" y1="179.8" x2="176.91" y2="199.7"/>
    <line class="cls-26" x1="202.28" y1="144.98" x2="196.29" y2="105.19"/>
    <line class="cls-26" x1="180.39" y1="144.98" x2="176.7" y2="105.19"/>
    <line class="cls-26" x1="158.51" y1="144.98" x2="161.89" y2="105.19"/>
    <line class="cls-26" x1="136.62" y1="144.98" x2="143.03" y2="105.19"/>
  </g>
  <text class="cls-11" transform="translate(856.06 297.04)"><tspan x="0" y="0">決</tspan><tspan class="cls-44" x="35" y="0">済</tspan><tspan class="cls-49" x="69.3" y="0">ゲ</tspan><tspan class="cls-43" x="103.95" y="0">ー</tspan><tspan class="cls-41" x="133.7" y="0">ト</tspan><tspan class="cls-40" x="164.5" y="0">ウ</tspan><tspan class="cls-38" x="193.2" y="0">ェ</tspan><tspan class="cls-46" x="224.7" y="0">イ</tspan></text>
  <rect class="cls-22" x="894.76" y="66.09" width="187.59" height="187.59" rx="19.94" ry="19.94"/>
  <g>
    <g>
      <path class="cls-27" d="M979.63,167.59c-4.82,1.11-9.4,3.04-13.45,5.64"/>
      <path class="cls-27" d="M1012.37,173.23c-4.05-2.6-8.63-4.53-13.45-5.64"/>
      <path class="cls-27" d="M1031.6,200.27c-1.11-4.82-3.04-9.4-5.64-13.45"/>
      <path class="cls-27" d="M952.59,186.82c-2.6,4.05-4.53,8.63-5.64,13.45"/>
      <path class="cls-27" d="M1010.73,212.69c.17-.89.22-1.83.22-2.77,0-12.03-9.65-21.68-21.68-21.68s-21.68,9.65-21.68,21.68c0,.94.06,1.89.22,2.77"/>
      <polyline class="cls-27" points="979.63 167.59 979.63 154.47 998.92 154.47 998.92 167.59"/>
      <polyline class="cls-27" points="1012.37 173.23 1021.67 163.87 1035.32 177.52 1025.96 186.82"/>
      <polyline class="cls-27" points="1031.58 200.27 1044.72 200.27 1044.72 212.69"/>
      <polyline class="cls-27" points="933.83 212.69 933.83 200.27 946.97 200.27"/>
      <polyline class="cls-27" points="952.59 186.82 943.23 177.52 956.88 163.87 966.18 173.23"/>
    </g>
    <path class="cls-27" d="M925.52,107.35h127.52v104.34c0,.55-.45,1-1,1h-125.52c-.55,0-1-.45-1-1v-104.34h0Z"/>
    <line class="cls-27" x1="925.52" y1="129.52" x2="1053.03" y2="129.52"/>
    <circle class="cls-21" cx="942.15" cy="118.43" r="2.77"/>
    <circle class="cls-21" cx="953.24" cy="118.43" r="2.77"/>
    <circle class="cls-21" cx="964.33" cy="118.43" r="2.77"/>
  </g>
  <line class="cls-25" x1="169.49" y1="338.5" x2="169.49" y2="1086.5"/>
  <line class="cls-29" x1="989.49" y1="338.5" x2="989.49" y2="1086.5"/>
  <g>
    <line class="cls-25" x1="215.58" y1="512.11" x2="917.54" y2="512.11"/>
    <polygon class="cls-36" points="912.87 528.06 940.5 512.11 912.87 496.15 912.87 528.06"/>
  </g>
  <g>
    <line class="cls-29" x1="1037.58" y1="512.11" x2="1754.54" y2="512.11"/>
    <polygon class="cls-22" points="1749.87 528.06 1777.5 512.11 1749.87 496.15 1749.87 528.06"/>
  </g>
  <g>
    <line class="cls-29" x1="228.46" y1="714.5" x2="808.5" y2="714.5"/>
    <polygon class="cls-22" points="233.13 730.46 205.5 714.5 233.13 698.54 233.13 730.46"/>
  </g>
  <g>
    <line class="cls-28" x1="1185.37" y1="713.5" x2="1777" y2="713.5"/>
    <polygon class="cls-35" points="1189.11 726.27 1167 713.5 1189.11 700.73 1189.11 726.27"/>
  </g>
  <g>
    <line class="cls-29" x1="192.46" y1="936.5" x2="948.65" y2="936.5"/>
    <polygon class="cls-22" points="197.13 952.46 169.5 936.5 197.13 920.54 197.13 952.46"/>
  </g>
  <rect class="cls-36" x="142.5" y="445.5" width="52" height="326.5"/>
  <rect class="cls-22" x="963" y="441" width="52" height="105"/>
  <rect class="cls-22" x="963" y="877" width="52" height="120"/>
  <line class="cls-28" x1="1832.49" y1="350" x2="1832.49" y2="1087"/>
  <rect class="cls-35" x="1806" y="441" width="52" height="302"/>
  <rect class="cls-35" x="1739.41" y="66" width="185.88" height="185.88" rx="19.94" ry="19.94"/>
  <text class="cls-34" transform="translate(1732.46 294.82)"><tspan class="cls-8" x="0" y="0">ア</tspan><tspan class="cls-9" x="30.1" y="0">ク</tspan><tspan class="cls-2" x="60.9" y="0">ワイア</tspan><tspan class="cls-13" x="156.45" y="0">ラ</tspan><tspan class="cls-32" x="189.7" y="0"> </tspan></text>
  <path class="cls-37" d="M1766.39,137.02h134.6v-6.6l-67.29-32.45-67.31,32.45v6.6h0ZM1764.83,208.42h9.12v-56.89h-2.66c-.85,0-1.54-.69-1.54-1.55v-9.84h-4.93c-.86,0-1.55-.7-1.55-1.56v-9.15h0c0-.57.32-1.13.88-1.4l68.86-33.19c.42-.19.91-.21,1.36,0l68.75,33.14c.58.23.99.79.99,1.45v9.15c0,.86-.7,1.56-1.56,1.56h-4.92v9.84c0,.86-.69,1.55-1.54,1.55h-2.66v56.89h9.11c.86,0,1.56.7,1.56,1.56v9.6c0,.86-.7,1.56-1.56,1.56h-137.72c-.86,0-1.55-.7-1.55-1.56v-9.6c0-.86.69-1.56,1.55-1.56h0ZM1805,140.14v9.84c0,.86-.69,1.55-1.54,1.55h-2.66v56.89h19.45v-56.89h-2.65c-.85,0-1.54-.69-1.54-1.55v-9.84h-11.07ZM1851.31,140.14v9.84c0,.86-.69,1.55-1.53,1.55h-2.67v56.89h19.46v-56.89h-2.66c-.85,0-1.53-.69-1.53-1.55v-9.84h-11.07ZM1894.55,140.14h-29.1v8.29h29.1v-8.29h0ZM1848.24,140.14h-29.1v8.29h29.1v-8.29h0ZM1801.93,140.14h-29.11v8.29h29.11v-8.29h0ZM1777.07,208.42h20.62v-56.89h-20.62v56.89h0ZM1823.38,208.42h20.62v-56.89h-20.62v56.89h0ZM1869.7,208.42h20.63v-56.89h-20.63v56.89h0ZM1900.99,211.53h-134.6v6.48h134.6v-6.48Z"/>
  <rect class="cls-30" x="357.52" y="397" width="445.04" height="95.07" rx="9.28" ry="9.28"/>
  <text class="cls-19" transform="translate(397.16 436.67)"><tspan class="cls-16" x="0" y="0">カ</tspan><tspan class="cls-7" x="25.13" y="0">ー</tspan><tspan class="cls-6" x="47.66" y="0">ド</tspan><tspan class="cls-15" x="73.05" y="0">情</tspan><tspan class="cls-6" x="98.95" y="0">報を</tspan><tspan class="cls-10" x="149.72" y="0">含む</tspan><tspan class="cls-31" x="201.53" y="0">API</tspan><tspan class="cls-3" x="242.38" y="0">リ</tspan><tspan class="cls-1" x="264.14" y="0">ク</tspan><tspan class="cls-14" x="287.71" y="0">エ</tspan><tspan class="cls-4" x="312.32" y="0">ス</tspan><tspan class="cls-5" x="334.08" y="0">ト</tspan></text>
  <rect class="cls-30" x="1248.99" y="397.21" width="324.01" height="95.07" rx="9.28" ry="9.28"/>
  <g>
    <path class="cls-21" d="M1290.65,429.52c-2.64-1.42-6.27-3.11-9.09-4.22v12.95h-1.94v-22.52l2.62.16c-.03.29-.23.47-.67.54v7.57l.39-.54c3.03,1.11,7.05,2.9,9.74,4.33l-1.04,1.74Z"/>
    <path class="cls-21" d="M1296.22,425.66h21.63v1.84h-20.65c-.16.26-.49.44-.83.49l-.16-2.33Z"/>
    <path class="cls-21" d="M1340.05,420.66c-.1.13-.23.26-.39.36-2.72,8.39-6.97,13.78-14.12,17.41-.31-.44-.8-1.04-1.32-1.43,6.79-3.29,10.99-8.47,13.14-15.34h-9.25c-1.5,2.33-3.5,4.59-5.8,6.4-.36-.36-.96-.85-1.48-1.19,3.52-2.72,6.5-6.68,8.26-11.24l2.46.7c-.1.26-.42.34-.75.34-.52,1.14-1.06,2.23-1.66,3.26h9.12l.31-.16,1.48.88Z"/>
    <path class="cls-21" d="M1344.61,417.83c2.7.85,5.8,2.2,7.72,3.52l-.99,1.63c-1.87-1.32-4.92-2.69-7.57-3.6l.83-1.55ZM1344.51,435.79c9.2-2.85,15.31-8.01,18.42-15.18.54.44,1.14.78,1.68,1.06-3.24,7.1-9.56,12.62-18.34,15.55-.03.23-.18.49-.36.6l-1.4-2.02Z"/>
    <path class="cls-21" d="M1379.81,436.51h10.88v1.71h-23.42v-1.71h10.75v-6.94h-7.9v-1.68h7.9v-5.98h-6.35c-.91,1.87-1.97,3.55-3.11,4.79-.34-.31-1.01-.8-1.45-1.06,2.12-2.25,3.96-6.19,5.03-10.16l2.25.62c-.08.18-.26.29-.6.29-.39,1.27-.83,2.56-1.35,3.81h5.57v-5.18l2.33.13c-.03.18-.18.31-.54.36v4.69h9.66v1.71h-9.66v5.98h8.71v1.68h-8.71v6.94Z"/>
    <path class="cls-21" d="M1408.26,421.36c.31,3.55.88,6.89,1.66,9.61,1.45-2.18,2.62-4.66,3.47-7.41l2.12.65c-.05.18-.26.26-.6.26-1.06,3.19-2.51,6.04-4.35,8.47,1.06,2.75,2.36,4.48,3.86,4.48.8,0,1.17-1.42,1.35-4.97.39.39.98.78,1.48.93-.36,4.46-1.04,5.78-2.95,5.78-2.1,0-3.73-1.81-4.97-4.66-1.68,1.87-3.63,3.45-5.8,4.69-.23-.36-.78-1.01-1.14-1.35,2.41-1.27,4.48-3.01,6.24-5.16-1.04-3.11-1.74-7.1-2.1-11.32h-9.51v3.5h5.96l.36-.03.91.05v.6c-.13,6.19-.28,8.42-.83,9.12-.65.7-1.32.73-2.72.73-.6,0-1.27,0-1.97-.05-.05-.52-.23-1.19-.52-1.63,1.27.13,2.46.13,2.9.13.36,0,.65-.05.83-.26.36-.44.49-2.2.6-7.05h-5.52c0,2.56,0,8.73-2.9,12.67-.29-.34-.98-.91-1.37-1.14,2.31-3.19,2.56-7.67,2.56-11.06v-7.25h11.12c-.1-1.53-.16-3.08-.18-4.64l2.33.13c0,.21-.18.34-.54.39,0,1.37.03,2.77.1,4.12h8.47v1.68h-8.34ZM1410.92,415.19c1.66.85,3.71,2.12,4.72,3.06l-1.09,1.17c-1.01-.93-3.03-2.28-4.69-3.16l1.06-1.06Z"/>
    <path class="cls-21" d="M1432.24,419.73c-.1.23-.31.41-.65.41-.93,8.06-3.63,15.08-7.93,15.08-2.18,0-4.15-2.18-4.15-6.27,0-6.22,4.84-11.43,11.66-11.43,7.49,0,10.73,4.74,10.73,9.79,0,6.17-3.58,9.15-9.85,10.6-.23-.41-.67-1.11-1.09-1.58,5.96-1.14,9.02-4.04,9.02-8.94,0-4.27-2.75-8.16-8.81-8.16-.26,0-.54.03-.78.05l1.84.44ZM1429.76,419.39c-5.23.65-8.47,4.97-8.47,9.51,0,2.77,1.19,4.51,2.44,4.51,3.13,0,5.39-6.92,6.04-14.02Z"/>
    <path class="cls-21" d="M1460.61,420.68c-2.2.78-5.13,1.27-7.95,1.48-1.09,5.93-2.67,11.84-4.74,16.19l-1.87-.7c2.12-4.17,3.68-9.53,4.69-15.42-.52.03-3.99.05-4.77.03l-.03-1.76c.42.03.96.03,1.55.03.23,0,2.82,0,3.5-.03.26-1.66.52-3.47.67-5.05l2.67.26c-.03.29-.39.49-.75.52-.16,1.14-.42,2.54-.65,4.12,2.54-.23,5.1-.67,7.25-1.45l.42,1.79ZM1467.5,437.94c-.78.03-1.58.05-2.38.05-2.44,0-4.74-.18-6.14-.57-1.84-.52-2.9-1.87-2.88-3.58.03-1.14.52-2.44,1.61-3.76l1.55.67c-.91,1.06-1.35,2.07-1.35,2.88,0,2.05,1.97,2.56,6.68,2.56.96,0,1.94-.03,2.9-.1v1.84ZM1457.4,425.45c2.67-.85,6.35-1.4,9.41-1.32v1.76c-2.93-.08-6.32.34-8.96,1.17l-.44-1.61Z"/>
    <path class="cls-21" d="M1488.51,416.15c-.05.23-.34.34-.67.39-.29,1.79-.65,3.5-1.06,5.03,4.53.85,7.05,4.15,7.05,8.14,0,4.61-3.5,7.57-10.05,8.5-.26-.54-.54-1.11-.83-1.58,5.73-.75,8.99-3.08,8.99-6.87,0-3.14-2-5.78-5.67-6.48-1.22,3.99-2.88,7.07-4.69,9.22.34.47.78.88,1.19,1.27l-1.32,1.27c-.39-.39-.75-.8-1.11-1.27-1.68,1.61-3.52,2.41-5.26,2.41-2.28,0-3.68-1.94-3.68-4.77,0-3.52,1.94-6.24,4.56-7.95-.49-1.97-.91-4.12-1.27-6.45l2.49-.05c-.03.23-.18.49-.54.57.26,1.79.54,3.52.91,5.13,2.85-1.43,5.6-1.43,6.76-1.43.21,0,.44,0,.62.03.41-1.71.78-3.63,1.04-5.67l2.57.57ZM1479.33,432.39c-1.17-1.89-2.12-4.3-2.9-7.18-1.63,1.14-3.34,3.19-3.34,6.06,0,1.84.7,3.16,2.1,3.16,1.61,0,2.98-.93,4.15-2.05ZM1480.5,430.97c1.55-1.89,2.9-4.53,3.94-8.03-.28-.03-.62-.03-.91-.03-2,.03-3.94.47-5.62,1.4.67,2.59,1.5,4.9,2.59,6.66Z"/>
    <path class="cls-21" d="M1502.31,416.93c-.08.29-.34.44-.86.41-.91,4.22-1.37,8.86-1.37,11.66,0,1.94.08,3.91.34,5.13.49-1.27,1.61-3.99,1.97-4.9l1.09,1.14c-1.06,2.62-1.84,4.09-2.2,5.26-.13.44-.21.85-.21,1.22,0,.29.05.54.13.8l-1.84.34c-.83-2.46-1.14-5.47-1.14-8.91s.54-8.14,1.37-12.62l2.72.47ZM1518.81,435.87c-.93.05-1.89.08-2.85.08-1.84,0-3.58-.1-4.82-.29-3.19-.47-4.66-2.23-4.66-4.3,0-1.79.98-3.29,2.44-5l1.68.73c-1.3,1.35-2.2,2.59-2.2,4.07,0,3.01,4.4,3.01,7.1,3.01,1.09,0,2.25-.05,3.34-.13l-.03,1.84ZM1506.82,420.04c3.34-.08,7.85-.39,11.3-.98l.16,1.81c-3.21.54-8.42.88-11.4.96l-.05-1.79Z"/>
    <path class="cls-21" d="M1543.01,421.85c-.05.1-.1.23-.23.34-.34,7.46-1.06,12.15-2.07,13.99-1.04,1.79-2.54,1.87-3.39,1.87-1.01,0-2.85-.23-4.64-.6.05-.52,0-1.3-.08-1.84,1.94.44,3.94.65,4.53.65.93,0,1.45-.23,2-1.22.78-1.58,1.42-5.93,1.68-11.76h-8.29c-1.29,6.19-3.86,11.32-8.55,14.85-.31-.34-.98-.83-1.48-1.14,4.48-3.37,6.84-7.8,8.08-13.71h-7.15v-1.74h7.51c.31-1.84.47-3.5.6-5.65l2.57.21c-.03.29-.26.44-.65.47-.16,1.89-.29,3.32-.57,4.97h8.39l.41-.16,1.32.47Z"/>
    <path class="cls-21" d="M1323.55,456.74h21.63v1.84h-20.65c-.16.26-.49.44-.83.49l-.16-2.33Z"/>
    <path class="cls-21" d="M1364.35,460.63c-2.64-1.42-6.27-3.11-9.09-4.22v12.93h-1.94v-22.52l2.62.16c-.03.29-.23.47-.67.54v7.62l.39-.57c3.03,1.11,7.05,2.9,9.74,4.33l-1.04,1.74ZM1361.63,448.43c1.19.98,2.75,2.62,3.58,3.81l-.98.8c-.78-1.11-2.36-2.85-3.52-3.78l.93-.83ZM1365.1,446.2c1.22,1.01,2.77,2.64,3.55,3.78l-.93.8c-.8-1.11-2.38-2.82-3.55-3.78l.93-.8Z"/>
    <path class="cls-21" d="M1373.1,451.38c0,2.31-.44,5.1-1.5,6.76-.96-.57-1.11-.65-1.3-.73.93-1.43,1.35-4.07,1.4-6.24l1.4.21ZM1374.11,446.07l2.2.16c-.03.18-.16.31-.49.34v23.55h-1.71v-24.04ZM1378.1,454.46c-.36-.98-1.17-2.62-1.87-3.81l1.19-.6c.75,1.17,1.58,2.69,1.92,3.65l-1.24.75ZM1387.2,454.8h7.23v1.48h-16.04v-1.48h7v-1.89h-5.05v-1.35h5.05v-1.76h-6.09v-1.4h6.09v-2.33l2.33.16c-.03.18-.16.31-.52.36v1.81h6.32v1.4h-6.32v1.76h5.26v1.35h-5.26v1.89ZM1392.09,458.01v10.29c0,1.68-.67,1.87-4.28,1.87-.08-.44-.31-1.06-.54-1.5.73.03,1.4.05,1.89.05,1.06,0,1.19,0,1.19-.41v-2.31h-8.06v4.12h-1.68v-12.1h11.48ZM1390.36,459.44h-8.06v1.94h8.06v-1.94ZM1382.3,464.67h8.06v-1.97h-8.06v1.97Z"/>
    <path class="cls-21" d="M1403.2,450.24v2.9h5.21v1.53h-12.02v-1.53h5.18v-2.9h-4.15v-1.5h4.15v-2.62l2.12.13c-.03.18-.16.31-.49.34v2.15h4.12v1.5h-4.12ZM1403.64,458.81c.54-1.04,1.22-2.75,1.55-3.86l1.84.62c-.08.16-.26.23-.54.23-.42.91-1.06,2.28-1.66,3.21h3.11v1.53h-4.77v3.01h4.43v1.53h-4.43v5.1h-1.63v-5.1h-4.46v-1.53h4.46v-3.01h-4.79v-1.53h7.36l-.47-.21ZM1399.39,458.87c-.13-.93-.62-2.44-1.19-3.58l1.35-.36c.57,1.11,1.09,2.59,1.24,3.5l-1.4.44ZM1418.41,457.16l1.09.39c-.05.16-.1.23-.18.34-.47,2.75-1.42,5.47-2.85,7.8,1.14,1.3,2.46,2.33,3.94,2.98-.41.36-.96,1.04-1.22,1.5-1.4-.73-2.64-1.76-3.73-3.03-.88,1.09-1.87,2.05-3.03,2.82-.29-.39-.78-.88-1.19-1.17,1.22-.8,2.28-1.84,3.16-3.06-1.27-1.79-2.25-3.91-2.93-6.14l1.4-.36c.57,1.79,1.42,3.52,2.46,5.03.96-1.68,1.63-3.58,2.05-5.49h-6.61v11.43h-1.66v-22.88h10.08v6.5c0,1.87-.93,1.87-4.46,1.87-.05-.44-.31-1.06-.52-1.5.67,0,1.32.03,1.81.03,1.43,0,1.53,0,1.53-.41v-4.87h-6.79v8.32h7.33l.31-.08Z"/>
    <path class="cls-21" d="M1444.52,457.18c-.05.03-.1.05-.16.05-.16,0-.29-.08-.39-.16-1.97.65-4.84,1.71-7,2.64.05.6.08,1.27.08,2.02,0,.83-.03,1.76-.08,2.77l-1.89.1c.08-.93.13-2.12.13-3.14,0-.39,0-.75-.03-1.04-2.93,1.42-5.31,3.16-5.31,4.72s1.79,2.23,5.36,2.23c2.51,0,4.84-.05,6.5-.26l.03,1.74c-1.53.16-3.86.21-6.53.21-4.97,0-7.18-1.19-7.18-3.83,0-2.28,3-4.48,6.89-6.43-.16-1.63-.88-2.44-1.92-2.44-1.89,0-3.86,1.06-6.19,3.65-.73.8-1.74,1.81-2.85,2.82l-1.27-1.27c2.59-2.28,5.03-4.46,6.53-9.56l-1.45.03h-4.33v-1.68c1.58.03,3.42.03,4.48.03l1.76-.03c.29-1.19.52-2.31.7-3.71l2.54.31c-.05.26-.26.41-.65.47-.18,1.04-.42,1.94-.65,2.88,1.76-.03,5.54-.44,8.91-1.5l.31,1.74c-3.24,1.01-7.15,1.37-9.72,1.45-.62,1.94-1.27,3.5-1.87,4.38h.03c1.14-1.01,2.85-1.68,4.17-1.68,1.76,0,2.88,1.27,3.21,3.37,2.18-.98,4.92-2.05,7-2.85l.8,1.97Z"/>
    <path class="cls-21" d="M1452.76,456.46v8.47c2.02,3.08,5.73,3.08,10.39,3.08,2.8,0,6.09-.08,8.11-.21-.21.41-.52,1.24-.57,1.76-1.79.08-4.64.13-7.2.13-5.34,0-8.89,0-11.5-3.21-1.27,1.14-2.64,2.31-3.76,3.19.03.23-.05.34-.23.41l-1.01-1.92c1.24-.83,2.77-2.02,4.09-3.16v-6.89h-3.81v-1.66h5.49ZM1448.9,446.74c1.74,1.11,3.76,2.82,4.64,4.09l-1.37,1.17c-.85-1.3-2.82-3.06-4.56-4.22l1.29-1.04ZM1470.87,458.25h-6.89c1.09,3.45,3.34,5.75,6.94,6.81-.39.34-.88.98-1.11,1.45-3.52-1.22-5.78-3.58-7.07-7.1-.75,2.44-2.62,5-7,7-.23-.39-.78-.98-1.17-1.3,4.69-1.94,6.22-4.53,6.71-6.87h-6.94v-1.61h7.12c.03-.31.03-.62.03-.91v-2.98h-6.3v-1.61h10.31l-1.32-.6c.88-1.19,2-3.14,2.59-4.46l2.07.78c-.08.18-.26.23-.57.26-.67,1.19-1.79,2.9-2.7,4.02h4.51v1.61h-6.87v2.98c0,.29,0,.6-.03.91h7.67v1.61ZM1458.64,451.15c-.34-1.19-1.32-3.03-2.36-4.35l1.48-.62c1.06,1.3,2.1,3.06,2.44,4.25l-1.55.73Z"/>
    <path class="cls-21" d="M1476.48,455.24c-.98,1.63-2.07,3.08-3.16,4.33-.18-.41-.62-1.22-.91-1.63,2.49-2.69,4.97-7.18,6.48-11.66l2.07.7c-.1.18-.29.26-.6.23-.67,1.81-1.48,3.63-2.38,5.36l.7.18c-.05.16-.18.29-.52.31v17.18h-1.68v-15ZM1479.96,450.99h17.1v1.48h-17.1v-1.48ZM1481.87,470.16v-8.32h13.4v8.24h-1.76v-1.22h-9.95v1.3h-1.68ZM1495.03,454.62v1.45h-12.9v-1.45h12.9ZM1482.13,459.7v-1.45h12.88v1.45h-12.88ZM1494.57,447.36v1.45h-12.15v-1.45h12.15ZM1493.51,463.3h-9.95v4.12h9.95v-4.12Z"/>
  </g>
  <rect class="cls-30" x="1304.16" y="655" width="324.01" height="45.28" rx="9.28" ry="9.28"/>
  <text class="cls-12" transform="translate(1343.82 685.88)"><tspan class="cls-48" x="0" y="0">カ</tspan><tspan class="cls-18" x="25.13" y="0">ー</tspan><tspan class="cls-17" x="47.66" y="0">ド</tspan><tspan class="cls-39" x="69.42" y="0">トー</tspan><tspan class="cls-42" x="117.08" y="0">ク</tspan><tspan class="cls-47" x="139.62" y="0">ン</tspan><tspan class="cls-45" x="164.49" y="0">を</tspan><tspan class="cls-23" x="189.87" y="0">返却</tspan></text>
  <rect class="cls-30" x="320" y="621" width="411" height="79.28" rx="9.28" ry="9.28"/>
  <text class="cls-12" transform="translate(486.2 654.88)"><tspan class="cls-45" x="0" y="0">を</tspan><tspan x="25.38" y="0">返却</tspan></text>
  <text class="cls-20" transform="translate(374.67 467.7)"><tspan x="0" y="0">store_payment_method: true</tspan></text>
  <rect class="cls-22" x="827" y="654.56" width="330" height="117.44" rx="9.28" ry="9.28"/>
  <g>
    <path class="cls-21" d="M852.74,682.77v1.69h-6.42v-1.69h6.42Z"/>
    <path class="cls-21" d="M875.72,683.26c-2.65-1.43-6.29-3.12-9.13-4.24v13h-1.95v-22.59l2.63.16c-.03.29-.23.47-.68.55v7.59l.39-.55c3.04,1.12,7.07,2.91,9.78,4.34l-1.04,1.74Z"/>
    <path class="cls-21" d="M881.31,679.39h21.71v1.85h-20.72c-.16.26-.49.44-.83.49l-.16-2.34Z"/>
    <path class="cls-21" d="M925.3,674.37c-.1.13-.23.26-.39.36-2.73,8.42-6.99,13.83-14.17,17.47-.31-.44-.81-1.04-1.33-1.43,6.81-3.3,11.02-8.5,13.18-15.39h-9.28c-1.51,2.34-3.51,4.6-5.82,6.42-.36-.36-.96-.86-1.48-1.2,3.54-2.73,6.53-6.71,8.29-11.29l2.47.7c-.1.26-.42.34-.75.34-.52,1.14-1.07,2.24-1.66,3.28h9.15l.31-.16,1.48.88Z"/>
    <path class="cls-21" d="M929.88,671.54c2.7.86,5.82,2.21,7.75,3.54l-.99,1.64c-1.87-1.33-4.94-2.7-7.59-3.61l.83-1.56ZM929.78,689.55c9.23-2.86,15.37-8.03,18.49-15.24.55.44,1.14.78,1.69,1.07-3.25,7.12-9.59,12.66-18.41,15.6-.03.23-.18.49-.36.6l-1.4-2.03Z"/>
    <path class="cls-21" d="M974.65,679.83c-.05.03-.1.05-.16.05-.16,0-.29-.08-.39-.16-1.98.65-4.86,1.72-7.02,2.65.05.6.08,1.27.08,2.03,0,.83-.03,1.77-.08,2.78l-1.9.1c.08-.94.13-2.13.13-3.15,0-.39,0-.75-.03-1.04-2.94,1.43-5.33,3.17-5.33,4.73s1.79,2.24,5.38,2.24c2.52,0,4.86-.05,6.53-.26l.03,1.74c-1.53.16-3.87.21-6.55.21-4.99,0-7.2-1.2-7.2-3.85,0-2.29,3.02-4.5,6.92-6.45-.16-1.64-.88-2.44-1.92-2.44-1.9,0-3.87,1.07-6.21,3.67-.73.81-1.74,1.82-2.86,2.83l-1.27-1.27c2.6-2.29,5.04-4.47,6.55-9.59l-1.46.03h-4.34v-1.69c1.59.03,3.43.03,4.5.03l1.77-.03c.29-1.2.52-2.31.7-3.72l2.55.31c-.05.26-.26.42-.65.47-.18,1.04-.42,1.95-.65,2.89,1.77-.03,5.56-.44,8.94-1.51l.31,1.74c-3.25,1.01-7.18,1.38-9.75,1.46-.62,1.95-1.27,3.51-1.87,4.39h.03c1.14-1.01,2.86-1.69,4.19-1.69,1.77,0,2.89,1.27,3.22,3.38,2.18-.99,4.94-2.05,7.02-2.86l.81,1.98Z"/>
    <path class="cls-21" d="M1001.09,680.9h-4.73c-.1.05-.23.08-.39.1-.83,2.86-2.18,5.07-4.03,6.79,3.09,1.17,5.93,2.47,7.88,3.59l-1.22,1.51c-1.95-1.22-4.91-2.6-8.16-3.87-2.78,1.98-6.47,3.15-11,3.85-.18-.42-.65-1.12-1.01-1.51,4.08-.55,7.46-1.48,10.06-3.07-1.77-.65-3.59-1.27-5.3-1.77-.21.39-.39.78-.57,1.12l-1.79-.47c.91-1.64,1.98-3.93,3.04-6.27h-6.34v-1.69h7.1c.73-1.66,1.43-3.3,2-4.73l2.24.44c-.08.21-.23.29-.57.29-.49,1.2-1.09,2.57-1.72,4h14.53v1.69ZM980.14,673.56v3.95h-1.77v-5.62h9.96v-3.22l2.34.16c-.03.18-.16.31-.52.36v2.7h10.06v5.62h-1.82v-3.95h-18.25ZM985.81,680.9c-.65,1.46-1.33,2.91-1.95,4.24,1.98.52,4.13,1.22,6.27,1.98,1.85-1.53,3.17-3.56,3.95-6.21h-8.27Z"/>
    <path class="cls-21" d="M1016.8,668.73c-.05.21-.26.34-.52.39,2.52,3.43,7.2,7.36,11.23,9.44-.44.42-.86,1.01-1.17,1.53-4.08-2.39-8.74-6.34-11.15-9.7-2.13,3.22-6.42,7.23-10.92,9.88-.23-.39-.73-1.01-1.09-1.38,4.55-2.55,9.05-6.84,11.08-10.3l2.55.13ZM1016.12,685.94v4.55h10.48v1.61h-22.49v-1.61h10.19v-4.55h-8.01v-1.59h8.01v-4.32h-6.86v-1.59h15.83v1.59h-7.15v4.32h8.11v1.59h-8.11Z"/>
    <path class="cls-21" d="M1035.13,670.62c-.08.29-.34.44-.86.42-.91,4.24-1.38,8.89-1.38,11.7,0,1.95.08,3.93.34,5.15.49-1.27,1.61-4,1.98-4.91l1.09,1.14c-1.07,2.63-1.85,4.11-2.21,5.28-.13.44-.21.86-.21,1.22,0,.29.05.55.13.81l-1.85.34c-.83-2.47-1.14-5.49-1.14-8.94s.55-8.16,1.38-12.66l2.73.47ZM1051.69,689.63c-.94.05-1.9.08-2.86.08-1.85,0-3.59-.1-4.84-.29-3.2-.47-4.68-2.24-4.68-4.32,0-1.79.99-3.3,2.44-5.02l1.69.73c-1.3,1.35-2.21,2.6-2.21,4.08,0,3.02,4.42,3.02,7.12,3.02,1.09,0,2.26-.05,3.35-.13l-.03,1.85ZM1039.65,673.75c3.35-.08,7.88-.39,11.34-.99l.16,1.82c-3.22.55-8.45.88-11.44.96l-.05-1.79Z"/>
    <path class="cls-21" d="M1058.48,677.88c-.99,1.64-2.08,3.09-3.17,4.34-.18-.42-.62-1.22-.91-1.64,2.5-2.7,4.99-7.2,6.5-11.7l2.08.7c-.1.18-.29.26-.6.23-.68,1.82-1.48,3.64-2.39,5.38l.7.18c-.05.16-.18.29-.52.31v17.24h-1.69v-15.05ZM1078.94,683.34h-6.4c1.72,2.86,4.52,5.62,7.12,7.02-.42.34-.96.96-1.25,1.4-2.52-1.59-5.2-4.47-6.99-7.49v8.58h-1.74v-8.45c-1.87,3.02-4.68,5.8-7.33,7.31-.29-.44-.83-1.07-1.22-1.4,2.76-1.35,5.67-4.11,7.46-6.97h-6.76v-1.64h7.85v-3.02h-5.85v-8.74h13.68v8.74h-6.08v3.02h7.51v1.64ZM1065.52,671.54v5.56h10.27v-5.56h-10.27Z"/>
    <path class="cls-21" d="M1104.55,673.82h-14.35c-.88,2-1.98,4-3.28,5.85l.29.08c-.05.18-.21.31-.52.34v12.77h-1.74v-10.74c-.99,1.09-2.05,2.08-3.25,2.96-.21-.47-.68-1.2-.94-1.59,1.59-1.14,2.96-2.55,4.19-4.11v-.21l.13.03c1.25-1.66,2.29-3.48,3.17-5.38h-6.71v-1.66h7.41c.44-1.14.83-2.31,1.14-3.46l2.26.6c-.08.18-.26.29-.6.29-.26.86-.55,1.72-.88,2.57h13.68v1.66ZM1105.07,683.83v1.64h-7.18v5.23c0,1.09-.23,1.61-1.07,1.87-.83.26-2.29.29-4.6.29-.08-.52-.31-1.2-.57-1.69.94.03,1.79.05,2.47.05,1.92,0,2-.03,2-.52v-5.23h-7.51v-1.64h7.51v-2.5l.68.03c1.2-.73,2.5-1.77,3.51-2.78h-9.41v-1.61h11.05l.31-.1,1.35.88c-.08.13-.23.21-.39.21-1.33,1.43-3.43,3.2-5.33,4.37v1.51h7.18Z"/>
    <path class="cls-21" d="M852.74,713.97v1.69h-6.42v-1.69h6.42Z"/>
    <path class="cls-21" d="M882.35,711.03c-.05.03-.1.05-.16.05-.16,0-.29-.08-.39-.16-1.98.65-4.86,1.72-7.02,2.65.05.6.08,1.27.08,2.03,0,.83-.03,1.77-.08,2.78l-1.9.1c.08-.94.13-2.13.13-3.15,0-.39,0-.75-.03-1.04-2.94,1.43-5.33,3.17-5.33,4.73s1.79,2.24,5.38,2.24c2.52,0,4.86-.05,6.53-.26l.03,1.74c-1.53.16-3.87.21-6.55.21-4.99,0-7.2-1.2-7.2-3.85,0-2.29,3.02-4.5,6.92-6.45-.16-1.64-.88-2.44-1.92-2.44-1.9,0-3.87,1.07-6.21,3.67-.73.81-1.74,1.82-2.86,2.83l-1.27-1.27c2.6-2.29,5.04-4.47,6.55-9.59l-1.46.03h-4.34v-1.69c1.59.03,3.43.03,4.5.03l1.77-.03c.29-1.2.52-2.31.7-3.72l2.55.31c-.05.26-.26.42-.65.47-.18,1.04-.42,1.95-.65,2.89,1.77-.03,5.56-.44,8.94-1.51l.31,1.74c-3.25,1.01-7.18,1.38-9.75,1.46-.62,1.95-1.27,3.51-1.87,4.39h.03c1.14-1.01,2.86-1.69,4.19-1.69,1.77,0,2.89,1.27,3.22,3.38,2.18-.99,4.94-2.05,7.02-2.86l.81,1.98Z"/>
    <path class="cls-21" d="M897.87,721.48h10.92v1.72h-23.5v-1.72h10.79v-6.97h-7.93v-1.69h7.93v-6.01h-6.37c-.91,1.87-1.98,3.56-3.12,4.81-.34-.31-1.01-.81-1.46-1.07,2.13-2.26,3.98-6.21,5.04-10.19l2.26.62c-.08.18-.26.29-.6.29-.39,1.27-.83,2.57-1.35,3.82h5.59v-5.2l2.34.13c-.03.18-.18.31-.55.36v4.71h9.7v1.72h-9.7v6.01h8.74v1.69h-8.74v6.97Z"/>
    <path class="cls-21" d="M926.42,706.27c.31,3.56.88,6.92,1.66,9.65,1.46-2.18,2.63-4.68,3.48-7.44l2.13.65c-.05.18-.26.26-.6.26-1.07,3.2-2.52,6.06-4.37,8.5,1.07,2.76,2.37,4.5,3.87,4.5.81,0,1.17-1.43,1.35-4.99.39.39.99.78,1.48.94-.36,4.47-1.04,5.8-2.96,5.8-2.11,0-3.74-1.82-4.99-4.68-1.69,1.87-3.64,3.46-5.82,4.71-.23-.36-.78-1.01-1.14-1.35,2.42-1.27,4.5-3.02,6.27-5.17-1.04-3.12-1.74-7.12-2.11-11.36h-9.54v3.51h5.98l.36-.03.91.05v.6c-.13,6.21-.29,8.45-.83,9.15-.65.7-1.33.73-2.73.73-.6,0-1.27,0-1.98-.05-.05-.52-.23-1.2-.52-1.64,1.27.13,2.47.13,2.91.13.36,0,.65-.05.83-.26.36-.44.49-2.21.6-7.07h-5.54c0,2.57,0,8.76-2.91,12.71-.29-.34-.99-.91-1.38-1.14,2.31-3.2,2.57-7.7,2.57-11.1v-7.28h11.15c-.1-1.53-.16-3.09-.18-4.65l2.34.13c0,.21-.18.34-.55.39,0,1.38.03,2.78.1,4.13h8.5v1.69h-8.37ZM929.1,700.08c1.66.86,3.72,2.13,4.73,3.07l-1.09,1.17c-1.01-.94-3.04-2.29-4.71-3.17l1.07-1.07Z"/>
    <path class="cls-21" d="M844.59,746.9c-.18.14-.36.24-.55.31-.19.07-.38.11-.58.11-.29,0-.5-.08-.62-.24-.12-.16-.18-.45-.18-.88v-1.36c0-.45.08-.77.23-.96.15-.19.41-.28.78-.28.4,0,.73.2.98.58.15.21.28.37.38.47.33.3.72.53,1.17.68.44.15.95.23,1.52.23.49,0,.88-.1,1.18-.29s.44-.44.44-.75c0-.55-.79-.94-2.37-1.15-.35-.04-.62-.08-.82-.11-1.19-.16-2.08-.49-2.66-.97-.58-.48-.87-1.13-.87-1.94,0-.96.35-1.71,1.05-2.24.7-.53,1.69-.79,2.98-.79.44,0,.9.04,1.37.11.47.07.95.18,1.44.33.14-.17.3-.3.46-.38.16-.08.34-.12.54-.12.28,0,.49.09.64.26.15.17.22.44.22.78v1.26c0,.29-.08.52-.23.68-.15.16-.36.24-.64.24s-.76-.24-1.44-.73c-.68-.49-1.36-.73-2.05-.73-.53,0-.95.09-1.24.26-.29.17-.44.42-.44.72,0,.48.62.8,1.85.96.36.04.64.08.84.1,1.54.23,2.61.56,3.18,1.01.58.45.87,1.11.87,2,0,1.03-.38,1.83-1.14,2.39-.76.56-1.84.85-3.25.85-.55,0-1.07-.04-1.58-.11-.51-.07-.99-.18-1.47-.31Z"/>
    <path class="cls-21" d="M859.19,738.15h3.13c.47,0,.81.09,1,.26.2.17.3.46.3.85s-.1.69-.3.87c-.2.18-.54.27-1,.27h-3.13v2.62c0,.74.11,1.24.34,1.52s.62.41,1.19.41c.53,0,1.16-.15,1.89-.46s1.21-.46,1.46-.46c.28,0,.52.11.72.33.2.22.3.49.3.8,0,.53-.48,1.01-1.43,1.44-.95.43-2.04.65-3.25.65-.7,0-1.32-.1-1.86-.29s-.95-.46-1.26-.82c-.23-.27-.39-.6-.48-.98s-.14-1.02-.14-1.92v-2.85h-.96c-.46,0-.79-.09-.99-.27-.19-.18-.29-.47-.29-.87s.1-.69.29-.86c.19-.17.52-.25.99-.25h.96v-2.4c0-.47.1-.8.29-1,.19-.19.52-.29.97-.29s.77.1.97.29c.2.19.29.52.29,1v2.4Z"/>
    <path class="cls-21" d="M872.5,737.35c1.66,0,3.01.46,4.04,1.39s1.55,2.12,1.55,3.58-.52,2.66-1.55,3.59c-1.03.93-2.38,1.39-4.04,1.39s-3-.46-4.03-1.39c-1.03-.93-1.55-2.12-1.55-3.59s.52-2.65,1.55-3.58c1.04-.93,2.38-1.39,4.02-1.39ZM872.5,739.51c-.8,0-1.46.26-1.97.79-.52.52-.77,1.19-.77,2s.26,1.5.77,2.04c.52.54,1.17.8,1.97.8s1.46-.27,1.98-.8c.52-.54.78-1.22.78-2.04s-.26-1.48-.77-2c-.52-.52-1.18-.79-1.98-.79Z"/>
    <path class="cls-21" d="M884.64,741.48v3.32h2.42c.46,0,.79.09.99.26.19.17.29.46.29.85s-.1.69-.29.87c-.2.18-.53.27-.99.27h-5.73c-.47,0-.81-.09-1-.27s-.3-.47-.3-.87.1-.68.29-.85c.2-.17.53-.26,1.02-.26h.78v-4.98h-.44c-.47,0-.8-.09-1-.26-.2-.17-.29-.46-.29-.87s.09-.69.28-.86c.19-.17.52-.26,1-.26h2.18c.18,0,.33.04.43.12.1.08.15.19.15.32v1.52c.75-.8,1.44-1.37,2.09-1.71.65-.34,1.34-.51,2.09-.51.68,0,1.21.15,1.61.46.4.3.6.71.6,1.23,0,.4-.14.72-.41.98-.27.26-.63.38-1.06.38-.31,0-.67-.11-1.09-.34-.42-.23-.71-.34-.88-.34-.33,0-.71.15-1.16.44-.45.29-.97.75-1.58,1.36Z"/>
    <path class="cls-21" d="M894.92,742.91c.18.76.52,1.33,1.03,1.7.51.38,1.19.56,2.04.56s1.69-.21,2.51-.62c.83-.41,1.33-.62,1.5-.62.25,0,.46.09.62.28.16.19.24.43.24.72,0,.64-.48,1.2-1.43,1.66-.95.46-2.13.7-3.53.7-1.65,0-3-.46-4.03-1.39-1.04-.93-1.55-2.12-1.55-3.59s.52-2.65,1.55-3.58c1.04-.93,2.38-1.39,4.03-1.39,1.48,0,2.7.44,3.67,1.31.97.87,1.46,1.94,1.46,3.2,0,.4-.1.68-.29.83-.19.15-.6.22-1.2.22h-6.61ZM900.44,741.31c-.12-.63-.42-1.13-.9-1.48-.48-.35-1.11-.52-1.88-.52s-1.34.17-1.8.5c-.45.33-.77.83-.95,1.5h5.53Z"/>
    <path class="cls-21" d="M914.68,744.8h.17c.37,0,.65.09.83.28.18.19.28.46.28.83,0,.4-.1.69-.29.87-.19.18-.52.27-.99.27h-1.57c-.2,0-.35-.04-.46-.12-.11-.08-.16-.19-.16-.32v-.72c-.34.46-.77.81-1.29,1.05-.53.24-1.12.36-1.77.36-1.34,0-2.46-.46-3.36-1.37-.9-.91-1.35-2.05-1.35-3.42s.46-2.6,1.37-3.54c.91-.94,2.07-1.4,3.48-1.4.49,0,.96.08,1.42.24.46.16.88.39,1.27.68v-2.59h-1.36c-.47,0-.81-.09-1-.27-.2-.18-.3-.47-.3-.87s.1-.69.3-.87c.2-.18.53-.27,1-.27h3.19c.23,0,.39.05.48.14.08.1.13.27.13.53v10.5ZM909.87,739.75c-.67,0-1.23.25-1.67.75-.44.5-.66,1.14-.66,1.91s.22,1.44.66,1.94c.44.5.99.75,1.67.75s1.24-.25,1.68-.76c.44-.51.66-1.15.66-1.94s-.22-1.4-.67-1.91-1-.76-1.67-.76Z"/>
    <path class="cls-21" d="M916.43,750.07h12.97v1.93h-12.97v-1.93Z"/>
    <path class="cls-21" d="M933.56,746.08v2.79h1.3c.46,0,.8.09,1,.27.2.18.3.47.3.87s-.1.68-.3.85-.53.26-1,.26h-4.35c-.47,0-.8-.08-1-.25-.19-.17-.29-.45-.29-.86s.1-.69.29-.87c.2-.18.52-.27.99-.27h.6v-9.05h-.16c-.36,0-.64-.1-.83-.29s-.29-.47-.29-.84c0-.4.1-.69.29-.86.19-.17.52-.26,1-.26h1.58c.2,0,.34.04.44.11.09.07.14.18.14.31v.74c.35-.46.77-.81,1.27-1.05.5-.24,1.05-.35,1.68-.35,1.4,0,2.56.45,3.49,1.34s1.38,2.02,1.38,3.38-.45,2.6-1.34,3.53c-.9.93-2.02,1.4-3.38,1.4-.55,0-1.07-.08-1.55-.23-.48-.15-.9-.38-1.26-.67ZM935.93,739.51c-.68,0-1.23.25-1.67.75s-.66,1.14-.66,1.92.22,1.42.66,1.92.99.75,1.67.75,1.24-.25,1.68-.75c.44-.5.66-1.14.66-1.91s-.22-1.42-.66-1.92c-.44-.5-1-.75-1.68-.75Z"/>
    <path class="cls-21" d="M952.3,744.8h.16c.37,0,.65.1.85.29.2.19.29.47.29.84,0,.4-.1.68-.3.86-.2.17-.54.26-1,.26h-.96c-.34,0-.6-.06-.76-.2-.17-.13-.31-.37-.42-.71-.57.38-1.17.66-1.8.86-.63.2-1.28.3-1.93.3-1.1,0-1.96-.27-2.59-.82-.63-.55-.94-1.29-.94-2.25,0-1.03.41-1.82,1.22-2.39.81-.57,1.95-.85,3.42-.85.33,0,.68.02,1.05.05s.78.09,1.24.16v-.2c0-.62-.15-1.08-.45-1.4-.3-.32-.74-.48-1.32-.48-.45,0-1.03.17-1.73.5-.7.34-1.22.5-1.54.5s-.58-.09-.78-.28c-.2-.19-.3-.44-.3-.74,0-.55.41-.99,1.21-1.32.81-.33,1.91-.49,3.31-.49s2.5.28,3.13.84.94,1.51.94,2.85v3.8ZM949.82,742.82c-.34-.08-.66-.13-.94-.17-.29-.04-.55-.06-.8-.06-.75,0-1.34.13-1.77.38-.43.25-.64.6-.64,1.04,0,.4.14.7.41.91.27.21.67.31,1.18.31.47,0,.92-.07,1.33-.21s.83-.35,1.23-.64v-1.58Z"/>
    <path class="cls-21" d="M958.91,739.82l1.85,4.37,1.94-4.37h-.16c-.37,0-.65-.1-.85-.29-.19-.19-.29-.47-.29-.84,0-.4.1-.69.29-.86.2-.17.53-.26,1.01-.26h2.41c.48,0,.82.09,1.01.26.2.17.29.46.29.86,0,.37-.1.65-.29.84s-.47.29-.84.29h-.17l-4.21,9.05h.46c.46,0,.8.09,1,.27.2.18.3.47.3.87s-.1.68-.3.86c-.2.18-.54.27-1,.27h-4.49c-.47,0-.81-.09-1-.26-.2-.17-.3-.46-.3-.87s.1-.69.3-.87.53-.27,1-.27h1.59l.96-2.06-3.11-6.99h-.16c-.37,0-.65-.1-.85-.29-.2-.19-.29-.47-.29-.84,0-.4.1-.69.3-.86.2-.17.53-.26,1-.26h2.6c.47,0,.81.09,1,.26.2.17.3.46.3.86,0,.37-.1.65-.29.84-.19.19-.47.29-.83.29h-.17Z"/>
    <path class="cls-21" d="M973.97,738.27c.29-.31.62-.54,1-.7.38-.16.78-.24,1.21-.24.93,0,1.6.28,2.01.83.41.55.62,1.47.62,2.76v3.89h.14c.32,0,.56.09.72.28.16.19.24.46.24.83,0,.41-.08.7-.25.88-.17.17-.45.26-.86.26h-1.74c-.19,0-.33-.04-.43-.12-.1-.08-.15-.19-.15-.32v-5.79c0-.46-.07-.8-.22-1.03-.14-.23-.35-.34-.62-.34-.34,0-.61.15-.79.46-.19.3-.28.74-.28,1.31v3.59h.15c.31,0,.55.09.72.28.16.19.25.46.25.83,0,.41-.09.7-.26.88-.17.17-.46.26-.86.26h-1.74c-.18,0-.33-.04-.44-.12-.11-.08-.16-.19-.16-.32v-5.79c0-.46-.07-.8-.21-1.03s-.34-.34-.62-.34c-.34,0-.61.15-.8.46-.2.31-.29.74-.29,1.3v3.59h.15c.32,0,.56.09.72.28.16.18.24.46.24.83,0,.41-.09.7-.26.88-.17.17-.46.26-.86.26h-2.33c-.4,0-.68-.09-.85-.27-.17-.18-.26-.47-.26-.87,0-.36.08-.64.24-.83.16-.19.4-.28.72-.28h.14v-4.98h-.14c-.32,0-.57-.1-.73-.29-.17-.19-.25-.47-.25-.84,0-.4.09-.68.26-.86.17-.17.46-.26.87-.26h1.38c.28,0,.47.06.57.17.1.11.15.33.15.65.25-.35.56-.61.91-.79.36-.18.75-.27,1.19-.27.4,0,.74.08,1.04.23.29.15.55.39.77.71Z"/>
    <path class="cls-21" d="M983.13,742.91c.18.76.52,1.33,1.03,1.7.51.38,1.19.56,2.04.56s1.69-.21,2.51-.62c.83-.41,1.33-.62,1.5-.62.25,0,.46.09.62.28.16.19.24.43.24.72,0,.64-.48,1.2-1.43,1.66-.95.46-2.13.7-3.53.7-1.65,0-3-.46-4.03-1.39-1.04-.93-1.55-2.12-1.55-3.59s.52-2.65,1.55-3.58c1.04-.93,2.38-1.39,4.03-1.39,1.48,0,2.7.44,3.67,1.31.97.87,1.46,1.94,1.46,3.2,0,.4-.1.68-.29.83-.19.15-.6.22-1.2.22h-6.61ZM988.66,741.31c-.12-.63-.42-1.13-.9-1.48-.48-.35-1.11-.52-1.88-.52s-1.34.17-1.8.5c-.45.33-.77.83-.95,1.5h5.53Z"/>
    <path class="cls-21" d="M1002.83,744.78h.13c.38,0,.67.09.86.28.19.19.29.47.29.85,0,.4-.1.69-.29.87-.19.18-.52.27-.99.27h-2.52c-.46,0-.79-.09-.99-.27-.2-.18-.3-.47-.3-.87,0-.38.1-.66.29-.85.2-.19.49-.28.88-.28h.12v-2.96c0-.82-.11-1.4-.34-1.75-.23-.35-.61-.52-1.14-.52-.57,0-1.03.21-1.39.62-.36.41-.54.96-.54,1.65v2.96h.12c.39,0,.68.09.87.28.19.19.29.47.29.85,0,.4-.1.69-.3.87-.2.18-.53.27-.98.27h-2.54c-.46,0-.79-.09-.98-.27-.2-.18-.3-.47-.3-.87,0-.38.1-.66.29-.85.19-.19.48-.28.87-.28h.12v-4.96h-.17c-.37,0-.65-.09-.84-.28-.19-.19-.29-.46-.29-.83,0-.4.1-.69.3-.87s.53-.27,1.01-.27h1.74c.19,0,.34.04.44.11.1.08.15.18.15.33v.8c.31-.49.72-.86,1.21-1.11.49-.25,1.05-.37,1.7-.37,1.09,0,1.91.33,2.45.99.54.66.8,1.68.8,3.04v3.43Z"/>
    <path class="cls-21" d="M1010.42,738.15h3.13c.47,0,.81.09,1,.26.2.17.3.46.3.85s-.1.69-.3.87c-.2.18-.54.27-1,.27h-3.13v2.62c0,.74.11,1.24.34,1.52s.62.41,1.19.41c.53,0,1.16-.15,1.89-.46s1.21-.46,1.46-.46c.28,0,.52.11.72.33.2.22.3.49.3.8,0,.53-.48,1.01-1.43,1.44-.95.43-2.04.65-3.25.65-.7,0-1.32-.1-1.86-.29s-.95-.46-1.26-.82c-.23-.27-.39-.6-.48-.98s-.14-1.02-.14-1.92v-2.85h-.96c-.46,0-.79-.09-.99-.27-.19-.18-.29-.47-.29-.87s.1-.69.29-.86c.19-.17.52-.25.99-.25h.96v-2.4c0-.47.1-.8.29-1,.19-.19.52-.29.97-.29s.77.1.97.29c.2.19.29.52.29,1v2.4Z"/>
    <path class="cls-21" d="M1017.25,750.07h12.97v1.93h-12.97v-1.93Z"/>
    <path class="cls-21" d="M1036.99,738.27c.29-.31.62-.54,1-.7.38-.16.78-.24,1.21-.24.93,0,1.6.28,2.01.83.41.55.62,1.47.62,2.76v3.89h.14c.32,0,.56.09.72.28.16.19.24.46.24.83,0,.41-.08.7-.25.88-.17.17-.45.26-.86.26h-1.74c-.19,0-.33-.04-.43-.12-.1-.08-.15-.19-.15-.32v-5.79c0-.46-.07-.8-.22-1.03-.14-.23-.35-.34-.62-.34-.34,0-.61.15-.79.46-.19.3-.28.74-.28,1.31v3.59h.15c.31,0,.55.09.72.28.16.19.25.46.25.83,0,.41-.09.7-.26.88-.17.17-.46.26-.86.26h-1.74c-.18,0-.33-.04-.44-.12-.11-.08-.16-.19-.16-.32v-5.79c0-.46-.07-.8-.21-1.03s-.34-.34-.62-.34c-.34,0-.61.15-.8.46-.2.31-.29.74-.29,1.3v3.59h.15c.32,0,.56.09.72.28.16.18.24.46.24.83,0,.41-.09.7-.26.88-.17.17-.46.26-.86.26h-2.33c-.4,0-.68-.09-.85-.27-.17-.18-.26-.47-.26-.87,0-.36.08-.64.24-.83.16-.19.4-.28.72-.28h.14v-4.98h-.14c-.32,0-.57-.1-.73-.29-.17-.19-.25-.47-.25-.84,0-.4.09-.68.26-.86.17-.17.46-.26.87-.26h1.38c.28,0,.47.06.57.17.1.11.15.33.15.65.25-.35.56-.61.91-.79.36-.18.75-.27,1.19-.27.4,0,.74.08,1.04.23.29.15.55.39.77.71Z"/>
    <path class="cls-21" d="M1046.14,742.91c.18.76.52,1.33,1.03,1.7.51.38,1.19.56,2.04.56s1.69-.21,2.51-.62c.83-.41,1.33-.62,1.5-.62.25,0,.46.09.62.28.16.19.24.43.24.72,0,.64-.48,1.2-1.43,1.66-.95.46-2.13.7-3.53.7-1.65,0-3-.46-4.03-1.39-1.04-.93-1.55-2.12-1.55-3.59s.52-2.65,1.55-3.58c1.04-.93,2.38-1.39,4.03-1.39,1.48,0,2.7.44,3.67,1.31.97.87,1.46,1.94,1.46,3.2,0,.4-.1.68-.29.83-.19.15-.6.22-1.2.22h-6.61ZM1051.67,741.31c-.12-.63-.42-1.13-.9-1.48-.48-.35-1.11-.52-1.88-.52s-1.34.17-1.8.5c-.45.33-.77.83-.95,1.5h5.53Z"/>
    <path class="cls-21" d="M1060.82,738.15h3.13c.47,0,.81.09,1,.26.2.17.3.46.3.85s-.1.69-.3.87c-.2.18-.54.27-1,.27h-3.13v2.62c0,.74.11,1.24.34,1.52s.62.41,1.19.41c.53,0,1.16-.15,1.89-.46s1.21-.46,1.46-.46c.28,0,.52.11.72.33.2.22.3.49.3.8,0,.53-.48,1.01-1.43,1.44-.95.43-2.04.65-3.25.65-.7,0-1.32-.1-1.86-.29s-.95-.46-1.26-.82c-.23-.27-.39-.6-.48-.98s-.14-1.02-.14-1.92v-2.85h-.96c-.46,0-.79-.09-.99-.27-.19-.18-.29-.47-.29-.87s.1-.69.29-.86c.19-.17.52-.25.99-.25h.96v-2.4c0-.47.1-.8.29-1,.19-.19.52-.29.97-.29s.77.1.97.29c.2.19.29.52.29,1v2.4Z"/>
    <path class="cls-21" d="M1072.48,738.61c.24-.42.58-.73,1.02-.95s.96-.33,1.57-.33c1.08,0,1.91.31,2.5.94.58.63.88,1.53.88,2.71v3.82h.17c.36,0,.64.09.83.28.19.19.28.46.28.83,0,.4-.1.69-.29.87-.19.18-.52.27-.99.27h-2.54c-.46,0-.78-.09-.98-.27-.19-.18-.29-.47-.29-.87,0-.37.09-.65.28-.83.19-.18.46-.28.83-.28h.16v-2.98c0-.88-.11-1.48-.32-1.82-.21-.34-.58-.51-1.1-.51-.55,0-1.02.22-1.41.66-.39.44-.58,1-.58,1.67v2.98h.16c.37,0,.65.09.84.28s.28.46.28.83c0,.4-.1.69-.3.87s-.53.27-.98.27h-2.54c-.47,0-.8-.09-.99-.26-.19-.17-.29-.47-.29-.88,0-.36.09-.64.28-.83s.46-.28.83-.28h.17v-8.9h-.17c-.36,0-.64-.1-.84-.29s-.29-.48-.29-.85c0-.4.1-.69.3-.87.2-.18.53-.27,1-.27h1.93c.23,0,.39.05.48.14.09.1.13.27.13.53v4.31Z"/>
    <path class="cls-21" d="M1086.74,737.35c1.66,0,3.01.46,4.04,1.39s1.55,2.12,1.55,3.58-.52,2.66-1.55,3.59c-1.03.93-2.38,1.39-4.04,1.39s-3-.46-4.03-1.39c-1.03-.93-1.55-2.12-1.55-3.59s.52-2.65,1.55-3.58c1.04-.93,2.38-1.39,4.02-1.39ZM1086.74,739.51c-.8,0-1.46.26-1.97.79-.52.52-.77,1.19-.77,2s.26,1.5.77,2.04c.52.54,1.17.8,1.97.8s1.46-.27,1.98-.8c.52-.54.78-1.22.78-2.04s-.26-1.48-.77-2c-.52-.52-1.18-.79-1.98-.79Z"/>
    <path class="cls-21" d="M1103.71,744.8h.17c.37,0,.65.09.83.28.18.19.28.46.28.83,0,.4-.1.69-.29.87-.19.18-.52.27-.99.27h-1.57c-.2,0-.35-.04-.46-.12-.11-.08-.16-.19-.16-.32v-.72c-.34.46-.77.81-1.29,1.05-.53.24-1.12.36-1.77.36-1.34,0-2.46-.46-3.36-1.37-.9-.91-1.35-2.05-1.35-3.42s.46-2.6,1.37-3.54c.91-.94,2.07-1.4,3.48-1.4.49,0,.96.08,1.42.24.46.16.88.39,1.27.68v-2.59h-1.36c-.47,0-.81-.09-1-.27-.2-.18-.3-.47-.3-.87s.1-.69.3-.87c.2-.18.53-.27,1-.27h3.19c.23,0,.39.05.48.14.08.1.13.27.13.53v10.5ZM1098.9,739.75c-.67,0-1.23.25-1.67.75-.44.5-.66,1.14-.66,1.91s.22,1.44.66,1.94c.44.5.99.75,1.67.75s1.24-.25,1.68-.76c.44-.51.66-1.15.66-1.94s-.22-1.4-.67-1.91-1-.76-1.67-.76Z"/>
    <path class="cls-21" d="M1105.46,750.07h12.97v1.93h-12.97v-1.93Z"/>
    <path class="cls-21" d="M1125.98,744.8h2.2c.47,0,.81.09,1.01.26.2.17.3.46.3.85s-.1.69-.3.87c-.2.18-.54.27-1,.27h-6.93c-.46,0-.8-.09-1-.27-.2-.18-.3-.47-.3-.87s.1-.68.29-.85c.2-.17.53-.26,1.01-.26h2.21v-4.98h-1.16c-.46,0-.79-.09-.98-.26-.2-.17-.3-.46-.3-.87s.1-.69.29-.86c.19-.17.52-.26,1-.26h3.09c.19,0,.34.04.44.12.1.08.15.19.15.32v6.79ZM1124.5,732.94c.5,0,.83.1,1,.29s.25.65.25,1.37-.07,1.13-.22,1.3c-.15.17-.49.25-1.04.25s-.88-.08-1.03-.24c-.15-.16-.23-.47-.23-.94,0-.88.08-1.43.24-1.67s.51-.36,1.05-.36Z"/>
    <path class="cls-21" d="M1141.51,744.8h.17c.37,0,.65.09.83.28.18.19.28.46.28.83,0,.4-.1.69-.29.87-.19.18-.52.27-.99.27h-1.57c-.2,0-.35-.04-.46-.12-.11-.08-.16-.19-.16-.32v-.72c-.34.46-.77.81-1.29,1.05-.53.24-1.12.36-1.77.36-1.34,0-2.46-.46-3.36-1.37-.9-.91-1.35-2.05-1.35-3.42s.46-2.6,1.37-3.54c.91-.94,2.07-1.4,3.48-1.4.49,0,.96.08,1.42.24.46.16.88.39,1.27.68v-2.59h-1.36c-.47,0-.81-.09-1-.27-.2-.18-.3-.47-.3-.87s.1-.69.3-.87c.2-.18.53-.27,1-.27h3.19c.23,0,.39.05.48.14.08.1.13.27.13.53v10.5ZM1136.71,739.75c-.67,0-1.23.25-1.67.75-.44.5-.66,1.14-.66,1.91s.22,1.44.66,1.94c.44.5.99.75,1.67.75s1.24-.25,1.68-.76c.44-.51.66-1.15.66-1.94s-.22-1.4-.67-1.91-1-.76-1.67-.76Z"/>
  </g>
  <text class="cls-20" transform="translate(339.43 680.96)"><tspan x="0" y="0">stored_payment_method_id</tspan></text>
  <rect class="cls-30" x="396.74" y="877.32" width="324.01" height="45.28" rx="9.28" ry="9.28"/>
  <text class="cls-19" transform="translate(473.68 908.19)"><tspan class="cls-33" x="0" y="0">W</tspan><tspan class="cls-24" x="23.98" y="0">ebhook</tspan><tspan class="cls-15" x="116.08" y="0">通知</tspan></text>
  <g>
    <path class="cls-36" d="M240.13,333.6c-.05.1-.1.22-.22.31-.31,6.91-.98,11.26-1.92,12.96-.96,1.66-2.35,1.73-3.14,1.73-.94,0-2.64-.22-4.3-.55.05-.48,0-1.2-.07-1.7,1.8.41,3.65.6,4.2.6.86,0,1.34-.22,1.85-1.13.72-1.46,1.32-5.5,1.56-10.9h-7.68c-1.2,5.74-3.58,10.49-7.92,13.75-.29-.31-.91-.77-1.37-1.06,4.15-3.12,6.34-7.22,7.49-12.7h-6.62v-1.61h6.96c.29-1.7.43-3.24.55-5.23l2.38.19c-.02.26-.24.41-.6.43-.14,1.75-.26,3.07-.53,4.61h7.78l.38-.14,1.22.43Z"/>
    <path class="cls-36" d="M244.28,337.13h20.04v1.7h-19.13c-.14.24-.46.41-.77.46l-.14-2.16Z"/>
    <path class="cls-36" d="M282.08,340.73c-2.45-1.32-5.81-2.88-8.42-3.91v11.98h-1.8v-20.86l2.42.14c-.02.26-.22.43-.62.5v7.06l.36-.53c2.81,1.03,6.53,2.69,9.02,4.01l-.96,1.61ZM279.56,329.42c1.1.91,2.54,2.42,3.31,3.53l-.91.74c-.72-1.03-2.18-2.64-3.26-3.5l.86-.77ZM282.78,327.36c1.13.94,2.57,2.45,3.29,3.5l-.86.74c-.74-1.03-2.21-2.62-3.29-3.5l.86-.74Z"/>
    <path class="cls-36" d="M290.19,332.16c0,2.14-.41,4.73-1.39,6.26-.89-.53-1.03-.6-1.2-.67.86-1.32,1.25-3.77,1.3-5.78l1.3.19ZM291.13,327.24l2.04.14c-.02.17-.14.29-.46.31v21.82h-1.58v-22.27ZM294.83,335.02c-.34-.91-1.08-2.42-1.73-3.53l1.1-.55c.7,1.08,1.46,2.5,1.78,3.38l-1.15.7ZM303.25,335.33h6.7v1.37h-14.86v-1.37h6.48v-1.75h-4.68v-1.25h4.68v-1.63h-5.64v-1.3h5.64v-2.16l2.16.14c-.02.17-.14.29-.48.34v1.68h5.86v1.3h-5.86v1.63h4.87v1.25h-4.87v1.75ZM307.79,338.3v9.53c0,1.56-.62,1.73-3.96,1.73-.07-.41-.29-.98-.5-1.39.67.02,1.3.05,1.75.05.98,0,1.1,0,1.1-.38v-2.14h-7.46v3.82h-1.56v-11.21h10.63ZM306.18,339.62h-7.46v1.8h7.46v-1.8ZM298.71,344.47h7.46v-1.82h-7.46v1.82Z"/>
    <path class="cls-36" d="M318.08,331.1v2.69h4.82v1.42h-11.14v-1.42h4.8v-2.69h-3.84v-1.39h3.84v-2.42l1.97.12c-.02.17-.14.29-.46.31v1.99h3.82v1.39h-3.82ZM318.49,339.05c.5-.96,1.13-2.54,1.44-3.58l1.7.58c-.07.14-.24.22-.5.22-.38.84-.98,2.11-1.54,2.98h2.88v1.42h-4.42v2.78h4.1v1.42h-4.1v4.73h-1.51v-4.73h-4.13v-1.42h4.13v-2.78h-4.44v-1.42h6.82l-.43-.19ZM314.55,339.1c-.12-.86-.58-2.26-1.1-3.31l1.25-.34c.53,1.03,1.01,2.4,1.15,3.24l-1.3.41ZM332.17,337.51l1.01.36c-.05.14-.1.22-.17.31-.43,2.54-1.32,5.06-2.64,7.22,1.06,1.2,2.28,2.16,3.65,2.76-.38.34-.89.96-1.13,1.39-1.3-.67-2.45-1.63-3.46-2.81-.82,1.01-1.73,1.9-2.81,2.62-.26-.36-.72-.82-1.1-1.08,1.13-.74,2.11-1.7,2.93-2.83-1.18-1.66-2.09-3.62-2.71-5.69l1.3-.34c.53,1.66,1.32,3.26,2.28,4.66.89-1.56,1.51-3.31,1.9-5.09h-6.12v10.58h-1.54v-21.19h9.34v6.02c0,1.73-.86,1.73-4.13,1.73-.05-.41-.29-.98-.48-1.39.62,0,1.22.02,1.68.02,1.32,0,1.42,0,1.42-.38v-4.51h-6.29v7.7h6.79l.29-.07Z"/>
    <path class="cls-36" d="M338.07,348.22c-.74-1.73-1.03-5.3-1.03-8.45s.5-7.2,1.3-11.21l2.33.46c-.05.24-.29.41-.62.43-.86,3.29-1.39,7.56-1.39,10.35,0,1.82.02,3.65.22,4.54.53-1.44,1.49-3.74,1.99-4.87l1.08,1.01c-.79,1.63-2.47,5.28-2.47,6.41,0,.34.07.7.24,1.15l-1.63.19ZM344.17,334.08c2.02.02,4.03.05,6.05-.1-.1-2.06-.17-3.84-.22-5.62l2.42.07c-.02.24-.24.43-.62.5.02,1.54.07,3.1.12,4.92,1.9-.19,3.43-.53,4.7-.96l.22,1.68c-1.15.36-2.81.7-4.85.86.1,2.66.22,5.47.29,7.01,1.82.74,3.65,1.92,4.9,3.05l-.94,1.54c-.98-.98-2.4-2.04-3.89-2.74-.02,2.04-.41,4.32-4.01,4.32-2.81,0-4.68-1.34-4.68-3.46,0-2.45,2.47-3.53,4.68-3.53.74,0,1.54.1,2.28.31-.07-1.51-.22-4.03-.34-6.38-.74.05-1.75.07-2.45.07h-3.65l-.02-1.56ZM350.75,343.51c-.77-.24-1.58-.43-2.38-.43-1.46,0-3.22.53-3.22,2.04,0,1.34,1.44,2.02,3.19,2.02s2.42-.86,2.42-2.78l-.02-.84Z"/>
    <path class="cls-36" d="M184.69,367.27h22.23v1.78h-22.23v-1.78Z"/>
    <path class="cls-36" d="M212.91,372.38c0,.86.12,1.01.82,1.01h2.35c.65,0,.77-.62.84-3.53.36.29,1.01.58,1.46.7-.17,3.36-.58,4.37-2.18,4.37h-2.69c-1.73,0-2.18-.53-2.18-2.57v-6.34l-2.74.6-.29-1.46,3.02-.67v-6.55l2.06.12c-.02.17-.14.29-.48.34v5.74c3.96-.89,4.8-1.03,5.64-1.18.05.34.12.67.29,1.44l-5.93,1.3v6.7ZM229.64,359.47l.89.07c-.02.14-.02.38-.05.55-.38,12.77-.74,16.92-1.75,18.17-.7.94-1.44,1.06-3.02,1.06-.7,0-1.49-.05-2.28-.1-.02-.48-.22-1.18-.5-1.63,1.46.1,2.76.12,3.31.12.46,0,.72-.1,1.01-.41.79-.94,1.25-5.06,1.58-16.27h-5.26c-.24,6.67-.65,14.57-7.08,18.55-.26-.41-.79-.96-1.22-1.22,6.05-3.53,6.5-10.85,6.65-17.33h-4.49v-1.56h12.22Z"/>
    <path class="cls-36" d="M235.86,365.74c-.91,1.51-1.92,2.86-2.93,4.01-.17-.38-.58-1.13-.84-1.51,2.3-2.5,4.61-6.65,6-10.8l1.92.65c-.1.17-.26.24-.55.22-.62,1.68-1.37,3.36-2.21,4.97l.65.17c-.05.14-.17.26-.48.29v15.91h-1.56v-13.9ZM254.75,370.78h-5.9c1.58,2.64,4.18,5.18,6.58,6.48-.38.31-.89.89-1.15,1.3-2.33-1.46-4.8-4.13-6.46-6.91v7.92h-1.61v-7.8c-1.73,2.78-4.32,5.35-6.77,6.74-.26-.41-.77-.98-1.13-1.3,2.54-1.25,5.23-3.79,6.89-6.43h-6.24v-1.51h7.25v-2.78h-5.4v-8.06h12.62v8.06h-5.62v2.78h6.94v1.51ZM242.36,359.88v5.14h9.48v-5.14h-9.48Z"/>
    <path class="cls-36" d="M278.39,361.99h-13.25c-.82,1.85-1.82,3.7-3.02,5.4l.26.07c-.05.17-.19.29-.48.31v11.78h-1.61v-9.91c-.91,1.01-1.9,1.92-3,2.74-.19-.43-.62-1.1-.86-1.46,1.46-1.06,2.74-2.35,3.86-3.79v-.19l.12.02c1.15-1.54,2.11-3.22,2.93-4.97h-6.19v-1.54h6.84c.41-1.06.77-2.14,1.06-3.19l2.09.55c-.07.17-.24.26-.55.26-.24.79-.5,1.58-.82,2.38h12.62v1.54ZM278.87,371.23v1.51h-6.62v4.82c0,1.01-.22,1.49-.98,1.73-.77.24-2.11.26-4.25.26-.07-.48-.29-1.1-.53-1.56.86.02,1.66.05,2.28.05,1.78,0,1.85-.02,1.85-.48v-4.82h-6.94v-1.51h6.94v-2.3l.62.02c1.1-.67,2.3-1.63,3.24-2.57h-8.69v-1.49h10.2l.29-.1,1.25.82c-.07.12-.22.19-.36.19-1.22,1.32-3.17,2.95-4.92,4.03v1.39h6.62Z"/>
    <path class="cls-36" d="M300.73,362.78c-2.18.62-5.11,1.06-7.99,1.32.94,3.26,1.94,5.21,4.54,6.34l-1.18,1.46c-1.1-.84-2.23-1.49-5.35-1.66l-.29-1.42c1.18.1,2.06.24,2.66.36-.84-1.01-1.49-2.54-2.14-4.97-1.08.1-2.54.14-3.98.14-1.56,0-4.1-.02-5.64-.07v-1.63c1.44.07,3.48.07,5.67.07,1.22,0,2.62-.02,3.58-.12-.29-1.3-.55-3.07-.84-4.92l2.57.05c-.02.29-.24.46-.62.55.14,1.37.38,2.88.65,4.2,2.76-.24,5.88-.74,7.99-1.42l.38,1.7ZM296.43,378.58c-1.15.05-2.38.07-4.46.07-5.02,0-8.57-1.54-8.57-4.75,0-1.37.84-2.76,2.16-4.03l1.3,1.03c-1.08.86-1.73,2.04-1.73,2.95,0,2.38,3.07,3.14,6.89,3.14,2.09,0,3.31-.05,4.54-.12l-.12,1.7Z"/>
    <path class="cls-36" d="M303.8,362.76c1.94,0,3.72-.17,4.51-.36.05-1.44.07-2.23.17-4.42l2.47.19c-.05.26-.26.43-.67.48-.1,1.06-.19,2.54-.24,3.43l.74.29c-.58,1.15-.82,2.57-.96,3.43,2.64-2.47,5.57-4.22,7.56-4.22,2.26,0,3.38,1.58,3.38,4.37,0,.31-.02.62-.05.94-.17,2.11-.41,5.11-.41,7.03,0,1.44.17,2.21,1.18,2.21.72,0,2.16-.72,3.19-1.61.05.48.24,1.46.34,1.82-1.22.89-2.66,1.56-3.77,1.56-2.02,0-2.69-1.2-2.69-3.7,0-1.25.43-7.85.43-7.87,0-2.09-.72-3.02-1.9-3.02-1.8,0-4.83,1.94-7.32,4.58,0,3.48,0,7.75.02,11.02h-1.68c.02-1.39,0-8.23.02-9.77-.84,1.68-2.47,3.86-4.37,5.78l-.86-1.51c1.99-1.87,4.22-4.78,5.28-7.25,0-.7.02-1.34.05-2.11-.84.19-2.59.38-4.42.41l-.02-1.7Z"/>
    <path class="cls-36" d="M327.66,360.98c1.49.1,3.48.1,5.11.1,1.08,0,2.3-.02,3.31-.05-.02-1.15-.05-2.5-.05-3.34l2.42.12c-.02.29-.24.43-.65.5-.02.38,0,2.23,0,2.64,2.81-.14,5.59-.38,7.97-.94l.22,1.58c-2.35.53-5.14.77-8.18.91.02,1.44.05,2.93.1,4.42,2.33-.14,4.82-.46,6.77-.94l.19,1.56c-2.02.43-4.54.72-6.94.84l.19,4.01c2.21.72,4.56,1.97,7.06,3.74l-1.06,1.46c-2.16-1.7-4.2-2.86-5.95-3.53,0,.38.02.82.02,1.13-.02,2.28-1.39,3.6-4.3,3.6-3.05,0-5.28-1.25-5.28-3.5s2.62-3.58,5.3-3.58c.79,0,1.63.07,2.52.29-.02-1.03-.07-2.28-.1-3.58-.77.02-1.63.05-2.33.05-4.1,0-5.26-.65-5.26-2.04,0-.91.7-1.66,2.23-2.64l1.15.74c-1.08.6-1.66,1.13-1.66,1.61,0,.72,1.13.86,4.18.86.53,0,1.08,0,1.61-.02l-.14-4.44c-1.03.05-2.23.05-3.31.05-1.54,0-3.72,0-5.16-.05v-1.58ZM336.54,373.49c-.96-.26-1.85-.38-2.69-.38-1.82,0-3.67.74-3.67,2.18s1.68,2.11,3.77,2.11c1.9,0,2.62-.84,2.62-2.52l-.02-1.39Z"/>
    <path class="cls-36" d="M365.46,358.13c0,.24-.17.36-.53.46.1,1.68.17,3.65.22,5.45,1.9-.31,3.72-.6,5.14-.82l.14,1.68c-1.44.14-3.31.41-5.26.72.02,2.21-.02,4.15-.26,5.33-.29,1.42-1.32,2.23-2.69,2.23-.98,0-2.38-.34-3.7-1.06.12-.36.22-.96.29-1.42,1.34.72,2.57.94,3.14.94,1.44,0,1.66-1.42,1.54-5.78-2.76.46-5.64.94-7.82,1.32.05,2.28.1,4.46.19,5.81.29,3.65,2.09,3.86,5.54,3.86,1.97,0,4.56-.12,6.29-.36l.05,1.63c-1.7.19-4.13.26-6.14.26-3.72,0-6.98-.1-7.39-5.26-.12-1.34-.17-3.43-.22-5.66-1.49.26-3.46.65-4.68.89l-.26-1.61c1.27-.19,3.26-.55,4.92-.82-.02-2.09-.05-4.34-.05-6.17l2.38.22c-.02.26-.22.41-.6.46-.02,1.46-.02,3.38,0,5.18l7.78-1.3c-.07-2.04-.17-4.37-.31-6.31l2.3.12Z"/>
    <path class="cls-36" d="M372.37,377.88c1.78-5.09,4.73-13.58,5.67-16.13.46-1.3,1.08-3.12,1.25-3.72l2.59.67c-.12.34-.46.46-.94.46-1.32,3.29-3.36,8.9-4.25,11.31h.02c1.42-1.73,3.58-2.95,5.26-2.95,2.09,0,3.1,1.42,3.02,3.65l-.07,2.86c-.02,1.8.94,2.78,2.5,2.78,2.16,0,4.15-2.47,5.26-6.6.48.34,1.06.65,1.56.89-1.32,4.58-3.7,7.46-6.89,7.46-2.54,0-4.2-1.54-4.2-3.98,0-.46.07-2.66.07-3.17,0-1.51-.62-2.3-1.68-2.3-2.76,0-5.54,4.01-6.14,5.57-.34.84-.86,2.38-1.32,3.77l-1.7-.55Z"/>
  </g>
  <g>
    <path class="cls-22" d="M1058.13,333.6c-.05.1-.1.22-.22.31-.31,6.91-.98,11.26-1.92,12.96-.96,1.66-2.35,1.73-3.14,1.73-.94,0-2.64-.22-4.3-.55.05-.48,0-1.2-.07-1.7,1.8.41,3.65.6,4.2.6.86,0,1.34-.22,1.85-1.13.72-1.46,1.32-5.5,1.56-10.9h-7.68c-1.2,5.74-3.58,10.49-7.92,13.75-.29-.31-.91-.77-1.37-1.06,4.15-3.12,6.34-7.22,7.49-12.7h-6.62v-1.61h6.96c.29-1.7.43-3.24.55-5.23l2.38.19c-.02.26-.24.41-.6.43-.14,1.75-.26,3.07-.53,4.61h7.78l.38-.14,1.22.43Z"/>
    <path class="cls-22" d="M1062.28,337.13h20.04v1.7h-19.13c-.14.24-.46.41-.77.46l-.14-2.16Z"/>
    <path class="cls-22" d="M1100.08,340.73c-2.45-1.32-5.81-2.88-8.42-3.91v11.98h-1.8v-20.86l2.42.14c-.02.26-.22.43-.62.5v7.06l.36-.53c2.81,1.03,6.53,2.69,9.02,4.01l-.96,1.61ZM1097.56,329.42c1.1.91,2.54,2.42,3.31,3.53l-.91.74c-.72-1.03-2.18-2.64-3.26-3.5l.86-.77ZM1100.78,327.36c1.13.94,2.57,2.45,3.29,3.5l-.86.74c-.74-1.03-2.21-2.62-3.29-3.5l.86-.74Z"/>
    <path class="cls-22" d="M1108.19,332.16c0,2.14-.41,4.73-1.39,6.26-.89-.53-1.03-.6-1.2-.67.86-1.32,1.25-3.77,1.3-5.78l1.3.19ZM1109.13,327.24l2.04.14c-.02.17-.14.29-.46.31v21.82h-1.58v-22.27ZM1112.83,335.02c-.34-.91-1.08-2.42-1.73-3.53l1.1-.55c.7,1.08,1.46,2.5,1.78,3.38l-1.15.7ZM1121.25,335.33h6.7v1.37h-14.86v-1.37h6.48v-1.75h-4.68v-1.25h4.68v-1.63h-5.64v-1.3h5.64v-2.16l2.16.14c-.02.17-.14.29-.48.34v1.68h5.86v1.3h-5.86v1.63h4.87v1.25h-4.87v1.75ZM1125.79,338.3v9.53c0,1.56-.62,1.73-3.96,1.73-.07-.41-.29-.98-.5-1.39.67.02,1.3.05,1.75.05.98,0,1.1,0,1.1-.38v-2.14h-7.46v3.82h-1.56v-11.21h10.63ZM1124.18,339.62h-7.46v1.8h7.46v-1.8ZM1116.71,344.47h7.46v-1.82h-7.46v1.82Z"/>
    <path class="cls-22" d="M1136.08,331.1v2.69h4.82v1.42h-11.14v-1.42h4.8v-2.69h-3.84v-1.39h3.84v-2.42l1.97.12c-.02.17-.14.29-.46.31v1.99h3.82v1.39h-3.82ZM1136.49,339.05c.5-.96,1.13-2.54,1.44-3.58l1.7.58c-.07.14-.24.22-.5.22-.38.84-.98,2.11-1.54,2.98h2.88v1.42h-4.42v2.78h4.1v1.42h-4.1v4.73h-1.51v-4.73h-4.13v-1.42h4.13v-2.78h-4.44v-1.42h6.82l-.43-.19ZM1132.55,339.1c-.12-.86-.58-2.26-1.1-3.31l1.25-.34c.53,1.03,1.01,2.4,1.15,3.24l-1.3.41ZM1150.17,337.51l1.01.36c-.05.14-.1.22-.17.31-.43,2.54-1.32,5.06-2.64,7.22,1.06,1.2,2.28,2.16,3.65,2.76-.38.34-.89.96-1.13,1.39-1.3-.67-2.45-1.63-3.46-2.81-.82,1.01-1.73,1.9-2.81,2.62-.26-.36-.72-.82-1.1-1.08,1.13-.74,2.11-1.7,2.93-2.83-1.18-1.66-2.09-3.62-2.71-5.69l1.3-.34c.53,1.66,1.32,3.26,2.28,4.66.89-1.56,1.51-3.31,1.9-5.09h-6.12v10.58h-1.54v-21.19h9.34v6.02c0,1.73-.86,1.73-4.13,1.73-.05-.41-.29-.98-.48-1.39.62,0,1.22.02,1.68.02,1.32,0,1.42,0,1.42-.38v-4.51h-6.29v7.7h6.79l.29-.07Z"/>
    <path class="cls-22" d="M1156.07,348.22c-.74-1.73-1.03-5.3-1.03-8.45s.5-7.2,1.3-11.21l2.33.46c-.05.24-.29.41-.62.43-.86,3.29-1.39,7.56-1.39,10.35,0,1.82.02,3.65.22,4.54.53-1.44,1.49-3.74,1.99-4.87l1.08,1.01c-.79,1.63-2.47,5.28-2.47,6.41,0,.34.07.7.24,1.15l-1.63.19ZM1162.17,334.08c2.02.02,4.03.05,6.05-.1-.1-2.06-.17-3.84-.22-5.62l2.42.07c-.02.24-.24.43-.62.5.02,1.54.07,3.1.12,4.92,1.9-.19,3.43-.53,4.7-.96l.22,1.68c-1.15.36-2.81.7-4.85.86.1,2.66.22,5.47.29,7.01,1.82.74,3.65,1.92,4.9,3.05l-.94,1.54c-.98-.98-2.4-2.04-3.89-2.74-.02,2.04-.41,4.32-4.01,4.32-2.81,0-4.68-1.34-4.68-3.46,0-2.45,2.47-3.53,4.68-3.53.74,0,1.54.1,2.28.31-.07-1.51-.22-4.03-.34-6.38-.74.05-1.75.07-2.45.07h-3.65l-.02-1.56ZM1168.75,343.51c-.77-.24-1.58-.43-2.38-.43-1.46,0-3.22.53-3.22,2.04,0,1.34,1.44,2.02,3.19,2.02s2.42-.86,2.42-2.78l-.02-.84Z"/>
    <path class="cls-22" d="M1002.69,367.27h22.23v1.78h-22.23v-1.78Z"/>
    <path class="cls-22" d="M1030.91,372.38c0,.86.12,1.01.82,1.01h2.35c.65,0,.77-.62.84-3.53.36.29,1.01.58,1.46.7-.17,3.36-.58,4.37-2.18,4.37h-2.69c-1.73,0-2.18-.53-2.18-2.57v-6.34l-2.74.6-.29-1.46,3.02-.67v-6.55l2.06.12c-.02.17-.14.29-.48.34v5.74c3.96-.89,4.8-1.03,5.64-1.18.05.34.12.67.29,1.44l-5.93,1.3v6.7ZM1047.64,359.47l.89.07c-.02.14-.02.38-.05.55-.38,12.77-.74,16.92-1.75,18.17-.7.94-1.44,1.06-3.02,1.06-.7,0-1.49-.05-2.28-.1-.02-.48-.22-1.18-.5-1.63,1.46.1,2.76.12,3.31.12.46,0,.72-.1,1.01-.41.79-.94,1.25-5.06,1.58-16.27h-5.26c-.24,6.67-.65,14.57-7.08,18.55-.26-.41-.79-.96-1.22-1.22,6.05-3.53,6.5-10.85,6.65-17.33h-4.49v-1.56h12.22Z"/>
    <path class="cls-22" d="M1053.86,365.74c-.91,1.51-1.92,2.86-2.93,4.01-.17-.38-.58-1.13-.84-1.51,2.3-2.5,4.61-6.65,6-10.8l1.92.65c-.1.17-.26.24-.55.22-.62,1.68-1.37,3.36-2.21,4.97l.65.17c-.05.14-.17.26-.48.29v15.91h-1.56v-13.9ZM1072.75,370.78h-5.9c1.58,2.64,4.18,5.18,6.58,6.48-.38.31-.89.89-1.15,1.3-2.33-1.46-4.8-4.13-6.46-6.91v7.92h-1.61v-7.8c-1.73,2.78-4.32,5.35-6.77,6.74-.26-.41-.77-.98-1.13-1.3,2.54-1.25,5.23-3.79,6.89-6.43h-6.24v-1.51h7.25v-2.78h-5.4v-8.06h12.62v8.06h-5.62v2.78h6.94v1.51ZM1060.36,359.88v5.14h9.48v-5.14h-9.48Z"/>
    <path class="cls-22" d="M1096.39,361.99h-13.25c-.82,1.85-1.82,3.7-3.02,5.4l.26.07c-.05.17-.19.29-.48.31v11.78h-1.61v-9.91c-.91,1.01-1.9,1.92-3,2.74-.19-.43-.62-1.1-.86-1.46,1.46-1.06,2.74-2.35,3.86-3.79v-.19l.12.02c1.15-1.54,2.11-3.22,2.93-4.97h-6.19v-1.54h6.84c.41-1.06.77-2.14,1.06-3.19l2.09.55c-.07.17-.24.26-.55.26-.24.79-.5,1.58-.82,2.38h12.62v1.54ZM1096.87,371.23v1.51h-6.62v4.82c0,1.01-.22,1.49-.98,1.73-.77.24-2.11.26-4.25.26-.07-.48-.29-1.1-.53-1.56.86.02,1.66.05,2.28.05,1.78,0,1.85-.02,1.85-.48v-4.82h-6.94v-1.51h6.94v-2.3l.62.02c1.1-.67,2.3-1.63,3.24-2.57h-8.69v-1.49h10.2l.29-.1,1.25.82c-.07.12-.22.19-.36.19-1.22,1.32-3.17,2.95-4.92,4.03v1.39h6.62Z"/>
    <path class="cls-22" d="M1118.73,362.78c-2.18.62-5.11,1.06-7.99,1.32.94,3.26,1.94,5.21,4.54,6.34l-1.18,1.46c-1.1-.84-2.23-1.49-5.35-1.66l-.29-1.42c1.18.1,2.06.24,2.66.36-.84-1.01-1.49-2.54-2.14-4.97-1.08.1-2.54.14-3.98.14-1.56,0-4.1-.02-5.64-.07v-1.63c1.44.07,3.48.07,5.67.07,1.22,0,2.62-.02,3.58-.12-.29-1.3-.55-3.07-.84-4.92l2.57.05c-.02.29-.24.46-.62.55.14,1.37.38,2.88.65,4.2,2.76-.24,5.88-.74,7.99-1.42l.38,1.7ZM1114.43,378.58c-1.15.05-2.38.07-4.46.07-5.02,0-8.57-1.54-8.57-4.75,0-1.37.84-2.76,2.16-4.03l1.3,1.03c-1.08.86-1.73,2.04-1.73,2.95,0,2.38,3.07,3.14,6.89,3.14,2.09,0,3.31-.05,4.54-.12l-.12,1.7Z"/>
    <path class="cls-22" d="M1121.8,362.76c1.94,0,3.72-.17,4.51-.36.05-1.44.07-2.23.17-4.42l2.47.19c-.05.26-.26.43-.67.48-.1,1.06-.19,2.54-.24,3.43l.74.29c-.58,1.15-.82,2.57-.96,3.43,2.64-2.47,5.57-4.22,7.56-4.22,2.26,0,3.38,1.58,3.38,4.37,0,.31-.02.62-.05.94-.17,2.11-.41,5.11-.41,7.03,0,1.44.17,2.21,1.18,2.21.72,0,2.16-.72,3.19-1.61.05.48.24,1.46.34,1.82-1.22.89-2.66,1.56-3.77,1.56-2.02,0-2.69-1.2-2.69-3.7,0-1.25.43-7.85.43-7.87,0-2.09-.72-3.02-1.9-3.02-1.8,0-4.83,1.94-7.32,4.58,0,3.48,0,7.75.02,11.02h-1.68c.02-1.39,0-8.23.02-9.77-.84,1.68-2.47,3.86-4.37,5.78l-.86-1.51c1.99-1.87,4.22-4.78,5.28-7.25,0-.7.02-1.34.05-2.11-.84.19-2.59.38-4.42.41l-.02-1.7Z"/>
    <path class="cls-22" d="M1145.66,360.98c1.49.1,3.48.1,5.11.1,1.08,0,2.3-.02,3.31-.05-.02-1.15-.05-2.5-.05-3.34l2.42.12c-.02.29-.24.43-.65.5-.02.38,0,2.23,0,2.64,2.81-.14,5.59-.38,7.97-.94l.22,1.58c-2.35.53-5.14.77-8.18.91.02,1.44.05,2.93.1,4.42,2.33-.14,4.82-.46,6.77-.94l.19,1.56c-2.02.43-4.54.72-6.94.84l.19,4.01c2.21.72,4.56,1.97,7.06,3.74l-1.06,1.46c-2.16-1.7-4.2-2.86-5.95-3.53,0,.38.02.82.02,1.13-.02,2.28-1.39,3.6-4.3,3.6-3.05,0-5.28-1.25-5.28-3.5s2.62-3.58,5.3-3.58c.79,0,1.63.07,2.52.29-.02-1.03-.07-2.28-.1-3.58-.77.02-1.63.05-2.33.05-4.1,0-5.26-.65-5.26-2.04,0-.91.7-1.66,2.23-2.64l1.15.74c-1.08.6-1.66,1.13-1.66,1.61,0,.72,1.13.86,4.18.86.53,0,1.08,0,1.61-.02l-.14-4.44c-1.03.05-2.23.05-3.31.05-1.54,0-3.72,0-5.16-.05v-1.58ZM1154.54,373.49c-.96-.26-1.85-.38-2.69-.38-1.82,0-3.67.74-3.67,2.18s1.68,2.11,3.77,2.11c1.9,0,2.62-.84,2.62-2.52l-.02-1.39Z"/>
    <path class="cls-22" d="M1183.46,358.13c0,.24-.17.36-.53.46.1,1.68.17,3.65.22,5.45,1.9-.31,3.72-.6,5.14-.82l.14,1.68c-1.44.14-3.31.41-5.26.72.02,2.21-.02,4.15-.26,5.33-.29,1.42-1.32,2.23-2.69,2.23-.98,0-2.38-.34-3.7-1.06.12-.36.22-.96.29-1.42,1.34.72,2.57.94,3.14.94,1.44,0,1.66-1.42,1.54-5.78-2.76.46-5.64.94-7.82,1.32.05,2.28.1,4.46.19,5.81.29,3.65,2.09,3.86,5.54,3.86,1.97,0,4.56-.12,6.29-.36l.05,1.63c-1.7.19-4.13.26-6.14.26-3.72,0-6.98-.1-7.39-5.26-.12-1.34-.17-3.43-.22-5.66-1.49.26-3.46.65-4.68.89l-.26-1.61c1.27-.19,3.26-.55,4.92-.82-.02-2.09-.05-4.34-.05-6.17l2.38.22c-.02.26-.22.41-.6.46-.02,1.46-.02,3.38,0,5.18l7.78-1.3c-.07-2.04-.17-4.37-.31-6.31l2.3.12Z"/>
    <path class="cls-22" d="M1190.37,377.88c1.78-5.09,4.73-13.58,5.67-16.13.46-1.3,1.08-3.12,1.25-3.72l2.59.67c-.12.34-.46.46-.94.46-1.32,3.29-3.36,8.9-4.25,11.31h.02c1.42-1.73,3.58-2.95,5.26-2.95,2.09,0,3.1,1.42,3.02,3.65l-.07,2.86c-.02,1.8.94,2.78,2.5,2.78,2.16,0,4.15-2.47,5.26-6.6.48.34,1.06.65,1.56.89-1.32,4.58-3.7,7.46-6.89,7.46-2.54,0-4.2-1.54-4.2-3.98,0-.46.07-2.66.07-3.17,0-1.51-.62-2.3-1.68-2.3-2.76,0-5.54,4.01-6.14,5.57-.34.84-.86,2.38-1.32,3.77l-1.7-.55Z"/>
  </g>
</svg>