<?xml version="1.0" encoding="UTF-8"?>
<svg id="Layer_1" data-name="Layer 1" xmlns="http://www.w3.org/2000/svg" viewBox="0 0 1997 833">
  <defs>
    <style>
      .cls-1, .cls-2, .cls-3, .cls-4 {
        font-family: ArialMT, Arial;
      }

      .cls-5 {
        letter-spacing: -.01em;
      }

      .cls-6 {
        letter-spacing: -.02em;
      }

      .cls-7, .cls-8, .cls-9, .cls-10, .cls-11, .cls-12, .cls-13, .cls-14, .cls-15, .cls-16, .cls-17 {
        font-family: KozGoPr6N-Regular-83pv-RKSJ-H, 'Kozuka Gothic Pr6N';
      }

      .cls-7, .cls-2, .cls-18 {
        font-size: 23.18px;
      }

      .cls-19 {
        letter-spacing: -.04em;
      }

      .cls-20 {
        stroke-width: 6px;
      }

      .cls-20, .cls-21, .cls-22, .cls-23, .cls-24 {
        fill: none;
      }

      .cls-20, .cls-25, .cls-26, .cls-23, .cls-24, .cls-27 {
        stroke-miterlimit: 10;
      }

      .cls-20, .cls-23 {
        stroke: #808082;
      }

      .cls-8 {
        letter-spacing: 0em;
      }

      .cls-9 {
        letter-spacing: 0em;
      }

      .cls-28 {
        letter-spacing: -.08em;
      }

      .cls-29 {
        letter-spacing: -.02em;
      }

      .cls-30 {
        letter-spacing: -.13em;
      }

      .cls-31 {
        letter-spacing: -.13em;
      }

      .cls-32 {
        letter-spacing: -.03em;
      }

      .cls-33 {
        font-family: Arial-BoldMT, Arial;
        font-weight: 700;
      }

      .cls-33, .cls-17 {
        font-size: 20px;
      }

      .cls-34 {
        letter-spacing: -.06em;
      }

      .cls-21 {
        stroke-width: 5px;
      }

      .cls-21, .cls-22 {
        stroke-linecap: round;
        stroke-linejoin: round;
      }

      .cls-21, .cls-26 {
        stroke: #999;
      }

      .cls-35 {
        letter-spacing: -.14em;
      }

      .cls-11 {
        letter-spacing: -.02em;
      }

      .cls-3, .cls-36 {
        font-size: 25.2px;
      }

      .cls-12 {
        letter-spacing: -.03em;
      }

      .cls-13 {
        letter-spacing: -.01em;
      }

      .cls-14 {
        letter-spacing: -.02em;
      }

      .cls-37 {
        letter-spacing: -.16em;
      }

      .cls-15 {
        letter-spacing: -.07em;
      }

      .cls-22 {
        stroke: #ff931e;
      }

      .cls-22, .cls-23 {
        stroke-width: 2px;
      }

      .cls-25, .cls-27 {
        stroke: #b3b3b3;
      }

      .cls-25, .cls-38 {
        fill: #fff;
      }

      .cls-26 {
        fill: #163567;
      }

      .cls-24 {
        stroke: #e6e6e6;
      }

      .cls-39 {
        letter-spacing: -.1em;
      }

      .cls-40 {
        letter-spacing: -.05em;
      }

      .cls-41 {
        letter-spacing: -.1em;
      }

      .cls-27 {
        opacity: .12;
      }

      .cls-42 {
        letter-spacing: -.09em;
      }

      .cls-16 {
        letter-spacing: -.1em;
      }

      .cls-43 {
        letter-spacing: 0em;
      }

      .cls-36, .cls-44 {
        fill: #ff931e;
      }

      .cls-45 {
        fill: #f2f2f2;
      }

      .cls-45, .cls-46, .cls-44, .cls-38, .cls-47, .cls-48 {
        stroke-width: 0px;
      }

      .cls-46 {
        fill: #b9bbbd;
      }

      .cls-47 {
        fill: #eff0f0;
      }

      .cls-48 {
        fill: #00a99d;
      }

      .cls-49 {
        letter-spacing: -.07em;
      }

      .cls-50 {
        letter-spacing: -.07em;
      }

      .cls-4 {
        letter-spacing: 0em;
      }
    </style>
  </defs>
  <rect class="cls-38" width="1997" height="833"/>
  <rect class="cls-47" x="40.35" y="39.98" width="1937.4" height="62.65"/>
  <g>
    <circle class="cls-46" cx="73.06" cy="73.09" r="7.99"/>
    <circle class="cls-46" cx="95" cy="73.09" r="7.99"/>
    <path class="cls-46" d="M124.94,73.09c0,4.41-3.58,7.99-7.99,7.99s-7.99-3.58-7.99-7.99,3.58-7.99,7.99-7.99,7.99,3.58,7.99,7.99Z"/>
  </g>
  <rect class="cls-23" x="40.43" y="35.5" width="1936.89" height="771.11"/>
  <text class="cls-3" transform="translate(138.84 80.76)"><tspan x="0" y="0">https://me.paymentoptions.com/accounts/merchant-details/</tspan></text>
  <text class="cls-7" transform="translate(159.61 241.79)"><tspan x="0" y="0">加盟店の情報</tspan></text>
  <text class="cls-18" transform="translate(167.67 448.4)"><tspan class="cls-1" x="0" y="0">API</tspan><tspan class="cls-14" x="37.13" y="0">キ</tspan><tspan class="cls-9" x="59.85" y="0">ー</tspan></text>
  <rect class="cls-45" x="159.23" y="259.01" width="398.47" height="54.18"/>
  <rect class="cls-45" x="159.23" y="328.55" width="398.47" height="54.18"/>
  <rect class="cls-45" x="607.72" y="259.01" width="398.47" height="54.18"/>
  <rect class="cls-45" x="607.72" y="328.55" width="398.47" height="54.18"/>
  <rect class="cls-45" x="1066.29" y="259.01" width="398.47" height="54.18"/>
  <rect class="cls-45" x="1066.29" y="328.55" width="398.47" height="54.18"/>
  <rect class="cls-45" x="1514.78" y="259.01" width="398.47" height="54.18"/>
  <rect class="cls-45" x="1514.78" y="328.55" width="398.47" height="54.18"/>
  <text class="cls-18" transform="translate(166.34 513.8)"><tspan class="cls-15" x="0" y="0">ラ</tspan><tspan class="cls-16" x="21.56" y="0">イ</tspan><tspan class="cls-10" x="42.42" y="0">ブ</tspan><tspan class="cls-1" x="65.6" y="0">API</tspan><tspan class="cls-14" x="102.73" y="0">キ</tspan><tspan class="cls-13" x="125.45" y="0">ー</tspan></text>
  <text class="cls-2" transform="translate(513.19 513.8)"><tspan x="0" y="0">xxxxxxxxxxxxxxxxxxxxxxxxxxxxxxxxxxxxxxxxxxxxxx</tspan></text>
  <text class="cls-2" transform="translate(1654.43 521.86)"><tspan x="0" y="0">DECODE BASE 64</tspan></text>
  <text class="cls-7" transform="translate(169.51 621.64)"><tspan x="0" y="0">連絡先詳細</tspan></text>
  <rect class="cls-45" x="234.5" y="657.9" width="1672.7" height="54.18"/>
  <rect class="cls-45" x="60.83" y="152.98" width="54.44" height="54.18"/>
  <rect class="cls-45" x="60.83" y="241.67" width="54.44" height="54.18"/>
  <rect class="cls-45" x="60.83" y="330.36" width="54.44" height="54.18"/>
  <g>
    <path class="cls-46" d="M1955.36,66.52c0,1.03-.83,1.86-1.86,1.86h-18.47c-1.03,0-1.86-.83-1.86-1.86h0c0-1.03.83-1.86,1.86-1.86h18.47c1.03,0,1.86.83,1.86,1.86h0Z"/>
    <path class="cls-46" d="M1955.36,72.65c0,1.03-.83,1.86-1.86,1.86h-18.47c-1.03,0-1.86-.83-1.86-1.86h0c0-1.03.83-1.86,1.86-1.86h18.47c1.03,0,1.86.83,1.86,1.86h0Z"/>
    <path class="cls-46" d="M1955.36,78.79c0,1.03-.83,1.86-1.86,1.86h-18.47c-1.03,0-1.86-.83-1.86-1.86h0c0-1.03.83-1.86,1.86-1.86h18.47c1.03,0,1.86.83,1.86,1.86h0Z"/>
  </g>
  <rect class="cls-20" x="40.68" y="35.5" width="1937.07" height="67.53"/>
  <text class="cls-36" transform="translate(155.75 159.45)"><tspan class="cls-8" x="0" y="0">ホ</tspan><tspan class="cls-12" x="24.94" y="0">ー</tspan><tspan class="cls-11" x="49.38" y="0">ム</tspan><tspan class="cls-10" x="74.08" y="0"> </tspan><tspan class="cls-4" x="79.95" y="0">/ </tspan><tspan class="cls-10" x="93.95" y="0">加盟店</tspan><tspan class="cls-1" x="169.54" y="0" xml:space="preserve"> / </tspan><tspan class="cls-10" x="190.54" y="0">加盟店の情報</tspan></text>
  <g>
    <path class="cls-22" d="M97.53,262.19c0,2.61-2.04,4.73-4.56,4.73s-4.56-2.12-4.56-4.73v-2.7c0-2.61,2.04-4.73,4.56-4.73s4.56,2.12,4.56,4.73v2.7Z"/>
    <circle class="cls-22" cx="80.81" cy="259.32" r="3.8"/>
    <path class="cls-22" d="M84.64,271.7c-1.5-1.09-3.35-1.73-5.35-1.73-4.44,0-8.13,3.18-8.95,7.37-.18.91.58,1.75,1.5,1.75h7.45"/>
    <path class="cls-22" d="M92.97,271.48h0c-6.13,0-11.2,4.54-12.04,10.43-.13.91.6,1.73,1.52,1.73h21.04c.92,0,1.65-.82,1.52-1.73-.84-5.9-5.91-10.43-12.04-10.43Z"/>
  </g>
  <line class="cls-24" x1="134.41" y1="133.26" x2="134.41" y2="774.25"/>
  <rect class="cls-25" x="1035.5" y="105" width="942" height="701.5"/>
  <rect class="cls-44" x="1035.5" y="105.5" width="942" height="77"/>
  <rect class="cls-27" x="43" y="106" width="993" height="703"/>
  <g>
    <polygon class="cls-48" points="99.41 654.6 80.93 654.6 106.05 685.45 80.93 716.3 99.41 716.3 124.53 685.45 99.41 654.6"/>
    <rect class="cls-48" x="16.5" y="672.27" width="91.45" height="26.36"/>
  </g>
  <g>
    <circle class="cls-21" cx="190.14" cy="685.17" r="22.36"/>
    <line class="cls-21" x1="190.14" y1="677.39" x2="190.14" y2="698.78"/>
    <circle class="cls-26" cx="190.14" cy="669.61" r="1.94"/>
  </g>
  <text class="cls-17" transform="translate(1062.11 221.29)"><tspan x="0" y="0">加盟</tspan><tspan class="cls-19" x="40" y="0">店</tspan><tspan class="cls-49" x="59.2" y="0">アカ</tspan><tspan class="cls-39" x="96.4" y="0">ウ</tspan><tspan class="cls-37" x="114.4" y="0">ン</tspan><tspan class="cls-50" x="131.2" y="0">ト</tspan></text>
  <rect class="cls-45" x="1058.73" y="238.51" width="388.49" height="38.99"/>
  <text class="cls-17" transform="translate(1531.59 221.42)"><tspan x="0" y="0">加盟店</tspan><tspan class="cls-5" x="60" y="0">ホ</tspan><tspan class="cls-32" x="79.8" y="0">ー</tspan><tspan class="cls-29" x="99.2" y="0">ム</tspan><tspan class="cls-5" x="118.8" y="0">ペ</tspan><tspan class="cls-40" x="138.6" y="0">ー</tspan><tspan class="cls-43" x="157.6" y="0">ジ</tspan></text>
  <rect class="cls-45" x="1536.01" y="238.64" width="388.49" height="38.86"/>
  <text class="cls-17" transform="translate(1062.11 320.29)"><tspan x="0" y="0">加盟</tspan><tspan class="cls-32" x="40" y="0">店</tspan><tspan class="cls-19" x="59.4" y="0">カ</tspan><tspan class="cls-34" x="78.6" y="0">テ</tspan><tspan class="cls-42" x="97.4" y="0">ゴ</tspan><tspan class="cls-41" x="115.6" y="0">リ</tspan><tspan class="cls-40" x="133.6" y="0">ー</tspan><tspan class="cls-32" x="152.6" y="0">コ</tspan><tspan class="cls-30" x="172" y="0">ー</tspan><tspan class="cls-6" x="189.4" y="0">ド</tspan></text>
  <rect class="cls-45" x="1058.73" y="337.51" width="388.49" height="38.99"/>
  <text class="cls-17" transform="translate(1531.59 320.42)"><tspan x="0" y="0">決済通貨</tspan></text>
  <rect class="cls-45" x="1536.01" y="337.64" width="388.49" height="38.86"/>
  <text class="cls-17" transform="translate(1062.11 420.29)"><tspan x="0" y="0">処理通貨</tspan></text>
  <rect class="cls-45" x="1058.73" y="437.51" width="388.49" height="38.99"/>
  <text class="cls-33" transform="translate(1531.59 420.42)"><tspan x="0" y="0">DAS MID</tspan></text>
  <rect class="cls-45" x="1536.01" y="437.64" width="388.49" height="38.86"/>
  <text class="cls-17" transform="translate(1062.11 522.29)"><tspan x="0" y="0">請求名</tspan></text>
  <rect class="cls-45" x="1058.73" y="539.51" width="388.49" height="38.99"/>
  <text class="cls-17" transform="translate(1530.99 522.42)"><tspan class="cls-32" x="0" y="0">カ</tspan><tspan class="cls-31" x="19.4" y="0">ー</tspan><tspan class="cls-49" x="36.8" y="0">ド</tspan><tspan class="cls-40" x="55.4" y="0">ブ</tspan><tspan class="cls-41" x="74.4" y="0">ラ</tspan><tspan class="cls-35" x="92.4" y="0">ン</tspan><tspan class="cls-29" x="109.6" y="0">ド</tspan></text>
  <rect class="cls-45" x="1536.01" y="539.64" width="388.49" height="38.86"/>
  <text class="cls-17" transform="translate(1062.11 621.29)"><tspan x="0" y="0">統合型</tspan></text>
  <rect class="cls-45" x="1058.73" y="638.51" width="388.49" height="38.99"/>
  <text class="cls-17" transform="translate(1531.59 621.42)"><tspan x="0" y="0">取</tspan><tspan class="cls-40" x="20" y="0">引</tspan><tspan class="cls-28" x="39" y="0">タ</tspan><tspan class="cls-41" x="57.4" y="0">イ</tspan><tspan x="75.4" y="0">プ</tspan></text>
  <rect class="cls-45" x="1536.01" y="638.64" width="388.49" height="38.86"/>
  <rect class="cls-45" x="1058.73" y="692.51" width="388.49" height="38.99"/>
  <rect class="cls-45" x="1536.01" y="692.64" width="388.49" height="38.86"/>
  <rect class="cls-45" x="1058.73" y="746.51" width="388.49" height="38.99"/>
  <rect class="cls-45" x="1536.01" y="746.64" width="388.49" height="38.86"/>
</svg>