<?xml version="1.0" encoding="UTF-8"?>
<svg id="Layer_1" data-name="Layer 1" xmlns="http://www.w3.org/2000/svg" viewBox="0 0 1997 925">
  <defs>
    <style>
      .cls-1, .cls-2 {
        fill: #009245;
      }

      .cls-1, .cls-2, .cls-3, .cls-4 {
        font-family: KozGoPr6N-Regular-83pv-RKSJ-H, 'Kozuka Gothic Pr6N';
      }

      .cls-1, .cls-3 {
        font-size: 30px;
      }

      .cls-2 {
        font-size: 32px;
      }

      .cls-5 {
        fill: #ff931e;
      }

      .cls-6 {
        fill: #00a99d;
      }

      .cls-7 {
        fill: #ff7bac;
      }

      .cls-8, .cls-4 {
        fill: #4d4d4d;
      }

      .cls-9, .cls-10, .cls-11, .cls-12, .cls-13 {
        fill: none;
      }

      .cls-9, .cls-10, .cls-11, .cls-14 {
        stroke-miterlimit: 10;
      }

      .cls-9, .cls-10, .cls-13 {
        stroke: #00a99d;
      }

      .cls-9, .cls-11, .cls-12, .cls-13 {
        stroke-width: 3px;
      }

      .cls-10 {
        stroke-width: 5px;
      }

      .cls-15 {
        fill-rule: evenodd;
      }

      .cls-15, .cls-14 {
        fill: #f2f2f2;
      }

      .cls-16 {
        fill: #fff;
      }

      .cls-11, .cls-12 {
        stroke: #fff;
      }

      .cls-11, .cls-12, .cls-13 {
        stroke-linecap: round;
      }

      .cls-12, .cls-13 {
        stroke-linejoin: round;
      }

      .cls-17 {
        fill: #29abe2;
      }

      .cls-4 {
        font-size: 27.72px;
      }

      .cls-18 {
        letter-spacing: -.1em;
      }

      .cls-19 {
        letter-spacing: -.18em;
      }

      .cls-20 {
        letter-spacing: -.12em;
      }

      .cls-21 {
        letter-spacing: -.15em;
      }

      .cls-22 {
        letter-spacing: -.02em;
      }

      .cls-23 {
        letter-spacing: -.05em;
      }

      .cls-24 {
        letter-spacing: -.03em;
      }

      .cls-25 {
        letter-spacing: 0em;
      }

      .cls-14 {
        stroke: #009245;
        stroke-width: 4px;
      }
    </style>
  </defs>
  <rect class="cls-16" width="1997" height="925"/>
  <rect class="cls-7" x="104.85" y="61" width="224.53" height="224.53" rx="19.94" ry="19.94"/>
  <rect class="cls-17" x="1003.82" y="530.97" width="224.53" height="224.53" rx="19.94" ry="19.94"/>
  <rect class="cls-17" x="540.14" y="60.97" width="224.53" height="224.53" rx="19.94" ry="19.94"/>
  <g>
    <path d="M142.21,317.76c-.07.15-.15.33-.33.48-.48,10.66-1.52,17.35-2.96,19.98-1.48,2.55-3.63,2.66-4.85,2.66-1.44,0-4.07-.33-6.62-.85.07-.74,0-1.85-.11-2.63,2.78.63,5.62.92,6.48.92,1.33,0,2.07-.33,2.85-1.74,1.11-2.26,2.04-8.47,2.41-16.8h-11.84c-1.85,8.84-5.51,16.17-12.21,21.2-.44-.48-1.41-1.18-2.11-1.63,6.4-4.81,9.77-11.14,11.54-19.57h-10.21v-2.48h10.73c.44-2.63.67-5,.85-8.07l3.66.3c-.04.41-.37.63-.92.67-.22,2.7-.41,4.74-.81,7.1h11.99l.59-.22,1.89.67Z"/>
    <path d="M148.61,323.2h30.9v2.63h-29.49c-.22.37-.7.63-1.18.7l-.22-3.33Z"/>
    <path d="M206.88,328.75c-3.77-2.04-8.95-4.44-12.99-6.03v18.46h-2.78v-32.16l3.74.22c-.04.41-.33.67-.96.78v10.88l.55-.81c4.33,1.59,10.06,4.14,13.91,6.18l-1.48,2.48ZM203,311.32c1.7,1.41,3.92,3.74,5.11,5.44l-1.41,1.15c-1.11-1.59-3.37-4.07-5.03-5.4l1.33-1.18ZM207.96,308.14c1.74,1.44,3.96,3.77,5.07,5.4l-1.33,1.15c-1.15-1.59-3.4-4.03-5.07-5.4l1.33-1.15Z"/>
    <path d="M231.27,328.05h-11.14c-.11,4.55-.74,10.32-3.37,14.36-.37-.44-1.37-1.22-1.96-1.52,2.66-4.07,2.92-9.81,2.92-14.13v-10.21h13.54v11.51ZM232.41,310.06v2.29h-16.58v-2.29h16.58ZM228.86,318.83h-8.73v6.96h8.73v-6.96ZM250.21,320.79v2.41h-4.4v19.2h-2.44v-19.2h-6.88c-.15,5.88-1.18,13.51-6.36,19.06-.33-.56-1.22-1.37-1.85-1.7,5.18-5.55,5.77-13.02,5.77-18.8v-9.88l1.92.52c4.11-1.07,8.58-2.48,11.14-3.92l2.41,2c-.15.15-.41.22-.74.15-3,1.37-7.84,2.81-12.29,3.89v6.29h13.73Z"/>
    <path d="M286.14,315.32h-20.17c-.7,1.55-1.48,3.07-2.33,4.55h17.87v19.24c0,3.15-1.48,3.22-8.1,3.22-.11-.7-.48-1.78-.85-2.48,1.29.04,2.52.04,3.51.04,2.67,0,2.96,0,2.96-.81v-4.22h-15.65v7.47h-2.48v-18.32c-1.89,2.52-4.07,4.77-6.62,6.62-.37-.56-1.15-1.48-1.67-2,4.59-3.22,8.1-8.1,10.51-13.32h-9.73v-2.4h10.77c.67-1.63,1.18-3.29,1.63-4.92l3.22.81c-.07.26-.37.41-.81.41-.37,1.22-.78,2.44-1.26,3.7h19.2v2.4ZM279.03,326.27v-4.14h-15.65v4.14h15.65ZM263.38,332.67h15.65v-4.22h-15.65v4.22Z"/>
    <path d="M323.54,322.46h-14.39c-2.04,1.48-4.14,2.85-6.33,4.11h15.5v15.65h-2.48v-1.11h-15.28v1.26h-2.4v-13.32c-2.37,1.18-4.85,2.26-7.33,3.22-.33-.52-.96-1.44-1.48-1.92,5.48-2,10.84-4.66,15.76-7.88h-15.21v-2.18h13.21v-5h-9.73v-2.18h9.73v-5.14l3.18.22c-.04.26-.26.44-.74.52v4.4h9.62v1.26c1.59-1.55,3.03-3.22,4.33-4.92l2.63,1.52c-.11.15-.33.22-.63.22-.11,0-.22,0-.37-.04-2.63,3.33-5.7,6.36-9.1,9.14h11.51v2.18ZM315.85,332.71v-3.96h-15.28v3.96h15.28ZM300.57,338.93h15.28v-4.18h-15.28v4.18ZM305.56,320.28h2.7c2.11-1.55,4.14-3.22,5.99-5h-8.7v5Z"/>
    <path class="cls-8" d="M133.74,361.55c2.28.88,5.11,2.42,6.55,3.6l-1.33,1.96c-1.4-1.19-4.2-2.8-6.48-3.78l1.26-1.79ZM133.43,382.17c1.75-2.77,4.27-7.53,6.09-11.55l1.82,1.47c-1.68,3.75-3.92,8.16-5.57,10.89.14.18.17.35.17.49s-.04.28-.1.42l-2.42-1.71ZM135.63,351.99c2.24.98,5,2.59,6.37,3.85l-1.37,1.92c-1.33-1.29-4.06-3.01-6.33-4.06l1.33-1.72ZM165.04,370.58h-9.94c1.75,5.57,5.21,9.7,10.36,11.59-.56.52-1.29,1.4-1.64,2.06-5.46-2.35-9.03-6.97-10.96-13.27-1.02,5.08-3.75,9.77-10.75,13.3-.39-.49-1.23-1.33-1.82-1.72,6.62-3.22,9.21-7.42,10.22-11.97h-8.61v-2.24h9c.17-1.51.21-3.05.21-4.59v-3.99h-7v-2.24h7v-5.81l3.04.21c-.04.24-.25.42-.7.49v5.11h8.26v10.82h3.33v2.24ZM153.45,359.76v4.03c0,1.54-.04,3.04-.21,4.55h6.16v-8.58h-5.95Z"/>
    <path class="cls-8" d="M168.74,361.55c2.28.88,5.11,2.42,6.55,3.6l-1.33,1.96c-1.4-1.19-4.2-2.8-6.48-3.78l1.26-1.79ZM168.5,382.17c1.82-2.77,4.41-7.53,6.34-11.55l1.79,1.47c-1.75,3.75-4.06,8.16-5.78,10.92.14.17.17.35.17.49s-.04.28-.11.38l-2.42-1.71ZM170.63,351.99c2.24.98,5,2.59,6.37,3.85l-1.37,1.92c-1.33-1.29-4.06-3.01-6.33-4.06l1.33-1.72ZM194.37,370.37v-2.28l3.01.21c-.04.25-.21.42-.7.49v15.4h-2.31v-6.51h-12.15c-.67,2.31-1.96,4.66-4.45,6.55-.42-.42-1.29-1.05-1.86-1.37,4.1-3.01,4.66-7.21,4.66-10.36v-4.38l2.94.17c-.04.25-.21.42-.67.49v1.58h11.52ZM195.03,357.7l1.22.39c-.1.21-.35.31-.73.31-1.12,2-2.73,3.68-4.66,5.08,2.77,1.26,5.99,2.1,9.63,2.84-.52.52-1.08,1.4-1.33,2.1-3.96-.88-7.42-1.96-10.43-3.57-3.19,1.79-7,3.01-11.06,3.85-.21-.56-.77-1.54-1.16-2.03,3.68-.63,7.18-1.65,10.08-3.15-2.03-1.4-3.82-3.19-5.36-5.46l.84-.35h-4.41v-2.14h9.7v-3.89l3.08.17c-.04.25-.21.42-.7.49v3.22h10.22v2.14h-4.94ZM182.85,372.44c0,.81,0,1.96-.21,3.22h11.73v-3.22h-11.52ZM183.55,357.7c1.47,1.96,3.19,3.43,5.15,4.62,1.89-1.26,3.47-2.8,4.48-4.62h-9.63Z"/>
    <path class="cls-8" d="M232.69,366.66c-.07.04-.14.07-.21.07-.21,0-.39-.1-.53-.21-2.66.88-6.55,2.31-9.45,3.57.07.81.11,1.72.11,2.73,0,1.12-.04,2.38-.11,3.75l-2.55.14c.1-1.26.17-2.87.17-4.24,0-.52,0-1.02-.04-1.4-3.96,1.92-7.18,4.27-7.18,6.37s2.42,3.01,7.25,3.01c3.39,0,6.54-.07,8.79-.35l.04,2.35c-2.06.21-5.21.28-8.82.28-6.72,0-9.7-1.61-9.7-5.18,0-3.08,4.06-6.06,9.31-8.68-.21-2.21-1.19-3.29-2.59-3.29-2.56,0-5.22,1.44-8.37,4.94-.98,1.08-2.34,2.45-3.85,3.82l-1.71-1.72c3.5-3.08,6.79-6.02,8.82-12.92l-1.96.04h-5.84v-2.28c2.13.04,4.62.04,6.06.04l2.38-.04c.38-1.61.7-3.12.95-5.01l3.43.42c-.07.35-.35.56-.88.63-.25,1.4-.56,2.62-.88,3.89,2.38-.04,7.49-.6,12.04-2.03l.42,2.35c-4.38,1.37-9.66,1.85-13.13,1.96-.84,2.63-1.71,4.73-2.52,5.92h.04c1.54-1.37,3.85-2.28,5.64-2.28,2.38,0,3.89,1.72,4.34,4.55,2.94-1.33,6.65-2.77,9.45-3.85l1.08,2.66Z"/>
    <path class="cls-8" d="M250.68,365.05h-10.5v19.18h-2.31v-31.01h12.81v11.83ZM248.44,355.07h-8.26v3.08h8.26v-3.08ZM240.18,363.19h8.26v-3.29h-8.26v3.29ZM261.99,375.45h-4.97v8.09h-2.13v-8.09h-5.36c-.25,2.27-1.37,6.09-4.83,8.4-.35-.46-1.05-1.12-1.58-1.47,3.08-1.93,4.1-4.87,4.31-6.93h-4.58v-2h4.66v-4.1h-3.96v-2h17.68v2h-4.2v4.1h4.97v2ZM249.59,373.45h5.29v-4.1h-5.29v4.1ZM267.1,353.22v27.79c0,3.01-1.33,3.15-6.83,3.15-.11-.67-.42-1.75-.77-2.42,1.19.04,2.35.07,3.22.07,1.86,0,2.07,0,2.07-.81v-15.93h-10.82v-11.87h13.13ZM264.79,355.07h-8.54v3.08h8.54v-3.08ZM256.25,363.23h8.54v-3.33h-8.54v3.33Z"/>
    <path class="cls-8" d="M283.26,358.96l1.33.35-.21.49c-.49,6.2-1.61,11.17-3.36,15.05,1.72,1.33,3.19,2.62,4.13,3.82l-1.44,1.93c-.88-1.12-2.21-2.38-3.75-3.64-1.79,3.26-4.13,5.64-6.93,7.32-.32-.6-.98-1.44-1.47-1.93,2.63-1.4,4.83-3.68,6.58-6.83-1.29-.98-2.66-1.89-3.99-2.7l-.42,1.54-2-1.05c.88-3.08,1.96-7.53,2.97-12.04h-3.5v-2.21h3.99c.56-2.63,1.05-5.15,1.47-7.39l2.87.35c-.04.24-.25.38-.7.42-.38,2-.88,4.27-1.4,6.62h5.39l.42-.1ZM276.96,361.27c-.73,3.26-1.54,6.55-2.27,9.42,1.47.81,2.97,1.79,4.45,2.77,1.4-3.26,2.42-7.32,2.91-12.18h-5.08ZM298.35,357.45c2.28,2.87,4.73,6.65,5.6,9.21l-2.07,1.12c-.25-.7-.59-1.51-1.01-2.38-5.53.46-11.2.81-14.88,1.05-.07.28-.28.42-.49.46l-.98-2.73,2.83-.1c1.47-3.47,3.12-8.68,3.99-12.43l3.08.77c-.1.25-.38.39-.8.42-.95,3.26-2.52,7.81-3.96,11.17l10.19-.49c-1.01-1.72-2.24-3.54-3.43-5.08l1.92-.98ZM287.15,384.2v-14.35h14.84v14.21h-2.35v-1.51h-10.26v1.65h-2.24ZM299.65,372.05h-10.26v8.33h10.26v-8.33Z"/>
  </g>
  <g>
    <path d="M1042.57,787.79c-.07.15-.3.26-.48.33-2,4.74-5.18,8.84-8.77,11.84-.55-.48-1.59-1.15-2.26-1.52,3.4-2.48,6.14-6.07,7.36-9.18h-26.49v-2.52h27.9l.41-.18,2.33,1.22ZM1028.13,794.53c-.04.3-.37.56-.85.63-1.07,8.73-4.07,17.06-11.69,21.46-.52-.44-1.48-1.29-2.18-1.7,7.55-4.14,10.25-11.88,11.14-20.79l3.59.41Z"/>
    <path d="M1071.68,791.46c-.15.19-.33.37-.55.52-3.89,11.99-9.95,19.69-20.17,24.87-.44-.63-1.15-1.48-1.89-2.04,9.69-4.7,15.69-12.1,18.76-21.91h-13.21c-2.15,3.33-5,6.55-8.29,9.14-.52-.52-1.37-1.22-2.11-1.7,5.03-3.88,9.29-9.55,11.8-16.06l3.52,1c-.15.37-.59.48-1.07.48-.74,1.63-1.52,3.18-2.37,4.66h13.03l.44-.22,2.11,1.26Z"/>
    <path d="M1105.1,788.53c-.11.15-.3.3-.48.37-1.44,14.47-6.36,22.24-18.72,27.23-.48-.63-1.22-1.44-1.85-2,11.8-4.81,16.43-11.84,17.65-23.98h-21.13v10.21h-2.55v-12.73h24.53l.41-.3,2.15,1.18Z"/>
    <path d="M1139.25,786.79c-.15.19-.37.3-.7.3-.11,0-.22,0-.37-.04-2.85,2.89-6.96,6.25-10.54,8.84.3.11.74.33.89.41-.07.22-.41.44-.81.48v19.87h-2.7v-19.02c-3.92,2.78-9.03,5.77-14.1,8.25-.37-.59-1.04-1.52-1.55-2.04,10.1-4.66,21.17-12.58,27.12-19.13l2.78,2.07Z"/>
    <path d="M1174.29,787.79c-.07.15-.3.26-.48.33-2,4.74-5.18,8.84-8.77,11.84-.56-.48-1.59-1.15-2.26-1.52,3.4-2.48,6.14-6.07,7.36-9.18h-26.49v-2.52h27.9l.41-.18,2.33,1.22ZM1159.86,794.53c-.04.3-.37.56-.85.63-1.07,8.73-4.07,17.06-11.69,21.46-.52-.44-1.48-1.29-2.18-1.7,7.55-4.14,10.25-11.88,11.14-20.79l3.59.41Z"/>
    <path d="M1206.18,796.45c-.07.15-.26.3-.48.37-3.03,11.17-9.21,16.61-20.28,19.68-.33-.67-1.04-1.59-1.55-2.15,10.07-2.52,16.32-7.7,18.65-16.28h-24.5v-2.52h25.61l.37-.22,2.18,1.11ZM1202.7,788.53h-21.09v-2.44h21.09v2.44Z"/>
    <path class="cls-8" d="M1014.61,836.77l1.54.67c-.07.17-.21.31-.35.42-1.4,8.47-4.66,15.16-8.72,18.8-.42-.49-1.29-1.37-1.85-1.68,3.75-3.15,6.65-8.79,8.02-15.93h-6.93v-2.17h7.84l.46-.1ZM1022.94,846.85v3.85h7.7v2.03h-7.7v3.89c0,1.61-.38,2.28-1.54,2.66-1.15.38-3.18.42-6.3.42-.14-.67-.53-1.64-.88-2.28,1.26.04,2.49.04,3.43.04h2.07c.67-.04.88-.21.88-.84v-3.89h-7.35v-2.03h7.35v-3.85h-5.29v-2h5.29v-3.68h-4.59v-2h4.59v-4.2l1.61.1c2.28-1.05,4.58-2.45,6.37-3.85h-18.2v-2.17h20.79l.46-.14,1.89,1.22c-.1.17-.35.25-.52.32-2.45,2.28-6.37,4.83-10.05,6.44v2.28h5.11v2h-5.11v3.68h5.67v2h-5.67ZM1030.15,835.58c.35,2.17.77,4.31,1.3,6.3,1.68-1.68,3.54-3.78,4.69-5.43l2.21,1.86c-.14.17-.46.21-.74.17-1.37,1.65-3.64,3.96-5.5,5.6,1.47,4.55,3.6,8.3,6.58,10.47-.59.46-1.4,1.37-1.82,2.03-4.87-4.06-7.49-11.69-8.89-20.65l2.17-.35Z"/>
    <path class="cls-8" d="M1053.25,832.99v1.96h-12.6v-1.96h12.6ZM1052.27,847.27v10.29h-8.05v1.64h-2.03v-11.94h10.08ZM1052.24,837.75v1.93h-10.01v-1.93h10.01ZM1042.23,844.44v-1.92h10.01v1.92h-10.01ZM1052.1,828.34v1.93h-9.7v-1.93h9.7ZM1050.21,849.27h-5.99v6.3h5.99v-6.3ZM1057.49,849.16c-.42,3.05-1.19,6.37-3.08,8.33l-1.79-1.19c1.72-1.71,2.56-4.79,2.91-7.67l1.96.52ZM1063.61,830.47c-.28,1.5-.63,3.12-1.16,4.69,1.68.84,3.22,1.71,4.31,2.49l-1.19,1.85c-.98-.73-2.38-1.58-3.92-2.42-1.26,2.66-3.22,5.08-6.51,6.72-.28-.49-.98-1.29-1.47-1.68,3.01-1.44,4.87-3.61,6.06-6.02-1.58-.77-3.22-1.47-4.73-2l1.15-1.68c1.4.49,2.87,1.08,4.34,1.75.42-1.22.7-2.49.91-3.71h-6.13v-2.03h14.74l1.01-.04,1.26.14c-.21,1.37-.21,11.8-1.64,13.41-.84,1.02-1.72,1.02-3.36,1.02-.88,0-1.96-.04-3.05-.11-.03-.63-.25-1.5-.63-2.06,1.86.14,2.62.14,4.2.14.42,0,.67-.07.91-.35.6-.7.95-3.26,1.23-10.12h-6.34ZM1061.23,855.99c0,.8.14.95,1.16.95h3.43c.91,0,1.08-.46,1.16-3.96.49.35,1.4.7,2,.88-.21,4.17-.84,5.18-2.94,5.18h-3.92c-2.49,0-3.08-.67-3.08-3.04v-8.4l2.87.21c-.04.21-.25.39-.67.46v7.74ZM1065.64,848.88c-1.26-1.51-3.92-3.61-6.23-4.97l1.5-1.37c2.28,1.33,5.01,3.33,6.3,4.83l-1.58,1.51ZM1071.63,857.42c-.46-2.38-2.03-5.92-3.88-8.51l1.92-.77c1.93,2.55,3.54,6.02,4.1,8.4l-2.14.88Z"/>
    <path class="cls-8" d="M1076.91,836.95c2.28.88,5.11,2.42,6.55,3.61l-1.33,1.96c-1.4-1.19-4.2-2.8-6.48-3.78l1.26-1.79ZM1076.67,857.57c1.82-2.77,4.41-7.53,6.34-11.55l1.79,1.47c-1.75,3.75-4.06,8.16-5.78,10.92.14.17.17.35.17.49s-.04.28-.11.38l-2.42-1.71ZM1078.8,827.39c2.24.98,5,2.59,6.37,3.85l-1.37,1.93c-1.33-1.3-4.06-3.01-6.33-4.06l1.33-1.72ZM1102.53,845.77v-2.27l3.01.21c-.04.25-.21.42-.7.49v15.4h-2.31v-6.51h-12.15c-.67,2.31-1.96,4.66-4.45,6.55-.42-.42-1.29-1.05-1.86-1.37,4.1-3.01,4.66-7.21,4.66-10.36v-4.38l2.94.18c-.04.25-.21.42-.67.49v1.58h11.52ZM1103.2,833.1l1.22.38c-.1.21-.35.32-.73.32-1.12,2-2.73,3.67-4.66,5.08,2.77,1.26,5.99,2.1,9.63,2.84-.52.52-1.08,1.4-1.33,2.1-3.96-.88-7.42-1.96-10.43-3.57-3.19,1.79-7,3.01-11.06,3.85-.21-.56-.77-1.54-1.16-2.03,3.68-.63,7.18-1.65,10.08-3.15-2.03-1.4-3.82-3.19-5.36-5.46l.84-.35h-4.41v-2.13h9.7v-3.89l3.08.17c-.04.25-.21.42-.7.49v3.22h10.22v2.13h-4.94ZM1091.02,847.83c0,.81,0,1.96-.21,3.22h11.73v-3.22h-11.52ZM1091.72,833.1c1.47,1.96,3.19,3.43,5.15,4.62,1.89-1.26,3.47-2.8,4.48-4.62h-9.63Z"/>
    <path class="cls-8" d="M1139.84,837.19c-.1.38-.49.63-1.01.63-.38,2.42-.95,4.97-1.54,7.14,1.89.8,3.88,1.71,5.88,2.73l-1.12,2.34c-1.89-.94-3.71-1.85-5.5-2.62-1.68,5.04-4.1,8.72-7.81,11.17-.49-.49-1.37-1.08-2-1.47,3.67-2.42,5.95-5.71,7.56-10.71-3.54-1.4-6.76-2.38-9.35-2.59-2.42,8.82-4.59,11.13-8.79,11.13s-5.01-3.36-5.01-5.5c0-5.43,5.64-7.95,11.9-7.98.74-2.8,1.4-6.23,1.89-9.87-1.65.14-7.25.52-9.91.7-.14.24-.42.42-.74.49l-.31-2.83c3.01-.1,9.52-.53,11.62-.74.38-.03.52-.21.77-.38l2.17,1.29c-.18.28-.46.42-.88.56-.56,3.88-1.4,7.91-2.17,10.92,2.7.21,5.92,1.16,9.42,2.49.6-2.1,1.12-4.8,1.51-7.63l3.39.74ZM1122.52,843.67c-5.04.07-9.07,2.07-9.07,5.78,0,1.96.95,3.29,2.59,3.29,2.55,0,4.24-.88,6.48-9.07Z"/>
    <path class="cls-8" d="M1163.71,831.03h-3.25v28.56h-2.28v-7.21c-4.2.74-8.37,1.47-11.1,1.89-.07.28-.28.46-.52.49l-.91-2.7c.91-.1,1.96-.25,3.12-.42v-20.62h-3.05v-2.21h17.99v2.21ZM1158.18,836.11v-5.08h-7.18v5.08h7.18ZM1158.18,843.42v-5.15h-7.18v5.15h7.18ZM1151.01,845.59v5.78c2.24-.31,4.73-.7,7.18-1.05v-4.73h-7.18ZM1175.61,832.15l1.47.49c-.03.17-.17.35-.28.46-.95,7.07-2.91,12.85-5.64,17.36,1.92,3.12,4.34,5.6,7.32,7.25-.56.42-1.33,1.33-1.68,1.93-2.84-1.72-5.15-4.06-7.04-7-2.1,2.94-4.55,5.25-7.28,6.97-.35-.56-1.05-1.44-1.58-1.89,2.8-1.61,5.36-4.1,7.49-7.35-2.21-4.2-3.75-9.31-4.79-15.05l2.17-.42c.88,4.87,2.17,9.35,4.06,13.13,2-3.71,3.54-8.26,4.41-13.48h-11.73v-2.31h12.67l.42-.07Z"/>
    <path class="cls-8" d="M1195.04,844.16l.53-.07,1.4.28c0,.21-.07.49-.11.73-.67,8.72-1.29,12.15-2.55,13.37-.88.94-1.93,1.12-4.31,1.12-1.26,0-2.94-.07-4.62-.18-.07-.73-.39-1.71-.88-2.42,2.63.25,5.22.28,6.09.28s1.3-.07,1.68-.38c.91-.81,1.5-3.68,2.07-10.54h-9.45c-.14.67-.25,1.26-.39,1.82l-2.34-.39c.74-2.83,1.54-7.42,2.03-10.89h10.26v-6.13h-12.36v-2.21h14.7v11.55h-2.35v-1.02h-8.23c-.28,1.68-.59,3.43-.88,5.04h9.7ZM1206.94,827.39l3.05.21c-.04.24-.21.42-.7.45v31.54h-2.35v-32.2Z"/>
  </g>
  <g>
    <path d="M617.15,320.68l.59-.04,1.29.07c0,.22-.04.59-.04.89-.3,17.06-.59,22.5-1.67,24.05-.81,1.15-1.55,1.41-4.26,1.41-.74,0-1.55-.04-2.37-.07-.07-.74-.3-1.78-.7-2.48,1.7.15,3.26.15,3.89.15.59,0,.92-.11,1.26-.59.78-1.07,1.15-6.18,1.41-20.94h-6.07c-.33,9.84-1.52,19.02-6.18,24.64-.41-.56-1.29-1.26-1.92-1.63,4.29-5.03,5.37-13.54,5.66-23.02h-5.07v-2.44h5.14c.04-2.37.04-4.81.04-7.25l3.4.19c-.07.33-.33.55-.93.63,0,2.15-.04,4.29-.07,6.44h6.59ZM622.51,317.83h12.58v28.79h-2.48v-2.48h-7.7v2.78h-2.41v-29.08ZM624.92,341.73h7.7v-21.5h-7.7v21.5Z"/>
    <path d="M669.32,344.47h4.51v2.22h-34.08v-2.22h4.55v-9.32h25.01v9.32ZM644.31,329.75v2.07h-2.29v-16.73h11.58v14.65h-9.29ZM651.3,317.16h-6.99v4.22h6.99v-4.22ZM644.31,327.71h6.99v-4.33h-6.99v4.33ZM646.67,337.22v7.25h5.14v-7.25h-5.14ZM668.91,327.56h-9.44c-.67,2.48-2,4.92-4.59,6.77-.3-.48-1.18-1.33-1.67-1.7,4-2.89,4.55-6.92,4.55-10.29v-7.81h13.62v16.43c0,2.66-1.26,2.89-6.48,2.89-.15-.67-.55-1.63-.89-2.26.85.04,1.63.04,2.29.04,2.48,0,2.59,0,2.59-.7v-3.37ZM659.33,337.22h-5.22v7.25h5.22v-7.25ZM660.07,322.05c0,1,0,2.18-.22,3.51h9.07v-3.51h-8.84ZM668.91,316.61h-8.84v3.44h8.84v-3.44ZM666.88,337.22h-5.22v7.25h5.22v-7.25Z"/>
    <path d="M696.11,318.35h14.58v2.37h-28.6v7.4c0,5.7-.48,14.02-3.66,19.69-.44-.44-1.55-1.15-2.15-1.44,3.03-5.37,3.33-12.88,3.33-18.24v-9.77h13.95v-4.96l3.29.22c-.04.26-.22.44-.74.52v4.22ZM698.07,321.79c-.04.26-.22.44-.74.52v3.92h12.84v2.26h-12.84v5.66h10.25v13.58h-2.52v-1.41h-16.87v1.52h-2.44v-13.69h9.1v-12.58l3.22.22ZM705.06,344.07v-7.66h-16.87v7.66h16.87Z"/>
    <path class="cls-8" d="M516.08,357.88l3.5.21c-.04.35-.46.67-.98.7v5.5h9.38l.52-.21,2.17.98c-.07.14-.25.28-.39.39-1.61,12.25-6.69,19.36-17.78,23.24-.35-.6-1.08-1.51-1.65-2.1,10.4-3.57,15.19-10.08,16.38-19.92h-19.78v8.68h-2.42v-11.06h11.03v-6.41Z"/>
    <path class="cls-8" d="M555.64,367.89v2.03h-8.61v13.76h10.57v2.03h-23.38v-2.03h10.57v-13.76h-8.54v-2.03h19.39Z"/>
    <path class="cls-8" d="M587.21,362.22c-1.01-1.29-2.34-2.77-3.39-3.71l1.22-.98c1.58,1.33,3.5,3.54,4.48,5.04l-.67.49.28.14c-.11.17-.28.31-.49.38-2.7,13.2-9.52,21.07-20.97,25.1-.42-.63-1.12-1.54-1.61-2.03,10.99-3.64,17.5-11.31,19.53-21.84h-22.3v-2.38h23.21l.46-.32.25.11ZM592.6,362.01c-.88-1.5-2.83-3.82-4.27-5.04l1.3-1.01c1.61,1.33,3.36,3.5,4.38,5.04l-1.4,1.02Z"/>
    <path class="cls-8" d="M626.76,368.56h-7.32v2.42c0,6.69-2.07,13.48-11.2,17.61-.46-.56-1.19-1.26-1.82-1.75,8.89-3.85,10.54-10.08,10.54-15.82v-2.45h-11.31v8.72h-2.49v-8.72h-6.86v-2.38h6.86v-7.6l3.36.21c-.03.35-.35.67-.88.74v6.65h11.31v-8.05l3.36.21c-.04.32-.32.6-.88.67v7.18h7.32v2.38Z"/>
    <path class="cls-8" d="M658.64,360.3c-.14.18-.35.28-.67.28-.11,0-.21,0-.35-.04-2.7,2.73-6.58,5.92-9.98,8.37.28.11.7.32.84.38-.07.21-.38.42-.77.46v18.8h-2.55v-17.99c-3.71,2.62-8.54,5.46-13.34,7.81-.35-.56-.98-1.44-1.47-1.93,9.56-4.41,20.02-11.9,25.66-18.1l2.63,1.96Z"/>
    <path class="cls-8" d="M683.39,376.68c-3.57-1.92-8.47-4.2-12.29-5.71v17.5h-2.63v-30.42l3.54.21c-.04.38-.32.63-.91.73v10.22l.52-.74c4.1,1.5,9.52,3.92,13.16,5.85l-1.4,2.34Z"/>
    <path class="cls-8" d="M698.29,387.05l7.26-25.91h2.46l-7.25,25.91h-2.48Z"/>
    <path class="cls-8" d="M748.61,361.24c-.07.14-.28.25-.46.32-1.89,4.48-4.9,8.37-8.3,11.2-.53-.46-1.5-1.08-2.13-1.44,3.22-2.34,5.81-5.74,6.96-8.68h-25.06v-2.38h26.39l.39-.18,2.21,1.16ZM734.96,367.61c-.04.28-.35.53-.81.59-1.01,8.26-3.85,16.14-11.06,20.3-.49-.42-1.4-1.23-2.07-1.61,7.14-3.92,9.7-11.24,10.54-19.67l3.4.38Z"/>
    <path class="cls-8" d="M752.63,362.29h22.26l.21-.11,2.38,1.82c-.1.14-.21.25-.42.32-2.83,13.16-8.93,20.02-19.64,24.08-.39-.63-1.08-1.54-1.58-2.07,10.19-3.75,16.07-10.26,18.34-21.63h-21.56v-2.42ZM779.31,356.03c2.1,0,3.82,1.71,3.82,3.85s-1.71,3.82-3.82,3.82-3.85-1.71-3.85-3.82c0-2.21,1.79-3.85,3.85-3.85ZM781.97,359.88c0-1.5-1.19-2.7-2.66-2.7s-2.7,1.19-2.7,2.7,1.23,2.7,2.7,2.7,2.66-1.29,2.66-2.7Z"/>
    <path class="cls-8" d="M788.09,377.41v-17.01l3.33.21c-.04.32-.28.56-.84.63v16.17h-2.49ZM807.58,359.04c-.04.35-.28.53-.84.59v11.13c0,7.35-2.52,14.07-12.57,17.96-.35-.53-1.23-1.44-1.82-1.89,9.7-3.61,11.87-9.59,11.87-16.07v-11.94l3.36.21Z"/>
  </g>
  <g>
    <path class="cls-12" d="M726.74,151.64c0,7.17-6.4,12.98-14.28,12.98s-14.28-5.81-14.28-12.98c0,7.17-6.4,12.98-14.28,12.98s-14.28-5.81-14.28-12.98c0,7.17-6.4,12.98-14.28,12.98s-14.28-5.81-14.28-12.98c0,7.17-6.4,12.98-14.28,12.98s-14.28-5.81-14.28-12.98c0,7.17-6.4,12.98-14.28,12.98s-14.28-5.81-14.28-12.98"/>
    <path class="cls-11" d="M583.91,151.64l14.89-47.23c.8-2.79,3.34-4.71,6.24-4.71h100.58c2.9,0,5.45,1.92,6.24,4.71l14.89,47.23"/>
    <path class="cls-12" d="M717,164.62v77.91c0,3.59-2.91,6.49-6.49,6.49h-110.37c-3.59,0-6.49-2.91-6.49-6.49v-77.91"/>
    <line class="cls-11" x1="639.09" y1="158.13" x2="639.09" y2="249.03"/>
    <line class="cls-11" x1="626.11" y1="197.09" x2="626.11" y2="203.58"/>
    <line class="cls-11" x1="678.05" y1="184.1" x2="658.57" y2="203.58"/>
    <line class="cls-11" x1="691.03" y1="197.09" x2="665.06" y2="223.06"/>
    <line class="cls-11" x1="698.18" y1="151.64" x2="690.36" y2="99.7"/>
    <line class="cls-11" x1="669.61" y1="151.64" x2="664.79" y2="99.7"/>
    <line class="cls-11" x1="641.04" y1="151.64" x2="645.45" y2="99.7"/>
    <line class="cls-11" x1="612.48" y1="151.64" x2="620.83" y2="99.7"/>
  </g>
  <path class="cls-15" d="M1036.41,616.76h162.58v-7.98l-81.28-39.19-81.3,39.19v7.98h0ZM1034.52,703h11.02v-68.72h-3.21c-1.03,0-1.86-.84-1.86-1.87v-11.89h-5.95c-1.04,0-1.87-.84-1.87-1.88v-11.05h0c0-.69.39-1.36,1.06-1.69l83.18-40.1c.5-.24,1.1-.26,1.64,0l83.04,40.04c.7.28,1.19.96,1.19,1.75v11.05c0,1.04-.85,1.88-1.89,1.88h-5.94v11.89c0,1.03-.84,1.87-1.86,1.87h-3.21v68.72h11.01c1.04,0,1.89.85,1.89,1.89v11.59c0,1.04-.85,1.88-1.89,1.88h-166.35c-1.04,0-1.87-.84-1.87-1.88v-11.59c0-1.03.84-1.89,1.87-1.89h0ZM1083.05,620.52v11.89c0,1.03-.83,1.87-1.86,1.87h-3.21v68.72h23.5v-68.72h-3.2c-1.03,0-1.86-.84-1.86-1.87v-11.89h-13.37ZM1138.99,620.52v11.89c0,1.03-.83,1.87-1.85,1.87h-3.22v68.72h23.51v-68.72h-3.21c-1.02,0-1.85-.84-1.85-1.87v-11.89h-13.38ZM1191.22,620.52h-35.15v10.01h35.15v-10.01h0ZM1135.27,620.52h-35.15v10.01h35.15v-10.01h0ZM1079.34,620.52h-35.16v10.01h35.16v-10.01h0ZM1049.3,703h24.9v-68.72h-24.9v68.72h0ZM1105.25,703h24.91v-68.72h-24.91v68.72h0ZM1161.19,703h24.92v-68.72h-24.92v68.72h0ZM1198.99,706.77h-162.58v7.83h162.58v-7.83Z"/>
  <g>
    <path class="cls-12" d="M245.34,134.13c0,15.69-13.4,28.25-29.38,26.86-14.17-1.23-24.55-14.04-24.55-28.26v-7.99c0-14.22,10.39-27.03,24.55-28.26,15.98-1.39,29.38,11.17,29.38,26.86v10.79Z"/>
    <path class="cls-12" d="M232.56,185.96l-9.02,10.77c-2.69,3.22-7.64,3.22-10.34,0l-9.02-10.77c-3.76-4.48-10.05-6.2-15.41-3.86-24.04,10.47-41.46,33.31-44.19,60.49-.4,4,2.72,7.5,6.74,7.5h134.09c4.02,0,7.14-3.5,6.74-7.5-2.73-27.18-20.15-50.02-44.19-60.49-5.36-2.34-11.65-.62-15.41,3.86Z"/>
  </g>
  <g>
    <line class="cls-9" x1="802.5" y1="204.25" x2="996.72" y2="204.25"/>
    <polygon class="cls-6" points="993.92 213.82 1010.5 204.25 993.92 194.68 993.92 213.82"/>
  </g>
  <g>
    <line class="cls-10" x1="352.5" y1="184.5" x2="491.54" y2="184.5"/>
    <polygon class="cls-6" points="486.87 200.46 514.5 184.5 486.87 168.54 486.87 200.46"/>
  </g>
  <g>
    <rect class="cls-13" x="392.73" y="217.22" width="74.21" height="48.4" rx="1" ry="1"/>
    <rect class="cls-13" x="392.73" y="226.9" width="74.21" height="9.68"/>
    <line class="cls-13" x1="399.18" y1="252.71" x2="412.09" y2="252.71"/>
    <line class="cls-13" x1="421.77" y1="252.71" x2="431.45" y2="252.71"/>
  </g>
  <rect class="cls-5" x="1031.75" y="93.23" width="186.89" height="186.89" rx="19.94" ry="19.94"/>
  <text class="cls-3" transform="translate(1017.39 319.48)"><tspan x="0" y="0">決</tspan><tspan class="cls-22" x="30" y="0">済</tspan><tspan class="cls-25" x="59.4" y="0">ゲ</tspan><tspan class="cls-21" x="89.1" y="0">ー</tspan><tspan class="cls-20" x="114.6" y="0">ト</tspan><tspan class="cls-19" x="141" y="0">ウ</tspan><tspan class="cls-18" x="165.6" y="0">ェ</tspan><tspan class="cls-23" x="192.6" y="0">イ</tspan></text>
  <g>
    <g>
      <path class="cls-12" d="M1115.84,193.02c-4.68,1.08-9.12,2.95-13.05,5.47"/>
      <path class="cls-12" d="M1147.6,198.49c-3.93-2.53-8.37-4.4-13.05-5.47"/>
      <path class="cls-12" d="M1166.26,224.72c-1.08-4.68-2.95-9.12-5.47-13.05"/>
      <path class="cls-12" d="M1089.61,211.68c-2.53,3.93-4.4,8.37-5.47,13.05"/>
      <path class="cls-12" d="M1146.01,236.77c.16-.86.22-1.77.22-2.69,0-11.67-9.36-21.03-21.03-21.03s-21.03,9.36-21.03,21.03c0,.91.05,1.83.22,2.69"/>
      <polyline class="cls-12" points="1115.84 193.02 1115.84 180.3 1134.55 180.3 1134.55 193.02"/>
      <polyline class="cls-12" points="1147.6 198.49 1156.62 189.42 1169.86 202.65 1160.78 211.68"/>
      <polyline class="cls-12" points="1166.23 224.72 1178.98 224.72 1178.98 236.77"/>
      <polyline class="cls-12" points="1071.42 236.77 1071.42 224.72 1084.16 224.72"/>
      <polyline class="cls-12" points="1089.61 211.68 1080.54 202.65 1093.77 189.42 1102.8 198.49"/>
    </g>
    <path class="cls-12" d="M1063.35,134.59h123.69v101.18c0,.55-.45,1-1,1h-121.69c-.55,0-1-.45-1-1v-101.18h0Z"/>
    <line class="cls-12" x1="1063.35" y1="156.1" x2="1187.04" y2="156.1"/>
    <circle class="cls-16" cx="1079.49" cy="145.34" r="2.69"/>
    <circle class="cls-16" cx="1090.24" cy="145.34" r="2.69"/>
    <circle class="cls-16" cx="1101" cy="145.34" r="2.69"/>
  </g>
  <g>
    <line class="cls-9" x1="1100.31" y1="340" x2="1100.31" y2="501.97"/>
    <polygon class="cls-6" points="1090.73 499.17 1100.31 515.75 1109.88 499.17 1090.73 499.17"/>
  </g>
  <g>
    <line class="cls-9" x1="1150.19" y1="353.78" x2="1150.19" y2="515.75"/>
    <polygon class="cls-6" points="1140.62 356.58 1150.19 340 1159.77 356.58 1140.62 356.58"/>
  </g>
  <g>
    <line class="cls-9" x1="816.28" y1="162.5" x2="1008" y2="162.5"/>
    <polygon class="cls-6" points="819.08 172.07 802.5 162.5 819.08 152.93 819.08 172.07"/>
  </g>
  <rect class="cls-14" x="1452" y="580" width="459" height="127" rx="42.4" ry="42.4"/>
  <text class="cls-2" transform="translate(1567.69 654.62)"><tspan x="0" y="0">決済対象の取引</tspan></text>
  <g>
    <line class="cls-9" x1="1244" y1="184.5" x2="1385.72" y2="184.5"/>
    <polygon class="cls-6" points="1382.92 194.07 1399.5 184.5 1382.92 174.93 1382.92 194.07"/>
  </g>
  <line class="cls-9" x1="1715" y1="182.5" x2="1820.5" y2="182.5"/>
  <rect class="cls-9" x="1469.41" y="91.56" width="186.68" height="187.38" transform="translate(588.71 -1050.77) rotate(45)"/>
  <g>
    <line class="cls-9" x1="1563.5" y1="339.5" x2="1563.5" y2="543.22"/>
    <polygon class="cls-6" points="1553.93 540.42 1563.5 557 1573.07 540.42 1553.93 540.42"/>
  </g>
  <text class="cls-1" transform="translate(1470.63 190.31)"><tspan x="0" y="0">売上処理方法</tspan></text>
  <g>
    <line class="cls-9" x1="1820.5" y1="182.5" x2="1820.5" y2="540.22"/>
    <polygon class="cls-6" points="1810.93 537.42 1820.5 554 1830.07 537.42 1810.93 537.42"/>
  </g>
  <text class="cls-4" transform="translate(1266.06 165)"><tspan x="0" y="0">承認済み</tspan></text>
  <text class="cls-4" transform="translate(1582.23 368.35)"><tspan class="cls-24" x="0" y="0">自</tspan><tspan x="26.89" y="0">動</tspan></text>
  <text class="cls-4" transform="translate(1734.23 163.35)"><tspan x="0" y="0">手動</tspan></text>
</svg>