<?xml version="1.0" encoding="UTF-8"?>
<svg id="Layer_1" data-name="Layer 1" xmlns="http://www.w3.org/2000/svg" viewBox="0 0 1997 1150">
  <defs>
    <style>
      .cls-1 {
        fill: #ff931e;
      }

      .cls-2 {
        stroke: #29abe2;
      }

      .cls-2, .cls-3, .cls-4, .cls-5, .cls-6 {
        fill: none;
      }

      .cls-2, .cls-3, .cls-5, .cls-6 {
        stroke-miterlimit: 10;
      }

      .cls-2, .cls-6 {
        stroke-width: 5px;
      }

      .cls-7 {
        fill: #4d4d4d;
      }

      .cls-8 {
        fill: #0071bc;
      }

      .cls-9 {
        font-family: Courier-Bold, Courier;
      }

      .cls-9, .cls-10 {
        font-size: 25.9px;
      }

      .cls-9, .cls-10, .cls-11 {
        fill: #fff;
      }

      .cls-9, .cls-10, .cls-12 {
        font-weight: 700;
      }

      .cls-10, .cls-12 {
        font-family: Arial-BoldMT, Arial;
      }

      .cls-3, .cls-4 {
        stroke: #fff;
        stroke-linecap: round;
        stroke-width: 3px;
      }

      .cls-4 {
        stroke-linejoin: round;
      }

      .cls-13 {
        fill: #29abe2;
      }

      .cls-5 {
        stroke: #0071bc;
        stroke-width: 4px;
      }

      .cls-14 {
        fill: #f1f1f1;
        fill-rule: evenodd;
      }

      .cls-6 {
        stroke: #ff931e;
      }

      .cls-15 {
        letter-spacing: -.02em;
      }

      .cls-12 {
        font-size: 35px;
      }
    </style>
  </defs>
  <rect class="cls-11" width="1997" height="1150"/>
  <rect class="cls-13" x="75.5" y="68.64" width="187.59" height="187.59" rx="19.94" ry="19.94"/>
  <text class="cls-12" transform="translate(90.74 298.73)"><tspan x="0" y="0">Merchant</tspan></text>
  <g>
    <path class="cls-4" d="M224.17,144.98c0,5.49-4.9,9.95-10.94,9.95s-10.94-4.45-10.94-9.95c0,5.49-4.9,9.95-10.94,9.95s-10.94-4.45-10.94-9.95c0,5.49-4.9,9.95-10.94,9.95s-10.94-4.45-10.94-9.95c0,5.49-4.9,9.95-10.94,9.95s-10.94-4.45-10.94-9.95c0,5.49-4.9,9.95-10.94,9.95s-10.94-4.45-10.94-9.95"/>
    <path class="cls-3" d="M114.73,144.98l11.4-36.19c.61-2.14,2.56-3.61,4.78-3.61h77.06c2.22,0,4.17,1.47,4.78,3.61l11.4,36.19"/>
    <path class="cls-4" d="M216.71,154.93v59.69c0,2.75-2.23,4.97-4.97,4.97h-84.56c-2.75,0-4.97-2.23-4.97-4.97v-59.69"/>
    <line class="cls-3" x1="157.02" y1="149.96" x2="157.02" y2="219.59"/>
    <line class="cls-3" x1="147.07" y1="179.8" x2="147.07" y2="184.78"/>
    <line class="cls-3" x1="186.86" y1="169.85" x2="171.94" y2="184.78"/>
    <line class="cls-3" x1="196.81" y1="179.8" x2="176.91" y2="199.7"/>
    <line class="cls-3" x1="202.28" y1="144.98" x2="196.29" y2="105.19"/>
    <line class="cls-3" x1="180.39" y1="144.98" x2="176.7" y2="105.19"/>
    <line class="cls-3" x1="158.51" y1="144.98" x2="161.89" y2="105.19"/>
    <line class="cls-3" x1="136.62" y1="144.98" x2="143.03" y2="105.19"/>
  </g>
  <g>
    <path d="M846.7,297.04v-25.05h8.12c3.08,0,5.08.13,6.02.38,1.44.38,2.64,1.19,3.61,2.45.97,1.26,1.45,2.89,1.45,4.88,0,1.54-.28,2.83-.84,3.88-.56,1.05-1.27,1.87-2.13,2.47-.86.6-1.73.99-2.62,1.19-1.21.24-2.96.36-5.25.36h-3.3v9.45h-5.06ZM851.75,276.23v7.11h2.77c1.99,0,3.33-.13,4-.39.67-.26,1.2-.67,1.58-1.23.38-.56.57-1.21.57-1.95,0-.91-.27-1.66-.8-2.26-.54-.59-1.21-.96-2.03-1.11-.6-.11-1.82-.17-3.64-.17h-2.44Z"/>
    <path d="M873.59,284.43l-4.36-.79c.49-1.75,1.33-3.05,2.53-3.9,1.2-.84,2.97-1.26,5.33-1.26,2.14,0,3.74.25,4.79.76,1.05.51,1.79,1.15,2.21,1.93.43.78.64,2.21.64,4.3l-.05,5.61c0,1.6.08,2.77.23,3.53.15.76.44,1.57.86,2.44h-4.75c-.13-.32-.28-.79-.46-1.42-.08-.28-.14-.47-.17-.56-.82.8-1.7,1.4-2.63,1.79-.93.4-1.93.6-2.99.6-1.87,0-3.34-.51-4.42-1.52-1.08-1.01-1.61-2.3-1.61-3.85,0-1.03.24-1.94.73-2.74.49-.8,1.18-1.42,2.06-1.85.88-.43,2.16-.8,3.82-1.12,2.24-.42,3.8-.81,4.67-1.18v-.48c0-.92-.23-1.58-.68-1.97-.46-.39-1.32-.59-2.58-.59-.85,0-1.52.17-2,.5s-.87.93-1.16,1.77ZM880.02,288.33c-.62.21-1.59.45-2.92.73-1.33.29-2.2.56-2.61.84-.63.44-.94,1.01-.94,1.69s.25,1.25.75,1.74c.5.49,1.14.73,1.91.73.87,0,1.69-.28,2.48-.85.58-.43.96-.96,1.15-1.59.12-.41.19-1.19.19-2.34v-.96Z"/>
    <path d="M887.2,278.89h5.11l4.34,12.89,4.24-12.89h4.97l-6.41,17.47-1.14,3.16c-.42,1.06-.82,1.87-1.21,2.43-.38.56-.82,1.01-1.32,1.36-.5.35-1.11.62-1.83.81-.72.19-1.54.29-2.45.29s-1.83-.1-2.72-.29l-.43-3.76c.75.15,1.43.22,2.03.22,1.12,0,1.94-.33,2.48-.98.54-.66.95-1.49,1.23-2.5l-6.9-18.2Z"/>
    <path d="M908.58,278.89h4.43v2.48c1.58-1.93,3.47-2.89,5.66-2.89,1.16,0,2.17.24,3.03.72.85.48,1.55,1.2,2.1,2.17.8-.97,1.66-1.69,2.58-2.17.92-.48,1.91-.72,2.96-.72,1.33,0,2.46.27,3.38.81.92.54,1.61,1.34,2.07,2.38.33.77.5,2.03.5,3.76v11.6h-4.8v-10.37c0-1.8-.17-2.96-.5-3.49-.44-.68-1.13-1.03-2.05-1.03-.67,0-1.3.21-1.9.62-.59.41-1.02,1.01-1.28,1.8-.26.79-.39,2.04-.39,3.75v8.72h-4.8v-9.95c0-1.77-.09-2.91-.26-3.42-.17-.51-.44-.89-.79-1.15-.36-.25-.85-.38-1.46-.38-.74,0-1.41.2-2,.6-.59.4-1.02.97-1.27,1.73-.26.75-.38,2-.38,3.74v8.82h-4.8v-18.15Z"/>
    <path d="M950.57,291.27l4.79.8c-.62,1.75-1.59,3.09-2.91,4.01-1.33.92-2.99,1.38-4.98,1.38-3.16,0-5.49-1.03-7.01-3.09-1.2-1.65-1.79-3.74-1.79-6.25,0-3.01.79-5.36,2.36-7.07,1.57-1.7,3.56-2.55,5.96-2.55,2.7,0,4.83.89,6.39,2.67,1.56,1.78,2.31,4.51,2.24,8.19h-12.03c.03,1.42.42,2.53,1.16,3.32.74.79,1.66,1.19,2.77,1.19.75,0,1.38-.21,1.9-.62s.9-1.07,1.16-1.98ZM950.84,286.41c-.03-1.39-.39-2.45-1.08-3.17s-1.51-1.09-2.49-1.09c-1.05,0-1.91.38-2.6,1.15-.68.76-1.02,1.8-1.01,3.11h7.18Z"/>
    <path d="M976.03,297.04h-4.8v-9.26c0-1.96-.1-3.23-.31-3.8-.21-.57-.54-1.02-1-1.34-.46-.32-1.02-.48-1.67-.48-.83,0-1.58.23-2.24.68-.66.46-1.11,1.06-1.36,1.81s-.37,2.14-.37,4.17v8.22h-4.8v-18.15h4.46v2.67c1.58-2.05,3.58-3.08,5.98-3.08,1.06,0,2.03.19,2.91.57.88.38,1.54.87,1.99,1.46.45.59.76,1.26.94,2.02s.27,1.83.27,3.23v11.28Z"/>
    <path d="M989.22,278.89v3.83h-3.28v7.31c0,1.48.03,2.34.09,2.59.06.25.21.45.43.61.22.16.49.24.81.24.44,0,1.09-.15,1.93-.46l.41,3.73c-1.12.48-2.38.72-3.79.72-.87,0-1.65-.15-2.34-.44-.7-.29-1.21-.67-1.53-1.13-.33-.46-.55-1.09-.67-1.87-.1-.56-.15-1.69-.15-3.38v-7.91h-2.21v-3.83h2.21v-3.61l4.82-2.8v6.41h3.28Z"/>
    <path d="M1001.29,284.67c0-2.55.38-4.69,1.14-6.43.57-1.28,1.35-2.42,2.33-3.44.99-1.01,2.06-1.77,3.24-2.26,1.56-.66,3.36-.99,5.4-.99,3.69,0,6.64,1.15,8.86,3.44,2.22,2.29,3.32,5.47,3.32,9.55s-1.1,7.21-3.3,9.49c-2.2,2.28-5.14,3.43-8.82,3.43s-6.69-1.14-8.89-3.41c-2.2-2.27-3.3-5.4-3.3-9.39ZM1006.5,284.5c0,2.84.66,4.99,1.97,6.45,1.31,1.46,2.97,2.2,4.99,2.2s3.67-.73,4.96-2.18c1.29-1.45,1.94-3.63,1.94-6.54s-.63-5.01-1.89-6.43c-1.26-1.41-2.93-2.12-5.02-2.12s-3.77.72-5.04,2.14c-1.28,1.43-1.91,3.59-1.91,6.47Z"/>
    <path d="M1029.37,278.89h4.48v2.67c.58-.91,1.37-1.65,2.36-2.22.99-.57,2.09-.85,3.3-.85,2.11,0,3.9.83,5.37,2.48,1.47,1.65,2.2,3.95,2.2,6.9s-.74,5.39-2.22,7.07c-1.48,1.68-3.28,2.52-5.38,2.52-1,0-1.91-.2-2.73-.6-.82-.4-1.67-1.08-2.57-2.05v9.14h-4.8v-25.05ZM1034.12,287.66c0,2.04.4,3.55,1.21,4.52.81.97,1.79,1.46,2.96,1.46s2.04-.45,2.79-1.34c.74-.89,1.11-2.36,1.11-4.4,0-1.9-.38-3.32-1.15-4.24-.76-.92-1.71-1.38-2.84-1.38s-2.15.45-2.92,1.36c-.78.91-1.16,2.25-1.16,4.02Z"/>
    <path d="M1059.21,278.89v3.83h-3.28v7.31c0,1.48.03,2.34.09,2.59.06.25.21.45.43.61.22.16.49.24.81.24.44,0,1.09-.15,1.93-.46l.41,3.73c-1.12.48-2.38.72-3.79.72-.87,0-1.65-.15-2.34-.44-.7-.29-1.21-.67-1.53-1.13-.33-.46-.55-1.09-.67-1.87-.1-.56-.15-1.69-.15-3.38v-7.91h-2.21v-3.83h2.21v-3.61l4.82-2.8v6.41h3.28Z"/>
    <path d="M1062.54,276.43v-4.44h4.8v4.44h-4.8ZM1062.54,297.04v-18.15h4.8v18.15h-4.8Z"/>
    <path d="M1071.15,287.71c0-1.59.39-3.14,1.18-4.63.79-1.49,1.9-2.63,3.34-3.42,1.44-.79,3.05-1.18,4.83-1.18,2.75,0,5,.89,6.75,2.67,1.75,1.78,2.63,4.04,2.63,6.76s-.89,5.02-2.66,6.83c-1.77,1.81-4,2.71-6.69,2.71-1.66,0-3.25-.38-4.76-1.13-1.51-.75-2.66-1.85-3.44-3.31-.79-1.45-1.18-3.22-1.18-5.31ZM1076.08,287.97c0,1.8.43,3.18,1.28,4.14.85.96,1.91,1.44,3.16,1.44s2.3-.48,3.15-1.44c.85-.96,1.27-2.35,1.27-4.17s-.42-3.14-1.27-4.1c-.85-.96-1.9-1.44-3.15-1.44s-2.31.48-3.16,1.44c-.86.96-1.28,2.34-1.28,4.14Z"/>
    <path d="M1110.15,297.04h-4.8v-9.26c0-1.96-.1-3.23-.31-3.8-.21-.57-.54-1.02-1-1.34-.46-.32-1.02-.48-1.67-.48-.83,0-1.58.23-2.24.68-.66.46-1.11,1.06-1.36,1.81s-.37,2.14-.37,4.17v8.22h-4.8v-18.15h4.46v2.67c1.58-2.05,3.58-3.08,5.98-3.08,1.06,0,2.03.19,2.91.57.88.38,1.54.87,1.99,1.46.45.59.76,1.26.94,2.02s.27,1.83.27,3.23v11.28Z"/>
    <path d="M1113.33,291.86l4.82-.73c.21.93.62,1.64,1.25,2.13.63.48,1.5.73,2.63.73,1.24,0,2.18-.23,2.8-.68.42-.32.63-.75.63-1.28,0-.36-.11-.67-.34-.91-.24-.23-.78-.44-1.61-.63-3.87-.85-6.33-1.63-7.37-2.34-1.44-.98-2.15-2.34-2.15-4.08,0-1.57.62-2.89,1.86-3.96,1.24-1.07,3.17-1.61,5.78-1.61s4.33.4,5.54,1.21c1.21.81,2.04,2.01,2.5,3.59l-4.53.84c-.19-.71-.56-1.25-1.1-1.62-.54-.38-1.31-.56-2.32-.56-1.26,0-2.17.18-2.72.53-.37.25-.55.58-.55.97,0,.34.16.63.48.87.43.32,1.93.77,4.49,1.35,2.56.58,4.34,1.29,5.36,2.14,1,.85,1.5,2.05,1.5,3.57,0,1.66-.7,3.09-2.08,4.29-1.39,1.2-3.45,1.79-6.17,1.79-2.47,0-4.43-.5-5.87-1.5-1.44-1-2.38-2.36-2.83-4.08Z"/>
    <path d="M925.89,334.36c-1.46-1.84-2.69-3.98-3.69-6.45s-1.51-5.01-1.51-7.65c0-2.32.38-4.55,1.13-6.68.88-2.47,2.24-4.93,4.07-7.38h1.89c-1.18,2.03-1.96,3.48-2.34,4.35-.6,1.35-1.06,2.75-1.41,4.22-.42,1.83-.63,3.66-.63,5.51,0,4.7,1.46,9.39,4.38,14.08h-1.89Z"/>
    <path d="M941.23,319.62v-2.52h9.1s0,7.95,0,7.95c-1.4,1.11-2.84,1.95-4.32,2.51s-3.01.84-4.57.84c-2.11,0-4.03-.45-5.75-1.35s-3.02-2.21-3.9-3.92-1.32-3.62-1.32-5.73.44-4.04,1.31-5.85c.87-1.81,2.13-3.16,3.77-4.04s3.53-1.32,5.67-1.32c1.55,0,2.96.25,4.21.75,1.25.5,2.24,1.2,2.95,2.1s1.25,2.07,1.63,3.52l-2.56.7c-.32-1.09-.72-1.95-1.2-2.58s-1.16-1.13-2.05-1.5-1.88-.56-2.96-.56c-1.3,0-2.42.2-3.37.59s-1.71.92-2.29,1.56-1.03,1.35-1.35,2.12c-.55,1.33-.82,2.77-.82,4.32,0,1.91.33,3.52.99,4.8.66,1.29,1.62,2.25,2.88,2.87s2.6.94,4.01.94c1.23,0,2.43-.24,3.6-.71s2.06-.98,2.67-1.52v-4h-6.31Z"/>
    <path d="M964.33,326.12c-.98.83-1.92,1.42-2.82,1.76s-1.87.51-2.91.51c-1.71,0-3.02-.42-3.94-1.25s-1.38-1.9-1.38-3.2c0-.76.17-1.46.52-2.09s.8-1.14,1.36-1.52c.56-.38,1.19-.67,1.9-.86.52-.14,1.3-.27,2.34-.4,2.13-.25,3.7-.56,4.7-.91,0-.36.01-.59.01-.69,0-1.07-.25-1.83-.75-2.27-.67-.6-1.67-.89-3-.89-1.24,0-2.16.22-2.75.65-.59.43-1.03,1.2-1.31,2.31l-2.58-.35c.23-1.1.62-1.99,1.16-2.67s1.31-1.2,2.33-1.57,2.19-.55,3.53-.55,2.41.16,3.24.47,1.44.71,1.83,1.18.66,1.07.82,1.79c.09.45.13,1.26.13,2.43v3.52c0,2.45.06,4,.17,4.65.11.65.33,1.27.67,1.87h-2.75c-.27-.55-.45-1.19-.53-1.92ZM964.11,320.24c-.96.39-2.39.72-4.31,1-1.08.16-1.85.33-2.3.53s-.8.48-1.04.86-.37.79-.37,1.25c0,.7.27,1.29.8,1.76.53.47,1.31.7,2.34.7s1.92-.22,2.71-.67,1.37-1.05,1.74-1.82c.28-.6.42-1.47.42-2.64v-.97Z"/>
    <path d="M976.62,325.68l.38,2.33c-.74.16-1.41.23-1.99.23-.96,0-1.7-.15-2.23-.45s-.9-.7-1.11-1.19-.32-1.53-.32-3.11v-8.95h-1.93v-2.05h1.93v-3.85l2.62-1.58v5.43h2.65v2.05h-2.65v9.1c0,.75.05,1.24.14,1.45.09.21.24.39.45.51s.51.19.9.19c.29,0,.68-.03,1.16-.1Z"/>
    <path d="M989.85,323.03l2.72.34c-.43,1.59-1.23,2.83-2.39,3.71s-2.65,1.32-4.45,1.32c-2.28,0-4.08-.7-5.41-2.1-1.33-1.4-2-3.37-2-5.9s.67-4.65,2.02-6.09,3.1-2.17,5.24-2.17,3.78.71,5.1,2.12,1.98,3.41,1.98,5.98c0,.16,0,.39-.01.7h-11.6c.1,1.71.58,3.02,1.45,3.93s1.95,1.36,3.25,1.36c.97,0,1.79-.25,2.48-.76s1.23-1.32,1.63-2.43ZM981.19,318.77h8.69c-.12-1.31-.45-2.29-1-2.94-.84-1.02-1.93-1.52-3.27-1.52-1.21,0-2.23.41-3.05,1.22-.83.81-1.28,1.89-1.37,3.25Z"/>
    <path d="M998.76,328.04l-4.76-15.56h2.72l2.48,8.98.92,3.34c.04-.17.31-1.24.81-3.21l2.48-9.11h2.71l2.33,9.02.78,2.97.89-3,2.67-8.99h2.56l-4.86,15.56h-2.74l-2.48-9.32-.6-2.65-3.15,11.97h-2.75Z"/>
    <path d="M1027.7,326.12c-.98.83-1.92,1.42-2.82,1.76s-1.87.51-2.91.51c-1.71,0-3.02-.42-3.94-1.25s-1.38-1.9-1.38-3.2c0-.76.17-1.46.52-2.09s.8-1.14,1.36-1.52c.56-.38,1.19-.67,1.9-.86.52-.14,1.3-.27,2.34-.4,2.13-.25,3.7-.56,4.7-.91,0-.36.01-.59.01-.69,0-1.07-.25-1.83-.75-2.27-.67-.6-1.67-.89-3-.89-1.24,0-2.16.22-2.75.65-.59.43-1.03,1.2-1.31,2.31l-2.58-.35c.23-1.1.62-1.99,1.16-2.67s1.31-1.2,2.33-1.57,2.19-.55,3.53-.55,2.41.16,3.24.47,1.44.71,1.83,1.18.66,1.07.82,1.79c.09.45.13,1.26.13,2.43v3.52c0,2.45.06,4,.17,4.65.11.65.33,1.27.67,1.87h-2.75c-.27-.55-.45-1.19-.53-1.92ZM1027.48,320.24c-.96.39-2.39.72-4.31,1-1.08.16-1.85.33-2.3.53s-.8.48-1.04.86-.37.79-.37,1.25c0,.7.27,1.29.8,1.76.53.47,1.31.7,2.34.7s1.92-.22,2.71-.67,1.37-1.05,1.74-1.82c.28-.6.42-1.47.42-2.64v-.97Z"/>
    <path d="M1034.12,334.03l-.29-2.48c.58.16,1.08.23,1.51.23.59,0,1.05-.1,1.41-.29s.64-.47.86-.82c.17-.26.43-.92.81-1.96.05-.15.13-.36.23-.64l-5.9-15.59h2.84l3.24,9.01c.42,1.14.8,2.34,1.13,3.6.3-1.21.66-2.39,1.08-3.54l3.33-9.07h2.64l-5.92,15.82c-.63,1.71-1.13,2.89-1.48,3.53-.47.87-1.01,1.51-1.61,1.91s-1.33.61-2.17.61c-.51,0-1.07-.11-1.7-.32Z"/>
    <path d="M1050.96,334.36h-1.89c2.92-4.69,4.38-9.38,4.38-14.08,0-1.84-.21-3.66-.63-5.46-.33-1.46-.8-2.87-1.39-4.22-.38-.88-1.17-2.34-2.36-4.39h1.89c1.84,2.45,3.19,4.91,4.07,7.38.75,2.13,1.13,4.36,1.13,6.68,0,2.64-.51,5.19-1.52,7.65-1.01,2.46-2.24,4.61-3.68,6.45Z"/>
  </g>
  <rect class="cls-1" x="894.76" y="66.09" width="187.59" height="187.59" rx="19.94" ry="19.94"/>
  <g>
    <g>
      <path class="cls-4" d="M979.63,167.59c-4.82,1.11-9.4,3.04-13.45,5.64"/>
      <path class="cls-4" d="M1012.37,173.23c-4.05-2.6-8.63-4.53-13.45-5.64"/>
      <path class="cls-4" d="M1031.6,200.27c-1.11-4.82-3.04-9.4-5.64-13.45"/>
      <path class="cls-4" d="M952.59,186.82c-2.6,4.05-4.53,8.63-5.64,13.45"/>
      <path class="cls-4" d="M1010.73,212.69c.17-.89.22-1.83.22-2.77,0-12.03-9.65-21.68-21.68-21.68s-21.68,9.65-21.68,21.68c0,.94.06,1.89.22,2.77"/>
      <polyline class="cls-4" points="979.63 167.59 979.63 154.47 998.92 154.47 998.92 167.59"/>
      <polyline class="cls-4" points="1012.37 173.23 1021.67 163.87 1035.32 177.52 1025.96 186.82"/>
      <polyline class="cls-4" points="1031.58 200.27 1044.72 200.27 1044.72 212.69"/>
      <polyline class="cls-4" points="933.83 212.69 933.83 200.27 946.97 200.27"/>
      <polyline class="cls-4" points="952.59 186.82 943.23 177.52 956.88 163.87 966.18 173.23"/>
    </g>
    <path class="cls-4" d="M925.52,107.35h127.52v104.34c0,.55-.45,1-1,1h-125.52c-.55,0-1-.45-1-1v-104.34h0Z"/>
    <line class="cls-4" x1="925.52" y1="129.52" x2="1053.03" y2="129.52"/>
    <circle class="cls-11" cx="942.15" cy="118.43" r="2.77"/>
    <circle class="cls-11" cx="953.24" cy="118.43" r="2.77"/>
    <circle class="cls-11" cx="964.33" cy="118.43" r="2.77"/>
  </g>
  <line class="cls-2" x1="169.49" y1="338.5" x2="169.49" y2="1086.5"/>
  <line class="cls-6" x1="989.49" y1="338.5" x2="989.49" y2="1086.5"/>
  <g>
    <line class="cls-2" x1="215.58" y1="512.11" x2="917.54" y2="512.11"/>
    <polygon class="cls-13" points="912.87 528.06 940.5 512.11 912.87 496.15 912.87 528.06"/>
  </g>
  <g>
    <line class="cls-6" x1="1037.58" y1="512.11" x2="1754.54" y2="512.11"/>
    <polygon class="cls-1" points="1749.87 528.06 1777.5 512.11 1749.87 496.15 1749.87 528.06"/>
  </g>
  <g>
    <line class="cls-6" x1="228.46" y1="714.5" x2="808.5" y2="714.5"/>
    <polygon class="cls-1" points="233.13 730.46 205.5 714.5 233.13 698.54 233.13 730.46"/>
  </g>
  <g>
    <line class="cls-5" x1="1185.37" y1="713.5" x2="1777" y2="713.5"/>
    <polygon class="cls-8" points="1189.11 726.27 1167 713.5 1189.11 700.73 1189.11 726.27"/>
  </g>
  <g>
    <line class="cls-6" x1="192.46" y1="936.5" x2="948.65" y2="936.5"/>
    <polygon class="cls-1" points="197.13 952.46 169.5 936.5 197.13 920.54 197.13 952.46"/>
  </g>
  <rect class="cls-13" x="142.5" y="445.5" width="52" height="326.5"/>
  <rect class="cls-1" x="963" y="441" width="52" height="105"/>
  <rect class="cls-1" x="963" y="877" width="52" height="120"/>
  <line class="cls-5" x1="1832.49" y1="350" x2="1832.49" y2="1087"/>
  <rect class="cls-8" x="1806" y="441" width="52" height="302"/>
  <rect class="cls-8" x="1739.41" y="66" width="185.88" height="185.88" rx="19.94" ry="19.94"/>
  <text class="cls-12" transform="translate(1760.9 294.82)"><tspan x="0" y="0">Acquirer</tspan></text>
  <path class="cls-14" d="M1766.39,137.02h134.6v-6.6l-67.29-32.45-67.31,32.45v6.6h0ZM1764.83,208.42h9.12v-56.89h-2.66c-.85,0-1.54-.69-1.54-1.55v-9.84h-4.93c-.86,0-1.55-.7-1.55-1.56v-9.15h0c0-.57.32-1.13.88-1.4l68.86-33.19c.42-.19.91-.21,1.36,0l68.75,33.14c.58.23.99.79.99,1.45v9.15c0,.86-.7,1.56-1.56,1.56h-4.92v9.84c0,.86-.69,1.55-1.54,1.55h-2.66v56.89h9.11c.86,0,1.56.7,1.56,1.56v9.6c0,.86-.7,1.56-1.56,1.56h-137.72c-.86,0-1.55-.7-1.55-1.56v-9.6c0-.86.69-1.56,1.55-1.56h0ZM1805,140.14v9.84c0,.86-.69,1.55-1.54,1.55h-2.66v56.89h19.45v-56.89h-2.65c-.85,0-1.54-.69-1.54-1.55v-9.84h-11.07ZM1851.31,140.14v9.84c0,.86-.69,1.55-1.53,1.55h-2.67v56.89h19.46v-56.89h-2.66c-.85,0-1.53-.69-1.53-1.55v-9.84h-11.07ZM1894.55,140.14h-29.1v8.29h29.1v-8.29h0ZM1848.24,140.14h-29.1v8.29h29.1v-8.29h0ZM1801.93,140.14h-29.11v8.29h29.11v-8.29h0ZM1777.07,208.42h20.62v-56.89h-20.62v56.89h0ZM1823.38,208.42h20.62v-56.89h-20.62v56.89h0ZM1869.7,208.42h20.63v-56.89h-20.63v56.89h0ZM1900.99,211.53h-134.6v6.48h134.6v-6.48Z"/>
  <rect class="cls-7" x="357.52" y="397" width="445.04" height="95.07" rx="9.28" ry="9.28"/>
  <text class="cls-10" transform="translate(397.93 436.67)"><tspan x="0" y="0">API Request with card details</tspan></text>
  <rect class="cls-7" x="1248.99" y="397.21" width="324.01" height="95.07" rx="9.28" ry="9.28"/>
  <g>
    <path class="cls-11" d="M1277.21,436.88v-18.54h12.71v3.14h-8.97v4.39h7.74v3.14h-7.74v7.88h-3.74Z"/>
    <path class="cls-11" d="M1292.16,429.97c0-1.18.29-2.32.87-3.43.58-1.1,1.41-1.95,2.47-2.53,1.07-.58,2.26-.87,3.57-.87,2.03,0,3.7.66,5,1.98,1.3,1.32,1.95,2.99,1.95,5s-.66,3.72-1.97,5.05-2.96,2-4.95,2c-1.23,0-2.41-.28-3.52-.83s-1.97-1.37-2.55-2.45c-.58-1.08-.87-2.38-.87-3.93ZM1295.8,430.16c0,1.33.32,2.35.95,3.06.63.71,1.41,1.06,2.34,1.06s1.71-.35,2.33-1.06c.63-.71.94-1.74.94-3.09s-.31-2.33-.94-3.04c-.63-.71-1.41-1.06-2.33-1.06s-1.71.35-2.34,1.06c-.63.71-.95,1.73-.95,3.06Z"/>
    <path class="cls-11" d="M1312.2,436.88h-3.55v-13.43h3.3v1.91c.56-.9,1.07-1.5,1.52-1.78.45-.29.96-.43,1.54-.43.81,0,1.59.22,2.34.67l-1.1,3.1c-.6-.39-1.16-.58-1.67-.58s-.92.14-1.26.41c-.35.27-.62.77-.82,1.49s-.3,2.22-.3,4.5v4.15Z"/>
    <path class="cls-11" d="M1321.39,436.88l-4.25-13.43h3.45l2.52,8.8,2.31-8.8h3.43l2.24,8.8,2.57-8.8h3.5l-4.31,13.43h-3.42l-2.32-8.64-2.28,8.64h-3.45Z"/>
    <path class="cls-11" d="M1338.21,429.97c0-1.18.29-2.32.87-3.43.58-1.1,1.41-1.95,2.47-2.53,1.07-.58,2.26-.87,3.57-.87,2.03,0,3.7.66,5,1.98,1.3,1.32,1.95,2.99,1.95,5s-.66,3.72-1.97,5.05-2.96,2-4.95,2c-1.23,0-2.41-.28-3.52-.83s-1.97-1.37-2.55-2.45c-.58-1.08-.87-2.38-.87-3.93ZM1341.85,430.16c0,1.33.32,2.35.95,3.06.63.71,1.41,1.06,2.34,1.06s1.71-.35,2.33-1.06c.63-.71.94-1.74.94-3.09s-.31-2.33-.94-3.04c-.63-.71-1.41-1.06-2.33-1.06s-1.71.35-2.34,1.06c-.63.71-.95,1.73-.95,3.06Z"/>
    <path class="cls-11" d="M1358.25,436.88h-3.55v-13.43h3.3v1.91c.56-.9,1.07-1.5,1.52-1.78.45-.29.96-.43,1.54-.43.81,0,1.59.22,2.34.67l-1.1,3.1c-.6-.39-1.16-.58-1.67-.58s-.92.14-1.26.41c-.35.27-.62.77-.82,1.49s-.3,2.22-.3,4.5v4.15Z"/>
    <path class="cls-11" d="M1377.25,436.88h-3.3v-1.97c-.55.77-1.19,1.34-1.94,1.71-.75.38-1.5.56-2.26.56-1.54,0-2.87-.62-3.97-1.87s-1.65-2.98-1.65-5.2.54-4.01,1.61-5.19c1.07-1.18,2.42-1.78,4.06-1.78,1.5,0,2.8.62,3.9,1.87v-6.68h3.55v18.54ZM1367.77,429.87c0,1.43.2,2.47.59,3.11.57.93,1.37,1.39,2.4,1.39.82,0,1.51-.35,2.09-1.04.57-.7.86-1.73.86-3.12,0-1.54-.28-2.65-.83-3.33-.56-.68-1.27-1.02-2.14-1.02s-1.55.34-2.12,1.01c-.57.67-.85,1.67-.85,3Z"/>
    <path class="cls-11" d="M1379.5,433.04l3.57-.54c.15.69.46,1.22.92,1.57.46.36,1.11.54,1.95.54.92,0,1.61-.17,2.07-.51.31-.24.47-.55.47-.95,0-.27-.08-.49-.25-.67-.18-.17-.57-.32-1.19-.47-2.87-.63-4.68-1.21-5.45-1.73-1.06-.73-1.59-1.73-1.59-3.02,0-1.16.46-2.14,1.38-2.93.92-.79,2.34-1.19,4.27-1.19s3.2.3,4.1.9c.89.6,1.51,1.48,1.85,2.66l-3.35.62c-.14-.52-.42-.92-.82-1.2s-.97-.42-1.71-.42c-.94,0-1.61.13-2.01.39-.27.19-.41.43-.41.72,0,.25.12.47.35.65.32.24,1.43.57,3.32,1,1.89.43,3.21.96,3.96,1.58.74.63,1.11,1.51,1.11,2.64,0,1.23-.51,2.29-1.54,3.17-1.03.89-2.55,1.33-4.57,1.33-1.83,0-3.28-.37-4.34-1.11-1.07-.74-1.76-1.75-2.09-3.02Z"/>
    <path class="cls-11" d="M1414.07,427.42l-3.5.63c-.12-.7-.39-1.23-.8-1.58-.42-.35-.96-.53-1.62-.53-.89,0-1.59.31-2.12.92-.53.61-.79,1.63-.79,3.07,0,1.59.27,2.72.8,3.38.54.66,1.25.99,2.16.99.67,0,1.23-.19,1.66-.58.43-.38.73-1.04.91-1.98l3.49.59c-.36,1.6-1.06,2.81-2.09,3.63-1.03.82-2.41,1.23-4.14,1.23-1.96,0-3.53-.62-4.7-1.86-1.17-1.24-1.75-2.96-1.75-5.15s.59-3.94,1.76-5.18,2.76-1.85,4.76-1.85c1.64,0,2.94.35,3.9,1.06.96.7,1.66,1.78,2.08,3.22Z"/>
    <path class="cls-11" d="M1419.42,427.54l-3.23-.58c.36-1.3.99-2.26,1.87-2.88s2.2-.94,3.95-.94c1.58,0,2.77.19,3.54.56.78.38,1.32.85,1.64,1.43.32.58.47,1.64.47,3.18l-.04,4.15c0,1.18.06,2.05.17,2.61.11.56.33,1.16.64,1.8h-3.52c-.09-.24-.21-.59-.34-1.05-.06-.21-.1-.35-.13-.42-.61.59-1.26,1.03-1.95,1.33s-1.43.44-2.21.44c-1.38,0-2.47-.38-3.27-1.13s-1.2-1.7-1.2-2.85c0-.76.18-1.44.54-2.03.36-.59.87-1.05,1.52-1.37.65-.32,1.6-.59,2.83-.83,1.66-.31,2.81-.6,3.45-.87v-.35c0-.68-.17-1.17-.51-1.46-.34-.29-.97-.44-1.91-.44-.63,0-1.13.12-1.48.37-.35.25-.64.69-.86,1.31ZM1424.18,430.43c-.46.15-1.18.33-2.16.54-.99.21-1.63.42-1.94.62-.46.33-.7.75-.7,1.25s.19.93.56,1.29c.37.36.84.54,1.42.54.64,0,1.25-.21,1.83-.63.43-.32.71-.71.85-1.18.09-.3.14-.88.14-1.73v-.71Z"/>
    <path class="cls-11" d="M1434.57,436.88h-3.55v-13.43h3.3v1.91c.56-.9,1.07-1.5,1.52-1.78.45-.29.96-.43,1.54-.43.81,0,1.59.22,2.34.67l-1.1,3.1c-.6-.39-1.16-.58-1.67-.58s-.92.14-1.26.41c-.35.27-.62.77-.82,1.49s-.3,2.22-.3,4.5v4.15Z"/>
    <path class="cls-11" d="M1453.57,436.88h-3.3v-1.97c-.55.77-1.19,1.34-1.94,1.71-.75.38-1.5.56-2.26.56-1.54,0-2.87-.62-3.97-1.87s-1.65-2.98-1.65-5.2.54-4.01,1.61-5.19c1.07-1.18,2.42-1.78,4.06-1.78,1.5,0,2.8.62,3.9,1.87v-6.68h3.55v18.54ZM1444.09,429.87c0,1.43.2,2.47.59,3.11.57.93,1.37,1.39,2.4,1.39.82,0,1.51-.35,2.09-1.04.57-.7.86-1.73.86-3.12,0-1.54-.28-2.65-.83-3.33-.56-.68-1.27-1.02-2.14-1.02s-1.55.34-2.12,1.01c-.57.67-.85,1.67-.85,3Z"/>
    <path class="cls-11" d="M1476.59,436.88h-3.3v-1.97c-.55.77-1.19,1.34-1.94,1.71-.75.38-1.5.56-2.26.56-1.54,0-2.87-.62-3.97-1.87s-1.65-2.98-1.65-5.2.54-4.01,1.61-5.19c1.07-1.18,2.42-1.78,4.06-1.78,1.5,0,2.8.62,3.9,1.87v-6.68h3.55v18.54ZM1467.11,429.87c0,1.43.2,2.47.59,3.11.57.93,1.37,1.39,2.4,1.39.82,0,1.51-.35,2.09-1.04.57-.7.86-1.73.86-3.12,0-1.54-.28-2.65-.83-3.33-.56-.68-1.27-1.02-2.14-1.02s-1.55.34-2.12,1.01c-.57.67-.85,1.67-.85,3Z"/>
    <path class="cls-11" d="M1487.87,432.6l3.54.59c-.46,1.3-1.17,2.29-2.16,2.97-.98.68-2.21,1.02-3.69,1.02-2.34,0-4.06-.76-5.19-2.29-.89-1.22-1.33-2.77-1.33-4.63,0-2.23.58-3.97,1.75-5.23,1.16-1.26,2.63-1.89,4.41-1.89,2,0,3.58.66,4.73,1.98s1.71,3.34,1.66,6.06h-8.9c.03,1.05.31,1.87.86,2.46.55.59,1.23.88,2.05.88.56,0,1.02-.15,1.4-.46.38-.3.67-.79.86-1.47ZM1488.08,429.01c-.02-1.03-.29-1.81-.8-2.35-.51-.54-1.12-.8-1.85-.8-.78,0-1.42.28-1.92.85s-.75,1.33-.75,2.3h5.31Z"/>
    <path class="cls-11" d="M1500.66,423.44v2.83h-2.43v5.41c0,1.1.02,1.73.07,1.92.05.18.15.33.32.45.16.12.36.18.6.18.33,0,.8-.11,1.43-.34l.3,2.76c-.83.35-1.76.53-2.81.53-.64,0-1.22-.11-1.73-.32-.51-.21-.89-.49-1.13-.83-.24-.34-.41-.8-.5-1.39-.08-.41-.11-1.25-.11-2.5v-5.86h-1.63v-2.83h1.63v-2.67l3.57-2.07v4.74h2.43Z"/>
    <path class="cls-11" d="M1505.78,427.54l-3.23-.58c.36-1.3.99-2.26,1.87-2.88s2.2-.94,3.95-.94c1.58,0,2.77.19,3.54.56.78.38,1.32.85,1.64,1.43.32.58.47,1.64.47,3.18l-.04,4.15c0,1.18.06,2.05.17,2.61.11.56.33,1.16.64,1.8h-3.52c-.09-.24-.21-.59-.34-1.05-.06-.21-.1-.35-.13-.42-.61.59-1.26,1.03-1.95,1.33s-1.43.44-2.21.44c-1.38,0-2.47-.38-3.27-1.13s-1.2-1.7-1.2-2.85c0-.76.18-1.44.54-2.03.36-.59.87-1.05,1.52-1.37.65-.32,1.6-.59,2.83-.83,1.66-.31,2.81-.6,3.45-.87v-.35c0-.68-.17-1.17-.51-1.46-.34-.29-.97-.44-1.91-.44-.63,0-1.13.12-1.48.37-.35.25-.64.69-.86,1.31ZM1510.54,430.43c-.46.15-1.18.33-2.16.54-.99.21-1.63.42-1.94.62-.46.33-.7.75-.7,1.25s.19.93.56,1.29c.37.36.84.54,1.42.54.64,0,1.25-.21,1.83-.63.43-.32.71-.71.85-1.18.09-.3.14-.88.14-1.73v-.71Z"/>
    <path class="cls-11" d="M1517.53,421.62v-3.29h3.55v3.29h-3.55ZM1517.53,436.88v-13.43h3.55v13.43h-3.55Z"/>
    <path class="cls-11" d="M1524.73,436.88v-18.54h3.55v18.54h-3.55Z"/>
    <path class="cls-11" d="M1530.68,433.04l3.57-.54c.15.69.46,1.22.92,1.57.46.36,1.11.54,1.95.54.92,0,1.61-.17,2.07-.51.31-.24.47-.55.47-.95,0-.27-.08-.49-.25-.67-.18-.17-.57-.32-1.19-.47-2.87-.63-4.68-1.21-5.45-1.73-1.06-.73-1.59-1.73-1.59-3.02,0-1.16.46-2.14,1.38-2.93.92-.79,2.34-1.19,4.27-1.19s3.2.3,4.1.9c.89.6,1.51,1.48,1.85,2.66l-3.35.62c-.14-.52-.42-.92-.82-1.2s-.97-.42-1.71-.42c-.94,0-1.61.13-2.01.39-.27.19-.41.43-.41.72,0,.25.12.47.35.65.32.24,1.43.57,3.32,1,1.89.43,3.21.96,3.96,1.58.74.63,1.11,1.51,1.11,2.64,0,1.23-.51,2.29-1.54,3.17-1.03.89-2.55,1.33-4.57,1.33-1.83,0-3.28-.37-4.34-1.11-1.07-.74-1.76-1.75-2.09-3.02Z"/>
    <path class="cls-11" d="M1284.98,454.53h1.97v-1.01c0-1.13.12-1.97.36-2.53.24-.56.68-1.01,1.33-1.36.65-.35,1.46-.52,2.45-.52s2,.15,2.97.46l-.48,2.48c-.57-.13-1.11-.2-1.63-.2s-.88.12-1.11.36-.33.7-.33,1.39v.95h2.66v2.79h-2.66v10.64h-3.55v-10.64h-1.97v-2.79Z"/>
    <path class="cls-11" d="M1294.34,461.06c0-1.18.29-2.32.87-3.43.58-1.1,1.41-1.95,2.47-2.53,1.07-.58,2.26-.87,3.57-.87,2.03,0,3.7.66,5,1.98,1.3,1.32,1.95,2.99,1.95,5s-.66,3.72-1.97,5.05-2.96,2-4.95,2c-1.23,0-2.41-.28-3.52-.83s-1.97-1.37-2.55-2.45c-.58-1.08-.87-2.38-.87-3.93ZM1297.98,461.24c0,1.33.32,2.35.95,3.06.63.71,1.41,1.06,2.34,1.06s1.71-.35,2.33-1.06c.63-.71.94-1.74.94-3.09s-.31-2.33-.94-3.04c-.63-.71-1.41-1.06-2.33-1.06s-1.71.35-2.34,1.06c-.63.71-.95,1.73-.95,3.06Z"/>
    <path class="cls-11" d="M1314.38,467.96h-3.55v-13.43h3.3v1.91c.56-.9,1.07-1.5,1.52-1.78.45-.29.96-.43,1.54-.43.81,0,1.59.22,2.34.67l-1.1,3.1c-.6-.39-1.16-.58-1.67-.58s-.92.14-1.26.41c-.35.27-.62.77-.82,1.49s-.3,2.22-.3,4.5v4.15Z"/>
    <path class="cls-11" d="M1334.42,454.53v2.83h-2.43v5.41c0,1.1.02,1.73.07,1.92.05.18.15.33.32.45.16.12.36.18.6.18.33,0,.8-.11,1.43-.34l.3,2.76c-.83.35-1.76.53-2.81.53-.64,0-1.22-.11-1.73-.32-.51-.21-.89-.49-1.13-.83-.24-.34-.41-.8-.5-1.39-.08-.41-.11-1.25-.11-2.5v-5.86h-1.63v-2.83h1.63v-2.67l3.57-2.07v4.74h2.43Z"/>
    <path class="cls-11" d="M1336.06,461.06c0-1.18.29-2.32.87-3.43.58-1.1,1.41-1.95,2.47-2.53,1.07-.58,2.26-.87,3.57-.87,2.03,0,3.7.66,5,1.98,1.3,1.32,1.95,2.99,1.95,5s-.66,3.72-1.97,5.05-2.96,2-4.95,2c-1.23,0-2.41-.28-3.52-.83s-1.97-1.37-2.55-2.45c-.58-1.08-.87-2.38-.87-3.93ZM1339.71,461.24c0,1.33.32,2.35.95,3.06.63.71,1.41,1.06,2.34,1.06s1.71-.35,2.33-1.06c.63-.71.94-1.74.94-3.09s-.31-2.33-.94-3.04c-.63-.71-1.41-1.06-2.33-1.06s-1.71.35-2.34,1.06c-.63.71-.95,1.73-.95,3.06Z"/>
    <path class="cls-11" d="M1352.58,467.96v-18.54h3.55v9.84l4.16-4.73h4.38l-4.59,4.91,4.92,8.52h-3.83l-3.38-6.03-1.66,1.73v4.3h-3.55Z"/>
    <path class="cls-11" d="M1374.89,463.69l3.54.59c-.46,1.3-1.17,2.29-2.16,2.97-.98.68-2.21,1.02-3.69,1.02-2.34,0-4.06-.76-5.19-2.29-.89-1.22-1.33-2.77-1.33-4.63,0-2.23.58-3.97,1.75-5.23,1.16-1.26,2.63-1.89,4.41-1.89,2,0,3.58.66,4.73,1.98s1.71,3.34,1.66,6.06h-8.9c.03,1.05.31,1.87.86,2.46.55.59,1.23.88,2.05.88.56,0,1.02-.15,1.4-.46.38-.3.67-.79.86-1.47ZM1375.09,460.09c-.02-1.03-.29-1.81-.8-2.35-.51-.54-1.12-.8-1.85-.8-.78,0-1.42.28-1.92.85s-.75,1.33-.75,2.3h5.31Z"/>
    <path class="cls-11" d="M1393.74,467.96h-3.55v-6.86c0-1.45-.08-2.39-.23-2.81-.15-.43-.4-.76-.74-.99-.34-.24-.75-.35-1.23-.35-.62,0-1.17.17-1.66.51-.49.34-.83.78-1.01,1.34-.18.56-.27,1.59-.27,3.09v6.08h-3.55v-13.43h3.3v1.97c1.17-1.52,2.65-2.28,4.43-2.28.78,0,1.5.14,2.15.42.65.28,1.14.64,1.47,1.08.33.44.57.94.7,1.49.13.56.2,1.35.2,2.39v8.35Z"/>
    <path class="cls-11" d="M1404.21,468.85l4.06.49c.07.47.22.8.47.97.34.25.87.38,1.59.38.93,0,1.62-.14,2.09-.42.31-.19.55-.48.71-.9.11-.29.17-.84.17-1.63v-1.96c-1.06,1.45-2.4,2.18-4.02,2.18-1.8,0-3.23-.76-4.29-2.29-.83-1.21-1.24-2.71-1.24-4.5,0-2.25.54-3.97,1.62-5.16,1.08-1.19,2.43-1.78,4.04-1.78s3.03.73,4.11,2.19v-1.88h3.33v12.05c0,1.58-.13,2.77-.39,3.55-.26.78-.63,1.4-1.1,1.85-.47.45-1.1.8-1.89,1.05-.79.25-1.79.38-2.99.38-2.28,0-3.89-.39-4.84-1.17-.95-.78-1.43-1.77-1.43-2.97,0-.12,0-.26.01-.43ZM1407.39,460.97c0,1.43.28,2.47.83,3.13.55.66,1.23.99,2.04.99.87,0,1.6-.34,2.2-1.02s.9-1.68.9-3.02-.29-2.42-.86-3.1c-.57-.67-1.3-1.01-2.18-1.01s-1.55.33-2.11.99c-.55.66-.83,1.67-.83,3.03Z"/>
    <path class="cls-11" d="M1428.14,463.69l3.54.59c-.46,1.3-1.17,2.29-2.16,2.97-.98.68-2.21,1.02-3.69,1.02-2.34,0-4.06-.76-5.19-2.29-.89-1.22-1.33-2.77-1.33-4.63,0-2.23.58-3.97,1.75-5.23,1.16-1.26,2.63-1.89,4.41-1.89,2,0,3.58.66,4.73,1.98s1.71,3.34,1.66,6.06h-8.9c.03,1.05.31,1.87.86,2.46.55.59,1.23.88,2.05.88.56,0,1.02-.15,1.4-.46.38-.3.67-.79.86-1.47ZM1428.34,460.09c-.02-1.03-.29-1.81-.8-2.35-.51-.54-1.12-.8-1.85-.8-.78,0-1.42.28-1.92.85s-.75,1.33-.75,2.3h5.31Z"/>
    <path class="cls-11" d="M1446.99,467.96h-3.55v-6.86c0-1.45-.08-2.39-.23-2.81-.15-.43-.4-.76-.74-.99-.34-.24-.75-.35-1.23-.35-.62,0-1.17.17-1.66.51-.49.34-.83.78-1.01,1.34-.18.56-.27,1.59-.27,3.09v6.08h-3.55v-13.43h3.3v1.97c1.17-1.52,2.65-2.28,4.43-2.28.78,0,1.5.14,2.15.42.65.28,1.14.64,1.47,1.08.33.44.57.94.7,1.49.13.56.2,1.35.2,2.39v8.35Z"/>
    <path class="cls-11" d="M1458.37,463.69l3.54.59c-.46,1.3-1.17,2.29-2.16,2.97-.98.68-2.21,1.02-3.69,1.02-2.34,0-4.06-.76-5.19-2.29-.89-1.22-1.33-2.77-1.33-4.63,0-2.23.58-3.97,1.75-5.23,1.16-1.26,2.63-1.89,4.41-1.89,2,0,3.58.66,4.73,1.98s1.71,3.34,1.66,6.06h-8.9c.03,1.05.31,1.87.86,2.46.55.59,1.23.88,2.05.88.56,0,1.02-.15,1.4-.46.38-.3.67-.79.86-1.47ZM1458.57,460.09c-.02-1.03-.29-1.81-.8-2.35-.51-.54-1.12-.8-1.85-.8-.78,0-1.42.28-1.92.85s-.75,1.33-.75,2.3h5.31Z"/>
    <path class="cls-11" d="M1468.4,467.96h-3.55v-13.43h3.3v1.91c.56-.9,1.07-1.5,1.52-1.78.45-.29.96-.43,1.54-.43.81,0,1.59.22,2.34.67l-1.1,3.1c-.6-.39-1.16-.58-1.67-.58s-.92.14-1.26.41c-.35.27-.62.77-.82,1.49s-.3,2.22-.3,4.5v4.15Z"/>
    <path class="cls-11" d="M1477.74,458.63l-3.23-.58c.36-1.3.99-2.26,1.87-2.88s2.2-.94,3.95-.94c1.58,0,2.77.19,3.54.56.78.38,1.32.85,1.64,1.43.32.58.47,1.64.47,3.18l-.04,4.15c0,1.18.06,2.05.17,2.61.11.56.33,1.16.64,1.8h-3.52c-.09-.24-.21-.59-.34-1.05-.06-.21-.1-.35-.13-.42-.61.59-1.26,1.03-1.95,1.33s-1.43.44-2.21.44c-1.38,0-2.47-.38-3.27-1.13s-1.2-1.7-1.2-2.85c0-.76.18-1.44.54-2.03.36-.59.87-1.05,1.52-1.37.65-.32,1.6-.59,2.83-.83,1.66-.31,2.81-.6,3.45-.87v-.35c0-.68-.17-1.17-.51-1.46-.34-.29-.97-.44-1.91-.44-.63,0-1.13.12-1.48.37-.35.25-.64.69-.86,1.31ZM1482.49,461.51c-.46.15-1.18.33-2.16.54-.99.21-1.63.42-1.94.62-.46.33-.7.75-.7,1.25s.19.93.56,1.29c.37.36.84.54,1.42.54.64,0,1.25-.21,1.83-.63.43-.32.71-.71.85-1.18.09-.3.14-.88.14-1.73v-.71Z"/>
    <path class="cls-11" d="M1495.64,454.53v2.83h-2.43v5.41c0,1.1.02,1.73.07,1.92.05.18.15.33.32.45.16.12.36.18.6.18.33,0,.8-.11,1.43-.34l.3,2.76c-.83.35-1.76.53-2.81.53-.64,0-1.22-.11-1.73-.32-.51-.21-.89-.49-1.13-.83-.24-.34-.41-.8-.5-1.39-.08-.41-.11-1.25-.11-2.5v-5.86h-1.63v-2.83h1.63v-2.67l3.57-2.07v4.74h2.43Z"/>
    <path class="cls-11" d="M1498.11,452.71v-3.29h3.55v3.29h-3.55ZM1498.11,467.96v-13.43h3.55v13.43h-3.55Z"/>
    <path class="cls-11" d="M1504.49,461.06c0-1.18.29-2.32.87-3.43.58-1.1,1.41-1.95,2.47-2.53,1.07-.58,2.26-.87,3.57-.87,2.03,0,3.7.66,5,1.98,1.3,1.32,1.95,2.99,1.95,5s-.66,3.72-1.97,5.05-2.96,2-4.95,2c-1.23,0-2.41-.28-3.52-.83s-1.97-1.37-2.55-2.45c-.58-1.08-.87-2.38-.87-3.93ZM1508.13,461.24c0,1.33.32,2.35.95,3.06.63.71,1.41,1.06,2.34,1.06s1.71-.35,2.33-1.06c.63-.71.94-1.74.94-3.09s-.31-2.33-.94-3.04c-.63-.71-1.41-1.06-2.33-1.06s-1.71.35-2.34,1.06c-.63.71-.95,1.73-.95,3.06Z"/>
    <path class="cls-11" d="M1533.35,467.96h-3.55v-6.86c0-1.45-.08-2.39-.23-2.81-.15-.43-.4-.76-.74-.99-.34-.24-.75-.35-1.23-.35-.62,0-1.17.17-1.66.51-.49.34-.83.78-1.01,1.34-.18.56-.27,1.59-.27,3.09v6.08h-3.55v-13.43h3.3v1.97c1.17-1.52,2.65-2.28,4.43-2.28.78,0,1.5.14,2.15.42.65.28,1.14.64,1.47,1.08.33.44.57.94.7,1.49.13.56.2,1.35.2,2.39v8.35Z"/>
  </g>
  <rect class="cls-7" x="1304.16" y="655" width="324.01" height="45.28" rx="9.28" ry="9.28"/>
  <text class="cls-10" transform="translate(1347.02 685.88)"><tspan x="0" y="0">Returns card token</tspan></text>
  <rect class="cls-7" x="320" y="621" width="411" height="79.28" rx="9.28" ry="9.28"/>
  <text class="cls-10" transform="translate(476.12 654.88)"><tspan x="0" y="0">Returns</tspan></text>
  <text class="cls-9" transform="translate(374.67 467.7)"><tspan x="0" y="0">store_payment_method: true</tspan></text>
  <rect class="cls-1" x="827" y="654.56" width="330" height="117.44" rx="9.28" ry="9.28"/>
  <g>
    <path class="cls-11" d="M852.74,682.77v1.69h-6.42v-1.69h6.42Z"/>
    <path class="cls-11" d="M860.69,687.89c1.01.62,2.5,1.14,4.06,1.14,2.31,0,3.67-1.22,3.67-2.99,0-1.64-.94-2.57-3.3-3.48-2.86-1.01-4.63-2.5-4.63-4.97,0-2.73,2.26-4.76,5.67-4.76,1.79,0,3.09.42,3.87.86l-.62,1.85c-.57-.31-1.74-.83-3.33-.83-2.39,0-3.3,1.43-3.3,2.63,0,1.64,1.07,2.44,3.48,3.38,2.96,1.14,4.47,2.57,4.47,5.15,0,2.7-2,5.04-6.14,5.04-1.69,0-3.54-.49-4.47-1.12l.57-1.9Z"/>
    <path class="cls-11" d="M875.17,684.77c.05,3.09,2.03,4.37,4.32,4.37,1.64,0,2.63-.29,3.48-.65l.39,1.64c-.81.36-2.18.78-4.19.78-3.88,0-6.19-2.55-6.19-6.34s2.24-6.79,5.9-6.79c4.11,0,5.2,3.61,5.2,5.93,0,.47-.05.83-.08,1.07h-8.84ZM881.88,683.13c.03-1.46-.6-3.72-3.17-3.72-2.31,0-3.33,2.13-3.51,3.72h6.68Z"/>
    <path class="cls-11" d="M895.9,690.18c-.6.31-1.92.73-3.61.73-3.8,0-6.27-2.57-6.27-6.42s2.65-6.68,6.76-6.68c1.35,0,2.55.34,3.17.65l-.52,1.77c-.55-.31-1.4-.6-2.65-.6-2.89,0-4.45,2.13-4.45,4.76,0,2.91,1.87,4.71,4.37,4.71,1.3,0,2.16-.34,2.81-.62l.39,1.72Z"/>
    <path class="cls-11" d="M909.11,687.21c0,1.3.03,2.44.1,3.43h-2.03l-.13-2.05h-.05c-.6,1.01-1.92,2.34-4.16,2.34-1.98,0-4.34-1.09-4.34-5.51v-7.36h2.29v6.97c0,2.39.73,4,2.81,4,1.53,0,2.6-1.07,3.02-2.08.13-.34.21-.75.21-1.17v-7.72h2.29v9.15Z"/>
    <path class="cls-11" d="M912.9,681.99c0-1.48-.03-2.76-.1-3.93h2l.08,2.47h.1c.57-1.69,1.95-2.76,3.48-2.76.26,0,.44.03.65.08v2.16c-.23-.05-.47-.08-.78-.08-1.61,0-2.76,1.22-3.07,2.94-.05.31-.1.68-.1,1.07v6.71h-2.26v-8.66Z"/>
    <path class="cls-11" d="M922.42,684.77c.05,3.09,2.03,4.37,4.32,4.37,1.64,0,2.63-.29,3.48-.65l.39,1.64c-.81.36-2.18.78-4.19.78-3.87,0-6.19-2.55-6.19-6.34s2.24-6.79,5.9-6.79c4.11,0,5.2,3.61,5.2,5.93,0,.47-.05.83-.08,1.07h-8.84ZM929.12,683.13c.03-1.46-.6-3.72-3.17-3.72-2.31,0-3.33,2.13-3.51,3.72h6.68Z"/>
    <path class="cls-11" d="M934.17,672.18h2.29v18.46h-2.29v-18.46Z"/>
    <path class="cls-11" d="M941.14,678.06l2.76,7.44c.29.83.6,1.82.81,2.57h.05c.23-.75.49-1.72.81-2.63l2.5-7.38h2.42l-3.43,8.97c-1.64,4.32-2.76,6.53-4.32,7.88-1.12.99-2.24,1.38-2.81,1.48l-.57-1.92c.57-.18,1.33-.55,2-1.12.62-.49,1.4-1.38,1.92-2.55.1-.23.18-.42.18-.55s-.05-.31-.16-.6l-4.65-11.6h2.5Z"/>
    <path class="cls-11" d="M957.75,688.31c.68.44,1.87.91,3.02.91,1.66,0,2.44-.83,2.44-1.87,0-1.09-.65-1.69-2.34-2.31-2.26-.81-3.33-2.05-3.33-3.56,0-2.03,1.64-3.69,4.34-3.69,1.27,0,2.39.36,3.09.78l-.57,1.66c-.49-.31-1.4-.73-2.57-.73-1.35,0-2.11.78-2.11,1.72,0,1.04.75,1.51,2.39,2.13,2.18.83,3.3,1.92,3.3,3.8,0,2.21-1.72,3.77-4.71,3.77-1.38,0-2.65-.34-3.54-.86l.57-1.74Z"/>
    <path class="cls-11" d="M971.11,674.45v3.61h3.28v1.74h-3.28v6.79c0,1.56.44,2.44,1.72,2.44.6,0,1.04-.08,1.33-.16l.1,1.72c-.44.18-1.14.31-2.03.31-1.07,0-1.92-.34-2.47-.96-.65-.68-.88-1.79-.88-3.28v-6.86h-1.95v-1.74h1.95v-3.02l2.24-.6Z"/>
    <path class="cls-11" d="M988.2,684.25c0,4.65-3.22,6.68-6.27,6.68-3.41,0-6.03-2.5-6.03-6.47,0-4.21,2.76-6.68,6.24-6.68s6.06,2.63,6.06,6.47ZM978.21,684.38c0,2.76,1.59,4.84,3.82,4.84s3.82-2.05,3.82-4.89c0-2.13-1.07-4.84-3.77-4.84s-3.88,2.5-3.88,4.89Z"/>
    <path class="cls-11" d="M991.08,681.99c0-1.48-.03-2.76-.1-3.93h2l.08,2.47h.1c.57-1.69,1.95-2.76,3.48-2.76.26,0,.44.03.65.08v2.16c-.23-.05-.47-.08-.78-.08-1.61,0-2.76,1.22-3.07,2.94-.05.31-.1.68-.1,1.07v6.71h-2.26v-8.66Z"/>
    <path class="cls-11" d="M1000.6,684.77c.05,3.09,2.03,4.37,4.32,4.37,1.64,0,2.63-.29,3.48-.65l.39,1.64c-.81.36-2.18.78-4.19.78-3.88,0-6.19-2.55-6.19-6.34s2.24-6.79,5.9-6.79c4.11,0,5.2,3.61,5.2,5.93,0,.47-.05.83-.08,1.07h-8.84ZM1007.3,683.13c.03-1.46-.6-3.72-3.17-3.72-2.31,0-3.33,2.13-3.51,3.72h6.68Z"/>
    <path class="cls-11" d="M1012.04,688.31c.68.44,1.87.91,3.02.91,1.66,0,2.44-.83,2.44-1.87,0-1.09-.65-1.69-2.34-2.31-2.26-.81-3.33-2.05-3.33-3.56,0-2.03,1.64-3.69,4.34-3.69,1.27,0,2.39.36,3.09.78l-.57,1.66c-.49-.31-1.4-.73-2.57-.73-1.35,0-2.11.78-2.11,1.72,0,1.04.75,1.51,2.39,2.13,2.18.83,3.3,1.92,3.3,3.8,0,2.21-1.72,3.77-4.71,3.77-1.38,0-2.65-.34-3.54-.86l.57-1.74Z"/>
    <path class="cls-11" d="M1030.91,674.45v3.61h3.28v1.74h-3.28v6.79c0,1.56.44,2.44,1.72,2.44.6,0,1.04-.08,1.33-.16l.1,1.72c-.44.18-1.14.31-2.03.31-1.07,0-1.92-.34-2.47-.96-.65-.68-.88-1.79-.88-3.28v-6.86h-1.95v-1.74h1.95v-3.02l2.24-.6Z"/>
    <path class="cls-11" d="M1048,684.25c0,4.65-3.22,6.68-6.27,6.68-3.41,0-6.03-2.5-6.03-6.47,0-4.21,2.76-6.68,6.24-6.68s6.06,2.63,6.06,6.47ZM1038.01,684.38c0,2.76,1.59,4.84,3.82,4.84s3.82-2.05,3.82-4.89c0-2.13-1.07-4.84-3.77-4.84s-3.87,2.5-3.87,4.89Z"/>
    <path class="cls-11" d="M1053.14,683.83h.05c.31-.44.75-.99,1.12-1.43l3.69-4.34h2.76l-4.86,5.17,5.54,7.41h-2.78l-4.34-6.03-1.17,1.3v4.73h-2.26v-18.46h2.26v11.65Z"/>
    <path class="cls-11" d="M1064.35,684.77c.05,3.09,2.03,4.37,4.32,4.37,1.64,0,2.63-.29,3.48-.65l.39,1.64c-.81.36-2.18.78-4.19.78-3.87,0-6.19-2.55-6.19-6.34s2.24-6.79,5.9-6.79c4.11,0,5.2,3.61,5.2,5.93,0,.47-.05.83-.08,1.07h-8.84ZM1071.06,683.13c.03-1.46-.6-3.72-3.17-3.72-2.31,0-3.33,2.13-3.51,3.72h6.68Z"/>
    <path class="cls-11" d="M1076.1,681.47c0-1.3-.03-2.37-.1-3.41h2.03l.13,2.08h.05c.62-1.2,2.08-2.37,4.16-2.37,1.74,0,4.45,1.04,4.45,5.36v7.51h-2.29v-7.25c0-2.03-.75-3.72-2.91-3.72-1.51,0-2.68,1.07-3.07,2.34-.1.29-.16.68-.16,1.07v7.57h-2.29v-9.18Z"/>
    <path class="cls-11" d="M852.74,713.97v1.69h-6.42v-1.69h6.42Z"/>
    <path class="cls-11" d="M874.34,721.07c-1.01.36-3.02.96-5.38.96-2.65,0-4.84-.68-6.55-2.31-1.51-1.46-2.44-3.8-2.44-6.53.03-5.23,3.61-9.05,9.49-9.05,2.03,0,3.61.44,4.37.81l-.55,1.85c-.94-.42-2.11-.75-3.88-.75-4.26,0-7.05,2.65-7.05,7.05s2.68,7.07,6.76,7.07c1.48,0,2.5-.21,3.02-.47v-5.23h-3.56v-1.82h5.77v8.42Z"/>
    <path class="cls-11" d="M879.13,715.97c.05,3.09,2.03,4.37,4.32,4.37,1.64,0,2.63-.29,3.48-.65l.39,1.64c-.81.36-2.18.78-4.19.78-3.88,0-6.19-2.55-6.19-6.34s2.24-6.79,5.9-6.79c4.11,0,5.2,3.61,5.2,5.93,0,.47-.05.83-.08,1.07h-8.84ZM885.83,714.33c.03-1.46-.6-3.72-3.17-3.72-2.31,0-3.33,2.13-3.51,3.72h6.68Z"/>
    <path class="cls-11" d="M890.88,712.67c0-1.3-.03-2.37-.1-3.41h2.03l.13,2.08h.05c.62-1.2,2.08-2.37,4.16-2.37,1.74,0,4.45,1.04,4.45,5.36v7.51h-2.29v-7.25c0-2.03-.75-3.72-2.91-3.72-1.51,0-2.68,1.07-3.07,2.34-.1.29-.16.68-.16,1.07v7.57h-2.29v-9.18Z"/>
    <path class="cls-11" d="M906.58,715.97c.05,3.09,2.03,4.37,4.32,4.37,1.64,0,2.63-.29,3.48-.65l.39,1.64c-.81.36-2.18.78-4.19.78-3.87,0-6.19-2.55-6.19-6.34s2.24-6.79,5.9-6.79c4.11,0,5.2,3.61,5.2,5.93,0,.47-.05.83-.08,1.07h-8.84ZM913.29,714.33c.03-1.46-.6-3.72-3.17-3.72-2.31,0-3.33,2.13-3.51,3.72h6.68Z"/>
    <path class="cls-11" d="M918.33,713.19c0-1.48-.03-2.76-.1-3.93h2l.08,2.47h.1c.57-1.69,1.95-2.76,3.48-2.76.26,0,.44.03.65.08v2.16c-.23-.05-.47-.08-.78-.08-1.61,0-2.76,1.22-3.07,2.94-.05.31-.1.68-.1,1.07v6.71h-2.26v-8.66Z"/>
    <path class="cls-11" d="M933.67,721.85l-.18-1.59h-.08c-.7.99-2.05,1.87-3.85,1.87-2.55,0-3.85-1.79-3.85-3.61,0-3.04,2.7-4.71,7.57-4.68v-.26c0-1.04-.29-2.91-2.86-2.91-1.17,0-2.39.36-3.28.94l-.52-1.51c1.04-.68,2.55-1.12,4.13-1.12,3.85,0,4.78,2.63,4.78,5.15v4.71c0,1.09.05,2.16.21,3.02h-2.08ZM933.34,715.42c-2.5-.05-5.33.39-5.33,2.83,0,1.48.99,2.18,2.16,2.18,1.64,0,2.68-1.04,3.04-2.11.08-.23.13-.49.13-.73v-2.18Z"/>
    <path class="cls-11" d="M941.89,705.65v3.61h3.28v1.74h-3.28v6.79c0,1.56.44,2.44,1.72,2.44.6,0,1.04-.08,1.33-.16l.1,1.72c-.44.18-1.14.31-2.03.31-1.07,0-1.92-.34-2.47-.96-.65-.68-.88-1.79-.88-3.28v-6.86h-1.95v-1.74h1.95v-3.02l2.24-.6Z"/>
    <path class="cls-11" d="M948.86,715.97c.05,3.09,2.03,4.37,4.32,4.37,1.64,0,2.63-.29,3.48-.65l.39,1.64c-.81.36-2.18.78-4.19.78-3.87,0-6.19-2.55-6.19-6.34s2.24-6.79,5.9-6.79c4.11,0,5.2,3.61,5.2,5.93,0,.47-.05.83-.08,1.07h-8.84ZM955.57,714.33c.03-1.46-.6-3.72-3.17-3.72-2.31,0-3.33,2.13-3.51,3.72h6.68Z"/>
    <path class="cls-11" d="M960.3,719.51c.68.44,1.87.91,3.02.91,1.66,0,2.44-.83,2.44-1.87,0-1.09-.65-1.69-2.34-2.31-2.26-.81-3.33-2.05-3.33-3.56,0-2.03,1.64-3.69,4.34-3.69,1.27,0,2.39.36,3.09.78l-.57,1.66c-.49-.31-1.4-.73-2.57-.73-1.35,0-2.11.78-2.11,1.72,0,1.04.75,1.51,2.39,2.13,2.18.83,3.3,1.92,3.3,3.8,0,2.21-1.72,3.77-4.71,3.77-1.38,0-2.65-.34-3.54-.86l.57-1.74Z"/>
    <path class="cls-11" d="M975.87,711.34c0-.96.65-1.64,1.56-1.64s1.51.68,1.53,1.64c0,.91-.6,1.61-1.56,1.61-.91,0-1.53-.7-1.53-1.61ZM975.87,720.52c0-.96.65-1.64,1.56-1.64s1.51.68,1.53,1.64c0,.91-.6,1.61-1.56,1.61-.91,0-1.53-.7-1.53-1.61Z"/>
    <path class="cls-11" d="M844.59,746.9c-.18.14-.36.24-.55.31-.19.07-.38.11-.58.11-.29,0-.5-.08-.62-.24-.12-.16-.18-.45-.18-.88v-1.36c0-.45.08-.77.23-.96.15-.19.41-.28.78-.28.4,0,.73.2.98.58.15.21.28.37.38.47.33.3.72.53,1.17.68.44.15.95.23,1.52.23.49,0,.88-.1,1.18-.29s.44-.44.44-.75c0-.55-.79-.94-2.37-1.15-.35-.04-.62-.08-.82-.11-1.19-.16-2.08-.49-2.66-.97-.58-.48-.87-1.13-.87-1.94,0-.96.35-1.71,1.05-2.24.7-.53,1.69-.79,2.98-.79.44,0,.9.04,1.37.11.47.07.95.18,1.44.33.14-.17.3-.3.46-.38.16-.08.34-.12.54-.12.28,0,.49.09.64.26.15.17.22.44.22.78v1.26c0,.29-.08.52-.23.68-.15.16-.36.24-.64.24s-.76-.24-1.44-.73c-.68-.49-1.36-.73-2.05-.73-.53,0-.95.09-1.24.26-.29.17-.44.42-.44.72,0,.48.62.8,1.85.96.36.04.64.08.84.1,1.54.23,2.61.56,3.18,1.01.58.45.87,1.11.87,2,0,1.03-.38,1.83-1.14,2.39-.76.56-1.84.85-3.25.85-.55,0-1.07-.04-1.58-.11-.51-.07-.99-.18-1.47-.31Z"/>
    <path class="cls-11" d="M859.19,738.15h3.13c.47,0,.81.09,1,.26.2.17.3.46.3.85s-.1.69-.3.87c-.2.18-.54.27-1,.27h-3.13v2.62c0,.74.11,1.24.34,1.52s.62.41,1.19.41c.53,0,1.16-.15,1.89-.46s1.21-.46,1.46-.46c.28,0,.52.11.72.33.2.22.3.49.3.8,0,.53-.48,1.01-1.43,1.44-.95.43-2.04.65-3.25.65-.7,0-1.32-.1-1.86-.29s-.95-.46-1.26-.82c-.23-.27-.39-.6-.48-.98s-.14-1.02-.14-1.92v-2.85h-.96c-.46,0-.79-.09-.99-.27-.19-.18-.29-.47-.29-.87s.1-.69.29-.86c.19-.17.52-.25.99-.25h.96v-2.4c0-.47.1-.8.29-1,.19-.19.52-.29.97-.29s.77.1.97.29c.2.19.29.52.29,1v2.4Z"/>
    <path class="cls-11" d="M872.5,737.35c1.66,0,3.01.46,4.04,1.39s1.55,2.12,1.55,3.58-.52,2.66-1.55,3.59c-1.03.93-2.38,1.39-4.04,1.39s-3-.46-4.03-1.39c-1.03-.93-1.55-2.12-1.55-3.59s.52-2.65,1.55-3.58c1.04-.93,2.38-1.39,4.02-1.39ZM872.5,739.51c-.8,0-1.46.26-1.97.79-.52.52-.77,1.19-.77,2s.26,1.5.77,2.04c.52.54,1.17.8,1.97.8s1.46-.27,1.98-.8c.52-.54.78-1.22.78-2.04s-.26-1.48-.77-2c-.52-.52-1.18-.79-1.98-.79Z"/>
    <path class="cls-11" d="M884.64,741.48v3.32h2.42c.46,0,.79.09.99.26.19.17.29.46.29.85s-.1.69-.29.87c-.2.18-.53.27-.99.27h-5.73c-.47,0-.81-.09-1-.27s-.3-.47-.3-.87.1-.68.29-.85c.2-.17.53-.26,1.02-.26h.78v-4.98h-.44c-.47,0-.8-.09-1-.26-.2-.17-.29-.46-.29-.87s.09-.69.28-.86c.19-.17.52-.26,1-.26h2.18c.18,0,.33.04.43.12.1.08.15.19.15.32v1.52c.75-.8,1.44-1.37,2.09-1.71.65-.34,1.34-.51,2.09-.51.68,0,1.21.15,1.61.46.4.3.6.71.6,1.23,0,.4-.14.72-.41.98-.27.26-.63.38-1.06.38-.31,0-.67-.11-1.09-.34-.42-.23-.71-.34-.88-.34-.33,0-.71.15-1.16.44-.45.29-.97.75-1.58,1.36Z"/>
    <path class="cls-11" d="M894.92,742.91c.18.76.52,1.33,1.03,1.7.51.38,1.19.56,2.04.56s1.69-.21,2.51-.62c.83-.41,1.33-.62,1.5-.62.25,0,.46.09.62.28.16.19.24.43.24.72,0,.64-.48,1.2-1.43,1.66-.95.46-2.13.7-3.53.7-1.65,0-3-.46-4.03-1.39-1.04-.93-1.55-2.12-1.55-3.59s.52-2.65,1.55-3.58c1.04-.93,2.38-1.39,4.03-1.39,1.48,0,2.7.44,3.67,1.31.97.87,1.46,1.94,1.46,3.2,0,.4-.1.68-.29.83-.19.15-.6.22-1.2.22h-6.61ZM900.44,741.31c-.12-.63-.42-1.13-.9-1.48-.48-.35-1.11-.52-1.88-.52s-1.34.17-1.8.5c-.45.33-.77.83-.95,1.5h5.53Z"/>
    <path class="cls-11" d="M914.68,744.8h.17c.37,0,.65.09.83.28.18.19.28.46.28.83,0,.4-.1.69-.29.87-.19.18-.52.27-.99.27h-1.57c-.2,0-.35-.04-.46-.12-.11-.08-.16-.19-.16-.32v-.72c-.34.46-.77.81-1.29,1.05-.53.24-1.12.36-1.77.36-1.34,0-2.46-.46-3.36-1.37-.9-.91-1.35-2.05-1.35-3.42s.46-2.6,1.37-3.54c.91-.94,2.07-1.4,3.48-1.4.49,0,.96.08,1.42.24.46.16.88.39,1.27.68v-2.59h-1.36c-.47,0-.81-.09-1-.27-.2-.18-.3-.47-.3-.87s.1-.69.3-.87c.2-.18.53-.27,1-.27h3.19c.23,0,.39.05.48.14.08.1.13.27.13.53v10.5ZM909.87,739.75c-.67,0-1.23.25-1.67.75-.44.5-.66,1.14-.66,1.91s.22,1.44.66,1.94c.44.5.99.75,1.67.75s1.24-.25,1.68-.76c.44-.51.66-1.15.66-1.94s-.22-1.4-.67-1.91-1-.76-1.67-.76Z"/>
    <path class="cls-11" d="M916.43,750.07h12.97v1.93h-12.97v-1.93Z"/>
    <path class="cls-11" d="M933.56,746.08v2.79h1.3c.46,0,.8.09,1,.27.2.18.3.47.3.87s-.1.68-.3.85-.53.26-1,.26h-4.35c-.47,0-.8-.08-1-.25-.19-.17-.29-.45-.29-.86s.1-.69.29-.87c.2-.18.52-.27.99-.27h.6v-9.05h-.16c-.36,0-.64-.1-.83-.29s-.29-.47-.29-.84c0-.4.1-.69.29-.86.19-.17.52-.26,1-.26h1.58c.2,0,.34.04.44.11.09.07.14.18.14.31v.74c.35-.46.77-.81,1.27-1.05.5-.24,1.05-.35,1.68-.35,1.4,0,2.56.45,3.49,1.34s1.38,2.02,1.38,3.38-.45,2.6-1.34,3.53c-.9.93-2.02,1.4-3.38,1.4-.55,0-1.07-.08-1.55-.23-.48-.15-.9-.38-1.26-.67ZM935.93,739.51c-.68,0-1.23.25-1.67.75s-.66,1.14-.66,1.92.22,1.42.66,1.92.99.75,1.67.75,1.24-.25,1.68-.75c.44-.5.66-1.14.66-1.91s-.22-1.42-.66-1.92c-.44-.5-1-.75-1.68-.75Z"/>
    <path class="cls-11" d="M952.3,744.8h.16c.37,0,.65.1.85.29.2.19.29.47.29.84,0,.4-.1.68-.3.86-.2.17-.54.26-1,.26h-.96c-.34,0-.6-.06-.76-.2-.17-.13-.31-.37-.42-.71-.57.38-1.17.66-1.8.86-.63.2-1.28.3-1.93.3-1.1,0-1.96-.27-2.59-.82-.63-.55-.94-1.29-.94-2.25,0-1.03.41-1.82,1.22-2.39.81-.57,1.95-.85,3.42-.85.33,0,.68.02,1.05.05s.78.09,1.24.16v-.2c0-.62-.15-1.08-.45-1.4-.3-.32-.74-.48-1.32-.48-.45,0-1.03.17-1.73.5-.7.34-1.22.5-1.54.5s-.58-.09-.78-.28c-.2-.19-.3-.44-.3-.74,0-.55.41-.99,1.21-1.32.81-.33,1.91-.49,3.31-.49s2.5.28,3.13.84.94,1.51.94,2.85v3.8ZM949.82,742.82c-.34-.08-.66-.13-.94-.17-.29-.04-.55-.06-.8-.06-.75,0-1.34.13-1.77.38-.43.25-.64.6-.64,1.04,0,.4.14.7.41.91.27.21.67.31,1.18.31.47,0,.92-.07,1.33-.21s.83-.35,1.23-.64v-1.58Z"/>
    <path class="cls-11" d="M958.91,739.82l1.85,4.37,1.94-4.37h-.16c-.37,0-.65-.1-.85-.29-.19-.19-.29-.47-.29-.84,0-.4.1-.69.29-.86.2-.17.53-.26,1.01-.26h2.41c.48,0,.82.09,1.01.26.2.17.29.46.29.86,0,.37-.1.65-.29.84s-.47.29-.84.29h-.17l-4.21,9.05h.46c.46,0,.8.09,1,.27.2.18.3.47.3.87s-.1.68-.3.86c-.2.18-.54.27-1,.27h-4.49c-.47,0-.81-.09-1-.26-.2-.17-.3-.46-.3-.87s.1-.69.3-.87.53-.27,1-.27h1.59l.96-2.06-3.11-6.99h-.16c-.37,0-.65-.1-.85-.29-.2-.19-.29-.47-.29-.84,0-.4.1-.69.3-.86.2-.17.53-.26,1-.26h2.6c.47,0,.81.09,1,.26.2.17.3.46.3.86,0,.37-.1.65-.29.84-.19.19-.47.29-.83.29h-.17Z"/>
    <path class="cls-11" d="M973.97,738.27c.29-.31.62-.54,1-.7.38-.16.78-.24,1.21-.24.93,0,1.6.28,2.01.83.41.55.62,1.47.62,2.76v3.89h.14c.32,0,.56.09.72.28.16.19.24.46.24.83,0,.41-.08.7-.25.88-.17.17-.45.26-.86.26h-1.74c-.19,0-.33-.04-.43-.12-.1-.08-.15-.19-.15-.32v-5.79c0-.46-.07-.8-.22-1.03-.14-.23-.35-.34-.62-.34-.34,0-.61.15-.79.46-.19.3-.28.74-.28,1.31v3.59h.15c.31,0,.55.09.72.28.16.19.25.46.25.83,0,.41-.09.7-.26.88-.17.17-.46.26-.86.26h-1.74c-.18,0-.33-.04-.44-.12-.11-.08-.16-.19-.16-.32v-5.79c0-.46-.07-.8-.21-1.03s-.34-.34-.62-.34c-.34,0-.61.15-.8.46-.2.31-.29.74-.29,1.3v3.59h.15c.32,0,.56.09.72.28.16.18.24.46.24.83,0,.41-.09.7-.26.88-.17.17-.46.26-.86.26h-2.33c-.4,0-.68-.09-.85-.27-.17-.18-.26-.47-.26-.87,0-.36.08-.64.24-.83.16-.19.4-.28.72-.28h.14v-4.98h-.14c-.32,0-.57-.1-.73-.29-.17-.19-.25-.47-.25-.84,0-.4.09-.68.26-.86.17-.17.46-.26.87-.26h1.38c.28,0,.47.06.57.17.1.11.15.33.15.65.25-.35.56-.61.91-.79.36-.18.75-.27,1.19-.27.4,0,.74.08,1.04.23.29.15.55.39.77.71Z"/>
    <path class="cls-11" d="M983.13,742.91c.18.76.52,1.33,1.03,1.7.51.38,1.19.56,2.04.56s1.69-.21,2.51-.62c.83-.41,1.33-.62,1.5-.62.25,0,.46.09.62.28.16.19.24.43.24.72,0,.64-.48,1.2-1.43,1.66-.95.46-2.13.7-3.53.7-1.65,0-3-.46-4.03-1.39-1.04-.93-1.55-2.12-1.55-3.59s.52-2.65,1.55-3.58c1.04-.93,2.38-1.39,4.03-1.39,1.48,0,2.7.44,3.67,1.31.97.87,1.46,1.94,1.46,3.2,0,.4-.1.68-.29.83-.19.15-.6.22-1.2.22h-6.61ZM988.66,741.31c-.12-.63-.42-1.13-.9-1.48-.48-.35-1.11-.52-1.88-.52s-1.34.17-1.8.5c-.45.33-.77.83-.95,1.5h5.53Z"/>
    <path class="cls-11" d="M1002.83,744.78h.13c.38,0,.67.09.86.28.19.19.29.47.29.85,0,.4-.1.69-.29.87-.19.18-.52.27-.99.27h-2.52c-.46,0-.79-.09-.99-.27-.2-.18-.3-.47-.3-.87,0-.38.1-.66.29-.85.2-.19.49-.28.88-.28h.12v-2.96c0-.82-.11-1.4-.34-1.75-.23-.35-.61-.52-1.14-.52-.57,0-1.03.21-1.39.62-.36.41-.54.96-.54,1.65v2.96h.12c.39,0,.68.09.87.28.19.19.29.47.29.85,0,.4-.1.69-.3.87-.2.18-.53.27-.98.27h-2.54c-.46,0-.79-.09-.98-.27-.2-.18-.3-.47-.3-.87,0-.38.1-.66.29-.85.19-.19.48-.28.87-.28h.12v-4.96h-.17c-.37,0-.65-.09-.84-.28-.19-.19-.29-.46-.29-.83,0-.4.1-.69.3-.87s.53-.27,1.01-.27h1.74c.19,0,.34.04.44.11.1.08.15.18.15.33v.8c.31-.49.72-.86,1.21-1.11.49-.25,1.05-.37,1.7-.37,1.09,0,1.91.33,2.45.99.54.66.8,1.68.8,3.04v3.43Z"/>
    <path class="cls-11" d="M1010.42,738.15h3.13c.47,0,.81.09,1,.26.2.17.3.46.3.85s-.1.69-.3.87c-.2.18-.54.27-1,.27h-3.13v2.62c0,.74.11,1.24.34,1.52s.62.41,1.19.41c.53,0,1.16-.15,1.89-.46s1.21-.46,1.46-.46c.28,0,.52.11.72.33.2.22.3.49.3.8,0,.53-.48,1.01-1.43,1.44-.95.43-2.04.65-3.25.65-.7,0-1.32-.1-1.86-.29s-.95-.46-1.26-.82c-.23-.27-.39-.6-.48-.98s-.14-1.02-.14-1.92v-2.85h-.96c-.46,0-.79-.09-.99-.27-.19-.18-.29-.47-.29-.87s.1-.69.29-.86c.19-.17.52-.25.99-.25h.96v-2.4c0-.47.1-.8.29-1,.19-.19.52-.29.97-.29s.77.1.97.29c.2.19.29.52.29,1v2.4Z"/>
    <path class="cls-11" d="M1017.25,750.07h12.97v1.93h-12.97v-1.93Z"/>
    <path class="cls-11" d="M1036.99,738.27c.29-.31.62-.54,1-.7.38-.16.78-.24,1.21-.24.93,0,1.6.28,2.01.83.41.55.62,1.47.62,2.76v3.89h.14c.32,0,.56.09.72.28.16.19.24.46.24.83,0,.41-.08.7-.25.88-.17.17-.45.26-.86.26h-1.74c-.19,0-.33-.04-.43-.12-.1-.08-.15-.19-.15-.32v-5.79c0-.46-.07-.8-.22-1.03-.14-.23-.35-.34-.62-.34-.34,0-.61.15-.79.46-.19.3-.28.74-.28,1.31v3.59h.15c.31,0,.55.09.72.28.16.19.25.46.25.83,0,.41-.09.7-.26.88-.17.17-.46.26-.86.26h-1.74c-.18,0-.33-.04-.44-.12-.11-.08-.16-.19-.16-.32v-5.79c0-.46-.07-.8-.21-1.03s-.34-.34-.62-.34c-.34,0-.61.15-.8.46-.2.31-.29.74-.29,1.3v3.59h.15c.32,0,.56.09.72.28.16.18.24.46.24.83,0,.41-.09.7-.26.88-.17.17-.46.26-.86.26h-2.33c-.4,0-.68-.09-.85-.27-.17-.18-.26-.47-.26-.87,0-.36.08-.64.24-.83.16-.19.4-.28.72-.28h.14v-4.98h-.14c-.32,0-.57-.1-.73-.29-.17-.19-.25-.47-.25-.84,0-.4.09-.68.26-.86.17-.17.46-.26.87-.26h1.38c.28,0,.47.06.57.17.1.11.15.33.15.65.25-.35.56-.61.91-.79.36-.18.75-.27,1.19-.27.4,0,.74.08,1.04.23.29.15.55.39.77.71Z"/>
    <path class="cls-11" d="M1046.14,742.91c.18.76.52,1.33,1.03,1.7.51.38,1.19.56,2.04.56s1.69-.21,2.51-.62c.83-.41,1.33-.62,1.5-.62.25,0,.46.09.62.28.16.19.24.43.24.72,0,.64-.48,1.2-1.43,1.66-.95.46-2.13.7-3.53.7-1.65,0-3-.46-4.03-1.39-1.04-.93-1.55-2.12-1.55-3.59s.52-2.65,1.55-3.58c1.04-.93,2.38-1.39,4.03-1.39,1.48,0,2.7.44,3.67,1.31.97.87,1.46,1.94,1.46,3.2,0,.4-.1.68-.29.83-.19.15-.6.22-1.2.22h-6.61ZM1051.67,741.31c-.12-.63-.42-1.13-.9-1.48-.48-.35-1.11-.52-1.88-.52s-1.34.17-1.8.5c-.45.33-.77.83-.95,1.5h5.53Z"/>
    <path class="cls-11" d="M1060.82,738.15h3.13c.47,0,.81.09,1,.26.2.17.3.46.3.85s-.1.69-.3.87c-.2.18-.54.27-1,.27h-3.13v2.62c0,.74.11,1.24.34,1.52s.62.41,1.19.41c.53,0,1.16-.15,1.89-.46s1.21-.46,1.46-.46c.28,0,.52.11.72.33.2.22.3.49.3.8,0,.53-.48,1.01-1.43,1.44-.95.43-2.04.65-3.25.65-.7,0-1.32-.1-1.86-.29s-.95-.46-1.26-.82c-.23-.27-.39-.6-.48-.98s-.14-1.02-.14-1.92v-2.85h-.96c-.46,0-.79-.09-.99-.27-.19-.18-.29-.47-.29-.87s.1-.69.29-.86c.19-.17.52-.25.99-.25h.96v-2.4c0-.47.1-.8.29-1,.19-.19.52-.29.97-.29s.77.1.97.29c.2.19.29.52.29,1v2.4Z"/>
    <path class="cls-11" d="M1072.48,738.61c.24-.42.58-.73,1.02-.95s.96-.33,1.57-.33c1.08,0,1.91.31,2.5.94.58.63.88,1.53.88,2.71v3.82h.17c.36,0,.64.09.83.28.19.19.28.46.28.83,0,.4-.1.69-.29.87-.19.18-.52.27-.99.27h-2.54c-.46,0-.78-.09-.98-.27-.19-.18-.29-.47-.29-.87,0-.37.09-.65.28-.83.19-.18.46-.28.83-.28h.16v-2.98c0-.88-.11-1.48-.32-1.82-.21-.34-.58-.51-1.1-.51-.55,0-1.02.22-1.41.66-.39.44-.58,1-.58,1.67v2.98h.16c.37,0,.65.09.84.28s.28.46.28.83c0,.4-.1.69-.3.87s-.53.27-.98.27h-2.54c-.47,0-.8-.09-.99-.26-.19-.17-.29-.47-.29-.88,0-.36.09-.64.28-.83s.46-.28.83-.28h.17v-8.9h-.17c-.36,0-.64-.1-.84-.29s-.29-.48-.29-.85c0-.4.1-.69.3-.87.2-.18.53-.27,1-.27h1.93c.23,0,.39.05.48.14.09.1.13.27.13.53v4.31Z"/>
    <path class="cls-11" d="M1086.74,737.35c1.66,0,3.01.46,4.04,1.39s1.55,2.12,1.55,3.58-.52,2.66-1.55,3.59c-1.03.93-2.38,1.39-4.04,1.39s-3-.46-4.03-1.39c-1.03-.93-1.55-2.12-1.55-3.59s.52-2.65,1.55-3.58c1.04-.93,2.38-1.39,4.02-1.39ZM1086.74,739.51c-.8,0-1.46.26-1.97.79-.52.52-.77,1.19-.77,2s.26,1.5.77,2.04c.52.54,1.17.8,1.97.8s1.46-.27,1.98-.8c.52-.54.78-1.22.78-2.04s-.26-1.48-.77-2c-.52-.52-1.18-.79-1.98-.79Z"/>
    <path class="cls-11" d="M1103.71,744.8h.17c.37,0,.65.09.83.28.18.19.28.46.28.83,0,.4-.1.69-.29.87-.19.18-.52.27-.99.27h-1.57c-.2,0-.35-.04-.46-.12-.11-.08-.16-.19-.16-.32v-.72c-.34.46-.77.81-1.29,1.05-.53.24-1.12.36-1.77.36-1.34,0-2.46-.46-3.36-1.37-.9-.91-1.35-2.05-1.35-3.42s.46-2.6,1.37-3.54c.91-.94,2.07-1.4,3.48-1.4.49,0,.96.08,1.42.24.46.16.88.39,1.27.68v-2.59h-1.36c-.47,0-.81-.09-1-.27-.2-.18-.3-.47-.3-.87s.1-.69.3-.87c.2-.18.53-.27,1-.27h3.19c.23,0,.39.05.48.14.08.1.13.27.13.53v10.5ZM1098.9,739.75c-.67,0-1.23.25-1.67.75-.44.5-.66,1.14-.66,1.91s.22,1.44.66,1.94c.44.5.99.75,1.67.75s1.24-.25,1.68-.76c.44-.51.66-1.15.66-1.94s-.22-1.4-.67-1.91-1-.76-1.67-.76Z"/>
    <path class="cls-11" d="M1105.46,750.07h12.97v1.93h-12.97v-1.93Z"/>
    <path class="cls-11" d="M1125.98,744.8h2.2c.47,0,.81.09,1.01.26.2.17.3.46.3.85s-.1.69-.3.87c-.2.18-.54.27-1,.27h-6.93c-.46,0-.8-.09-1-.27-.2-.18-.3-.47-.3-.87s.1-.68.29-.85c.2-.17.53-.26,1.01-.26h2.21v-4.98h-1.16c-.46,0-.79-.09-.98-.26-.2-.17-.3-.46-.3-.87s.1-.69.29-.86c.19-.17.52-.26,1-.26h3.09c.19,0,.34.04.44.12.1.08.15.19.15.32v6.79ZM1124.5,732.94c.5,0,.83.1,1,.29s.25.65.25,1.37-.07,1.13-.22,1.3c-.15.17-.49.25-1.04.25s-.88-.08-1.03-.24c-.15-.16-.23-.47-.23-.94,0-.88.08-1.43.24-1.67s.51-.36,1.05-.36Z"/>
    <path class="cls-11" d="M1141.51,744.8h.17c.37,0,.65.09.83.28.18.19.28.46.28.83,0,.4-.1.69-.29.87-.19.18-.52.27-.99.27h-1.57c-.2,0-.35-.04-.46-.12-.11-.08-.16-.19-.16-.32v-.72c-.34.46-.77.81-1.29,1.05-.53.24-1.12.36-1.77.36-1.34,0-2.46-.46-3.36-1.37-.9-.91-1.35-2.05-1.35-3.42s.46-2.6,1.37-3.54c.91-.94,2.07-1.4,3.48-1.4.49,0,.96.08,1.42.24.46.16.88.39,1.27.68v-2.59h-1.36c-.47,0-.81-.09-1-.27-.2-.18-.3-.47-.3-.87s.1-.69.3-.87c.2-.18.53-.27,1-.27h3.19c.23,0,.39.05.48.14.08.1.13.27.13.53v10.5ZM1136.71,739.75c-.67,0-1.23.25-1.67.75-.44.5-.66,1.14-.66,1.91s.22,1.44.66,1.94c.44.5.99.75,1.67.75s1.24-.25,1.68-.76c.44-.51.66-1.15.66-1.94s-.22-1.4-.67-1.91-1-.76-1.67-.76Z"/>
  </g>
  <text class="cls-9" transform="translate(339.43 680.96)"><tspan x="0" y="0">stored_payment_method_id</tspan></text>
  <rect class="cls-7" x="396.74" y="877.32" width="324.01" height="45.28" rx="9.28" ry="9.28"/>
  <text class="cls-10" transform="translate(424.76 908.19)"><tspan class="cls-15" x="0" y="0">W</tspan><tspan x="23.98" y="0">ebhook Notification</tspan></text>
  <g>
    <path class="cls-13" d="M195.15,347.52v-17.18h2.33l9.02,13.49v-13.49h2.18v17.18h-2.33l-9.02-13.5v13.5h-2.18Z"/>
    <path class="cls-13" d="M211.45,341.3c0-2.3.64-4.01,1.92-5.12,1.07-.92,2.38-1.38,3.91-1.38,1.71,0,3.11.56,4.2,1.68s1.63,2.67,1.63,4.65c0,1.6-.24,2.86-.72,3.78s-1.18,1.63-2.1,2.14-1.92.76-3.01.76c-1.74,0-3.15-.56-4.22-1.68s-1.61-2.73-1.61-4.83ZM213.62,341.3c0,1.59.35,2.79,1.04,3.58s1.57,1.19,2.62,1.19,1.92-.4,2.61-1.2,1.04-2.01,1.04-3.64c0-1.54-.35-2.71-1.05-3.5s-1.57-1.19-2.61-1.19-1.93.39-2.62,1.18-1.04,1.98-1.04,3.57Z"/>
    <path class="cls-13" d="M244.78,341.5l2.27.57c-.48,1.87-1.33,3.29-2.57,4.27s-2.75,1.47-4.54,1.47-3.36-.38-4.52-1.13-2.04-1.85-2.65-3.28-.91-2.96-.91-4.61c0-1.79.34-3.35,1.03-4.68s1.66-2.34,2.92-3.04,2.65-1.04,4.17-1.04c1.72,0,3.16.44,4.34,1.31s1.99,2.11,2.45,3.69l-2.24.53c-.4-1.25-.98-2.16-1.73-2.73s-1.71-.86-2.86-.86c-1.32,0-2.42.32-3.31.95s-1.51,1.48-1.87,2.55-.54,2.17-.54,3.3c0,1.46.21,2.74.64,3.83s1.09,1.9,1.99,2.44,1.87.81,2.92.81c1.27,0,2.35-.37,3.23-1.1s1.48-1.82,1.79-3.27Z"/>
    <path class="cls-13" d="M257.7,345.99c-.78.66-1.53,1.13-2.26,1.41s-1.5.41-2.33.41c-1.37,0-2.42-.33-3.15-1s-1.1-1.52-1.1-2.56c0-.61.14-1.17.42-1.67s.64-.91,1.09-1.21.96-.54,1.52-.69c.41-.11,1.04-.21,1.88-.32,1.7-.2,2.96-.45,3.76-.73,0-.29.01-.47.01-.55,0-.86-.2-1.46-.6-1.82-.54-.48-1.34-.71-2.4-.71-.99,0-1.72.17-2.2.52s-.82.96-1.05,1.85l-2.06-.28c.19-.88.5-1.6.93-2.14s1.05-.96,1.86-1.25,1.75-.44,2.82-.44,1.93.12,2.59.38,1.15.56,1.46.94.53.86.66,1.44c.07.36.11,1.01.11,1.95v2.81c0,1.96.04,3.2.13,3.72s.27,1.02.53,1.49h-2.2c-.22-.44-.36-.95-.42-1.54ZM257.53,341.27c-.77.31-1.91.58-3.45.8-.87.12-1.48.27-1.84.42s-.64.38-.83.69-.29.63-.29,1c0,.56.21,1.03.64,1.41s1.05.56,1.87.56,1.54-.18,2.17-.53,1.1-.84,1.39-1.46c.23-.48.34-1.18.34-2.11v-.77Z"/>
    <path class="cls-13" d="M262.91,347.52v-12.45h1.9v1.89c.48-.88.93-1.46,1.34-1.75s.86-.42,1.35-.42c.71,0,1.43.23,2.17.68l-.73,1.96c-.52-.3-1.03-.46-1.55-.46-.46,0-.88.14-1.24.42s-.63.66-.79,1.15c-.23.75-.35,1.57-.35,2.46v6.52h-2.11Z"/>
    <path class="cls-13" d="M279,347.52v-1.57c-.79,1.23-1.95,1.85-3.48,1.85-.99,0-1.9-.27-2.74-.82s-1.48-1.31-1.93-2.29-.69-2.11-.69-3.38.21-2.37.62-3.38,1.04-1.79,1.86-2.33,1.75-.81,2.78-.81c.75,0,1.42.16,2,.47s1.06.73,1.43,1.24v-6.16h2.1v17.18h-1.96ZM272.33,341.31c0,1.59.34,2.79,1.01,3.57s1.46,1.18,2.38,1.18,1.71-.38,2.35-1.13.97-1.9.97-3.45c0-1.7-.33-2.95-.98-3.75s-1.46-1.2-2.43-1.2-1.72.38-2.35,1.15-.94,1.97-.94,3.62Z"/>
    <path class="cls-13" d="M291.59,347.52v-17.18h2.27v17.18h-2.27Z"/>
    <path class="cls-13" d="M297.61,347.52v-12.45h1.9v1.77c.91-1.37,2.23-2.05,3.96-2.05.75,0,1.44.13,2.07.4s1.1.62,1.41,1.06.53.96.66,1.56c.08.39.12,1.07.12,2.05v7.65h-2.11v-7.57c0-.86-.08-1.5-.25-1.93s-.46-.77-.87-1.02-.91-.38-1.47-.38c-.9,0-1.67.29-2.33.86s-.98,1.65-.98,3.25v6.8h-2.11Z"/>
    <path class="cls-13" d="M311.46,347.52v-10.8h-1.86v-1.64h1.86v-1.32c0-.84.07-1.46.22-1.86.2-.55.56-.99,1.07-1.33s1.23-.51,2.15-.51c.59,0,1.25.07,1.97.21l-.32,1.84c-.44-.08-.85-.12-1.24-.12-.64,0-1.09.14-1.36.41s-.4.79-.4,1.54v1.15h2.43v1.64h-2.43v10.8h-2.1Z"/>
    <path class="cls-13" d="M316.84,341.3c0-2.3.64-4.01,1.92-5.12,1.07-.92,2.38-1.38,3.91-1.38,1.71,0,3.11.56,4.2,1.68s1.63,2.67,1.63,4.65c0,1.6-.24,2.86-.72,3.78s-1.18,1.63-2.1,2.14-1.92.76-3.01.76c-1.74,0-3.15-.56-4.22-1.68s-1.61-2.73-1.61-4.83ZM319,341.3c0,1.59.35,2.79,1.04,3.58s1.57,1.19,2.62,1.19,1.92-.4,2.61-1.2,1.04-2.01,1.04-3.64c0-1.54-.35-2.71-1.05-3.5s-1.57-1.19-2.61-1.19-1.93.39-2.62,1.18-1.04,1.98-1.04,3.57Z"/>
    <path class="cls-13" d="M217.03,375.99c-.78.66-1.53,1.13-2.26,1.41s-1.5.41-2.33.41c-1.37,0-2.42-.33-3.15-1s-1.1-1.52-1.1-2.56c0-.61.14-1.17.42-1.67s.64-.91,1.09-1.21.96-.54,1.52-.69c.41-.11,1.04-.21,1.88-.32,1.7-.2,2.96-.45,3.76-.73,0-.29.01-.47.01-.55,0-.86-.2-1.46-.6-1.82-.54-.48-1.34-.71-2.4-.71-.99,0-1.72.17-2.2.52s-.82.96-1.05,1.85l-2.06-.28c.19-.88.5-1.6.93-2.14s1.05-.96,1.86-1.25,1.75-.44,2.82-.44,1.93.12,2.59.38,1.15.56,1.46.94.53.86.66,1.44c.07.36.11,1.01.11,1.95v2.81c0,1.96.04,3.2.13,3.72s.27,1.02.53,1.49h-2.2c-.22-.44-.36-.95-.42-1.54ZM216.85,371.27c-.77.31-1.91.58-3.45.8-.87.12-1.48.27-1.84.42s-.64.38-.83.69-.29.63-.29,1c0,.56.21,1.03.64,1.41s1.05.56,1.87.56,1.54-.18,2.17-.53,1.1-.84,1.39-1.46c.23-.48.34-1.18.34-2.11v-.77Z"/>
    <path class="cls-13" d="M222.23,377.52v-12.45h1.9v1.89c.48-.88.93-1.46,1.34-1.75s.86-.42,1.35-.42c.71,0,1.43.23,2.17.68l-.73,1.96c-.52-.3-1.03-.46-1.55-.46-.46,0-.88.14-1.24.42s-.63.66-.79,1.15c-.23.75-.35,1.57-.35,2.46v6.52h-2.11Z"/>
    <path class="cls-13" d="M238.77,373.51l2.18.27c-.34,1.27-.98,2.26-1.91,2.96s-2.12,1.05-3.56,1.05c-1.82,0-3.26-.56-4.33-1.68s-1.6-2.69-1.6-4.72.54-3.72,1.62-4.88,2.48-1.73,4.2-1.73,3.02.57,4.08,1.7,1.58,2.73,1.58,4.78c0,.12,0,.31-.01.56h-9.28c.08,1.37.46,2.41,1.16,3.14s1.56,1.09,2.6,1.09c.77,0,1.43-.2,1.98-.61s.98-1.05,1.3-1.95ZM231.84,370.1h6.95c-.09-1.05-.36-1.83-.8-2.36-.67-.81-1.54-1.22-2.61-1.22-.97,0-1.78.32-2.44.97s-1.03,1.52-1.1,2.6Z"/>
    <path class="cls-13" d="M249.42,373.81l2.09-.33c.12.84.44,1.48.98,1.92s1.28.67,2.24.67,1.69-.2,2.16-.59.7-.86.7-1.39c0-.48-.21-.85-.62-1.12-.29-.19-1.01-.43-2.16-.71-1.55-.39-2.62-.73-3.22-1.01s-1.05-.68-1.36-1.18-.46-1.06-.46-1.67c0-.55.13-1.07.38-1.54s.6-.87,1.04-1.18c.33-.24.78-.45,1.34-.62s1.17-.25,1.82-.25c.98,0,1.83.14,2.57.42s1.28.66,1.63,1.14.59,1.12.73,1.93l-2.06.28c-.09-.64-.37-1.14-.81-1.5s-1.08-.54-1.9-.54c-.97,0-1.66.16-2.07.48s-.62.7-.62,1.12c0,.27.09.52.26.74.17.23.44.41.81.56.21.08.83.26,1.86.54,1.49.4,2.53.72,3.12.98s1.05.62,1.39,1.11.5,1.09.5,1.8-.21,1.37-.62,1.99-1,1.1-1.78,1.44-1.65.51-2.62.51c-1.62,0-2.85-.34-3.7-1.01s-1.39-1.67-1.62-2.99Z"/>
    <path class="cls-13" d="M266.87,375.63l.3,1.86c-.59.12-1.12.19-1.59.19-.77,0-1.36-.12-1.78-.36s-.72-.56-.89-.96-.26-1.22-.26-2.49v-7.16h-1.55v-1.64h1.55v-3.08l2.1-1.27v4.35h2.12v1.64h-2.12v7.28c0,.6.04.99.11,1.16s.2.31.36.41.41.15.72.15c.23,0,.54-.03.93-.08Z"/>
    <path class="cls-13" d="M268.14,371.3c0-2.3.64-4.01,1.92-5.12,1.07-.92,2.38-1.38,3.91-1.38,1.71,0,3.11.56,4.2,1.68s1.63,2.67,1.63,4.65c0,1.6-.24,2.86-.72,3.78s-1.18,1.63-2.1,2.14-1.92.76-3.01.76c-1.74,0-3.15-.56-4.22-1.68s-1.61-2.73-1.61-4.83ZM270.31,371.3c0,1.59.35,2.79,1.04,3.58s1.57,1.19,2.62,1.19,1.92-.4,2.61-1.2,1.04-2.01,1.04-3.64c0-1.54-.35-2.71-1.05-3.5s-1.57-1.19-2.61-1.19-1.93.39-2.62,1.18-1.04,1.98-1.04,3.57Z"/>
    <path class="cls-13" d="M282.25,377.52v-12.45h1.9v1.89c.48-.88.93-1.46,1.34-1.75s.86-.42,1.35-.42c.71,0,1.43.23,2.17.68l-.73,1.96c-.52-.3-1.03-.46-1.55-.46-.46,0-.88.14-1.24.42s-.63.66-.79,1.15c-.23.75-.35,1.57-.35,2.46v6.52h-2.11Z"/>
    <path class="cls-13" d="M298.79,373.51l2.18.27c-.34,1.27-.98,2.26-1.91,2.96s-2.12,1.05-3.56,1.05c-1.82,0-3.26-.56-4.33-1.68s-1.6-2.69-1.6-4.72.54-3.72,1.62-4.88,2.48-1.73,4.2-1.73,3.02.57,4.08,1.7,1.58,2.73,1.58,4.78c0,.12,0,.31-.01.56h-9.28c.08,1.37.46,2.41,1.16,3.14s1.56,1.09,2.6,1.09c.77,0,1.43-.2,1.98-.61s.98-1.05,1.3-1.95ZM291.86,370.1h6.95c-.09-1.05-.36-1.83-.8-2.36-.67-.81-1.54-1.22-2.61-1.22-.97,0-1.78.32-2.44.97s-1.03,1.52-1.1,2.6Z"/>
    <path class="cls-13" d="M311.69,377.52v-1.57c-.79,1.23-1.95,1.85-3.48,1.85-.99,0-1.9-.27-2.74-.82s-1.48-1.31-1.93-2.29-.69-2.11-.69-3.38.21-2.37.62-3.38,1.04-1.79,1.86-2.33,1.75-.81,2.78-.81c.75,0,1.42.16,2,.47s1.06.73,1.43,1.24v-6.16h2.1v17.18h-1.96ZM305.02,371.31c0,1.59.34,2.79,1.01,3.57s1.46,1.18,2.38,1.18,1.71-.38,2.35-1.13.97-1.9.97-3.45c0-1.7-.33-2.95-.98-3.75s-1.46-1.2-2.43-1.2-1.72.38-2.35,1.15-.94,1.97-.94,3.62Z"/>
  </g>
  <g>
    <path class="cls-1" d="M1035.15,368.52v-17.18h2.33l9.02,13.49v-13.49h2.18v17.18h-2.33l-9.02-13.5v13.5h-2.18Z"/>
    <path class="cls-1" d="M1051.45,362.3c0-2.3.64-4.01,1.92-5.12,1.07-.92,2.38-1.38,3.91-1.38,1.71,0,3.11.56,4.2,1.68s1.63,2.67,1.63,4.65c0,1.6-.24,2.86-.72,3.78s-1.18,1.63-2.1,2.14-1.92.76-3.01.76c-1.74,0-3.15-.56-4.22-1.68s-1.61-2.73-1.61-4.83ZM1053.62,362.3c0,1.59.35,2.79,1.04,3.58s1.57,1.19,2.62,1.19,1.92-.4,2.61-1.2,1.04-2.01,1.04-3.64c0-1.54-.35-2.71-1.05-3.5s-1.57-1.19-2.61-1.19-1.93.39-2.62,1.18-1.04,1.98-1.04,3.57Z"/>
    <path class="cls-1" d="M1084.78,362.5l2.27.57c-.48,1.87-1.33,3.29-2.57,4.27s-2.75,1.47-4.54,1.47-3.36-.38-4.52-1.13-2.04-1.85-2.65-3.28-.91-2.96-.91-4.61c0-1.79.34-3.35,1.03-4.68s1.66-2.34,2.92-3.04,2.65-1.04,4.17-1.04c1.72,0,3.16.44,4.34,1.31s1.99,2.11,2.45,3.69l-2.24.53c-.4-1.25-.98-2.16-1.73-2.73s-1.71-.86-2.86-.86c-1.32,0-2.42.32-3.31.95s-1.51,1.48-1.87,2.55-.54,2.17-.54,3.3c0,1.46.21,2.74.64,3.83s1.09,1.9,1.99,2.44,1.87.81,2.92.81c1.27,0,2.35-.37,3.23-1.1s1.48-1.82,1.79-3.27Z"/>
    <path class="cls-1" d="M1097.7,366.99c-.78.66-1.53,1.13-2.26,1.41s-1.5.41-2.33.41c-1.37,0-2.42-.33-3.15-1s-1.1-1.52-1.1-2.56c0-.61.14-1.17.42-1.67s.64-.91,1.09-1.21.96-.54,1.52-.69c.41-.11,1.04-.21,1.88-.32,1.7-.2,2.96-.45,3.76-.73,0-.29.01-.47.01-.55,0-.86-.2-1.46-.6-1.82-.54-.48-1.34-.71-2.4-.71-.99,0-1.72.17-2.2.52s-.82.96-1.05,1.85l-2.06-.28c.19-.88.5-1.6.93-2.14s1.05-.96,1.86-1.25,1.75-.44,2.82-.44,1.93.12,2.59.38,1.15.56,1.46.94.53.86.66,1.44c.07.36.11,1.01.11,1.95v2.81c0,1.96.04,3.2.13,3.72s.27,1.02.53,1.49h-2.2c-.22-.44-.36-.95-.42-1.54ZM1097.53,362.27c-.77.31-1.91.58-3.45.8-.87.12-1.48.27-1.84.42s-.64.38-.83.69-.29.63-.29,1c0,.56.21,1.03.64,1.41s1.05.56,1.87.56,1.54-.18,2.17-.53,1.1-.84,1.39-1.46c.23-.48.34-1.18.34-2.11v-.77Z"/>
    <path class="cls-1" d="M1102.91,368.52v-12.45h1.9v1.89c.48-.88.93-1.46,1.34-1.75s.86-.42,1.35-.42c.71,0,1.43.23,2.17.68l-.73,1.96c-.52-.3-1.03-.46-1.55-.46-.46,0-.88.14-1.24.42s-.63.66-.79,1.15c-.23.75-.35,1.57-.35,2.46v6.52h-2.11Z"/>
    <path class="cls-1" d="M1119,368.52v-1.57c-.79,1.23-1.95,1.85-3.48,1.85-.99,0-1.9-.27-2.74-.82s-1.48-1.31-1.93-2.29-.69-2.11-.69-3.38.21-2.37.62-3.38,1.04-1.79,1.86-2.33,1.75-.81,2.78-.81c.75,0,1.42.16,2,.47s1.06.73,1.43,1.24v-6.16h2.1v17.18h-1.96ZM1112.33,362.31c0,1.59.34,2.79,1.01,3.57s1.46,1.18,2.38,1.18,1.71-.38,2.35-1.13.97-1.9.97-3.45c0-1.7-.33-2.95-.98-3.75s-1.46-1.2-2.43-1.2-1.72.38-2.35,1.15-.94,1.97-.94,3.62Z"/>
    <path class="cls-1" d="M1131.59,368.52v-17.18h2.27v17.18h-2.27Z"/>
    <path class="cls-1" d="M1137.61,368.52v-12.45h1.9v1.77c.91-1.37,2.23-2.05,3.96-2.05.75,0,1.44.13,2.07.4s1.1.62,1.41,1.06.53.96.66,1.56c.08.39.12,1.07.12,2.05v7.65h-2.11v-7.57c0-.86-.08-1.5-.25-1.93s-.46-.77-.87-1.02-.91-.38-1.47-.38c-.9,0-1.67.29-2.33.86s-.98,1.65-.98,3.25v6.8h-2.11Z"/>
    <path class="cls-1" d="M1151.46,368.52v-10.8h-1.86v-1.64h1.86v-1.32c0-.84.07-1.46.22-1.86.2-.55.56-.99,1.07-1.33s1.23-.51,2.15-.51c.59,0,1.25.07,1.97.21l-.32,1.84c-.44-.08-.85-.12-1.24-.12-.64,0-1.09.14-1.36.41s-.4.79-.4,1.54v1.15h2.43v1.64h-2.43v10.8h-2.1Z"/>
    <path class="cls-1" d="M1156.84,362.3c0-2.3.64-4.01,1.92-5.12,1.07-.92,2.38-1.38,3.91-1.38,1.71,0,3.11.56,4.2,1.68s1.63,2.67,1.63,4.65c0,1.6-.24,2.86-.72,3.78s-1.18,1.63-2.1,2.14-1.92.76-3.01.76c-1.74,0-3.15-.56-4.22-1.68s-1.61-2.73-1.61-4.83ZM1159,362.3c0,1.59.35,2.79,1.04,3.58s1.57,1.19,2.62,1.19,1.92-.4,2.61-1.2,1.04-2.01,1.04-3.64c0-1.54-.35-2.71-1.05-3.5s-1.57-1.19-2.61-1.19-1.93.39-2.62,1.18-1.04,1.98-1.04,3.57Z"/>
    <path class="cls-1" d="M1057.03,396.99c-.78.66-1.53,1.13-2.26,1.41s-1.5.41-2.33.41c-1.37,0-2.42-.33-3.15-1s-1.1-1.52-1.1-2.56c0-.61.14-1.17.42-1.67s.64-.91,1.09-1.21.96-.54,1.52-.69c.41-.11,1.04-.21,1.88-.32,1.7-.2,2.96-.45,3.76-.73,0-.29.01-.47.01-.55,0-.86-.2-1.46-.6-1.82-.54-.48-1.34-.71-2.4-.71-.99,0-1.72.17-2.2.52s-.82.96-1.05,1.85l-2.06-.28c.19-.88.5-1.6.93-2.14s1.05-.96,1.86-1.25,1.75-.44,2.82-.44,1.93.12,2.59.38,1.15.56,1.46.94.53.86.66,1.44c.07.36.11,1.01.11,1.95v2.81c0,1.96.04,3.2.13,3.72s.27,1.02.53,1.49h-2.2c-.22-.44-.36-.95-.42-1.54ZM1056.85,392.27c-.77.31-1.91.58-3.45.8-.87.12-1.48.27-1.84.42s-.64.38-.83.69-.29.63-.29,1c0,.56.21,1.03.64,1.41s1.05.56,1.87.56,1.54-.18,2.17-.53,1.1-.84,1.39-1.46c.23-.48.34-1.18.34-2.11v-.77Z"/>
    <path class="cls-1" d="M1062.23,398.52v-12.45h1.9v1.89c.48-.88.93-1.46,1.34-1.75s.86-.42,1.35-.42c.71,0,1.43.23,2.17.68l-.73,1.96c-.52-.3-1.03-.46-1.55-.46-.46,0-.88.14-1.24.42s-.63.66-.79,1.15c-.23.75-.35,1.57-.35,2.46v6.52h-2.11Z"/>
    <path class="cls-1" d="M1078.77,394.51l2.18.27c-.34,1.27-.98,2.26-1.91,2.96s-2.12,1.05-3.56,1.05c-1.82,0-3.26-.56-4.33-1.68s-1.6-2.69-1.6-4.72.54-3.72,1.62-4.88,2.48-1.73,4.2-1.73,3.02.57,4.08,1.7,1.58,2.73,1.58,4.78c0,.12,0,.31-.01.56h-9.28c.08,1.37.46,2.41,1.16,3.14s1.56,1.09,2.6,1.09c.77,0,1.43-.2,1.98-.61s.98-1.05,1.3-1.95ZM1071.84,391.1h6.95c-.09-1.05-.36-1.83-.8-2.36-.67-.81-1.54-1.22-2.61-1.22-.97,0-1.78.32-2.44.97s-1.03,1.52-1.1,2.6Z"/>
    <path class="cls-1" d="M1089.42,394.81l2.09-.33c.12.84.44,1.48.98,1.92s1.28.67,2.24.67,1.69-.2,2.16-.59.7-.86.7-1.39c0-.48-.21-.85-.62-1.12-.29-.19-1.01-.43-2.16-.71-1.55-.39-2.62-.73-3.22-1.01s-1.05-.68-1.36-1.18-.46-1.06-.46-1.67c0-.55.13-1.07.38-1.54s.6-.87,1.04-1.18c.33-.24.78-.45,1.34-.62s1.17-.25,1.82-.25c.98,0,1.83.14,2.57.42s1.28.66,1.63,1.14.59,1.12.73,1.93l-2.06.28c-.09-.64-.37-1.14-.81-1.5s-1.08-.54-1.9-.54c-.97,0-1.66.16-2.07.48s-.62.7-.62,1.12c0,.27.09.52.26.74.17.23.44.41.81.56.21.08.83.26,1.86.54,1.49.4,2.53.72,3.12.98s1.05.62,1.39,1.11.5,1.09.5,1.8-.21,1.37-.62,1.99-1,1.1-1.78,1.44-1.65.51-2.62.51c-1.62,0-2.85-.34-3.7-1.01s-1.39-1.67-1.62-2.99Z"/>
    <path class="cls-1" d="M1106.87,396.63l.3,1.86c-.59.12-1.12.19-1.59.19-.77,0-1.36-.12-1.78-.36s-.72-.56-.89-.96-.26-1.22-.26-2.49v-7.16h-1.55v-1.64h1.55v-3.08l2.1-1.27v4.35h2.12v1.64h-2.12v7.28c0,.6.04.99.11,1.16s.2.31.36.41.41.15.72.15c.23,0,.54-.03.93-.08Z"/>
    <path class="cls-1" d="M1108.14,392.3c0-2.3.64-4.01,1.92-5.12,1.07-.92,2.38-1.38,3.91-1.38,1.71,0,3.11.56,4.2,1.68s1.63,2.67,1.63,4.65c0,1.6-.24,2.86-.72,3.78s-1.18,1.63-2.1,2.14-1.92.76-3.01.76c-1.74,0-3.15-.56-4.22-1.68s-1.61-2.73-1.61-4.83ZM1110.31,392.3c0,1.59.35,2.79,1.04,3.58s1.57,1.19,2.62,1.19,1.92-.4,2.61-1.2,1.04-2.01,1.04-3.64c0-1.54-.35-2.71-1.05-3.5s-1.57-1.19-2.61-1.19-1.93.39-2.62,1.18-1.04,1.98-1.04,3.57Z"/>
    <path class="cls-1" d="M1122.25,398.52v-12.45h1.9v1.89c.48-.88.93-1.46,1.34-1.75s.86-.42,1.35-.42c.71,0,1.43.23,2.17.68l-.73,1.96c-.52-.3-1.03-.46-1.55-.46-.46,0-.88.14-1.24.42s-.63.66-.79,1.15c-.23.75-.35,1.57-.35,2.46v6.52h-2.11Z"/>
    <path class="cls-1" d="M1138.79,394.51l2.18.27c-.34,1.27-.98,2.26-1.91,2.96s-2.12,1.05-3.56,1.05c-1.82,0-3.26-.56-4.33-1.68s-1.6-2.69-1.6-4.72.54-3.72,1.62-4.88,2.48-1.73,4.2-1.73,3.02.57,4.08,1.7,1.58,2.73,1.58,4.78c0,.12,0,.31-.01.56h-9.28c.08,1.37.46,2.41,1.16,3.14s1.56,1.09,2.6,1.09c.77,0,1.43-.2,1.98-.61s.98-1.05,1.3-1.95ZM1131.86,391.1h6.95c-.09-1.05-.36-1.83-.8-2.36-.67-.81-1.54-1.22-2.61-1.22-.97,0-1.78.32-2.44.97s-1.03,1.52-1.1,2.6Z"/>
    <path class="cls-1" d="M1151.69,398.52v-1.57c-.79,1.23-1.95,1.85-3.48,1.85-.99,0-1.9-.27-2.74-.82s-1.48-1.31-1.93-2.29-.69-2.11-.69-3.38.21-2.37.62-3.38,1.04-1.79,1.86-2.33,1.75-.81,2.78-.81c.75,0,1.42.16,2,.47s1.06.73,1.43,1.24v-6.16h2.1v17.18h-1.96ZM1145.02,392.31c0,1.59.34,2.79,1.01,3.57s1.46,1.18,2.38,1.18,1.71-.38,2.35-1.13.97-1.9.97-3.45c0-1.7-.33-2.95-.98-3.75s-1.46-1.2-2.43-1.2-1.72.38-2.35,1.15-.94,1.97-.94,3.62Z"/>
  </g>
</svg>