<?xml version="1.0" encoding="UTF-8"?>
<svg id="Layer_1" data-name="Layer 1" xmlns="http://www.w3.org/2000/svg" viewBox="0 0 1997 1150">
  <defs>
    <style>
      .cls-1 {
        letter-spacing: -.18em;
      }

      .cls-2 {
        letter-spacing: -.02em;
      }

      .cls-3, .cls-4, .cls-5 {
        stroke-miterlimit: 10;
      }

      .cls-3, .cls-4, .cls-5, .cls-6 {
        fill: none;
      }

      .cls-3, .cls-6 {
        stroke: #fff;
        stroke-linecap: round;
        stroke-width: 3px;
      }

      .cls-7 {
        letter-spacing: -.04em;
      }

      .cls-8 {
        letter-spacing: -.08em;
      }

      .cls-9 {
        letter-spacing: -.03em;
      }

      .cls-10 {
        letter-spacing: -.14em;
      }

      .cls-11, .cls-12, .cls-13 {
        font-family: KozGoPr6N-Regular-83pv-RKSJ-H, 'Kozuka Gothic Pr6N';
      }

      .cls-4 {
        stroke: #ff931e;
      }

      .cls-4, .cls-5 {
        stroke-width: 5px;
      }

      .cls-5 {
        stroke: #29abe2;
      }

      .cls-14 {
        letter-spacing: -.16em;
      }

      .cls-12, .cls-15 {
        font-size: 25.9px;
      }

      .cls-12, .cls-15, .cls-16 {
        fill: #fff;
      }

      .cls-17 {
        letter-spacing: -.17em;
      }

      .cls-18 {
        letter-spacing: -.11em;
      }

      .cls-13 {
        font-size: 32.69px;
      }

      .cls-19 {
        letter-spacing: -.05em;
      }

      .cls-20, .cls-21, .cls-22 {
        font-family: Arial-BoldMT, Arial;
        font-weight: 700;
      }

      .cls-21 {
        letter-spacing: -.02em;
      }

      .cls-23 {
        letter-spacing: -.09em;
      }

      .cls-22 {
        font-size: 34.87px;
      }

      .cls-24 {
        letter-spacing: -.15em;
      }

      .cls-25 {
        fill: #4d4d4d;
      }

      .cls-25, .cls-26, .cls-27, .cls-16 {
        stroke-width: 0px;
      }

      .cls-26 {
        fill: #29abe2;
      }

      .cls-27 {
        fill: #ff931e;
      }

      .cls-28 {
        letter-spacing: -.07em;
      }

      .cls-6 {
        stroke-linejoin: round;
      }
    </style>
  </defs>
  <rect class="cls-16" width="1997" height="1150"/>
  <rect class="cls-26" x="74.5" y="62.64" width="187.59" height="187.59" rx="19.94" ry="19.94"/>
  <text class="cls-13" transform="translate(118.5 290.73)"><tspan x="0" y="0">加盟店</tspan></text>
  <g>
    <path class="cls-6" d="M223.17,138.98c0,5.49-4.9,9.95-10.94,9.95s-10.94-4.45-10.94-9.95c0,5.49-4.9,9.95-10.94,9.95s-10.94-4.45-10.94-9.95c0,5.49-4.9,9.95-10.94,9.95s-10.94-4.45-10.94-9.95c0,5.49-4.9,9.95-10.94,9.95s-10.94-4.45-10.94-9.95c0,5.49-4.9,9.95-10.94,9.95s-10.94-4.45-10.94-9.95"/>
    <path class="cls-3" d="M113.73,138.98l11.4-36.19c.61-2.14,2.56-3.61,4.78-3.61h77.06c2.22,0,4.17,1.47,4.78,3.61l11.4,36.19"/>
    <path class="cls-6" d="M215.71,148.93v59.69c0,2.75-2.23,4.97-4.97,4.97h-84.56c-2.75,0-4.97-2.23-4.97-4.97v-59.69"/>
    <line class="cls-3" x1="156.02" y1="143.96" x2="156.02" y2="213.59"/>
    <line class="cls-3" x1="146.07" y1="173.8" x2="146.07" y2="178.78"/>
    <line class="cls-3" x1="185.86" y1="163.85" x2="170.94" y2="178.78"/>
    <line class="cls-3" x1="195.81" y1="173.8" x2="175.91" y2="193.7"/>
    <line class="cls-3" x1="201.28" y1="138.98" x2="195.29" y2="99.19"/>
    <line class="cls-3" x1="179.39" y1="138.98" x2="175.7" y2="99.19"/>
    <line class="cls-3" x1="157.51" y1="138.98" x2="160.89" y2="99.19"/>
    <line class="cls-3" x1="135.62" y1="138.98" x2="142.03" y2="99.19"/>
  </g>
  <text class="cls-22" transform="translate(1658.69 288.18)"><tspan x="0" y="0">Payment Options</tspan></text>
  <rect class="cls-27" x="1708.76" y="60.09" width="187.59" height="187.59" rx="19.94" ry="19.94"/>
  <g>
    <g>
      <path class="cls-6" d="M1793.63,161.59c-4.82,1.11-9.4,3.04-13.45,5.64"/>
      <path class="cls-6" d="M1826.37,167.23c-4.05-2.6-8.63-4.53-13.45-5.64"/>
      <path class="cls-6" d="M1845.6,194.27c-1.11-4.82-3.04-9.4-5.64-13.45"/>
      <path class="cls-6" d="M1766.59,180.82c-2.6,4.05-4.53,8.63-5.64,13.45"/>
      <path class="cls-6" d="M1824.73,206.69c.17-.89.22-1.83.22-2.77,0-12.03-9.65-21.68-21.68-21.68s-21.68,9.65-21.68,21.68c0,.94.06,1.89.22,2.77"/>
      <polyline class="cls-6" points="1793.63 161.59 1793.63 148.47 1812.92 148.47 1812.92 161.59"/>
      <polyline class="cls-6" points="1826.37 167.23 1835.67 157.87 1849.32 171.52 1839.96 180.82"/>
      <polyline class="cls-6" points="1845.58 194.27 1858.72 194.27 1858.72 206.69"/>
      <polyline class="cls-6" points="1747.83 206.69 1747.83 194.27 1760.97 194.27"/>
      <polyline class="cls-6" points="1766.59 180.82 1757.23 171.52 1770.88 157.87 1780.18 167.23"/>
    </g>
    <path class="cls-6" d="M1739.52,101.35h127.52v104.34c0,.55-.45,1-1,1h-125.52c-.55,0-1-.45-1-1v-104.34h0Z"/>
    <line class="cls-6" x1="1739.52" y1="123.52" x2="1867.03" y2="123.52"/>
    <circle class="cls-16" cx="1756.15" cy="112.43" r="2.77"/>
    <circle class="cls-16" cx="1767.24" cy="112.43" r="2.77"/>
    <circle class="cls-16" cx="1778.33" cy="112.43" r="2.77"/>
  </g>
  <line class="cls-5" x1="168.49" y1="325.93" x2="168.49" y2="1086.5"/>
  <line class="cls-4" x1="1803.49" y1="325.93" x2="1803.49" y2="1086.5"/>
  <g>
    <line class="cls-5" x1="214.58" y1="424.11" x2="1738.75" y2="424.11"/>
    <polygon class="cls-26" points="1734.08 440.06 1761.71 424.11 1734.08 408.15 1734.08 440.06"/>
  </g>
  <g>
    <line class="cls-4" x1="244.61" y1="567.5" x2="1754.65" y2="567.5"/>
    <polygon class="cls-27" points="249.28 583.46 221.65 567.5 249.28 551.54 249.28 583.46"/>
  </g>
  <g>
    <line class="cls-4" x1="226.61" y1="848.5" x2="1772.65" y2="848.5"/>
    <polygon class="cls-27" points="231.28 864.46 203.65 848.5 231.28 832.54 231.28 864.46"/>
  </g>
  <rect class="cls-26" x="141.5" y="379.5" width="52" height="326.5"/>
  <rect class="cls-27" x="1777" y="375" width="52" height="302"/>
  <rect class="cls-27" x="1777" y="789" width="52" height="120"/>
  <rect class="cls-25" x="825" y="360.35" width="383" height="51" rx="9.28" ry="9.28"/>
  <text class="cls-12" transform="translate(856.46 393.95)"><tspan class="cls-19" x="0" y="0">サ</tspan><tspan class="cls-7" x="24.61" y="0">ブ</tspan><tspan class="cls-23" x="49.48" y="0">ス</tspan><tspan class="cls-17" x="73.05" y="0">ク</tspan><tspan class="cls-10" x="94.55" y="0">リ</tspan><tspan class="cls-9" x="116.83" y="0">プ</tspan><tspan class="cls-1" x="141.95" y="0">シ</tspan><tspan class="cls-24" x="163.19" y="0">ョ</tspan><tspan class="cls-18" x="185.21" y="0">ン</tspan><tspan class="cls-14" x="208.27" y="0">リ</tspan><tspan class="cls-23" x="230.03" y="0">ク</tspan><tspan class="cls-19" x="253.6" y="0">エ</tspan><tspan class="cls-14" x="278.21" y="0">ス</tspan><tspan class="cls-28" x="299.96" y="0">ト</tspan></text>
  <rect class="cls-25" x="814" y="505.97" width="394" height="51" rx="9.28" ry="9.28"/>
  <text class="cls-12" transform="translate(851.72 539.57)"><tspan class="cls-19" x="0" y="0">サ</tspan><tspan class="cls-7" x="24.61" y="0">ブ</tspan><tspan class="cls-23" x="49.48" y="0">ス</tspan><tspan class="cls-17" x="73.05" y="0">ク</tspan><tspan class="cls-10" x="94.55" y="0">リ</tspan><tspan class="cls-9" x="116.83" y="0">プ</tspan><tspan class="cls-1" x="141.95" y="0">シ</tspan><tspan class="cls-24" x="163.19" y="0">ョ</tspan><tspan class="cls-23" x="185.21" y="0">ン</tspan><tspan class="cls-7" x="208.78" y="0">レ</tspan><tspan class="cls-2" x="233.65" y="0">ス</tspan><tspan class="cls-19" x="259.04" y="0">ポ</tspan><tspan class="cls-8" x="283.65" y="0">ン</tspan><tspan class="cls-2" x="307.48" y="0">ス</tspan></text>
  <rect class="cls-25" x="838.41" y="787" width="299.48" height="51" rx="9.28" ry="9.28"/>
  <text class="cls-15" transform="translate(904.2 820.6)"><tspan class="cls-21" x="0" y="0">W</tspan><tspan class="cls-20" x="23.98" y="0">ebhook</tspan><tspan class="cls-11" x="116.08" y="0">通知</tspan></text>
</svg>