<?xml version="1.0" encoding="UTF-8"?>
<svg id="Layer_1" data-name="Layer 1" xmlns="http://www.w3.org/2000/svg" viewBox="0 0 1997 1150">
  <defs>
    <style>
      .cls-1, .cls-2, .cls-3, .cls-4, .cls-5 {
        fill: none;
      }

      .cls-1, .cls-2, .cls-6, .cls-7, .cls-4 {
        stroke-miterlimit: 10;
      }

      .cls-1, .cls-3, .cls-5 {
        stroke: #fff;
        stroke-linecap: round;
      }

      .cls-1, .cls-5 {
        stroke-width: 3px;
      }

      .cls-8, .cls-9, .cls-10, .cls-11 {
        font-family: ArialMT, Arial;
      }

      .cls-8, .cls-10, .cls-11 {
        font-size: 22px;
      }

      .cls-2 {
        stroke: #00a99d;
        stroke-width: 5px;
      }

      .cls-12 {
        letter-spacing: -.02em;
      }

      .cls-3, .cls-4 {
        stroke-width: 2px;
      }

      .cls-3, .cls-5 {
        stroke-linejoin: round;
      }

      .cls-6 {
        fill: #e6e6e6;
      }

      .cls-6, .cls-7 {
        stroke: #b3b3b3;
      }

      .cls-7 {
        fill: #f2f2f2;
      }

      .cls-13 {
        letter-spacing: 0em;
      }

      .cls-4 {
        stroke: #ff931e;
      }

      .cls-9, .cls-14 {
        font-size: 25px;
      }

      .cls-9, .cls-10 {
        fill: #666;
      }

      .cls-15 {
        font-size: 29px;
      }

      .cls-15, .cls-14 {
        font-family: Arial-BoldMT, Arial;
        font-weight: 700;
      }

      .cls-15, .cls-16 {
        fill: #ff931e;
      }

      .cls-17, .cls-18, .cls-19, .cls-16, .cls-20, .cls-21, .cls-22 {
        stroke-width: 0px;
      }

      .cls-14, .cls-19 {
        fill: #333;
      }

      .cls-18 {
        fill: #29abe2;
      }

      .cls-20 {
        fill: #ff7bac;
      }

      .cls-21 {
        fill: #fff;
      }

      .cls-22 {
        fill: #00a99d;
      }

      .cls-11 {
        fill: gray;
      }
    </style>
  </defs>
  <rect class="cls-21" width="1997" height="1150"/>
  <rect class="cls-7" x="411.82" y="39.5" width="260" height="1060"/>
  <rect class="cls-7" x="754.87" y="39.5" width="527.63" height="1060"/>
  <rect class="cls-7" x="1414.57" y="39.48" width="527.63" height="1060.02"/>
  <text class="cls-14" transform="translate(473.29 93.78)"><tspan x="0" y="0">CUS</tspan><tspan class="cls-12" x="52.78" y="0">T</tspan><tspan class="cls-13" x="67.6" y="0">OMER</tspan></text>
  <text class="cls-14" transform="translate(942.7 93.78)"><tspan x="0" y="0">MERCHANT</tspan></text>
  <g>
    <path class="cls-19" d="M1567.82,83.78v-17.9h5.8c2.2,0,3.63.09,4.3.27,1.03.27,1.88.85,2.58,1.75.69.9,1.04,2.06,1.04,3.48,0,1.1-.2,2.02-.6,2.77-.4.75-.91,1.34-1.52,1.76-.61.43-1.24.71-1.87.85-.86.17-2.11.26-3.75.26h-2.36v6.75h-3.61ZM1571.43,68.92v5.08h1.98c1.42,0,2.38-.09,2.86-.28.48-.19.86-.48,1.13-.88.27-.4.41-.86.41-1.39,0-.65-.19-1.19-.57-1.61-.38-.42-.87-.69-1.45-.79-.43-.08-1.3-.12-2.6-.12h-1.75Z"/>
    <path class="cls-19" d="M1598.77,83.78h-3.93l-1.56-4.06h-7.15l-1.48,4.06h-3.83l6.97-17.9h3.82l7.17,17.9ZM1592.12,76.7l-2.47-6.64-2.42,6.64h4.88Z"/>
    <path class="cls-19" d="M1603.1,83.78v-7.53l-6.56-10.36h4.24l4.21,7.08,4.13-7.08h4.16l-6.58,10.39v7.51h-3.6Z"/>
    <path class="cls-19" d="M1615.02,83.78v-17.9h5.41l3.25,12.21,3.21-12.21h5.42v17.9h-3.36v-14.09l-3.55,14.09h-3.48l-3.54-14.09v14.09h-3.36Z"/>
    <path class="cls-19" d="M1635.89,83.78v-17.9h13.27v3.03h-9.66v3.97h8.98v3.02h-8.98v4.87h10v3.02h-13.61Z"/>
    <path class="cls-19" d="M1652.61,83.78v-17.9h3.52l7.32,11.95v-11.95h3.36v17.9h-3.62l-7.21-11.67v11.67h-3.36Z"/>
    <path class="cls-19" d="M1674.65,83.78v-14.87h-5.31v-3.03h14.22v3.03h-5.3v14.87h-3.61Z"/>
    <path class="cls-19" d="M1692.11,74.95c0-1.82.27-3.35.82-4.59.41-.91.96-1.73,1.67-2.45.71-.72,1.48-1.26,2.31-1.61,1.12-.47,2.4-.71,3.86-.71,2.64,0,4.75.82,6.33,2.45,1.58,1.64,2.38,3.91,2.38,6.82s-.79,5.15-2.36,6.78c-1.57,1.63-3.67,2.45-6.3,2.45s-4.78-.81-6.35-2.44c-1.57-1.62-2.36-3.86-2.36-6.71ZM1695.83,74.82c0,2.03.47,3.56,1.4,4.61.94,1.05,2.12,1.57,3.56,1.57s2.62-.52,3.55-1.56c.92-1.04,1.38-2.59,1.38-4.67s-.45-3.58-1.35-4.59c-.9-1.01-2.09-1.51-3.58-1.51s-2.69.51-3.6,1.53c-.91,1.02-1.37,2.56-1.37,4.62Z"/>
    <path class="cls-19" d="M1712.29,83.78v-17.9h5.8c2.2,0,3.63.09,4.3.27,1.03.27,1.88.85,2.58,1.75.69.9,1.04,2.06,1.04,3.48,0,1.1-.2,2.02-.6,2.77-.4.75-.91,1.34-1.52,1.76-.62.43-1.24.71-1.88.85-.86.17-2.11.26-3.75.26h-2.36v6.75h-3.61ZM1715.9,68.92v5.08h1.98c1.42,0,2.38-.09,2.86-.28.48-.19.86-.48,1.13-.88.27-.4.41-.86.41-1.39,0-.65-.19-1.19-.57-1.61-.38-.42-.87-.69-1.45-.79-.43-.08-1.3-.12-2.6-.12h-1.75Z"/>
    <path class="cls-19" d="M1732.99,83.78v-14.87h-5.31v-3.03h14.22v3.03h-5.3v14.87h-3.61Z"/>
    <path class="cls-19" d="M1744.12,83.78v-17.9h3.61v17.9h-3.61Z"/>
    <path class="cls-19" d="M1750.45,74.95c0-1.82.27-3.35.82-4.59.41-.91.96-1.73,1.67-2.45.71-.72,1.48-1.26,2.31-1.61,1.12-.47,2.4-.71,3.86-.71,2.64,0,4.75.82,6.33,2.45,1.58,1.64,2.38,3.91,2.38,6.82s-.79,5.15-2.36,6.78c-1.57,1.63-3.67,2.45-6.3,2.45s-4.78-.81-6.35-2.44c-1.57-1.62-2.36-3.86-2.36-6.71ZM1754.17,74.82c0,2.03.47,3.56,1.4,4.61.94,1.05,2.12,1.57,3.56,1.57s2.62-.52,3.55-1.56c.92-1.04,1.38-2.59,1.38-4.67s-.45-3.58-1.35-4.59c-.9-1.01-2.09-1.51-3.58-1.51s-2.69.51-3.6,1.53c-.91,1.02-1.37,2.56-1.37,4.62Z"/>
    <path class="cls-19" d="M1770.66,83.78v-17.9h3.52l7.32,11.95v-11.95h3.36v17.9h-3.62l-7.21-11.67v11.67h-3.36Z"/>
    <path class="cls-19" d="M1787.76,77.96l3.52-.34c.21,1.18.64,2.05,1.29,2.6.65.55,1.52.83,2.62.83,1.16,0,2.04-.25,2.63-.74.59-.49.88-1.07.88-1.73,0-.42-.12-.78-.37-1.08-.25-.3-.68-.56-1.3-.78-.42-.15-1.39-.41-2.89-.78-1.94-.48-3.29-1.07-4.08-1.77-1.1-.98-1.65-2.19-1.65-3.6,0-.91.26-1.76.78-2.56.52-.79,1.26-1.4,2.23-1.81.97-.42,2.15-.62,3.52-.62,2.25,0,3.94.49,5.07,1.48,1.13.98,1.73,2.3,1.79,3.94l-3.61.16c-.15-.92-.49-1.58-.99-1.98-.51-.4-1.27-.6-2.29-.6s-1.87.22-2.47.65c-.38.28-.57.65-.57,1.11,0,.42.18.79.54,1.09.46.38,1.56.78,3.32,1.2s3.06.84,3.9,1.29c.84.44,1.5,1.05,1.98,1.82.48.77.71,1.72.71,2.85,0,1.03-.29,1.99-.86,2.88-.57.9-1.38,1.56-2.42,2-1.04.44-2.34.65-3.89.65-2.26,0-4-.52-5.21-1.57-1.21-1.05-1.94-2.57-2.17-4.57Z"/>
    <path class="cls-19" d="M1634.02,107.2v-3.02h7.79v7.13c-.76.73-1.85,1.38-3.29,1.93-1.44.56-2.89.84-4.36.84-1.87,0-3.5-.39-4.9-1.18-1.39-.79-2.44-1.91-3.14-3.37-.7-1.46-1.05-3.05-1.05-4.77,0-1.86.39-3.52,1.17-4.97.78-1.45,1.92-2.56,3.43-3.33,1.15-.59,2.58-.89,4.29-.89,2.22,0,3.96.47,5.21,1.4,1.25.93,2.05,2.22,2.41,3.86l-3.59.67c-.25-.88-.73-1.57-1.42-2.08-.7-.51-1.56-.76-2.61-.76-1.58,0-2.83.5-3.77,1.5-.93,1-1.4,2.49-1.4,4.46,0,2.12.47,3.72,1.42,4.78.94,1.06,2.18,1.59,3.71,1.59.76,0,1.52-.15,2.28-.45.76-.3,1.41-.66,1.96-1.08v-2.27h-4.14Z"/>
    <path class="cls-19" d="M1661.27,113.78h-3.93l-1.56-4.06h-7.15l-1.48,4.06h-3.83l6.97-17.9h3.82l7.17,17.9ZM1654.62,106.7l-2.47-6.64-2.42,6.64h4.88Z"/>
    <path class="cls-19" d="M1665.36,113.78v-14.87h-5.31v-3.03h14.22v3.03h-5.3v14.87h-3.61Z"/>
    <path class="cls-19" d="M1676.61,113.78v-17.9h13.27v3.03h-9.66v3.97h8.98v3.02h-8.98v4.87h10v3.02h-13.61Z"/>
    <path class="cls-19" d="M1695.82,113.78l-4.27-17.9h3.7l2.7,12.29,3.27-12.29h4.3l3.14,12.5,2.75-12.5h3.64l-4.35,17.9h-3.83l-3.56-13.38-3.55,13.38h-3.92Z"/>
    <path class="cls-19" d="M1731.63,113.78h-3.93l-1.56-4.06h-7.15l-1.48,4.06h-3.83l6.97-17.9h3.82l7.17,17.9ZM1724.98,106.7l-2.47-6.64-2.42,6.64h4.88Z"/>
    <path class="cls-19" d="M1735.96,113.78v-7.53l-6.56-10.36h4.24l4.21,7.08,4.13-7.08h4.16l-6.58,10.39v7.51h-3.6Z"/>
  </g>
  <rect class="cls-18" x="956.22" y="165" width="114.71" height="114.71" rx="19.94" ry="19.94"/>
  <rect class="cls-20" x="484.46" y="182" width="114.71" height="114.71" rx="19.94" ry="19.94"/>
  <text class="cls-8" transform="translate(494.14 321.47)"><tspan x="0" y="0">Customer</tspan></text>
  <g>
    <path class="cls-17" d="M953.02,296.8c0-2.61.7-4.66,2.11-6.14,1.4-1.48,3.22-2.22,5.44-2.22,1.45,0,2.76.35,3.93,1.04,1.17.69,2.06,1.66,2.67,2.91.61,1.24.92,2.65.92,4.23s-.32,3.03-.97,4.29c-.64,1.26-1.56,2.21-2.74,2.86-1.18.65-2.46.97-3.82.97-1.48,0-2.81-.36-3.97-1.07-1.17-.72-2.05-1.69-2.65-2.93-.6-1.24-.9-2.55-.9-3.93ZM955.17,296.84c0,1.9.51,3.39,1.53,4.48,1.02,1.09,2.3,1.64,3.84,1.64s2.86-.55,3.87-1.65c1.01-1.1,1.52-2.67,1.52-4.69,0-1.28-.22-2.4-.65-3.36-.43-.96-1.07-1.7-1.9-2.22-.83-.53-1.77-.79-2.81-.79-1.48,0-2.74.51-3.81,1.52-1.06,1.01-1.59,2.71-1.59,5.08Z"/>
    <path class="cls-17" d="M970.52,304.47v-11.41h1.74v1.62c.84-1.25,2.05-1.88,3.63-1.88.69,0,1.32.12,1.9.37.58.25,1.01.57,1.29.97.29.4.49.88.6,1.43.07.36.11.98.11,1.88v7.01h-1.93v-6.94c0-.79-.08-1.38-.23-1.77-.15-.39-.42-.7-.8-.93-.38-.23-.83-.35-1.35-.35-.82,0-1.53.26-2.13.78-.6.52-.9,1.51-.9,2.98v6.23h-1.93Z"/>
    <path class="cls-17" d="M982.72,304.47v-15.75h1.93v15.75h-1.93Z"/>
    <path class="cls-17" d="M987.66,290.95v-2.22h1.93v2.22h-1.93ZM987.66,304.47v-11.41h1.93v11.41h-1.93Z"/>
    <path class="cls-17" d="M992.53,304.47v-11.41h1.74v1.62c.84-1.25,2.05-1.88,3.63-1.88.69,0,1.32.12,1.9.37.58.25,1.01.57,1.29.97.29.4.49.88.6,1.43.07.36.11.98.11,1.88v7.01h-1.93v-6.94c0-.79-.08-1.38-.23-1.77-.15-.39-.42-.7-.8-.93-.38-.23-.83-.35-1.35-.35-.82,0-1.53.26-2.13.78-.6.52-.9,1.51-.9,2.98v6.23h-1.93Z"/>
    <path class="cls-17" d="M1012.58,300.8l2,.25c-.32,1.17-.9,2.07-1.75,2.72s-1.94.97-3.27.97c-1.67,0-2.99-.51-3.97-1.54-.98-1.03-1.47-2.47-1.47-4.32s.49-3.41,1.48-4.47c.99-1.06,2.27-1.59,3.85-1.59s2.77.52,3.74,1.56c.97,1.04,1.45,2.5,1.45,4.38,0,.11,0,.29-.01.52h-8.51c.07,1.25.43,2.21,1.06,2.88s1.43,1,2.38,1c.71,0,1.31-.19,1.82-.56.5-.37.9-.97,1.19-1.78ZM1006.23,297.67h6.37c-.09-.96-.33-1.68-.73-2.16-.62-.74-1.41-1.12-2.4-1.12-.89,0-1.63.3-2.24.89-.61.59-.94,1.39-1,2.38Z"/>
    <path class="cls-17" d="M1022.66,299.41l1.97-.17c.09.79.31,1.43.65,1.94.34.5.87.91,1.58,1.22s1.52.47,2.42.47c.79,0,1.5-.12,2.11-.35s1.06-.56,1.36-.97c.3-.41.45-.86.45-1.35s-.14-.93-.43-1.29c-.29-.37-.76-.68-1.42-.93-.42-.16-1.36-.42-2.8-.77-1.45-.35-2.46-.67-3.04-.98-.75-.39-1.31-.88-1.68-1.47-.37-.58-.55-1.24-.55-1.96,0-.79.23-1.54.68-2.23.45-.69,1.11-1.22,1.98-1.57.87-.36,1.83-.54,2.89-.54,1.17,0,2.2.19,3.09.56.89.38,1.58.93,2.06,1.66s.74,1.56.77,2.48l-2,.15c-.11-1-.47-1.75-1.09-2.26-.62-.51-1.53-.76-2.74-.76s-2.18.23-2.76.69c-.58.46-.86,1.02-.86,1.67,0,.57.2,1.03.61,1.4.4.37,1.45.74,3.14,1.12,1.69.38,2.86.72,3.49,1,.92.42,1.59.96,2.03,1.61.44.65.66,1.4.66,2.24s-.24,1.63-.72,2.37-1.17,1.32-2.07,1.73c-.9.41-1.91.62-3.03.62-1.42,0-2.62-.21-3.58-.62-.96-.42-1.72-1.04-2.27-1.87-.55-.83-.84-1.78-.87-2.83Z"/>
    <path class="cls-17" d="M1042.01,302.74l.28,1.71c-.54.11-1.03.17-1.46.17-.7,0-1.25-.11-1.63-.33s-.66-.51-.82-.88c-.16-.36-.24-1.12-.24-2.28v-6.56h-1.42v-1.5h1.42v-2.83l1.92-1.16v3.99h1.94v1.5h-1.94v6.67c0,.55.03.91.1,1.06.07.16.18.28.33.38.15.09.38.14.66.14.21,0,.5-.02.85-.08Z"/>
    <path class="cls-17" d="M1043.18,298.77c0-2.11.59-3.68,1.76-4.69.98-.84,2.18-1.27,3.59-1.27,1.57,0,2.85.51,3.85,1.54,1,1.03,1.49,2.45,1.49,4.26,0,1.47-.22,2.62-.66,3.46-.44.84-1.08,1.5-1.92,1.96-.84.47-1.76.7-2.76.7-1.6,0-2.89-.51-3.87-1.54-.98-1.02-1.48-2.5-1.48-4.43ZM1045.17,298.77c0,1.46.32,2.56.96,3.28.64.73,1.44,1.09,2.41,1.09s1.76-.37,2.4-1.1.96-1.84.96-3.34c0-1.41-.32-2.48-.96-3.21-.64-.73-1.44-1.09-2.39-1.09s-1.77.36-2.41,1.08c-.64.72-.96,1.82-.96,3.28Z"/>
    <path class="cls-17" d="M1056.12,304.47v-11.41h1.74v1.73c.44-.81.85-1.34,1.23-1.6.38-.26.79-.39,1.24-.39.65,0,1.31.21,1.99.62l-.67,1.79c-.47-.28-.95-.42-1.42-.42-.42,0-.8.13-1.14.38-.34.25-.58.61-.72,1.06-.21.69-.32,1.44-.32,2.26v5.97h-1.93Z"/>
    <path class="cls-17" d="M1071.27,300.8l2,.25c-.32,1.17-.9,2.07-1.75,2.72s-1.94.97-3.27.97c-1.67,0-2.99-.51-3.97-1.54-.98-1.03-1.47-2.47-1.47-4.32s.49-3.41,1.48-4.47c.99-1.06,2.27-1.59,3.85-1.59s2.77.52,3.74,1.56c.97,1.04,1.45,2.5,1.45,4.38,0,.11,0,.29-.01.52h-8.51c.07,1.25.43,2.21,1.06,2.88s1.43,1,2.38,1c.71,0,1.31-.19,1.82-.56.5-.37.9-.97,1.19-1.78ZM1064.93,297.67h6.37c-.09-.96-.33-1.68-.73-2.16-.62-.74-1.41-1.12-2.4-1.12-.89,0-1.63.3-2.24.89-.61.59-.94,1.39-1,2.38Z"/>
    <path class="cls-17" d="M950.82,325.35l2.08.53c-.44,1.71-1.22,3.02-2.36,3.92-1.14.9-2.52,1.35-4.16,1.35s-3.08-.35-4.14-1.04c-1.06-.69-1.87-1.69-2.43-3-.55-1.31-.83-2.72-.83-4.22,0-1.64.31-3.07.94-4.29.63-1.22,1.52-2.15,2.68-2.78,1.16-.63,2.43-.95,3.82-.95,1.58,0,2.9.4,3.97,1.2,1.07.8,1.82,1.93,2.25,3.38l-2.05.48c-.37-1.15-.9-1.98-1.59-2.5-.69-.52-1.57-.78-2.62-.78-1.21,0-2.22.29-3.04.87-.81.58-1.38,1.36-1.71,2.34s-.49,1.99-.49,3.02c0,1.34.2,2.51.59,3.51.39,1,1,1.75,1.82,2.24s1.71.74,2.67.74c1.17,0,2.16-.34,2.96-1.01.81-.67,1.36-1.67,1.64-3Z"/>
    <path class="cls-17" d="M955.23,330.87v-15.75h1.93v5.65c.9-1.05,2.04-1.57,3.42-1.57.84,0,1.58.17,2.2.5s1.07.79,1.34,1.38c.27.59.4,1.44.4,2.56v7.23h-1.93v-7.23c0-.97-.21-1.67-.63-2.11-.42-.44-1.01-.66-1.78-.66-.57,0-1.11.15-1.62.45-.5.3-.86.7-1.08,1.21-.21.51-.32,1.21-.32,2.11v6.24h-1.93Z"/>
    <path class="cls-17" d="M975.27,327.2l2,.25c-.32,1.17-.9,2.07-1.75,2.72s-1.94.97-3.27.97c-1.67,0-2.99-.51-3.97-1.54-.98-1.03-1.47-2.47-1.47-4.32s.49-3.41,1.48-4.47c.99-1.06,2.27-1.59,3.85-1.59s2.77.52,3.74,1.56c.97,1.04,1.45,2.5,1.45,4.38,0,.11,0,.29-.01.52h-8.51c.07,1.25.43,2.21,1.06,2.88s1.43,1,2.38,1c.71,0,1.31-.19,1.82-.56.5-.37.9-.97,1.19-1.78ZM968.92,324.07h6.37c-.09-.96-.33-1.68-.73-2.16-.62-.74-1.41-1.12-2.4-1.12-.89,0-1.63.3-2.24.89-.61.59-.94,1.39-1,2.38Z"/>
    <path class="cls-17" d="M987.14,326.69l1.9.25c-.21,1.31-.74,2.34-1.59,3.08-.86.74-1.91,1.11-3.15,1.11-1.56,0-2.82-.51-3.76-1.53-.95-1.02-1.42-2.48-1.42-4.39,0-1.23.2-2.31.61-3.23s1.03-1.62,1.86-2.08c.83-.46,1.74-.69,2.72-.69,1.24,0,2.25.31,3.04.94.79.63,1.29,1.52,1.51,2.67l-1.88.29c-.18-.77-.5-1.34-.95-1.73-.46-.39-1-.58-1.65-.58-.97,0-1.77.35-2.37,1.05s-.91,1.8-.91,3.31.29,2.65.88,3.34c.59.69,1.35,1.04,2.3,1.04.76,0,1.39-.23,1.9-.7.51-.47.83-1.18.97-2.15Z"/>
    <path class="cls-17" d="M990.71,330.87v-15.75h1.93v8.98l4.58-4.64h2.5l-4.36,4.23,4.8,7.18h-2.38l-3.77-5.83-1.36,1.31v4.52h-1.93Z"/>
    <path class="cls-17" d="M1000.98,325.17c0-2.11.59-3.68,1.76-4.69.98-.84,2.18-1.27,3.59-1.27,1.57,0,2.85.51,3.85,1.54,1,1.03,1.49,2.45,1.49,4.26,0,1.47-.22,2.62-.66,3.46-.44.84-1.08,1.5-1.92,1.96-.84.47-1.76.7-2.76.7-1.6,0-2.89-.51-3.87-1.54-.98-1.02-1.48-2.5-1.48-4.43ZM1002.96,325.17c0,1.46.32,2.56.96,3.28.64.73,1.44,1.09,2.41,1.09s1.76-.37,2.4-1.1.96-1.84.96-3.34c0-1.41-.32-2.48-.96-3.21-.64-.73-1.44-1.09-2.39-1.09s-1.77.36-2.41,1.08c-.64.72-.96,1.82-.96,3.28Z"/>
    <path class="cls-17" d="M1021.41,330.87v-1.68c-.89,1.29-2.09,1.93-3.62,1.93-.67,0-1.3-.13-1.88-.39-.58-.26-1.02-.58-1.3-.97-.28-.39-.48-.87-.6-1.43-.08-.38-.12-.98-.12-1.8v-7.07h1.93v6.33c0,1.01.04,1.69.12,2.04.12.51.38.91.77,1.2s.88.44,1.46.44,1.12-.15,1.63-.45c.51-.3.87-.7,1.08-1.21.21-.51.32-1.25.32-2.23v-6.11h1.93v11.41h-1.73Z"/>
    <path class="cls-17" d="M1030.39,329.14l.28,1.71c-.54.11-1.03.17-1.46.17-.7,0-1.25-.11-1.63-.33s-.66-.51-.82-.88c-.16-.36-.24-1.12-.24-2.28v-6.56h-1.42v-1.5h1.42v-2.83l1.92-1.16v3.99h1.94v1.5h-1.94v6.67c0,.55.03.91.1,1.06.07.16.18.28.33.38.15.09.38.14.66.14.21,0,.5-.02.85-.08Z"/>
    <path class="cls-17" d="M1038.64,330.87v-15.75h5.94c1.05,0,1.84.05,2.4.15.77.13,1.42.37,1.94.74.52.36.94.87,1.26,1.52.32.65.48,1.37.48,2.15,0,1.34-.43,2.47-1.28,3.4-.85.93-2.39,1.39-4.62,1.39h-4.04v6.4h-2.08ZM1040.72,322.61h4.07c1.35,0,2.3-.25,2.87-.75.57-.5.85-1.21.85-2.12,0-.66-.17-1.22-.5-1.69-.33-.47-.77-.78-1.32-.93-.35-.09-1-.14-1.94-.14h-4.03v5.63Z"/>
    <path class="cls-17" d="M1060.51,329.47c-.72.61-1.41,1.04-2.07,1.29-.66.25-1.37.38-2.13.38-1.25,0-2.22-.31-2.89-.92s-1.01-1.39-1.01-2.35c0-.56.13-1.07.38-1.53.25-.46.59-.83,1-1.11.41-.28.88-.49,1.39-.63.38-.1.95-.2,1.72-.29,1.56-.19,2.71-.41,3.45-.67,0-.26.01-.43.01-.5,0-.79-.18-1.34-.55-1.67-.49-.44-1.23-.66-2.2-.66-.91,0-1.58.16-2.01.48-.43.32-.75.88-.96,1.69l-1.89-.26c.17-.81.46-1.46.85-1.96.39-.5.96-.88,1.71-1.15s1.61-.4,2.59-.4,1.77.11,2.37.34c.61.23,1.06.52,1.34.86.29.35.49.79.6,1.32.06.33.1.92.1,1.78v2.58c0,1.8.04,2.93.12,3.41.08.48.25.93.49,1.37h-2.02c-.2-.4-.33-.87-.39-1.41ZM1060.35,325.15c-.7.29-1.75.53-3.16.73-.79.11-1.36.24-1.69.39-.33.14-.58.35-.76.63-.18.28-.27.58-.27.92,0,.52.2.95.59,1.29.39.34.96.52,1.71.52s1.41-.16,1.99-.49c.58-.33,1.01-.77,1.28-1.34.21-.44.31-1.08.31-1.93v-.71Z"/>
    <path class="cls-17" d="M1064.95,331.82l1.88.28c.08.58.3,1,.66,1.27.48.36,1.13.54,1.97.54.9,0,1.59-.18,2.07-.54.49-.36.82-.86.99-1.5.1-.39.15-1.22.14-2.48-.84,1-1.9,1.49-3.16,1.49-1.57,0-2.78-.57-3.64-1.7-.86-1.13-1.29-2.49-1.29-4.07,0-1.09.2-2.09.59-3.01.39-.92.96-1.63,1.71-2.13.75-.5,1.63-.75,2.64-.75,1.35,0,2.46.54,3.33,1.63v-1.38h1.78v9.86c0,1.78-.18,3.03-.54,3.78-.36.74-.93,1.33-1.72,1.76-.78.43-1.75.64-2.89.64-1.36,0-2.46-.31-3.3-.92s-1.24-1.53-1.21-2.77ZM1066.55,324.96c0,1.5.3,2.59.89,3.28s1.34,1.03,2.23,1.03,1.63-.34,2.23-1.03c.6-.68.9-1.76.9-3.22s-.31-2.45-.93-3.16c-.62-.71-1.37-1.06-2.24-1.06s-1.59.35-2.19,1.05-.9,1.73-.9,3.11Z"/>
    <path class="cls-17" d="M1085.35,327.2l2,.25c-.32,1.17-.9,2.07-1.75,2.72s-1.94.97-3.27.97c-1.67,0-2.99-.51-3.97-1.54-.98-1.03-1.47-2.47-1.47-4.32s.49-3.41,1.48-4.47c.99-1.06,2.27-1.59,3.85-1.59s2.77.52,3.74,1.56c.97,1.04,1.45,2.5,1.45,4.38,0,.11,0,.29-.01.52h-8.51c.07,1.25.43,2.21,1.06,2.88s1.43,1,2.38,1c.71,0,1.31-.19,1.82-.56.5-.37.9-.97,1.19-1.78ZM1079,324.07h6.37c-.09-.96-.33-1.68-.73-2.16-.62-.74-1.41-1.12-2.4-1.12-.89,0-1.63.3-2.24.89-.61.59-.94,1.39-1,2.38Z"/>
  </g>
  <rect class="cls-16" x="1504.62" y="165" width="114.71" height="114.71" rx="19.94" ry="19.94"/>
  <g>
    <path class="cls-17" d="M1463.8,304.47v-15.75h2.08v6.47h8.19v-6.47h2.08v15.75h-2.08v-7.42h-8.19v7.42h-2.08Z"/>
    <path class="cls-17" d="M1478.99,296.8c0-2.61.7-4.66,2.11-6.14,1.4-1.48,3.22-2.22,5.44-2.22,1.45,0,2.76.35,3.93,1.04,1.17.69,2.06,1.66,2.67,2.91.61,1.24.92,2.65.92,4.23s-.32,3.03-.97,4.29c-.64,1.26-1.56,2.21-2.74,2.86-1.18.65-2.46.97-3.82.97-1.48,0-2.81-.36-3.97-1.07-1.17-.72-2.05-1.69-2.65-2.93-.6-1.24-.9-2.55-.9-3.93ZM1481.14,296.84c0,1.9.51,3.39,1.53,4.48,1.02,1.09,2.3,1.64,3.84,1.64s2.86-.55,3.87-1.65c1.01-1.1,1.52-2.67,1.52-4.69,0-1.28-.22-2.4-.65-3.36-.43-.96-1.07-1.7-1.9-2.22-.83-.53-1.77-.79-2.81-.79-1.48,0-2.74.51-3.81,1.52-1.06,1.01-1.59,2.71-1.59,5.08Z"/>
    <path class="cls-17" d="M1496.02,299.41l1.97-.17c.09.79.31,1.43.65,1.94.34.5.87.91,1.58,1.22s1.52.47,2.42.47c.79,0,1.5-.12,2.11-.35s1.06-.56,1.36-.97c.3-.41.45-.86.45-1.35s-.14-.93-.43-1.29c-.29-.37-.76-.68-1.42-.93-.42-.16-1.36-.42-2.8-.77-1.45-.35-2.46-.67-3.04-.98-.75-.39-1.31-.88-1.68-1.47-.37-.58-.55-1.24-.55-1.96,0-.79.23-1.54.68-2.23.45-.69,1.11-1.22,1.98-1.57.87-.36,1.83-.54,2.89-.54,1.17,0,2.2.19,3.09.56.89.38,1.58.93,2.06,1.66s.74,1.56.77,2.48l-2,.15c-.11-1-.47-1.75-1.09-2.26-.62-.51-1.53-.76-2.74-.76s-2.18.23-2.76.69c-.58.46-.86,1.02-.86,1.67,0,.57.2,1.03.61,1.4.4.37,1.45.74,3.14,1.12,1.69.38,2.86.72,3.49,1,.92.42,1.59.96,2.03,1.61.44.65.66,1.4.66,2.24s-.24,1.63-.72,2.37-1.17,1.32-2.07,1.73c-.9.41-1.91.62-3.03.62-1.42,0-2.62-.21-3.58-.62-.96-.42-1.72-1.04-2.27-1.87-.55-.83-.84-1.78-.87-2.83Z"/>
    <path class="cls-17" d="M1515.41,304.47v-13.89h-5.19v-1.86h12.48v1.86h-5.21v13.89h-2.08Z"/>
    <path class="cls-17" d="M1524.89,304.47v-15.75h11.39v1.86h-9.3v4.82h8.71v1.85h-8.71v5.36h9.67v1.86h-11.75Z"/>
    <path class="cls-17" d="M1539.52,304.47v-15.75h5.42c1.22,0,2.16.08,2.8.23.9.21,1.67.58,2.31,1.13.83.7,1.45,1.6,1.86,2.69.41,1.09.62,2.34.62,3.74,0,1.2-.14,2.26-.42,3.18s-.64,1.69-1.07,2.29c-.44.61-.92,1.08-1.43,1.43-.52.35-1.15.61-1.88.79-.73.18-1.58.27-2.53.27h-5.68ZM1541.6,302.61h3.36c1.04,0,1.85-.1,2.44-.29.59-.19,1.06-.47,1.41-.82.49-.49.88-1.16,1.15-1.99.28-.83.41-1.85.41-3.03,0-1.65-.27-2.91-.81-3.8-.54-.88-1.2-1.48-1.97-1.78-.56-.21-1.46-.32-2.7-.32h-3.31v12.03Z"/>
    <path class="cls-17" d="M1561.52,304.47v-15.75h5.94c1.05,0,1.84.05,2.4.15.77.13,1.42.37,1.94.74.52.36.94.87,1.26,1.52.32.65.48,1.37.48,2.15,0,1.34-.43,2.47-1.28,3.4-.85.93-2.39,1.39-4.62,1.39h-4.04v6.4h-2.08ZM1563.6,296.21h4.07c1.35,0,2.3-.25,2.87-.75.57-.5.85-1.21.85-2.12,0-.66-.17-1.22-.5-1.69-.33-.47-.77-.78-1.32-.93-.35-.09-1-.14-1.94-.14h-4.03v5.63Z"/>
    <path class="cls-17" d="M1572.83,304.47l6.05-15.75h2.25l6.45,15.75h-2.37l-1.84-4.77h-6.58l-1.73,4.77h-2.21ZM1577.38,298.01h5.34l-1.64-4.36c-.5-1.32-.87-2.41-1.12-3.27-.2,1.01-.48,2.01-.85,3.01l-1.73,4.62Z"/>
    <path class="cls-17" d="M1592.04,304.47v-6.67l-6.07-9.08h2.54l3.1,4.75c.57.89,1.11,1.78,1.6,2.66.47-.82,1.05-1.75,1.72-2.78l3.05-4.63h2.43l-6.28,9.08v6.67h-2.08Z"/>
    <path class="cls-17" d="M1602.21,304.47v-15.75h3.14l3.73,11.15c.34,1.04.59,1.82.75,2.33.18-.57.46-1.41.84-2.52l3.77-10.96h2.8v15.75h-2.01v-13.18l-4.58,13.18h-1.88l-4.55-13.41v13.41h-2.01Z"/>
    <path class="cls-17" d="M1620.64,304.47v-15.75h11.39v1.86h-9.3v4.82h8.71v1.85h-8.71v5.36h9.67v1.86h-11.75Z"/>
    <path class="cls-17" d="M1635.25,304.47v-15.75h2.14l8.27,12.36v-12.36h2v15.75h-2.14l-8.27-12.38v12.38h-2Z"/>
    <path class="cls-17" d="M1655.17,304.47v-13.89h-5.19v-1.86h12.48v1.86h-5.21v13.89h-2.08Z"/>
    <path class="cls-17" d="M1534.22,330.87v-15.75h5.94c1.05,0,1.84.05,2.4.15.77.13,1.42.37,1.94.74.52.36.94.87,1.26,1.52.32.65.48,1.37.48,2.15,0,1.34-.43,2.47-1.28,3.4-.85.93-2.39,1.39-4.62,1.39h-4.04v6.4h-2.08ZM1536.3,322.61h4.07c1.35,0,2.3-.25,2.87-.75.57-.5.85-1.21.85-2.12,0-.66-.17-1.22-.5-1.69-.33-.47-.77-.78-1.32-.93-.35-.09-1-.14-1.94-.14h-4.03v5.63Z"/>
    <path class="cls-17" d="M1545.53,330.87l6.05-15.75h2.25l6.45,15.75h-2.37l-1.84-4.77h-6.58l-1.73,4.77h-2.21ZM1550.07,324.41h5.34l-1.64-4.36c-.5-1.32-.87-2.41-1.12-3.27-.2,1.01-.48,2.01-.85,3.01l-1.73,4.62Z"/>
    <path class="cls-17" d="M1569.3,324.7v-1.85h6.67s0,5.83,0,5.83c-1.02.82-2.08,1.43-3.17,1.84s-2.21.62-3.35.62c-1.55,0-2.95-.33-4.22-.99-1.26-.66-2.22-1.62-2.86-2.87-.64-1.25-.97-2.65-.97-4.2s.32-2.96.96-4.29c.64-1.33,1.56-2.31,2.77-2.96s2.59-.97,4.16-.97c1.14,0,2.17.18,3.09.55.92.37,1.64.88,2.16,1.54.52.66.92,1.52,1.19,2.58l-1.88.52c-.24-.8-.53-1.43-.88-1.89-.35-.46-.85-.83-1.5-1.1-.65-.28-1.38-.41-2.17-.41-.95,0-1.78.15-2.47.44s-1.25.67-1.68,1.14c-.43.47-.76.99-.99,1.56-.4.97-.6,2.03-.6,3.17,0,1.4.24,2.58.73,3.52.48.95,1.19,1.65,2.11,2.11.92.46,1.91.69,2.94.69.9,0,1.78-.17,2.64-.52.86-.35,1.51-.72,1.96-1.11v-2.93h-4.63Z"/>
    <path class="cls-17" d="M1579.09,330.87v-15.75h11.39v1.86h-9.3v4.82h8.71v1.85h-8.71v5.36h9.67v1.86h-11.75Z"/>
  </g>
  <rect class="cls-18" x="1113.62" y="410" width="114.71" height="114.71" rx="19.94" ry="19.94"/>
  <text class="cls-8" transform="translate(1660.04 554.47)"><tspan x="0" y="0">APIs</tspan></text>
  <rect class="cls-16" x="1757.62" y="165" width="114.71" height="114.71" rx="19.94" ry="19.94"/>
  <g>
    <path class="cls-17" d="M1724.27,304.47v-15.75h2.08v6.47h8.19v-6.47h2.08v15.75h-2.08v-7.42h-8.19v7.42h-2.08Z"/>
    <path class="cls-17" d="M1739.13,298.77c0-2.11.59-3.68,1.76-4.69.98-.84,2.18-1.27,3.59-1.27,1.57,0,2.85.51,3.85,1.54,1,1.03,1.49,2.45,1.49,4.26,0,1.47-.22,2.62-.66,3.46-.44.84-1.08,1.5-1.92,1.96-.84.47-1.76.7-2.76.7-1.6,0-2.89-.51-3.87-1.54-.98-1.02-1.48-2.5-1.48-4.43ZM1741.12,298.77c0,1.46.32,2.56.96,3.28.64.73,1.44,1.09,2.41,1.09s1.76-.37,2.4-1.1.96-1.84.96-3.34c0-1.41-.32-2.48-.96-3.21-.64-.73-1.44-1.09-2.39-1.09s-1.77.36-2.41,1.08c-.64.72-.96,1.82-.96,3.28Z"/>
    <path class="cls-17" d="M1751.31,301.07l1.91-.3c.11.77.41,1.35.9,1.76.49.41,1.18.61,2.06.61s1.55-.18,1.98-.54c.43-.36.64-.79.64-1.27,0-.44-.19-.78-.57-1.03-.26-.17-.92-.39-1.98-.66-1.42-.36-2.4-.67-2.95-.93-.55-.26-.96-.62-1.25-1.08-.28-.46-.42-.97-.42-1.53,0-.51.12-.98.35-1.41.23-.43.55-.79.95-1.08.3-.22.71-.41,1.23-.56.52-.15,1.08-.23,1.67-.23.9,0,1.68.13,2.36.39.68.26,1.18.61,1.5,1.05s.54,1.03.67,1.77l-1.89.26c-.09-.59-.33-1.05-.75-1.38-.41-.33-.99-.49-1.75-.49-.89,0-1.52.15-1.9.44-.38.29-.57.64-.57,1.03,0,.25.08.48.24.68.16.21.4.38.74.52.19.07.76.24,1.71.49,1.37.37,2.32.66,2.86.9.54.23.97.57,1.27,1.02.31.44.46,1,.46,1.65s-.19,1.25-.56,1.82c-.38.57-.92,1.01-1.63,1.32s-1.51.47-2.41.47c-1.48,0-2.61-.31-3.39-.92-.78-.62-1.27-1.53-1.49-2.74Z"/>
    <path class="cls-17" d="M1767.31,302.74l.28,1.71c-.54.11-1.03.17-1.46.17-.7,0-1.25-.11-1.63-.33s-.66-.51-.82-.88c-.16-.36-.24-1.12-.24-2.28v-6.56h-1.42v-1.5h1.42v-2.83l1.92-1.16v3.99h1.94v1.5h-1.94v6.67c0,.55.03.91.1,1.06.07.16.18.28.33.38.15.09.38.14.66.14.21,0,.5-.02.85-.08Z"/>
    <path class="cls-17" d="M1777.01,300.8l2,.25c-.32,1.17-.9,2.07-1.75,2.72s-1.94.97-3.27.97c-1.67,0-2.99-.51-3.97-1.54-.98-1.03-1.47-2.47-1.47-4.32s.49-3.41,1.48-4.47c.99-1.06,2.27-1.59,3.85-1.59s2.77.52,3.74,1.56c.97,1.04,1.45,2.5,1.45,4.38,0,.11,0,.29-.01.52h-8.51c.07,1.25.43,2.21,1.06,2.88s1.43,1,2.38,1c.71,0,1.31-.19,1.82-.56.5-.37.9-.97,1.19-1.78ZM1770.66,297.67h6.37c-.09-.96-.33-1.68-.73-2.16-.62-.74-1.41-1.12-2.4-1.12-.89,0-1.63.3-2.24.89-.61.59-.94,1.39-1,2.38Z"/>
    <path class="cls-17" d="M1788.83,304.47v-1.44c-.72,1.13-1.79,1.7-3.19,1.7-.91,0-1.75-.25-2.51-.75-.76-.5-1.35-1.2-1.77-2.1-.42-.9-.63-1.93-.63-3.1s.19-2.17.57-3.1c.38-.93.95-1.64,1.71-2.13s1.61-.74,2.55-.74c.69,0,1.3.15,1.84.44s.97.67,1.31,1.13v-5.65h1.92v15.75h-1.79ZM1782.72,298.78c0,1.46.31,2.55.92,3.28.62.72,1.34,1.08,2.18,1.08s1.56-.35,2.15-1.04c.59-.69.89-1.75.89-3.16,0-1.56-.3-2.71-.9-3.44s-1.34-1.1-2.22-1.1-1.58.35-2.15,1.05c-.58.7-.86,1.81-.86,3.32Z"/>
    <path class="cls-17" d="M1803.64,304.47v-13.89h-5.19v-1.86h12.48v1.86h-5.21v13.89h-2.08Z"/>
    <path class="cls-17" d="M1812.82,304.47v-15.75h1.93v5.65c.9-1.05,2.04-1.57,3.42-1.57.84,0,1.58.17,2.2.5s1.07.79,1.34,1.38c.27.59.4,1.44.4,2.56v7.23h-1.93v-7.23c0-.97-.21-1.67-.63-2.11-.42-.44-1.01-.66-1.78-.66-.57,0-1.11.15-1.62.45-.5.3-.86.7-1.08,1.21-.21.51-.32,1.21-.32,2.11v6.24h-1.93Z"/>
    <path class="cls-17" d="M1832.5,303.07c-.72.61-1.41,1.04-2.07,1.29-.66.25-1.37.38-2.13.38-1.25,0-2.22-.31-2.89-.92s-1.01-1.39-1.01-2.35c0-.56.13-1.07.38-1.53.25-.46.59-.83,1-1.11.41-.28.88-.49,1.39-.63.38-.1.95-.2,1.72-.29,1.56-.19,2.71-.41,3.45-.67,0-.26.01-.43.01-.5,0-.79-.18-1.34-.55-1.67-.49-.44-1.23-.66-2.2-.66-.91,0-1.58.16-2.01.48-.43.32-.75.88-.96,1.69l-1.89-.26c.17-.81.46-1.46.85-1.96.39-.5.96-.88,1.71-1.15s1.61-.4,2.59-.4,1.77.11,2.37.34c.61.23,1.06.52,1.34.86.29.35.49.79.6,1.32.06.33.1.92.1,1.78v2.58c0,1.8.04,2.93.12,3.41.08.48.25.93.49,1.37h-2.02c-.2-.4-.33-.87-.39-1.41ZM1832.34,298.75c-.7.29-1.75.53-3.16.73-.79.11-1.36.24-1.69.39-.33.14-.58.35-.76.63-.18.28-.27.58-.27.92,0,.52.2.95.59,1.29.39.34.96.52,1.71.52s1.41-.16,1.99-.49c.58-.33,1.01-.77,1.28-1.34.21-.44.31-1.08.31-1.93v-.71Z"/>
    <path class="cls-17" d="M1837.29,304.47v-11.41h1.74v1.62c.84-1.25,2.05-1.88,3.63-1.88.69,0,1.32.12,1.9.37.58.25,1.01.57,1.29.97.29.4.49.88.6,1.43.07.36.11.98.11,1.88v7.01h-1.93v-6.94c0-.79-.08-1.38-.23-1.77-.15-.39-.42-.7-.8-.93-.38-.23-.83-.35-1.35-.35-.82,0-1.53.26-2.13.78-.6.52-.9,1.51-.9,2.98v6.23h-1.93Z"/>
    <path class="cls-17" d="M1849.54,304.47v-15.75h1.93v8.98l4.58-4.64h2.5l-4.36,4.23,4.8,7.18h-2.38l-3.77-5.83-1.36,1.31v4.52h-1.93Z"/>
    <path class="cls-17" d="M1870.93,304.47v-6.67l-6.07-9.08h2.54l3.1,4.75c.57.89,1.11,1.78,1.6,2.66.47-.82,1.05-1.75,1.72-2.78l3.05-4.63h2.43l-6.28,9.08v6.67h-2.08Z"/>
    <path class="cls-17" d="M1878.18,298.77c0-2.11.59-3.68,1.76-4.69.98-.84,2.18-1.27,3.59-1.27,1.57,0,2.85.51,3.85,1.54,1,1.03,1.49,2.45,1.49,4.26,0,1.47-.22,2.62-.66,3.46-.44.84-1.08,1.5-1.92,1.96-.84.47-1.76.7-2.76.7-1.6,0-2.89-.51-3.87-1.54-.98-1.02-1.48-2.5-1.48-4.43ZM1880.17,298.77c0,1.46.32,2.56.96,3.28.64.73,1.44,1.09,2.41,1.09s1.76-.37,2.4-1.1.96-1.84.96-3.34c0-1.41-.32-2.48-.96-3.21-.64-.73-1.44-1.09-2.39-1.09s-1.77.36-2.41,1.08c-.64.72-.96,1.82-.96,3.28Z"/>
    <path class="cls-17" d="M1898.61,304.47v-1.68c-.89,1.29-2.09,1.93-3.62,1.93-.67,0-1.3-.13-1.88-.39-.58-.26-1.02-.58-1.3-.97-.28-.39-.48-.87-.6-1.43-.08-.38-.12-.98-.12-1.8v-7.07h1.93v6.33c0,1.01.04,1.69.12,2.04.12.51.38.91.77,1.2s.88.44,1.46.44,1.12-.15,1.63-.45c.51-.3.87-.7,1.08-1.21.21-.51.32-1.25.32-2.23v-6.11h1.93v11.41h-1.73Z"/>
    <path class="cls-17" d="M1791.28,330.87v-15.75h5.94c1.05,0,1.84.05,2.4.15.77.13,1.42.37,1.94.74.52.36.94.87,1.26,1.52.32.65.48,1.37.48,2.15,0,1.34-.43,2.47-1.28,3.4-.85.93-2.39,1.39-4.62,1.39h-4.04v6.4h-2.08ZM1793.36,322.61h4.07c1.35,0,2.3-.25,2.87-.75.57-.5.85-1.21.85-2.12,0-.66-.17-1.22-.5-1.69-.33-.47-.77-.78-1.32-.93-.35-.09-1-.14-1.94-.14h-4.03v5.63Z"/>
    <path class="cls-17" d="M1813.15,329.47c-.72.61-1.41,1.04-2.07,1.29-.66.25-1.37.38-2.13.38-1.25,0-2.22-.31-2.89-.92s-1.01-1.39-1.01-2.35c0-.56.13-1.07.38-1.53.25-.46.59-.83,1-1.11.41-.28.88-.49,1.39-.63.38-.1.95-.2,1.72-.29,1.56-.19,2.71-.41,3.45-.67,0-.26.01-.43.01-.5,0-.79-.18-1.34-.55-1.67-.49-.44-1.23-.66-2.2-.66-.91,0-1.58.16-2.01.48-.43.32-.75.88-.96,1.69l-1.89-.26c.17-.81.46-1.46.85-1.96.39-.5.96-.88,1.71-1.15s1.61-.4,2.59-.4,1.77.11,2.37.34c.61.23,1.06.52,1.34.86.29.35.49.79.6,1.32.06.33.1.92.1,1.78v2.58c0,1.8.04,2.93.12,3.41.08.48.25.93.49,1.37h-2.02c-.2-.4-.33-.87-.39-1.41ZM1812.99,325.15c-.7.29-1.75.53-3.16.73-.79.11-1.36.24-1.69.39-.33.14-.58.35-.76.63-.18.28-.27.58-.27.92,0,.52.2.95.59,1.29.39.34.96.52,1.71.52s1.41-.16,1.99-.49c.58-.33,1.01-.77,1.28-1.34.21-.44.31-1.08.31-1.93v-.71Z"/>
    <path class="cls-17" d="M1817.59,331.82l1.88.28c.08.58.3,1,.66,1.27.48.36,1.13.54,1.97.54.9,0,1.59-.18,2.07-.54.49-.36.82-.86.99-1.5.1-.39.15-1.22.14-2.48-.84,1-1.9,1.49-3.16,1.49-1.57,0-2.78-.57-3.64-1.7-.86-1.13-1.29-2.49-1.29-4.07,0-1.09.2-2.09.59-3.01.39-.92.96-1.63,1.71-2.13.75-.5,1.63-.75,2.64-.75,1.35,0,2.46.54,3.33,1.63v-1.38h1.78v9.86c0,1.78-.18,3.03-.54,3.78-.36.74-.93,1.33-1.72,1.76-.78.43-1.75.64-2.89.64-1.36,0-2.46-.31-3.3-.92s-1.24-1.53-1.21-2.77ZM1819.19,324.96c0,1.5.3,2.59.89,3.28s1.34,1.03,2.23,1.03,1.63-.34,2.23-1.03c.6-.68.9-1.76.9-3.22s-.31-2.45-.93-3.16c-.62-.71-1.37-1.06-2.24-1.06s-1.59.35-2.19,1.05-.9,1.73-.9,3.11Z"/>
    <path class="cls-17" d="M1837.99,327.2l2,.25c-.32,1.17-.9,2.07-1.75,2.72s-1.94.97-3.27.97c-1.67,0-2.99-.51-3.97-1.54-.98-1.03-1.47-2.47-1.47-4.32s.49-3.41,1.48-4.47c.99-1.06,2.27-1.59,3.85-1.59s2.77.52,3.74,1.56c.97,1.04,1.45,2.5,1.45,4.38,0,.11,0,.29-.01.52h-8.51c.07,1.25.43,2.21,1.06,2.88s1.43,1,2.38,1c.71,0,1.31-.19,1.82-.56.5-.37.9-.97,1.19-1.78ZM1831.64,324.07h6.37c-.09-.96-.33-1.68-.73-2.16-.62-.74-1.41-1.12-2.4-1.12-.89,0-1.63.3-2.24.89-.61.59-.94,1.39-1,2.38Z"/>
  </g>
  <rect class="cls-18" x="813.22" y="410" width="114.71" height="114.71" rx="19.94" ry="19.94"/>
  <rect class="cls-20" x="484.46" y="415" width="114.71" height="114.71" rx="19.94" ry="19.94"/>
  <text class="cls-8" transform="translate(494.14 554.47)"><tspan x="0" y="0">Customer</tspan></text>
  <g>
    <path class="cls-17" d="M810.02,541.8c0-2.61.7-4.66,2.11-6.14,1.4-1.48,3.22-2.22,5.44-2.22,1.45,0,2.76.35,3.93,1.04,1.17.69,2.06,1.66,2.67,2.91.61,1.24.92,2.65.92,4.23s-.32,3.03-.97,4.29c-.64,1.26-1.56,2.21-2.74,2.86s-2.46.97-3.82.97c-1.48,0-2.81-.36-3.97-1.07-1.17-.72-2.05-1.69-2.65-2.93-.6-1.24-.9-2.55-.9-3.93ZM812.17,541.84c0,1.9.51,3.39,1.53,4.48,1.02,1.09,2.3,1.64,3.84,1.64s2.86-.55,3.87-1.65c1.01-1.1,1.52-2.67,1.52-4.7,0-1.28-.22-2.4-.65-3.36-.43-.96-1.07-1.7-1.9-2.22-.83-.53-1.77-.79-2.81-.79-1.48,0-2.74.51-3.81,1.52-1.06,1.01-1.59,2.71-1.59,5.08Z"/>
    <path class="cls-17" d="M827.52,549.47v-11.41h1.74v1.62c.84-1.25,2.05-1.88,3.63-1.88.69,0,1.32.12,1.9.37.58.25,1.01.57,1.29.97.29.4.49.88.6,1.43.07.36.11.98.11,1.88v7.01h-1.93v-6.94c0-.79-.08-1.38-.23-1.77-.15-.39-.42-.7-.8-.93-.38-.23-.83-.35-1.35-.35-.82,0-1.53.26-2.13.78-.6.52-.9,1.51-.9,2.98v6.23h-1.93Z"/>
    <path class="cls-17" d="M839.72,549.47v-15.75h1.93v15.75h-1.93Z"/>
    <path class="cls-17" d="M844.66,535.95v-2.22h1.93v2.22h-1.93ZM844.66,549.47v-11.41h1.93v11.41h-1.93Z"/>
    <path class="cls-17" d="M849.53,549.47v-11.41h1.74v1.62c.84-1.25,2.05-1.88,3.63-1.88.69,0,1.32.12,1.9.37.58.25,1.01.57,1.29.97.29.4.49.88.6,1.43.07.36.11.98.11,1.88v7.01h-1.93v-6.94c0-.79-.08-1.38-.23-1.77-.15-.39-.42-.7-.8-.93-.38-.23-.83-.35-1.35-.35-.82,0-1.53.26-2.13.78-.6.52-.9,1.51-.9,2.98v6.23h-1.93Z"/>
    <path class="cls-17" d="M869.58,545.8l2,.25c-.32,1.17-.9,2.07-1.75,2.72s-1.94.97-3.27.97c-1.67,0-2.99-.51-3.97-1.54-.98-1.03-1.47-2.47-1.47-4.32s.49-3.41,1.48-4.47c.99-1.06,2.27-1.59,3.85-1.59s2.77.52,3.74,1.56c.97,1.04,1.45,2.5,1.45,4.38,0,.11,0,.29-.01.52h-8.51c.07,1.25.43,2.21,1.06,2.88s1.43,1,2.38,1c.71,0,1.31-.19,1.82-.56.5-.37.9-.97,1.19-1.78ZM863.23,542.67h6.37c-.09-.96-.33-1.68-.73-2.16-.62-.74-1.41-1.12-2.4-1.12-.89,0-1.63.3-2.24.89-.61.59-.94,1.39-1,2.39Z"/>
    <path class="cls-17" d="M879.66,544.41l1.97-.17c.09.79.31,1.43.65,1.94.34.5.87.91,1.58,1.22s1.52.47,2.42.47c.79,0,1.5-.12,2.11-.36s1.06-.56,1.36-.97c.3-.41.45-.86.45-1.35s-.14-.92-.43-1.29c-.29-.37-.76-.68-1.42-.93-.42-.17-1.36-.42-2.8-.77-1.45-.35-2.46-.67-3.04-.98-.75-.39-1.31-.88-1.68-1.47-.37-.58-.55-1.24-.55-1.96,0-.79.23-1.54.68-2.23.45-.69,1.11-1.22,1.98-1.57.87-.36,1.83-.54,2.89-.54,1.17,0,2.2.19,3.09.56.89.38,1.58.93,2.06,1.66s.74,1.56.77,2.48l-2,.15c-.11-1-.47-1.75-1.09-2.26-.62-.51-1.53-.76-2.74-.76s-2.18.23-2.76.69c-.58.46-.86,1.02-.86,1.67,0,.57.2,1.03.61,1.4.4.37,1.45.74,3.14,1.12,1.69.38,2.86.72,3.49,1,.92.42,1.59.96,2.03,1.61.44.65.66,1.4.66,2.24s-.24,1.63-.72,2.37-1.17,1.32-2.07,1.73c-.9.41-1.91.62-3.03.62-1.42,0-2.62-.21-3.58-.62-.96-.42-1.72-1.04-2.27-1.88-.55-.83-.84-1.78-.87-2.83Z"/>
    <path class="cls-17" d="M899.01,547.74l.28,1.71c-.54.12-1.03.17-1.46.17-.7,0-1.25-.11-1.63-.33-.39-.22-.66-.51-.82-.88-.16-.36-.24-1.12-.24-2.28v-6.56h-1.42v-1.5h1.42v-2.83l1.92-1.16v3.99h1.94v1.5h-1.94v6.67c0,.55.03.91.1,1.06.07.16.18.28.33.38.15.09.38.14.66.14.21,0,.5-.02.85-.07Z"/>
    <path class="cls-17" d="M900.18,543.77c0-2.11.59-3.68,1.76-4.69.98-.84,2.18-1.27,3.59-1.27,1.57,0,2.85.51,3.85,1.54,1,1.03,1.49,2.45,1.49,4.26,0,1.47-.22,2.62-.66,3.46-.44.84-1.08,1.5-1.92,1.96-.84.46-1.76.7-2.76.7-1.6,0-2.89-.51-3.87-1.54-.98-1.02-1.48-2.5-1.48-4.43ZM902.17,543.77c0,1.46.32,2.55.96,3.28s1.44,1.09,2.41,1.09,1.76-.37,2.4-1.1.96-1.84.96-3.34c0-1.41-.32-2.48-.96-3.21-.64-.73-1.44-1.09-2.39-1.09s-1.77.36-2.41,1.08c-.64.72-.96,1.82-.96,3.28Z"/>
    <path class="cls-17" d="M913.12,549.47v-11.41h1.74v1.73c.44-.81.85-1.34,1.23-1.6.38-.26.79-.39,1.24-.39.65,0,1.31.21,1.99.62l-.67,1.79c-.47-.28-.95-.42-1.42-.42-.42,0-.8.13-1.14.38-.34.25-.58.61-.72,1.06-.21.69-.32,1.44-.32,2.26v5.97h-1.93Z"/>
    <path class="cls-17" d="M928.27,545.8l2,.25c-.32,1.17-.9,2.07-1.75,2.72s-1.94.97-3.27.97c-1.67,0-2.99-.51-3.97-1.54-.98-1.03-1.47-2.47-1.47-4.32s.49-3.41,1.48-4.47c.99-1.06,2.27-1.59,3.85-1.59s2.77.52,3.74,1.56c.97,1.04,1.45,2.5,1.45,4.38,0,.11,0,.29-.01.52h-8.51c.07,1.25.43,2.21,1.06,2.88s1.43,1,2.38,1c.71,0,1.31-.19,1.82-.56.5-.37.9-.97,1.19-1.78ZM921.93,542.67h6.37c-.09-.96-.33-1.68-.73-2.16-.62-.74-1.41-1.12-2.4-1.12-.89,0-1.63.3-2.24.89-.61.59-.94,1.39-1,2.39Z"/>
    <path class="cls-17" d="M807.82,570.35l2.08.53c-.44,1.71-1.22,3.02-2.36,3.92-1.14.9-2.52,1.35-4.16,1.35s-3.08-.34-4.14-1.04c-1.06-.69-1.87-1.69-2.43-3-.55-1.31-.83-2.72-.83-4.22,0-1.64.31-3.07.94-4.29.63-1.22,1.52-2.15,2.68-2.78,1.16-.63,2.43-.95,3.82-.95,1.58,0,2.9.4,3.97,1.2s1.82,1.93,2.25,3.38l-2.05.48c-.37-1.15-.9-1.98-1.59-2.5-.69-.52-1.57-.78-2.62-.78-1.21,0-2.22.29-3.04.87-.81.58-1.38,1.36-1.71,2.34-.33.98-.49,1.99-.49,3.02,0,1.34.2,2.51.59,3.51.39,1,1,1.75,1.82,2.24s1.71.74,2.67.74c1.17,0,2.16-.34,2.96-1.01s1.36-1.67,1.64-3Z"/>
    <path class="cls-17" d="M812.23,575.87v-15.75h1.93v5.65c.9-1.04,2.04-1.57,3.42-1.57.84,0,1.58.17,2.2.5.62.33,1.07.79,1.34,1.38.27.59.4,1.44.4,2.56v7.23h-1.93v-7.23c0-.97-.21-1.67-.63-2.11-.42-.44-1.01-.66-1.78-.66-.57,0-1.11.15-1.62.45-.5.3-.86.7-1.08,1.21s-.32,1.21-.32,2.11v6.24h-1.93Z"/>
    <path class="cls-17" d="M832.27,572.2l2,.25c-.32,1.17-.9,2.07-1.75,2.72s-1.94.97-3.27.97c-1.67,0-2.99-.51-3.97-1.54-.98-1.03-1.47-2.47-1.47-4.32s.49-3.41,1.48-4.47c.99-1.06,2.27-1.59,3.85-1.59s2.77.52,3.74,1.56,1.45,2.5,1.45,4.38c0,.11,0,.29-.01.52h-8.51c.07,1.25.43,2.21,1.06,2.88s1.43,1,2.38,1c.71,0,1.31-.19,1.82-.56.5-.37.9-.97,1.19-1.78ZM825.92,569.07h6.37c-.09-.96-.33-1.68-.73-2.16-.62-.74-1.41-1.12-2.4-1.12-.89,0-1.63.3-2.24.89-.61.59-.94,1.39-1,2.38Z"/>
    <path class="cls-17" d="M844.14,571.69l1.9.25c-.21,1.31-.74,2.34-1.59,3.08-.86.74-1.91,1.11-3.15,1.11-1.56,0-2.82-.51-3.76-1.53-.95-1.02-1.42-2.48-1.42-4.39,0-1.23.2-2.31.61-3.23s1.03-1.62,1.86-2.08c.83-.46,1.74-.69,2.72-.69,1.24,0,2.25.31,3.04.94.79.63,1.29,1.52,1.51,2.67l-1.88.29c-.18-.77-.5-1.34-.95-1.73-.46-.39-1-.58-1.65-.58-.97,0-1.77.35-2.37,1.05-.61.7-.91,1.8-.91,3.31s.29,2.65.88,3.34,1.35,1.04,2.3,1.04c.76,0,1.39-.23,1.9-.7s.83-1.18.97-2.15Z"/>
    <path class="cls-17" d="M847.71,575.87v-15.75h1.93v8.98l4.58-4.64h2.5l-4.36,4.23,4.8,7.18h-2.38l-3.77-5.83-1.36,1.31v4.52h-1.93Z"/>
    <path class="cls-17" d="M857.98,570.17c0-2.11.59-3.68,1.76-4.69.98-.84,2.18-1.27,3.59-1.27,1.57,0,2.85.51,3.85,1.54,1,1.03,1.49,2.45,1.49,4.26,0,1.47-.22,2.62-.66,3.46-.44.84-1.08,1.49-1.92,1.96-.84.47-1.76.7-2.76.7-1.6,0-2.89-.51-3.87-1.54-.98-1.02-1.48-2.5-1.48-4.43ZM859.96,570.17c0,1.46.32,2.56.96,3.28s1.44,1.09,2.41,1.09,1.76-.37,2.4-1.1.96-1.84.96-3.34c0-1.41-.32-2.48-.96-3.21-.64-.73-1.44-1.09-2.39-1.09s-1.77.36-2.41,1.08c-.64.72-.96,1.82-.96,3.28Z"/>
    <path class="cls-17" d="M878.41,575.87v-1.68c-.89,1.29-2.09,1.93-3.62,1.93-.67,0-1.3-.13-1.88-.39-.58-.26-1.02-.58-1.3-.97-.28-.39-.48-.87-.6-1.43-.08-.38-.12-.98-.12-1.8v-7.07h1.93v6.33c0,1.01.04,1.69.12,2.04.12.51.38.91.77,1.2.39.29.88.43,1.46.43s1.12-.15,1.63-.45c.51-.3.87-.7,1.08-1.21.21-.51.32-1.26.32-2.23v-6.11h1.93v11.41h-1.73Z"/>
    <path class="cls-17" d="M887.39,574.14l.28,1.71c-.54.11-1.03.17-1.46.17-.7,0-1.25-.11-1.63-.33s-.66-.51-.82-.88c-.16-.36-.24-1.12-.24-2.28v-6.56h-1.42v-1.5h1.42v-2.83l1.92-1.16v3.99h1.94v1.5h-1.94v6.67c0,.55.03.91.1,1.06.07.16.18.28.33.38.15.09.38.14.66.14.21,0,.5-.03.85-.08Z"/>
    <path class="cls-17" d="M895.64,575.87v-15.75h5.94c1.05,0,1.84.05,2.4.15.77.13,1.42.38,1.94.74s.94.87,1.26,1.52c.32.65.48,1.37.48,2.15,0,1.34-.43,2.47-1.28,3.4s-2.39,1.39-4.62,1.39h-4.04v6.4h-2.08ZM897.72,567.61h4.07c1.35,0,2.3-.25,2.87-.75s.85-1.21.85-2.12c0-.66-.17-1.22-.5-1.69-.33-.47-.77-.78-1.32-.93-.35-.09-1-.14-1.94-.14h-4.03v5.63Z"/>
    <path class="cls-17" d="M917.51,574.47c-.72.61-1.41,1.04-2.07,1.29-.66.25-1.37.38-2.13.38-1.25,0-2.22-.31-2.89-.92-.67-.61-1.01-1.39-1.01-2.35,0-.56.13-1.07.38-1.53.25-.46.59-.83,1-1.11.41-.28.88-.49,1.39-.63.38-.1.95-.2,1.72-.29,1.56-.19,2.71-.41,3.45-.67,0-.26.01-.43.01-.5,0-.79-.18-1.34-.55-1.67-.49-.44-1.23-.66-2.2-.66-.91,0-1.58.16-2.01.48-.43.32-.75.88-.96,1.69l-1.89-.26c.17-.81.46-1.46.85-1.96s.96-.88,1.71-1.15c.75-.27,1.61-.4,2.59-.4s1.77.12,2.37.34c.61.23,1.06.52,1.34.87s.49.79.6,1.32c.06.33.1.92.1,1.78v2.58c0,1.8.04,2.93.12,3.41.08.48.25.93.49,1.37h-2.02c-.2-.4-.33-.87-.39-1.41ZM917.35,570.15c-.7.29-1.75.53-3.16.73-.79.11-1.36.24-1.69.39s-.58.35-.76.63c-.18.28-.27.58-.27.92,0,.52.2.95.59,1.29.39.34.96.52,1.71.52s1.41-.16,1.99-.49c.58-.33,1.01-.77,1.28-1.34.21-.44.31-1.08.31-1.93v-.71Z"/>
    <path class="cls-17" d="M921.95,576.82l1.88.28c.08.58.3,1,.66,1.27.48.36,1.13.54,1.97.54.9,0,1.59-.18,2.07-.54.49-.36.82-.86.99-1.5.1-.39.15-1.22.14-2.48-.84,1-1.9,1.49-3.16,1.49-1.57,0-2.78-.57-3.64-1.7-.86-1.13-1.29-2.49-1.29-4.07,0-1.09.2-2.09.59-3.01s.96-1.63,1.71-2.13c.75-.5,1.63-.75,2.64-.75,1.35,0,2.46.54,3.33,1.63v-1.38h1.78v9.86c0,1.78-.18,3.04-.54,3.78-.36.74-.93,1.33-1.72,1.76-.78.43-1.75.64-2.89.64-1.36,0-2.46-.31-3.3-.92-.84-.61-1.24-1.53-1.21-2.77ZM923.55,569.96c0,1.5.3,2.59.89,3.28s1.34,1.03,2.23,1.03,1.63-.34,2.23-1.03c.6-.68.9-1.76.9-3.22s-.31-2.45-.93-3.16c-.62-.71-1.37-1.06-2.24-1.06s-1.59.35-2.19,1.05c-.6.7-.9,1.73-.9,3.11Z"/>
    <path class="cls-17" d="M942.35,572.2l2,.25c-.32,1.17-.9,2.07-1.75,2.72s-1.94.97-3.27.97c-1.67,0-2.99-.51-3.97-1.54-.98-1.03-1.47-2.47-1.47-4.32s.49-3.41,1.48-4.47c.99-1.06,2.27-1.59,3.85-1.59s2.77.52,3.74,1.56,1.45,2.5,1.45,4.38c0,.11,0,.29-.01.52h-8.51c.07,1.25.43,2.21,1.06,2.88s1.43,1,2.38,1c.71,0,1.31-.19,1.82-.56.5-.37.9-.97,1.19-1.78ZM936,569.07h6.37c-.09-.96-.33-1.68-.73-2.16-.62-.74-1.41-1.12-2.4-1.12-.89,0-1.63.3-2.24.89-.61.59-.94,1.39-1,2.38Z"/>
  </g>
  <rect class="cls-18" x="964.22" y="410" width="114.71" height="114.71" rx="19.94" ry="19.94"/>
  <g>
    <path class="cls-17" d="M979.39,549.47v-15.75h5.94c1.05,0,1.84.05,2.4.15.77.13,1.42.37,1.94.74.52.36.94.87,1.26,1.52.32.65.48,1.37.48,2.15,0,1.34-.43,2.47-1.28,3.4-.85.93-2.39,1.39-4.62,1.39h-4.04v6.4h-2.08ZM981.48,541.21h4.07c1.35,0,2.3-.25,2.87-.75.57-.5.85-1.21.85-2.12,0-.66-.17-1.22-.5-1.69-.33-.47-.77-.78-1.32-.93-.35-.09-1-.14-1.94-.14h-4.03v5.63Z"/>
    <path class="cls-17" d="M1001.26,548.07c-.72.61-1.41,1.04-2.07,1.29-.66.25-1.37.38-2.13.38-1.25,0-2.22-.31-2.89-.92s-1.01-1.39-1.01-2.35c0-.56.13-1.07.38-1.53.25-.46.59-.83,1-1.11.41-.28.88-.49,1.39-.63.38-.1.95-.2,1.72-.29,1.56-.19,2.71-.41,3.45-.67,0-.26.01-.43.01-.5,0-.79-.18-1.34-.55-1.67-.49-.44-1.23-.66-2.2-.66-.91,0-1.58.16-2.01.48-.43.32-.75.88-.96,1.69l-1.89-.26c.17-.81.46-1.46.85-1.96.39-.5.96-.88,1.71-1.15s1.61-.4,2.59-.4,1.77.11,2.37.34c.61.23,1.06.52,1.34.86.29.35.49.79.6,1.32.06.33.1.92.1,1.78v2.58c0,1.8.04,2.93.12,3.41.08.48.25.93.49,1.37h-2.02c-.2-.4-.33-.87-.39-1.41ZM1001.1,543.75c-.7.29-1.75.53-3.16.73-.79.11-1.36.24-1.69.39-.33.14-.58.35-.76.63-.18.28-.27.58-.27.92,0,.52.2.95.59,1.29.39.34.96.52,1.71.52s1.41-.16,1.99-.49c.58-.33,1.01-.77,1.28-1.34.21-.44.31-1.08.31-1.93v-.71Z"/>
    <path class="cls-17" d="M1005.97,553.87l-.21-1.82c.42.12.79.17,1.11.17.43,0,.77-.07,1.03-.21.26-.14.47-.34.63-.6.12-.19.32-.67.59-1.44.04-.11.09-.26.17-.47l-4.33-11.43h2.08l2.37,6.61c.31.84.58,1.72.83,2.64.22-.89.49-1.75.79-2.6l2.44-6.65h1.93l-4.34,11.6c-.47,1.25-.83,2.12-1.08,2.59-.34.64-.74,1.1-1.18,1.4-.44.3-.97.45-1.59.45-.37,0-.79-.08-1.25-.24Z"/>
    <path class="cls-17" d="M1017.06,549.47v-11.41h1.73v1.6c.36-.56.83-1.01,1.43-1.35.59-.34,1.27-.51,2.03-.51.84,0,1.54.18,2.08.53.54.35.92.84,1.14,1.47.9-1.33,2.08-2,3.52-2,1.13,0,2,.31,2.61.94.61.63.91,1.59.91,2.9v7.83h-1.92v-7.19c0-.77-.06-1.33-.19-1.67-.12-.34-.35-.61-.68-.82-.33-.21-.72-.31-1.16-.31-.8,0-1.47.27-2,.8-.53.53-.79,1.39-.79,2.56v6.63h-1.93v-7.41c0-.86-.16-1.5-.47-1.93s-.83-.64-1.55-.64c-.54,0-1.05.14-1.51.43-.46.29-.8.71-1,1.26-.21.55-.31,1.35-.31,2.38v5.92h-1.93Z"/>
    <path class="cls-17" d="M1043.19,545.8l2,.25c-.32,1.17-.9,2.07-1.75,2.72s-1.94.97-3.27.97c-1.67,0-2.99-.51-3.97-1.54-.98-1.03-1.47-2.47-1.47-4.32s.49-3.41,1.48-4.47c.99-1.06,2.27-1.59,3.85-1.59s2.77.52,3.74,1.56c.97,1.04,1.45,2.5,1.45,4.38,0,.11,0,.29-.01.52h-8.51c.07,1.25.43,2.21,1.06,2.88s1.43,1,2.38,1c.71,0,1.31-.19,1.82-.56.5-.37.9-.97,1.19-1.78ZM1036.84,542.67h6.37c-.09-.96-.33-1.68-.73-2.16-.62-.74-1.41-1.12-2.4-1.12-.89,0-1.63.3-2.24.89-.61.59-.94,1.39-1,2.39Z"/>
    <path class="cls-17" d="M1047.62,549.47v-11.41h1.74v1.62c.84-1.25,2.05-1.88,3.63-1.88.69,0,1.32.12,1.9.37.58.25,1.01.57,1.29.97.29.4.49.88.6,1.43.07.36.11.98.11,1.88v7.01h-1.93v-6.94c0-.79-.08-1.38-.23-1.77-.15-.39-.42-.7-.8-.93-.38-.23-.83-.35-1.35-.35-.82,0-1.53.26-2.13.78-.6.52-.9,1.51-.9,2.98v6.23h-1.93Z"/>
    <path class="cls-17" d="M1064.07,547.74l.28,1.71c-.54.12-1.03.17-1.46.17-.7,0-1.25-.11-1.63-.33-.39-.22-.66-.51-.82-.88-.16-.36-.24-1.12-.24-2.28v-6.56h-1.42v-1.5h1.42v-2.83l1.92-1.16v3.99h1.94v1.5h-1.94v6.67c0,.55.03.91.1,1.06.07.16.18.28.33.38.15.09.38.14.66.14.21,0,.5-.02.85-.07Z"/>
    <path class="cls-17" d="M997.11,575.87v-15.75h5.94c1.05,0,1.84.05,2.4.15.77.13,1.42.38,1.94.74s.94.87,1.26,1.52c.32.65.48,1.37.48,2.15,0,1.34-.43,2.47-1.28,3.4s-2.39,1.39-4.62,1.39h-4.04v6.4h-2.08ZM999.2,567.61h4.07c1.35,0,2.3-.25,2.87-.75s.85-1.21.85-2.12c0-.66-.17-1.22-.5-1.69-.33-.47-.77-.78-1.32-.93-.35-.09-1-.14-1.94-.14h-4.03v5.63Z"/>
    <path class="cls-17" d="M1018.98,574.47c-.72.61-1.41,1.04-2.07,1.29-.66.25-1.37.38-2.13.38-1.25,0-2.22-.31-2.89-.92-.67-.61-1.01-1.39-1.01-2.35,0-.56.13-1.07.38-1.53.25-.46.59-.83,1-1.11.41-.28.88-.49,1.39-.63.38-.1.95-.2,1.72-.29,1.56-.19,2.71-.41,3.45-.67,0-.26.01-.43.01-.5,0-.79-.18-1.34-.55-1.67-.49-.44-1.23-.66-2.2-.66-.91,0-1.58.16-2.01.48-.43.32-.75.88-.96,1.69l-1.89-.26c.17-.81.46-1.46.85-1.96s.96-.88,1.71-1.15c.75-.27,1.61-.4,2.59-.4s1.77.12,2.37.34c.61.23,1.06.52,1.34.87s.49.79.6,1.32c.06.33.1.92.1,1.78v2.58c0,1.8.04,2.93.12,3.41.08.48.25.93.49,1.37h-2.02c-.2-.4-.33-.87-.39-1.41ZM1018.82,570.15c-.7.29-1.75.53-3.16.73-.79.11-1.36.24-1.69.39s-.58.35-.76.63c-.18.28-.27.58-.27.92,0,.52.2.95.59,1.29.39.34.96.52,1.71.52s1.41-.16,1.99-.49c.58-.33,1.01-.77,1.28-1.34.21-.44.31-1.08.31-1.93v-.71Z"/>
    <path class="cls-17" d="M1023.42,576.82l1.88.28c.08.58.3,1,.66,1.27.48.36,1.13.54,1.97.54.9,0,1.59-.18,2.07-.54.49-.36.82-.86.99-1.5.1-.39.15-1.22.14-2.48-.84,1-1.9,1.49-3.16,1.49-1.57,0-2.78-.57-3.64-1.7-.86-1.13-1.29-2.49-1.29-4.07,0-1.09.2-2.09.59-3.01s.96-1.63,1.71-2.13c.75-.5,1.63-.75,2.64-.75,1.35,0,2.46.54,3.33,1.63v-1.38h1.78v9.86c0,1.78-.18,3.04-.54,3.78-.36.74-.93,1.33-1.72,1.76-.78.43-1.75.64-2.89.64-1.36,0-2.46-.31-3.3-.92-.84-.61-1.24-1.53-1.21-2.77ZM1025.02,569.96c0,1.5.3,2.59.89,3.28s1.34,1.03,2.23,1.03,1.63-.34,2.23-1.03c.6-.68.9-1.76.9-3.22s-.31-2.45-.93-3.16c-.62-.71-1.37-1.06-2.24-1.06s-1.59.35-2.19,1.05c-.6.7-.9,1.73-.9,3.11Z"/>
    <path class="cls-17" d="M1043.82,572.2l2,.25c-.32,1.17-.9,2.07-1.75,2.72s-1.94.97-3.27.97c-1.67,0-2.99-.51-3.97-1.54-.98-1.03-1.47-2.47-1.47-4.32s.49-3.41,1.48-4.47c.99-1.06,2.27-1.59,3.85-1.59s2.77.52,3.74,1.56,1.45,2.5,1.45,4.38c0,.11,0,.29-.01.52h-8.51c.07,1.25.43,2.21,1.06,2.88s1.43,1,2.38,1c.71,0,1.31-.19,1.82-.56.5-.37.9-.97,1.19-1.78ZM1037.47,569.07h6.37c-.09-.96-.33-1.68-.73-2.16-.62-.74-1.41-1.12-2.4-1.12-.89,0-1.63.3-2.24.89-.61.59-.94,1.39-1,2.38Z"/>
  </g>
  <rect class="cls-16" x="1626.22" y="415" width="114.71" height="114.71" rx="19.94" ry="19.94"/>
  <text class="cls-8" transform="translate(1660.04 976.47)"><tspan x="0" y="0">APIs</tspan></text>
  <rect class="cls-16" x="1626.22" y="837" width="114.71" height="114.71" rx="19.94" ry="19.94"/>
  <g>
    <path class="cls-17" d="M1127.82,549.47v-13.89h-5.19v-1.86h12.48v1.86h-5.21v13.89h-2.08Z"/>
    <path class="cls-17" d="M1137,549.47v-15.75h1.93v5.65c.9-1.05,2.04-1.57,3.42-1.57.84,0,1.58.17,2.2.5s1.07.79,1.34,1.38c.27.59.4,1.44.4,2.56v7.23h-1.93v-7.23c0-.97-.21-1.67-.63-2.11-.42-.44-1.01-.66-1.78-.66-.57,0-1.11.15-1.62.45-.5.3-.86.7-1.08,1.21-.21.51-.32,1.21-.32,2.11v6.24h-1.93Z"/>
    <path class="cls-17" d="M1156.68,548.07c-.72.61-1.41,1.04-2.07,1.29-.66.25-1.37.38-2.13.38-1.25,0-2.22-.31-2.89-.92s-1.01-1.39-1.01-2.35c0-.56.13-1.07.38-1.53.25-.46.59-.83,1-1.11.41-.28.88-.49,1.39-.63.38-.1.95-.2,1.72-.29,1.56-.19,2.71-.41,3.45-.67,0-.26.01-.43.01-.5,0-.79-.18-1.34-.55-1.67-.49-.44-1.23-.66-2.2-.66-.91,0-1.58.16-2.01.48-.43.32-.75.88-.96,1.69l-1.89-.26c.17-.81.46-1.46.85-1.96.39-.5.96-.88,1.71-1.15s1.61-.4,2.59-.4,1.77.11,2.37.34c.61.23,1.06.52,1.34.86.29.35.49.79.6,1.32.06.33.1.92.1,1.78v2.58c0,1.8.04,2.93.12,3.41.08.48.25.93.49,1.37h-2.02c-.2-.4-.33-.87-.39-1.41ZM1156.52,543.75c-.7.29-1.75.53-3.16.73-.79.11-1.36.24-1.69.39-.33.14-.58.35-.76.63-.18.28-.27.58-.27.92,0,.52.2.95.59,1.29.39.34.96.52,1.71.52s1.41-.16,1.99-.49c.58-.33,1.01-.77,1.28-1.34.21-.44.31-1.08.31-1.93v-.71Z"/>
    <path class="cls-17" d="M1161.47,549.47v-11.41h1.74v1.62c.84-1.25,2.05-1.88,3.63-1.88.69,0,1.32.12,1.9.37.58.25,1.01.57,1.29.97.29.4.49.88.6,1.43.07.36.11.98.11,1.88v7.01h-1.93v-6.94c0-.79-.08-1.38-.23-1.77-.15-.39-.42-.7-.8-.93-.38-.23-.83-.35-1.35-.35-.82,0-1.53.26-2.13.78-.6.52-.9,1.51-.9,2.98v6.23h-1.93Z"/>
    <path class="cls-17" d="M1173.72,549.47v-15.75h1.93v8.98l4.58-4.64h2.5l-4.36,4.23,4.8,7.18h-2.38l-3.77-5.83-1.36,1.31v4.52h-1.93Z"/>
    <path class="cls-17" d="M1195.11,549.47v-6.67l-6.07-9.08h2.54l3.1,4.75c.57.89,1.11,1.78,1.6,2.66.47-.82,1.05-1.75,1.72-2.78l3.05-4.63h2.43l-6.28,9.08v6.67h-2.08Z"/>
    <path class="cls-17" d="M1202.36,543.77c0-2.11.59-3.68,1.76-4.69.98-.84,2.18-1.27,3.59-1.27,1.57,0,2.85.51,3.85,1.54,1,1.03,1.49,2.45,1.49,4.26,0,1.47-.22,2.62-.66,3.46-.44.84-1.08,1.5-1.92,1.96-.84.46-1.76.7-2.76.7-1.6,0-2.89-.51-3.87-1.54-.98-1.02-1.48-2.5-1.48-4.43ZM1204.34,543.77c0,1.46.32,2.55.96,3.28s1.44,1.09,2.41,1.09,1.76-.37,2.4-1.1.96-1.84.96-3.34c0-1.41-.32-2.48-.96-3.21-.64-.73-1.44-1.09-2.39-1.09s-1.77.36-2.41,1.08c-.64.72-.96,1.82-.96,3.28Z"/>
    <path class="cls-17" d="M1222.79,549.47v-1.68c-.89,1.29-2.09,1.93-3.62,1.93-.67,0-1.3-.13-1.88-.39-.58-.26-1.02-.58-1.3-.97-.28-.39-.48-.87-.6-1.43-.08-.38-.12-.98-.12-1.8v-7.07h1.93v6.33c0,1.01.04,1.69.12,2.04.12.51.38.91.77,1.2s.88.44,1.46.44,1.12-.15,1.63-.45c.51-.3.87-.7,1.08-1.21.21-.51.32-1.25.32-2.23v-6.11h1.93v11.41h-1.73Z"/>
    <path class="cls-17" d="M1150.11,575.87v-15.75h5.94c1.05,0,1.84.05,2.4.15.77.13,1.42.38,1.94.74s.94.87,1.26,1.52c.32.65.48,1.37.48,2.15,0,1.34-.43,2.47-1.28,3.4s-2.39,1.39-4.62,1.39h-4.04v6.4h-2.08ZM1152.2,567.61h4.07c1.35,0,2.3-.25,2.87-.75s.85-1.21.85-2.12c0-.66-.17-1.22-.5-1.69-.33-.47-.77-.78-1.32-.93-.35-.09-1-.14-1.94-.14h-4.03v5.63Z"/>
    <path class="cls-17" d="M1171.98,574.47c-.72.61-1.41,1.04-2.07,1.29-.66.25-1.37.38-2.13.38-1.25,0-2.22-.31-2.89-.92-.67-.61-1.01-1.39-1.01-2.35,0-.56.13-1.07.38-1.53.25-.46.59-.83,1-1.11.41-.28.88-.49,1.39-.63.38-.1.95-.2,1.72-.29,1.56-.19,2.71-.41,3.45-.67,0-.26.01-.43.01-.5,0-.79-.18-1.34-.55-1.67-.49-.44-1.23-.66-2.2-.66-.91,0-1.58.16-2.01.48-.43.32-.75.88-.96,1.69l-1.89-.26c.17-.81.46-1.46.85-1.96s.96-.88,1.71-1.15c.75-.27,1.61-.4,2.59-.4s1.77.12,2.37.34c.61.23,1.06.52,1.34.87s.49.79.6,1.32c.06.33.1.92.1,1.78v2.58c0,1.8.04,2.93.12,3.41.08.48.25.93.49,1.37h-2.02c-.2-.4-.33-.87-.39-1.41ZM1171.82,570.15c-.7.29-1.75.53-3.16.73-.79.11-1.36.24-1.69.39s-.58.35-.76.63c-.18.28-.27.58-.27.92,0,.52.2.95.59,1.29.39.34.96.52,1.71.52s1.41-.16,1.99-.49c.58-.33,1.01-.77,1.28-1.34.21-.44.31-1.08.31-1.93v-.71Z"/>
    <path class="cls-17" d="M1176.42,576.82l1.88.28c.08.58.3,1,.66,1.27.48.36,1.13.54,1.97.54.9,0,1.59-.18,2.07-.54.49-.36.82-.86.99-1.5.1-.39.15-1.22.14-2.48-.84,1-1.9,1.49-3.16,1.49-1.57,0-2.78-.57-3.64-1.7-.86-1.13-1.29-2.49-1.29-4.07,0-1.09.2-2.09.59-3.01s.96-1.63,1.71-2.13c.75-.5,1.63-.75,2.64-.75,1.35,0,2.46.54,3.33,1.63v-1.38h1.78v9.86c0,1.78-.18,3.04-.54,3.78-.36.74-.93,1.33-1.72,1.76-.78.43-1.75.64-2.89.64-1.36,0-2.46-.31-3.3-.92-.84-.61-1.24-1.53-1.21-2.77ZM1178.02,569.96c0,1.5.3,2.59.89,3.28s1.34,1.03,2.23,1.03,1.63-.34,2.23-1.03c.6-.68.9-1.76.9-3.22s-.31-2.45-.93-3.16c-.62-.71-1.37-1.06-2.24-1.06s-1.59.35-2.19,1.05c-.6.7-.9,1.73-.9,3.11Z"/>
    <path class="cls-17" d="M1196.82,572.2l2,.25c-.32,1.17-.9,2.07-1.75,2.72s-1.94.97-3.27.97c-1.67,0-2.99-.51-3.97-1.54-.98-1.03-1.47-2.47-1.47-4.32s.49-3.41,1.48-4.47c.99-1.06,2.27-1.59,3.85-1.59s2.77.52,3.74,1.56,1.45,2.5,1.45,4.38c0,.11,0,.29-.01.52h-8.51c.07,1.25.43,2.21,1.06,2.88s1.43,1,2.38,1c.71,0,1.31-.19,1.82-.56.5-.37.9-.97,1.19-1.78ZM1190.47,569.07h6.37c-.09-.96-.33-1.68-.73-2.16-.62-.74-1.41-1.12-2.4-1.12-.89,0-1.63.3-2.24.89-.61.59-.94,1.39-1,2.38Z"/>
  </g>
  <rect class="cls-18" x="964.22" y="651" width="114.71" height="114.71" rx="19.94" ry="19.94"/>
  <rect class="cls-20" x="484.46" y="657" width="114.71" height="114.71" rx="19.94" ry="19.94"/>
  <text class="cls-8" transform="translate(494.14 796.47)"><tspan x="0" y="0">Customer</tspan></text>
  <text class="cls-8" transform="translate(959.96 790.47)"><tspan x="0" y="0">Online Store</tspan></text>
  <rect class="cls-6" x="782" y="815" width="474" height="222" rx="21.07" ry="21.07"/>
  <rect class="cls-18" x="1113.62" y="835" width="114.71" height="114.71" rx="19.94" ry="19.94"/>
  <rect class="cls-18" x="964.22" y="835" width="114.71" height="114.71" rx="19.94" ry="19.94"/>
  <g>
    <path class="cls-17" d="M979.39,974.47v-15.75h5.94c1.05,0,1.84.05,2.4.15.77.13,1.42.38,1.94.74s.94.87,1.26,1.52c.32.65.48,1.37.48,2.15,0,1.34-.43,2.47-1.28,3.4s-2.39,1.39-4.62,1.39h-4.04v6.4h-2.08ZM981.48,966.21h4.07c1.35,0,2.3-.25,2.87-.75.57-.5.85-1.21.85-2.12,0-.66-.17-1.22-.5-1.69-.33-.47-.77-.78-1.32-.93-.35-.09-1-.14-1.94-.14h-4.03v5.63Z"/>
    <path class="cls-17" d="M1001.26,973.07c-.72.61-1.41,1.04-2.07,1.29-.66.25-1.37.38-2.13.38-1.25,0-2.22-.31-2.89-.92s-1.01-1.39-1.01-2.35c0-.56.13-1.07.38-1.53.25-.46.59-.83,1-1.11.41-.28.88-.49,1.39-.63.38-.1.95-.2,1.72-.29,1.56-.19,2.71-.41,3.45-.67,0-.26.01-.43.01-.5,0-.79-.18-1.34-.55-1.67-.49-.44-1.23-.65-2.2-.65-.91,0-1.58.16-2.01.48-.43.32-.75.88-.96,1.69l-1.89-.26c.17-.81.46-1.46.85-1.96s.96-.88,1.71-1.15,1.61-.4,2.59-.4,1.77.12,2.37.34c.61.23,1.06.52,1.34.87s.49.79.6,1.32c.06.33.1.92.1,1.78v2.58c0,1.8.04,2.93.12,3.41.08.48.25.93.49,1.37h-2.02c-.2-.4-.33-.87-.39-1.41ZM1001.1,968.75c-.7.29-1.75.53-3.16.73-.79.11-1.36.24-1.69.39-.33.14-.58.35-.76.63-.18.28-.27.58-.27.92,0,.52.2.95.59,1.29.39.34.96.52,1.71.52s1.41-.16,1.99-.49c.58-.33,1.01-.77,1.28-1.34.21-.44.31-1.08.31-1.93v-.71Z"/>
    <path class="cls-17" d="M1005.97,978.87l-.21-1.82c.42.12.79.17,1.11.17.43,0,.77-.07,1.03-.21.26-.14.47-.34.63-.6.12-.19.32-.67.59-1.44.04-.11.09-.26.17-.47l-4.33-11.43h2.08l2.37,6.61c.31.84.58,1.72.83,2.64.22-.89.49-1.75.79-2.6l2.44-6.65h1.93l-4.34,11.6c-.47,1.25-.83,2.12-1.08,2.59-.34.64-.74,1.1-1.18,1.4-.44.3-.97.45-1.59.45-.37,0-.79-.08-1.25-.24Z"/>
    <path class="cls-17" d="M1017.06,974.47v-11.41h1.73v1.6c.36-.56.83-1.01,1.43-1.35.59-.34,1.27-.51,2.03-.51.84,0,1.54.18,2.08.53.54.35.92.84,1.14,1.47.9-1.33,2.08-2,3.52-2,1.13,0,2,.31,2.61.94.61.63.91,1.59.91,2.9v7.83h-1.92v-7.19c0-.77-.06-1.33-.19-1.67-.12-.34-.35-.61-.68-.82-.33-.21-.72-.31-1.16-.31-.8,0-1.47.27-2,.8s-.79,1.39-.79,2.56v6.63h-1.93v-7.41c0-.86-.16-1.5-.47-1.93s-.83-.64-1.55-.64c-.54,0-1.05.14-1.51.43-.46.29-.8.71-1,1.26-.21.55-.31,1.35-.31,2.38v5.92h-1.93Z"/>
    <path class="cls-17" d="M1043.19,970.8l2,.25c-.32,1.17-.9,2.07-1.75,2.72s-1.94.97-3.27.97c-1.67,0-2.99-.51-3.97-1.54-.98-1.03-1.47-2.47-1.47-4.32s.49-3.41,1.48-4.47c.99-1.06,2.27-1.59,3.85-1.59s2.77.52,3.74,1.56c.97,1.04,1.45,2.5,1.45,4.38,0,.11,0,.29-.01.52h-8.51c.07,1.25.43,2.21,1.06,2.88s1.43,1,2.38,1c.71,0,1.31-.19,1.82-.56.5-.37.9-.97,1.19-1.78ZM1036.84,967.67h6.37c-.09-.96-.33-1.68-.73-2.16-.62-.74-1.41-1.12-2.4-1.12-.89,0-1.63.3-2.24.89-.61.59-.94,1.39-1,2.38Z"/>
    <path class="cls-17" d="M1047.62,974.47v-11.41h1.74v1.62c.84-1.25,2.05-1.88,3.63-1.88.69,0,1.32.12,1.9.37.58.25,1.01.57,1.29.97.29.4.49.88.6,1.43.07.36.11.99.11,1.88v7.01h-1.93v-6.94c0-.79-.08-1.38-.23-1.77-.15-.39-.42-.7-.8-.93-.38-.23-.83-.35-1.35-.35-.82,0-1.53.26-2.13.79-.6.52-.9,1.51-.9,2.97v6.23h-1.93Z"/>
    <path class="cls-17" d="M1064.07,972.74l.28,1.71c-.54.12-1.03.17-1.46.17-.7,0-1.25-.11-1.63-.33-.39-.22-.66-.51-.82-.88-.16-.36-.24-1.12-.24-2.28v-6.56h-1.42v-1.5h1.42v-2.82l1.92-1.16v3.98h1.94v1.5h-1.94v6.67c0,.55.03.91.1,1.06.07.16.18.28.33.38.15.09.38.14.66.14.21,0,.5-.02.85-.07Z"/>
    <path class="cls-17" d="M997.11,1000.87v-15.75h5.94c1.05,0,1.84.05,2.4.15.77.13,1.42.38,1.94.74s.94.87,1.26,1.52c.32.65.48,1.37.48,2.15,0,1.34-.43,2.47-1.28,3.4s-2.39,1.39-4.62,1.39h-4.04v6.4h-2.08ZM999.2,992.61h4.07c1.35,0,2.3-.25,2.87-.75s.85-1.21.85-2.12c0-.66-.17-1.22-.5-1.69-.33-.47-.77-.78-1.32-.93-.35-.09-1-.14-1.94-.14h-4.03v5.63Z"/>
    <path class="cls-17" d="M1018.98,999.47c-.72.61-1.41,1.04-2.07,1.29-.66.25-1.37.38-2.13.38-1.25,0-2.22-.31-2.89-.92-.67-.61-1.01-1.39-1.01-2.35,0-.56.13-1.07.38-1.53.25-.46.59-.83,1-1.11.41-.28.88-.49,1.39-.63.38-.1.95-.2,1.72-.29,1.56-.19,2.71-.41,3.45-.67,0-.26.01-.43.01-.5,0-.79-.18-1.34-.55-1.67-.49-.44-1.23-.66-2.2-.66-.91,0-1.58.16-2.01.48-.43.32-.75.88-.96,1.69l-1.89-.26c.17-.81.46-1.46.85-1.96s.96-.88,1.71-1.15c.75-.27,1.61-.4,2.59-.4s1.77.12,2.37.34c.61.23,1.06.52,1.34.87s.49.79.6,1.32c.06.33.1.92.1,1.78v2.58c0,1.8.04,2.93.12,3.41.08.48.25.93.49,1.37h-2.02c-.2-.4-.33-.87-.39-1.41ZM1018.82,995.15c-.7.29-1.75.53-3.16.73-.79.11-1.36.24-1.69.39s-.58.35-.76.63c-.18.28-.27.58-.27.92,0,.52.2.95.59,1.29.39.34.96.52,1.71.52s1.41-.16,1.99-.49c.58-.33,1.01-.77,1.28-1.34.21-.44.31-1.08.31-1.93v-.71Z"/>
    <path class="cls-17" d="M1023.42,1001.82l1.88.28c.08.58.3,1,.66,1.27.48.36,1.13.54,1.97.54.9,0,1.59-.18,2.07-.54.49-.36.82-.86.99-1.5.1-.39.15-1.22.14-2.48-.84,1-1.9,1.49-3.16,1.49-1.57,0-2.78-.57-3.64-1.7-.86-1.13-1.29-2.49-1.29-4.07,0-1.09.2-2.09.59-3.01s.96-1.63,1.71-2.13c.75-.5,1.63-.75,2.64-.75,1.35,0,2.46.54,3.33,1.63v-1.38h1.78v9.86c0,1.78-.18,3.04-.54,3.78-.36.74-.93,1.33-1.72,1.76-.78.43-1.75.64-2.89.64-1.36,0-2.46-.31-3.3-.92-.84-.61-1.24-1.53-1.21-2.77ZM1025.02,994.96c0,1.5.3,2.59.89,3.28s1.34,1.03,2.23,1.03,1.63-.34,2.23-1.03c.6-.68.9-1.76.9-3.22s-.31-2.45-.93-3.16c-.62-.71-1.37-1.06-2.24-1.06s-1.59.35-2.19,1.05c-.6.7-.9,1.73-.9,3.11Z"/>
    <path class="cls-17" d="M1043.82,997.2l2,.25c-.32,1.17-.9,2.07-1.75,2.72s-1.94.97-3.27.97c-1.67,0-2.99-.51-3.97-1.54-.98-1.03-1.47-2.47-1.47-4.32s.49-3.41,1.48-4.47c.99-1.06,2.27-1.59,3.85-1.59s2.77.52,3.74,1.56,1.45,2.5,1.45,4.38c0,.11,0,.29-.01.52h-8.51c.07,1.25.43,2.21,1.06,2.88s1.43,1,2.38,1c.71,0,1.31-.19,1.82-.56.5-.37.9-.97,1.19-1.78ZM1037.47,994.07h6.37c-.09-.96-.33-1.68-.73-2.16-.62-.74-1.41-1.12-2.4-1.12-.89,0-1.63.3-2.24.89-.61.59-.94,1.39-1,2.38Z"/>
  </g>
  <rect class="cls-18" x="813.22" y="835" width="114.71" height="114.71" rx="19.94" ry="19.94"/>
  <g>
    <path class="cls-17" d="M836.57,968.95l2.08.53c-.44,1.71-1.22,3.02-2.36,3.92-1.14.9-2.52,1.35-4.16,1.35s-3.08-.35-4.14-1.04c-1.06-.69-1.87-1.69-2.43-3-.55-1.31-.83-2.72-.83-4.22,0-1.64.31-3.07.94-4.29.63-1.22,1.52-2.15,2.68-2.78,1.16-.63,2.43-.95,3.82-.95,1.58,0,2.9.4,3.97,1.2,1.07.8,1.82,1.93,2.25,3.38l-2.05.48c-.37-1.15-.9-1.98-1.59-2.5-.69-.52-1.57-.78-2.62-.78-1.21,0-2.22.29-3.04.87-.81.58-1.38,1.36-1.71,2.34s-.49,1.99-.49,3.02c0,1.34.2,2.51.59,3.51.39,1,1,1.75,1.82,2.24s1.71.74,2.67.74c1.17,0,2.16-.34,2.96-1.01.81-.67,1.36-1.67,1.64-3Z"/>
    <path class="cls-17" d="M840.97,974.47v-15.75h1.93v5.65c.9-1.04,2.04-1.57,3.42-1.57.84,0,1.58.17,2.2.5s1.07.79,1.34,1.38c.27.59.4,1.44.4,2.56v7.23h-1.93v-7.23c0-.97-.21-1.67-.63-2.11-.42-.44-1.01-.66-1.78-.66-.57,0-1.11.15-1.62.45-.5.3-.86.7-1.08,1.21-.21.51-.32,1.21-.32,2.11v6.24h-1.93Z"/>
    <path class="cls-17" d="M861.02,970.8l2,.25c-.32,1.17-.9,2.07-1.75,2.72s-1.94.97-3.27.97c-1.67,0-2.99-.51-3.97-1.54-.98-1.03-1.47-2.47-1.47-4.32s.49-3.41,1.48-4.47c.99-1.06,2.27-1.59,3.85-1.59s2.77.52,3.74,1.56c.97,1.04,1.45,2.5,1.45,4.38,0,.11,0,.29-.01.52h-8.51c.07,1.25.43,2.21,1.06,2.88s1.43,1,2.38,1c.71,0,1.31-.19,1.82-.56.5-.37.9-.97,1.19-1.78ZM854.67,967.67h6.37c-.09-.96-.33-1.68-.73-2.16-.62-.74-1.41-1.12-2.4-1.12-.89,0-1.63.3-2.24.89-.61.59-.94,1.39-1,2.38Z"/>
    <path class="cls-17" d="M872.89,970.29l1.9.25c-.21,1.31-.74,2.34-1.59,3.08-.86.74-1.91,1.11-3.15,1.11-1.56,0-2.82-.51-3.76-1.53-.95-1.02-1.42-2.48-1.42-4.39,0-1.23.2-2.31.61-3.23s1.03-1.62,1.86-2.08c.83-.46,1.74-.69,2.72-.69,1.24,0,2.25.31,3.04.94.79.63,1.29,1.52,1.51,2.67l-1.88.29c-.18-.77-.5-1.34-.95-1.73-.46-.39-1-.58-1.65-.58-.97,0-1.77.35-2.37,1.05s-.91,1.8-.91,3.31.29,2.65.88,3.34c.59.69,1.35,1.04,2.3,1.04.76,0,1.39-.23,1.9-.7.51-.47.83-1.18.97-2.15Z"/>
    <path class="cls-17" d="M876.45,974.47v-15.75h1.93v8.98l4.58-4.64h2.5l-4.36,4.23,4.8,7.18h-2.38l-3.77-5.83-1.36,1.31v4.52h-1.93Z"/>
    <path class="cls-17" d="M886.72,968.77c0-2.11.59-3.68,1.76-4.7.98-.84,2.18-1.27,3.59-1.27,1.57,0,2.85.51,3.85,1.54,1,1.03,1.49,2.45,1.49,4.26,0,1.47-.22,2.62-.66,3.46-.44.84-1.08,1.5-1.92,1.96-.84.46-1.76.7-2.76.7-1.6,0-2.89-.51-3.87-1.54-.98-1.02-1.48-2.5-1.48-4.43ZM888.71,968.77c0,1.46.32,2.55.96,3.28s1.44,1.09,2.41,1.09,1.76-.37,2.4-1.1.96-1.84.96-3.34c0-1.41-.32-2.48-.96-3.21-.64-.73-1.44-1.09-2.39-1.09s-1.77.36-2.41,1.08c-.64.72-.96,1.82-.96,3.28Z"/>
    <path class="cls-17" d="M907.16,974.47v-1.68c-.89,1.29-2.09,1.93-3.62,1.93-.67,0-1.3-.13-1.88-.39-.58-.26-1.02-.58-1.3-.97-.28-.39-.48-.87-.6-1.43-.08-.38-.12-.98-.12-1.8v-7.07h1.93v6.33c0,1.01.04,1.69.12,2.04.12.51.38.91.77,1.2s.88.44,1.46.44,1.12-.15,1.63-.45c.51-.3.87-.7,1.08-1.21.21-.51.32-1.25.32-2.23v-6.11h1.93v11.41h-1.73Z"/>
    <path class="cls-17" d="M916.14,972.74l.28,1.71c-.54.12-1.03.17-1.46.17-.7,0-1.25-.11-1.63-.33-.39-.22-.66-.51-.82-.88-.16-.36-.24-1.12-.24-2.28v-6.56h-1.42v-1.5h1.42v-2.82l1.92-1.16v3.98h1.94v1.5h-1.94v6.67c0,.55.03.91.1,1.06.07.16.18.28.33.38.15.09.38.14.66.14.21,0,.5-.02.85-.07Z"/>
    <path class="cls-17" d="M846.11,1000.87v-15.75h5.94c1.05,0,1.84.05,2.4.15.77.13,1.42.38,1.94.74s.94.87,1.26,1.52c.32.65.48,1.37.48,2.15,0,1.34-.43,2.47-1.28,3.4s-2.39,1.39-4.62,1.39h-4.04v6.4h-2.08ZM848.2,992.61h4.07c1.35,0,2.3-.25,2.87-.75s.85-1.21.85-2.12c0-.66-.17-1.22-.5-1.69-.33-.47-.77-.78-1.32-.93-.35-.09-1-.14-1.94-.14h-4.03v5.63Z"/>
    <path class="cls-17" d="M867.98,999.47c-.72.61-1.41,1.04-2.07,1.29-.66.25-1.37.38-2.13.38-1.25,0-2.22-.31-2.89-.92-.67-.61-1.01-1.39-1.01-2.35,0-.56.13-1.07.38-1.53.25-.46.59-.83,1-1.11.41-.28.88-.49,1.39-.63.38-.1.95-.2,1.72-.29,1.56-.19,2.71-.41,3.45-.67,0-.26.01-.43.01-.5,0-.79-.18-1.34-.55-1.67-.49-.44-1.23-.66-2.2-.66-.91,0-1.58.16-2.01.48-.43.32-.75.88-.96,1.69l-1.89-.26c.17-.81.46-1.46.85-1.96s.96-.88,1.71-1.15c.75-.27,1.61-.4,2.59-.4s1.77.12,2.37.34c.61.23,1.06.52,1.34.87s.49.79.6,1.32c.06.33.1.92.1,1.78v2.58c0,1.8.04,2.93.12,3.41.08.48.25.93.49,1.37h-2.02c-.2-.4-.33-.87-.39-1.41ZM867.82,995.15c-.7.29-1.75.53-3.16.73-.79.11-1.36.24-1.69.39s-.58.35-.76.63c-.18.28-.27.58-.27.92,0,.52.2.95.59,1.29.39.34.96.52,1.71.52s1.41-.16,1.99-.49c.58-.33,1.01-.77,1.28-1.34.21-.44.31-1.08.31-1.93v-.71Z"/>
    <path class="cls-17" d="M872.42,1001.82l1.88.28c.08.58.3,1,.66,1.27.48.36,1.13.54,1.97.54.9,0,1.59-.18,2.07-.54.49-.36.82-.86.99-1.5.1-.39.15-1.22.14-2.48-.84,1-1.9,1.49-3.16,1.49-1.57,0-2.78-.57-3.64-1.7-.86-1.13-1.29-2.49-1.29-4.07,0-1.09.2-2.09.59-3.01s.96-1.63,1.71-2.13c.75-.5,1.63-.75,2.64-.75,1.35,0,2.46.54,3.33,1.63v-1.38h1.78v9.86c0,1.78-.18,3.04-.54,3.78-.36.74-.93,1.33-1.72,1.76-.78.43-1.75.64-2.89.64-1.36,0-2.46-.31-3.3-.92-.84-.61-1.24-1.53-1.21-2.77ZM874.02,994.96c0,1.5.3,2.59.89,3.28s1.34,1.03,2.23,1.03,1.63-.34,2.23-1.03c.6-.68.9-1.76.9-3.22s-.31-2.45-.93-3.16c-.62-.71-1.37-1.06-2.24-1.06s-1.59.35-2.19,1.05c-.6.7-.9,1.73-.9,3.11Z"/>
    <path class="cls-17" d="M892.82,997.2l2,.25c-.32,1.17-.9,2.07-1.75,2.72s-1.94.97-3.27.97c-1.67,0-2.99-.51-3.97-1.54-.98-1.03-1.47-2.47-1.47-4.32s.49-3.41,1.48-4.47c.99-1.06,2.27-1.59,3.85-1.59s2.77.52,3.74,1.56,1.45,2.5,1.45,4.38c0,.11,0,.29-.01.52h-8.51c.07,1.25.43,2.21,1.06,2.88s1.43,1,2.38,1c.71,0,1.31-.19,1.82-.56.5-.37.9-.97,1.19-1.78ZM886.47,994.07h6.37c-.09-.96-.33-1.68-.73-2.16-.62-.74-1.41-1.12-2.4-1.12-.89,0-1.63.3-2.24.89-.61.59-.94,1.39-1,2.38Z"/>
  </g>
  <g>
    <path class="cls-17" d="M1127.82,974.47v-13.89h-5.19v-1.86h12.48v1.86h-5.21v13.89h-2.08Z"/>
    <path class="cls-17" d="M1137,974.47v-15.75h1.93v5.65c.9-1.04,2.04-1.57,3.42-1.57.84,0,1.58.17,2.2.5s1.07.79,1.34,1.38c.27.59.4,1.44.4,2.56v7.23h-1.93v-7.23c0-.97-.21-1.67-.63-2.11-.42-.44-1.01-.66-1.78-.66-.57,0-1.11.15-1.62.45-.5.3-.86.7-1.08,1.21-.21.51-.32,1.21-.32,2.11v6.24h-1.93Z"/>
    <path class="cls-17" d="M1156.68,973.07c-.72.61-1.41,1.04-2.07,1.29-.66.25-1.37.38-2.13.38-1.25,0-2.22-.31-2.89-.92s-1.01-1.39-1.01-2.35c0-.56.13-1.07.38-1.53.25-.46.59-.83,1-1.11.41-.28.88-.49,1.39-.63.38-.1.95-.2,1.72-.29,1.56-.19,2.71-.41,3.45-.67,0-.26.01-.43.01-.5,0-.79-.18-1.34-.55-1.67-.49-.44-1.23-.65-2.2-.65-.91,0-1.58.16-2.01.48-.43.32-.75.88-.96,1.69l-1.89-.26c.17-.81.46-1.46.85-1.96s.96-.88,1.71-1.15,1.61-.4,2.59-.4,1.77.12,2.37.34c.61.23,1.06.52,1.34.87s.49.79.6,1.32c.06.33.1.92.1,1.78v2.58c0,1.8.04,2.93.12,3.41.08.48.25.93.49,1.37h-2.02c-.2-.4-.33-.87-.39-1.41ZM1156.52,968.75c-.7.29-1.75.53-3.16.73-.79.11-1.36.24-1.69.39-.33.14-.58.35-.76.63-.18.28-.27.58-.27.92,0,.52.2.95.59,1.29.39.34.96.52,1.71.52s1.41-.16,1.99-.49c.58-.33,1.01-.77,1.28-1.34.21-.44.31-1.08.31-1.93v-.71Z"/>
    <path class="cls-17" d="M1161.47,974.47v-11.41h1.74v1.62c.84-1.25,2.05-1.88,3.63-1.88.69,0,1.32.12,1.9.37.58.25,1.01.57,1.29.97.29.4.49.88.6,1.43.07.36.11.99.11,1.88v7.01h-1.93v-6.94c0-.79-.08-1.38-.23-1.77-.15-.39-.42-.7-.8-.93-.38-.23-.83-.35-1.35-.35-.82,0-1.53.26-2.13.79-.6.52-.9,1.51-.9,2.97v6.23h-1.93Z"/>
    <path class="cls-17" d="M1173.72,974.47v-15.75h1.93v8.98l4.58-4.64h2.5l-4.36,4.23,4.8,7.18h-2.38l-3.77-5.83-1.36,1.31v4.52h-1.93Z"/>
    <path class="cls-17" d="M1195.11,974.47v-6.67l-6.07-9.08h2.54l3.1,4.75c.57.89,1.11,1.78,1.6,2.66.47-.82,1.05-1.75,1.72-2.78l3.05-4.63h2.43l-6.28,9.08v6.67h-2.08Z"/>
    <path class="cls-17" d="M1202.36,968.77c0-2.11.59-3.68,1.76-4.7.98-.84,2.18-1.27,3.59-1.27,1.57,0,2.85.51,3.85,1.54,1,1.03,1.49,2.45,1.49,4.26,0,1.47-.22,2.62-.66,3.46-.44.84-1.08,1.5-1.92,1.96-.84.46-1.76.7-2.76.7-1.6,0-2.89-.51-3.87-1.54-.98-1.02-1.48-2.5-1.48-4.43ZM1204.34,968.77c0,1.46.32,2.55.96,3.28s1.44,1.09,2.41,1.09,1.76-.37,2.4-1.1.96-1.84.96-3.34c0-1.41-.32-2.48-.96-3.21-.64-.73-1.44-1.09-2.39-1.09s-1.77.36-2.41,1.08c-.64.72-.96,1.82-.96,3.28Z"/>
    <path class="cls-17" d="M1222.79,974.47v-1.68c-.89,1.29-2.09,1.93-3.62,1.93-.67,0-1.3-.13-1.88-.39-.58-.26-1.02-.58-1.3-.97-.28-.39-.48-.87-.6-1.43-.08-.38-.12-.98-.12-1.8v-7.07h1.93v6.33c0,1.01.04,1.69.12,2.04.12.51.38.91.77,1.2s.88.44,1.46.44,1.12-.15,1.63-.45c.51-.3.87-.7,1.08-1.21.21-.51.32-1.25.32-2.23v-6.11h1.93v11.41h-1.73Z"/>
    <path class="cls-17" d="M1150.11,1000.87v-15.75h5.94c1.05,0,1.84.05,2.4.15.77.13,1.42.38,1.94.74s.94.87,1.26,1.52c.32.65.48,1.37.48,2.15,0,1.34-.43,2.47-1.28,3.4s-2.39,1.39-4.62,1.39h-4.04v6.4h-2.08ZM1152.2,992.61h4.07c1.35,0,2.3-.25,2.87-.75s.85-1.21.85-2.12c0-.66-.17-1.22-.5-1.69-.33-.47-.77-.78-1.32-.93-.35-.09-1-.14-1.94-.14h-4.03v5.63Z"/>
    <path class="cls-17" d="M1171.98,999.47c-.72.61-1.41,1.04-2.07,1.29-.66.25-1.37.38-2.13.38-1.25,0-2.22-.31-2.89-.92-.67-.61-1.01-1.39-1.01-2.35,0-.56.13-1.07.38-1.53.25-.46.59-.83,1-1.11.41-.28.88-.49,1.39-.63.38-.1.95-.2,1.72-.29,1.56-.19,2.71-.41,3.45-.67,0-.26.01-.43.01-.5,0-.79-.18-1.34-.55-1.67-.49-.44-1.23-.66-2.2-.66-.91,0-1.58.16-2.01.48-.43.32-.75.88-.96,1.69l-1.89-.26c.17-.81.46-1.46.85-1.96s.96-.88,1.71-1.15c.75-.27,1.61-.4,2.59-.4s1.77.12,2.37.34c.61.23,1.06.52,1.34.87s.49.79.6,1.32c.06.33.1.92.1,1.78v2.58c0,1.8.04,2.93.12,3.41.08.48.25.93.49,1.37h-2.02c-.2-.4-.33-.87-.39-1.41ZM1171.82,995.15c-.7.29-1.75.53-3.16.73-.79.11-1.36.24-1.69.39s-.58.35-.76.63c-.18.28-.27.58-.27.92,0,.52.2.95.59,1.29.39.34.96.52,1.71.52s1.41-.16,1.99-.49c.58-.33,1.01-.77,1.28-1.34.21-.44.31-1.08.31-1.93v-.71Z"/>
    <path class="cls-17" d="M1176.42,1001.82l1.88.28c.08.58.3,1,.66,1.27.48.36,1.13.54,1.97.54.9,0,1.59-.18,2.07-.54.49-.36.82-.86.99-1.5.1-.39.15-1.22.14-2.48-.84,1-1.9,1.49-3.16,1.49-1.57,0-2.78-.57-3.64-1.7-.86-1.13-1.29-2.49-1.29-4.07,0-1.09.2-2.09.59-3.01s.96-1.63,1.71-2.13c.75-.5,1.63-.75,2.64-.75,1.35,0,2.46.54,3.33,1.63v-1.38h1.78v9.86c0,1.78-.18,3.04-.54,3.78-.36.74-.93,1.33-1.72,1.76-.78.43-1.75.64-2.89.64-1.36,0-2.46-.31-3.3-.92-.84-.61-1.24-1.53-1.21-2.77ZM1178.02,994.96c0,1.5.3,2.59.89,3.28s1.34,1.03,2.23,1.03,1.63-.34,2.23-1.03c.6-.68.9-1.76.9-3.22s-.31-2.45-.93-3.16c-.62-.71-1.37-1.06-2.24-1.06s-1.59.35-2.19,1.05c-.6.7-.9,1.73-.9,3.11Z"/>
    <path class="cls-17" d="M1196.82,997.2l2,.25c-.32,1.17-.9,2.07-1.75,2.72s-1.94.97-3.27.97c-1.67,0-2.99-.51-3.97-1.54-.98-1.03-1.47-2.47-1.47-4.32s.49-3.41,1.48-4.47c.99-1.06,2.27-1.59,3.85-1.59s2.77.52,3.74,1.56,1.45,2.5,1.45,4.38c0,.11,0,.29-.01.52h-8.51c.07,1.25.43,2.21,1.06,2.88s1.43,1,2.38,1c.71,0,1.31-.19,1.82-.56.5-.37.9-.97,1.19-1.78ZM1190.47,994.07h6.37c-.09-.96-.33-1.68-.73-2.16-.62-.74-1.41-1.12-2.4-1.12-.89,0-1.63.3-2.24.89-.61.59-.94,1.39-1,2.38Z"/>
  </g>
  <text class="cls-11" transform="translate(938.68 1062.42)"><tspan x="0" y="0">WEBSITE PLUGIN</tspan></text>
  <rect class="cls-4" x="52.5" y="134.5" width="1889.5" height="237"/>
  <rect class="cls-4" x="52.5" y="371.5" width="1889.5" height="237"/>
  <rect class="cls-4" x="52.5" y="608.5" width="1889.5" height="491"/>
  <g>
    <path class="cls-16" d="M168.19,230.87v-20.76h4.19v8.17h8.21v-8.17h4.19v20.76h-4.19v-9.08h-8.21v9.08h-4.19Z"/>
    <path class="cls-16" d="M188.27,220.62c0-2.11.32-3.89.95-5.32.47-1.06,1.12-2.01,1.93-2.85s1.71-1.46,2.68-1.87c1.29-.55,2.79-.82,4.47-.82,3.06,0,5.51.95,7.34,2.85s2.75,4.54,2.75,7.92-.91,5.97-2.73,7.87c-1.82,1.89-4.26,2.84-7.31,2.84s-5.54-.94-7.36-2.82c-1.82-1.88-2.73-4.48-2.73-7.78ZM192.58,220.48c0,2.35.54,4.13,1.63,5.35,1.09,1.21,2.46,1.82,4.13,1.82s3.04-.6,4.11-1.81c1.07-1.2,1.61-3.01,1.61-5.42s-.52-4.15-1.56-5.32-2.43-1.76-4.16-1.76-3.12.59-4.18,1.78c-1.06,1.18-1.59,2.97-1.59,5.36Z"/>
    <path class="cls-16" d="M210.61,224.12l4.08-.4c.25,1.37.74,2.37,1.49,3.02.75.64,1.76.96,3.04.96,1.35,0,2.37-.29,3.05-.86.68-.57,1.03-1.24,1.03-2,0-.49-.14-.91-.43-1.25-.29-.34-.79-.64-1.51-.9-.49-.17-1.61-.47-3.36-.91-2.25-.56-3.82-1.24-4.73-2.05-1.27-1.14-1.91-2.53-1.91-4.18,0-1.06.3-2.05.9-2.97.6-.92,1.46-1.62,2.59-2.1s2.49-.72,4.08-.72c2.61,0,4.57.57,5.88,1.71,1.32,1.14,2.01,2.67,2.07,4.57l-4.19.18c-.18-1.07-.56-1.83-1.15-2.3-.59-.47-1.47-.7-2.65-.7s-2.17.25-2.86.75c-.44.32-.67.75-.67,1.29,0,.49.21.91.62,1.26.53.44,1.81.91,3.85,1.39s3.55.98,4.52,1.49c.98.51,1.74,1.22,2.29,2.11.55.89.83,1.99.83,3.31,0,1.19-.33,2.3-.99,3.34s-1.6,1.81-2.8,2.31c-1.21.51-2.71.76-4.52.76-2.62,0-4.64-.61-6.05-1.82-1.41-1.21-2.25-2.98-2.52-5.3Z"/>
    <path class="cls-16" d="M235.69,230.87v-17.25h-6.16v-3.51h16.5v3.51h-6.14v17.25h-4.19Z"/>
    <path class="cls-16" d="M248.73,230.87v-20.76h15.39v3.51h-11.2v4.6h10.42v3.5h-10.42v5.65h11.6v3.5h-15.79Z"/>
    <path class="cls-16" d="M268.06,210.11h7.66c1.73,0,3.04.13,3.95.4,1.22.36,2.26,1,3.13,1.91.87.92,1.53,2.04,1.98,3.36.45,1.33.68,2.96.68,4.91,0,1.71-.21,3.18-.64,4.42-.52,1.51-1.26,2.73-2.22,3.67-.73.71-1.71,1.26-2.95,1.66-.93.29-2.16.44-3.71.44h-7.89v-20.76ZM272.25,213.62v13.75h3.13c1.17,0,2.02-.07,2.54-.2.68-.17,1.24-.46,1.69-.86s.81-1.07,1.1-2c.28-.93.43-2.2.43-3.8s-.14-2.84-.43-3.7-.68-1.53-1.19-2.01-1.16-.81-1.94-.98c-.58-.13-1.73-.2-3.44-.2h-1.88Z"/>
    <path class="cls-16" d="M106.39,265.67v-20.76h6.73c2.55,0,4.21.1,4.98.31,1.19.31,2.19.99,2.99,2.03.8,1.04,1.2,2.39,1.2,4.04,0,1.27-.23,2.35-.69,3.21-.46.87-1.05,1.55-1.76,2.05-.71.5-1.44.82-2.17.98-1,.2-2.45.3-4.35.3h-2.73v7.83h-4.19ZM110.58,248.42v5.89h2.29c1.65,0,2.76-.11,3.31-.33.56-.22.99-.56,1.31-1.02s.47-1,.47-1.61c0-.76-.22-1.38-.67-1.87s-1.01-.8-1.69-.92c-.5-.09-1.5-.14-3.02-.14h-2.03Z"/>
    <path class="cls-16" d="M142.3,265.67h-4.56l-1.81-4.72h-8.3l-1.71,4.72h-4.45l8.09-20.76h4.43l8.31,20.76ZM134.58,257.46l-2.86-7.7-2.8,7.7h5.66Z"/>
    <path class="cls-16" d="M147.32,265.67v-8.74l-7.6-12.02h4.91l4.88,8.21,4.79-8.21h4.83l-7.63,12.05v8.71h-4.18Z"/>
    <path class="cls-16" d="M161.21,265.67v-20.76h15.39v3.51h-11.2v4.6h10.42v3.5h-10.42v5.65h11.6v3.5h-15.79Z"/>
    <path class="cls-16" d="M180.49,265.67v-20.76h6.27l3.77,14.16,3.72-14.16h6.29v20.76h-3.89v-16.34l-4.12,16.34h-4.04l-4.11-16.34v16.34h-3.89Z"/>
    <path class="cls-16" d="M204.71,265.67v-20.76h15.39v3.51h-11.2v4.6h10.42v3.5h-10.42v5.65h11.6v3.5h-15.79Z"/>
    <path class="cls-16" d="M224.09,265.67v-20.76h4.08l8.5,13.86v-13.86h3.89v20.76h-4.21l-8.37-13.54v13.54h-3.89Z"/>
    <path class="cls-16" d="M249.67,265.67v-17.25h-6.16v-3.51h16.5v3.51h-6.14v17.25h-4.19Z"/>
    <path class="cls-16" d="M270.76,265.67v-20.76h6.73c2.55,0,4.21.1,4.98.31,1.19.31,2.19.99,2.99,2.03.8,1.04,1.2,2.39,1.2,4.04,0,1.27-.23,2.35-.69,3.21-.46.87-1.05,1.55-1.76,2.05-.71.5-1.44.82-2.17.98-1,.2-2.45.3-4.35.3h-2.73v7.83h-4.19ZM274.95,248.42v5.89h2.29c1.65,0,2.76-.11,3.31-.33.56-.22.99-.56,1.31-1.02s.47-1,.47-1.61c0-.76-.22-1.38-.67-1.87s-1.01-.8-1.69-.92c-.5-.09-1.5-.14-3.02-.14h-2.03Z"/>
    <path class="cls-16" d="M306.67,265.67h-4.56l-1.81-4.72h-8.3l-1.71,4.72h-4.45l8.09-20.76h4.43l8.31,20.76ZM298.96,257.46l-2.86-7.7-2.8,7.7h5.66Z"/>
    <path class="cls-16" d="M318.55,258.04v-3.5h9.03v8.27c-.88.85-2.15,1.6-3.82,2.24-1.67.65-3.35.97-5.06.97-2.17,0-4.06-.46-5.68-1.37-1.61-.91-2.83-2.21-3.64-3.91-.81-1.69-1.22-3.54-1.22-5.53,0-2.16.45-4.08,1.36-5.76s2.23-2.97,3.98-3.87c1.33-.69,2.99-1.03,4.97-1.03,2.58,0,4.59.54,6.04,1.62,1.45,1.08,2.38,2.57,2.8,4.48l-4.16.78c-.29-1.02-.84-1.82-1.65-2.41-.81-.59-1.82-.88-3.02-.88-1.83,0-3.29.58-4.37,1.74s-1.62,2.88-1.62,5.17c0,2.46.55,4.31,1.64,5.54,1.09,1.23,2.53,1.85,4.3,1.85.88,0,1.76-.17,2.64-.52.88-.34,1.64-.76,2.27-1.25v-2.63h-4.8Z"/>
    <path class="cls-16" d="M331.45,265.67v-20.76h15.39v3.51h-11.2v4.6h10.42v3.5h-10.42v5.65h11.6v3.5h-15.79Z"/>
    <path class="cls-16" d="M195.69,306.57h-2.73c-1.44-2.18-2.54-4.45-3.3-6.8-.76-2.35-1.13-4.63-1.13-6.83,0-2.73.47-5.31,1.4-7.75.81-2.11,1.84-4.06,3.09-5.85h2.72c-1.29,2.86-2.18,5.29-2.67,7.3-.49,2.01-.73,4.13-.73,6.38,0,1.55.14,3.13.43,4.76s.68,3.17,1.18,4.63c.33.96.91,2.35,1.74,4.15Z"/>
    <path class="cls-16" d="M198.79,300.47v-20.76h4.19v8.17h8.21v-8.17h4.19v20.76h-4.19v-9.08h-8.21v9.08h-4.19Z"/>
    <path class="cls-16" d="M219.72,300.47v-20.76h6.73c2.55,0,4.21.1,4.98.31,1.19.31,2.19.99,2.99,2.03.8,1.04,1.2,2.39,1.2,4.04,0,1.27-.23,2.35-.69,3.21-.46.87-1.05,1.55-1.76,2.05-.71.5-1.44.82-2.17.98-1,.2-2.45.3-4.35.3h-2.73v7.83h-4.19ZM223.91,283.22v5.89h2.29c1.65,0,2.76-.11,3.31-.33.56-.22.99-.56,1.31-1.02s.47-1,.47-1.61c0-.76-.22-1.38-.67-1.87s-1.01-.8-1.69-.92c-.5-.09-1.5-.14-3.02-.14h-2.03Z"/>
    <path class="cls-16" d="M239.06,300.47v-20.76h6.73c2.55,0,4.21.1,4.98.31,1.19.31,2.19.99,2.99,2.03.8,1.04,1.2,2.39,1.2,4.04,0,1.27-.23,2.35-.69,3.21-.46.87-1.05,1.55-1.76,2.05-.71.5-1.44.82-2.17.98-1,.2-2.45.3-4.35.3h-2.73v7.83h-4.19ZM243.26,283.22v5.89h2.29c1.65,0,2.76-.11,3.31-.33.56-.22.99-.56,1.31-1.02s.47-1,.47-1.61c0-.76-.22-1.38-.67-1.87s-1.01-.8-1.69-.92c-.5-.09-1.5-.14-3.02-.14h-2.03Z"/>
    <path class="cls-16" d="M257.28,306.57c.78-1.68,1.34-2.97,1.66-3.87s.62-1.93.89-3.1c.27-1.17.48-2.28.61-3.33.13-1.05.2-2.13.2-3.24,0-2.25-.24-4.37-.72-6.38-.48-2.01-1.37-4.44-2.66-7.3h2.7c1.43,2.03,2.53,4.18,3.32,6.46s1.18,4.58,1.18,6.92c0,1.97-.31,4.09-.93,6.34-.71,2.53-1.87,5.03-3.5,7.49h-2.75Z"/>
  </g>
  <text class="cls-15" transform="translate(194.25 499.87)"><tspan x="0" y="0">APIs</tspan></text>
  <text class="cls-15" transform="translate(96.92 851.87)"><tspan x="0" y="0">WEBSITE PLUGINS </tspan></text>
  <g>
    <line class="cls-2" x1="1263.5" y1="251.37" x2="1428.18" y2="251.37"/>
    <polygon class="cls-22" points="1423.51 267.33 1451.14 251.37 1423.51 235.41 1423.51 267.33"/>
  </g>
  <g>
    <line class="cls-2" x1="638.12" y1="251.37" x2="770.18" y2="251.37"/>
    <polygon class="cls-22" points="765.51 267.33 793.14 251.37 765.51 235.41 765.51 267.33"/>
  </g>
  <g>
    <line class="cls-2" x1="638.12" y1="490.37" x2="770.18" y2="490.37"/>
    <polygon class="cls-22" points="765.51 506.33 793.14 490.37 765.51 474.41 765.51 506.33"/>
  </g>
  <g>
    <line class="cls-2" x1="638.12" y1="718.37" x2="770.18" y2="718.37"/>
    <polygon class="cls-22" points="765.51 734.33 793.14 718.37 765.51 702.41 765.51 734.33"/>
  </g>
  <g>
    <line class="cls-2" x1="1257.02" y1="444.33" x2="1428.18" y2="444.33"/>
    <polygon class="cls-22" points="1423.51 460.29 1451.14 444.33 1423.51 428.38 1423.51 460.29"/>
  </g>
  <g>
    <line class="cls-2" x1="1272.23" y1="872.37" x2="1428.18" y2="872.37"/>
    <polygon class="cls-22" points="1423.51 888.33 1451.14 872.37 1423.51 856.41 1423.51 888.33"/>
  </g>
  <g>
    <line class="cls-2" x1="1441.12" y1="484.41" x2="1269.96" y2="484.41"/>
    <polygon class="cls-22" points="1274.63 468.45 1247 484.41 1274.63 500.36 1274.63 468.45"/>
  </g>
  <g>
    <line class="cls-2" x1="1441.91" y1="912.37" x2="1285.96" y2="912.37"/>
    <polygon class="cls-22" points="1290.63 896.41 1263 912.37 1290.63 928.33 1290.63 896.41"/>
  </g>
  <g>
    <line class="cls-2" x1="1443.14" y1="713.37" x2="1270.46" y2="713.37"/>
    <polygon class="cls-22" points="1275.13 697.41 1247.5 713.37 1275.13 729.33 1275.13 697.41"/>
  </g>
  <g>
    <path class="cls-5" d="M552.78,221.81c0,6.77-5.78,12.2-12.68,11.6-6.12-.53-10.6-6.06-10.6-12.2v-3.45c0-6.14,4.48-11.67,10.6-12.2,6.9-.6,12.68,4.82,12.68,11.6v4.66Z"/>
    <path class="cls-5" d="M547.26,244.18l-3.89,4.65c-1.16,1.39-3.3,1.39-4.46,0l-3.89-4.65c-1.62-1.94-4.34-2.68-6.65-1.67-10.38,4.52-17.9,14.38-19.07,26.11-.17,1.73,1.17,3.24,2.91,3.24h57.88c1.73,0,3.08-1.51,2.91-3.24-1.18-11.73-8.7-21.59-19.08-26.11-2.32-1.01-5.03-.27-6.65,1.67Z"/>
  </g>
  <g>
    <path class="cls-5" d="M552.78,457.81c0,6.77-5.78,12.2-12.68,11.6-6.12-.53-10.6-6.06-10.6-12.2v-3.45c0-6.14,4.48-11.67,10.6-12.2,6.9-.6,12.68,4.82,12.68,11.6v4.66Z"/>
    <path class="cls-5" d="M547.26,480.18l-3.89,4.65c-1.16,1.39-3.3,1.39-4.46,0l-3.89-4.65c-1.62-1.94-4.34-2.68-6.65-1.67-10.38,4.52-17.9,14.38-19.07,26.11-.17,1.73,1.17,3.24,2.91,3.24h57.88c1.73,0,3.08-1.51,2.91-3.24-1.18-11.73-8.7-21.59-19.08-26.11-2.32-1.01-5.03-.27-6.65,1.67Z"/>
  </g>
  <g>
    <path class="cls-5" d="M552.78,697.81c0,6.77-5.78,12.2-12.68,11.6-6.12-.53-10.6-6.06-10.6-12.2v-3.45c0-6.14,4.48-11.67,10.6-12.2,6.9-.6,12.68,4.82,12.68,11.6v4.66Z"/>
    <path class="cls-5" d="M547.26,720.18l-3.89,4.65c-1.16,1.39-3.3,1.39-4.46,0l-3.89-4.65c-1.62-1.94-4.34-2.68-6.65-1.67-10.38,4.52-17.9,14.38-19.07,26.11-.17,1.73,1.17,3.24,2.91,3.24h57.88c1.73,0,3.08-1.51,2.91-3.24-1.18-11.73-8.7-21.59-19.08-26.11-2.32-1.01-5.03-.27-6.65,1.67Z"/>
  </g>
  <g>
    <path class="cls-5" d="M987.19,201.14h51.99c3.63,0,6.43,3.27,5.81,6.87l-4.3,20.19c-.27,1.41-1.47,2.42-2.89,2.42h-43.24"/>
    <circle class="cls-5" cx="1001.93" cy="251.25" r="5.9"/>
    <circle class="cls-5" cx="1034.35" cy="251.25" r="5.9"/>
    <path class="cls-5" d="M978.35,189.35c5.9,0,5.9,2.95,8.84,11.79l8.84,35.37c.29,1.36.99,2.95,2.38,2.95h41.83"/>
  </g>
  <g>
    <path class="cls-5" d="M846.19,450.14h51.99c3.63,0,6.43,3.27,5.81,6.87l-4.3,20.19c-.27,1.41-1.47,2.42-2.89,2.42h-43.24"/>
    <circle class="cls-5" cx="860.93" cy="500.25" r="5.9"/>
    <circle class="cls-5" cx="893.35" cy="500.25" r="5.9"/>
    <path class="cls-5" d="M837.35,438.35c5.9,0,5.9,2.95,8.84,11.79l8.84,35.37c.29,1.36.99,2.95,2.38,2.95h41.83"/>
  </g>
  <g>
    <path class="cls-5" d="M846.19,872.14h51.99c3.63,0,6.43,3.27,5.81,6.87l-4.3,20.19c-.27,1.41-1.47,2.42-2.89,2.42h-43.24"/>
    <circle class="cls-5" cx="860.93" cy="922.25" r="5.9"/>
    <circle class="cls-5" cx="893.35" cy="922.25" r="5.9"/>
    <path class="cls-5" d="M837.35,860.35c5.9,0,5.9,2.95,8.84,11.79l8.84,35.37c.29,1.36.99,2.95,2.38,2.95h41.83"/>
  </g>
  <g>
    <path class="cls-5" d="M1055.12,697.68c0,3.36-3,6.08-6.69,6.08s-6.69-2.72-6.69-6.08c0,3.36-3,6.08-6.69,6.08s-6.69-2.72-6.69-6.08c0,3.36-3,6.08-6.69,6.08s-6.69-2.72-6.69-6.08c0,3.36-3,6.08-6.69,6.08s-6.69-2.72-6.69-6.08c0,3.36-3,6.08-6.69,6.08s-6.69-2.72-6.69-6.08"/>
    <path class="cls-1" d="M988.21,697.68l6.97-22.13c.37-1.31,1.57-2.21,2.92-2.21h47.12c1.36,0,2.55.9,2.92,2.21l6.97,22.13"/>
    <path class="cls-5" d="M1050.56,703.77v36.5c0,1.68-1.36,3.04-3.04,3.04h-51.71c-1.68,0-3.04-1.36-3.04-3.04v-36.5"/>
    <line class="cls-1" x1="1014.06" y1="700.72" x2="1014.06" y2="743.31"/>
    <line class="cls-1" x1="1007.98" y1="718.97" x2="1007.98" y2="722.01"/>
    <line class="cls-1" x1="1032.31" y1="712.89" x2="1023.19" y2="722.01"/>
    <line class="cls-1" x1="1038.4" y1="718.97" x2="1026.23" y2="731.14"/>
    <line class="cls-1" x1="1041.74" y1="697.68" x2="1038.08" y2="673.35"/>
    <line class="cls-1" x1="1028.36" y1="697.68" x2="1026.1" y2="673.35"/>
    <line class="cls-1" x1="1014.98" y1="697.68" x2="1017.04" y2="673.35"/>
    <line class="cls-1" x1="1001.59" y1="697.68" x2="1005.51" y2="673.35"/>
  </g>
  <g>
    <path class="cls-5" d="M1594.83,251.52h-66.5c-1.75,0-3.17-1.42-3.17-3.17v-53.17c0-2.11,1.72-3.83,3.83-3.83h65.17c2.11,0,3.83,1.72,3.83,3.83v53.17c0,1.75-1.42,3.17-3.17,3.17Z"/>
    <line class="cls-5" x1="1525.17" y1="207.18" x2="1598" y2="207.18"/>
    <circle class="cls-21" cx="1533.08" cy="199.27" r="3.17"/>
    <circle class="cls-21" cx="1542.58" cy="199.27" r="3.17"/>
    <circle class="cls-21" cx="1552.08" cy="199.27" r="3.17"/>
  </g>
  <g>
    <circle class="cls-3" cx="1562.12" cy="234.7" r="8.88"/>
    <path class="cls-3" d="M1555.77,228.49v-7.75c0-3.5,2.84-6.35,6.35-6.35,1.75,0,3.34.71,4.49,1.85,1.14,1.15,1.85,2.74,1.85,4.49v7.75"/>
    <line class="cls-3" x1="1562.12" y1="234.7" x2="1562.12" y2="237.24"/>
    <circle class="cls-21" cx="1562.12" cy="233.43" r="1.9"/>
  </g>
  <g>
    <circle class="cls-5" cx="1170.83" cy="467.26" r="30.17"/>
    <line class="cls-5" x1="1187.88" y1="455.45" x2="1166.9" y2="479.06"/>
    <line class="cls-5" x1="1153.78" y1="468.57" x2="1166.9" y2="479.06"/>
  </g>
  <g>
    <circle class="cls-5" cx="1170.83" cy="892.26" r="30.17"/>
    <line class="cls-5" x1="1187.88" y1="880.45" x2="1166.9" y2="904.06"/>
    <line class="cls-5" x1="1153.78" y1="893.57" x2="1166.9" y2="904.06"/>
  </g>
  <g>
    <circle class="cls-5" cx="1814.83" cy="222.26" r="30.17"/>
    <line class="cls-5" x1="1831.88" y1="210.45" x2="1810.9" y2="234.06"/>
    <line class="cls-5" x1="1797.78" y1="223.57" x2="1810.9" y2="234.06"/>
  </g>
  <g>
    <rect class="cls-5" x="986.81" y="447" width="68.19" height="44.47" rx="1" ry="1"/>
    <rect class="cls-5" x="986.81" y="455.89" width="68.19" height="8.89"/>
    <line class="cls-5" x1="992.74" y1="479.61" x2="1004.6" y2="479.61"/>
    <line class="cls-5" x1="1013.49" y1="479.61" x2="1022.39" y2="479.61"/>
  </g>
  <g>
    <rect class="cls-5" x="986.72" y="869.96" width="68.19" height="44.47" rx="1" ry="1"/>
    <rect class="cls-5" x="986.72" y="878.86" width="68.19" height="8.89"/>
    <line class="cls-5" x1="992.65" y1="902.58" x2="1004.51" y2="902.58"/>
    <line class="cls-5" x1="1013.4" y1="902.58" x2="1022.3" y2="902.58"/>
  </g>
  <g>
    <g>
      <path class="cls-5" d="M1678.12,477.06c-2.95.68-5.75,1.86-8.22,3.45"/>
      <path class="cls-5" d="M1698.13,480.51c-2.48-1.59-5.28-2.77-8.22-3.45"/>
      <path class="cls-5" d="M1709.9,497.05c-.68-2.95-1.86-5.75-3.45-8.22"/>
      <path class="cls-5" d="M1661.58,488.83c-1.59,2.48-2.77,5.28-3.45,8.22"/>
      <path class="cls-5" d="M1697.13,504.64c.1-.54.14-1.12.14-1.7,0-7.36-5.9-13.26-13.26-13.26s-13.26,5.9-13.26,13.26c0,.58.03,1.15.14,1.7"/>
      <polyline class="cls-5" points="1678.12 477.06 1678.12 469.05 1689.91 469.05 1689.91 477.06"/>
      <polyline class="cls-5" points="1698.13 480.51 1703.82 474.79 1712.17 483.14 1706.45 488.83"/>
      <polyline class="cls-5" points="1709.88 497.05 1717.91 497.05 1717.91 504.64"/>
      <polyline class="cls-5" points="1650.11 504.64 1650.11 497.05 1658.15 497.05"/>
      <polyline class="cls-5" points="1661.58 488.83 1655.86 483.14 1664.2 474.79 1669.89 480.51"/>
    </g>
    <path class="cls-5" d="M1645.03,440.23h77.97v63.41c0,.55-.45,1-1,1h-75.97c-.55,0-1-.45-1-1v-63.41h0Z"/>
    <line class="cls-5" x1="1645.03" y1="453.79" x2="1723" y2="453.79"/>
    <circle class="cls-21" cx="1655.2" cy="447.01" r="1.7"/>
    <circle class="cls-21" cx="1661.98" cy="447.01" r="1.7"/>
    <circle class="cls-21" cx="1668.76" cy="447.01" r="1.7"/>
  </g>
  <text class="cls-8" transform="translate(1634.98 787.47)"><tspan x="0" y="0">PLUGINS</tspan></text>
  <rect class="cls-16" x="1626.22" y="648" width="114.71" height="114.71" rx="19.94" ry="19.94"/>
  <g>
    <g>
      <path class="cls-5" d="M1678.12,899.06c-2.95.68-5.75,1.86-8.22,3.45"/>
      <path class="cls-5" d="M1698.13,902.51c-2.48-1.59-5.28-2.77-8.22-3.45"/>
      <path class="cls-5" d="M1709.9,919.05c-.68-2.95-1.86-5.75-3.45-8.22"/>
      <path class="cls-5" d="M1661.58,910.83c-1.59,2.48-2.77,5.28-3.45,8.22"/>
      <path class="cls-5" d="M1697.13,926.64c.1-.54.14-1.12.14-1.7,0-7.36-5.9-13.26-13.26-13.26s-13.26,5.9-13.26,13.26c0,.58.03,1.15.14,1.7"/>
      <polyline class="cls-5" points="1678.12 899.06 1678.12 891.05 1689.91 891.05 1689.91 899.06"/>
      <polyline class="cls-5" points="1698.13 902.51 1703.82 896.79 1712.17 905.14 1706.45 910.83"/>
      <polyline class="cls-5" points="1709.88 919.05 1717.91 919.05 1717.91 926.64"/>
      <polyline class="cls-5" points="1650.11 926.64 1650.11 919.05 1658.15 919.05"/>
      <polyline class="cls-5" points="1661.58 910.83 1655.86 905.14 1664.2 896.79 1669.89 902.51"/>
    </g>
    <path class="cls-5" d="M1645.03,862.23h77.97v63.41c0,.55-.45,1-1,1h-75.97c-.55,0-1-.45-1-1v-63.41h0Z"/>
    <line class="cls-5" x1="1645.03" y1="875.79" x2="1723" y2="875.79"/>
    <circle class="cls-21" cx="1655.2" cy="869.01" r="1.7"/>
    <circle class="cls-21" cx="1661.98" cy="869.01" r="1.7"/>
    <circle class="cls-21" cx="1668.76" cy="869.01" r="1.7"/>
  </g>
  <text class="cls-9" transform="translate(1322.64 239.25)"><tspan x="0" y="0">Link</tspan></text>
  <text class="cls-10" transform="translate(1304.6 432.25)"><tspan x="0" y="0">Request</tspan></text>
  <text class="cls-10" transform="translate(1296.04 510.25)"><tspan x="0" y="0">Response</tspan></text>
  <text class="cls-10" transform="translate(1296.72 695)"><tspan x="0" y="0">Download</tspan></text>
  <text class="cls-10" transform="translate(1308.18 860.82)"><tspan x="0" y="0">Request</tspan></text>
  <text class="cls-10" transform="translate(1300.62 936.82)"><tspan x="0" y="0">Response</tspan></text>
  <g>
    <path class="cls-21" d="M1712.68,684.99h-36.99c-.73,0-1.32-.59-1.32-1.32s.59-1.32,1.32-1.32h36.99c.73,0,1.32.59,1.32,1.32s-.59,1.32-1.32,1.32Z"/>
    <path class="cls-21" d="M1662.48,684.99h-10.57c-.73,0-1.32-.59-1.32-1.32s.59-1.32,1.32-1.32h10.57c.73,0,1.32.59,1.32,1.32s-.59,1.32-1.32,1.32Z"/>
    <path class="cls-21" d="M1712.68,706.13h-7.93c-.73,0-1.32-.59-1.32-1.32s.59-1.32,1.32-1.32h7.93c.73,0,1.32.59,1.32,1.32s-.59,1.32-1.32,1.32Z"/>
    <path class="cls-21" d="M1691.54,706.13h-39.63c-.73,0-1.32-.59-1.32-1.32s.59-1.32,1.32-1.32h39.63c.73,0,1.32.59,1.32,1.32s-.59,1.32-1.32,1.32Z"/>
    <path class="cls-21" d="M1712.68,727.27h-44.92c-.73,0-1.32-.59-1.32-1.32s.59-1.32,1.32-1.32h44.92c.73,0,1.32.59,1.32,1.32s-.59,1.32-1.32,1.32Z"/>
    <path class="cls-21" d="M1654.55,727.27h-2.64c-.73,0-1.32-.59-1.32-1.32s.59-1.32,1.32-1.32h2.64c.73,0,1.32.59,1.32,1.32s-.59,1.32-1.32,1.32Z"/>
    <path class="cls-21" d="M1666.44,692.92c-2.91,0-5.28-2.37-5.28-5.28v-7.93c0-2.91,2.37-5.28,5.28-5.28s5.28,2.37,5.28,5.28v7.93c0,2.91-2.37,5.28-5.28,5.28ZM1666.44,677.06c-1.46,0-2.64,1.18-2.64,2.64v7.93c0,1.46,1.18,2.64,2.64,2.64s2.64-1.18,2.64-2.64v-7.93c0-1.46-1.18-2.64-2.64-2.64Z"/>
    <path class="cls-21" d="M1695.5,714.05c-2.91,0-5.28-2.37-5.28-5.28v-7.93c0-2.91,2.37-5.28,5.28-5.28s5.28,2.37,5.28,5.28v7.93c0,2.91-2.37,5.28-5.28,5.28ZM1695.5,698.2c-1.46,0-2.64,1.18-2.64,2.64v7.93c0,1.46,1.18,2.64,2.64,2.64s2.64-1.18,2.64-2.64v-7.93c0-1.46-1.18-2.64-2.64-2.64Z"/>
    <path class="cls-21" d="M1658.51,735.19c-2.91,0-5.28-2.37-5.28-5.28v-7.93c0-2.91,2.37-5.28,5.28-5.28s5.28,2.37,5.28,5.28v7.93c0,2.91-2.37,5.28-5.28,5.28ZM1658.51,719.34c-1.46,0-2.64,1.18-2.64,2.64v7.93c0,1.46,1.18,2.64,2.64,2.64s2.64-1.18,2.64-2.64v-7.93c0-1.46-1.18-2.64-2.64-2.64Z"/>
  </g>
</svg>