<?xml version="1.0" encoding="UTF-8"?>
<svg id="Layer_1" data-name="Layer 1" xmlns="http://www.w3.org/2000/svg" viewBox="0 0 1997 1907">
  <defs>
    <style>
      .cls-1 {
        fill: #ff6057;
      }

      .cls-2 {
        fill-rule: evenodd;
      }

      .cls-2, .cls-3, .cls-4 {
        fill: #fff;
      }

      .cls-5, .cls-3 {
        stroke: #000;
      }

      .cls-5, .cls-3, .cls-6, .cls-7 {
        stroke-miterlimit: 4.03;
        stroke-width: 1.01px;
      }

      .cls-5, .cls-8, .cls-9, .cls-10, .cls-6, .cls-7, .cls-11 {
        fill: none;
      }

      .cls-12 {
        fill: #28c941;
      }

      .cls-13 {
        fill: #ff9300;
      }

      .cls-14 {
        fill: #aaa;
      }

      .cls-15 {
        fill: #4d4d4d;
      }

      .cls-16 {
        fill: #ccc;
      }

      .cls-17 {
        font-size: 32px;
      }

      .cls-17, .cls-18 {
        font-family: KozGoPr6N-Regular-83pv-RKSJ-H, 'Kozuka Gothic Pr6N';
      }

      .cls-19 {
        fill: #ddd;
      }

      .cls-20 {
        fill: #5185ec;
      }

      .cls-21 {
        fill: #1ba9e3;
      }

      .cls-18 {
        font-size: 40.39px;
      }

      .cls-18, .cls-22, .cls-23 {
        isolation: isolate;
      }

      .cls-24 {
        fill: #ffbd2d;
      }

      .cls-8 {
        stroke-miterlimit: 10;
      }

      .cls-8, .cls-9 {
        stroke: #fff;
        stroke-linecap: round;
        stroke-width: 3px;
      }

      .cls-9 {
        stroke-linejoin: round;
      }

      .cls-25 {
        fill: #bbb;
      }

      .cls-10, .cls-6 {
        stroke: #4d4d4d;
      }

      .cls-10, .cls-11 {
        stroke-miterlimit: 3.02;
        stroke-width: .76px;
      }

      .cls-26 {
        fill: #f2f2f2;
      }

      .cls-22 {
        font-size: 58.7px;
      }

      .cls-22, .cls-23 {
        font-family: Helvetica, Helvetica;
      }

      .cls-27 {
        letter-spacing: -.1em;
      }

      .cls-28 {
        letter-spacing: -.11em;
      }

      .cls-29 {
        letter-spacing: -.08em;
      }

      .cls-30 {
        letter-spacing: -.18em;
      }

      .cls-31 {
        letter-spacing: -.12em;
      }

      .cls-32 {
        letter-spacing: -.15em;
      }

      .cls-33 {
        letter-spacing: -.02em;
      }

      .cls-34 {
        letter-spacing: -.02em;
      }

      .cls-23 {
        font-size: 60.58px;
      }

      .cls-35 {
        letter-spacing: -.05em;
      }

      .cls-36 {
        letter-spacing: -.05em;
      }

      .cls-37 {
        letter-spacing: -.03em;
      }

      .cls-38 {
        letter-spacing: 0em;
      }

      .cls-39 {
        fill: #eee;
      }

      .cls-7, .cls-11 {
        stroke: #d9d9d9;
      }

      .cls-40 {
        fill: #15c;
      }
    </style>
  </defs>
  <rect class="cls-4" x="3" width="1992" height="1907"/>
  <g>
    <rect class="cls-4" x="130" y="36.22" width="841.36" height="673.09" rx="5.04" ry="5.04"/>
    <rect class="cls-26" x="130" y="36.22" width="841.36" height="53.85" rx="5.04" ry="5.04"/>
    <path class="cls-26" d="M146.83,73.24h807.71c9.29,0,16.83,3.77,16.83,8.41h0c0,4.65-7.53,8.41-16.83,8.41H146.83c-9.29,0-16.83-3.77-16.83-8.41h0c0-4.65,7.53-8.41,16.83-8.41Z"/>
    <rect class="cls-6" x="130" y="36.22" width="841.36" height="673.09" rx="5.04" ry="5.04"/>
    <circle class="cls-1" cx="163.65" cy="63.14" r="10.1"/>
    <circle class="cls-24" cx="197.31" cy="63.14" r="10.1"/>
    <circle class="cls-12" cx="230.96" cy="63.14" r="10.1"/>
    <path class="cls-40" d="M218.73,112.62h-62.58v7.86h62.58v-7.86ZM222.55,151.7v-7.78l-4.05-19.69h-62.58l-4.05,19.69v7.78h4.05v23.5h39.12v-23.5h15.66v23.5h7.79v-23.5h4.05ZM187.25,167.34h-23.53v-15.64h23.53v15.64Z"/>
    <text class="cls-18" transform="translate(237.69 160.74)"><tspan x="0" y="0">加盟</tspan><tspan class="cls-37" x="80.77" y="0">店</tspan><tspan class="cls-28" x="119.95" y="0">シ</tspan><tspan class="cls-36" x="155.89" y="0">ス</tspan><tspan class="cls-29" x="194.26" y="0">テ</tspan><tspan class="cls-33" x="231.41" y="0">ム</tspan></text>
    <path class="cls-16" d="M901.42,156.58c-2.01,0-3.73,1.73-3.73,3.74s1.62,3.78,3.73,3.78,3.77-1.73,3.77-3.78-1.72-3.74-3.77-3.74ZM890.08,126.41v3.74h3.73l6.82,14.33-2.55,4.57c-.29.5-.5,1.12-.5,1.84,0,2.02,1.72,3.74,3.73,3.74h22.51v-3.74h-21.79c-.29,0-.5-.22-.5-.5l.11-.22,1.72-3.06h13.97c1.44,0,2.66-.79,3.23-1.91l6.71-12.2c.11-.29.18-.61.18-.9,0-1.05-.79-1.94-1.9-1.94h-27.75l-1.72-3.74h-6ZM920.17,156.58c-2.01,0-3.73,1.73-3.73,3.74s1.62,3.78,3.73,3.78,3.77-1.73,3.77-3.78-1.72-3.74-3.77-3.74Z"/>
    <line class="cls-7" x1="130" y1="197.76" x2="971.36" y2="197.76"/>
    <path class="cls-14" d="M352.29,376.14c9.19,0,16.74-7.42,16.74-16.78v-84.2c0-9.21-7.55-16.78-16.74-16.78h-134.67c-9.18,0-16.74,7.57-16.74,16.78v84.2c0,9.36,7.56,16.78,16.74,16.78h-33.78v16.78h201.93v-16.78h-33.49ZM217.62,274.72h134.67v84.34h-134.67v-84.34Z"/>
    <g>
      <rect class="cls-14" x="449.72" y="271.8" width="336.55" height="26.92"/>
      <rect class="cls-19" x="449.72" y="322.28" width="454.34" height="20.19"/>
      <rect class="cls-19" x="449.72" y="355.94" width="269.24" height="20.19"/>
      <rect class="cls-39" x="449.72" y="406.42" width="454.34" height="13.46"/>
      <rect class="cls-39" x="449.72" y="433.34" width="454.34" height="13.46"/>
      <rect class="cls-39" x="449.72" y="460.27" width="454.34" height="13.46"/>
      <rect class="cls-39" x="449.72" y="487.19" width="168.27" height="13.46"/>
    </g>
    <g>
      <rect x="308.37" y="574.69" width="484.63" height="80.77" rx="3.02" ry="3.02"/>
      <g>
        <path class="cls-2" d="M445.98,604.93h7.6c1.07,0,2.07.24,2.98.71.91.47,1.64,1.12,2.19,1.95.55.83.82,1.74.82,2.74s-.25,1.87-.75,2.6-1.16,1.29-1.96,1.67v.17c1.02.36,1.84.95,2.47,1.78.63.83.95,1.8.95,2.91.02,1.05-.28,2.09-.86,2.97-.58.87-1.35,1.54-2.32,2.02-.99.48-2.08.73-3.18.72h-7.94v-20.24ZM453.44,613.41c.9,0,1.64-.28,2.19-.85.56-.57.83-1.22.83-1.95s-.27-1.38-.81-1.94c-.54-.56-1.24-.83-2.11-.83h-4.41v5.57h4.3ZM453.92,622.23c.96,0,1.73-.3,2.3-.9.58-.6.86-1.3.86-2.09s-.3-1.51-.89-2.11c-.59-.59-1.39-.89-2.39-.89h-4.66v5.99s4.78,0,4.78,0ZM468.78,625.63c-1.75,0-3.09-.52-4-1.57-.91-1.05-1.37-2.5-1.37-4.37v-8.93h3.11v8.51c0,1.17.28,2.05.83,2.63.56.59,1.29.88,2.19.88.74,0,1.39-.19,1.95-.58s1-.9,1.3-1.54c.3-.65.46-1.35.45-2.06v-7.83h3.11v14.42h-2.94v-1.87h-.17c-.4.68-1.01,1.23-1.84,1.67s-1.71.65-2.63.65ZM484.69,624.38l-5.99-13.63h3.48l4.07,9.81h.11l3.96-9.81h3.42l-8.9,20.52h-3.28l3.14-6.9ZM501.38,610.76h3.36l2.91,10.32h.11l3.25-10.32h3.19l3.22,10.32h.11l2.91-10.32h3.31l-4.61,14.42h-3.28l-3.31-10.35h-.08l-3.28,10.35h-3.22l-4.61-14.42ZM527.86,608.66c-.56.01-1.09-.21-1.48-.61-.4-.39-.62-.93-.61-1.48-.01-.56.21-1.09.61-1.48.39-.4.93-.62,1.48-.61.56-.01,1.09.21,1.48.61.4.39.62.93.61,1.48.01.56-.21,1.09-.61,1.48-.39.4-.93.62-1.48.61ZM526.31,610.76h3.11v14.42h-3.11v-14.42ZM539.36,625.4c-.64,0-1.24-.1-1.81-.31-.51-.18-.98-.45-1.39-.82-.81-.81-1.22-1.91-1.22-3.31v-7.46h-2.52v-2.74h2.52v-4.07h3.11v4.07h3.51v2.74h-3.51v6.78c0,.77.15,1.32.45,1.64.28.38.77.57,1.47.57.32,0,.6-.04.85-.13s.51-.22.79-.41v3.02c-.62.28-1.38.42-2.26.42ZM544.98,604.93h3.11v5.51l-.14,2.21h.14c.41-.68,1.03-1.24,1.85-1.68.82-.44,1.7-.66,2.64-.66,1.75,0,3.09.51,4.01,1.54.92,1.03,1.39,2.43,1.39,4.2v9.13h-3.11v-8.71c0-1.09-.29-1.91-.86-2.46-.58-.55-1.32-.82-2.25-.82-.7,0-1.32.2-1.88.59-.56.4-1.02.94-1.31,1.57-.32.65-.48,1.36-.48,2.08v7.75h-3.11v-20.24Z"/>
        <path class="cls-4" d="M581.87,607.2c-.8.95-2.09,1.7-3.38,1.6-.16-1.29.47-2.66,1.21-3.5.8-.98,2.21-1.68,3.35-1.73.13,1.34-.39,2.66-1.18,3.64M583.04,609.05c-1.86-.11-3.46,1.06-4.35,1.06s-2.25-1.01-3.73-.98c-1.92.03-3.7,1.11-4.68,2.84-2.01,3.46-.52,8.59,1.42,11.4.95,1.4,2.09,2.92,3.6,2.87,1.42-.05,1.99-.93,3.7-.93s2.23.93,3.73.9c1.56-.03,2.54-1.4,3.49-2.79,1.09-1.58,1.53-3.13,1.56-3.21-.03-.03-3.01-1.17-3.03-4.6-.03-2.87,2.35-4.24,2.46-4.32-1.34-1.99-3.43-2.2-4.16-2.25M593.81,605.16v20.92h3.25v-7.15h4.49c4.11,0,6.99-2.82,6.99-6.9s-2.83-6.87-6.88-6.87h-7.85ZM597.06,607.89h3.74c2.82,0,4.43,1.5,4.43,4.15s-1.61,4.16-4.44,4.16h-3.73v-8.3ZM614.47,626.23c2.04,0,3.93-1.03,4.79-2.67h.07v2.51h3.01v-10.41c0-3.02-2.41-4.96-6.13-4.96-3.45,0-6,1.97-6.09,4.68h2.92c.24-1.29,1.44-2.13,3.07-2.13,1.99,0,3.1.93,3.1,2.63v1.15l-4.05.24c-3.77.23-5.81,1.77-5.81,4.45s2.11,4.51,5.12,4.51ZM615.34,623.75c-1.73,0-2.83-.83-2.83-2.11s1.06-2.08,3.09-2.2l3.61-.23v1.18c0,1.96-1.66,3.35-3.86,3.35ZM626.34,631.76c3.17,0,4.66-1.21,5.96-4.87l5.7-15.99h-3.3l-3.82,12.36h-.07l-3.82-12.36h-3.39l5.5,15.23-.3.93c-.5,1.57-1.3,2.17-2.74,2.17-.25,0-.75-.03-.95-.05v2.51c.19.05.99.08,1.23.08Z"/>
      </g>
    </g>
  </g>
  <g>
    <line class="cls-5" x1="500.2" y1="655.46" x2="500.2" y2="1583.5"/>
    <path d="M500.2,1641.95l-20.19-50.48h40.39l-20.19,50.48Z"/>
    <circle class="cls-3" cx="500.2" cy="790.08" r="50.48"/>
    <text class="cls-23" transform="translate(483.37 813.64)"><tspan x="0" y="0">1</tspan></text>
  </g>
  <g>
    <line class="cls-5" x1="601.16" y1="704.38" x2="601.16" y2="1686"/>
    <path d="M601.16,655.46l20.19,48.92h-40.39l20.19-48.92Z"/>
    <ellipse class="cls-3" cx="601.16" cy="1567.55" rx="50.48" ry="48.92"/>
    <text class="cls-22" transform="translate(584.33 1588.38) scale(1.03 1)"><tspan x="0" y="0">2</tspan></text>
  </g>
  <g>
    <rect class="cls-25" x="389.55" y="1667.28" width="312.26" height="191.18"/>
    <g>
      <rect class="cls-19" x="386.36" y="1667.28" width="318.64" height="44.61"/>
      <circle class="cls-12" cx="410.26" cy="1689.59" r="7.97"/>
      <rect class="cls-16" x="669.95" y="1673.65" width="4.78" height="31.86"/>
      <rect class="cls-16" x="679.51" y="1673.65" width="4.78" height="31.86"/>
      <rect class="cls-16" x="689.07" y="1673.65" width="4.78" height="31.86"/>
    </g>
    <g>
      <rect class="cls-19" x="386.36" y="1715.08" width="318.64" height="44.61"/>
      <circle class="cls-12" cx="410.26" cy="1737.38" r="7.97"/>
      <rect class="cls-16" x="669.95" y="1721.45" width="4.78" height="31.86"/>
      <rect class="cls-16" x="679.51" y="1721.45" width="4.78" height="31.86"/>
      <rect class="cls-16" x="689.07" y="1721.45" width="4.78" height="31.86"/>
    </g>
    <g>
      <rect class="cls-19" x="386.36" y="1762.87" width="318.64" height="44.61"/>
      <circle class="cls-12" cx="410.26" cy="1785.18" r="7.97"/>
      <rect class="cls-16" x="669.95" y="1769.25" width="4.78" height="31.86"/>
      <rect class="cls-16" x="679.51" y="1769.25" width="4.78" height="31.86"/>
      <rect class="cls-16" x="689.07" y="1769.25" width="4.78" height="31.86"/>
    </g>
    <g>
      <rect class="cls-19" x="386.36" y="1810.67" width="318.64" height="44.61"/>
      <circle class="cls-12" cx="410.26" cy="1832.97" r="7.97"/>
      <rect class="cls-16" x="669.95" y="1817.04" width="4.78" height="31.86"/>
      <rect class="cls-16" x="679.51" y="1817.04" width="4.78" height="31.86"/>
      <rect class="cls-16" x="689.07" y="1817.04" width="4.78" height="31.86"/>
    </g>
  </g>
  <g>
    <path class="cls-5" d="M792.99,615.08h868.29v198.92"/>
    <path d="M1661.28,863.2l-20.19-50.48h40.39l-20.19,50.48Z"/>
    <circle class="cls-3" cx="1097.57" cy="615.08" r="50.48"/>
    <text class="cls-23" transform="translate(1080.74 638.63)"><tspan x="0" y="0">3</tspan></text>
  </g>
  <g>
    <line class="cls-5" x1="1661.28" y1="1257.05" x2="1661.28" y2="1509.46"/>
    <path d="M1661.28,1559.95l-20.19-50.48h40.39l-20.19,50.48Z"/>
    <circle class="cls-3" cx="1661.28" cy="1391.67" r="50.48"/>
    <text class="cls-23" transform="translate(1644.45 1415.23)"><tspan x="0" y="0">4</tspan></text>
  </g>
  <g>
    <rect class="cls-4" x="235.17" y="911.24" width="631.02" height="578.02" rx="3.78" ry="3.78"/>
    <rect class="cls-26" x="235.17" y="911.24" width="631.02" height="40.39" rx="3.78" ry="3.78"/>
    <path class="cls-26" d="M247.79,939h605.78c6.97,0,12.62,2.83,12.62,6.31h0c0,3.49-5.65,6.31-12.62,6.31H247.79c-6.97,0-12.62-2.83-12.62-6.31h0c0-3.49,5.65-6.31,12.62-6.31Z"/>
    <rect class="cls-10" x="235.17" y="911.24" width="631.02" height="550.26" rx="3.78" ry="3.78"/>
    <circle class="cls-1" cx="260.41" cy="931.43" r="7.57"/>
    <circle class="cls-24" cx="285.65" cy="931.43" r="7.57"/>
    <circle class="cls-12" cx="310.89" cy="931.43" r="7.57"/>
    <line class="cls-11" x1="235.17" y1="1032.39" x2="866.19" y2="1032.39"/>
    <circle class="cls-19" cx="310.89" cy="1075.3" r="20.19"/>
    <rect class="cls-39" x="373.99" y="1067.73" width="214.55" height="20.19"/>
    <line class="cls-11" x1="285.65" y1="1118.21" x2="815.71" y2="1118.21"/>
    <path class="cls-19" d="M325.01,1146.94h-28.24c-1.99,0-3.55,1.53-3.55,3.56v21.23c0,2,1.56,3.56,3.55,3.56h28.24c2.03,0,3.55-1.56,3.55-3.56v-21.23c0-2.03-1.52-3.56-3.55-3.56ZM325.01,1171.74h-28.24v-10.62h28.24v10.62ZM325.01,1154.03h-28.24v-3.53h28.24v3.53Z"/>
    <rect class="cls-39" x="373.99" y="1153.55" width="302.89" height="20.19"/>
    <line class="cls-11" x1="285.65" y1="1204.03" x2="815.71" y2="1204.03"/>
    <path class="cls-19" d="M323.77,1240.59l4.79,6.3v7.99h-3.25c0,2.65-2.15,4.76-4.79,4.76s-4.79-2.11-4.79-4.76h-9.68c0,2.65-2.15,4.76-4.79,4.76s-4.79-2.11-4.79-4.76h-3.25v-17.43c0-1.78,1.46-3.23,3.25-3.23h22.51v6.36h4.79ZM301.26,1257.27c1.37,0,2.4-1.02,2.4-2.38,0-1.27-1.12-2.38-2.4-2.38s-2.39,1.03-2.39,2.38,1.03,2.38,2.39,2.38ZM322.92,1242.98h-4v4.01h7.19l-3.19-4.01ZM320.52,1257.27c1.36,0,2.39-1.02,2.39-2.38,0-1.27-1.12-2.38-2.39-2.38s-2.4,1.03-2.4,2.38,1.03,2.38,2.4,2.38Z"/>
    <rect class="cls-39" x="373.99" y="1226.75" width="252.41" height="20.19"/>
    <rect class="cls-39" x="373.99" y="1257.04" width="176.69" height="12.62"/>
    <line class="cls-11" x1="285.65" y1="1289.85" x2="815.71" y2="1289.85"/>
    <rect class="cls-20" x="664.27" y="1365.57" width="151.45" height="60.58" rx="1.51" ry="1.51"/>
  </g>
  <rect class="cls-21" x="1544.36" y="899.21" width="224.53" height="224.53" rx="19.94" ry="19.94"/>
  <g>
    <path class="cls-9" d="M1730.96,989.87c0,7.17-6.4,12.98-14.28,12.98s-14.28-5.81-14.28-12.98c0,7.17-6.4,12.98-14.28,12.98s-14.28-5.81-14.28-12.98c0,7.17-6.4,12.98-14.28,12.98s-14.28-5.81-14.28-12.98c0,7.17-6.4,12.98-14.28,12.98s-14.28-5.81-14.28-12.98c0,7.17-6.4,12.98-14.28,12.98s-14.28-5.81-14.28-12.98"/>
    <path class="cls-8" d="M1588.13,989.87l14.89-47.23c.8-2.79,3.34-4.71,6.24-4.71h100.58c2.9,0,5.45,1.92,6.24,4.71l14.89,47.23"/>
    <path class="cls-9" d="M1721.22,1002.86v77.91c0,3.59-2.91,6.49-6.49,6.49h-110.37c-3.59,0-6.49-2.91-6.49-6.49v-77.91"/>
    <line class="cls-8" x1="1643.31" y1="996.37" x2="1643.31" y2="1087.26"/>
    <line class="cls-8" x1="1630.33" y1="1035.32" x2="1630.33" y2="1041.81"/>
    <line class="cls-8" x1="1682.27" y1="1022.34" x2="1662.79" y2="1041.81"/>
    <line class="cls-8" x1="1695.25" y1="1035.32" x2="1669.28" y2="1061.29"/>
    <line class="cls-8" x1="1702.4" y1="989.87" x2="1694.58" y2="937.93"/>
    <line class="cls-8" x1="1673.83" y1="989.87" x2="1669.01" y2="937.93"/>
    <line class="cls-8" x1="1645.26" y1="989.87" x2="1649.67" y2="937.93"/>
    <line class="cls-8" x1="1616.7" y1="989.87" x2="1625.05" y2="937.93"/>
  </g>
  <rect class="cls-13" x="1546.12" y="1583.59" width="219.13" height="219.13" rx="19.94" ry="19.94"/>
  <text class="cls-17" transform="translate(1544.04 1848.88)"><tspan x="0" y="0">決</tspan><tspan class="cls-34" x="32" y="0">済</tspan><tspan class="cls-38" x="63.36" y="0">ゲ</tspan><tspan class="cls-32" x="95.04" y="0">ー</tspan><tspan class="cls-31" x="122.24" y="0">ト</tspan><tspan class="cls-30" x="150.4" y="0">ウ</tspan><tspan class="cls-27" x="176.64" y="0">ェ</tspan><tspan class="cls-35" x="205.44" y="0">イ</tspan></text>
  <g>
    <g>
      <path class="cls-9" d="M1644.72,1700.6c-5.48,1.26-10.69,3.45-15.3,6.42"/>
      <path class="cls-9" d="M1681.95,1707.01c-4.61-2.96-9.81-5.15-15.3-6.42"/>
      <path class="cls-9" d="M1703.83,1737.77c-1.26-5.48-3.45-10.69-6.42-15.3"/>
      <path class="cls-9" d="M1613.96,1722.48c-2.96,4.61-5.15,9.81-6.42,15.3"/>
      <path class="cls-9" d="M1680.09,1751.89c.19-1.01.25-2.08.25-3.15,0-13.68-10.97-24.65-24.65-24.65s-24.65,10.97-24.65,24.65c0,1.07.06,2.14.25,3.15"/>
      <polyline class="cls-9" points="1644.72 1700.6 1644.72 1685.68 1666.65 1685.68 1666.65 1700.6"/>
      <polyline class="cls-9" points="1681.95 1707.01 1692.53 1696.38 1708.05 1711.89 1697.41 1722.48"/>
      <polyline class="cls-9" points="1703.8 1737.77 1718.74 1737.77 1718.74 1751.89"/>
      <polyline class="cls-9" points="1592.63 1751.89 1592.63 1737.77 1607.58 1737.77"/>
      <polyline class="cls-9" points="1613.96 1722.48 1603.32 1711.89 1618.84 1696.38 1629.42 1707.01"/>
    </g>
    <path class="cls-9" d="M1583.17,1632.09h145.03v118.81c0,.55-.45,1-1,1h-143.03c-.55,0-1-.45-1-1v-118.81h0Z"/>
    <line class="cls-9" x1="1583.17" y1="1657.31" x2="1728.2" y2="1657.31"/>
    <circle class="cls-4" cx="1602.09" cy="1644.7" r="3.15"/>
    <circle class="cls-4" cx="1614.7" cy="1644.7" r="3.15"/>
    <circle class="cls-4" cx="1627.31" cy="1644.7" r="3.15"/>
  </g>
  <path d="M309.01,978.37c-1.23,1.46-3.21,2.61-5.18,2.45-.25-1.97.72-4.07,1.85-5.36,1.23-1.5,3.39-2.57,5.14-2.65.21,2.06-.6,4.07-1.81,5.57M310.8,981.21c-2.86-.16-5.3,1.62-6.66,1.62s-3.45-1.54-5.71-1.5c-2.94.04-5.67,1.71-7.17,4.36-3.08,5.3-.8,13.15,2.18,17.47,1.46,2.14,3.21,4.48,5.51,4.4,2.18-.08,3.04-1.42,5.67-1.42s3.41,1.42,5.71,1.38c2.38-.04,3.88-2.14,5.34-4.27,1.66-2.43,2.34-4.79,2.38-4.91-.04-.04-4.6-1.79-4.64-7.05-.04-4.4,3.6-6.49,3.76-6.62-2.06-3.04-5.26-3.37-6.37-3.45M327.3,975.25v32.04h4.97v-10.95h6.88c6.29,0,10.71-4.32,10.71-10.56s-4.34-10.52-10.54-10.52h-12.02ZM332.28,979.44h5.73c4.32,0,6.78,2.3,6.78,6.35s-2.47,6.37-6.8,6.37h-5.71v-12.72ZM358.95,1007.53c3.12,0,6.02-1.58,7.34-4.09h.1v3.84h4.6v-15.95c0-4.62-3.7-7.6-9.39-7.6-5.28,0-9.19,3.02-9.33,7.17h4.48c.37-1.97,2.2-3.27,4.71-3.27,3.04,0,4.75,1.42,4.75,4.03v1.77l-6.21.37c-5.77.35-8.9,2.71-8.9,6.82s3.23,6.91,7.85,6.91ZM360.29,1003.73c-2.65,0-4.34-1.27-4.34-3.23s1.62-3.19,4.73-3.37l5.53-.35v1.81c0,3-2.55,5.14-5.92,5.14ZM377.14,1016c4.85,0,7.13-1.85,9.12-7.46l8.73-24.5h-5.06l-5.86,18.93h-.1l-5.86-18.93h-5.2l8.43,23.33-.45,1.42c-.76,2.4-1.99,3.33-4.19,3.33-.39,0-1.15-.04-1.46-.08v3.84c.29.08,1.52.12,1.89.12Z"/>
  <path d="M477.6,1734.87c-2.39,2.82-6.2,5.05-10.02,4.73-.48-3.82,1.39-7.87,3.58-10.38,2.39-2.9,6.56-4.97,9.94-5.13.4,3.98-1.15,7.87-3.5,10.78M481.06,1740.36c-5.53-.32-10.26,3.14-12.89,3.14s-6.68-2.98-11.06-2.9c-5.69.08-10.98,3.3-13.88,8.43-5.97,10.26-1.55,25.45,4.22,33.81,2.82,4.14,6.2,8.67,10.66,8.51,4.22-.16,5.89-2.74,10.98-2.74s6.6,2.74,11.06,2.66c4.61-.08,7.52-4.14,10.34-8.27,3.22-4.69,4.53-9.27,4.61-9.51-.08-.08-8.91-3.46-8.99-13.64-.08-8.51,6.96-12.57,7.28-12.81-3.98-5.89-10.18-6.52-12.33-6.68M512.99,1728.83v62h9.62v-21.2h13.32c12.17,0,20.72-8.35,20.72-20.44s-8.39-20.36-20.4-20.36h-23.27ZM522.62,1736.94h11.1c8.35,0,13.12,4.45,13.12,12.29s-4.77,12.33-13.16,12.33h-11.06v-24.62ZM574.24,1791.31c6.05,0,11.65-3.06,14.2-7.91h.2v7.44h8.91v-30.86c0-8.95-7.16-14.72-18.18-14.72-10.22,0-17.78,5.85-18.06,13.88h8.67c.72-3.82,4.26-6.32,9.11-6.32,5.89,0,9.19,2.74,9.19,7.8v3.42l-12.01.72c-11.18.68-17.22,5.25-17.22,13.2s6.24,13.36,15.19,13.36ZM576.83,1783.95c-5.13,0-8.39-2.47-8.39-6.24s3.14-6.16,9.15-6.52l10.7-.68v3.5c0,5.81-4.93,9.94-11.45,9.94ZM609.44,1807.7c9.39,0,13.8-3.58,17.66-14.44l16.9-47.41h-9.78l-11.33,36.63h-.2l-11.33-36.63h-10.06l16.31,45.14-.87,2.74c-1.47,4.65-3.86,6.44-8.11,6.44-.76,0-2.23-.08-2.82-.16v7.44c.56.16,2.94.24,3.66.24Z"/>
  <g>
    <path d="M1548.2,1151.86l.59-.04,1.3.07c0,.22-.04.59-.04.89-.3,17.06-.59,22.5-1.67,24.05-.81,1.15-1.55,1.41-4.26,1.41-.74,0-1.55-.04-2.37-.07-.07-.74-.3-1.78-.7-2.48,1.7.15,3.26.15,3.89.15.59,0,.92-.11,1.26-.59.78-1.07,1.15-6.18,1.41-20.94h-6.07c-.33,9.84-1.52,19.02-6.18,24.64-.41-.56-1.29-1.26-1.92-1.63,4.29-5.03,5.37-13.54,5.66-23.02h-5.07v-2.44h5.14c.04-2.37.04-4.81.04-7.25l3.4.19c-.07.33-.33.55-.93.63,0,2.15-.04,4.29-.07,6.44h6.59ZM1553.56,1149.01h12.58v28.79h-2.48v-2.48h-7.7v2.78h-2.41v-29.08ZM1555.97,1172.91h7.7v-21.5h-7.7v21.5Z"/>
    <path d="M1600.37,1175.65h4.51v2.22h-34.08v-2.22h4.55v-9.32h25.01v9.32ZM1575.35,1160.92v2.07h-2.29v-16.73h11.58v14.65h-9.29ZM1582.35,1148.34h-6.99v4.22h6.99v-4.22ZM1575.35,1158.89h6.99v-4.33h-6.99v4.33ZM1577.72,1168.4v7.25h5.14v-7.25h-5.14ZM1599.96,1158.74h-9.44c-.67,2.48-2,4.92-4.59,6.77-.3-.48-1.18-1.33-1.67-1.7,4-2.89,4.55-6.92,4.55-10.29v-7.81h13.62v16.43c0,2.66-1.26,2.89-6.48,2.89-.15-.67-.55-1.63-.89-2.26.85.04,1.63.04,2.29.04,2.48,0,2.59,0,2.59-.7v-3.37ZM1590.38,1168.4h-5.22v7.25h5.22v-7.25ZM1591.12,1153.23c0,1,0,2.18-.22,3.51h9.07v-3.51h-8.84ZM1599.96,1147.79h-8.84v3.44h8.84v-3.44ZM1597.92,1168.4h-5.22v7.25h5.22v-7.25Z"/>
    <path d="M1627.15,1149.53h14.58v2.37h-28.6v7.4c0,5.7-.48,14.02-3.66,19.69-.44-.44-1.55-1.15-2.15-1.44,3.03-5.37,3.33-12.88,3.33-18.24v-9.77h13.95v-4.96l3.29.22c-.04.26-.22.44-.74.52v4.22ZM1629.12,1152.97c-.04.26-.22.44-.74.52v3.92h12.84v2.26h-12.84v5.66h10.25v13.58h-2.52v-1.41h-16.87v1.52h-2.44v-13.69h9.1v-12.58l3.22.22ZM1636.11,1175.24v-7.66h-16.87v7.66h16.87Z"/>
    <path d="M1646.54,1156.22c3.33.74,7.47,2.15,9.95,3.33l-1.11,2.33c-2.44-1.18-6.7-2.66-9.95-3.4l1.11-2.26ZM1648.76,1174.32c12.03-4.03,20.24-10.43,25.16-21.54.56.48,1.7,1.26,2.26,1.63-4.96,10.99-13.58,17.84-24.9,21.87.07.33-.11.78-.44.92l-2.07-2.89ZM1650.61,1147.05c3.33.89,7.4,2.37,9.92,3.63l-1.22,2.26c-2.63-1.33-6.47-2.81-9.81-3.74l1.11-2.15Z"/>
    <path d="M1703.63,1149.41c-.07.18-.26.33-.48.41-2,4.7-4.37,8.77-7.4,12.73,4.03,3.22,10.1,8.73,13.54,12.54l-2.26,1.96c-3.26-3.77-9.21-9.4-12.99-12.43-3.26,3.96-8.88,9.36-14.25,12.43-.41-.55-1.29-1.48-1.92-2,10.25-5.62,18.35-16.13,21.68-24.16h-18.17v-2.52h19.61l.48-.18,2.15,1.22Z"/>
    <path d="M1743.71,1160.15h-12.51l.63.19c-.07.22-.33.41-.74.44-1,6.88-3.52,13.03-11.43,16.91-.44-.48-1.37-1.37-2-1.85,7.7-3.7,9.84-8.88,10.69-15.69h-14.39v-2.48h29.75v2.48ZM1740.04,1149.71h-22.72v-2.48h22.72v2.48Z"/>
    <path d="M1776.53,1176.87c-.56-1.26-1.22-2.59-1.96-3.92-7.7.81-20.35,1.59-26.01,1.89-.11.37-.37.67-.7.74l-1-3.33c1.11-.04,2.44-.07,3.88-.15,2.44-7.1,5.96-18.17,7.99-25.57l3.59.96c-.15.33-.52.52-1.07.52-2.04,6.81-5.22,16.73-7.77,23.98,6.14-.26,14.91-.89,19.8-1.33-1.92-3.18-4.37-6.55-6.59-9.03l2.22-1.26c3.89,4.25,8.33,11.29,10.21,15.32l-2.59,1.18Z"/>
    <path class="cls-15" d="M1551.41,1227.98c-1.79-2.26-3.31-4.91-4.55-7.95-1.24-3.04-1.86-6.18-1.86-9.43,0-2.87.46-5.61,1.39-8.24,1.08-3.05,2.76-6.08,5.02-9.11h2.33c-1.46,2.51-2.42,4.29-2.89,5.37-.73,1.66-1.31,3.4-1.73,5.2-.52,2.25-.78,4.52-.78,6.79,0,5.79,1.8,11.58,5.4,17.36h-2.33Z"/>
    <path class="cls-15" d="M1568.99,1195.78c-.11.3-.41.52-.96.56-1.48,8.88-4.55,18.24-8.88,23.72-.67-.52-1.67-1-2.48-1.33,4.14-5.03,7.4-14.43,8.58-23.72l3.74.78ZM1587.6,1219.83c-1.74-6.48-6.03-16.98-9.84-23.83l2.41-1.15c3.88,6.62,8.21,17.06,10.14,23.9l-2.7,1.07ZM1582.24,1190.08c1.7,1.52,3.51,3.81,4.51,5.48l-1.41,1.04c-1.04-1.67-2.96-4.07-4.51-5.48l1.41-1.04ZM1587.12,1188.15c1.67,1.55,3.52,3.77,4.55,5.44l-1.44,1.07c-1.04-1.67-2.96-4.03-4.51-5.44l1.41-1.07Z"/>
    <path class="cls-15" d="M1598.59,1199.92c1.11,2.26,2.33,5.81,2.78,7.96l-2.07.56c-.44-2.15-1.59-5.51-2.7-7.88l2-.63ZM1620.68,1200.18c-.07.33-.44.41-.78.37-2.89,10.8-8.33,17.43-17.28,21.05-.3-.44-.96-1.29-1.44-1.7,8.84-3.48,13.91-9.55,16.61-20.57l2.89.85ZM1607.58,1198.14c.78,2.48,1.48,6.03,1.74,8.4l-2.18.41c-.22-2.37-.92-5.77-1.74-8.33l2.18-.48Z"/>
    <path class="cls-15" d="M1652.72,1197.03c-.15.19-.33.37-.55.52-3.89,11.99-9.95,19.69-20.17,24.87-.44-.63-1.15-1.48-1.89-2.04,9.69-4.7,15.69-12.1,18.76-21.91h-13.21c-2.15,3.33-5,6.55-8.29,9.14-.52-.52-1.37-1.22-2.11-1.7,5.03-3.88,9.29-9.55,11.8-16.06l3.52,1c-.15.37-.59.48-1.07.48-.74,1.63-1.52,3.18-2.37,4.66h13.03l.44-.22,2.11,1.26Z"/>
    <path class="cls-15" d="M1660.82,1195.33h25.31v2.52h-11.4v17.95h14.06v2.52h-30.56v-2.52h13.84v-17.95h-11.25v-2.52Z"/>
    <path class="cls-15" d="M1695.49,1193c3.85,1.22,8.29,3.15,11.03,5.03l-1.41,2.33c-2.67-1.89-7.03-3.85-10.8-5.14l1.18-2.22ZM1695.34,1218.64c13.14-4.07,21.87-11.43,26.31-21.68.78.63,1.63,1.11,2.41,1.52-4.63,10.14-13.65,18.02-26.2,22.2-.04.33-.26.7-.52.85l-2-2.89Z"/>
    <path class="cls-15" d="M1750.51,1209.73c-3.77-2.04-8.95-4.44-12.99-6.03v18.46h-2.78v-32.16l3.74.22c-.04.41-.33.67-.96.78v10.88l.55-.81c4.33,1.59,10.06,4.14,13.91,6.18l-1.48,2.48ZM1746.63,1192.3c1.7,1.41,3.92,3.74,5.11,5.44l-1.41,1.15c-1.11-1.59-3.37-4.07-5.03-5.4l1.33-1.18ZM1751.59,1189.12c1.74,1.44,3.96,3.77,5.07,5.4l-1.33,1.15c-1.15-1.59-3.4-4.03-5.07-5.4l1.33-1.15Z"/>
    <path class="cls-15" d="M1762.41,1227.98h-2.33c3.6-5.78,5.4-11.57,5.4-17.36,0-2.26-.26-4.51-.78-6.74-.41-1.81-.98-3.54-1.72-5.2-.47-1.08-1.44-2.89-2.91-5.42h2.33c2.26,3.02,3.94,6.06,5.02,9.11.93,2.63,1.39,5.37,1.39,8.24,0,3.25-.62,6.4-1.87,9.43-1.25,3.04-2.76,5.68-4.54,7.95Z"/>
  </g>
</svg>