<?xml version="1.0" encoding="UTF-8"?>
<svg id="Layer_1" data-name="Layer 1" xmlns="http://www.w3.org/2000/svg" viewBox="0 0 1997 1907">
  <defs>
    <style>
      .cls-1 {
        fill: #ff6057;
      }

      .cls-2 {
        fill-rule: evenodd;
      }

      .cls-2, .cls-3, .cls-4 {
        fill: #fff;
      }

      .cls-5, .cls-3 {
        stroke: #000;
      }

      .cls-5, .cls-3, .cls-6, .cls-7 {
        stroke-miterlimit: 4.03;
        stroke-width: 1.01px;
      }

      .cls-5, .cls-8, .cls-9, .cls-10, .cls-6, .cls-7, .cls-11 {
        fill: none;
      }

      .cls-12 {
        font-size: 40.39px;
      }

      .cls-12, .cls-13, .cls-14 {
        font-family: Helvetica, Helvetica;
        isolation: isolate;
      }

      .cls-15 {
        fill: #28c941;
      }

      .cls-16 {
        fill: #ff9300;
      }

      .cls-17 {
        fill: #aaa;
      }

      .cls-18 {
        fill: #4d4d4d;
      }

      .cls-19 {
        fill: #ccc;
      }

      .cls-20 {
        fill: #ddd;
      }

      .cls-21 {
        fill: #5185ec;
      }

      .cls-22 {
        fill: #1ba9e3;
      }

      .cls-23 {
        fill: #ffbd2d;
      }

      .cls-8 {
        stroke-miterlimit: 10;
      }

      .cls-8, .cls-9 {
        stroke: #fff;
        stroke-linecap: round;
        stroke-width: 3px;
      }

      .cls-9 {
        stroke-linejoin: round;
      }

      .cls-24 {
        letter-spacing: 0em;
      }

      .cls-25 {
        fill: #bbb;
      }

      .cls-10, .cls-6 {
        stroke: #4d4d4d;
      }

      .cls-10, .cls-11 {
        stroke-miterlimit: 3.02;
        stroke-width: .76px;
      }

      .cls-26 {
        fill: #f2f2f2;
      }

      .cls-13 {
        font-size: 58.7px;
      }

      .cls-27 {
        letter-spacing: -.07em;
      }

      .cls-28 {
        letter-spacing: -.09em;
      }

      .cls-29 {
        letter-spacing: -.09em;
      }

      .cls-30 {
        letter-spacing: -.02em;
      }

      .cls-14 {
        font-size: 60.58px;
      }

      .cls-31 {
        letter-spacing: -.06em;
      }

      .cls-32 {
        fill: #eee;
      }

      .cls-7, .cls-11 {
        stroke: #d9d9d9;
      }

      .cls-33 {
        fill: #15c;
      }

      .cls-34 {
        font-family: Arial-BoldMT, Arial;
        font-size: 35.18px;
        font-weight: 700;
      }
    </style>
  </defs>
  <rect class="cls-4" x="3" width="1992" height="1907"/>
  <g>
    <rect class="cls-4" x="130" y="36.22" width="841.36" height="673.09" rx="5.04" ry="5.04"/>
    <rect class="cls-26" x="130" y="36.22" width="841.36" height="53.85" rx="5.04" ry="5.04"/>
    <path class="cls-26" d="M146.83,73.24h807.71c9.29,0,16.83,3.77,16.83,8.41h0c0,4.65-7.53,8.41-16.83,8.41H146.83c-9.29,0-16.83-3.77-16.83-8.41h0c0-4.65,7.53-8.41,16.83-8.41Z"/>
    <rect class="cls-6" x="130" y="36.22" width="841.36" height="673.09" rx="5.04" ry="5.04"/>
    <circle class="cls-1" cx="163.65" cy="63.14" r="10.1"/>
    <circle class="cls-23" cx="197.31" cy="63.14" r="10.1"/>
    <circle class="cls-15" cx="230.96" cy="63.14" r="10.1"/>
    <path class="cls-33" d="M218.73,112.62h-62.58v7.86h62.58v-7.86ZM222.55,151.7v-7.78l-4.05-19.69h-62.58l-4.05,19.69v7.78h4.05v23.5h39.12v-23.5h15.66v23.5h7.79v-23.5h4.05ZM187.25,167.34h-23.53v-15.64h23.53v15.64Z"/>
    <text class="cls-12" transform="translate(237.69 160.74)"><tspan x="0" y="0">Merchant Store</tspan></text>
    <path class="cls-19" d="M901.42,156.58c-2.01,0-3.73,1.73-3.73,3.74s1.62,3.78,3.73,3.78,3.77-1.73,3.77-3.78-1.72-3.74-3.77-3.74ZM890.08,126.41v3.74h3.73l6.82,14.33-2.55,4.57c-.29.5-.5,1.12-.5,1.84,0,2.02,1.72,3.74,3.73,3.74h22.51v-3.74h-21.79c-.29,0-.5-.22-.5-.5l.11-.22,1.72-3.06h13.97c1.44,0,2.66-.79,3.23-1.91l6.71-12.2c.11-.29.18-.61.18-.9,0-1.05-.79-1.94-1.9-1.94h-27.75l-1.72-3.74h-6ZM920.17,156.58c-2.01,0-3.73,1.73-3.73,3.74s1.62,3.78,3.73,3.78,3.77-1.73,3.77-3.78-1.72-3.74-3.77-3.74Z"/>
    <line class="cls-7" x1="130" y1="197.76" x2="971.36" y2="197.76"/>
    <path class="cls-17" d="M352.29,376.14c9.19,0,16.74-7.42,16.74-16.78v-84.2c0-9.21-7.55-16.78-16.74-16.78h-134.67c-9.18,0-16.74,7.57-16.74,16.78v84.2c0,9.36,7.56,16.78,16.74,16.78h-33.78v16.78h201.93v-16.78h-33.49ZM217.62,274.72h134.67v84.34h-134.67v-84.34Z"/>
    <g>
      <rect class="cls-17" x="449.72" y="271.8" width="336.55" height="26.92"/>
      <rect class="cls-20" x="449.72" y="322.28" width="454.34" height="20.19"/>
      <rect class="cls-20" x="449.72" y="355.94" width="269.24" height="20.19"/>
      <rect class="cls-32" x="449.72" y="406.42" width="454.34" height="13.46"/>
      <rect class="cls-32" x="449.72" y="433.34" width="454.34" height="13.46"/>
      <rect class="cls-32" x="449.72" y="460.27" width="454.34" height="13.46"/>
      <rect class="cls-32" x="449.72" y="487.19" width="168.27" height="13.46"/>
    </g>
    <g>
      <rect x="308.37" y="574.69" width="484.63" height="80.77" rx="3.02" ry="3.02"/>
      <g>
        <path class="cls-2" d="M445.98,604.93h7.6c1.07,0,2.07.24,2.98.71.91.47,1.64,1.12,2.19,1.95.55.83.82,1.74.82,2.74s-.25,1.87-.75,2.6-1.16,1.29-1.96,1.67v.17c1.02.36,1.84.95,2.47,1.78.63.83.95,1.8.95,2.91.02,1.05-.28,2.09-.86,2.97-.58.87-1.35,1.54-2.32,2.02-.99.48-2.08.73-3.18.72h-7.94v-20.24ZM453.44,613.41c.9,0,1.64-.28,2.19-.85.56-.57.83-1.22.83-1.95s-.27-1.38-.81-1.94c-.54-.56-1.24-.83-2.11-.83h-4.41v5.57s4.3,0,4.3,0ZM453.92,622.23c.96,0,1.73-.3,2.3-.9.58-.6.86-1.3.86-2.09s-.3-1.51-.89-2.11c-.59-.59-1.39-.89-2.39-.89h-4.66v5.99s4.78,0,4.78,0ZM468.78,625.63c-1.75,0-3.09-.52-4-1.57-.91-1.05-1.37-2.5-1.37-4.37v-8.93h3.11v8.51c0,1.17.28,2.05.83,2.63.56.59,1.29.88,2.19.88.74,0,1.39-.19,1.95-.58s1-.9,1.3-1.54c.3-.65.46-1.35.45-2.06v-7.83h3.11v14.42h-2.94v-1.87h-.17c-.4.68-1.01,1.23-1.84,1.67s-1.71.65-2.63.65ZM484.69,624.38l-5.99-13.63h3.48l4.07,9.81h.11l3.96-9.81h3.42l-8.9,20.52h-3.28l3.14-6.9ZM501.38,610.76h3.36l2.91,10.32h.11l3.25-10.32h3.19l3.22,10.32h.11l2.91-10.32h3.31l-4.61,14.42h-3.28l-3.31-10.35h-.08l-3.28,10.35h-3.22s-4.61-14.42-4.61-14.42ZM527.86,608.66c-.56.01-1.09-.21-1.48-.61-.4-.39-.62-.93-.61-1.48-.01-.56.21-1.09.61-1.48.39-.4.93-.62,1.48-.61.56-.01,1.09.21,1.48.61.4.39.62.93.61,1.48.01.56-.21,1.09-.61,1.48-.39.4-.93.62-1.48.61ZM526.31,610.76h3.11v14.42h-3.11v-14.42ZM539.36,625.4c-.64,0-1.24-.1-1.81-.31-.51-.18-.98-.45-1.39-.82-.81-.81-1.22-1.91-1.22-3.31v-7.46h-2.52v-2.74h2.52v-4.07h3.11v4.07h3.51v2.74h-3.51v6.78c0,.77.15,1.32.45,1.64.28.38.77.57,1.47.57.32,0,.6-.04.85-.13s.51-.22.79-.41v3.02c-.62.28-1.38.42-2.26.42ZM544.98,604.93h3.11v5.51l-.14,2.21h.14c.41-.68,1.03-1.24,1.85-1.68.82-.44,1.7-.66,2.64-.66,1.75,0,3.09.51,4.01,1.54.92,1.03,1.39,2.43,1.39,4.2v9.13h-3.11v-8.71c0-1.09-.29-1.91-.86-2.46-.58-.55-1.32-.82-2.25-.82-.7,0-1.32.2-1.88.59-.56.4-1.02.94-1.31,1.57-.32.65-.48,1.36-.48,2.08v7.75h-3.11v-20.24Z"/>
        <path class="cls-4" d="M581.87,607.2c-.8.95-2.09,1.7-3.38,1.6-.16-1.29.47-2.66,1.21-3.5.8-.98,2.21-1.68,3.35-1.73.13,1.34-.39,2.66-1.18,3.64M583.04,609.05c-1.86-.11-3.46,1.06-4.35,1.06s-2.25-1.01-3.73-.98c-1.92.03-3.7,1.11-4.68,2.84-2.01,3.46-.52,8.59,1.42,11.4.95,1.4,2.09,2.92,3.6,2.87,1.42-.05,1.99-.93,3.7-.93s2.23.93,3.73.9c1.56-.03,2.54-1.4,3.49-2.79,1.09-1.58,1.53-3.13,1.56-3.21-.03-.03-3.01-1.17-3.03-4.6-.03-2.87,2.35-4.24,2.46-4.32-1.34-1.99-3.43-2.2-4.16-2.25M593.81,605.16v20.92h3.25v-7.15h4.49c4.11,0,6.99-2.82,6.99-6.9s-2.83-6.87-6.88-6.87h-7.85ZM597.06,607.89h3.74c2.82,0,4.43,1.5,4.43,4.15s-1.61,4.16-4.44,4.16h-3.73v-8.3ZM614.47,626.23c2.04,0,3.93-1.03,4.79-2.67h.07v2.51h3.01v-10.41c0-3.02-2.41-4.96-6.13-4.96-3.45,0-6,1.97-6.09,4.68h2.92c.24-1.29,1.44-2.13,3.07-2.13,1.99,0,3.1.93,3.1,2.63v1.15l-4.05.24c-3.77.23-5.81,1.77-5.81,4.45s2.11,4.51,5.12,4.51ZM615.34,623.75c-1.73,0-2.83-.83-2.83-2.11s1.06-2.08,3.09-2.2l3.61-.23v1.18c0,1.96-1.66,3.35-3.86,3.35ZM626.34,631.76c3.17,0,4.66-1.21,5.96-4.87l5.7-15.99h-3.3l-3.82,12.36h-.07l-3.82-12.36h-3.39l5.5,15.23-.3.93c-.5,1.57-1.3,2.17-2.74,2.17-.25,0-.75-.03-.95-.05v2.51c.19.05.99.08,1.23.08Z"/>
      </g>
    </g>
  </g>
  <g>
    <line class="cls-5" x1="500.2" y1="655.46" x2="500.2" y2="1583.5"/>
    <path d="M500.2,1641.95l-20.19-50.48h40.39l-20.19,50.48Z"/>
    <circle class="cls-3" cx="500.2" cy="790.08" r="50.48"/>
    <text class="cls-14" transform="translate(483.37 813.64)"><tspan x="0" y="0">1</tspan></text>
  </g>
  <g>
    <line class="cls-5" x1="601.16" y1="704.38" x2="601.16" y2="1686"/>
    <path d="M601.16,655.46l20.19,48.92h-40.39l20.19-48.92Z"/>
    <ellipse class="cls-3" cx="601.16" cy="1567.55" rx="50.48" ry="48.92"/>
    <text class="cls-13" transform="translate(584.33 1588.38) scale(1.03 1)"><tspan x="0" y="0">2</tspan></text>
  </g>
  <g>
    <rect class="cls-25" x="389.55" y="1667.28" width="312.26" height="191.18"/>
    <g>
      <rect class="cls-20" x="386.36" y="1667.28" width="318.64" height="44.61"/>
      <circle class="cls-15" cx="410.26" cy="1689.59" r="7.97"/>
      <rect class="cls-19" x="669.95" y="1673.65" width="4.78" height="31.86"/>
      <rect class="cls-19" x="679.51" y="1673.65" width="4.78" height="31.86"/>
      <rect class="cls-19" x="689.07" y="1673.65" width="4.78" height="31.86"/>
    </g>
    <g>
      <rect class="cls-20" x="386.36" y="1715.08" width="318.64" height="44.61"/>
      <circle class="cls-15" cx="410.26" cy="1737.38" r="7.97"/>
      <rect class="cls-19" x="669.95" y="1721.45" width="4.78" height="31.86"/>
      <rect class="cls-19" x="679.51" y="1721.45" width="4.78" height="31.86"/>
      <rect class="cls-19" x="689.07" y="1721.45" width="4.78" height="31.86"/>
    </g>
    <g>
      <rect class="cls-20" x="386.36" y="1762.87" width="318.64" height="44.61"/>
      <circle class="cls-15" cx="410.26" cy="1785.18" r="7.97"/>
      <rect class="cls-19" x="669.95" y="1769.25" width="4.78" height="31.86"/>
      <rect class="cls-19" x="679.51" y="1769.25" width="4.78" height="31.86"/>
      <rect class="cls-19" x="689.07" y="1769.25" width="4.78" height="31.86"/>
    </g>
    <g>
      <rect class="cls-20" x="386.36" y="1810.67" width="318.64" height="44.61"/>
      <circle class="cls-15" cx="410.26" cy="1832.97" r="7.97"/>
      <rect class="cls-19" x="669.95" y="1817.04" width="4.78" height="31.86"/>
      <rect class="cls-19" x="679.51" y="1817.04" width="4.78" height="31.86"/>
      <rect class="cls-19" x="689.07" y="1817.04" width="4.78" height="31.86"/>
    </g>
  </g>
  <g>
    <path class="cls-5" d="M792.99,615.08h868.29v198.92"/>
    <path d="M1661.28,863.2l-20.19-50.48h40.39l-20.19,50.48Z"/>
    <circle class="cls-3" cx="1097.57" cy="615.08" r="50.48"/>
    <text class="cls-14" transform="translate(1080.74 638.63)"><tspan x="0" y="0">3</tspan></text>
  </g>
  <g>
    <line class="cls-5" x1="1661.28" y1="1257.05" x2="1661.28" y2="1509.46"/>
    <path d="M1661.28,1559.95l-20.19-50.48h40.39l-20.19,50.48Z"/>
    <circle class="cls-3" cx="1661.28" cy="1391.67" r="50.48"/>
    <text class="cls-14" transform="translate(1644.45 1415.23)"><tspan x="0" y="0">4</tspan></text>
  </g>
  <g>
    <rect class="cls-4" x="235.17" y="911.24" width="631.02" height="578.02" rx="3.78" ry="3.78"/>
    <rect class="cls-26" x="235.17" y="911.24" width="631.02" height="40.39" rx="3.78" ry="3.78"/>
    <path class="cls-26" d="M247.79,939h605.78c6.97,0,12.62,2.83,12.62,6.31h0c0,3.49-5.65,6.31-12.62,6.31H247.79c-6.97,0-12.62-2.83-12.62-6.31h0c0-3.49,5.65-6.31,12.62-6.31Z"/>
    <rect class="cls-10" x="235.17" y="911.24" width="631.02" height="550.26" rx="3.78" ry="3.78"/>
    <circle class="cls-1" cx="260.41" cy="931.43" r="7.57"/>
    <circle class="cls-23" cx="285.65" cy="931.43" r="7.57"/>
    <circle class="cls-15" cx="310.89" cy="931.43" r="7.57"/>
    <line class="cls-11" x1="235.17" y1="1032.39" x2="866.19" y2="1032.39"/>
    <circle class="cls-20" cx="310.89" cy="1075.3" r="20.19"/>
    <rect class="cls-32" x="373.99" y="1067.73" width="214.55" height="20.19"/>
    <line class="cls-11" x1="285.65" y1="1118.21" x2="815.71" y2="1118.21"/>
    <path class="cls-20" d="M325.01,1146.94h-28.24c-1.99,0-3.55,1.53-3.55,3.56v21.23c0,2,1.56,3.56,3.55,3.56h28.24c2.03,0,3.55-1.56,3.55-3.56v-21.23c0-2.03-1.52-3.56-3.55-3.56ZM325.01,1171.74h-28.24v-10.62h28.24v10.62ZM325.01,1154.03h-28.24v-3.53h28.24v3.53Z"/>
    <rect class="cls-32" x="373.99" y="1153.55" width="302.89" height="20.19"/>
    <line class="cls-11" x1="285.65" y1="1204.03" x2="815.71" y2="1204.03"/>
    <path class="cls-20" d="M323.77,1240.59l4.79,6.3v7.99h-3.25c0,2.65-2.15,4.76-4.79,4.76s-4.79-2.11-4.79-4.76h-9.68c0,2.65-2.15,4.76-4.79,4.76s-4.79-2.11-4.79-4.76h-3.25v-17.43c0-1.78,1.46-3.23,3.25-3.23h22.51v6.36h4.79ZM301.26,1257.27c1.37,0,2.4-1.02,2.4-2.38,0-1.27-1.12-2.38-2.4-2.38s-2.39,1.03-2.39,2.38,1.03,2.38,2.39,2.38ZM322.92,1242.98h-4v4.01h7.19l-3.19-4.01ZM320.52,1257.27c1.36,0,2.39-1.02,2.39-2.38,0-1.27-1.12-2.38-2.39-2.38s-2.4,1.03-2.4,2.38,1.03,2.38,2.4,2.38Z"/>
    <rect class="cls-32" x="373.99" y="1226.75" width="252.41" height="20.19"/>
    <rect class="cls-32" x="373.99" y="1257.04" width="176.69" height="12.62"/>
    <line class="cls-11" x1="285.65" y1="1289.85" x2="815.71" y2="1289.85"/>
    <rect class="cls-21" x="664.27" y="1365.57" width="151.45" height="60.58" rx="1.51" ry="1.51"/>
  </g>
  <rect class="cls-22" x="1544.36" y="899.21" width="224.53" height="224.53" rx="19.94" ry="19.94"/>
  <g>
    <path d="M1489.23,1182.85v-26.49h8l4.81,18.07,4.75-18.07h8.02v26.49h-4.97v-20.85l-5.26,20.85h-5.15l-5.24-20.85v20.85h-4.97Z"/>
    <path d="M1520.12,1182.85v-26.49h19.64v4.48h-14.29v5.87h13.3v4.46h-13.3v7.21h14.8v4.46h-20.14Z"/>
    <path d="M1544.82,1182.85v-26.49h11.25c2.83,0,4.89.24,6.17.71,1.28.48,2.31,1.32,3.08,2.54.77,1.22,1.16,2.61,1.16,4.17,0,1.99-.58,3.63-1.75,4.92s-2.92,2.11-5.24,2.45c1.16.67,2.11,1.42,2.86,2.22s1.77,2.24,3.04,4.3l3.23,5.17h-6.4l-3.87-5.76c-1.37-2.06-2.31-3.36-2.82-3.89s-1.04-.9-1.61-1.1c-.57-.2-1.46-.3-2.69-.3h-1.08v11.06h-5.35ZM1550.17,1167.57h3.96c2.57,0,4.17-.11,4.81-.33.64-.22,1.14-.59,1.5-1.12s.54-1.19.54-1.99c0-.89-.24-1.61-.71-2.16-.48-.55-1.15-.89-2.01-1.04-.43-.06-1.73-.09-3.9-.09h-4.17v6.72Z"/>
    <path d="M1588.47,1173.12l5.18,1.64c-.79,2.89-2.12,5.04-3.97,6.44-1.85,1.4-4.19,2.1-7.04,2.1-3.52,0-6.41-1.2-8.67-3.6-2.26-2.4-3.4-5.69-3.4-9.86,0-4.41,1.14-7.83,3.42-10.27,2.28-2.44,5.27-3.66,8.98-3.66,3.24,0,5.87.96,7.89,2.87,1.2,1.13,2.11,2.76,2.71,4.88l-5.29,1.26c-.31-1.37-.97-2.46-1.96-3.25-.99-.79-2.2-1.19-3.62-1.19-1.96,0-3.56.7-4.78,2.11-1.22,1.41-1.83,3.69-1.83,6.85,0,3.35.6,5.73,1.81,7.15s2.77,2.13,4.7,2.13c1.42,0,2.64-.45,3.67-1.36,1.02-.9,1.76-2.32,2.21-4.26Z"/>
    <path d="M1598.26,1182.85v-26.49h5.35v10.42h10.48v-10.42h5.35v26.49h-5.35v-11.58h-10.48v11.58h-5.35Z"/>
    <path d="M1648.85,1182.85h-5.82l-2.31-6.02h-10.59l-2.19,6.02h-5.67l10.32-26.49h5.65l10.61,26.49ZM1639,1172.38l-3.65-9.83-3.58,9.83h7.23Z"/>
    <path d="M1651.74,1182.85v-26.49h5.2l10.84,17.69v-17.69h4.97v26.49h-5.37l-10.68-17.27v17.27h-4.97Z"/>
    <path d="M1684.37,1182.85v-22h-7.86v-4.48h21.05v4.48h-7.84v22h-5.35Z"/>
    <path d="M1709.93,1174.24l5.2-.51c.31,1.75.95,3.03,1.91,3.85.96.82,2.25,1.23,3.88,1.23,1.72,0,3.02-.36,3.89-1.09.87-.73,1.31-1.58,1.31-2.56,0-.63-.18-1.16-.55-1.6-.37-.44-1.01-.82-1.92-1.15-.63-.22-2.05-.6-4.28-1.16-2.87-.71-4.88-1.58-6.03-2.62-1.63-1.46-2.44-3.23-2.44-5.33,0-1.35.38-2.61,1.15-3.79.76-1.17,1.87-2.07,3.31-2.68,1.44-.61,3.18-.92,5.21-.92,3.32,0,5.83.73,7.51,2.19,1.68,1.46,2.56,3.4,2.65,5.83l-5.35.24c-.23-1.36-.72-2.34-1.47-2.94-.75-.6-1.88-.89-3.39-.89s-2.77.32-3.65.96c-.57.41-.85.96-.85,1.64,0,.63.26,1.16.79,1.61.67.57,2.31,1.16,4.91,1.77,2.6.62,4.53,1.25,5.77,1.91,1.25.66,2.22,1.55,2.93,2.69.7,1.14,1.06,2.54,1.06,4.22,0,1.52-.42,2.94-1.26,4.26-.84,1.33-2.04,2.31-3.58,2.95-1.54.64-3.46.97-5.76.97-3.35,0-5.92-.77-7.71-2.32s-2.87-3.8-3.22-6.77Z"/>
    <path d="M1741.92,1182.85v-22h-7.86v-4.48h21.05v4.48h-7.84v22h-5.35Z"/>
    <path d="M1756.81,1169.77c0-2.7.4-4.96,1.21-6.79.6-1.35,1.42-2.56,2.47-3.63,1.04-1.07,2.18-1.87,3.42-2.38,1.65-.7,3.55-1.05,5.71-1.05,3.9,0,7.02,1.21,9.37,3.63s3.51,5.79,3.51,10.1-1.16,7.62-3.49,10.04c-2.32,2.42-5.43,3.62-9.32,3.62s-7.07-1.2-9.39-3.6c-2.32-2.4-3.49-5.71-3.49-9.93ZM1762.32,1169.59c0,3,.69,5.27,2.08,6.82,1.39,1.55,3.14,2.32,5.28,2.32s3.88-.77,5.25-2.3c1.37-1.54,2.05-3.84,2.05-6.91s-.67-5.3-2-6.79-3.1-2.24-5.3-2.24-3.98.76-5.33,2.27-2.02,3.79-2.02,6.84Z"/>
    <path d="M1786.69,1182.85v-26.49h11.25c2.83,0,4.89.24,6.17.71,1.28.48,2.31,1.32,3.08,2.54.77,1.22,1.16,2.61,1.16,4.17,0,1.99-.58,3.63-1.75,4.92s-2.92,2.11-5.24,2.45c1.16.67,2.11,1.42,2.86,2.22s1.77,2.24,3.04,4.3l3.23,5.17h-6.4l-3.87-5.76c-1.37-2.06-2.31-3.36-2.82-3.89s-1.04-.9-1.61-1.1c-.57-.2-1.46-.3-2.69-.3h-1.08v11.06h-5.35ZM1792.04,1167.57h3.96c2.57,0,4.17-.11,4.81-.33.64-.22,1.14-.59,1.5-1.12s.54-1.19.54-1.99c0-.89-.24-1.61-.71-2.16-.48-.55-1.15-.89-2.01-1.04-.43-.06-1.73-.09-3.9-.09h-4.17v6.72Z"/>
    <path d="M1813.39,1182.85v-26.49h19.64v4.48h-14.29v5.87h13.3v4.46h-13.3v7.21h14.8v4.46h-20.14Z"/>
    <path class="cls-18" d="M1562.84,1250.56c-2.33-2.94-4.3-6.38-5.91-10.31s-2.41-8.02-2.41-12.23c0-3.72.6-7.28,1.8-10.69,1.41-3.95,3.58-7.89,6.52-11.81h3.02c-1.89,3.25-3.14,5.57-3.75,6.96-.95,2.16-1.7,4.41-2.25,6.75-.67,2.92-1.01,5.86-1.01,8.81,0,7.52,2.34,15.02,7.01,22.52h-3.02Z"/>
    <path class="cls-18" d="M1571.11,1240.45v-34.36h12.89c2.62,0,4.73.35,6.32,1.04s2.83,1.77,3.73,3.21,1.35,2.96,1.35,4.54c0,1.47-.4,2.85-1.2,4.15s-2,2.34-3.61,3.14c2.08.61,3.68,1.65,4.79,3.12s1.68,3.2,1.68,5.2c0,1.61-.34,3.11-1.02,4.49s-1.52,2.45-2.52,3.2-2.25,1.32-3.76,1.7-3.36.57-5.54.57h-13.1ZM1575.66,1220.53h7.43c2.02,0,3.46-.13,4.34-.4,1.16-.34,2.03-.91,2.61-1.71s.88-1.8.88-3c0-1.14-.27-2.14-.82-3.01s-1.33-1.46-2.34-1.78-2.76-.48-5.23-.48h-6.87v10.38ZM1575.66,1236.4h8.55c1.47,0,2.5-.05,3.09-.16,1.05-.19,1.92-.5,2.62-.94s1.28-1.07,1.73-1.91.68-1.8.68-2.89c0-1.28-.33-2.39-.98-3.34s-1.57-1.61-2.73-1.99-2.84-.57-5.03-.57h-7.95v11.81Z"/>
    <path class="cls-18" d="M1619.02,1237.38c-1.56,1.33-3.07,2.27-4.51,2.81s-3,.82-4.65.82c-2.73,0-4.84-.67-6.3-2s-2.2-3.04-2.2-5.12c0-1.22.28-2.33.83-3.34s1.28-1.82,2.18-2.43,1.91-1.07,3.04-1.38c.83-.22,2.08-.43,3.75-.63,3.41-.41,5.91-.89,7.52-1.45.02-.58.02-.95.02-1.1,0-1.72-.4-2.93-1.2-3.63-1.08-.95-2.68-1.43-4.8-1.43-1.98,0-3.45.35-4.39,1.04s-1.64,1.93-2.1,3.69l-4.12-.56c.38-1.77.99-3.19,1.85-4.28s2.1-1.92,3.73-2.51,3.51-.88,5.65-.88,3.85.25,5.18.75,2.3,1.13,2.93,1.89,1.06,1.71,1.31,2.87c.14.72.21,2.02.21,3.89v5.62c0,3.92.09,6.4.27,7.44s.54,2.04,1.07,2.99h-4.41c-.44-.88-.72-1.9-.84-3.07ZM1618.67,1227.96c-1.53.62-3.83,1.16-6.89,1.59-1.73.25-2.96.53-3.68.84s-1.27.77-1.66,1.37-.59,1.27-.59,2c0,1.12.43,2.06,1.28,2.81s2.1,1.12,3.74,1.12,3.07-.36,4.34-1.07,2.2-1.68,2.79-2.92c.45-.95.68-2.36.68-4.22v-1.55Z"/>
    <path class="cls-18" d="M1645.71,1231.34l4.15.54c-.45,2.86-1.61,5.1-3.48,6.71s-4.16,2.43-6.88,2.43c-3.41,0-6.14-1.11-8.21-3.34s-3.11-5.42-3.11-9.57c0-2.69.45-5.04,1.34-7.05s2.25-3.53,4.07-4.54,3.8-1.51,5.94-1.51c2.7,0,4.91.68,6.63,2.05s2.82,3.31,3.3,5.82l-4.1.63c-.39-1.67-1.08-2.93-2.07-3.77s-2.19-1.27-3.6-1.27c-2.12,0-3.85.76-5.18,2.29s-1.99,3.93-1.99,7.23.64,5.77,1.92,7.29,2.95,2.27,5.02,2.27c1.66,0,3.04-.51,4.15-1.52s1.81-2.58,2.11-4.69Z"/>
    <path class="cls-18" d="M1653.5,1240.45v-34.36h4.22v19.59l9.98-10.12h5.46l-9.52,9.23,10.48,15.66h-5.2l-8.23-12.73-2.98,2.86v9.87h-4.22Z"/>
    <path class="cls-18" d="M1694.51,1232.44l4.36.54c-.69,2.55-1.96,4.52-3.82,5.93s-4.23,2.11-7.12,2.11c-3.64,0-6.53-1.12-8.66-3.36s-3.2-5.39-3.2-9.43,1.08-7.44,3.23-9.75,4.95-3.47,8.39-3.47,6.05,1.13,8.16,3.4,3.16,5.45,3.16,9.56c0,.25,0,.62-.02,1.12h-18.56c.16,2.73.93,4.83,2.32,6.28s3.12,2.18,5.2,2.18c1.55,0,2.87-.41,3.96-1.22s1.96-2.11,2.6-3.89ZM1680.66,1225.62h13.9c-.19-2.09-.72-3.66-1.59-4.71-1.34-1.62-3.09-2.44-5.23-2.44-1.94,0-3.57.65-4.89,1.95s-2.05,3.03-2.19,5.2Z"/>
    <path class="cls-18" d="M1704.17,1240.45v-24.89h3.8v3.54c1.83-2.73,4.47-4.1,7.92-4.1,1.5,0,2.88.27,4.14.81s2.2,1.25,2.82,2.12,1.06,1.91,1.31,3.12c.16.78.23,2.15.23,4.1v15.3h-4.22v-15.14c0-1.72-.16-3-.49-3.86s-.91-1.53-1.75-2.04-1.82-.76-2.94-.76c-1.8,0-3.35.57-4.65,1.71s-1.96,3.3-1.96,6.49v13.59h-4.22Z"/>
    <path class="cls-18" d="M1747.01,1240.45v-3.14c-1.58,2.47-3.9,3.7-6.96,3.7-1.98,0-3.81-.55-5.47-1.64s-2.95-2.62-3.87-4.58-1.37-4.21-1.37-6.76.41-4.74,1.24-6.76,2.07-3.57,3.73-4.65,3.51-1.62,5.55-1.62c1.5,0,2.84.32,4.01.95s2.12,1.46,2.86,2.47v-12.33h4.2v34.36h-3.91ZM1733.67,1228.03c0,3.19.67,5.57,2.02,7.15s2.93,2.37,4.76,2.37,3.41-.75,4.7-2.26,1.93-3.81,1.93-6.9c0-3.41-.66-5.91-1.97-7.5s-2.93-2.39-4.85-2.39-3.44.77-4.7,2.3-1.89,3.95-1.89,7.24Z"/>
    <path class="cls-18" d="M1760.32,1250.56h-3.02c4.67-7.5,7.01-15.01,7.01-22.52,0-2.94-.34-5.85-1.01-8.74-.53-2.34-1.27-4.59-2.23-6.75-.61-1.41-1.87-3.75-3.77-7.03h3.02c2.94,3.92,5.11,7.86,6.52,11.81,1.2,3.41,1.8,6.97,1.8,10.69,0,4.22-.81,8.3-2.43,12.23s-3.58,7.38-5.89,10.31Z"/>
  </g>
  <g>
    <path class="cls-9" d="M1730.96,989.87c0,7.17-6.4,12.98-14.28,12.98s-14.28-5.81-14.28-12.98c0,7.17-6.4,12.98-14.28,12.98s-14.28-5.81-14.28-12.98c0,7.17-6.4,12.98-14.28,12.98s-14.28-5.81-14.28-12.98c0,7.17-6.4,12.98-14.28,12.98s-14.28-5.81-14.28-12.98c0,7.17-6.4,12.98-14.28,12.98s-14.28-5.81-14.28-12.98"/>
    <path class="cls-8" d="M1588.13,989.87l14.89-47.23c.8-2.79,3.34-4.71,6.24-4.71h100.58c2.9,0,5.45,1.92,6.24,4.71l14.89,47.23"/>
    <path class="cls-9" d="M1721.22,1002.86v77.91c0,3.59-2.91,6.49-6.49,6.49h-110.37c-3.59,0-6.49-2.91-6.49-6.49v-77.91"/>
    <line class="cls-8" x1="1643.31" y1="996.37" x2="1643.31" y2="1087.26"/>
    <line class="cls-8" x1="1630.33" y1="1035.32" x2="1630.33" y2="1041.81"/>
    <line class="cls-8" x1="1682.27" y1="1022.34" x2="1662.79" y2="1041.81"/>
    <line class="cls-8" x1="1695.25" y1="1035.32" x2="1669.28" y2="1061.29"/>
    <line class="cls-8" x1="1702.4" y1="989.87" x2="1694.58" y2="937.93"/>
    <line class="cls-8" x1="1673.83" y1="989.87" x2="1669.01" y2="937.93"/>
    <line class="cls-8" x1="1645.26" y1="989.87" x2="1649.67" y2="937.93"/>
    <line class="cls-8" x1="1616.7" y1="989.87" x2="1625.05" y2="937.93"/>
  </g>
  <rect class="cls-16" x="1546.12" y="1583.59" width="219.13" height="219.13" rx="19.94" ry="19.94"/>
  <text class="cls-34" transform="translate(1480.04 1848.88)"><tspan class="cls-27" x="0" y="0">P</tspan><tspan class="cls-29" x="20.85" y="0">A</tspan><tspan x="43.02" y="0">YMENT G</tspan><tspan class="cls-27" x="203.27" y="0">A</tspan><tspan class="cls-24" x="226.06" y="0">TE</tspan><tspan class="cls-31" x="271.01" y="0">W</tspan><tspan class="cls-28" x="302.27" y="0">A</tspan><tspan class="cls-30" x="324.45" y="0">Y</tspan></text>
  <g>
    <g>
      <path class="cls-9" d="M1644.72,1700.6c-5.48,1.26-10.69,3.45-15.3,6.42"/>
      <path class="cls-9" d="M1681.95,1707.01c-4.61-2.96-9.81-5.15-15.3-6.42"/>
      <path class="cls-9" d="M1703.83,1737.77c-1.26-5.48-3.45-10.69-6.42-15.3"/>
      <path class="cls-9" d="M1613.96,1722.48c-2.96,4.61-5.15,9.81-6.42,15.3"/>
      <path class="cls-9" d="M1680.09,1751.89c.19-1.01.25-2.08.25-3.15,0-13.68-10.97-24.65-24.65-24.65s-24.65,10.97-24.65,24.65c0,1.07.06,2.14.25,3.15"/>
      <polyline class="cls-9" points="1644.72 1700.6 1644.72 1685.68 1666.65 1685.68 1666.65 1700.6"/>
      <polyline class="cls-9" points="1681.95 1707.01 1692.53 1696.38 1708.05 1711.89 1697.41 1722.48"/>
      <polyline class="cls-9" points="1703.8 1737.77 1718.74 1737.77 1718.74 1751.89"/>
      <polyline class="cls-9" points="1592.63 1751.89 1592.63 1737.77 1607.58 1737.77"/>
      <polyline class="cls-9" points="1613.96 1722.48 1603.32 1711.89 1618.84 1696.38 1629.42 1707.01"/>
    </g>
    <path class="cls-9" d="M1583.17,1632.09h145.03v118.81c0,.55-.45,1-1,1h-143.03c-.55,0-1-.45-1-1v-118.81h0Z"/>
    <line class="cls-9" x1="1583.17" y1="1657.31" x2="1728.2" y2="1657.31"/>
    <circle class="cls-4" cx="1602.09" cy="1644.7" r="3.15"/>
    <circle class="cls-4" cx="1614.7" cy="1644.7" r="3.15"/>
    <circle class="cls-4" cx="1627.31" cy="1644.7" r="3.15"/>
  </g>
  <path d="M309.01,978.37c-1.23,1.46-3.21,2.61-5.18,2.45-.25-1.97.72-4.07,1.85-5.36,1.23-1.5,3.39-2.57,5.14-2.65.21,2.06-.6,4.07-1.81,5.57M310.8,981.21c-2.86-.16-5.3,1.62-6.66,1.62s-3.45-1.54-5.71-1.5c-2.94.04-5.67,1.71-7.17,4.36-3.08,5.3-.8,13.15,2.18,17.47,1.46,2.14,3.21,4.48,5.51,4.4,2.18-.08,3.04-1.42,5.67-1.42s3.41,1.42,5.71,1.38c2.38-.04,3.88-2.14,5.34-4.27,1.66-2.43,2.34-4.79,2.38-4.91-.04-.04-4.6-1.79-4.64-7.05-.04-4.4,3.6-6.49,3.76-6.62-2.06-3.04-5.26-3.37-6.37-3.45M327.3,975.25v32.04h4.97v-10.95h6.88c6.29,0,10.71-4.32,10.71-10.56s-4.34-10.52-10.54-10.52h-12.02ZM332.28,979.44h5.73c4.32,0,6.78,2.3,6.78,6.35s-2.47,6.37-6.8,6.37h-5.71v-12.72ZM358.95,1007.53c3.12,0,6.02-1.58,7.34-4.09h.1v3.84h4.6v-15.95c0-4.62-3.7-7.6-9.39-7.6-5.28,0-9.19,3.02-9.33,7.17h4.48c.37-1.97,2.2-3.27,4.71-3.27,3.04,0,4.75,1.42,4.75,4.03v1.77l-6.21.37c-5.77.35-8.9,2.71-8.9,6.82s3.23,6.91,7.85,6.91ZM360.29,1003.73c-2.65,0-4.34-1.27-4.34-3.23s1.62-3.19,4.73-3.37l5.53-.35v1.81c0,3-2.55,5.14-5.92,5.14ZM377.14,1016c4.85,0,7.13-1.85,9.12-7.46l8.73-24.5h-5.06l-5.86,18.93h-.1l-5.86-18.93h-5.2l8.43,23.33-.45,1.42c-.76,2.4-1.99,3.33-4.19,3.33-.39,0-1.15-.04-1.46-.08v3.84c.29.08,1.52.12,1.89.12Z"/>
  <path d="M477.6,1734.87c-2.39,2.82-6.2,5.05-10.02,4.73-.48-3.82,1.39-7.87,3.58-10.38,2.39-2.9,6.56-4.97,9.94-5.13.4,3.98-1.15,7.87-3.5,10.78M481.06,1740.36c-5.53-.32-10.26,3.14-12.89,3.14s-6.68-2.98-11.06-2.9c-5.69.08-10.98,3.3-13.88,8.43-5.97,10.26-1.55,25.45,4.22,33.81,2.82,4.14,6.2,8.67,10.66,8.51,4.22-.16,5.89-2.74,10.98-2.74s6.6,2.74,11.06,2.66c4.61-.08,7.52-4.14,10.34-8.27,3.22-4.69,4.53-9.27,4.61-9.51-.08-.08-8.91-3.46-8.99-13.64-.08-8.51,6.96-12.57,7.28-12.81-3.98-5.89-10.18-6.52-12.33-6.68M512.99,1728.83v62h9.62v-21.2h13.32c12.17,0,20.72-8.35,20.72-20.44s-8.39-20.36-20.4-20.36h-23.27ZM522.62,1736.94h11.1c8.35,0,13.12,4.45,13.12,12.29s-4.77,12.33-13.16,12.33h-11.06v-24.62ZM574.24,1791.31c6.05,0,11.65-3.06,14.2-7.91h.2v7.44h8.91v-30.86c0-8.95-7.16-14.72-18.18-14.72-10.22,0-17.78,5.85-18.06,13.88h8.67c.72-3.82,4.26-6.32,9.11-6.32,5.89,0,9.19,2.74,9.19,7.8v3.42l-12.01.72c-11.18.68-17.22,5.25-17.22,13.2s6.24,13.36,15.19,13.36ZM576.83,1783.95c-5.13,0-8.39-2.47-8.39-6.24s3.14-6.16,9.15-6.52l10.7-.68v3.5c0,5.81-4.93,9.94-11.45,9.94ZM609.44,1807.7c9.39,0,13.8-3.58,17.66-14.44l16.9-47.41h-9.78l-11.33,36.63h-.2l-11.33-36.63h-10.06l16.31,45.14-.87,2.74c-1.47,4.65-3.86,6.44-8.11,6.44-.76,0-2.23-.08-2.82-.16v7.44c.56.16,2.94.24,3.66.24Z"/>
</svg>