<?xml version="1.0" encoding="UTF-8"?>
<svg id="Layer_1" data-name="Layer 1" xmlns="http://www.w3.org/2000/svg" viewBox="0 0 1997 1907">
  <defs>
    <style>
      .cls-1, .cls-2, .cls-3, .cls-4, .cls-5, .cls-6, .cls-7, .cls-8 {
        fill: none;
      }

      .cls-9 {
        fill: #ff6057;
      }

      .cls-10, .cls-11, .cls-12 {
        fill: #fff;
      }

      .cls-10, .cls-13, .cls-14, .cls-15, .cls-16, .cls-17 {
        fill-rule: evenodd;
      }

      .cls-2, .cls-11 {
        stroke: #000;
      }

      .cls-2, .cls-11, .cls-6, .cls-7 {
        stroke-miterlimit: 4.03;
        stroke-width: 1.01px;
      }

      .cls-18 {
        font-size: 40.39px;
      }

      .cls-18, .cls-19, .cls-20 {
        font-family: Helvetica, Helvetica;
        isolation: isolate;
      }

      .cls-21 {
        fill: #28c941;
      }

      .cls-13 {
        fill: #34a853;
      }

      .cls-22 {
        fill: #ff9300;
      }

      .cls-23 {
        fill: #aaa;
      }

      .cls-24 {
        fill: #4d4d4d;
      }

      .cls-25 {
        fill: #ccc;
      }

      .cls-14 {
        fill: #5f6368;
      }

      .cls-26 {
        fill: #ddd;
      }

      .cls-15 {
        fill: #e94235;
      }

      .cls-27 {
        fill: #5185ec;
      }

      .cls-28 {
        fill: #1ba9e3;
      }

      .cls-29 {
        fill: #ffbd2d;
      }

      .cls-3 {
        stroke-miterlimit: 10;
      }

      .cls-3, .cls-4 {
        stroke: #fff;
        stroke-linecap: round;
        stroke-width: 3px;
      }

      .cls-4 {
        stroke-linejoin: round;
      }

      .cls-30 {
        letter-spacing: 0em;
      }

      .cls-31 {
        fill: #bbb;
      }

      .cls-5, .cls-6 {
        stroke: #4d4d4d;
      }

      .cls-5, .cls-8 {
        stroke-miterlimit: 3.02;
        stroke-width: .76px;
      }

      .cls-32 {
        fill: #f2f2f2;
      }

      .cls-19 {
        font-size: 58.7px;
      }

      .cls-33 {
        letter-spacing: -.07em;
      }

      .cls-34 {
        letter-spacing: -.09em;
      }

      .cls-35 {
        letter-spacing: -.09em;
      }

      .cls-16 {
        fill: #fabb05;
      }

      .cls-36 {
        letter-spacing: -.02em;
      }

      .cls-20 {
        font-size: 60.58px;
      }

      .cls-37 {
        letter-spacing: -.06em;
      }

      .cls-17 {
        fill: #4285f4;
      }

      .cls-38 {
        fill: #eee;
      }

      .cls-7, .cls-8 {
        stroke: #d9d9d9;
      }

      .cls-39 {
        fill: #15c;
      }

      .cls-40 {
        font-family: Arial-BoldMT, Arial;
        font-size: 35.18px;
        font-weight: 700;
      }
    </style>
  </defs>
  <rect class="cls-12" x="1" width="1992" height="1907"/>
  <g>
    <rect class="cls-12" x="128" y="36.22" width="841.36" height="673.09" rx="5.04" ry="5.04"/>
    <rect class="cls-32" x="128" y="36.22" width="841.36" height="53.85" rx="5.04" ry="5.04"/>
    <path class="cls-32" d="M144.83,73.24h807.71c9.29,0,16.83,3.77,16.83,8.41h0c0,4.65-7.53,8.41-16.83,8.41H144.83c-9.29,0-16.83-3.77-16.83-8.41h0c0-4.65,7.53-8.41,16.83-8.41Z"/>
    <rect class="cls-6" x="128" y="36.22" width="841.36" height="673.09" rx="5.04" ry="5.04"/>
    <circle class="cls-9" cx="161.65" cy="63.14" r="10.1"/>
    <circle class="cls-29" cx="195.31" cy="63.14" r="10.1"/>
    <circle class="cls-21" cx="228.96" cy="63.14" r="10.1"/>
    <path class="cls-39" d="M216.73,112.62h-62.58v7.86h62.58v-7.86ZM220.55,151.7v-7.78l-4.05-19.69h-62.58l-4.05,19.69v7.78h4.05v23.5h39.12v-23.5h15.66v23.5h7.79v-23.5h4.05ZM185.25,167.34h-23.53v-15.64h23.53v15.64Z"/>
    <text class="cls-18" transform="translate(235.69 160.74)"><tspan x="0" y="0">Merchant Store</tspan></text>
    <path class="cls-25" d="M899.42,156.58c-2.01,0-3.73,1.73-3.73,3.74s1.62,3.78,3.73,3.78,3.77-1.73,3.77-3.78-1.72-3.74-3.77-3.74ZM888.08,126.41v3.74h3.73l6.82,14.33-2.55,4.57c-.29.5-.5,1.12-.5,1.84,0,2.02,1.72,3.74,3.73,3.74h22.51v-3.74h-21.79c-.29,0-.5-.22-.5-.5l.11-.22,1.72-3.06h13.97c1.44,0,2.66-.79,3.23-1.91l6.71-12.2c.11-.29.18-.61.18-.9,0-1.05-.79-1.94-1.9-1.94h-27.75l-1.72-3.74h-6ZM918.17,156.58c-2.01,0-3.73,1.73-3.73,3.74s1.62,3.78,3.73,3.78,3.77-1.73,3.77-3.78-1.72-3.74-3.77-3.74Z"/>
    <line class="cls-7" x1="128" y1="197.76" x2="969.36" y2="197.76"/>
    <path class="cls-23" d="M350.29,376.14c9.19,0,16.74-7.42,16.74-16.78v-84.2c0-9.21-7.55-16.78-16.74-16.78h-134.67c-9.18,0-16.74,7.57-16.74,16.78v84.2c0,9.36,7.56,16.78,16.74,16.78h-33.78v16.78h201.93v-16.78h-33.49ZM215.62,274.72h134.67v84.34h-134.67v-84.34Z"/>
    <g>
      <rect class="cls-23" x="447.72" y="271.8" width="336.55" height="26.92"/>
      <rect class="cls-26" x="447.72" y="322.28" width="454.34" height="20.19"/>
      <rect class="cls-26" x="447.72" y="355.94" width="269.24" height="20.19"/>
      <rect class="cls-38" x="447.72" y="406.42" width="454.34" height="13.46"/>
      <rect class="cls-38" x="447.72" y="433.34" width="454.34" height="13.46"/>
      <rect class="cls-38" x="447.72" y="460.27" width="454.34" height="13.46"/>
      <rect class="cls-38" x="447.72" y="487.19" width="168.27" height="13.46"/>
    </g>
    <g>
      <rect x="306.37" y="574.69" width="484.63" height="80.77" rx="3.02" ry="3.02"/>
      <g>
        <path class="cls-10" d="M443.98,604.93h7.6c1.07,0,2.07.24,2.98.71.91.47,1.64,1.12,2.19,1.95.55.83.82,1.74.82,2.74s-.25,1.87-.75,2.6-1.16,1.29-1.96,1.67v.17c1.02.36,1.84.95,2.47,1.78.63.83.95,1.8.95,2.91.02,1.05-.28,2.09-.86,2.97-.58.87-1.35,1.54-2.32,2.02-.99.48-2.08.73-3.18.72h-7.94v-20.24ZM451.44,613.41c.9,0,1.64-.28,2.19-.85.56-.57.83-1.22.83-1.95s-.27-1.38-.81-1.94c-.54-.56-1.24-.83-2.11-.83h-4.41v5.57s4.3,0,4.3,0ZM451.92,622.23c.96,0,1.73-.3,2.3-.9.58-.6.86-1.3.86-2.09s-.3-1.51-.89-2.11c-.59-.59-1.39-.89-2.39-.89h-4.66v5.99s4.78,0,4.78,0ZM466.78,625.63c-1.75,0-3.09-.52-4-1.57-.91-1.05-1.37-2.5-1.37-4.37v-8.93h3.11v8.51c0,1.17.28,2.05.83,2.63.56.59,1.29.88,2.19.88.74,0,1.39-.19,1.95-.58s1-.9,1.3-1.54c.3-.65.46-1.35.45-2.06v-7.83h3.11v14.42h-2.94v-1.87h-.17c-.4.68-1.01,1.23-1.84,1.67s-1.71.65-2.63.65ZM482.69,624.38l-5.99-13.63h3.48l4.07,9.81h.11l3.96-9.81h3.42l-8.9,20.52h-3.28l3.14-6.9ZM499.38,610.76h3.36l2.91,10.32h.11l3.25-10.32h3.19l3.22,10.32h.11l2.91-10.32h3.31l-4.61,14.42h-3.28l-3.31-10.35h-.08l-3.28,10.35h-3.22s-4.61-14.42-4.61-14.42ZM525.86,608.66c-.56.01-1.09-.21-1.48-.61-.4-.39-.62-.93-.61-1.48-.01-.56.21-1.09.61-1.48.39-.4.93-.62,1.48-.61.56-.01,1.09.21,1.48.61.4.39.62.93.61,1.48.01.56-.21,1.09-.61,1.48-.39.4-.93.62-1.48.61ZM524.31,610.76h3.11v14.42h-3.11v-14.42ZM537.36,625.4c-.64,0-1.24-.1-1.81-.31-.51-.18-.98-.45-1.39-.82-.81-.81-1.22-1.91-1.22-3.31v-7.46h-2.52v-2.74h2.52v-4.07h3.11v4.07h3.51v2.74h-3.51v6.78c0,.77.15,1.32.45,1.64.28.38.77.57,1.47.57.32,0,.6-.04.85-.13s.51-.22.79-.41v3.02c-.62.28-1.38.42-2.26.42ZM542.98,604.93h3.11v5.51l-.14,2.21h.14c.41-.68,1.03-1.24,1.85-1.68.82-.44,1.7-.66,2.64-.66,1.75,0,3.09.51,4.01,1.54.92,1.03,1.39,2.43,1.39,4.2v9.13h-3.11v-8.71c0-1.09-.29-1.91-.86-2.46-.58-.55-1.32-.82-2.25-.82-.7,0-1.32.2-1.88.59-.56.4-1.02.94-1.31,1.57-.32.65-.48,1.36-.48,2.08v7.75h-3.11v-20.24ZM608.85,604.23v8.27h5.16c1.23,0,2.24-.41,3.05-1.23.8-.76,1.25-1.81,1.24-2.91,0-1.1-.41-2.06-1.24-2.88-.8-.84-1.82-1.26-3.05-1.26h-5.16ZM608.85,615.42v9.6h-3.08v-23.7h8.17c2.08,0,3.84.69,5.29,2.05,1.47,1.37,2.21,3.03,2.21,5s-.74,3.69-2.21,5.03c-1.43,1.35-3.19,2.02-5.29,2.02h-5.09s0,0,0,0ZM624.55,620.05c0,.8.34,1.46,1.02,1.99.68.53,1.48.79,2.39.79,1.29,0,2.45-.47,3.47-1.42,1.02-.95,1.52-2.06,1.52-3.34-.96-.75-2.3-1.12-4.02-1.12-1.25,0-2.29.3-3.13.89-.84.6-1.25,1.33-1.25,2.21M628.53,608.27c2.28,0,4.07.6,5.39,1.8,1.32,1.2,1.97,2.85,1.97,4.95v10h-2.95v-2.25h-.13c-1.27,1.85-2.97,2.78-5.09,2.78-1.81,0-3.32-.53-4.54-1.59-1.22-1.06-1.83-2.38-1.83-3.97,0-1.68.64-3.01,1.92-4,1.28-.99,3-1.49,5.14-1.49,1.83,0,3.34.33,4.52.99v-.7c0-1.06-.42-1.96-1.27-2.7-.82-.73-1.88-1.13-2.98-1.11-1.72,0-3.08.72-4.08,2.15l-2.71-1.69c1.49-2.12,3.71-3.18,6.63-3.18M652.81,608.8l-10.28,23.36h-3.18l3.82-8.17-6.76-15.19h3.35l4.89,11.65h.07l4.76-11.65h3.35Z"/>
        <path class="cls-17" d="M596.4,613.35c0-.96-.08-1.88-.24-2.77h-12.99v5.24h7.44c-.31,1.7-1.3,3.19-2.75,4.14v3.4h4.44c2.6-2.37,4.1-5.88,4.1-10.02"/>
        <path class="cls-13" d="M583.17,626.65c3.72,0,6.85-1.21,9.13-3.29l-4.44-3.41c-1.23.82-2.83,1.3-4.69,1.3-3.59,0-6.64-2.39-7.73-5.62h-4.57v3.51c2.37,4.62,7.12,7.51,12.31,7.5"/>
        <path class="cls-16" d="M575.44,615.64c-.57-1.69-.57-3.52,0-5.21v-3.51h-4.57c-.97,1.89-1.47,3.99-1.47,6.11,0,2.2.53,4.27,1.47,6.11l4.57-3.51h0Z"/>
        <path class="cls-15" d="M583.17,604.81c2.03,0,3.85.69,5.29,2.04h0s3.93-3.88,3.93-3.88c-2.39-2.2-5.5-3.55-9.22-3.55-5.19-.01-9.94,2.89-12.31,7.5l4.57,3.51c1.09-3.22,4.14-5.62,7.73-5.62"/>
      </g>
    </g>
  </g>
  <g>
    <line class="cls-2" x1="498.2" y1="655.46" x2="498.2" y2="1583.5"/>
    <path d="M498.2,1641.95l-20.19-50.48h40.39l-20.19,50.48Z"/>
    <circle class="cls-11" cx="498.2" cy="790.08" r="50.48"/>
    <text class="cls-20" transform="translate(481.37 813.64)"><tspan x="0" y="0">1</tspan></text>
  </g>
  <g>
    <line class="cls-2" x1="599.16" y1="704.38" x2="599.16" y2="1686"/>
    <path d="M599.16,655.46l20.19,48.92h-40.39l20.19-48.92Z"/>
    <ellipse class="cls-11" cx="599.16" cy="1567.55" rx="50.48" ry="48.92"/>
    <text class="cls-19" transform="translate(582.33 1588.38) scale(1.03 1)"><tspan x="0" y="0">2</tspan></text>
  </g>
  <g>
    <g>
      <rect class="cls-31" x="387.55" y="1667.28" width="312.26" height="191.18"/>
      <g>
        <rect class="cls-26" x="384.36" y="1667.28" width="318.64" height="44.61"/>
        <circle class="cls-21" cx="408.26" cy="1689.59" r="7.97"/>
        <rect class="cls-25" x="667.95" y="1673.65" width="4.78" height="31.86"/>
        <rect class="cls-25" x="677.51" y="1673.65" width="4.78" height="31.86"/>
        <rect class="cls-25" x="687.07" y="1673.65" width="4.78" height="31.86"/>
      </g>
      <g>
        <rect class="cls-26" x="384.36" y="1715.08" width="318.64" height="44.61"/>
        <circle class="cls-21" cx="408.26" cy="1737.38" r="7.97"/>
        <rect class="cls-25" x="667.95" y="1721.45" width="4.78" height="31.86"/>
        <rect class="cls-25" x="677.51" y="1721.45" width="4.78" height="31.86"/>
        <rect class="cls-25" x="687.07" y="1721.45" width="4.78" height="31.86"/>
      </g>
      <g>
        <rect class="cls-26" x="384.36" y="1762.87" width="318.64" height="44.61"/>
        <circle class="cls-21" cx="408.26" cy="1785.18" r="7.97"/>
        <rect class="cls-25" x="667.95" y="1769.25" width="4.78" height="31.86"/>
        <rect class="cls-25" x="677.51" y="1769.25" width="4.78" height="31.86"/>
        <rect class="cls-25" x="687.07" y="1769.25" width="4.78" height="31.86"/>
      </g>
      <g>
        <rect class="cls-26" x="384.36" y="1810.67" width="318.64" height="44.61"/>
        <circle class="cls-21" cx="408.26" cy="1832.97" r="7.97"/>
        <rect class="cls-25" x="667.95" y="1817.04" width="4.78" height="31.86"/>
        <rect class="cls-25" x="677.51" y="1817.04" width="4.78" height="31.86"/>
        <rect class="cls-25" x="687.07" y="1817.04" width="4.78" height="31.86"/>
      </g>
    </g>
    <g>
      <path class="cls-14" d="M538.11,1731.17v20.97h12.93c3.08,0,5.63-1.04,7.64-3.11,2.07-2.06,3.11-4.53,3.11-7.38s-1.04-5.23-3.11-7.3c-2.01-2.12-4.56-3.18-7.64-3.18h-12.93ZM538.11,1759.52v24.32h-7.72v-60.05h20.49c5.2,0,9.62,1.73,13.26,5.2,3.7,3.47,5.55,7.69,5.55,12.67s-1.85,9.34-5.55,12.75c-3.58,3.42-8.01,5.12-13.27,5.12h-12.76s0,0,0,0ZM577.49,1771.26c0,2.01.85,3.69,2.56,5.03,1.71,1.34,3.71,2.01,6,2.01,3.25,0,6.14-1.2,8.69-3.6,2.55-2.41,3.82-5.23,3.82-8.47-2.41-1.9-5.77-2.85-10.08-2.85-3.13,0-5.75.76-7.85,2.27-2.1,1.51-3.15,3.37-3.15,5.61M587.48,1741.4c5.71,0,10.22,1.53,13.52,4.57,3.3,3.05,4.95,7.23,4.95,12.54v25.33h-7.39v-5.7h-.33c-3.19,4.69-7.45,7.05-12.77,7.05-4.53,0-8.33-1.35-11.38-4.03-3.05-2.69-4.58-6.04-4.58-10.07,0-4.25,1.61-7.63,4.83-10.15s7.51-3.77,12.89-3.77c4.58,0,8.37.84,11.33,2.52v-1.77c0-2.68-1.06-4.96-3.19-6.83-2.05-1.84-4.72-2.85-7.47-2.81-4.31,0-7.72,1.81-10.25,5.45l-6.8-4.28c3.75-5.37,9.3-8.05,16.63-8.05M648.36,1742.74l-25.78,59.22h-7.98l9.57-20.72-16.96-38.5h8.4l12.26,29.53h.16l11.93-29.53h8.4Z"/>
      <path class="cls-17" d="M506.89,1754.27c0-2.43-.21-4.78-.6-7.02h-32.58v13.29h18.66c-.77,4.29-3.27,8.08-6.9,10.49v8.63h11.14c6.52-6.01,10.28-14.89,10.28-25.39"/>
      <path class="cls-13" d="M473.71,1788c9.33,0,17.17-3.06,22.9-8.33l-11.14-8.63c-3.1,2.09-7.09,3.3-11.76,3.3-9.01,0-16.66-6.07-19.39-14.25h-11.47v8.89c5.87,11.66,17.81,19.02,30.87,19.02"/>
      <path class="cls-16" d="M454.32,1760.09c-1.44-4.29-1.44-8.92,0-13.21v-8.89h-11.47c-2.43,4.8-3.69,10.11-3.68,15.49,0,5.57,1.34,10.84,3.68,15.5l11.47-8.89h0Z"/>
      <path class="cls-15" d="M473.71,1732.64c5.09,0,9.66,1.75,13.25,5.18h0s9.86-9.85,9.86-9.85c-5.98-5.57-13.78-8.99-23.11-8.99-13.05,0-25,7.35-30.87,19.01l11.47,8.89c2.73-8.18,10.38-14.25,19.39-14.25"/>
      <path class="cls-1" d="M437.82,1717.63h212.04v92.45h-212.04v-92.45Z"/>
    </g>
  </g>
  <g>
    <path class="cls-2" d="M790.99,615.08h868.29v198.92"/>
    <path d="M1659.28,863.2l-20.19-50.48h40.39l-20.19,50.48Z"/>
    <circle class="cls-11" cx="1095.57" cy="615.08" r="50.48"/>
    <text class="cls-20" transform="translate(1078.74 638.63)"><tspan x="0" y="0">3</tspan></text>
  </g>
  <g>
    <line class="cls-2" x1="1659.28" y1="1257.05" x2="1659.28" y2="1509.46"/>
    <path d="M1659.28,1559.95l-20.19-50.48h40.39l-20.19,50.48Z"/>
    <circle class="cls-11" cx="1659.28" cy="1391.67" r="50.48"/>
    <text class="cls-20" transform="translate(1642.45 1415.23)"><tspan x="0" y="0">4</tspan></text>
  </g>
  <g>
    <rect class="cls-12" x="233.17" y="911.24" width="631.02" height="578.02" rx="3.78" ry="3.78"/>
    <rect class="cls-32" x="233.17" y="911.24" width="631.02" height="40.39" rx="3.78" ry="3.78"/>
    <path class="cls-32" d="M245.79,939h605.78c6.97,0,12.62,2.83,12.62,6.31h0c0,3.49-5.65,6.31-12.62,6.31H245.79c-6.97,0-12.62-2.83-12.62-6.31h0c0-3.49,5.65-6.31,12.62-6.31Z"/>
    <rect class="cls-5" x="233.17" y="911.24" width="631.02" height="550.26" rx="3.78" ry="3.78"/>
    <circle class="cls-9" cx="258.41" cy="931.43" r="7.57"/>
    <circle class="cls-29" cx="283.65" cy="931.43" r="7.57"/>
    <circle class="cls-21" cx="308.89" cy="931.43" r="7.57"/>
    <g>
      <path class="cls-14" d="M322.84,980.99v10.31h6.36c1.51,0,2.77-.51,3.76-1.53,1.02-1.01,1.53-2.23,1.53-3.63s-.51-2.57-1.53-3.59c-.99-1.04-2.24-1.56-3.76-1.56h-6.36ZM322.84,994.92v11.95h-3.8v-29.51h10.07c2.56,0,4.73.85,6.52,2.55,1.82,1.7,2.73,3.78,2.73,6.22s-.91,4.59-2.73,6.26c-1.76,1.68-3.94,2.51-6.52,2.51h-6.27s0,0,0,0ZM342.2,1000.7c0,.99.42,1.81,1.26,2.47.84.66,1.82.99,2.95.99,1.6,0,3.02-.59,4.27-1.77,1.25-1.18,1.88-2.57,1.88-4.16-1.18-.93-2.83-1.4-4.95-1.4-1.54,0-2.83.37-3.86,1.12-1.03.74-1.55,1.66-1.55,2.76M347.11,986.02c2.81,0,5.02.75,6.65,2.25,1.62,1.5,2.43,3.55,2.43,6.16v12.45h-3.63v-2.8h-.16c-1.57,2.31-3.66,3.46-6.27,3.46-2.23,0-4.09-.66-5.59-1.98-1.5-1.32-2.25-2.97-2.25-4.95,0-2.09.79-3.75,2.37-4.99s3.69-1.86,6.34-1.86c2.25,0,4.11.41,5.57,1.24v-.87c0-1.32-.52-2.44-1.57-3.36-1.01-.91-2.32-1.4-3.67-1.38-2.12,0-3.8.89-5.04,2.68l-3.34-2.11c1.84-2.64,4.57-3.96,8.17-3.96M377.03,986.68l-12.67,29.1h-3.92l4.7-10.18-8.33-18.92h4.13l6.03,14.51h.08l5.86-14.51h4.13Z"/>
      <path class="cls-17" d="M307.5,992.35c0-1.19-.1-2.35-.29-3.45h-16.01v6.53h9.17c-.38,2.11-1.61,3.97-3.39,5.15v4.24h5.47c3.21-2.95,5.05-7.32,5.05-12.48"/>
      <path class="cls-13" d="M291.19,1008.92c4.58,0,8.44-1.5,11.25-4.09l-5.47-4.24c-1.52,1.02-3.48,1.62-5.78,1.62-4.43,0-8.19-2.98-9.53-7h-5.64v4.37c2.88,5.73,8.75,9.35,15.17,9.35"/>
      <path class="cls-16" d="M281.66,995.21c-.71-2.11-.71-4.39,0-6.49v-4.37h-5.64c-1.19,2.36-1.81,4.97-1.81,7.61,0,2.74.66,5.33,1.81,7.62l5.64-4.37h0Z"/>
      <path class="cls-15" d="M291.19,981.71c2.5,0,4.75.86,6.51,2.54h0s4.85-4.84,4.85-4.84c-2.94-2.74-6.77-4.42-11.36-4.42-6.42,0-12.28,3.61-15.17,9.34l5.64,4.37c1.34-4.02,5.1-7,9.53-7"/>
      <path class="cls-1" d="M273.56,974.34h104.21v45.43h-104.21v-45.43Z"/>
    </g>
    <line class="cls-8" x1="233.17" y1="1032.39" x2="864.19" y2="1032.39"/>
    <circle class="cls-26" cx="308.89" cy="1075.3" r="20.19"/>
    <rect class="cls-38" x="371.99" y="1067.73" width="214.55" height="20.19"/>
    <line class="cls-8" x1="283.65" y1="1118.21" x2="813.71" y2="1118.21"/>
    <path class="cls-26" d="M323.01,1146.94h-28.24c-1.99,0-3.55,1.53-3.55,3.56v21.23c0,2,1.56,3.56,3.55,3.56h28.24c2.03,0,3.55-1.56,3.55-3.56v-21.23c0-2.03-1.52-3.56-3.55-3.56ZM323.01,1171.74h-28.24v-10.62h28.24v10.62ZM323.01,1154.03h-28.24v-3.53h28.24v3.53Z"/>
    <rect class="cls-38" x="371.99" y="1153.55" width="302.89" height="20.19"/>
    <line class="cls-8" x1="283.65" y1="1204.03" x2="813.71" y2="1204.03"/>
    <path class="cls-26" d="M321.77,1240.59l4.79,6.3v7.99h-3.25c0,2.65-2.15,4.76-4.79,4.76s-4.79-2.11-4.79-4.76h-9.68c0,2.65-2.15,4.76-4.79,4.76s-4.79-2.11-4.79-4.76h-3.25v-17.43c0-1.78,1.46-3.23,3.25-3.23h22.51v6.36h4.79ZM299.26,1257.27c1.37,0,2.4-1.02,2.4-2.38,0-1.27-1.12-2.38-2.4-2.38s-2.39,1.03-2.39,2.38,1.03,2.38,2.39,2.38ZM320.92,1242.98h-4v4.01h7.19l-3.19-4.01ZM318.52,1257.27c1.36,0,2.39-1.02,2.39-2.38,0-1.27-1.12-2.38-2.39-2.38s-2.4,1.03-2.4,2.38,1.03,2.38,2.4,2.38Z"/>
    <rect class="cls-38" x="371.99" y="1226.75" width="252.41" height="20.19"/>
    <rect class="cls-38" x="371.99" y="1257.04" width="176.69" height="12.62"/>
    <line class="cls-8" x1="283.65" y1="1289.85" x2="813.71" y2="1289.85"/>
    <rect class="cls-27" x="662.27" y="1365.57" width="151.45" height="60.58" rx="1.51" ry="1.51"/>
  </g>
  <rect class="cls-28" x="1542.36" y="899.21" width="224.53" height="224.53" rx="19.94" ry="19.94"/>
  <g>
    <path d="M1487.23,1182.85v-26.49h8l4.81,18.07,4.75-18.07h8.02v26.49h-4.97v-20.85l-5.26,20.85h-5.15l-5.24-20.85v20.85h-4.97Z"/>
    <path d="M1518.12,1182.85v-26.49h19.64v4.48h-14.29v5.87h13.3v4.46h-13.3v7.21h14.8v4.46h-20.14Z"/>
    <path d="M1542.82,1182.85v-26.49h11.25c2.83,0,4.89.24,6.17.71,1.28.48,2.31,1.32,3.08,2.54.77,1.22,1.16,2.61,1.16,4.17,0,1.99-.58,3.63-1.75,4.92s-2.92,2.11-5.24,2.45c1.16.67,2.11,1.42,2.86,2.22s1.77,2.24,3.04,4.3l3.23,5.17h-6.4l-3.87-5.76c-1.37-2.06-2.31-3.36-2.82-3.89s-1.04-.9-1.61-1.1c-.57-.2-1.46-.3-2.69-.3h-1.08v11.06h-5.35ZM1548.17,1167.57h3.96c2.57,0,4.17-.11,4.81-.33.64-.22,1.14-.59,1.5-1.12s.54-1.19.54-1.99c0-.89-.24-1.61-.71-2.16-.48-.55-1.15-.89-2.01-1.04-.43-.06-1.73-.09-3.9-.09h-4.17v6.72Z"/>
    <path d="M1586.47,1173.12l5.18,1.64c-.79,2.89-2.12,5.04-3.97,6.44-1.85,1.4-4.19,2.1-7.04,2.1-3.52,0-6.41-1.2-8.67-3.6-2.26-2.4-3.4-5.69-3.4-9.86,0-4.41,1.14-7.83,3.42-10.27,2.28-2.44,5.27-3.66,8.98-3.66,3.24,0,5.87.96,7.89,2.87,1.2,1.13,2.11,2.76,2.71,4.88l-5.29,1.26c-.31-1.37-.97-2.46-1.96-3.25-.99-.79-2.2-1.19-3.62-1.19-1.96,0-3.56.7-4.78,2.11-1.22,1.41-1.83,3.69-1.83,6.85,0,3.35.6,5.73,1.81,7.15s2.77,2.13,4.7,2.13c1.42,0,2.64-.45,3.67-1.36,1.02-.9,1.76-2.32,2.21-4.26Z"/>
    <path d="M1596.26,1182.85v-26.49h5.35v10.42h10.48v-10.42h5.35v26.49h-5.35v-11.58h-10.48v11.58h-5.35Z"/>
    <path d="M1646.85,1182.85h-5.82l-2.31-6.02h-10.59l-2.19,6.02h-5.67l10.32-26.49h5.65l10.61,26.49ZM1637,1172.38l-3.65-9.83-3.58,9.83h7.23Z"/>
    <path d="M1649.74,1182.85v-26.49h5.2l10.84,17.69v-17.69h4.97v26.49h-5.37l-10.68-17.27v17.27h-4.97Z"/>
    <path d="M1682.37,1182.85v-22h-7.86v-4.48h21.05v4.48h-7.84v22h-5.35Z"/>
    <path d="M1707.93,1174.24l5.2-.51c.31,1.75.95,3.03,1.91,3.85.96.82,2.25,1.23,3.88,1.23,1.72,0,3.02-.36,3.89-1.09.87-.73,1.31-1.58,1.31-2.56,0-.63-.18-1.16-.55-1.6-.37-.44-1.01-.82-1.92-1.15-.63-.22-2.05-.6-4.28-1.16-2.87-.71-4.88-1.58-6.03-2.62-1.63-1.46-2.44-3.23-2.44-5.33,0-1.35.38-2.61,1.15-3.79.76-1.17,1.87-2.07,3.31-2.68,1.44-.61,3.18-.92,5.21-.92,3.32,0,5.83.73,7.51,2.19,1.68,1.46,2.56,3.4,2.65,5.83l-5.35.24c-.23-1.36-.72-2.34-1.47-2.94-.75-.6-1.88-.89-3.39-.89s-2.77.32-3.65.96c-.57.41-.85.96-.85,1.64,0,.63.26,1.16.79,1.61.67.57,2.31,1.16,4.91,1.77,2.6.62,4.53,1.25,5.77,1.91,1.25.66,2.22,1.55,2.93,2.69.7,1.14,1.06,2.54,1.06,4.22,0,1.52-.42,2.94-1.26,4.26-.84,1.33-2.04,2.31-3.58,2.95-1.54.64-3.46.97-5.76.97-3.35,0-5.92-.77-7.71-2.32s-2.87-3.8-3.22-6.77Z"/>
    <path d="M1739.92,1182.85v-22h-7.86v-4.48h21.05v4.48h-7.84v22h-5.35Z"/>
    <path d="M1754.81,1169.77c0-2.7.4-4.96,1.21-6.79.6-1.35,1.42-2.56,2.47-3.63,1.04-1.07,2.18-1.87,3.42-2.38,1.65-.7,3.55-1.05,5.71-1.05,3.9,0,7.02,1.21,9.37,3.63s3.51,5.79,3.51,10.1-1.16,7.62-3.49,10.04c-2.32,2.42-5.43,3.62-9.32,3.62s-7.07-1.2-9.39-3.6c-2.32-2.4-3.49-5.71-3.49-9.93ZM1760.32,1169.59c0,3,.69,5.27,2.08,6.82,1.39,1.55,3.14,2.32,5.28,2.32s3.88-.77,5.25-2.3c1.37-1.54,2.05-3.84,2.05-6.91s-.67-5.3-2-6.79-3.1-2.24-5.3-2.24-3.98.76-5.33,2.27-2.02,3.79-2.02,6.84Z"/>
    <path d="M1784.69,1182.85v-26.49h11.25c2.83,0,4.89.24,6.17.71,1.28.48,2.31,1.32,3.08,2.54.77,1.22,1.16,2.61,1.16,4.17,0,1.99-.58,3.63-1.75,4.92s-2.92,2.11-5.24,2.45c1.16.67,2.11,1.42,2.86,2.22s1.77,2.24,3.04,4.3l3.23,5.17h-6.4l-3.87-5.76c-1.37-2.06-2.31-3.36-2.82-3.89s-1.04-.9-1.61-1.1c-.57-.2-1.46-.3-2.69-.3h-1.08v11.06h-5.35ZM1790.04,1167.57h3.96c2.57,0,4.17-.11,4.81-.33.64-.22,1.14-.59,1.5-1.12s.54-1.19.54-1.99c0-.89-.24-1.61-.71-2.16-.48-.55-1.15-.89-2.01-1.04-.43-.06-1.73-.09-3.9-.09h-4.17v6.72Z"/>
    <path d="M1811.39,1182.85v-26.49h19.64v4.48h-14.29v5.87h13.3v4.46h-13.3v7.21h14.8v4.46h-20.14Z"/>
    <path class="cls-24" d="M1560.84,1250.56c-2.33-2.94-4.3-6.38-5.91-10.31s-2.41-8.02-2.41-12.23c0-3.72.6-7.28,1.8-10.69,1.41-3.95,3.58-7.89,6.52-11.81h3.02c-1.89,3.25-3.14,5.57-3.75,6.96-.95,2.16-1.7,4.41-2.25,6.75-.67,2.92-1.01,5.86-1.01,8.81,0,7.52,2.34,15.02,7.01,22.52h-3.02Z"/>
    <path class="cls-24" d="M1569.11,1240.45v-34.36h12.89c2.62,0,4.73.35,6.32,1.04s2.83,1.77,3.73,3.21,1.35,2.96,1.35,4.54c0,1.47-.4,2.85-1.2,4.15s-2,2.34-3.61,3.14c2.08.61,3.68,1.65,4.79,3.12s1.68,3.2,1.68,5.2c0,1.61-.34,3.11-1.02,4.49s-1.52,2.45-2.52,3.2-2.25,1.32-3.76,1.7-3.36.57-5.54.57h-13.1ZM1573.66,1220.53h7.43c2.02,0,3.46-.13,4.34-.4,1.16-.34,2.03-.91,2.61-1.71s.88-1.8.88-3c0-1.14-.27-2.14-.82-3.01s-1.33-1.46-2.34-1.78-2.76-.48-5.23-.48h-6.87v10.38ZM1573.66,1236.4h8.55c1.47,0,2.5-.05,3.09-.16,1.05-.19,1.92-.5,2.62-.94s1.28-1.07,1.73-1.91.68-1.8.68-2.89c0-1.28-.33-2.39-.98-3.34s-1.57-1.61-2.73-1.99-2.84-.57-5.03-.57h-7.95v11.81Z"/>
    <path class="cls-24" d="M1617.02,1237.38c-1.56,1.33-3.07,2.27-4.51,2.81s-3,.82-4.65.82c-2.73,0-4.84-.67-6.3-2s-2.2-3.04-2.2-5.12c0-1.22.28-2.33.83-3.34s1.28-1.82,2.18-2.43,1.91-1.07,3.04-1.38c.83-.22,2.08-.43,3.75-.63,3.41-.41,5.91-.89,7.52-1.45.02-.58.02-.95.02-1.1,0-1.72-.4-2.93-1.2-3.63-1.08-.95-2.68-1.43-4.8-1.43-1.98,0-3.45.35-4.39,1.04s-1.64,1.93-2.1,3.69l-4.12-.56c.38-1.77.99-3.19,1.85-4.28s2.1-1.92,3.73-2.51,3.51-.88,5.65-.88,3.85.25,5.18.75,2.3,1.13,2.93,1.89,1.06,1.71,1.31,2.87c.14.72.21,2.02.21,3.89v5.62c0,3.92.09,6.4.27,7.44s.54,2.04,1.07,2.99h-4.41c-.44-.88-.72-1.9-.84-3.07ZM1616.67,1227.96c-1.53.62-3.83,1.16-6.89,1.59-1.73.25-2.96.53-3.68.84s-1.27.77-1.66,1.37-.59,1.27-.59,2c0,1.12.43,2.06,1.28,2.81s2.1,1.12,3.74,1.12,3.07-.36,4.34-1.07,2.2-1.68,2.79-2.92c.45-.95.68-2.36.68-4.22v-1.55Z"/>
    <path class="cls-24" d="M1643.71,1231.34l4.15.54c-.45,2.86-1.61,5.1-3.48,6.71s-4.16,2.43-6.88,2.43c-3.41,0-6.14-1.11-8.21-3.34s-3.11-5.42-3.11-9.57c0-2.69.45-5.04,1.34-7.05s2.25-3.53,4.07-4.54,3.8-1.51,5.94-1.51c2.7,0,4.91.68,6.63,2.05s2.82,3.31,3.3,5.82l-4.1.63c-.39-1.67-1.08-2.93-2.07-3.77s-2.19-1.27-3.6-1.27c-2.12,0-3.85.76-5.18,2.29s-1.99,3.93-1.99,7.23.64,5.77,1.92,7.29,2.95,2.27,5.02,2.27c1.66,0,3.04-.51,4.15-1.52s1.81-2.58,2.11-4.69Z"/>
    <path class="cls-24" d="M1651.5,1240.45v-34.36h4.22v19.59l9.98-10.12h5.46l-9.52,9.23,10.48,15.66h-5.2l-8.23-12.73-2.98,2.86v9.87h-4.22Z"/>
    <path class="cls-24" d="M1692.51,1232.44l4.36.54c-.69,2.55-1.96,4.52-3.82,5.93s-4.23,2.11-7.12,2.11c-3.64,0-6.53-1.12-8.66-3.36s-3.2-5.39-3.2-9.43,1.08-7.44,3.23-9.75,4.95-3.47,8.39-3.47,6.05,1.13,8.16,3.4,3.16,5.45,3.16,9.56c0,.25,0,.62-.02,1.12h-18.56c.16,2.73.93,4.83,2.32,6.28s3.12,2.18,5.2,2.18c1.55,0,2.87-.41,3.96-1.22s1.96-2.11,2.6-3.89ZM1678.66,1225.62h13.9c-.19-2.09-.72-3.66-1.59-4.71-1.34-1.62-3.09-2.44-5.23-2.44-1.94,0-3.57.65-4.89,1.95s-2.05,3.03-2.19,5.2Z"/>
    <path class="cls-24" d="M1702.17,1240.45v-24.89h3.8v3.54c1.83-2.73,4.47-4.1,7.92-4.1,1.5,0,2.88.27,4.14.81s2.2,1.25,2.82,2.12,1.06,1.91,1.31,3.12c.16.78.23,2.15.23,4.1v15.3h-4.22v-15.14c0-1.72-.16-3-.49-3.86s-.91-1.53-1.75-2.04-1.82-.76-2.94-.76c-1.8,0-3.35.57-4.65,1.71s-1.96,3.3-1.96,6.49v13.59h-4.22Z"/>
    <path class="cls-24" d="M1745.01,1240.45v-3.14c-1.58,2.47-3.9,3.7-6.96,3.7-1.98,0-3.81-.55-5.47-1.64s-2.95-2.62-3.87-4.58-1.37-4.21-1.37-6.76.41-4.74,1.24-6.76,2.07-3.57,3.73-4.65,3.51-1.62,5.55-1.62c1.5,0,2.84.32,4.01.95s2.12,1.46,2.86,2.47v-12.33h4.2v34.36h-3.91ZM1731.67,1228.03c0,3.19.67,5.57,2.02,7.15s2.93,2.37,4.76,2.37,3.41-.75,4.7-2.26,1.93-3.81,1.93-6.9c0-3.41-.66-5.91-1.97-7.5s-2.93-2.39-4.85-2.39-3.44.77-4.7,2.3-1.89,3.95-1.89,7.24Z"/>
    <path class="cls-24" d="M1758.32,1250.56h-3.02c4.67-7.5,7.01-15.01,7.01-22.52,0-2.94-.34-5.85-1.01-8.74-.53-2.34-1.27-4.59-2.23-6.75-.61-1.41-1.87-3.75-3.77-7.03h3.02c2.94,3.92,5.11,7.86,6.52,11.81,1.2,3.41,1.8,6.97,1.8,10.69,0,4.22-.81,8.3-2.43,12.23s-3.58,7.38-5.89,10.31Z"/>
  </g>
  <g>
    <path class="cls-4" d="M1728.96,989.87c0,7.17-6.4,12.98-14.28,12.98s-14.28-5.81-14.28-12.98c0,7.17-6.4,12.98-14.28,12.98s-14.28-5.81-14.28-12.98c0,7.17-6.4,12.98-14.28,12.98s-14.28-5.81-14.28-12.98c0,7.17-6.4,12.98-14.28,12.98s-14.28-5.81-14.28-12.98c0,7.17-6.4,12.98-14.28,12.98s-14.28-5.81-14.28-12.98"/>
    <path class="cls-3" d="M1586.13,989.87l14.89-47.23c.8-2.79,3.34-4.71,6.24-4.71h100.58c2.9,0,5.45,1.92,6.24,4.71l14.89,47.23"/>
    <path class="cls-4" d="M1719.22,1002.86v77.91c0,3.59-2.91,6.49-6.49,6.49h-110.37c-3.59,0-6.49-2.91-6.49-6.49v-77.91"/>
    <line class="cls-3" x1="1641.31" y1="996.37" x2="1641.31" y2="1087.26"/>
    <line class="cls-3" x1="1628.33" y1="1035.32" x2="1628.33" y2="1041.81"/>
    <line class="cls-3" x1="1680.27" y1="1022.34" x2="1660.79" y2="1041.81"/>
    <line class="cls-3" x1="1693.25" y1="1035.32" x2="1667.28" y2="1061.29"/>
    <line class="cls-3" x1="1700.4" y1="989.87" x2="1692.58" y2="937.93"/>
    <line class="cls-3" x1="1671.83" y1="989.87" x2="1667.01" y2="937.93"/>
    <line class="cls-3" x1="1643.26" y1="989.87" x2="1647.67" y2="937.93"/>
    <line class="cls-3" x1="1614.7" y1="989.87" x2="1623.05" y2="937.93"/>
  </g>
  <rect class="cls-22" x="1544.12" y="1583.59" width="219.13" height="219.13" rx="19.94" ry="19.94"/>
  <text class="cls-40" transform="translate(1478.04 1848.88)"><tspan class="cls-33" x="0" y="0">P</tspan><tspan class="cls-35" x="20.85" y="0">A</tspan><tspan x="43.02" y="0">YMENT G</tspan><tspan class="cls-33" x="203.27" y="0">A</tspan><tspan class="cls-30" x="226.06" y="0">TE</tspan><tspan class="cls-37" x="271.01" y="0">W</tspan><tspan class="cls-34" x="302.27" y="0">A</tspan><tspan class="cls-36" x="324.45" y="0">Y</tspan></text>
  <g>
    <g>
      <path class="cls-4" d="M1642.72,1700.6c-5.48,1.26-10.69,3.45-15.3,6.42"/>
      <path class="cls-4" d="M1679.95,1707.01c-4.61-2.96-9.81-5.15-15.3-6.42"/>
      <path class="cls-4" d="M1701.83,1737.77c-1.26-5.48-3.45-10.69-6.42-15.3"/>
      <path class="cls-4" d="M1611.96,1722.48c-2.96,4.61-5.15,9.81-6.42,15.3"/>
      <path class="cls-4" d="M1678.09,1751.89c.19-1.01.25-2.08.25-3.15,0-13.68-10.97-24.65-24.65-24.65s-24.65,10.97-24.65,24.65c0,1.07.06,2.14.25,3.15"/>
      <polyline class="cls-4" points="1642.72 1700.6 1642.72 1685.68 1664.65 1685.68 1664.65 1700.6"/>
      <polyline class="cls-4" points="1679.95 1707.01 1690.53 1696.38 1706.05 1711.89 1695.41 1722.48"/>
      <polyline class="cls-4" points="1701.8 1737.77 1716.74 1737.77 1716.74 1751.89"/>
      <polyline class="cls-4" points="1590.63 1751.89 1590.63 1737.77 1605.58 1737.77"/>
      <polyline class="cls-4" points="1611.96 1722.48 1601.32 1711.89 1616.84 1696.38 1627.42 1707.01"/>
    </g>
    <path class="cls-4" d="M1581.17,1632.09h145.03v118.81c0,.55-.45,1-1,1h-143.03c-.55,0-1-.45-1-1v-118.81h0Z"/>
    <line class="cls-4" x1="1581.17" y1="1657.31" x2="1726.2" y2="1657.31"/>
    <circle class="cls-12" cx="1600.09" cy="1644.7" r="3.15"/>
    <circle class="cls-12" cx="1612.7" cy="1644.7" r="3.15"/>
    <circle class="cls-12" cx="1625.31" cy="1644.7" r="3.15"/>
  </g>
</svg>