<?xml version="1.0" encoding="utf-8"?>
<!-- Generator: Adobe Illustrator 28.2.0, SVG Export Plug-In . SVG Version: 6.00 Build 0)  -->
<svg version="1.1" id="Layer_1" xmlns="http://www.w3.org/2000/svg" xmlns:xlink="http://www.w3.org/1999/xlink" x="0px" y="0px"
	 viewBox="0 0 700 320" style="enable-background:new 0 0 700 320;" xml:space="preserve">
<style type="text/css">
	.st0{clip-path:url(#SVGID_00000046340440796396471620000008910927108882317976_);}
	.st1{fill:url(#SVGID_00000130617817033159870700000008877778309893467545_);}
	
		.st2{opacity:0.41;clip-path:url(#SVGID_00000133498627820114098920000007573119746945616815_);fill:#C5CAE9;enable-background:new    ;}
	.st3{clip-path:url(#SVGID_00000022536116874159996180000011389986723735391629_);}
	.st4{opacity:0.5;fill:#FFFFFF;enable-background:new    ;}
	.st5{opacity:0.56;}
	.st6{fill:#C5CAE9;}
	.st7{fill:#242B5B;}
	.st8{fill:url(#SVGID_00000156559060033079435370000007500913444209656960_);}
	.st9{fill:url(#SVGID_00000160177884226025030880000016790475917900207744_);}
	.st10{fill:url(#SVGID_00000053503537640274076160000011998795692785827746_);}
	.st11{fill:url(#SVGID_00000139973312560028739520000013249301250090805640_);}
	.st12{fill:url(#SVGID_00000178183078020863068420000014304916917098892185_);}
	.st13{fill:url(#SVGID_00000008831541682046157550000015156063847392403872_);}
	.st14{opacity:0.35;}
	.st15{fill:url(#SVGID_00000026139799291194779480000013223518433356699317_);}
	.st16{fill:url(#SVGID_00000130607297354479375690000003637073873408353720_);}
	.st17{fill:url(#SVGID_00000139286517262707353690000010748079890265083579_);}
	.st18{fill:url(#SVGID_00000113316722766948789000000009353471913609275038_);}
	.st19{fill:#7986CB;}
	.st20{opacity:0.6;fill:#7986CB;enable-background:new    ;}
	.st21{fill:url(#SVGID_00000106148226574314776420000004478648088937318812_);}
	.st22{fill:url(#SVGID_00000145030257992488071130000008519724768956527271_);}
	.st23{fill:#0078C0;}
	.st24{fill:url(#SVGID_00000040552905683080778500000010577579304604433070_);}
	.st25{fill:#EAEEF1;}
	.st26{opacity:0.2;}
	.st27{fill:#FFFFFF;}
	.st28{fill:url(#SVGID_00000083083469608744894130000006183430570321663653_);}
	.st29{fill:url(#SVGID_00000118359595438819400990000005123593517779884475_);}
	.st30{opacity:0.57;fill:#FB8C00;enable-background:new    ;}
	.st31{fill:none;stroke:#5C6BC0;stroke-width:2;stroke-linecap:round;stroke-linejoin:round;stroke-miterlimit:10;}
	.st32{fill:url(#SVGID_00000056399598144921384820000004905977573933052564_);}
	.st33{fill:url(#SVGID_00000022561496342367701220000001526835434560427665_);}
	.st34{fill:url(#SVGID_00000008135795126593172990000013654008514184963251_);}
	.st35{fill:url(#SVGID_00000023242636958493668640000002317675261321901967_);}
	.st36{fill:url(#SVGID_00000107567585688931931980000016478665256682011809_);}
	.st37{opacity:0.24;}
	.st38{clip-path:url(#SVGID_00000151514896236605023080000009583328546019987388_);}
	.st39{enable-background:new    ;}
</style>
<g>
	<g>
		<defs>
			<path id="SVGID_1_" d="M682.9,320H17.1C7.7,320,0,312.3,0,302.9V17.1C0,7.7,7.7,0,17.1,0h665.8c9.4,0,17.1,7.7,17.1,17.1v285.8
				C700,312.3,692.3,320,682.9,320z"/>
		</defs>
		<clipPath id="SVGID_00000163773995561898821610000001157858507433794729_">
			<use xlink:href="#SVGID_1_"  style="overflow:visible;"/>
		</clipPath>
		<g style="clip-path:url(#SVGID_00000163773995561898821610000001157858507433794729_);">
			
				<linearGradient id="SVGID_00000161612388545573219290000001744335609197843339_" gradientUnits="userSpaceOnUse" x1="350" y1="-53.6489" x2="350" y2="413.0511" gradientTransform="matrix(1 0 0 -1 0 320.5511)">
				<stop  offset="0" style="stop-color:#C5CAE9"/>
				<stop  offset="1" style="stop-color:#E8EAF6"/>
			</linearGradient>
			<rect y="-92.5" style="fill:url(#SVGID_00000161612388545573219290000001744335609197843339_);" width="700" height="466.7"/>
			<g>
				<g>
					<defs>
						<rect id="SVGID_00000026853037015407982150000016673628422652981894_" y="-92.5" width="700" height="466.7"/>
					</defs>
					<clipPath id="SVGID_00000025414258696762240500000002608967683524400788_">
						<use xlink:href="#SVGID_00000026853037015407982150000016673628422652981894_"  style="overflow:visible;"/>
					</clipPath>
					
						<circle style="opacity:0.41;clip-path:url(#SVGID_00000025414258696762240500000002608967683524400788_);fill:#C5CAE9;enable-background:new    ;" cx="350" cy="216" r="268.3"/>
				</g>
			</g>
		</g>
	</g>
	<g>
		<defs>
			<path id="SVGID_00000137111102285854389480000009365794723229347221_" d="M682.9,320H17.1C7.7,320,0,312.3,0,302.9V17.1
				C0,7.7,7.7,0,17.1,0h665.8c9.4,0,17.1,7.7,17.1,17.1v285.8C700,312.3,692.3,320,682.9,320z"/>
		</defs>
		<clipPath id="SVGID_00000046325934431902059310000006393486987572992142_">
			<use xlink:href="#SVGID_00000137111102285854389480000009365794723229347221_"  style="overflow:visible;"/>
		</clipPath>
		<g style="clip-path:url(#SVGID_00000046325934431902059310000006393486987572992142_);">
			<g>
				<path class="st4" d="M576.7,91.4L576.7,91.4c0-3.9-3.1-7-7-7H348.9c-3.9,0-7,3.1-7,7l0,0c0,3.9,3.1,7,7,7h162.4c3.9,0,7,3.1,7,7
					l0,0c0,3.9-3.1,7-7,7H404.6c-3.9,0-7,3.1-7,7l0,0c0,3.9,3.1,7,7,7h58.7c3.9,0,7,3.1,7,7l0,0c0,3.9-3.1,7-7,7h-21.5
					c-3.9,0-7,3.1-7,7l0,0c0,3.9,3.1,7,7,7h116.3c3.9,0,7-3.1,7-7l0,0c0-3.9-3.1-7-7-7H520c-3.9,0-7-3.1-7-7l0,0c0-3.9,3.1-7,7-7
					h94.8c3.9,0,7-3.1,7-7l0,0c0-3.9-3.1-7-7-7h-67.5c-3.9,0-7-3.1-7-7l0,0c0-3.9,3.1-7,7-7h22.3C573.5,98.4,576.7,95.2,576.7,91.4z
					"/>
				<path class="st4" d="M293.6,176.6L293.6,176.6c0-3.9-3.1-7-7-7h-152c-3.9,0-7,3.1-7,7l0,0c0,3.9,3.1,7,7,7h50.7c3.9,0,7,3.1,7,7
					l0,0c0,3.9-3.1,7-7,7h-117c-3.9,0-7,3.1-7,7l0,0c0,3.9,3.1,7,7,7h84.8c3.9,0,7,3.1,7,7l0,0c0,3.9-3.1,7-7,7h-21.5
					c-3.9,0-7,3.1-7,7l0,0c0,3.9,3.1,7,7,7h120.1c3.9,0,7-3.1,7-7l0,0c0-3.9-3.1-7-7-7h-38.2c-3.9,0-7-3.1-7-7l0,0c0-3.9,3.1-7,7-7
					h130.3c3.9,0,7-3.1,7-7l0,0c0-3.9-3.1-7-7-7H220.5c-3.9,0-7-3.1-7-7l0,0c0-3.9,3.1-7,7-7h66.2
					C290.5,183.6,293.6,180.5,293.6,176.6z"/>
			</g>
			<g>
				<g class="st5">
					<path class="st6" d="M583.9,255.4v-8.3l-14.6-3.1c-0.6-3.9-1.6-7.6-3-11.2l11.1-9.9l-4.2-7.2l-14.2,4.6c-2.4-3-5.2-5.8-8.2-8.2
						l4.6-14.2l-7.2-4.2l-9.9,11.1c-3.5-1.4-7.3-2.4-11.2-3l-3.1-14.6h-8.3l-3.1,14.6c-3.9,0.6-7.6,1.6-11.2,3l-9.9-11.1l-7.2,4.2
						l4.6,14.2c-3,2.4-5.8,5.2-8.2,8.2l-14.2-4.6l-4.2,7.2l11.1,9.9c-1.4,3.5-2.4,7.3-3,11.2l-14.6,3.1v8.3l14.6,3.1
						c0.6,3.9,1.6,7.6,3,11.2l-11.1,9.9l4.2,7.2l14.2-4.6c2.4,3,5.2,5.8,8.2,8.2l-4.6,14.2l7.2,4.2l9.9-11.1c3.5,1.4,7.3,2.4,11.2,3
						l3.1,14.6h8.3l3.1-14.6c3.9-0.6,7.6-1.6,11.2-3l9.9,11.1l7.2-4.2l-4.6-14.2c3-2.4,5.8-5.2,8.2-8.2l14.2,4.6l4.2-7.2l-11.1-9.9
						c1.4-3.5,2.4-7.3,3-11.2L583.9,255.4z M556.3,251.3c0,20.1-16.3,36.4-36.4,36.4c-20.1,0-36.4-16.3-36.4-36.4
						s16.3-36.4,36.4-36.4C540,214.9,556.3,231.2,556.3,251.3z"/>
					
						<ellipse transform="matrix(0.5034 -0.8641 0.8641 0.5034 41.1097 574.0526)" class="st6" cx="520" cy="251.3" rx="15.9" ry="15.9"/>
				</g>
				<g>
					<rect x="167.2" y="188.6" class="st7" width="91.9" height="87.7"/>
					<g>
						
							<linearGradient id="SVGID_00000113342349431639605680000011950609229754847370_" gradientUnits="userSpaceOnUse" x1="155.8" y1="131.9011" x2="270.5" y2="131.9011" gradientTransform="matrix(1 0 0 -1 0 320.5511)">
							<stop  offset="0" style="stop-color:#FF9100"/>
							<stop  offset="1" style="stop-color:#FFC46E"/>
						</linearGradient>
						<path style="fill:url(#SVGID_00000113342349431639605680000011950609229754847370_);" d="M270.5,196.1H155.8l0,0
							c0-8.2,6.7-14.9,14.9-14.9h84.9C263.8,181.2,270.5,187.9,270.5,196.1L270.5,196.1z"/>
						
							<linearGradient id="SVGID_00000158002947293805503280000003000113350947425971_" gradientUnits="userSpaceOnUse" x1="155.8" y1="110.0011" x2="270.5" y2="110.0011" gradientTransform="matrix(1 0 0 -1 0 320.5511)">
							<stop  offset="0" style="stop-color:#FF9100"/>
							<stop  offset="1" style="stop-color:#FFC46E"/>
						</linearGradient>
						
							<rect x="155.8" y="203.1" style="fill:url(#SVGID_00000158002947293805503280000003000113350947425971_);" width="114.7" height="14.9"/>
						
							<linearGradient id="SVGID_00000170985484703829004180000006190737587178914720_" gradientUnits="userSpaceOnUse" x1="155.8" y1="88.1012" x2="270.5" y2="88.1012" gradientTransform="matrix(1 0 0 -1 0 320.5511)">
							<stop  offset="0" style="stop-color:#FF9100"/>
							<stop  offset="1" style="stop-color:#FFC46E"/>
						</linearGradient>
						
							<rect x="155.8" y="225" style="fill:url(#SVGID_00000170985484703829004180000006190737587178914720_);" width="114.7" height="14.9"/>
						
							<linearGradient id="SVGID_00000087385967216447849910000009354768573883838341_" gradientUnits="userSpaceOnUse" x1="155.8" y1="66.2012" x2="270.5" y2="66.2012" gradientTransform="matrix(1 0 0 -1 0 320.5511)">
							<stop  offset="0" style="stop-color:#FF9100"/>
							<stop  offset="1" style="stop-color:#FFC46E"/>
						</linearGradient>
						
							<rect x="155.8" y="246.9" style="fill:url(#SVGID_00000087385967216447849910000009354768573883838341_);" width="114.7" height="14.9"/>
						
							<linearGradient id="SVGID_00000127745377866718078580000004455873271922203835_" gradientUnits="userSpaceOnUse" x1="155.8" y1="44.2012" x2="270.5" y2="44.2012" gradientTransform="matrix(1 0 0 -1 0 320.5511)">
							<stop  offset="0" style="stop-color:#FF9100"/>
							<stop  offset="1" style="stop-color:#FFC46E"/>
						</linearGradient>
						<path style="fill:url(#SVGID_00000127745377866718078580000004455873271922203835_);" d="M255.6,283.8h-84.9
							c-8.2,0-14.9-6.7-14.9-14.9l0,0h114.7l0,0C270.5,277.1,263.8,283.8,255.6,283.8z"/>
					</g>
					
						<linearGradient id="SVGID_00000026128114559112127630000009625466004777586859_" gradientUnits="userSpaceOnUse" x1="155.8" y1="44.2012" x2="270.5" y2="44.2012" gradientTransform="matrix(1 0 0 -1 0 320.5511)">
						<stop  offset="0" style="stop-color:#FF9100"/>
						<stop  offset="1" style="stop-color:#FFC46E"/>
					</linearGradient>
					<path style="fill:url(#SVGID_00000026128114559112127630000009625466004777586859_);" d="M255.6,283.8h-84.9
						c-8.2,0-14.9-6.7-14.9-14.9l0,0h114.7l0,0C270.5,277.1,263.8,283.8,255.6,283.8z"/>
					<g>
						<path class="st7" d="M177.9,188.6c0,1.3-1.1,2.4-2.4,2.4c-1.3,0-2.4-1.1-2.4-2.4c0-1.3,1.1-2.4,2.4-2.4
							C176.9,186.2,177.9,187.3,177.9,188.6z"/>
						<path class="st7" d="M188.7,188.6c0,1.3-1.1,2.4-2.4,2.4c-1.3,0-2.4-1.1-2.4-2.4c0-1.3,1.1-2.4,2.4-2.4
							C187.6,186.2,188.7,187.3,188.7,188.6z"/>
						<path class="st7" d="M199.4,188.6c0,1.3-1.1,2.4-2.4,2.4c-1.3,0-2.4-1.1-2.4-2.4c0-1.3,1.1-2.4,2.4-2.4
							C198.4,186.2,199.4,187.3,199.4,188.6z"/>
					</g>
					<g class="st14">
						
							<linearGradient id="SVGID_00000125601401339941207060000009570423878236881322_" gradientUnits="userSpaceOnUse" x1="155.7885" y1="131.9011" x2="270.4911" y2="131.9011" gradientTransform="matrix(1 0 0 -1 0 320.5511)">
							<stop  offset="0" style="stop-color:#FF9100"/>
							<stop  offset="1" style="stop-color:#FFC46E"/>
						</linearGradient>
						<path style="fill:url(#SVGID_00000125601401339941207060000009570423878236881322_);" d="M270.5,196.1
							c0-8.2-6.7-14.9-14.9-14.9h-59.5l14.9,14.9H270.5L270.5,196.1z"/>
						
							<linearGradient id="SVGID_00000156573866424401352460000004138819187182770319_" gradientUnits="userSpaceOnUse" x1="155.7886" y1="110.0011" x2="270.4913" y2="110.0011" gradientTransform="matrix(1 0 0 -1 0 320.5511)">
							<stop  offset="0" style="stop-color:#FF9100"/>
							<stop  offset="1" style="stop-color:#FFC46E"/>
						</linearGradient>
						<polygon style="fill:url(#SVGID_00000156573866424401352460000004138819187182770319_);" points="270.5,203.1 218,203.1 
							232.9,218 270.5,218 						"/>
						
							<linearGradient id="SVGID_00000122717268207844829220000000525384086632141482_" gradientUnits="userSpaceOnUse" x1="155.7887" y1="88.1012" x2="270.4916" y2="88.1012" gradientTransform="matrix(1 0 0 -1 0 320.5511)">
							<stop  offset="0" style="stop-color:#FF9100"/>
							<stop  offset="1" style="stop-color:#FFC46E"/>
						</linearGradient>
						<polygon style="fill:url(#SVGID_00000122717268207844829220000000525384086632141482_);" points="270.5,225 239.9,225 
							254.8,239.9 270.5,239.9 						"/>
						
							<linearGradient id="SVGID_00000033359519561215250470000012586889895416118457_" gradientUnits="userSpaceOnUse" x1="155.7877" y1="69.3011" x2="270.4913" y2="69.3011" gradientTransform="matrix(1 0 0 -1 0 320.5511)">
							<stop  offset="0" style="stop-color:#FF9100"/>
							<stop  offset="1" style="stop-color:#FFC46E"/>
						</linearGradient>
						<polygon style="fill:url(#SVGID_00000033359519561215250470000012586889895416118457_);" points="270.5,246.9 261.8,246.9 
							270.5,255.6 						"/>
					</g>
				</g>
				<g>
					<polygon class="st19" points="392,299.2 308,299.2 319.8,241.5 380.2,241.5 					"/>
					<polygon class="st20" points="385.7,267.8 314.3,267.8 319.8,241.5 380.2,241.5 					"/>
					
						<linearGradient id="SVGID_00000132068041136462723480000009349791476632354983_" gradientUnits="userSpaceOnUse" x1="278" y1="19.5011" x2="422" y2="19.5011" gradientTransform="matrix(1 0 0 -1 0 320.5511)">
						<stop  offset="0" style="stop-color:#CCD1EC"/>
						<stop  offset="1" style="stop-color:#FFFFFF"/>
					</linearGradient>
					<path style="fill:url(#SVGID_00000132068041136462723480000009349791476632354983_);" d="M422,307.6H278l0,0
						c0-7.2,5.9-13.1,13.1-13.1h117.8C416.1,294.5,422,300.3,422,307.6L422,307.6z"/>
					
						<linearGradient id="SVGID_00000110440174764513240700000002752407002101262765_" gradientUnits="userSpaceOnUse" x1="350" y1="58.6512" x2="350" y2="243.6511" gradientTransform="matrix(1 0 0 -1 0 320.5511)">
						<stop  offset="0" style="stop-color:#CCD1EC"/>
						<stop  offset="1" style="stop-color:#FFFFFF"/>
					</linearGradient>
					<path style="fill:url(#SVGID_00000110440174764513240700000002752407002101262765_);" d="M477.1,261.9H222.9
						c-8,0-14.4-6.5-14.4-14.4V91.3c0-8,6.5-14.4,14.4-14.4h254.2c8,0,14.4,6.5,14.4,14.4v156.1
						C491.5,255.4,485.1,261.9,477.1,261.9z"/>
					<rect x="216.1" y="90.1" class="st23" width="267.8" height="141.2"/>
					
						<linearGradient id="SVGID_00000149347744767300972430000014977266848341583780_" gradientUnits="userSpaceOnUse" x1="350" y1="89.2512" x2="350" y2="230.4511" gradientTransform="matrix(1 0 0 -1 0 320.5511)">
						<stop  offset="0" style="stop-color:#3949AB"/>
						<stop  offset="1" style="stop-color:#5C6BC0"/>
					</linearGradient>
					
						<rect x="216.1" y="90.1" style="fill:url(#SVGID_00000149347744767300972430000014977266848341583780_);" width="267.8" height="141.2"/>
					<rect x="216.1" y="90.1" class="st20" width="267.8" height="9.5"/>
					<circle class="st25" cx="350" cy="246.6" r="6"/>
					<g class="st26">
						<polygon class="st27" points="483.9,90.1 296.4,90.1 437.6,231.3 483.9,231.3 						"/>
					</g>
				</g>
				<g>
					<g>
						
							<linearGradient id="SVGID_00000107570951113648604270000002732240030443736963_" gradientUnits="userSpaceOnUse" x1="237.95" y1="150.4772" x2="237.95" y2="264.3373" gradientTransform="matrix(1 0 0 -1 0 320.5511)">
							<stop  offset="0" style="stop-color:#CCD1EC"/>
							<stop  offset="1" style="stop-color:#FFFFFF"/>
						</linearGradient>
						<path style="fill:url(#SVGID_00000107570951113648604270000002732240030443736963_);" d="M324.3,144.2H151.5
							c-3,0-5.4-2.4-5.4-5.4V62.6c0-3,2.4-5.4,5.4-5.4h172.9c3,0,5.4,2.4,5.4,5.4v76.2C329.8,141.8,327.3,144.2,324.3,144.2z"/>
						<g>
							
								<linearGradient id="SVGID_00000061438880478217938810000010075483624776467877_" gradientUnits="userSpaceOnUse" x1="152.3" y1="251.2512" x2="323.4" y2="251.2512" gradientTransform="matrix(1 0 0 -1 0 320.5511)">
								<stop  offset="0" style="stop-color:#FF9100"/>
								<stop  offset="1" style="stop-color:#FFC46E"/>
							</linearGradient>
							<path style="fill:url(#SVGID_00000061438880478217938810000010075483624776467877_);" d="M317.6,75.2H158.2
								c-3.2,0-5.9-2.6-5.9-5.9l0,0c0-3.2,2.6-5.9,5.9-5.9h159.3c3.2,0,5.9,2.6,5.9,5.9l0,0C323.4,72.6,320.8,75.2,317.6,75.2z"/>
							<path class="st30" d="M158.2,65.7h159.3c2.9,0,5.2,2.1,5.8,4.8c0.1-0.4,0.1-0.7,0.1-1.1c0-3.2-2.6-5.9-5.9-5.9H158.2
								c-3.2,0-5.9,2.6-5.9,5.9c0,0.4,0,0.7,0.1,1.1C153,67.7,155.4,65.7,158.2,65.7z"/>
							<circle class="st27" cx="158.6" cy="69.3" r="1.7"/>
							<circle class="st27" cx="166.8" cy="69.3" r="1.7"/>
							<circle class="st27" cx="175" cy="69.3" r="1.7"/>
						</g>
						<g>
							<g>
								<g>
									<polyline class="st31" points="177.6,120.8 163.5,112.4 177.6,104.1 									"/>
									<polyline class="st31" points="205.5,104.1 219.6,112.4 205.5,120.8 									"/>
								</g>
								<line class="st31" x1="202.4" y1="97.6" x2="180.7" y2="127.3"/>
							</g>
							<g>
								<path class="st6" d="M313.5,104.2h-81.4c-1.2,0-2.3-1-2.3-2.3l0,0c0-1.2,1-2.3,2.3-2.3h81.4c1.2,0,2.3,1,2.3,2.3l0,0
									C315.8,103.2,314.8,104.2,313.5,104.2z"/>
								<path class="st6" d="M313.5,114.7h-81.4c-1.2,0-2.3-1-2.3-2.3l0,0c0-1.2,1-2.3,2.3-2.3h81.4c1.2,0,2.3,1,2.3,2.3l0,0
									C315.8,113.7,314.8,114.7,313.5,114.7z"/>
								<path class="st6" d="M313.5,125.2h-81.4c-1.2,0-2.3-1-2.3-2.3l0,0c0-1.2,1-2.3,2.3-2.3h81.4c1.2,0,2.3,1,2.3,2.3l0,0
									C315.8,124.2,314.8,125.2,313.5,125.2z"/>
							</g>
						</g>
					</g>
				</g>
				
					<linearGradient id="SVGID_00000157288631489004054290000017745714019934535089_" gradientUnits="userSpaceOnUse" x1="380.7037" y1="240.2475" x2="272.6124" y2="348.3387" gradientTransform="matrix(1 0 0 -1 0 320.5511)">
					<stop  offset="0" style="stop-color:#FFFFFF"/>
					<stop  offset="1" style="stop-color:#DFE2F3"/>
				</linearGradient>
				<path style="fill:url(#SVGID_00000157288631489004054290000017745714019934535089_);" d="M349.5,11V5.7l-9.3-2
					c-0.4-2.5-1-4.9-1.9-7.1l7.1-6.3l-2.7-4.6l-9,2.9c-1.5-1.9-3.3-3.7-5.2-5.2l2.9-9l-4.6-2.7l-6.3,7.1c-2.3-0.9-4.7-1.5-7.1-1.9
					l-2-9.3h-5.3l-2,9.3c-2.5,0.4-4.9,1-7.1,1.9l-6.3-7.1l-4.6,2.7l2.9,9c-1.9,1.5-3.7,3.3-5.2,5.2l-9-2.9l-2.7,4.6l7.1,6.3
					c-0.9,2.3-1.5,4.7-1.9,7.1l-9.3,2V11l9.3,2c0.4,2.5,1,4.9,1.9,7.1l-7.1,6.3l2.7,4.6l9-2.9c1.5,1.9,3.3,3.7,5.2,5.2l-2.9,9
					l4.6,2.7l6.3-7.1c2.3,0.9,4.7,1.5,7.1,1.9l2,9.3h5.3l2-9.3c2.5-0.4,4.9-1,7.1-1.9l6.3,7.1l4.6-2.7l-2.9-9
					c1.9-1.5,3.7-3.3,5.2-5.2l9,2.9l2.7-4.6l-7.1-6.3c0.9-2.3,1.5-4.7,1.9-7.1L349.5,11z M331.9,8.3c0,12.8-10.4,23.2-23.2,23.2
					c-12.8,0-23.2-10.4-23.2-23.2s10.4-23.2,23.2-23.2C321.6-14.8,331.9-4.4,331.9,8.3z"/>
				
					<linearGradient id="SVGID_00000129188176803094114890000012253414722608266389_" gradientUnits="userSpaceOnUse" x1="389.1037" y1="248.6474" x2="281.0121" y2="356.7391" gradientTransform="matrix(1 0 0 -1 0 320.5511)">
					<stop  offset="0" style="stop-color:#FFFFFF"/>
					<stop  offset="1" style="stop-color:#DFE2F3"/>
				</linearGradient>
				<path style="fill:url(#SVGID_00000129188176803094114890000012253414722608266389_);" d="M386.8,50.4v-2.7l-4.7-1
					c-0.2-1.3-0.5-2.5-1-3.6l3.6-3.2l-1.3-2.3l-4.6,1.5c-0.8-1-1.7-1.9-2.6-2.6l1.5-4.6l-2.3-1.3l-3.2,3.6c-1.1-0.5-2.4-0.8-3.6-1
					l-1-4.7h-2.7l-1,4.7c-1.3,0.2-2.5,0.5-3.6,1l-3.2-3.6l-2.3,1.3l1.5,4.6c-1,0.8-1.9,1.7-2.6,2.6l-4.6-1.5l-1.3,2.3l3.6,3.2
					c-0.5,1.1-0.8,2.4-1,3.6l-4.7,1v2.7l4.7,1c0.2,1.3,0.5,2.5,1,3.6l-3.6,3.2l1.3,2.3l4.6-1.5c0.8,1,1.7,1.9,2.6,2.6l-1.5,4.6
					l2.3,1.3l3.2-3.6c1.1,0.5,2.4,0.8,3.6,1l1,4.7h2.7l1-4.7c1.3-0.2,2.5-0.5,3.6-1l3.2,3.6l2.3-1.3l-1.5-4.6c1-0.8,1.9-1.7,2.6-2.6
					l4.6,1.5l1.3-2.3l-3.6-3.2c0.5-1.1,0.8-2.4,1-3.6L386.8,50.4z M377.9,49.1c0,6.5-5.3,11.8-11.8,11.8s-11.8-5.3-11.8-11.8
					s5.3-11.8,11.8-11.8S377.9,42.6,377.9,49.1z"/>
				<g>
					<g>
						
							<linearGradient id="SVGID_00000145041214658863333550000014595371983886136489_" gradientUnits="userSpaceOnUse" x1="430.2" y1="212.4355" x2="430.2" y2="302.7293" gradientTransform="matrix(1 0 0 -1 0 320.5511)">
							<stop  offset="0" style="stop-color:#C445C0"/>
							<stop  offset="1" style="stop-color:#FF3EFF"/>
						</linearGradient>
						
							<rect x="400.1" y="20.4" style="fill:url(#SVGID_00000145041214658863333550000014595371983886136489_);" width="60.2" height="89.8"/>
						
							<linearGradient id="SVGID_00000143604279138216187920000008170394586754726818_" gradientUnits="userSpaceOnUse" x1="472.8946" y1="4464.8462" x2="394.4072" y2="4343.4922" gradientTransform="matrix(1 0 0 0.1143 0 -486.6921)">
							<stop  offset="0" style="stop-color:#CCD1EC"/>
							<stop  offset="1" style="stop-color:#FFFFFF"/>
						</linearGradient>
						<path style="fill:url(#SVGID_00000143604279138216187920000008170394586754726818_);" d="M454.9,10.9h-49.5
							c-3,0-5.4,2.4-5.4,5.4v4.1h60.2v-4.1C460.3,13.4,457.9,10.9,454.9,10.9z"/>
						
							<linearGradient id="SVGID_00000097481615383586225300000012262204555318556044_" gradientUnits="userSpaceOnUse" x1="118.0537" y1="4772.8335" x2="39.5656" y2="4651.479" gradientTransform="matrix(1 0 0 0.1143 0 -486.6921)">
							<stop  offset="0" style="stop-color:#CCD1EC"/>
							<stop  offset="1" style="stop-color:#FFFFFF"/>
						</linearGradient>
						<path style="fill:url(#SVGID_00000097481615383586225300000012262204555318556044_);" d="M460.3,109.7h-60.2v4.1
							c0,3,2.4,5.4,5.4,5.4H455c3,0,5.4-2.4,5.4-5.4L460.3,109.7L460.3,109.7z"/>
						<g class="st37">
							<polygon class="st27" points="460.3,20.4 400.1,20.4 400.1,36 460.3,96.2 							"/>
						</g>
					</g>
					<g>
						<g>
							<path class="st27" d="M430.2,73.7c-11.9,0-21.6-9.7-21.6-21.6s9.7-21.6,21.6-21.6s21.6,9.7,21.6,21.6
								C451.9,64,442.2,73.7,430.2,73.7z M430.2,31.7c-11.2,0-20.3,9.1-20.3,20.3s9.1,20.3,20.3,20.3c11.2,0,20.3-9.1,20.3-20.3
								S441.4,31.7,430.2,31.7z"/>
						</g>
						<g>
							<path class="st27" d="M430.2,73.7c-6.4,0-11.4-9.5-11.4-21.6s5-21.6,11.4-21.6s11.4,9.5,11.4,21.6S436.6,73.7,430.2,73.7z
								 M430.2,31.7c-5.5,0-10,9.1-10,20.3s4.5,20.3,10,20.3s10-9.1,10-20.3C440.3,40.8,435.8,31.7,430.2,31.7z"/>
						</g>
						<g>
							<path class="st27" d="M430.2,73.2c-0.4,0-0.7,0.2-0.7-0.2V31c0-0.4,0.3-0.2,0.7-0.2c0.4,0,0.7-0.2,0.7,0.2v42
								C430.9,73.4,430.6,73.2,430.2,73.2z"/>
						</g>
						<g>
							<path class="st27" d="M451.2,52.7h-42c-0.4,0-0.7-0.3-0.7-0.7s0.3-0.7,0.7-0.7h42c0.4,0,0.7,0.3,0.7,0.7
								C451.9,52.4,451.6,52.7,451.2,52.7z"/>
						</g>
						<g>
							<path class="st27" d="M430.2,73.7c-5.3,0-10.3-1.9-14.3-5.4c-0.3-0.2-0.3-0.6-0.1-0.9c3.7-4.6,8.9-7.2,14.4-7.2
								s10.7,2.6,14.4,7.2c0.2,0.3,0.2,0.7-0.1,0.9C440.6,71.7,435.5,73.7,430.2,73.7z M417.3,67.7c3.6,3,8.2,4.7,12.9,4.7
								c4.7,0,9.3-1.7,12.9-4.7c-3.4-3.9-8.1-6.2-12.9-6.2C425.4,61.5,420.7,63.7,417.3,67.7z"/>
						</g>
						<g>
							<path class="st27" d="M430.2,43.9c-5.5,0-10.7-2.6-14.4-7.2c-0.2-0.3-0.2-0.7,0.1-0.9c4-3.5,9-5.4,14.3-5.4
								s10.3,1.9,14.3,5.4c0.3,0.2,0.3,0.6,0.1,0.9C440.9,41.3,435.7,43.9,430.2,43.9z M417.3,36.4c3.4,3.9,8.1,6.2,12.9,6.2
								c4.9,0,9.5-2.2,12.9-6.2c-3.6-3-8.2-4.7-12.9-4.7S420.9,33.4,417.3,36.4z"/>
						</g>
					</g>
					<polygon class="st27" points="449.6,88.8 433.6,79.5 435,97.9 439.4,92.6 442.6,97.7 446.1,95.5 442.9,90.4 					"/>
				</g>
			</g>
		</g>
	</g>
	<g>
		<defs>
			<path id="SVGID_00000080923786493893734080000014799729900608736187_" d="M682.9,320H17.1C7.7,320,0,312.3,0,302.9V17.1
				C0,7.7,7.7,0,17.1,0h665.8c9.4,0,17.1,7.7,17.1,17.1v285.8C700,312.3,692.3,320,682.9,320z"/>
		</defs>
		<clipPath id="SVGID_00000178170872960363273850000018022269521067103114_">
			<use xlink:href="#SVGID_00000080923786493893734080000014799729900608736187_"  style="overflow:visible;"/>
		</clipPath>
		<g style="clip-path:url(#SVGID_00000178170872960363273850000018022269521067103114_);">
			<g class="st39">
				<path class="st27" d="M300.4,205H292l15.3-38.6c1.6-4.1,4.6-5.6,9.1-5.6c4.5,0,7.5,1.5,9,5.6l14.7,38.6h-8.4l-13.2-35
					c-0.4-1-1.1-1.5-2.1-1.5c-1,0-1.7,0.5-2.2,1.5L300.4,205z"/>
				<path class="st27" d="M368.7,161.5c9.8,0,14,6.1,14,13c0,6.6-3.8,13.7-14,13.7h-13.5c-0.7,0-1.1,0.3-1.1,1.1V205h-7.6v-17.2
					c0-4.9,2.1-6.9,6.8-6.9H369c4.3,0,6.1-3,6.1-6c0-3.2-1.9-5.8-6-5.8h-22.6v-7.6H368.7z"/>
				<path class="st27" d="M397.9,161.5V205h-7.6v-43.5H397.9z"/>
			</g>
		</g>
	</g>
</g>
</svg>
