<?xml version="1.0" encoding="UTF-8"?>
<svg id="Layer_1" data-name="Layer 1" xmlns="http://www.w3.org/2000/svg" xmlns:xlink="http://www.w3.org/1999/xlink" viewBox="0 0 449.28 87.34">
  <defs>
    <style>
      .cls-1 {
        fill: url(#linear-gradient);
        stroke-width: 0px;
      }
    </style>
    <linearGradient id="linear-gradient" x1="-454" y1="423.89" x2="-454" y2="424.59" gradientTransform="translate(232675.16 42261.87) scale(512 -99.54)" gradientUnits="userSpaceOnUse">
      <stop offset="0" stop-color="#28b4e9"/>
      <stop offset="1" stop-color="#48c7ed"/>
    </linearGradient>
  </defs>
  <path class="cls-1" d="M44.53,45.53c0,6.71-2,12.36-6,16.94-4.18,4.79-9.61,7.2-16.26,7.2s-12.08-2.41-16.26-7.2C2.01,57.9,0,52.24,0,45.53s2.01-12.38,6.02-16.94c4.23-4.75,9.66-7.12,16.26-7.12s12.08,2.37,16.26,7.12c4,4.56,6,10.21,6,16.94h0ZM31.3,45.53c0-3.04-.73-5.61-2.18-7.68-1.63-2.36-3.91-3.53-6.84-3.53s-5.21,1.17-6.84,3.53c-1.47,2.07-2.2,4.64-2.2,7.68s.73,5.62,2.2,7.76c1.63,2.36,3.91,3.53,6.84,3.53s5.21-1.17,6.84-3.53c1.46-2.14,2.18-4.73,2.18-7.76ZM92.39,45.53c0,6.27-1.8,11.75-5.43,16.43-3.88,5.13-8.88,7.71-14.96,7.71-4.29,0-7.93-1.25-10.91-3.72,0,.57.06,1.95.19,4.15.13,2.21.19,4.02.19,5.44,0,7.87-2.34,11.8-7.03,11.8-1.92,0-3.48-.68-4.73-2.03-1.23-1.36-1.85-2.99-1.85-4.92V29.21c0-1.87.63-3.48,1.9-4.84,1.27-1.35,2.83-2.03,4.7-2.03,2.82,0,4.88,1.41,6.17,4.21,2.77-3.39,6.55-5.08,11.35-5.08,6.1,0,11.08,2.53,14.98,7.61,3.61,4.7,5.43,10.18,5.43,16.45ZM79.16,45.53c0-3.04-.74-5.61-2.2-7.68-1.63-2.36-3.91-3.53-6.84-3.53s-5.21,1.17-6.84,3.53c-1.46,2.07-2.18,4.64-2.18,7.68s.73,5.62,2.18,7.76c1.63,2.36,3.91,3.53,6.84,3.53s5.21-1.17,6.84-3.53c1.46-2.14,2.2-4.73,2.2-7.76ZM140.55,44.11c0,2.21-.52,3.73-1.57,4.59-1.04.84-2.67,1.27-4.88,1.27h-23.89c0,2.53,1.19,4.48,3.56,5.84,1.92,1.06,4.26,1.6,7.03,1.6,2.15,0,4.73-.72,7.76-2.12,3.02-1.43,4.97-2.12,5.81-2.12,1.53,0,2.83.55,3.91,1.69,1.06,1.12,1.6,2.49,1.6,4.05,0,3.62-2.71,6.44-8.12,8.47-4.13,1.52-8.33,2.29-12.62,2.29-6.9,0-12.48-2.29-16.73-6.87-4.26-4.58-6.4-10.32-6.4-17.27s2.22-12.27,6.65-16.99c4.42-4.72,9.91-7.08,16.46-7.08,6.1,0,11.19,2.23,15.28,6.7,4.08,4.47,6.14,9.78,6.14,15.94ZM127.31,40.78c-.06-2.03-1-3.86-2.8-5.53-1.81-1.66-3.72-2.48-5.75-2.48s-4.04.82-5.84,2.48c-1.8,1.66-2.71,3.5-2.71,5.53h17.1ZM185.02,61.85c0,1.93-.62,3.56-1.85,4.92-1.25,1.35-2.82,2.03-4.73,2.03-4.62,0-6.93-3.67-6.93-11,0-1.41.1-3.62.29-6.68.21-3.04.3-5.27.3-6.68,0-7.77-2.52-11.67-7.54-11.67s-7.52,3.89-7.52,11.67c0,1.41.08,3.64.22,6.68.16,3.06.24,5.27.24,6.68,0,7.33-2.28,11-6.84,11-1.92,0-3.48-.68-4.72-2.03-1.25-1.36-1.87-2.99-1.87-4.92V29.2c0-1.92.62-3.55,1.87-4.86,1.24-1.33,2.82-1.99,4.73-1.99,3.17,0,5.37,1.41,6.6,4.21,2.14-3.39,5.92-5.08,11.34-5.08,5.02,0,9.01,1.33,11.94,3.97,2.99,2.84,4.48,6.73,4.48,11.68v24.73ZM226.54,60.45c0,2.99-1.94,5.36-5.84,7.11-3.1,1.41-6.38,2.12-9.83,2.12-6.67,0-12.08-2.41-16.26-7.2-4-4.58-6.02-10.23-6.02-16.94s2.04-12.41,6.14-17.07c4.1-4.67,9.47-7,16.13-7,3.85,0,7.16.57,9.91,1.69,3.84,1.52,5.76,3.89,5.76,7.12,0,1.63-.5,3.07-1.52,4.32-1.01,1.23-2.31,1.87-3.89,1.87-1.08,0-2.63-.36-4.66-1.07-2.03-.73-3.64-1.08-4.83-1.08-3.15,0-5.61,1.12-7.36,3.37-1.63,2.03-2.45,4.62-2.45,7.84,0,3.02.73,5.59,2.2,7.66,1.63,2.42,3.93,3.62,6.85,3.62,1.3,0,3.07-.38,5.33-1.16,2.27-.76,3.9-1.15,4.91-1.15,1.47,0,2.74.63,3.82,1.87,1.06,1.25,1.6,2.59,1.6,4.07ZM274.65,61.85c0,1.93-.62,3.56-1.85,4.92-1.25,1.35-2.83,2.03-4.75,2.03-2.88,0-4.94-1.41-6.17-4.21-2.77,3.39-6.55,5.08-11.35,5.08-6.14,0-11.18-2.58-15.07-7.71-3.55-4.69-5.33-10.16-5.33-16.43s1.79-11.75,5.33-16.45c3.96-5.08,8.98-7.61,15.07-7.61,4.8,0,8.58,1.69,11.35,5.08,1.24-2.8,3.29-4.21,6.17-4.21,1.87,0,3.44.68,4.71,2.03,1.26,1.36,1.9,2.96,1.9,4.83v32.66ZM261.42,45.53c0-3.04-.73-5.61-2.18-7.68-1.69-2.36-3.97-3.53-6.84-3.53s-5.21,1.17-6.84,3.53c-1.47,2.07-2.2,4.64-2.2,7.68s.71,5.62,2.12,7.76c1.68,2.36,3.99,3.53,6.92,3.53s5.21-1.17,6.84-3.53c1.46-2.14,2.18-4.73,2.18-7.76ZM308.42,28.32c0,2.83-1.38,4.78-4.13,5.84-2.55.86-5.08,1.73-7.61,2.63-2.77,1.58-4.15,4.53-4.15,8.8v16.26c0,1.93-.63,3.56-1.87,4.92-1.25,1.35-2.84,2.03-4.75,2.03s-3.52-.68-4.75-2.03c-1.25-1.36-1.87-2.99-1.87-4.92V29.2c0-1.92.62-3.55,1.85-4.86,1.25-1.33,2.84-1.99,4.75-1.99,3.16,0,5.36,1.41,6.6,4.21,2.84-3.39,5.87-5.08,9.15-5.08,1.87,0,3.47.68,4.8,2.03,1.31,1.36,1.98,2.98,1.98,4.83ZM342.95,28.92c0,2.94-1.16,4.8-3.45,5.59-1.13.39-3.49.6-7.08.6v26.74c0,1.93-.63,3.56-1.87,4.92-1.25,1.35-2.84,2.03-4.75,2.03s-3.45-.68-4.72-2.03c-1.26-1.36-1.9-2.99-1.9-4.92v-26.74c-2.72,0-4.7-.35-5.95-1.03-1.71-.95-2.55-2.68-2.55-5.16s.87-4.18,2.63-5.08c1.19-.67,3.15-1.01,5.87-1.01v-5.67c0-6.66,2.2-9.99,6.62-9.99s6.62,3.32,6.62,9.99v5.67c3.59,0,5.95.21,7.08.6,2.29.79,3.45,2.63,3.45,5.49ZM449.28,20.89c-.04-4.06-7.54-5.91-26.98-5.91-45.61,0-57.18-1.95-69.56-14.98,5.21,7.82,8.06,22.5,56.27,21.77,50.3-.77,19.61,12.97,10.69,28.5,16.1-14.37,29.55-23.84,29.59-29.32v-.06h0ZM385.19,62.61c0,3.8-3.08,6.89-6.89,6.89s-6.9-3.09-6.9-6.89,3.09-6.9,6.9-6.9,6.89,3.09,6.89,6.9ZM416.59,62.61c0,3.8-3.08,6.89-6.89,6.89s-6.9-3.09-6.9-6.89,3.09-6.9,6.9-6.9,6.89,3.09,6.89,6.9Z"/>
</svg>