<?xml version="1.0" encoding="UTF-8"?>
<svg id="Layer_1" data-name="Layer 1" xmlns="http://www.w3.org/2000/svg" xmlns:xlink="http://www.w3.org/1999/xlink" viewBox="0 0 43 13.89">
  <defs>
    <style>
      .cls-1 {
        fill: url(#linear-gradient);
        stroke-width: 0px;
      }
    </style>
    <linearGradient id="linear-gradient" x1="-.92" y1="23.18" x2="-.9" y2="23.01" gradientTransform="translate(255 -1902.37) scale(256 82.67)" gradientUnits="userSpaceOnUse">
      <stop offset="0" stop-color="#222357"/>
      <stop offset="1" stop-color="#254aa5"/>
    </linearGradient>
  </defs>
  <path class="cls-1" d="M22.24,4.44c-.02,1.93,1.72,3.01,3.04,3.66,1.35.66,1.81,1.08,1.8,1.67-.01.9-1.08,1.3-2.08,1.31-1.75.03-2.76-.47-3.57-.85l-.63,2.94c.81.37,2.31.7,3.86.71,3.65,0,6.04-1.8,6.05-4.59.01-3.54-4.9-3.74-4.87-5.32.01-.48.47-.99,1.47-1.12.5-.07,1.87-.12,3.43.6l.61-2.85c-.84-.3-1.91-.6-3.25-.6-3.43,0-5.85,1.83-5.87,4.44M37.23.25c-.67,0-1.23.39-1.48.99l-5.21,12.45h3.65l.73-2.01h4.46l.42,2.01h3.21L40.2.25h-2.97M37.74,3.87l1.05,5.04h-2.88l1.83-5.04M17.82.25l-2.87,13.43h3.47L21.29.25h-3.47M12.68.25l-3.62,9.14-1.46-7.77c-.17-.87-.85-1.37-1.6-1.37H.08l-.08.39c1.21.26,2.59.69,3.43,1.14.51.28.66.52.83,1.18l2.77,10.72h3.67L16.33.25h-3.65"/>
</svg>