<?xml version="1.0" encoding="UTF-8"?>
<svg id="Layer_1" data-name="Layer 1" xmlns="http://www.w3.org/2000/svg" viewBox="0 0 445.09 89.79">
  <defs>
    <style>
      .cls-1 {
        fill: #9c5c8f;
      }

      .cls-1, .cls-2, .cls-3 {
        fill-rule: evenodd;
        stroke-width: 0px;
      }

      .cls-2 {
        fill: #fff;
      }
    </style>
  </defs>
  <path class="cls-1" d="M1.12,8.54C3.18,3.54,8.37,0,13.81.01,54.69,0,95.58.02,136.47,0c3.55-.08,7.1,1.24,9.71,3.64,3,2.68,4.7,6.69,4.62,10.7-.01,15.67.03,31.34-.02,47.01-.03,7.08-6.22,13.4-13.29,13.6-14.91.06-29.83,0-44.74.03,2,4.94,4.03,9.87,6.03,14.81-8.88-4.89-17.68-9.96-26.61-14.74-19.61-.17-39.24.01-58.86-.1-7.07-.2-13.23-6.51-13.27-13.58C-.02,46.03.04,30.68,0,15.34c-.05-2.3.16-4.66,1.11-6.79h0Z"/>
  <path class="cls-2" d="M61.09,9.69c2.27-2.41,6.56-1.63,8.23,1.1.91,1.43.98,3.34.26,4.86-3.15,6.2-4.47,13.1-5.68,19.89-1.43,8.85-2.63,17.81-2.16,26.79.13,2.29-.98,5.07-3.44,5.6-2.32.52-4.44-1-5.9-2.65-6.68-7.18-10.46-16.48-13.18-25.77-2.75,5.44-5.52,10.87-8.19,16.35-1.87,3.7-3.84,7.48-6.83,10.43-1.26,1.25-3.39,2.38-5.02,1.1-2.45-2.14-3.05-5.55-4.09-8.49-3.94-13.6-6.18-27.61-8.47-41.55-.52-2.32.45-5.11,2.77-6.04,1.87-.7,4.27-.8,5.87.58,1.11.99,1.42,2.53,1.63,3.94,1.61,10.8,3.52,21.56,6.13,32.16,4.47-8.47,8.91-16.95,13.36-25.43.66-1.24,1.45-2.49,2.67-3.26,1.63-1.04,4.04-.97,5.4.49,1.14,1.2,1.52,2.86,1.84,4.44,1.33,7.01,3.13,13.95,5.75,20.59,1.13-10.01,2.51-20.14,6.16-29.6.83-1.9,1.55-3.92,2.89-5.53h0ZM86.19,15.05c4.81-.59,10,1.01,13.27,4.66,2.67,3.02,4.17,6.94,4.67,10.91.82,6.79-.41,13.84-3.67,19.86-1.84,3.43-4.26,6.72-7.66,8.74-4.99,3.03-11.67,2.66-16.49-.54-3.85-2.64-6.01-7.13-6.89-11.6-1.77-10.13,1.26-21.42,8.93-28.49,2.2-1.9,4.95-3.19,7.84-3.54h0ZM87.2,25.47c-2.31.77-3.77,2.88-5.01,4.85-3.11,5.01-4.01,11.62-1.51,17.07.66,1.43,1.72,2.94,3.38,3.24,1.77.29,3.42-.72,4.71-1.82,2.84-2.44,4.26-6.1,4.95-9.7.77-4.1.38-8.63-2.03-12.14-.96-1.43-2.86-2.08-4.49-1.5h0ZM124.76,15.06c4.7-.58,9.8.87,13.09,4.37,2.94,3.17,4.54,7.42,4.99,11.69.69,6.56-.51,13.34-3.63,19.17-1.87,3.53-4.34,6.92-7.84,8.97-4.79,2.87-11.11,2.61-15.85-.22-3.2-1.93-5.34-5.22-6.56-8.68-3.36-10.59-.52-23.05,7.23-31.04,2.32-2.27,5.34-3.85,8.58-4.26h0ZM125.78,25.48c-2.52.9-4.04,3.31-5.35,5.49-2.84,5.01-3.54,11.45-.97,16.71.69,1.45,1.92,2.92,3.66,3,1.89.07,3.52-1.13,4.83-2.36,2.85-2.81,4.16-6.83,4.61-10.74.47-3.65-.14-7.58-2.27-10.65-.97-1.43-2.89-2.04-4.52-1.45h0Z"/>
  <path class="cls-3" d="M176.2,16.45c4.1-.91,8.41-.78,12.49.17.02,3.34,0,6.68,0,10.02-3.35-.81-7.09-1.56-10.34,0-3.88,1.9-6,6.28-6.04,10.48-.22,4.19,1.18,8.85,4.89,11.21,3.41,2.26,7.76,1.78,11.5.7,0,3.34,0,6.68,0,10.02-4.95,1.43-10.35,1.26-15.18-.54-5.8-2.18-10.41-7.18-12.18-13.11-1.34-4.5-1.51-9.38-.43-13.95,1.75-7.34,7.94-13.35,15.29-14.99h0ZM206.32,15.95c5.04-.56,10.53.21,14.61,3.45,3.93,3.05,5.9,7.97,6.58,12.78.69,5.26.54,10.74-1.09,15.82-1.38,4.32-4.28,8.31-8.46,10.27-4.24,2-9.19,2.13-13.7,1.11-4.18-.94-7.87-3.71-9.95-7.46-2.87-5.05-3.4-11.04-3.18-16.74.24-4.92,1.48-10.04,4.78-13.83,2.59-3.08,6.43-4.96,10.4-5.41h0ZM207.88,25.53c-2.17.55-3.39,2.69-3.94,4.7-1.07,3.98-.89,8.17-.62,12.25.26,2.2.5,4.63,2.07,6.35,2.08,2.37,6.27,2.05,8.18-.38,1.27-1.55,1.59-3.6,1.88-5.52.41-3.43.51-6.92-.01-10.35-.37-2.05-.93-4.22-2.44-5.75-1.3-1.35-3.34-1.76-5.12-1.3h0ZM405.73,16.62c4.28-1.12,8.82-.96,13.13-.04.1,3.35.02,6.7.04,10.05-3.28-.79-6.9-1.52-10.11-.11-3.69,1.68-5.92,5.64-6.21,9.59-.45,4.43.77,9.53,4.67,12.12,3.42,2.35,7.86,1.89,11.65.8-.04,3.36.1,6.73-.08,10.09-5.27,1.37-11.01,1.19-16.04-.99-5.52-2.4-9.8-7.39-11.39-13.19-1.22-4.45-1.36-9.24-.23-13.72,1.76-7.01,7.59-12.77,14.56-14.59h0ZM234.17,16.95c4.77,0,9.54,0,14.31,0,1.73,7.74,3.37,15.5,4.8,23.29,1.37-7.83,3.2-15.56,5.04-23.29,4.89,0,9.78,0,14.68,0,1.9,14,3.79,28,5.67,42-3.74,0-7.48,0-11.23,0-1.04-9.59-1.96-19.19-3.06-28.77-2.27,9.6-4.66,19.18-6.98,28.77-2.55,0-5.11,0-7.66,0-2.45-9.6-4.86-19.22-7.32-28.82-.96,9.61-1.92,19.22-2.89,28.83-3.58,0-7.16,0-10.73,0,1.78-14,3.58-28,5.36-42h0ZM285.51,16.95c4.77,0,9.55,0,14.32,0,1.72,7.73,3.35,15.47,4.79,23.26,1.38-7.81,3.2-15.54,5.05-23.26h14.62c1.89,14,3.78,28,5.67,42-3.74,0-7.48,0-11.22,0-1.04-9.59-2.01-19.19-3.03-28.78-2.33,9.59-4.62,19.19-6.96,28.78-2.55,0-5.1,0-7.65,0-2.45-9.61-4.88-19.23-7.32-28.85-.98,9.61-1.92,19.23-2.9,28.85-3.58,0-7.16,0-10.74,0,1.79-14,3.58-28,5.36-42h0ZM333.15,17.09c7.66-.17,15.33-.02,23-.07.01,2.98,0,5.96.01,8.94-3.87.04-7.74,0-11.6.02,0,2.56,0,5.12,0,7.69,3.35,0,6.7,0,10.04,0,0,2.9,0,5.8,0,8.7-3.35,0-6.7,0-10.04,0,0,2.56,0,5.13,0,7.69,3.88,0,7.77,0,11.65,0,0,2.98,0,5.96,0,8.95-7.67,0-15.33,0-22.99,0-.05-13.98.08-27.96-.07-41.93h0ZM359.47,16.95c4.8.02,9.59-.04,14.39.03,4.52.14,9.31,1.27,12.69,4.47,3.05,2.83,4.1,7.46,2.92,11.4-.93,3.2-3.34,5.81-6.34,7.21,3,6.31,6.03,12.59,9.04,18.89-3.99,0-7.98,0-11.97,0-3.13-6.43-6.16-12.91-9.33-19.32-.08,6.44,0,12.88-.03,19.32-3.79,0-7.57,0-11.36,0,0-14,0-28,0-42h0ZM370.77,25.02c0,3.34-.01,6.68,0,10.03,2.05-.14,4.28-.22,6.03-1.46,2.01-1.45,1.79-4.55.52-6.42-1.57-1.92-4.29-1.96-6.55-2.14h0ZM422.08,16.96c7.65-.02,15.3,0,22.95,0,0,2.99,0,5.97,0,8.96-3.88,0-7.76,0-11.65,0,0,2.56,0,5.11,0,7.68,3.35,0,6.7,0,10.04,0,0,2.9,0,5.81,0,8.71-3.35,0-6.69,0-10.04,0-.01,2.56,0,5.12,0,7.69,3.9,0,7.79,0,11.7,0,0,2.98,0,5.96,0,8.95-7.66,0-15.33,0-22.99,0-.01-14,0-28,0-41.99h0Z"/>
</svg>