<?xml version="1.0" encoding="UTF-8"?>
<svg id="Layer_1" data-name="Layer 1" xmlns="http://www.w3.org/2000/svg" viewBox="0 0 1997 868">
  <defs>
    <style>
      .cls-1 {
        font-size: 25.9px;
      }

      .cls-1, .cls-2, .cls-3 {
        font-family: Arial-BoldMT, Arial;
        font-weight: 700;
      }

      .cls-1, .cls-4 {
        fill: #fff;
      }

      .cls-5, .cls-6, .cls-7 {
        stroke-miterlimit: 10;
      }

      .cls-5, .cls-6, .cls-7, .cls-8 {
        fill: none;
      }

      .cls-5, .cls-8 {
        stroke: #fff;
        stroke-linecap: round;
        stroke-width: 3px;
      }

      .cls-2 {
        font-size: 32.69px;
      }

      .cls-6 {
        stroke: #ff931e;
      }

      .cls-6, .cls-7 {
        stroke-width: 5px;
      }

      .cls-7 {
        stroke: #29abe2;
      }

      .cls-3 {
        font-size: 34.87px;
      }

      .cls-9 {
        fill: #4d4d4d;
      }

      .cls-9, .cls-10, .cls-11, .cls-4 {
        stroke-width: 0px;
      }

      .cls-10 {
        fill: #29abe2;
      }

      .cls-11 {
        fill: #ff931e;
      }

      .cls-8 {
        stroke-linejoin: round;
      }
    </style>
  </defs>
  <rect class="cls-4" width="1997" height="868"/>
  <rect class="cls-10" x="74.5" y="62.64" width="187.59" height="187.59" rx="19.94" ry="19.94"/>
  <text class="cls-2" transform="translate(94.88 290.73)"><tspan x="0" y="0">Merchant</tspan></text>
  <g>
    <path class="cls-8" d="M223.17,138.98c0,5.49-4.9,9.95-10.94,9.95s-10.94-4.45-10.94-9.95c0,5.49-4.9,9.95-10.94,9.95s-10.94-4.45-10.94-9.95c0,5.49-4.9,9.95-10.94,9.95s-10.94-4.45-10.94-9.95c0,5.49-4.9,9.95-10.94,9.95s-10.94-4.45-10.94-9.95c0,5.49-4.9,9.95-10.94,9.95s-10.94-4.45-10.94-9.95"/>
    <path class="cls-5" d="M113.73,138.98l11.4-36.19c.61-2.14,2.56-3.61,4.78-3.61h77.06c2.22,0,4.17,1.47,4.78,3.61l11.4,36.19"/>
    <path class="cls-8" d="M215.71,148.93v59.69c0,2.75-2.23,4.97-4.97,4.97h-84.56c-2.75,0-4.97-2.23-4.97-4.97v-59.69"/>
    <line class="cls-5" x1="156.02" y1="143.96" x2="156.02" y2="213.59"/>
    <line class="cls-5" x1="146.07" y1="173.8" x2="146.07" y2="178.78"/>
    <line class="cls-5" x1="185.86" y1="163.85" x2="170.94" y2="178.78"/>
    <line class="cls-5" x1="195.81" y1="173.8" x2="175.91" y2="193.7"/>
    <line class="cls-5" x1="201.28" y1="138.98" x2="195.29" y2="99.19"/>
    <line class="cls-5" x1="179.39" y1="138.98" x2="175.7" y2="99.19"/>
    <line class="cls-5" x1="157.51" y1="138.98" x2="160.89" y2="99.19"/>
    <line class="cls-5" x1="135.62" y1="138.98" x2="142.03" y2="99.19"/>
  </g>
  <text class="cls-3" transform="translate(1658.69 288.18)"><tspan x="0" y="0">Payment Options</tspan></text>
  <rect class="cls-11" x="1708.76" y="60.09" width="187.59" height="187.59" rx="19.94" ry="19.94"/>
  <g>
    <g>
      <path class="cls-8" d="M1793.63,161.59c-4.82,1.11-9.4,3.04-13.45,5.64"/>
      <path class="cls-8" d="M1826.37,167.23c-4.05-2.6-8.63-4.53-13.45-5.64"/>
      <path class="cls-8" d="M1845.6,194.27c-1.11-4.82-3.04-9.4-5.64-13.45"/>
      <path class="cls-8" d="M1766.59,180.82c-2.6,4.05-4.53,8.63-5.64,13.45"/>
      <path class="cls-8" d="M1824.73,206.69c.17-.89.22-1.83.22-2.77,0-12.03-9.65-21.68-21.68-21.68s-21.68,9.65-21.68,21.68c0,.94.06,1.89.22,2.77"/>
      <polyline class="cls-8" points="1793.63 161.59 1793.63 148.47 1812.92 148.47 1812.92 161.59"/>
      <polyline class="cls-8" points="1826.37 167.23 1835.67 157.87 1849.32 171.52 1839.96 180.82"/>
      <polyline class="cls-8" points="1845.58 194.27 1858.72 194.27 1858.72 206.69"/>
      <polyline class="cls-8" points="1747.83 206.69 1747.83 194.27 1760.97 194.27"/>
      <polyline class="cls-8" points="1766.59 180.82 1757.23 171.52 1770.88 157.87 1780.18 167.23"/>
    </g>
    <path class="cls-8" d="M1739.52,101.35h127.52v104.34c0,.55-.45,1-1,1h-125.52c-.55,0-1-.45-1-1v-104.34h0Z"/>
    <line class="cls-8" x1="1739.52" y1="123.52" x2="1867.03" y2="123.52"/>
    <circle class="cls-4" cx="1756.15" cy="112.43" r="2.77"/>
    <circle class="cls-4" cx="1767.24" cy="112.43" r="2.77"/>
    <circle class="cls-4" cx="1778.33" cy="112.43" r="2.77"/>
  </g>
  <line class="cls-7" x1="168.49" y1="325.93" x2="168.49" y2="799.5"/>
  <line class="cls-6" x1="1803.49" y1="325.93" x2="1803.49" y2="776.5"/>
  <g>
    <line class="cls-7" x1="214.58" y1="424.11" x2="1738.75" y2="424.11"/>
    <polygon class="cls-10" points="1734.08 440.06 1761.71 424.11 1734.08 408.15 1734.08 440.06"/>
  </g>
  <g>
    <line class="cls-6" x1="244.61" y1="567.5" x2="1754.65" y2="567.5"/>
    <polygon class="cls-11" points="249.28 583.46 221.65 567.5 249.28 551.54 249.28 583.46"/>
  </g>
  <rect class="cls-10" x="141.5" y="379.5" width="52" height="326.5"/>
  <rect class="cls-11" x="1777" y="375" width="52" height="302"/>
  <rect class="cls-9" x="849.3" y="360.35" width="277.7" height="51" rx="9.28" ry="9.28"/>
  <text class="cls-1" transform="translate(885.83 393.95)"><tspan x="0" y="0">Capture Request</tspan></text>
  <rect class="cls-9" x="836.3" y="505.97" width="303.7" height="51" rx="9.28" ry="9.28"/>
  <text class="cls-1" transform="translate(873.71 539.57)"><tspan x="0" y="0">Capture Response</tspan></text>
</svg>