<?xml version="1.0" encoding="UTF-8"?>
<svg id="Layer_1" data-name="Layer 1" xmlns="http://www.w3.org/2000/svg" viewBox="0 0 1997 1150">
  <defs>
    <style>
      .cls-1 {
        letter-spacing: -.02em;
      }

      .cls-2 {
        letter-spacing: -.02em;
      }

      .cls-3 {
        font-size: 25.9px;
      }

      .cls-3, .cls-4, .cls-5 {
        font-family: Arial-BoldMT, Arial;
        font-weight: 700;
      }

      .cls-3, .cls-6 {
        fill: #fff;
      }

      .cls-7, .cls-8, .cls-9, .cls-10, .cls-11, .cls-12, .cls-13 {
        fill: none;
      }

      .cls-7, .cls-8, .cls-9, .cls-10, .cls-12 {
        stroke-miterlimit: 10;
      }

      .cls-7, .cls-11, .cls-13 {
        stroke: #fff;
        stroke-linecap: round;
      }

      .cls-7, .cls-13 {
        stroke-width: 3px;
      }

      .cls-4 {
        font-size: 32.69px;
      }

      .cls-8 {
        stroke: #ff931e;
      }

      .cls-8, .cls-9, .cls-10, .cls-12 {
        stroke-width: 5px;
      }

      .cls-9, .cls-12 {
        stroke: #39b54a;
      }

      .cls-10 {
        stroke: #29abe2;
      }

      .cls-14 {
        letter-spacing: -.02em;
      }

      .cls-11 {
        stroke-width: 2px;
      }

      .cls-11, .cls-13 {
        stroke-linejoin: round;
      }

      .cls-15 {
        letter-spacing: 0em;
      }

      .cls-12 {
        stroke-dasharray: 0 0 12.26 12.26;
      }

      .cls-5 {
        font-size: 34.87px;
      }

      .cls-16 {
        fill: #4d4d4d;
      }

      .cls-16, .cls-17, .cls-18, .cls-19, .cls-6 {
        stroke-width: 0px;
      }

      .cls-17 {
        fill: #29abe2;
      }

      .cls-18 {
        fill: #39b54a;
      }

      .cls-19 {
        fill: #ff931e;
      }

      .cls-20 {
        letter-spacing: 0em;
      }
    </style>
  </defs>
  <rect class="cls-6" width="1997" height="1150"/>
  <rect class="cls-17" x="74.5" y="62.64" width="187.59" height="187.59" rx="19.94" ry="19.94"/>
  <text class="cls-4" transform="translate(94.88 290.73)"><tspan x="0" y="0">Merchant</tspan></text>
  <g>
    <path class="cls-13" d="M223.17,138.98c0,5.49-4.9,9.95-10.94,9.95s-10.94-4.45-10.94-9.95c0,5.49-4.9,9.95-10.94,9.95s-10.94-4.45-10.94-9.95c0,5.49-4.9,9.95-10.94,9.95s-10.94-4.45-10.94-9.95c0,5.49-4.9,9.95-10.94,9.95s-10.94-4.45-10.94-9.95c0,5.49-4.9,9.95-10.94,9.95s-10.94-4.45-10.94-9.95"/>
    <path class="cls-7" d="M113.73,138.98l11.4-36.19c.61-2.14,2.56-3.61,4.78-3.61h77.06c2.22,0,4.17,1.47,4.78,3.61l11.4,36.19"/>
    <path class="cls-13" d="M215.71,148.93v59.69c0,2.75-2.23,4.97-4.97,4.97h-84.56c-2.75,0-4.97-2.23-4.97-4.97v-59.69"/>
    <line class="cls-7" x1="156.02" y1="143.96" x2="156.02" y2="213.59"/>
    <line class="cls-7" x1="146.07" y1="173.8" x2="146.07" y2="178.78"/>
    <line class="cls-7" x1="185.86" y1="163.85" x2="170.94" y2="178.78"/>
    <line class="cls-7" x1="195.81" y1="173.8" x2="175.91" y2="193.7"/>
    <line class="cls-7" x1="201.28" y1="138.98" x2="195.29" y2="99.19"/>
    <line class="cls-7" x1="179.39" y1="138.98" x2="175.7" y2="99.19"/>
    <line class="cls-7" x1="157.51" y1="138.98" x2="160.89" y2="99.19"/>
    <line class="cls-7" x1="135.62" y1="138.98" x2="142.03" y2="99.19"/>
  </g>
  <rect class="cls-18" x="897.5" y="62.64" width="187.59" height="187.59" rx="19.94" ry="19.94"/>
  <text class="cls-4" transform="translate(913.61 290.73)"><tspan x="0" y="0">HP</tspan><tspan class="cls-1" x="45.41" y="0">P</tspan><tspan x="66.62" y="0" xml:space="preserve"> Page</tspan></text>
  <text class="cls-5" transform="translate(1658.69 288.18)"><tspan x="0" y="0">Payment Options</tspan></text>
  <rect class="cls-19" x="1708.76" y="60.09" width="187.59" height="187.59" rx="19.94" ry="19.94"/>
  <g>
    <g>
      <path class="cls-13" d="M1793.63,161.59c-4.82,1.11-9.4,3.04-13.45,5.64"/>
      <path class="cls-13" d="M1826.37,167.23c-4.05-2.6-8.63-4.53-13.45-5.64"/>
      <path class="cls-13" d="M1845.6,194.27c-1.11-4.82-3.04-9.4-5.64-13.45"/>
      <path class="cls-13" d="M1766.59,180.82c-2.6,4.05-4.53,8.63-5.64,13.45"/>
      <path class="cls-13" d="M1824.73,206.69c.17-.89.22-1.83.22-2.77,0-12.03-9.65-21.68-21.68-21.68s-21.68,9.65-21.68,21.68c0,.94.06,1.89.22,2.77"/>
      <polyline class="cls-13" points="1793.63 161.59 1793.63 148.47 1812.92 148.47 1812.92 161.59"/>
      <polyline class="cls-13" points="1826.37 167.23 1835.67 157.87 1849.32 171.52 1839.96 180.82"/>
      <polyline class="cls-13" points="1845.58 194.27 1858.72 194.27 1858.72 206.69"/>
      <polyline class="cls-13" points="1747.83 206.69 1747.83 194.27 1760.97 194.27"/>
      <polyline class="cls-13" points="1766.59 180.82 1757.23 171.52 1770.88 157.87 1780.18 167.23"/>
    </g>
    <path class="cls-13" d="M1739.52,101.35h127.52v104.34c0,.55-.45,1-1,1h-125.52c-.55,0-1-.45-1-1v-104.34h0Z"/>
    <line class="cls-13" x1="1739.52" y1="123.52" x2="1867.03" y2="123.52"/>
    <circle class="cls-6" cx="1756.15" cy="112.43" r="2.77"/>
    <circle class="cls-6" cx="1767.24" cy="112.43" r="2.77"/>
    <circle class="cls-6" cx="1778.33" cy="112.43" r="2.77"/>
  </g>
  <line class="cls-10" x1="168.49" y1="325.93" x2="168.49" y2="1086.5"/>
  <line class="cls-8" x1="1803.49" y1="325.93" x2="1803.49" y2="1086.5"/>
  <g>
    <line class="cls-9" x1="990.88" y1="309.5" x2="990.88" y2="315.5"/>
    <line class="cls-12" x1="990.88" y1="327.76" x2="990.88" y2="640.37"/>
    <line class="cls-9" x1="990.88" y1="646.5" x2="990.88" y2="652.5"/>
  </g>
  <g>
    <line class="cls-10" x1="215.37" y1="424.11" x2="1739.54" y2="424.11"/>
    <polygon class="cls-17" points="1734.87 440.06 1762.5 424.11 1734.87 408.15 1734.87 440.06"/>
  </g>
  <g>
    <line class="cls-10" x1="215.37" y1="711.11" x2="928.54" y2="711.11"/>
    <polygon class="cls-17" points="923.87 727.06 951.5 711.11 923.87 695.15 923.87 727.06"/>
  </g>
  <g>
    <line class="cls-10" x1="1038.5" y1="711.11" x2="1734.54" y2="711.11"/>
    <polygon class="cls-17" points="1729.87 727.06 1757.5 711.11 1729.87 695.15 1729.87 727.06"/>
  </g>
  <g>
    <line class="cls-8" x1="238.46" y1="567.5" x2="1748.5" y2="567.5"/>
    <polygon class="cls-19" points="243.13 583.46 215.5 567.5 243.13 551.54 243.13 583.46"/>
  </g>
  <g>
    <line class="cls-8" x1="210.46" y1="998.5" x2="1756.5" y2="998.5"/>
    <polygon class="cls-19" points="215.13 1014.46 187.5 998.5 215.13 982.54 215.13 1014.46"/>
  </g>
  <rect class="cls-17" x="141.5" y="379.5" width="52" height="365"/>
  <rect class="cls-18" x="963" y="642" width="52" height="262"/>
  <rect class="cls-19" x="1777" y="375" width="52" height="232"/>
  <rect class="cls-19" x="1777" y="652" width="52" height="394"/>
  <g>
    <line class="cls-8" x1="1061.46" y1="849.5" x2="1749" y2="849.5"/>
    <polygon class="cls-19" points="1066.13 865.46 1038.5 849.5 1066.13 833.54 1066.13 865.46"/>
  </g>
  <g>
    <line class="cls-8" x1="208.46" y1="849.5" x2="951.5" y2="849.5"/>
    <polygon class="cls-19" points="213.13 865.46 185.5 849.5 213.13 833.54 213.13 865.46"/>
  </g>
  <rect class="cls-16" x="768" y="360.35" width="445.04" height="51" rx="9.28" ry="9.28"/>
  <text class="cls-3" transform="translate(790.41 393.95)"><tspan x="0" y="0">Generate link with token request</tspan></text>
  <rect class="cls-16" x="909.76" y="505.97" width="161.89" height="51" rx="9.28" ry="9.28"/>
  <text class="cls-3" transform="translate(934.45 539.57)"><tspan x="0" y="0">HP</tspan><tspan class="cls-2" x="35.98" y="0">P</tspan><tspan class="cls-15" x="52.79" y="0" xml:space="preserve"> Link</tspan></text>
  <rect class="cls-16" x="434.18" y="650.41" width="201.25" height="51" rx="9.28" ry="9.28"/>
  <text class="cls-3" transform="translate(453.13 684.01)"><tspan x="0" y="0">Open the link</tspan></text>
  <rect class="cls-16" x="434.18" y="789.09" width="201.25" height="51" rx="9.28" ry="9.28"/>
  <text class="cls-3" transform="translate(463.92 822.7)"><tspan x="0" y="0">Redirection</tspan></text>
  <rect class="cls-16" x="834.41" y="937" width="299.48" height="51" rx="9.28" ry="9.28"/>
  <text class="cls-3" transform="translate(860.97 970.6)"><tspan class="cls-14" x="0" y="0">W</tspan><tspan class="cls-20" x="23.98" y="0">ebhook Response</tspan></text>
  <rect class="cls-16" x="1297.96" y="649.41" width="264.5" height="51" rx="9.28" ry="9.28"/>
  <text class="cls-3" transform="translate(1321.89 683.01)"><tspan x="0" y="0">Payment Request</tspan></text>
  <rect class="cls-16" x="1283.75" y="789.09" width="292.92" height="51" rx="9.28" ry="9.28"/>
  <text class="cls-3" transform="translate(1311.09 822.7)"><tspan x="0" y="0">Payment Response</tspan></text>
  <g>
    <path class="cls-13" d="M1047.63,209.28h-112.68c-2.96,0-5.37-2.4-5.37-5.37v-90.09c0-3.57,2.93-6.49,6.49-6.49h110.42c3.57,0,6.49,2.93,6.49,6.49v90.09c0,2.96-2.4,5.37-5.37,5.37h0Z"/>
    <line class="cls-13" x1="929.59" y1="134.16" x2="1053" y2="134.16"/>
    <circle class="cls-6" cx="943.01" cy="120.75" r="5.37"/>
    <circle class="cls-6" cx="959.1" cy="120.75" r="5.37"/>
    <circle class="cls-6" cx="975.2" cy="120.75" r="5.37"/>
  </g>
  <g>
    <circle class="cls-11" cx="992.2" cy="180.78" r="15.05"/>
    <path class="cls-11" d="M981.45,170.26v-13.14c0-5.94,4.81-10.75,10.75-10.75,2.96,0,5.66,1.21,7.61,3.14,1.93,1.96,3.14,4.65,3.14,7.61v13.14"/>
    <line class="cls-11" x1="992.2" y1="180.78" x2="992.2" y2="185.08"/>
    <circle class="cls-6" cx="992.2" cy="178.64" r="3.22"/>
  </g>
</svg>