<?xml version="1.0" encoding="UTF-8"?>
<svg id="Layer_1" data-name="Layer 1" xmlns="http://www.w3.org/2000/svg" viewBox="0 0 1997 1150">
  <defs>
    <style>
      .cls-1 {
        letter-spacing: -.18em;
      }

      .cls-2 {
        letter-spacing: -.18em;
      }

      .cls-3 {
        letter-spacing: -.02em;
      }

      .cls-4, .cls-5, .cls-6, .cls-7, .cls-8, .cls-9, .cls-10 {
        fill: none;
      }

      .cls-4, .cls-5, .cls-6, .cls-7, .cls-9 {
        stroke-miterlimit: 10;
      }

      .cls-4, .cls-8, .cls-10 {
        stroke: #fff;
        stroke-linecap: round;
      }

      .cls-4, .cls-10 {
        stroke-width: 3px;
      }

      .cls-11 {
        letter-spacing: -.04em;
      }

      .cls-12 {
        letter-spacing: 0em;
      }

      .cls-12, .cls-13, .cls-14, .cls-15, .cls-16, .cls-17, .cls-18, .cls-19, .cls-20 {
        font-family: KozGoPr6N-Regular-83pv-RKSJ-H, 'Kozuka Gothic Pr6N';
      }

      .cls-21 {
        letter-spacing: -.08em;
      }

      .cls-22 {
        letter-spacing: -.02em;
      }

      .cls-23, .cls-14 {
        letter-spacing: -.08em;
      }

      .cls-24, .cls-18 {
        letter-spacing: -.14em;
      }

      .cls-25 {
        letter-spacing: -.06em;
      }

      .cls-26 {
        letter-spacing: -.12em;
      }

      .cls-27, .cls-17 {
        font-size: 32.69px;
      }

      .cls-5 {
        stroke: #ff931e;
      }

      .cls-5, .cls-6, .cls-7, .cls-9 {
        stroke-width: 5px;
      }

      .cls-6, .cls-9 {
        stroke: #39b54a;
      }

      .cls-7 {
        stroke: #29abe2;
      }

      .cls-15 {
        letter-spacing: -.01em;
      }

      .cls-28 {
        letter-spacing: -.16em;
      }

      .cls-29 {
        letter-spacing: -.16em;
      }

      .cls-16, .cls-30 {
        font-size: 25.9px;
      }

      .cls-16, .cls-30, .cls-31 {
        fill: #fff;
      }

      .cls-8 {
        stroke-width: 2px;
      }

      .cls-8, .cls-10 {
        stroke-linejoin: round;
      }

      .cls-32, .cls-20 {
        letter-spacing: -.11em;
      }

      .cls-33 {
        letter-spacing: -.11em;
      }

      .cls-9 {
        stroke-dasharray: 0 0 12.26 12.26;
      }

      .cls-34 {
        letter-spacing: -.05em;
      }

      .cls-35 {
        letter-spacing: -.1em;
      }

      .cls-36, .cls-37, .cls-38 {
        font-family: Arial-BoldMT, Arial;
        font-weight: 700;
      }

      .cls-37 {
        letter-spacing: -.02em;
      }

      .cls-39 {
        letter-spacing: -.05em;
      }

      .cls-40 {
        letter-spacing: -.09em;
      }

      .cls-38 {
        font-size: 34.87px;
      }

      .cls-41 {
        letter-spacing: -.15em;
      }

      .cls-19 {
        letter-spacing: -.05em;
      }

      .cls-42 {
        fill: #4d4d4d;
      }

      .cls-42, .cls-43, .cls-44, .cls-45, .cls-31 {
        stroke-width: 0px;
      }

      .cls-43 {
        fill: #29abe2;
      }

      .cls-44 {
        fill: #39b54a;
      }

      .cls-45 {
        fill: #ff931e;
      }

      .cls-46 {
        letter-spacing: -.07em;
      }

      .cls-47 {
        letter-spacing: -.07em;
      }
    </style>
  </defs>
  <rect class="cls-31" width="1997" height="1150"/>
  <rect class="cls-43" x="74.5" y="62.64" width="187.59" height="187.59" rx="19.94" ry="19.94"/>
  <text class="cls-17" transform="translate(118.5 290.73)"><tspan x="0" y="0">加盟店</tspan></text>
  <g>
    <path class="cls-10" d="M223.17,138.98c0,5.49-4.9,9.95-10.94,9.95s-10.94-4.45-10.94-9.95c0,5.49-4.9,9.95-10.94,9.95s-10.94-4.45-10.94-9.95c0,5.49-4.9,9.95-10.94,9.95s-10.94-4.45-10.94-9.95c0,5.49-4.9,9.95-10.94,9.95s-10.94-4.45-10.94-9.95c0,5.49-4.9,9.95-10.94,9.95s-10.94-4.45-10.94-9.95"/>
    <path class="cls-4" d="M113.73,138.98l11.4-36.19c.61-2.14,2.56-3.61,4.78-3.61h77.06c2.22,0,4.17,1.47,4.78,3.61l11.4,36.19"/>
    <path class="cls-10" d="M215.71,148.93v59.69c0,2.75-2.23,4.97-4.97,4.97h-84.56c-2.75,0-4.97-2.23-4.97-4.97v-59.69"/>
    <line class="cls-4" x1="156.02" y1="143.96" x2="156.02" y2="213.59"/>
    <line class="cls-4" x1="146.07" y1="173.8" x2="146.07" y2="178.78"/>
    <line class="cls-4" x1="185.86" y1="163.85" x2="170.94" y2="178.78"/>
    <line class="cls-4" x1="195.81" y1="173.8" x2="175.91" y2="193.7"/>
    <line class="cls-4" x1="201.28" y1="138.98" x2="195.29" y2="99.19"/>
    <line class="cls-4" x1="179.39" y1="138.98" x2="175.7" y2="99.19"/>
    <line class="cls-4" x1="157.51" y1="138.98" x2="160.89" y2="99.19"/>
    <line class="cls-4" x1="135.62" y1="138.98" x2="142.03" y2="99.19"/>
  </g>
  <rect class="cls-44" x="897.5" y="62.64" width="187.59" height="187.59" rx="19.94" ry="19.94"/>
  <text class="cls-27" transform="translate(909.04 290.73)"><tspan class="cls-36" x="0" y="0">HPP</tspan><tspan class="cls-15" x="67.21" y="0">ペ</tspan><tspan class="cls-19" x="99.58" y="0">ー</tspan><tspan class="cls-12" x="130.63" y="0">ジ</tspan></text>
  <text class="cls-38" transform="translate(1658.69 288.18)"><tspan x="0" y="0">Payment Options</tspan></text>
  <rect class="cls-45" x="1708.76" y="60.09" width="187.59" height="187.59" rx="19.94" ry="19.94"/>
  <g>
    <g>
      <path class="cls-10" d="M1793.63,161.59c-4.82,1.11-9.4,3.04-13.45,5.64"/>
      <path class="cls-10" d="M1826.37,167.23c-4.05-2.6-8.63-4.53-13.45-5.64"/>
      <path class="cls-10" d="M1845.6,194.27c-1.11-4.82-3.04-9.4-5.64-13.45"/>
      <path class="cls-10" d="M1766.59,180.82c-2.6,4.05-4.53,8.63-5.64,13.45"/>
      <path class="cls-10" d="M1824.73,206.69c.17-.89.22-1.83.22-2.77,0-12.03-9.65-21.68-21.68-21.68s-21.68,9.65-21.68,21.68c0,.94.06,1.89.22,2.77"/>
      <polyline class="cls-10" points="1793.63 161.59 1793.63 148.47 1812.92 148.47 1812.92 161.59"/>
      <polyline class="cls-10" points="1826.37 167.23 1835.67 157.87 1849.32 171.52 1839.96 180.82"/>
      <polyline class="cls-10" points="1845.58 194.27 1858.72 194.27 1858.72 206.69"/>
      <polyline class="cls-10" points="1747.83 206.69 1747.83 194.27 1760.97 194.27"/>
      <polyline class="cls-10" points="1766.59 180.82 1757.23 171.52 1770.88 157.87 1780.18 167.23"/>
    </g>
    <path class="cls-10" d="M1739.52,101.35h127.52v104.34c0,.55-.45,1-1,1h-125.52c-.55,0-1-.45-1-1v-104.34h0Z"/>
    <line class="cls-10" x1="1739.52" y1="123.52" x2="1867.03" y2="123.52"/>
    <circle class="cls-31" cx="1756.15" cy="112.43" r="2.77"/>
    <circle class="cls-31" cx="1767.24" cy="112.43" r="2.77"/>
    <circle class="cls-31" cx="1778.33" cy="112.43" r="2.77"/>
  </g>
  <line class="cls-7" x1="168.49" y1="325.93" x2="168.49" y2="1086.5"/>
  <line class="cls-5" x1="1803.49" y1="325.93" x2="1803.49" y2="1086.5"/>
  <g>
    <line class="cls-6" x1="990.88" y1="309.5" x2="990.88" y2="315.5"/>
    <line class="cls-9" x1="990.88" y1="327.76" x2="990.88" y2="640.37"/>
    <line class="cls-6" x1="990.88" y1="646.5" x2="990.88" y2="652.5"/>
  </g>
  <g>
    <line class="cls-7" x1="215.37" y1="424.11" x2="1739.54" y2="424.11"/>
    <polygon class="cls-43" points="1734.87 440.06 1762.5 424.11 1734.87 408.15 1734.87 440.06"/>
  </g>
  <g>
    <line class="cls-7" x1="215.37" y1="711.11" x2="928.54" y2="711.11"/>
    <polygon class="cls-43" points="923.87 727.06 951.5 711.11 923.87 695.15 923.87 727.06"/>
  </g>
  <g>
    <line class="cls-7" x1="1038.5" y1="711.11" x2="1734.54" y2="711.11"/>
    <polygon class="cls-43" points="1729.87 727.06 1757.5 711.11 1729.87 695.15 1729.87 727.06"/>
  </g>
  <g>
    <line class="cls-5" x1="238.46" y1="567.5" x2="1748.5" y2="567.5"/>
    <polygon class="cls-45" points="243.13 583.46 215.5 567.5 243.13 551.54 243.13 583.46"/>
  </g>
  <g>
    <line class="cls-5" x1="210.46" y1="998.5" x2="1756.5" y2="998.5"/>
    <polygon class="cls-45" points="215.13 1014.46 187.5 998.5 215.13 982.54 215.13 1014.46"/>
  </g>
  <rect class="cls-43" x="141.5" y="379.5" width="52" height="365"/>
  <rect class="cls-44" x="963" y="642" width="52" height="262"/>
  <rect class="cls-45" x="1777" y="375" width="52" height="232"/>
  <rect class="cls-45" x="1777" y="652" width="52" height="394"/>
  <g>
    <line class="cls-5" x1="1061.46" y1="849.5" x2="1749" y2="849.5"/>
    <polygon class="cls-45" points="1066.13 865.46 1038.5 849.5 1066.13 833.54 1066.13 865.46"/>
  </g>
  <g>
    <line class="cls-5" x1="208.46" y1="849.5" x2="951.5" y2="849.5"/>
    <polygon class="cls-45" points="213.13 865.46 185.5 849.5 213.13 833.54 213.13 865.46"/>
  </g>
  <rect class="cls-42" x="836.41" y="360.35" width="308.23" height="51" rx="9.28" ry="9.28"/>
  <text class="cls-16" transform="translate(874.08 393.95)"><tspan class="cls-24" x="0" y="0">リ</tspan><tspan class="cls-33" x="22.28" y="0">ン</tspan><tspan class="cls-21" x="45.33" y="0">ク</tspan><tspan x="69.16" y="0">生</tspan><tspan class="cls-40" x="95.07" y="0">成</tspan><tspan class="cls-29" x="118.64" y="0">リ</tspan><tspan class="cls-40" x="140.4" y="0">ク</tspan><tspan class="cls-39" x="163.97" y="0">エ</tspan><tspan class="cls-29" x="188.58" y="0">ス</tspan><tspan class="cls-47" x="210.34" y="0">ト</tspan></text>
  <rect class="cls-42" x="909.76" y="505.97" width="161.89" height="51" rx="9.28" ry="9.28"/>
  <text class="cls-30" transform="translate(931.02 539.57)"><tspan class="cls-36" x="0" y="0">HPP</tspan><tspan class="cls-18" x="50.93" y="0">リ</tspan><tspan class="cls-20" x="73.21" y="0">ン</tspan><tspan class="cls-14" x="96.26" y="0">ク</tspan></text>
  <rect class="cls-42" x="434.18" y="650.41" width="201.25" height="51" rx="9.28" ry="9.28"/>
  <text class="cls-16" transform="translate(464.45 684.01)"><tspan class="cls-24" x="0" y="0">リ</tspan><tspan class="cls-33" x="22.28" y="0">ン</tspan><tspan class="cls-35" x="45.33" y="0">ク</tspan><tspan class="cls-3" x="68.65" y="0">を</tspan><tspan class="cls-23" x="94.03" y="0">開</tspan><tspan class="cls-1" x="117.86" y="0">く</tspan></text>
  <rect class="cls-42" x="409" y="789.09" width="251" height="51" rx="9.28" ry="9.28"/>
  <text class="cls-16" transform="translate(441.39 822.7)"><tspan class="cls-24" x="0" y="0">リ</tspan><tspan class="cls-25" x="22.28" y="0">ダ</tspan><tspan class="cls-26" x="46.63" y="0">イ</tspan><tspan class="cls-46" x="69.42" y="0">レ</tspan><tspan class="cls-32" x="93.51" y="0">ク</tspan><tspan class="cls-2" x="116.57" y="0">シ</tspan><tspan class="cls-41" x="137.81" y="0">ョ</tspan><tspan class="cls-3" x="159.83" y="0">ン</tspan></text>
  <rect class="cls-42" x="834.41" y="937" width="299.48" height="51" rx="9.28" ry="9.28"/>
  <text class="cls-30" transform="translate(900.57 970.6)"><tspan class="cls-37" x="0" y="0">W</tspan><tspan class="cls-36" x="23.98" y="0">ebhook</tspan><tspan class="cls-13" x="116.08" y="0">通知</tspan></text>
  <rect class="cls-42" x="1297.96" y="649.41" width="264.5" height="51" rx="9.28" ry="9.28"/>
  <text class="cls-16" transform="translate(1347.95 683.01)"><tspan x="0" y="0">決</tspan><tspan class="cls-40" x="25.9" y="0">済</tspan><tspan class="cls-28" x="49.48" y="0">リ</tspan><tspan class="cls-40" x="71.24" y="0">ク</tspan><tspan class="cls-34" x="94.81" y="0">エ</tspan><tspan class="cls-29" x="119.42" y="0">ス</tspan><tspan class="cls-47" x="141.17" y="0">ト</tspan></text>
  <rect class="cls-42" x="1283.75" y="789.09" width="292.92" height="51" rx="9.28" ry="9.28"/>
  <text class="cls-16" transform="translate(1343.54 822.7)"><tspan x="0" y="0">決</tspan><tspan class="cls-46" x="25.9" y="0">済</tspan><tspan class="cls-11" x="49.99" y="0">レ</tspan><tspan class="cls-22" x="74.86" y="0">ス</tspan><tspan class="cls-34" x="100.25" y="0">ポ</tspan><tspan class="cls-21" x="124.86" y="0">ン</tspan><tspan class="cls-22" x="148.69" y="0">ス</tspan></text>
  <g>
    <path class="cls-10" d="M1047.63,209.28h-112.68c-2.96,0-5.37-2.4-5.37-5.37v-90.09c0-3.57,2.93-6.49,6.49-6.49h110.42c3.57,0,6.49,2.93,6.49,6.49v90.09c0,2.96-2.4,5.37-5.37,5.37h0Z"/>
    <line class="cls-10" x1="929.59" y1="134.16" x2="1053" y2="134.16"/>
    <circle class="cls-31" cx="943.01" cy="120.75" r="5.37"/>
    <circle class="cls-31" cx="959.1" cy="120.75" r="5.37"/>
    <circle class="cls-31" cx="975.2" cy="120.75" r="5.37"/>
  </g>
  <g>
    <circle class="cls-8" cx="992.2" cy="180.78" r="15.05"/>
    <path class="cls-8" d="M981.45,170.26v-13.14c0-5.94,4.81-10.75,10.75-10.75,2.96,0,5.66,1.21,7.61,3.14,1.93,1.96,3.14,4.65,3.14,7.61v13.14"/>
    <line class="cls-8" x1="992.2" y1="180.78" x2="992.2" y2="185.08"/>
    <circle class="cls-31" cx="992.2" cy="178.64" r="3.22"/>
  </g>
</svg>
